<?xml version="1.0" standalone="no"?>
 <!DOCTYPE svg PUBLIC "-//W3C//DTD SVG 1.1//EN" 
 "http://www.w3.org/Graphics/SVG/1.1/DTD/svg11.dtd"> 
<svg xmlns="http://www.w3.org/2000/svg" version="1.1" 
    width="10.2235cm" height="8.91794cm" viewBox="0 0 40250 35110 ">
<title>SVG Picture created as nivel y temperatura-F.Mask.svg date 2019/06/17 11:49:45 </title>
  <desc>Picture generated by PCBNEW </desc>
<g style="fill:#000000; fill-opacity:1;stroke:#000000; stroke-opacity:1;
stroke-linecap:round; stroke-linejoin:round; "
 transform="translate(0 0) scale(1 1)">
</g>
<g style="fill:#000000; fill-opacity:0.0; 
stroke:#000000; stroke-width:-0.000393701; stroke-opacity:1; 
stroke-linecap:round; stroke-linejoin:round;">
</g>
<g style="fill:#848400; fill-opacity:0.0; 
stroke:#848400; stroke-width:-0.000393701; stroke-opacity:1; 
stroke-linecap:round; stroke-linejoin:round;">
</g>
<g style="fill:#848400; fill-opacity:0.0; 
stroke:#848400; stroke-width:748.031; stroke-opacity:1; 
stroke-linecap:round; stroke-linejoin:round;">
<path d="M19299 1531
L19299 1807
" />
<path d="M18299 1531
L18299 1807
" />
<path d="M17299 1531
L17299 1807
" />
<path d="M16299 1531
L16299 1807
" />
<path d="M15299 1531
L15299 1807
" />
<path d="M14299 1531
L14299 1807
" />
<path d="M13299 1531
L13299 1807
" />
<path d="M12299 1531
L12299 1807
" />
<path d="M11299 1531
L11299 1807
" />
<path d="M10299 1531
L10299 1807
" />
<path d="M9299 1531
L9299 1807
" />
<path d="M8299 1531
L8299 1807
" />
<path d="M7299 1531
L7299 1807
" />
<path d="M6299 1531
L6299 1807
" />
<path d="M5299 1531
L5299 1807
" />
<path d="M4299 1531
L4299 1807
" />
</g>
<g style="fill:#848400; fill-opacity:1.0; 
stroke:#848400; stroke-width:0; stroke-opacity:1; 
stroke-linecap:round; stroke-linejoin:round;">
<circle cx="1346.69" cy="23322.9" r="767.717" /> 
</g>
<g style="fill:#848400; fill-opacity:1.0; 
stroke:#848400; stroke-width:39.3701; stroke-opacity:1; 
stroke-linecap:round; stroke-linejoin:round;">
</g>
<g style="fill:#848400; fill-opacity:1.0; 
stroke:#848400; stroke-width:0; stroke-opacity:1; 
stroke-linecap:round; stroke-linejoin:round;">
<circle cx="37960.8" cy="23323.1" r="767.717" /> 
</g>
<g style="fill:#848400; fill-opacity:1.0; 
stroke:#848400; stroke-width:39.3701; stroke-opacity:1; 
stroke-linecap:round; stroke-linejoin:round;">
</g>
<g style="fill:#848400; fill-opacity:1.0; 
stroke:#848400; stroke-width:0; stroke-opacity:1; 
stroke-linecap:round; stroke-linejoin:round;">
<circle cx="37960.8" cy="1669.1" r="767.717" /> 
</g>
<g style="fill:#848400; fill-opacity:1.0; 
stroke:#848400; stroke-width:39.3701; stroke-opacity:1; 
stroke-linecap:round; stroke-linejoin:round;">
</g>
<g style="fill:#848400; fill-opacity:1.0; 
stroke:#848400; stroke-width:0; stroke-opacity:1; 
stroke-linecap:round; stroke-linejoin:round;">
<circle cx="1346.78" cy="1669.1" r="767.717" /> 
</g>
<g style="fill:#848400; fill-opacity:1.0; 
stroke:#848400; stroke-width:39.3701; stroke-opacity:1; 
stroke-linecap:round; stroke-linejoin:round;">
</g>
<g style="fill:#848400; fill-opacity:1.0; 
stroke:#848400; stroke-width:0; stroke-opacity:1; 
stroke-linecap:round; stroke-linejoin:round;">
<polyline style="fill-rule:evenodd;"
points="14556,31064
14556,30237
15383,30237
15383,31064
14556,31064
" /> 
</g>
<g style="fill:#848400; fill-opacity:1.0; 
stroke:#848400; stroke-width:826.772; stroke-opacity:1; 
stroke-linecap:round; stroke-linejoin:round;">
</g>
<g style="fill:#848400; fill-opacity:0.0; 
stroke:#848400; stroke-width:826.772; stroke-opacity:1; 
stroke-linecap:round; stroke-linejoin:round;">
<path d="M14970 31651
L14970 31651
" />
<path d="M14970 32651
L14970 32651
" />
<path d="M14970 33651
L14970 33651
" />
</g>
<g style="fill:#848400; fill-opacity:0.0; 
stroke:#848400; stroke-width:787.402; stroke-opacity:1; 
stroke-linecap:round; stroke-linejoin:round;">
<path d="M37650 25071
L37650 25071
" />
<path d="M37650 31071
L37650 31071
" />
<path d="M23650 25071
L23650 25071
" />
<path d="M36650 31071
L36650 31071
" />
<path d="M24650 25071
L24650 25071
" />
<path d="M35650 31071
L35650 31071
" />
<path d="M25650 25071
L25650 25071
" />
<path d="M34650 31071
L34650 31071
" />
<path d="M26650 25071
L26650 25071
" />
<path d="M33650 31071
L33650 31071
" />
<path d="M27650 25071
L27650 25071
" />
<path d="M32650 31071
L32650 31071
" />
<path d="M28650 25071
L28650 25071
" />
<path d="M31650 31071
L31650 31071
" />
<path d="M29650 25071
L29650 25071
" />
<path d="M30650 31071
L30650 31071
" />
<path d="M30650 25071
L30650 25071
" />
<path d="M29650 31071
L29650 31071
" />
<path d="M31650 25071
L31650 25071
" />
<path d="M28650 31071
L28650 31071
" />
<path d="M32650 25071
L32650 25071
" />
<path d="M27650 31071
L27650 31071
" />
<path d="M33650 25071
L33650 25071
" />
<path d="M26650 31071
L26650 31071
" />
<path d="M34650 25071
L34650 25071
" />
<path d="M25650 31071
L25650 31071
" />
<path d="M35650 25071
L35650 25071
" />
</g>
<g style="fill:#848400; fill-opacity:0.0; 
stroke:#848400; stroke-width:826.772; stroke-opacity:1; 
stroke-linecap:round; stroke-linejoin:round;">
<path d="M24650 31071
L24650 31071
" />
</g>
<g style="fill:#848400; fill-opacity:0.0; 
stroke:#848400; stroke-width:787.402; stroke-opacity:1; 
stroke-linecap:round; stroke-linejoin:round;">
<path d="M36650 25071
L36650 25071
" />
</g>
<g style="fill:#848400; fill-opacity:0.0; 
stroke:#848400; stroke-width:0; stroke-opacity:1; 
stroke-linecap:round; stroke-linejoin:round;">
</g>
<g style="fill:#848400; fill-opacity:1.0; 
stroke:#848400; stroke-width:0; stroke-opacity:1; 
stroke-linecap:round; stroke-linejoin:round;">
<polyline style="fill-rule:evenodd;"
points="24063,31484
23236,31484
23236,30657
24063,30657
24063,31484
" /> 
</g>
<g style="fill:#840000; fill-opacity:1.0; 
stroke:#840000; stroke-width:0; stroke-opacity:1; 
stroke-linecap:round; stroke-linejoin:round;">
<polyline style="fill-rule:evenodd;"
points="7134,31837
7147,31838
7159,31841
7171,31846
7182,31851
7193,31858
7203,31865
7213,31874
7221,31883
7229,31893
7235,31904
7241,31915
7245,31927
7248,31940
7250,31952
7250,31965
7250,32377
7250,32389
7248,32402
7245,32414
7241,32426
7235,32437
7229,32448
7221,32458
7213,32468
7203,32476
7193,32484
7182,32490
7171,32495
7159,32500
7147,32503
7134,32505
7122,32505
6700,32505
6687,32505
6675,32503
6663,32500
6651,32495
6639,32490
6629,32484
6618,32476
6609,32468
6601,32458
6593,32448
6587,32437
6581,32426
6577,32414
6574,32402
6572,32389
6571,32377
6571,31965
6572,31952
6574,31940
6577,31927
6581,31915
6587,31904
6593,31893
6601,31883
6609,31874
6618,31865
6629,31858
6639,31851
6651,31846
6663,31841
6675,31838
6687,31837
6700,31836
7122,31836
7134,31837
" /> 
<polyline style="fill-rule:evenodd;"
points="7892,31837
7905,31838
7917,31841
7929,31846
7940,31851
7951,31858
7961,31865
7971,31874
7979,31883
7987,31893
7993,31904
7999,31915
8003,31927
8006,31940
8008,31952
8008,31965
8008,32377
8008,32389
8006,32402
8003,32414
7999,32426
7993,32437
7987,32448
7979,32458
7971,32468
7961,32476
7951,32484
7940,32490
7929,32495
7917,32500
7905,32503
7892,32505
7880,32505
7458,32505
7445,32505
7433,32503
7421,32500
7409,32495
7397,32490
7386,32484
7376,32476
7367,32468
7358,32458
7351,32448
7344,32437
7339,32426
7335,32414
7332,32402
7330,32389
7329,32377
7329,31965
7330,31952
7332,31940
7335,31927
7339,31915
7344,31904
7351,31893
7358,31883
7367,31874
7376,31865
7386,31858
7397,31851
7409,31846
7421,31841
7433,31838
7445,31837
7458,31836
7880,31836
7892,31837
" /> 
<polyline style="fill-rule:evenodd;"
points="5612,28737
5625,28739
5637,28742
5649,28746
5661,28752
5672,28759
5683,28766
5693,28775
5701,28785
5709,28795
5716,28806
5721,28818
5726,28830
5729,28843
5731,28856
5731,28869
5731,29312
5731,29325
5729,29338
5726,29351
5721,29363
5716,29375
5709,29386
5701,29396
5693,29406
5683,29415
5672,29423
5661,29429
5649,29435
5637,29439
5625,29442
5612,29444
5599,29445
5254,29445
5241,29444
5228,29442
5215,29439
5203,29435
5191,29429
5180,29423
5170,29415
5160,29406
5151,29396
5144,29386
5137,29375
5131,29363
5127,29351
5124,29338
5122,29325
5121,29312
5121,28869
5122,28856
5124,28843
5127,28830
5131,28818
5137,28806
5144,28795
5151,28785
5160,28775
5170,28766
5180,28759
5191,28752
5203,28746
5215,28742
5228,28739
5241,28737
5254,28736
5599,28736
5612,28737
" /> 
<polyline style="fill-rule:evenodd;"
points="6419,28737
6432,28739
6444,28742
6457,28746
6468,28752
6480,28759
6490,28766
6500,28775
6508,28785
6516,28795
6523,28806
6528,28818
6533,28830
6536,28843
6538,28856
6538,28869
6538,29312
6538,29325
6536,29338
6533,29351
6528,29363
6523,29375
6516,29386
6508,29396
6500,29406
6490,29415
6480,29423
6468,29429
6457,29435
6444,29439
6432,29442
6419,29444
6406,29445
6061,29445
6048,29444
6035,29442
6022,29439
6010,29435
5998,29429
5987,29423
5977,29415
5967,29406
5958,29396
5951,29386
5944,29375
5938,29363
5934,29351
5931,29338
5929,29325
5928,29312
5928,28869
5929,28856
5931,28843
5934,28830
5938,28818
5944,28806
5951,28795
5958,28785
5967,28775
5977,28766
5987,28759
5998,28752
6010,28746
6022,28742
6035,28739
6048,28737
6061,28736
6406,28736
6419,28737
" /> 
<polyline style="fill-rule:evenodd;"
points="7899,28737
7912,28739
7924,28742
7937,28746
7948,28752
7960,28759
7970,28766
7980,28775
7988,28785
7996,28795
8003,28806
8008,28818
8013,28830
8016,28843
8018,28856
8018,28869
8018,29312
8018,29325
8016,29338
8013,29351
8008,29363
8003,29375
7996,29386
7988,29396
7980,29406
7970,29415
7960,29423
7948,29429
7937,29435
7924,29439
7912,29442
7899,29444
7886,29445
7541,29445
7528,29444
7515,29442
7502,29439
7490,29435
7478,29429
7467,29423
7457,29415
7447,29406
7438,29396
7431,29386
7424,29375
7418,29363
7414,29351
7411,29338
7409,29325
7408,29312
7408,28869
7409,28856
7411,28843
7414,28830
7418,28818
7424,28806
7431,28795
7438,28785
7447,28775
7457,28766
7467,28759
7478,28752
7490,28746
7502,28742
7515,28739
7528,28737
7541,28736
7886,28736
7899,28737
" /> 
<polyline style="fill-rule:evenodd;"
points="7092,28737
7105,28739
7117,28742
7129,28746
7141,28752
7152,28759
7163,28766
7173,28775
7181,28785
7189,28795
7196,28806
7201,28818
7206,28830
7209,28843
7211,28856
7211,28869
7211,29312
7211,29325
7209,29338
7206,29351
7201,29363
7196,29375
7189,29386
7181,29396
7173,29406
7163,29415
7152,29423
7141,29429
7129,29435
7117,29439
7105,29442
7092,29444
7079,29445
6734,29445
6721,29444
6708,29442
6695,29439
6683,29435
6671,29429
6660,29423
6650,29415
6640,29406
6631,29396
6624,29386
6617,29375
6611,29363
6607,29351
6604,29338
6602,29325
6601,29312
6601,28869
6602,28856
6604,28843
6607,28830
6611,28818
6617,28806
6624,28795
6631,28785
6640,28775
6650,28766
6660,28759
6671,28752
6683,28746
6695,28742
6708,28739
6721,28737
6734,28736
7079,28736
7092,28737
" /> 
</g>
<g style="fill:#848400; fill-opacity:1.0; 
stroke:#848400; stroke-width:0; stroke-opacity:1; 
stroke-linecap:round; stroke-linejoin:round;">
<polyline style="fill-rule:evenodd;"
points="26943,34224
26116,34224
26116,33397
26943,33397
26943,34224
" /> 
</g>
<g style="fill:#848400; fill-opacity:1.0; 
stroke:#848400; stroke-width:826.772; stroke-opacity:1; 
stroke-linecap:round; stroke-linejoin:round;">
</g>
<g style="fill:#848400; fill-opacity:0.0; 
stroke:#848400; stroke-width:826.772; stroke-opacity:1; 
stroke-linecap:round; stroke-linejoin:round;">
<path d="M27530 33811
L27530 33811
" />
<path d="M28530 33811
L28530 33811
" />
<path d="M29530 33811
L29530 33811
" />
</g>
<g style="fill:#848400; fill-opacity:0.0; 
stroke:#848400; stroke-width:0; stroke-opacity:1; 
stroke-linecap:round; stroke-linejoin:round;">
</g>
<g style="fill:#848400; fill-opacity:1.0; 
stroke:#848400; stroke-width:0; stroke-opacity:1; 
stroke-linecap:round; stroke-linejoin:round;">
<polyline style="fill-rule:evenodd;"
points="33423,34244
32596,34244
32596,33417
33423,33417
33423,34244
" /> 
</g>
<g style="fill:#848400; fill-opacity:1.0; 
stroke:#848400; stroke-width:826.772; stroke-opacity:1; 
stroke-linecap:round; stroke-linejoin:round;">
</g>
<g style="fill:#848400; fill-opacity:0.0; 
stroke:#848400; stroke-width:826.772; stroke-opacity:1; 
stroke-linecap:round; stroke-linejoin:round;">
<path d="M34010 33831
L34010 33831
" />
<path d="M35010 33831
L35010 33831
" />
<path d="M36010 33831
L36010 33831
" />
<path d="M37010 33831
L37010 33831
" />
<path d="M38010 33831
L38010 33831
" />
</g>
<g style="fill:#848400; fill-opacity:0.0; 
stroke:#848400; stroke-width:0; stroke-opacity:1; 
stroke-linecap:round; stroke-linejoin:round;">
</g>
<g style="fill:#848400; fill-opacity:1.0; 
stroke:#848400; stroke-width:0; stroke-opacity:1; 
stroke-linecap:round; stroke-linejoin:round;">
<polyline style="fill-rule:evenodd;"
points="9456,33613
9456,32688
10283,32688
10283,33613
9456,33613
" /> 
</g>
<g style="fill:#848400; fill-opacity:1.0; 
stroke:#848400; stroke-width:826.772; stroke-opacity:1; 
stroke-linecap:round; stroke-linejoin:round;">
</g>
<g style="fill:#848400; fill-opacity:0.0; 
stroke:#848400; stroke-width:826.772; stroke-opacity:1; 
stroke-linecap:round; stroke-linejoin:round;">
<path d="M10854 33101
L10854 33200
" />
<path d="M11838 33101
L11838 33200
" />
<path d="M12823 33101
L12823 33200
" />
</g>
<g style="fill:#840000; fill-opacity:0.0; 
stroke:#840000; stroke-width:826.772; stroke-opacity:1; 
stroke-linecap:round; stroke-linejoin:round;">
</g>
<g style="fill:#840000; fill-opacity:0.0; 
stroke:#840000; stroke-width:0; stroke-opacity:1; 
stroke-linecap:round; stroke-linejoin:round;">
</g>
<g style="fill:#840000; fill-opacity:1.0; 
stroke:#840000; stroke-width:0; stroke-opacity:1; 
stroke-linecap:round; stroke-linejoin:round;">
<polyline style="fill-rule:evenodd;"
points="12729,27781
12729,26640
14461,26640
14461,27781
12729,27781
" /> 
<polyline style="fill-rule:evenodd;"
points="15878,27781
15878,26640
17611,26640
17611,27781
15878,27781
" /> 
<polyline style="fill-rule:evenodd;"
points="8403,26821
8403,25680
9938,25680
9938,26821
8403,26821
" /> 
<polyline style="fill-rule:evenodd;"
points="10962,26821
10962,25680
12497,25680
12497,26821
10962,26821
" /> 
<polyline style="fill-rule:evenodd;"
points="10292,30824
10292,29958
11433,29958
11433,30824
10292,30824
" /> 
<polyline style="fill-rule:evenodd;"
points="11866,30824
11866,29958
13008,29958
13008,30824
11866,30824
" /> 
</g>
<g style="fill:#848400; fill-opacity:1.0; 
stroke:#848400; stroke-width:0; stroke-opacity:1; 
stroke-linecap:round; stroke-linejoin:round;">
<polyline style="fill-rule:evenodd;"
points="901,33360
901,32021
2239,32021
2239,33360
901,33360
" /> 
<circle cx="3570.32" cy="32691.1" r="669.24" /> 
</g>
<g style="fill:#848400; fill-opacity:1.0; 
stroke:#848400; stroke-width:39.3701; stroke-opacity:1; 
stroke-linecap:round; stroke-linejoin:round;">
</g>
<g style="fill:#840000; fill-opacity:1.0; 
stroke:#840000; stroke-width:39.3701; stroke-opacity:1; 
stroke-linecap:round; stroke-linejoin:round;">
</g>
<g style="fill:#840000; fill-opacity:1.0; 
stroke:#840000; stroke-width:0; stroke-opacity:1; 
stroke-linecap:round; stroke-linejoin:round;">
<polyline style="fill-rule:evenodd;"
points="4736,26502
4736,25479
5484,25479
5484,26502
4736,26502
" /> 
<polyline style="fill-rule:evenodd;"
points="7256,26502
7256,25479
8004,25479
8004,26502
7256,26502
" /> 
<polyline style="fill-rule:evenodd;"
points="9379,28737
9392,28739
9404,28742
9417,28746
9428,28752
9440,28759
9450,28766
9460,28775
9468,28785
9476,28795
9483,28806
9488,28818
9493,28830
9496,28843
9498,28856
9498,28869
9498,29312
9498,29325
9496,29338
9493,29351
9488,29363
9483,29375
9476,29386
9468,29396
9460,29406
9450,29415
9440,29423
9428,29429
9417,29435
9404,29439
9392,29442
9379,29444
9366,29445
9021,29445
9008,29444
8995,29442
8982,29439
8970,29435
8958,29429
8947,29423
8937,29415
8927,29406
8918,29396
8911,29386
8904,29375
8898,29363
8894,29351
8891,29338
8889,29325
8888,29312
8888,28869
8889,28856
8891,28843
8894,28830
8898,28818
8904,28806
8911,28795
8918,28785
8927,28775
8937,28766
8947,28759
8958,28752
8970,28746
8982,28742
8995,28739
9008,28737
9021,28736
9366,28736
9379,28737
" /> 
<polyline style="fill-rule:evenodd;"
points="8572,28737
8585,28739
8597,28742
8609,28746
8621,28752
8632,28759
8643,28766
8653,28775
8661,28785
8669,28795
8676,28806
8681,28818
8686,28830
8689,28843
8691,28856
8691,28869
8691,29312
8691,29325
8689,29338
8686,29351
8681,29363
8676,29375
8669,29386
8661,29396
8653,29406
8643,29415
8632,29423
8621,29429
8609,29435
8597,29439
8585,29442
8572,29444
8559,29445
8214,29445
8201,29444
8188,29442
8175,29439
8163,29435
8151,29429
8140,29423
8130,29415
8120,29406
8111,29396
8104,29386
8097,29375
8091,29363
8087,29351
8084,29338
8082,29325
8081,29312
8081,28869
8082,28856
8084,28843
8087,28830
8091,28818
8097,28806
8104,28795
8111,28785
8120,28775
8130,28766
8140,28759
8151,28752
8163,28746
8175,28742
8188,28739
8201,28737
8214,28736
8559,28736
8572,28737
" /> 
<polyline style="fill-rule:evenodd;"
points="10052,28737
10065,28739
10077,28742
10089,28746
10101,28752
10112,28759
10123,28766
10133,28775
10141,28785
10149,28795
10156,28806
10161,28818
10166,28830
10169,28843
10171,28856
10171,28869
10171,29312
10171,29325
10169,29338
10166,29351
10161,29363
10156,29375
10149,29386
10141,29396
10133,29406
10123,29415
10112,29423
10101,29429
10089,29435
10077,29439
10065,29442
10052,29444
10039,29445
9694,29445
9681,29444
9668,29442
9655,29439
9643,29435
9631,29429
9620,29423
9610,29415
9600,29406
9591,29396
9584,29386
9577,29375
9571,29363
9567,29351
9564,29338
9562,29325
9561,29312
9561,28869
9562,28856
9564,28843
9567,28830
9571,28818
9577,28806
9584,28795
9591,28785
9600,28775
9610,28766
9620,28759
9631,28752
9643,28746
9655,28742
9668,28739
9681,28737
9694,28736
10039,28736
10052,28737
" /> 
<polyline style="fill-rule:evenodd;"
points="10859,28737
10872,28739
10884,28742
10897,28746
10908,28752
10920,28759
10930,28766
10940,28775
10948,28785
10956,28795
10963,28806
10968,28818
10973,28830
10976,28843
10978,28856
10978,28869
10978,29312
10978,29325
10976,29338
10973,29351
10968,29363
10963,29375
10956,29386
10948,29396
10940,29406
10930,29415
10920,29423
10908,29429
10897,29435
10884,29439
10872,29442
10859,29444
10846,29445
10501,29445
10488,29444
10475,29442
10462,29439
10450,29435
10438,29429
10427,29423
10417,29415
10407,29406
10398,29396
10391,29386
10384,29375
10378,29363
10374,29351
10371,29338
10369,29325
10368,29312
10368,28869
10369,28856
10371,28843
10374,28830
10378,28818
10384,28806
10391,28795
10398,28785
10407,28775
10417,28766
10427,28759
10438,28752
10450,28746
10462,28742
10475,28739
10488,28737
10501,28736
10846,28736
10859,28737
" /> 
<circle cx="6809.06" cy="33313" r="354.331" /> 
</g>
<g style="fill:#840000; fill-opacity:1.0; 
stroke:#840000; stroke-width:39.3701; stroke-opacity:1; 
stroke-linecap:round; stroke-linejoin:round;">
</g>
<g style="fill:#840000; fill-opacity:1.0; 
stroke:#840000; stroke-width:0; stroke-opacity:1; 
stroke-linecap:round; stroke-linejoin:round;">
<circle cx="7809.06" cy="33313" r="354.331" /> 
</g>
<g style="fill:#840000; fill-opacity:1.0; 
stroke:#840000; stroke-width:39.3701; stroke-opacity:1; 
stroke-linecap:round; stroke-linejoin:round;">
</g>
<g style="fill:#840000; fill-opacity:1.0; 
stroke:#840000; stroke-width:0; stroke-opacity:1; 
stroke-linecap:round; stroke-linejoin:round;">
<polyline style="fill-rule:evenodd;"
points="1287,31028
696,31028
696,29060
1287,29060
1287,31028
" /> 
<polyline style="fill-rule:evenodd;"
points="1956,31028
1365,31028
1365,29060
1956,29060
1956,31028
" /> 
<polyline style="fill-rule:evenodd;"
points="2625,31028
2035,31028
2035,29060
2625,29060
2625,31028
" /> 
<polyline style="fill-rule:evenodd;"
points="3294,31028
2704,31028
2704,29060
3294,29060
3294,31028
" /> 
<polyline style="fill-rule:evenodd;"
points="3964,31028
3373,31028
3373,29060
3964,29060
3964,31028
" /> 
<polyline style="fill-rule:evenodd;"
points="4535,28371
125,28371
125,24513
4535,24513
4535,28371
" /> 
<polyline style="fill-rule:evenodd;"
points="11532,28737
11545,28739
11557,28742
11569,28746
11581,28752
11592,28759
11603,28766
11613,28775
11621,28785
11629,28795
11636,28806
11641,28818
11646,28830
11649,28843
11651,28856
11651,28869
11651,29312
11651,29325
11649,29338
11646,29351
11641,29363
11636,29375
11629,29386
11621,29396
11613,29406
11603,29415
11592,29423
11581,29429
11569,29435
11557,29439
11545,29442
11532,29444
11519,29445
11174,29445
11161,29444
11148,29442
11135,29439
11123,29435
11111,29429
11100,29423
11090,29415
11080,29406
11071,29396
11064,29386
11057,29375
11051,29363
11047,29351
11044,29338
11042,29325
11041,29312
11041,28869
11042,28856
11044,28843
11047,28830
11051,28818
11057,28806
11064,28795
11071,28785
11080,28775
11090,28766
11100,28759
11111,28752
11123,28746
11135,28742
11148,28739
11161,28737
11174,28736
11519,28736
11532,28737
" /> 
<polyline style="fill-rule:evenodd;"
points="12339,28737
12352,28739
12364,28742
12377,28746
12388,28752
12400,28759
12410,28766
12420,28775
12428,28785
12436,28795
12443,28806
12448,28818
12453,28830
12456,28843
12458,28856
12458,28869
12458,29312
12458,29325
12456,29338
12453,29351
12448,29363
12443,29375
12436,29386
12428,29396
12420,29406
12410,29415
12400,29423
12388,29429
12377,29435
12364,29439
12352,29442
12339,29444
12326,29445
11981,29445
11968,29444
11955,29442
11942,29439
11930,29435
11918,29429
11907,29423
11897,29415
11887,29406
11878,29396
11871,29386
11864,29375
11858,29363
11854,29351
11851,29338
11849,29325
11848,29312
11848,28869
11849,28856
11851,28843
11854,28830
11858,28818
11864,28806
11871,28795
11878,28785
11887,28775
11897,28766
11907,28759
11918,28752
11930,28746
11942,28742
11955,28739
11968,28737
11981,28736
12326,28736
12339,28737
" /> 
</g>
<g style="fill:#848400; fill-opacity:1.0; 
stroke:#848400; stroke-width:0; stroke-opacity:1; 
stroke-linecap:round; stroke-linejoin:round;">
<circle cx="20750.3" cy="27081.1" r="433.071" /> 
</g>
<g style="fill:#848400; fill-opacity:1.0; 
stroke:#848400; stroke-width:39.3701; stroke-opacity:1; 
stroke-linecap:round; stroke-linejoin:round;">
</g>
<g style="fill:#848400; fill-opacity:1.0; 
stroke:#848400; stroke-width:0; stroke-opacity:1; 
stroke-linecap:round; stroke-linejoin:round;">
<circle cx="18790.3" cy="27081.1" r="433.071" /> 
</g>
<g style="fill:#848400; fill-opacity:1.0; 
stroke:#848400; stroke-width:39.3701; stroke-opacity:1; 
stroke-linecap:round; stroke-linejoin:round;">
</g>
<g style="fill:#848400; fill-opacity:1.0; 
stroke:#848400; stroke-width:0; stroke-opacity:1; 
stroke-linecap:round; stroke-linejoin:round;">
<circle cx="19870.3" cy="28381.1" r="433.071" /> 
</g>
<g style="fill:#848400; fill-opacity:1.0; 
stroke:#848400; stroke-width:39.3701; stroke-opacity:1; 
stroke-linecap:round; stroke-linejoin:round;">
</g>
<g style="fill:#000000; fill-opacity:1.0; 
stroke:#000000; stroke-width:39.3701; stroke-opacity:1; 
stroke-linecap:round; stroke-linejoin:round;">
</g>
<g style="fill:#C2C200; fill-opacity:1.0; 
stroke:#C2C200; stroke-width:39.3701; stroke-opacity:1; 
stroke-linecap:round; stroke-linejoin:round;">
</g>
<g style="fill:#C2C200; fill-opacity:1.0; 
stroke:#C2C200; stroke-width:59.0551; stroke-opacity:1; 
stroke-linecap:round; stroke-linejoin:round;">
</g>
<g style="fill:#C2C200; fill-opacity:0.0; 
stroke:#C2C200; stroke-width:59.0551; stroke-opacity:1; 
stroke-linecap:round; stroke-linejoin:round;">
<path d="M39320 35080
L108 35080
" />
<path d="M39242 41
L39320 35080
" />
<path d="M29 41
L39242 41
" />
<path d="M29 35080
L29 41
" />
<path d="M108 35080
L29 35080
" />
</g> 
</svg>
