G04 #@! TF.GenerationSoftware,KiCad,Pcbnew,(5.0.0)*
G04 #@! TF.CreationDate,2019-03-04T17:15:25-05:00*
G04 #@! TF.ProjectId,nivel y temperatura,6E6976656C20792074656D7065726174,V 1.0*
G04 #@! TF.SameCoordinates,Original*
G04 #@! TF.FileFunction,Soldermask,Top*
G04 #@! TF.FilePolarity,Negative*
%FSLAX46Y46*%
G04 Gerber Fmt 4.6, Leading zero omitted, Abs format (unit mm)*
G04 Created by KiCad (PCBNEW (5.0.0)) date 03/04/19 17:15:25*
%MOMM*%
%LPD*%
G01*
G04 APERTURE LIST*
%ADD10C,0.150000*%
%ADD11O,1.900000X2.600000*%
%ADD12C,3.900000*%
%ADD13R,2.100000X2.100000*%
%ADD14O,2.100000X2.100000*%
%ADD15O,2.000000X2.000000*%
%ADD16C,0.100000*%
%ADD17C,1.700000*%
%ADD18C,1.550000*%
%ADD19R,2.100000X2.350000*%
%ADD20O,2.100000X2.350000*%
%ADD21R,4.400000X2.900000*%
%ADD22R,3.900000X2.900000*%
%ADD23R,2.900000X2.200000*%
%ADD24R,3.399740X3.399740*%
%ADD25C,3.399740*%
%ADD26R,1.900000X2.600000*%
%ADD27C,1.800000*%
%ADD28R,1.500000X5.000000*%
%ADD29R,11.200000X9.800000*%
%ADD30C,2.200000*%
G04 APERTURE END LIST*
D10*
X92202000Y-45974000D02*
X92202000Y-134974000D01*
X191770000Y-45974000D02*
X92202000Y-45974000D01*
X191900000Y-135000000D02*
X191770000Y-45970000D01*
X92202000Y-135000000D02*
X191900000Y-135000000D01*
D11*
G04 #@! TO.C,U1*
X141145601Y-50135101D03*
X138605601Y-50135101D03*
X136065601Y-50135101D03*
X133525601Y-50135101D03*
X130985601Y-50135101D03*
X128445601Y-50135101D03*
X125905601Y-50135101D03*
X123365601Y-50135101D03*
X120825601Y-50135101D03*
X118285601Y-50135101D03*
X115745601Y-50135101D03*
X113205601Y-50135101D03*
X110665601Y-50135101D03*
X108125601Y-50135101D03*
X105585601Y-50135101D03*
X103045601Y-50135101D03*
D12*
X95545601Y-105135101D03*
X188545381Y-105135681D03*
X188545381Y-50134521D03*
X95545821Y-50134521D03*
G04 #@! TD*
D13*
G04 #@! TO.C,S-DTH1*
X130149600Y-123748800D03*
D14*
X130149600Y-126288800D03*
X130149600Y-128828800D03*
X130149600Y-131368800D03*
G04 #@! TD*
D15*
G04 #@! TO.C,A1*
X187756800Y-109575600D03*
X187756800Y-124815600D03*
X152196800Y-109575600D03*
X185216800Y-124815600D03*
X154736800Y-109575600D03*
X182676800Y-124815600D03*
X157276800Y-109575600D03*
X180136800Y-124815600D03*
X159816800Y-109575600D03*
X177596800Y-124815600D03*
X162356800Y-109575600D03*
X175056800Y-124815600D03*
X164896800Y-109575600D03*
X172516800Y-124815600D03*
X167436800Y-109575600D03*
X169976800Y-124815600D03*
X169976800Y-109575600D03*
X167436800Y-124815600D03*
X172516800Y-109575600D03*
X164896800Y-124815600D03*
X175056800Y-109575600D03*
X162356800Y-124815600D03*
X177596800Y-109575600D03*
X159816800Y-124815600D03*
X180136800Y-109575600D03*
X157276800Y-124815600D03*
X182676800Y-109575600D03*
D14*
X154736800Y-124815600D03*
D15*
X185216800Y-109575600D03*
D13*
X152196800Y-124815600D03*
G04 #@! TD*
D16*
G04 #@! TO.C,D1*
G36*
X110247521Y-126761174D02*
X110279257Y-126765882D01*
X110310378Y-126773677D01*
X110340585Y-126784486D01*
X110369587Y-126798203D01*
X110397106Y-126814696D01*
X110422875Y-126833808D01*
X110446646Y-126855354D01*
X110468192Y-126879125D01*
X110487304Y-126904894D01*
X110503797Y-126932413D01*
X110517514Y-126961415D01*
X110528323Y-126991622D01*
X110536118Y-127022743D01*
X110540826Y-127054479D01*
X110542400Y-127086523D01*
X110542400Y-128132677D01*
X110540826Y-128164721D01*
X110536118Y-128196457D01*
X110528323Y-128227578D01*
X110517514Y-128257785D01*
X110503797Y-128286787D01*
X110487304Y-128314306D01*
X110468192Y-128340075D01*
X110446646Y-128363846D01*
X110422875Y-128385392D01*
X110397106Y-128404504D01*
X110369587Y-128420997D01*
X110340585Y-128434714D01*
X110310378Y-128445523D01*
X110279257Y-128453318D01*
X110247521Y-128458026D01*
X110215477Y-128459600D01*
X109144323Y-128459600D01*
X109112279Y-128458026D01*
X109080543Y-128453318D01*
X109049422Y-128445523D01*
X109019215Y-128434714D01*
X108990213Y-128420997D01*
X108962694Y-128404504D01*
X108936925Y-128385392D01*
X108913154Y-128363846D01*
X108891608Y-128340075D01*
X108872496Y-128314306D01*
X108856003Y-128286787D01*
X108842286Y-128257785D01*
X108831477Y-128227578D01*
X108823682Y-128196457D01*
X108818974Y-128164721D01*
X108817400Y-128132677D01*
X108817400Y-127086523D01*
X108818974Y-127054479D01*
X108823682Y-127022743D01*
X108831477Y-126991622D01*
X108842286Y-126961415D01*
X108856003Y-126932413D01*
X108872496Y-126904894D01*
X108891608Y-126879125D01*
X108913154Y-126855354D01*
X108936925Y-126833808D01*
X108962694Y-126814696D01*
X108990213Y-126798203D01*
X109019215Y-126784486D01*
X109049422Y-126773677D01*
X109080543Y-126765882D01*
X109112279Y-126761174D01*
X109144323Y-126759600D01*
X110215477Y-126759600D01*
X110247521Y-126761174D01*
X110247521Y-126761174D01*
G37*
D17*
X109679900Y-127609600D03*
D16*
G36*
X112172521Y-126761174D02*
X112204257Y-126765882D01*
X112235378Y-126773677D01*
X112265585Y-126784486D01*
X112294587Y-126798203D01*
X112322106Y-126814696D01*
X112347875Y-126833808D01*
X112371646Y-126855354D01*
X112393192Y-126879125D01*
X112412304Y-126904894D01*
X112428797Y-126932413D01*
X112442514Y-126961415D01*
X112453323Y-126991622D01*
X112461118Y-127022743D01*
X112465826Y-127054479D01*
X112467400Y-127086523D01*
X112467400Y-128132677D01*
X112465826Y-128164721D01*
X112461118Y-128196457D01*
X112453323Y-128227578D01*
X112442514Y-128257785D01*
X112428797Y-128286787D01*
X112412304Y-128314306D01*
X112393192Y-128340075D01*
X112371646Y-128363846D01*
X112347875Y-128385392D01*
X112322106Y-128404504D01*
X112294587Y-128420997D01*
X112265585Y-128434714D01*
X112235378Y-128445523D01*
X112204257Y-128453318D01*
X112172521Y-128458026D01*
X112140477Y-128459600D01*
X111069323Y-128459600D01*
X111037279Y-128458026D01*
X111005543Y-128453318D01*
X110974422Y-128445523D01*
X110944215Y-128434714D01*
X110915213Y-128420997D01*
X110887694Y-128404504D01*
X110861925Y-128385392D01*
X110838154Y-128363846D01*
X110816608Y-128340075D01*
X110797496Y-128314306D01*
X110781003Y-128286787D01*
X110767286Y-128257785D01*
X110756477Y-128227578D01*
X110748682Y-128196457D01*
X110743974Y-128164721D01*
X110742400Y-128132677D01*
X110742400Y-127086523D01*
X110743974Y-127054479D01*
X110748682Y-127022743D01*
X110756477Y-126991622D01*
X110767286Y-126961415D01*
X110781003Y-126932413D01*
X110797496Y-126904894D01*
X110816608Y-126879125D01*
X110838154Y-126855354D01*
X110861925Y-126833808D01*
X110887694Y-126814696D01*
X110915213Y-126798203D01*
X110944215Y-126784486D01*
X110974422Y-126773677D01*
X111005543Y-126765882D01*
X111037279Y-126761174D01*
X111069323Y-126759600D01*
X112140477Y-126759600D01*
X112172521Y-126761174D01*
X112172521Y-126761174D01*
G37*
D17*
X111604900Y-127609600D03*
G04 #@! TD*
D16*
G04 #@! TO.C,R1*
G36*
X106380071Y-118888023D02*
X106412781Y-118892875D01*
X106444857Y-118900909D01*
X106475991Y-118912049D01*
X106505884Y-118926187D01*
X106534247Y-118943187D01*
X106560807Y-118962885D01*
X106585308Y-118985092D01*
X106607515Y-119009593D01*
X106627213Y-119036153D01*
X106644213Y-119064516D01*
X106658351Y-119094409D01*
X106669491Y-119125543D01*
X106677525Y-119157619D01*
X106682377Y-119190329D01*
X106684000Y-119223356D01*
X106684000Y-120349444D01*
X106682377Y-120382471D01*
X106677525Y-120415181D01*
X106669491Y-120447257D01*
X106658351Y-120478391D01*
X106644213Y-120508284D01*
X106627213Y-120536647D01*
X106607515Y-120563207D01*
X106585308Y-120587708D01*
X106560807Y-120609915D01*
X106534247Y-120629613D01*
X106505884Y-120646613D01*
X106475991Y-120660751D01*
X106444857Y-120671891D01*
X106412781Y-120679925D01*
X106380071Y-120684777D01*
X106347044Y-120686400D01*
X105470956Y-120686400D01*
X105437929Y-120684777D01*
X105405219Y-120679925D01*
X105373143Y-120671891D01*
X105342009Y-120660751D01*
X105312116Y-120646613D01*
X105283753Y-120629613D01*
X105257193Y-120609915D01*
X105232692Y-120587708D01*
X105210485Y-120563207D01*
X105190787Y-120536647D01*
X105173787Y-120508284D01*
X105159649Y-120478391D01*
X105148509Y-120447257D01*
X105140475Y-120415181D01*
X105135623Y-120382471D01*
X105134000Y-120349444D01*
X105134000Y-119223356D01*
X105135623Y-119190329D01*
X105140475Y-119157619D01*
X105148509Y-119125543D01*
X105159649Y-119094409D01*
X105173787Y-119064516D01*
X105190787Y-119036153D01*
X105210485Y-119009593D01*
X105232692Y-118985092D01*
X105257193Y-118962885D01*
X105283753Y-118943187D01*
X105312116Y-118926187D01*
X105342009Y-118912049D01*
X105373143Y-118900909D01*
X105405219Y-118892875D01*
X105437929Y-118888023D01*
X105470956Y-118886400D01*
X106347044Y-118886400D01*
X106380071Y-118888023D01*
X106380071Y-118888023D01*
G37*
D18*
X105909000Y-119786400D03*
D16*
G36*
X108430071Y-118888023D02*
X108462781Y-118892875D01*
X108494857Y-118900909D01*
X108525991Y-118912049D01*
X108555884Y-118926187D01*
X108584247Y-118943187D01*
X108610807Y-118962885D01*
X108635308Y-118985092D01*
X108657515Y-119009593D01*
X108677213Y-119036153D01*
X108694213Y-119064516D01*
X108708351Y-119094409D01*
X108719491Y-119125543D01*
X108727525Y-119157619D01*
X108732377Y-119190329D01*
X108734000Y-119223356D01*
X108734000Y-120349444D01*
X108732377Y-120382471D01*
X108727525Y-120415181D01*
X108719491Y-120447257D01*
X108708351Y-120478391D01*
X108694213Y-120508284D01*
X108677213Y-120536647D01*
X108657515Y-120563207D01*
X108635308Y-120587708D01*
X108610807Y-120609915D01*
X108584247Y-120629613D01*
X108555884Y-120646613D01*
X108525991Y-120660751D01*
X108494857Y-120671891D01*
X108462781Y-120679925D01*
X108430071Y-120684777D01*
X108397044Y-120686400D01*
X107520956Y-120686400D01*
X107487929Y-120684777D01*
X107455219Y-120679925D01*
X107423143Y-120671891D01*
X107392009Y-120660751D01*
X107362116Y-120646613D01*
X107333753Y-120629613D01*
X107307193Y-120609915D01*
X107282692Y-120587708D01*
X107260485Y-120563207D01*
X107240787Y-120536647D01*
X107223787Y-120508284D01*
X107209649Y-120478391D01*
X107198509Y-120447257D01*
X107190475Y-120415181D01*
X107185623Y-120382471D01*
X107184000Y-120349444D01*
X107184000Y-119223356D01*
X107185623Y-119190329D01*
X107190475Y-119157619D01*
X107198509Y-119125543D01*
X107209649Y-119094409D01*
X107223787Y-119064516D01*
X107240787Y-119036153D01*
X107260485Y-119009593D01*
X107282692Y-118985092D01*
X107307193Y-118962885D01*
X107333753Y-118943187D01*
X107362116Y-118926187D01*
X107392009Y-118912049D01*
X107423143Y-118900909D01*
X107455219Y-118892875D01*
X107487929Y-118888023D01*
X107520956Y-118886400D01*
X108397044Y-118886400D01*
X108430071Y-118888023D01*
X108430071Y-118888023D01*
G37*
D18*
X107959000Y-119786400D03*
G04 #@! TD*
D16*
G04 #@! TO.C,R2*
G36*
X112189271Y-118888023D02*
X112221981Y-118892875D01*
X112254057Y-118900909D01*
X112285191Y-118912049D01*
X112315084Y-118926187D01*
X112343447Y-118943187D01*
X112370007Y-118962885D01*
X112394508Y-118985092D01*
X112416715Y-119009593D01*
X112436413Y-119036153D01*
X112453413Y-119064516D01*
X112467551Y-119094409D01*
X112478691Y-119125543D01*
X112486725Y-119157619D01*
X112491577Y-119190329D01*
X112493200Y-119223356D01*
X112493200Y-120349444D01*
X112491577Y-120382471D01*
X112486725Y-120415181D01*
X112478691Y-120447257D01*
X112467551Y-120478391D01*
X112453413Y-120508284D01*
X112436413Y-120536647D01*
X112416715Y-120563207D01*
X112394508Y-120587708D01*
X112370007Y-120609915D01*
X112343447Y-120629613D01*
X112315084Y-120646613D01*
X112285191Y-120660751D01*
X112254057Y-120671891D01*
X112221981Y-120679925D01*
X112189271Y-120684777D01*
X112156244Y-120686400D01*
X111280156Y-120686400D01*
X111247129Y-120684777D01*
X111214419Y-120679925D01*
X111182343Y-120671891D01*
X111151209Y-120660751D01*
X111121316Y-120646613D01*
X111092953Y-120629613D01*
X111066393Y-120609915D01*
X111041892Y-120587708D01*
X111019685Y-120563207D01*
X110999987Y-120536647D01*
X110982987Y-120508284D01*
X110968849Y-120478391D01*
X110957709Y-120447257D01*
X110949675Y-120415181D01*
X110944823Y-120382471D01*
X110943200Y-120349444D01*
X110943200Y-119223356D01*
X110944823Y-119190329D01*
X110949675Y-119157619D01*
X110957709Y-119125543D01*
X110968849Y-119094409D01*
X110982987Y-119064516D01*
X110999987Y-119036153D01*
X111019685Y-119009593D01*
X111041892Y-118985092D01*
X111066393Y-118962885D01*
X111092953Y-118943187D01*
X111121316Y-118926187D01*
X111151209Y-118912049D01*
X111182343Y-118900909D01*
X111214419Y-118892875D01*
X111247129Y-118888023D01*
X111280156Y-118886400D01*
X112156244Y-118886400D01*
X112189271Y-118888023D01*
X112189271Y-118888023D01*
G37*
D18*
X111718200Y-119786400D03*
D16*
G36*
X110139271Y-118888023D02*
X110171981Y-118892875D01*
X110204057Y-118900909D01*
X110235191Y-118912049D01*
X110265084Y-118926187D01*
X110293447Y-118943187D01*
X110320007Y-118962885D01*
X110344508Y-118985092D01*
X110366715Y-119009593D01*
X110386413Y-119036153D01*
X110403413Y-119064516D01*
X110417551Y-119094409D01*
X110428691Y-119125543D01*
X110436725Y-119157619D01*
X110441577Y-119190329D01*
X110443200Y-119223356D01*
X110443200Y-120349444D01*
X110441577Y-120382471D01*
X110436725Y-120415181D01*
X110428691Y-120447257D01*
X110417551Y-120478391D01*
X110403413Y-120508284D01*
X110386413Y-120536647D01*
X110366715Y-120563207D01*
X110344508Y-120587708D01*
X110320007Y-120609915D01*
X110293447Y-120629613D01*
X110265084Y-120646613D01*
X110235191Y-120660751D01*
X110204057Y-120671891D01*
X110171981Y-120679925D01*
X110139271Y-120684777D01*
X110106244Y-120686400D01*
X109230156Y-120686400D01*
X109197129Y-120684777D01*
X109164419Y-120679925D01*
X109132343Y-120671891D01*
X109101209Y-120660751D01*
X109071316Y-120646613D01*
X109042953Y-120629613D01*
X109016393Y-120609915D01*
X108991892Y-120587708D01*
X108969685Y-120563207D01*
X108949987Y-120536647D01*
X108932987Y-120508284D01*
X108918849Y-120478391D01*
X108907709Y-120447257D01*
X108899675Y-120415181D01*
X108894823Y-120382471D01*
X108893200Y-120349444D01*
X108893200Y-119223356D01*
X108894823Y-119190329D01*
X108899675Y-119157619D01*
X108907709Y-119125543D01*
X108918849Y-119094409D01*
X108932987Y-119064516D01*
X108949987Y-119036153D01*
X108969685Y-119009593D01*
X108991892Y-118985092D01*
X109016393Y-118962885D01*
X109042953Y-118943187D01*
X109071316Y-118926187D01*
X109101209Y-118912049D01*
X109132343Y-118900909D01*
X109164419Y-118892875D01*
X109197129Y-118888023D01*
X109230156Y-118886400D01*
X110106244Y-118886400D01*
X110139271Y-118888023D01*
X110139271Y-118888023D01*
G37*
D18*
X109668200Y-119786400D03*
G04 #@! TD*
D13*
G04 #@! TO.C,RTC1*
X159512000Y-131775200D03*
D14*
X162052000Y-131775200D03*
X164592000Y-131775200D03*
X167132000Y-131775200D03*
G04 #@! TD*
D13*
G04 #@! TO.C,SD1*
X175971200Y-131826000D03*
D14*
X178511200Y-131826000D03*
X181051200Y-131826000D03*
X183591200Y-131826000D03*
X186131200Y-131826000D03*
X188671200Y-131826000D03*
G04 #@! TD*
D19*
G04 #@! TO.C,Sensor1*
X117195600Y-130098800D03*
D20*
X119695600Y-130098800D03*
X122195600Y-130098800D03*
X124695600Y-130098800D03*
G04 #@! TD*
D21*
G04 #@! TO.C,C1*
X126657600Y-115011200D03*
X134657600Y-115011200D03*
G04 #@! TD*
D22*
G04 #@! TO.C,C2*
X115418800Y-112572800D03*
X121918800Y-112572800D03*
G04 #@! TD*
D23*
G04 #@! TO.C,D2*
X119716800Y-123088400D03*
X123716800Y-123088400D03*
G04 #@! TD*
D24*
G04 #@! TO.C, *
X96113600Y-128930400D03*
D25*
X101193600Y-128930400D03*
G04 #@! TD*
D26*
G04 #@! TO.C,L1*
X105105600Y-111912400D03*
X111505600Y-111912400D03*
G04 #@! TD*
D16*
G04 #@! TO.C,R3*
G36*
X115948471Y-118888023D02*
X115981181Y-118892875D01*
X116013257Y-118900909D01*
X116044391Y-118912049D01*
X116074284Y-118926187D01*
X116102647Y-118943187D01*
X116129207Y-118962885D01*
X116153708Y-118985092D01*
X116175915Y-119009593D01*
X116195613Y-119036153D01*
X116212613Y-119064516D01*
X116226751Y-119094409D01*
X116237891Y-119125543D01*
X116245925Y-119157619D01*
X116250777Y-119190329D01*
X116252400Y-119223356D01*
X116252400Y-120349444D01*
X116250777Y-120382471D01*
X116245925Y-120415181D01*
X116237891Y-120447257D01*
X116226751Y-120478391D01*
X116212613Y-120508284D01*
X116195613Y-120536647D01*
X116175915Y-120563207D01*
X116153708Y-120587708D01*
X116129207Y-120609915D01*
X116102647Y-120629613D01*
X116074284Y-120646613D01*
X116044391Y-120660751D01*
X116013257Y-120671891D01*
X115981181Y-120679925D01*
X115948471Y-120684777D01*
X115915444Y-120686400D01*
X115039356Y-120686400D01*
X115006329Y-120684777D01*
X114973619Y-120679925D01*
X114941543Y-120671891D01*
X114910409Y-120660751D01*
X114880516Y-120646613D01*
X114852153Y-120629613D01*
X114825593Y-120609915D01*
X114801092Y-120587708D01*
X114778885Y-120563207D01*
X114759187Y-120536647D01*
X114742187Y-120508284D01*
X114728049Y-120478391D01*
X114716909Y-120447257D01*
X114708875Y-120415181D01*
X114704023Y-120382471D01*
X114702400Y-120349444D01*
X114702400Y-119223356D01*
X114704023Y-119190329D01*
X114708875Y-119157619D01*
X114716909Y-119125543D01*
X114728049Y-119094409D01*
X114742187Y-119064516D01*
X114759187Y-119036153D01*
X114778885Y-119009593D01*
X114801092Y-118985092D01*
X114825593Y-118962885D01*
X114852153Y-118943187D01*
X114880516Y-118926187D01*
X114910409Y-118912049D01*
X114941543Y-118900909D01*
X114973619Y-118892875D01*
X115006329Y-118888023D01*
X115039356Y-118886400D01*
X115915444Y-118886400D01*
X115948471Y-118888023D01*
X115948471Y-118888023D01*
G37*
D18*
X115477400Y-119786400D03*
D16*
G36*
X113898471Y-118888023D02*
X113931181Y-118892875D01*
X113963257Y-118900909D01*
X113994391Y-118912049D01*
X114024284Y-118926187D01*
X114052647Y-118943187D01*
X114079207Y-118962885D01*
X114103708Y-118985092D01*
X114125915Y-119009593D01*
X114145613Y-119036153D01*
X114162613Y-119064516D01*
X114176751Y-119094409D01*
X114187891Y-119125543D01*
X114195925Y-119157619D01*
X114200777Y-119190329D01*
X114202400Y-119223356D01*
X114202400Y-120349444D01*
X114200777Y-120382471D01*
X114195925Y-120415181D01*
X114187891Y-120447257D01*
X114176751Y-120478391D01*
X114162613Y-120508284D01*
X114145613Y-120536647D01*
X114125915Y-120563207D01*
X114103708Y-120587708D01*
X114079207Y-120609915D01*
X114052647Y-120629613D01*
X114024284Y-120646613D01*
X113994391Y-120660751D01*
X113963257Y-120671891D01*
X113931181Y-120679925D01*
X113898471Y-120684777D01*
X113865444Y-120686400D01*
X112989356Y-120686400D01*
X112956329Y-120684777D01*
X112923619Y-120679925D01*
X112891543Y-120671891D01*
X112860409Y-120660751D01*
X112830516Y-120646613D01*
X112802153Y-120629613D01*
X112775593Y-120609915D01*
X112751092Y-120587708D01*
X112728885Y-120563207D01*
X112709187Y-120536647D01*
X112692187Y-120508284D01*
X112678049Y-120478391D01*
X112666909Y-120447257D01*
X112658875Y-120415181D01*
X112654023Y-120382471D01*
X112652400Y-120349444D01*
X112652400Y-119223356D01*
X112654023Y-119190329D01*
X112658875Y-119157619D01*
X112666909Y-119125543D01*
X112678049Y-119094409D01*
X112692187Y-119064516D01*
X112709187Y-119036153D01*
X112728885Y-119009593D01*
X112751092Y-118985092D01*
X112775593Y-118962885D01*
X112802153Y-118943187D01*
X112830516Y-118926187D01*
X112860409Y-118912049D01*
X112891543Y-118900909D01*
X112923619Y-118892875D01*
X112956329Y-118888023D01*
X112989356Y-118886400D01*
X113865444Y-118886400D01*
X113898471Y-118888023D01*
X113898471Y-118888023D01*
G37*
D18*
X113427400Y-119786400D03*
G04 #@! TD*
D16*
G04 #@! TO.C,R4*
G36*
X117657671Y-118888023D02*
X117690381Y-118892875D01*
X117722457Y-118900909D01*
X117753591Y-118912049D01*
X117783484Y-118926187D01*
X117811847Y-118943187D01*
X117838407Y-118962885D01*
X117862908Y-118985092D01*
X117885115Y-119009593D01*
X117904813Y-119036153D01*
X117921813Y-119064516D01*
X117935951Y-119094409D01*
X117947091Y-119125543D01*
X117955125Y-119157619D01*
X117959977Y-119190329D01*
X117961600Y-119223356D01*
X117961600Y-120349444D01*
X117959977Y-120382471D01*
X117955125Y-120415181D01*
X117947091Y-120447257D01*
X117935951Y-120478391D01*
X117921813Y-120508284D01*
X117904813Y-120536647D01*
X117885115Y-120563207D01*
X117862908Y-120587708D01*
X117838407Y-120609915D01*
X117811847Y-120629613D01*
X117783484Y-120646613D01*
X117753591Y-120660751D01*
X117722457Y-120671891D01*
X117690381Y-120679925D01*
X117657671Y-120684777D01*
X117624644Y-120686400D01*
X116748556Y-120686400D01*
X116715529Y-120684777D01*
X116682819Y-120679925D01*
X116650743Y-120671891D01*
X116619609Y-120660751D01*
X116589716Y-120646613D01*
X116561353Y-120629613D01*
X116534793Y-120609915D01*
X116510292Y-120587708D01*
X116488085Y-120563207D01*
X116468387Y-120536647D01*
X116451387Y-120508284D01*
X116437249Y-120478391D01*
X116426109Y-120447257D01*
X116418075Y-120415181D01*
X116413223Y-120382471D01*
X116411600Y-120349444D01*
X116411600Y-119223356D01*
X116413223Y-119190329D01*
X116418075Y-119157619D01*
X116426109Y-119125543D01*
X116437249Y-119094409D01*
X116451387Y-119064516D01*
X116468387Y-119036153D01*
X116488085Y-119009593D01*
X116510292Y-118985092D01*
X116534793Y-118962885D01*
X116561353Y-118943187D01*
X116589716Y-118926187D01*
X116619609Y-118912049D01*
X116650743Y-118900909D01*
X116682819Y-118892875D01*
X116715529Y-118888023D01*
X116748556Y-118886400D01*
X117624644Y-118886400D01*
X117657671Y-118888023D01*
X117657671Y-118888023D01*
G37*
D18*
X117186600Y-119786400D03*
D16*
G36*
X119707671Y-118888023D02*
X119740381Y-118892875D01*
X119772457Y-118900909D01*
X119803591Y-118912049D01*
X119833484Y-118926187D01*
X119861847Y-118943187D01*
X119888407Y-118962885D01*
X119912908Y-118985092D01*
X119935115Y-119009593D01*
X119954813Y-119036153D01*
X119971813Y-119064516D01*
X119985951Y-119094409D01*
X119997091Y-119125543D01*
X120005125Y-119157619D01*
X120009977Y-119190329D01*
X120011600Y-119223356D01*
X120011600Y-120349444D01*
X120009977Y-120382471D01*
X120005125Y-120415181D01*
X119997091Y-120447257D01*
X119985951Y-120478391D01*
X119971813Y-120508284D01*
X119954813Y-120536647D01*
X119935115Y-120563207D01*
X119912908Y-120587708D01*
X119888407Y-120609915D01*
X119861847Y-120629613D01*
X119833484Y-120646613D01*
X119803591Y-120660751D01*
X119772457Y-120671891D01*
X119740381Y-120679925D01*
X119707671Y-120684777D01*
X119674644Y-120686400D01*
X118798556Y-120686400D01*
X118765529Y-120684777D01*
X118732819Y-120679925D01*
X118700743Y-120671891D01*
X118669609Y-120660751D01*
X118639716Y-120646613D01*
X118611353Y-120629613D01*
X118584793Y-120609915D01*
X118560292Y-120587708D01*
X118538085Y-120563207D01*
X118518387Y-120536647D01*
X118501387Y-120508284D01*
X118487249Y-120478391D01*
X118476109Y-120447257D01*
X118468075Y-120415181D01*
X118463223Y-120382471D01*
X118461600Y-120349444D01*
X118461600Y-119223356D01*
X118463223Y-119190329D01*
X118468075Y-119157619D01*
X118476109Y-119125543D01*
X118487249Y-119094409D01*
X118501387Y-119064516D01*
X118518387Y-119036153D01*
X118538085Y-119009593D01*
X118560292Y-118985092D01*
X118584793Y-118962885D01*
X118611353Y-118943187D01*
X118639716Y-118926187D01*
X118669609Y-118912049D01*
X118700743Y-118900909D01*
X118732819Y-118892875D01*
X118765529Y-118888023D01*
X118798556Y-118886400D01*
X119674644Y-118886400D01*
X119707671Y-118888023D01*
X119707671Y-118888023D01*
G37*
D18*
X119236600Y-119786400D03*
G04 #@! TD*
D27*
G04 #@! TO.C,TP1*
X109420000Y-130510000D03*
X111960000Y-130510000D03*
G04 #@! TD*
D28*
G04 #@! TO.C,U2*
X94644000Y-122208600D03*
X96344000Y-122208600D03*
X98044000Y-122208600D03*
X99744000Y-122208600D03*
X101444000Y-122208600D03*
D29*
X98044000Y-113058600D03*
G04 #@! TD*
D16*
G04 #@! TO.C,R5*
G36*
X121416871Y-118888023D02*
X121449581Y-118892875D01*
X121481657Y-118900909D01*
X121512791Y-118912049D01*
X121542684Y-118926187D01*
X121571047Y-118943187D01*
X121597607Y-118962885D01*
X121622108Y-118985092D01*
X121644315Y-119009593D01*
X121664013Y-119036153D01*
X121681013Y-119064516D01*
X121695151Y-119094409D01*
X121706291Y-119125543D01*
X121714325Y-119157619D01*
X121719177Y-119190329D01*
X121720800Y-119223356D01*
X121720800Y-120349444D01*
X121719177Y-120382471D01*
X121714325Y-120415181D01*
X121706291Y-120447257D01*
X121695151Y-120478391D01*
X121681013Y-120508284D01*
X121664013Y-120536647D01*
X121644315Y-120563207D01*
X121622108Y-120587708D01*
X121597607Y-120609915D01*
X121571047Y-120629613D01*
X121542684Y-120646613D01*
X121512791Y-120660751D01*
X121481657Y-120671891D01*
X121449581Y-120679925D01*
X121416871Y-120684777D01*
X121383844Y-120686400D01*
X120507756Y-120686400D01*
X120474729Y-120684777D01*
X120442019Y-120679925D01*
X120409943Y-120671891D01*
X120378809Y-120660751D01*
X120348916Y-120646613D01*
X120320553Y-120629613D01*
X120293993Y-120609915D01*
X120269492Y-120587708D01*
X120247285Y-120563207D01*
X120227587Y-120536647D01*
X120210587Y-120508284D01*
X120196449Y-120478391D01*
X120185309Y-120447257D01*
X120177275Y-120415181D01*
X120172423Y-120382471D01*
X120170800Y-120349444D01*
X120170800Y-119223356D01*
X120172423Y-119190329D01*
X120177275Y-119157619D01*
X120185309Y-119125543D01*
X120196449Y-119094409D01*
X120210587Y-119064516D01*
X120227587Y-119036153D01*
X120247285Y-119009593D01*
X120269492Y-118985092D01*
X120293993Y-118962885D01*
X120320553Y-118943187D01*
X120348916Y-118926187D01*
X120378809Y-118912049D01*
X120409943Y-118900909D01*
X120442019Y-118892875D01*
X120474729Y-118888023D01*
X120507756Y-118886400D01*
X121383844Y-118886400D01*
X121416871Y-118888023D01*
X121416871Y-118888023D01*
G37*
D18*
X120945800Y-119786400D03*
D16*
G36*
X123466871Y-118888023D02*
X123499581Y-118892875D01*
X123531657Y-118900909D01*
X123562791Y-118912049D01*
X123592684Y-118926187D01*
X123621047Y-118943187D01*
X123647607Y-118962885D01*
X123672108Y-118985092D01*
X123694315Y-119009593D01*
X123714013Y-119036153D01*
X123731013Y-119064516D01*
X123745151Y-119094409D01*
X123756291Y-119125543D01*
X123764325Y-119157619D01*
X123769177Y-119190329D01*
X123770800Y-119223356D01*
X123770800Y-120349444D01*
X123769177Y-120382471D01*
X123764325Y-120415181D01*
X123756291Y-120447257D01*
X123745151Y-120478391D01*
X123731013Y-120508284D01*
X123714013Y-120536647D01*
X123694315Y-120563207D01*
X123672108Y-120587708D01*
X123647607Y-120609915D01*
X123621047Y-120629613D01*
X123592684Y-120646613D01*
X123562791Y-120660751D01*
X123531657Y-120671891D01*
X123499581Y-120679925D01*
X123466871Y-120684777D01*
X123433844Y-120686400D01*
X122557756Y-120686400D01*
X122524729Y-120684777D01*
X122492019Y-120679925D01*
X122459943Y-120671891D01*
X122428809Y-120660751D01*
X122398916Y-120646613D01*
X122370553Y-120629613D01*
X122343993Y-120609915D01*
X122319492Y-120587708D01*
X122297285Y-120563207D01*
X122277587Y-120536647D01*
X122260587Y-120508284D01*
X122246449Y-120478391D01*
X122235309Y-120447257D01*
X122227275Y-120415181D01*
X122222423Y-120382471D01*
X122220800Y-120349444D01*
X122220800Y-119223356D01*
X122222423Y-119190329D01*
X122227275Y-119157619D01*
X122235309Y-119125543D01*
X122246449Y-119094409D01*
X122260587Y-119064516D01*
X122277587Y-119036153D01*
X122297285Y-119009593D01*
X122319492Y-118985092D01*
X122343993Y-118962885D01*
X122370553Y-118943187D01*
X122398916Y-118926187D01*
X122428809Y-118912049D01*
X122459943Y-118900909D01*
X122492019Y-118892875D01*
X122524729Y-118888023D01*
X122557756Y-118886400D01*
X123433844Y-118886400D01*
X123466871Y-118888023D01*
X123466871Y-118888023D01*
G37*
D18*
X122995800Y-119786400D03*
G04 #@! TD*
D30*
G04 #@! TO.C,RV1*
X144830800Y-114681000D03*
X139852400Y-114681000D03*
X142595600Y-117983000D03*
G04 #@! TD*
M02*
