<?xml version="1.0" standalone="no"?>
 <!DOCTYPE svg PUBLIC "-//W3C//DTD SVG 1.1//EN" 
 "http://www.w3.org/Graphics/SVG/1.1/DTD/svg11.dtd"> 
<svg xmlns="http://www.w3.org/2000/svg" version="1.1" 
    width="10.2235cm" height="8.91794cm" viewBox="0 0 40250 35110 ">
<title>SVG Picture created as nivel y temperatura-B.SilkS.svg date 2019/06/17 11:49:45 </title>
  <desc>Picture generated by PCBNEW </desc>
<g style="fill:#000000; fill-opacity:1;stroke:#000000; stroke-opacity:1;
stroke-linecap:round; stroke-linejoin:round; "
 transform="translate(0 0) scale(1 1)">
</g>
<g style="fill:#000000; fill-opacity:0.0; 
stroke:#000000; stroke-width:-0.000393701; stroke-opacity:1; 
stroke-linecap:round; stroke-linejoin:round;">
</g>
<g style="fill:#840084; fill-opacity:0.0; 
stroke:#840084; stroke-width:-0.000393701; stroke-opacity:1; 
stroke-linecap:round; stroke-linejoin:round;">
</g>
<g style="fill:#840084; fill-opacity:0.0; 
stroke:#840084; stroke-width:118.11; stroke-opacity:1; 
stroke-linecap:round; stroke-linejoin:round;">
<path d="M30814 10023
L30617 10613
L30420 10023
" />
<path d="M29773 10613
L29773 10219
" />
<path d="M29773 10023
L29801 10051
L29773 10079
L29745 10051
L29773 10023
L29773 10079
" />
<path d="M29492 10219
L29492 10613
" />
<path d="M29492 10276
L29464 10248
L29408 10219
L29323 10219
L29267 10248
L29239 10304
L29239 10613
" />
<path d="M28958 10219
L28958 10810
" />
<path d="M28958 10248
L28901 10219
L28789 10219
L28733 10248
L28705 10276
L28676 10332
L28676 10501
L28705 10557
L28733 10585
L28789 10613
L28901 10613
L28958 10585
" />
<path d="M28170 10219
L28170 10613
" />
<path d="M28423 10219
L28423 10529
L28395 10585
L28339 10613
L28255 10613
L28198 10585
L28170 10557
" />
<path d="M27973 10219
L27748 10219
" />
<path d="M27889 10023
L27889 10529
L27861 10585
L27805 10613
L27748 10613
" />
<path d="M26652 10557
L26624 10585
L26652 10613
L26680 10585
L26652 10557
L26652 10613
" />
<path d="M26652 10248
L26624 10276
L26652 10304
L26680 10276
L26652 10248
L26652 10304
" />
<path d="M32374 11617
L32712 11617
" />
<path d="M32543 11617
L32543 11026
L32599 11111
L32656 11167
L32712 11195
" />
<path d="M32009 11026
L31953 11026
L31896 11055
L31868 11083
L31840 11139
L31812 11251
L31812 11392
L31840 11505
L31868 11561
L31896 11589
L31953 11617
L32009 11617
L32065 11589
L32093 11561
L32121 11505
L32149 11392
L32149 11251
L32121 11139
L32093 11083
L32065 11055
L32009 11026
" />
<path d="M31531 11589
L31531 11617
L31559 11673
L31587 11701
" />
<path d="M31193 11280
L31250 11251
L31278 11223
L31306 11167
L31306 11139
L31278 11083
L31250 11055
L31193 11026
L31081 11026
L31025 11055
L30996 11083
L30968 11139
L30968 11167
L30996 11223
L31025 11251
L31081 11280
L31193 11280
L31250 11308
L31278 11336
L31306 11392
L31306 11505
L31278 11561
L31250 11589
L31193 11617
L31081 11617
L31025 11589
L30996 11561
L30968 11505
L30968 11392
L30996 11336
L31025 11308
L31081 11280
" />
<path d="M30800 11026
L30603 11617
L30406 11026
" />
<path d="M29759 11392
L29309 11392
" />
<path d="M28325 11223
L28325 11617
" />
<path d="M28465 10998
L28606 11420
L28241 11420
" />
<path d="M27903 11026
L27847 11026
L27791 11055
L27762 11083
L27734 11139
L27706 11251
L27706 11392
L27734 11505
L27762 11561
L27791 11589
L27847 11617
L27903 11617
L27959 11589
L27987 11561
L28016 11505
L28044 11392
L28044 11251
L28016 11139
L27987 11083
L27959 11055
L27903 11026
" />
<path d="M27088 11026
L26891 11617
L26694 11026
" />
<path d="M26047 11617
L26047 11026
L25906 11026
L25822 11055
L25766 11111
L25738 11167
L25710 11280
L25710 11364
L25738 11476
L25766 11533
L25822 11589
L25906 11617
L26047 11617
" />
<path d="M25119 11561
L25147 11589
L25232 11617
L25288 11617
L25372 11589
L25428 11533
L25456 11476
L25485 11364
L25485 11280
L25456 11167
L25428 11111
L25372 11055
L25288 11026
L25232 11026
L25147 11055
L25119 11083
" />
<path d="M29829 12030
L29633 12621
L29436 12030
" />
<path d="M28536 12593
L28592 12621
L28705 12621
L28761 12593
L28789 12565
L28817 12508
L28817 12340
L28789 12284
L28761 12255
L28705 12227
L28592 12227
L28536 12255
" />
<path d="M28283 12621
L28283 12227
" />
<path d="M28283 12030
L28311 12059
L28283 12087
L28255 12059
L28283 12030
L28283 12087
" />
<path d="M28001 12621
L28001 12227
" />
<path d="M28001 12340
L27973 12284
L27945 12255
L27889 12227
L27833 12227
" />
<path d="M27636 12565
L27608 12593
L27636 12621
L27664 12593
L27636 12565
L27636 12621
" />
<path d="M27636 12255
L27608 12284
L27636 12312
L27664 12284
L27636 12255
L27636 12312
" />
<path d="M30293 13625
L30181 13625
L30125 13597
L30097 13569
L30040 13484
L30012 13372
L30012 13147
L30040 13091
L30068 13062
L30125 13034
L30237 13034
L30293 13062
L30321 13091
L30350 13147
L30350 13287
L30321 13344
L30293 13372
L30237 13400
L30125 13400
L30068 13372
L30040 13344
L30012 13287
" />
<path d="M29731 13597
L29731 13625
L29759 13681
L29787 13709
" />
<path d="M29225 13034
L29337 13034
L29393 13062
L29422 13091
L29478 13175
L29506 13287
L29506 13512
L29478 13569
L29450 13597
L29393 13625
L29281 13625
L29225 13597
L29197 13569
L29169 13512
L29169 13372
L29197 13316
L29225 13287
L29281 13259
L29393 13259
L29450 13287
L29478 13316
L29506 13372
" />
<path d="M29000 13034
L28803 13625
L28606 13034
" />
<path d="M27959 13625
L27959 13034
L27819 13034
L27734 13062
L27678 13119
L27650 13175
L27622 13287
L27622 13372
L27650 13484
L27678 13541
L27734 13597
L27819 13625
L27959 13625
" />
<path d="M27031 13569
L27059 13597
L27144 13625
L27200 13625
L27284 13597
L27341 13541
L27369 13484
L27397 13372
L27397 13287
L27369 13175
L27341 13119
L27284 13062
L27200 13034
L27144 13034
L27059 13062
L27031 13091
" />
</g>
<g style="fill:#840084; fill-opacity:0.0; 
stroke:#840084; stroke-width:295.276; stroke-opacity:1; 
stroke-linecap:round; stroke-linejoin:round;">
<path d="M12714 10334
L13107 10334
" />
<path d="M13107 10953
L13107 9772
L12545 9772
" />
<path d="M12095 10953
L12095 9772
" />
<path d="M10857 10953
L11251 10391
" />
<path d="M11532 10953
L11532 9772
L11082 9772
L10970 9828
L10914 9884
L10857 9997
L10857 10166
L10914 10278
L10970 10334
L11082 10391
L11532 10391
" />
<path d="M10351 9772
L10351 10728
L10295 10841
L10239 10897
L10126 10953
L9901 10953
L9789 10897
L9733 10841
L9676 10728
L9676 9772
" />
<path d="M9226 9772
L8439 10953
" />
<path d="M8439 9772
L9226 10953
" />
</g>
<g style="fill:#840084; fill-opacity:1.0; 
stroke:#840084; stroke-width:3.93701; stroke-opacity:1; 
stroke-linecap:round; stroke-linejoin:round;">
<polyline style="fill-rule:evenodd;"
points="6000,8105
6004,8108
6013,8116
6027,8129
6045,8145
6067,8165
6093,8188
6122,8214
6154,8242
6188,8273
6225,8305
6263,8339
6303,8375
6343,8411
6384,8447
6425,8484
6466,8520
6507,8556
6546,8591
6585,8625
6621,8658
6655,8688
6687,8716
6716,8742
6742,8765
6764,8784
6782,8800
6795,8812
6804,8819
6808,8822
6808,8823
6811,8820
6819,8813
6833,8801
6851,8786
6873,8766
6899,8743
6929,8717
6963,8687
6999,8655
7039,8621
7080,8584
7124,8545
7170,8505
7206,8473
7253,8432
7298,8392
7341,8353
7383,8317
7422,8283
7458,8251
7491,8222
7520,8196
7546,8173
7567,8154
7584,8139
7597,8128
7604,8121
7606,8119
7607,8118
7608,8117
7608,8117
7608,8117
7606,8117
7603,8119
7598,8121
7591,8124
7582,8129
7570,8135
7555,8143
7536,8153
7514,8165
7488,8179
7457,8195
7421,8214
7380,8236
7334,8260
7282,8288
7224,8318
7192,8335
7143,8361
7095,8387
7050,8411
7007,8433
6968,8454
6932,8473
6899,8490
6871,8504
6848,8516
6830,8526
6818,8532
6811,8535
6810,8536
6806,8534
6797,8529
6781,8521
6761,8510
6735,8496
6706,8481
6672,8463
6636,8443
6596,8422
6554,8399
6509,8376
6464,8351
6417,8326
6370,8301
6322,8275
6275,8250
6228,8225
6183,8200
6139,8176
6097,8154
6058,8133
6041,8124
6025,8115
6012,8109
6004,8105
6000,8104
6000,8105
" /> 
<polyline style="fill-rule:evenodd;"
points="5737,8627
5660,8627
5586,8627
5514,8627
5444,8627
5377,8627
5314,8628
5254,8628
5198,8628
5146,8628
5099,8628
5057,8629
5020,8629
4989,8629
4963,8629
4945,8630
4932,8630
4927,8630
4927,8630
4923,8632
4922,8633
4922,8634
4926,8636
4933,8638
4945,8641
4963,8645
4986,8650
5015,8656
5017,8657
5046,8663
5076,8670
5106,8676
5133,8682
5155,8687
5161,8688
5185,8693
5211,8699
5236,8704
5257,8709
5259,8709
5273,8712
5292,8717
5317,8722
5345,8728
5376,8735
5409,8742
5436,8748
5471,8755
5507,8763
5543,8771
5577,8778
5608,8785
5635,8791
5648,8794
5674,8800
5706,8806
5740,8814
5775,8821
5808,8829
5825,8832
5851,8838
5876,8843
5900,8849
5924,8854
5950,8860
5977,8865
6007,8872
6040,8879
6076,8887
6118,8896
6164,8906
6217,8917
6252,8925
6428,8963
6428,9106
6428,9250
5896,9250
5827,9250
5761,9250
5699,9250
5641,9250
5587,9250
5537,9250
5492,9251
5453,9251
5419,9251
5391,9252
5370,9252
5354,9253
5346,9253
5345,9253
5332,9256
5320,9260
5316,9261
5313,9263
5312,9265
5314,9267
5320,9269
5331,9273
5347,9278
5370,9284
5391,9290
5419,9298
5452,9308
5491,9319
5534,9331
5581,9345
5631,9359
5683,9374
5737,9389
5793,9405
5848,9421
5904,9437
5959,9453
6012,9468
6063,9482
6111,9496
6155,9509
6196,9520
6222,9527
6259,9538
6295,9548
6327,9557
6356,9566
6381,9573
6401,9579
6416,9583
6425,9586
6428,9586
6428,9590
6430,9601
6432,9616
6434,9636
6437,9659
6438,9667
6441,9692
6443,9716
6446,9736
6447,9752
6448,9762
6449,9763
6450,9773
6451,9788
6454,9807
6456,9827
6457,9838
6459,9857
6462,9882
6466,9913
6470,9947
6474,9986
6479,10028
6484,10073
6489,10119
6493,10150
6503,10243
6513,10328
6522,10407
6530,10478
6537,10544
6544,10603
6550,10656
6556,10704
6560,10747
6565,10785
6568,10818
6572,10846
6575,10871
6577,10892
6579,10910
6581,10925
6582,10936
6583,10946
6584,10953
6584,10958
6585,10961
6585,10963
6586,10971
6588,10986
6590,11008
6593,11035
6597,11068
6601,11105
6606,11146
6611,11190
6616,11238
6622,11288
6628,11339
6634,11392
6640,11446
6646,11499
6652,11552
6658,11604
6664,11654
6669,11703
6674,11748
6679,11790
6683,11828
6687,11861
6690,11890
6693,11913
6695,11929
6696,11939
6696,11942
6698,11956
6700,11969
6701,11976
6703,11981
6704,11981
6707,11975
6709,11970
6709,11968
6710,11965
6710,11960
6711,11952
6711,11943
6711,11931
6712,11917
6712,11900
6712,11880
6712,11857
6713,11830
6713,11800
6713,11765
6713,11727
6713,11685
6714,11638
6714,11586
6714,11529
6714,11467
6714,11400
6714,11328
6714,11249
6714,11165
6715,11074
6715,10977
6715,10874
6715,10763
6715,10646
6715,10521
6715,10389
6715,10375
6716,8794
6668,8748
6648,8729
6626,8708
6604,8688
6585,8670
6578,8664
6537,8627
5737,8627
" /> 
<polyline style="fill-rule:evenodd;"
points="7046,8654
7034,8665
7018,8679
6999,8696
6980,8714
6961,8732
6904,8785
6904,10355
6904,11925
6913,11957
6917,11971
6920,11980
6922,11983
6922,11982
6923,11978
6924,11966
6926,11948
6928,11925
6931,11897
6935,11864
6938,11828
6943,11789
6947,11748
6951,11705
6956,11661
6961,11617
6965,11574
6970,11532
6974,11492
6978,11454
6982,11420
6985,11389
6988,11363
6990,11342
6991,11336
6992,11328
6993,11313
6996,11292
6998,11267
7001,11239
7004,11209
7006,11196
7009,11165
7012,11137
7015,11111
7017,11089
7019,11072
7020,11062
7021,11059
7021,11054
7023,11041
7025,11021
7027,10996
7031,10964
7035,10926
7039,10884
7044,10837
7050,10786
7056,10731
7062,10672
7069,10611
7075,10547
7082,10481
7085,10455
7092,10389
7099,10324
7106,10261
7112,10202
7118,10145
7124,10093
7129,10044
7134,10000
7138,9960
7141,9926
7144,9898
7147,9876
7148,9861
7149,9853
7149,9852
7150,9845
7152,9831
7154,9811
7157,9786
7160,9757
7163,9725
7167,9690
7170,9659
7174,9623
7177,9590
7181,9559
7184,9533
7186,9511
7188,9495
7189,9485
7189,9482
7193,9481
7203,9477
7220,9472
7242,9465
7270,9456
7303,9446
7340,9434
7382,9421
7428,9406
7477,9391
7529,9374
7584,9357
7641,9339
7686,9325
7745,9306
7802,9288
7856,9271
7908,9255
7956,9239
8001,9225
8042,9212
8079,9200
8111,9190
8138,9181
8159,9174
8174,9169
8183,9166
8185,9165
8184,9162
8178,9157
8174,9155
8172,9154
8169,9153
8166,9152
8161,9151
8154,9151
8146,9150
8135,9150
8122,9149
8105,9149
8085,9148
8060,9148
8032,9148
7999,9147
7961,9147
7917,9147
7867,9147
7812,9146
7749,9146
7680,9146
7675,9146
7190,9144
7189,9057
7188,8969
7202,8965
7209,8964
7222,8960
7240,8956
7263,8950
7290,8943
7319,8936
7351,8928
7358,8927
7469,8900
7572,8874
7669,8850
7760,8828
7844,8808
7922,8788
7994,8771
8060,8754
8121,8739
8176,8726
8227,8713
8272,8702
8313,8691
8350,8682
8382,8674
8410,8667
8435,8661
8456,8655
8473,8651
8488,8647
8499,8644
8508,8641
8514,8639
8518,8638
8519,8637
8520,8636
8516,8636
8505,8635
8487,8635
8462,8634
8430,8634
8390,8633
8344,8633
8291,8633
8230,8632
8162,8632
8087,8632
8005,8632
7915,8632
7818,8631
7795,8631
7074,8630
7046,8654
" /> 
<polyline style="fill-rule:evenodd;"
points="31276,2020
31199,2039
31131,2073
31072,2120
31024,2180
30988,2250
30967,2326
30963,2403
30974,2477
31001,2547
31041,2609
31093,2663
31156,2706
31227,2736
31268,2746
31303,2752
31330,2754
31356,2753
31388,2747
31414,2742
31488,2717
31554,2676
31611,2622
31658,2554
31669,2532
31682,2503
31690,2479
31694,2454
31696,2421
31696,2385
31693,2318
31682,2263
31663,2215
31631,2169
31601,2134
31544,2082
31485,2046
31419,2025
31358,2017
31276,2020
" /> 
<polyline style="fill-rule:evenodd;"
points="24585,3954
24585,4140
24585,4308
24585,4460
24585,4597
24584,4720
24584,4829
24584,4926
24583,5011
24582,5084
24581,5148
24579,5203
24577,5249
24575,5289
24573,5321
24570,5348
24567,5370
24563,5388
24559,5403
24554,5416
24548,5428
24542,5439
24536,5450
24532,5457
24504,5505
25183,5505
25183,5430
25184,5395
25185,5369
25188,5355
25189,5354
25198,5359
25216,5373
25233,5389
25277,5421
25332,5453
25393,5483
25454,5507
25478,5514
25532,5526
25598,5534
25668,5538
25738,5538
25801,5533
25831,5529
25940,5498
26040,5453
26132,5392
26214,5316
26286,5227
26339,5139
26382,5047
26415,4952
26439,4853
26454,4745
26461,4625
26461,4564
26460,4519
25804,4519
25804,4592
25801,4662
25797,4723
25790,4771
25788,4781
25763,4866
25730,4934
25689,4987
25640,5025
25582,5046
25515,5053
25439,5044
25389,5032
25350,5017
25307,4997
25275,4978
25219,4942
25219,4032
25272,3997
25334,3965
25401,3944
25468,3935
25533,3937
25590,3952
25615,3964
25661,3998
25700,4043
25733,4101
25760,4172
25783,4260
25784,4264
25792,4314
25798,4375
25802,4445
25804,4519
26460,4519
26455,4395
26438,4240
26409,4099
26370,3971
26319,3857
26258,3757
26185,3671
26102,3599
26066,3574
25986,3530
25905,3499
25817,3479
25722,3472
25648,3472
25546,3481
25457,3498
25379,3525
25309,3562
25270,3589
25247,3606
25230,3618
25223,3622
25222,3613
25221,3589
25220,3551
25220,3502
25219,3444
25219,3378
25219,3308
25220,3236
25220,3163
25221,3091
25222,3024
25223,2963
25224,2910
25225,2867
25227,2837
25227,2831
25233,2776
25242,2732
25256,2695
25277,2658
25282,2651
25301,2622
24585,2622
24585,3954
" /> 
<polyline style="fill-rule:evenodd;"
points="27363,3475
27243,3491
27136,3518
27042,3555
26959,3604
26898,3654
26843,3713
26801,3776
26767,3849
26754,3883
26744,3914
26735,3942
26728,3970
26721,3999
26716,4029
26711,4063
26707,4102
26704,4148
26701,4201
26699,4264
26698,4338
26696,4424
26695,4523
26694,4638
26693,4751
26692,4875
26691,4982
26690,5073
26689,5151
26688,5216
26686,5270
26684,5314
26682,5349
26679,5377
26675,5399
26670,5416
26665,5430
26658,5441
26651,5452
26642,5463
26639,5467
26626,5485
26621,5497
26621,5498
26629,5499
26654,5501
26692,5503
26743,5504
26803,5505
26872,5505
26947,5505
26955,5505
27290,5505
27292,5429
27295,5354
27344,5394
27421,5447
27508,5490
27576,5514
27631,5526
27697,5534
27768,5538
27838,5538
27900,5533
27929,5528
28039,5498
28139,5455
28228,5399
28304,5331
28368,5251
28417,5160
28453,5060
28462,5016
28468,4966
28471,4907
28472,4880
28472,4878
27871,4878
27863,4937
27841,4988
27803,5032
27799,5035
27760,5063
27719,5081
27671,5090
27612,5092
27597,5092
27555,5090
27523,5086
27496,5078
27465,5064
27456,5060
27408,5032
27371,4998
27361,4986
27326,4941
27326,4786
27326,4724
27328,4678
27330,4647
27334,4630
27337,4625
27349,4622
27376,4620
27413,4619
27457,4618
27464,4618
27560,4622
27641,4635
27709,4657
27767,4689
27810,4726
27845,4771
27865,4821
27871,4878
28472,4878
28470,4806
28463,4744
28451,4688
28430,4632
28411,4590
28365,4515
28303,4445
28228,4383
28141,4328
28044,4284
27940,4250
27889,4238
27781,4220
27663,4209
27544,4204
27444,4205
27316,4210
27321,4164
27337,4085
27361,4021
27396,3972
27441,3936
27498,3913
27567,3902
27649,3904
27679,3907
27790,3927
27899,3959
27973,3989
28009,4005
28039,4017
28060,4025
28066,4026
28074,4019
28087,3996
28106,3957
28131,3902
28161,3830
28167,3818
28190,3761
28212,3709
28230,3665
28243,3631
28252,3610
28254,3603
28246,3599
28226,3595
28203,3592
28179,3588
28142,3581
28093,3570
28038,3558
27978,3543
27956,3538
27872,3518
27803,3502
27744,3490
27692,3481
27643,3475
27595,3472
27543,3470
27497,3470
27363,3475
" /> 
<polyline style="fill-rule:evenodd;"
points="29218,2749
29091,2766
28962,2798
28827,2845
28687,2908
28678,2912
28632,2934
28592,2953
28559,2968
28537,2977
28529,2979
28514,2983
28510,2986
28514,2994
28527,3015
28547,3046
28572,3086
28602,3131
28635,3180
28669,3231
28703,3281
28735,3329
28764,3371
28789,3407
28808,3433
28820,3448
28821,3450
28829,3446
28847,3433
28871,3412
28883,3400
28960,3341
29044,3297
29136,3269
29233,3258
29288,3259
29383,3272
29470,3301
29547,3344
29615,3403
29675,3477
29726,3566
29756,3635
29790,3742
29816,3859
29833,3982
29840,4108
29839,4235
29828,4359
29809,4477
29782,4586
29745,4684
29732,4711
29678,4801
29615,4877
29542,4939
29462,4986
29375,5017
29282,5031
29249,5032
29153,5023
29058,4998
28965,4955
28875,4896
28803,4834
28766,4799
28622,5034
28587,5092
28554,5146
28526,5194
28503,5232
28486,5261
28477,5276
28476,5279
28483,5286
28503,5300
28534,5318
28574,5340
28620,5364
28670,5389
28720,5414
28769,5436
28814,5456
28852,5472
28870,5478
28976,5508
29085,5528
29202,5538
29302,5540
29356,5539
29408,5538
29453,5535
29488,5533
29499,5531
29609,5509
29721,5473
29830,5426
29930,5371
29991,5330
30092,5244
30186,5144
30270,5032
30344,4910
30406,4781
30440,4689
30480,4543
30507,4389
30520,4230
30520,4069
30507,3909
30480,3754
30441,3607
30438,3598
30388,3470
30327,3353
30254,3244
30165,3139
30130,3103
30022,3005
29912,2924
29796,2859
29674,2809
29544,2774
29469,2760
29343,2747
29218,2749
" /> 
<polyline style="fill-rule:evenodd;"
points="31808,2386
31800,2476
31775,2561
31734,2639
31680,2709
31613,2768
31536,2814
31452,2845
31367,2860
31284,2859
31203,2843
31127,2815
31056,2773
30994,2721
30941,2658
30899,2586
30869,2505
30854,2418
30853,2379
30853,2309
30812,2309
30783,2311
30762,2321
30740,2339
30710,2370
30710,4103
30710,4310
30710,4501
30710,4675
30710,4833
30710,4976
30710,5105
30711,5221
30711,5324
30711,5416
30712,5496
30712,5565
30713,5625
30713,5677
30714,5720
30715,5755
30716,5784
30717,5807
30718,5825
30720,5838
30721,5847
30723,5854
30724,5858
30725,5860
30729,5865
30731,5870
30734,5875
30738,5879
30744,5883
30752,5887
30763,5890
30779,5893
30798,5895
30823,5897
30855,5899
30893,5901
30938,5902
30992,5903
31055,5904
31127,5905
31210,5906
31304,5906
31410,5907
31529,5907
31661,5907
31807,5907
31968,5907
32145,5907
32338,5907
32548,5907
32578,5907
32789,5907
32983,5907
33161,5907
33323,5907
33470,5907
33603,5906
33722,5906
33828,5906
33923,5905
34006,5905
34079,5905
34141,5904
34195,5903
34240,5903
34278,5902
34308,5901
34333,5900
34351,5898
34365,5897
34376,5896
34382,5894
34386,5893
34392,5890
34399,5888
34404,5886
34409,5883
34414,5879
34418,5872
34422,5863
34425,5850
34428,5832
34431,5809
34433,5780
34435,5745
34437,5702
34438,5651
34439,5592
34440,5522
34441,5443
34441,5352
34442,5249
34442,5134
34442,5005
34442,4863
34442,4706
34442,4533
34442,4344
34442,4137
34442,4104
34442,3896
34442,3705
34442,3531
34442,3372
34442,3228
34442,3098
34442,2982
34441,2878
34441,2791
34201,2791
34170,2837
34161,2849
34153,2860
34146,2871
34140,2882
34134,2894
34129,2909
34125,2927
34121,2949
34118,2977
34115,3010
34113,3050
34111,3099
34110,3156
34109,3223
34108,3301
34108,3391
34107,3493
34107,3609
34107,3739
34107,3885
34107,4047
34107,4144
34107,4315
34107,4470
34107,4609
34107,4732
34108,4842
34108,4938
34109,5023
34109,5095
34111,5158
34112,5211
34114,5256
34116,5293
34119,5324
34123,5349
34126,5369
34131,5385
34136,5399
34142,5411
34149,5421
34156,5432
34164,5444
34169,5451
34200,5497
33779,5497
33682,5497
33601,5496
33535,5496
33482,5496
33442,5495
33412,5494
33391,5492
33378,5491
33372,5488
33370,5485
33372,5482
33373,5481
33393,5452
33413,5410
33432,5361
33438,5340
33442,5326
33445,5309
33448,5288
33450,5262
33452,5228
33453,5185
33454,5131
33455,5065
33456,4985
33457,4889
33457,4854
33458,4755
33459,4672
33459,4605
33459,4551
33459,4509
33458,4478
33457,4456
33456,4443
33454,4436
33451,4433
33447,4435
33444,4439
33436,4449
33418,4472
33393,4506
33361,4549
33323,4600
33281,4658
33235,4719
33188,4783
33141,4849
33094,4913
33048,4975
33006,5033
32969,5085
32936,5130
32911,5165
32893,5190
32890,5195
32872,5224
32850,5262
32830,5302
32828,5307
32811,5345
32801,5375
32796,5403
32795,5436
32796,5497
31883,5497
31955,5422
31992,5383
32032,5338
32068,5295
32084,5275
32108,5244
32140,5202
32178,5150
32222,5090
32271,5024
32324,4951
32380,4874
32438,4795
32497,4713
32556,4631
32614,4549
32671,4470
32725,4394
32776,4323
32822,4258
32863,4200
32898,4150
32925,4110
32945,4082
32955,4065
32956,4062
32950,4053
32933,4032
32908,3999
32874,3956
32834,3905
32788,3847
32737,3783
32682,3715
32625,3643
32566,3570
32519,3511
31719,3511
31714,3521
31703,3539
31702,3540
31687,3564
31672,3593
31669,3599
31666,3606
31663,3614
31661,3624
31659,3638
31658,3657
31656,3681
31655,3713
31654,3752
31653,3800
31652,3858
31652,3928
31651,4010
31651,4105
31650,4215
31650,4341
31650,4482
31649,4629
31649,4758
31649,4872
31649,4972
31649,5058
31649,5132
31650,5194
31651,5247
31653,5290
31655,5325
31658,5354
31662,5377
31666,5395
31670,5410
31676,5423
31682,5434
31690,5445
31696,5455
31710,5476
31718,5490
31719,5492
31710,5493
31686,5494
31647,5495
31595,5495
31533,5496
31463,5496
31385,5497
31331,5497
31247,5496
31171,5496
31102,5495
31044,5494
30997,5493
30964,5491
30945,5490
30942,5489
30948,5477
30955,5471
30965,5457
30979,5433
30988,5414
31009,5367
31012,4436
31014,3505
31366,3505
31444,3506
31515,3506
31579,3507
31633,3507
31676,3508
31705,3509
31718,3510
31719,3511
32519,3511
32506,3496
32448,3423
32391,3352
32337,3285
32286,3223
32241,3167
32202,3119
32169,3080
32156,3064
32088,2984
32027,2918
31973,2864
31923,2821
31915,2816
31884,2791
32332,2791
32779,2791
32775,2829
32778,2874
32795,2928
32826,2992
32862,3049
32875,3067
32897,3096
32927,3136
32964,3184
33007,3239
33053,3299
33102,3362
33153,3427
33203,3492
33253,3555
33300,3615
33343,3669
33381,3717
33412,3756
33436,3785
33450,3802
33452,3805
33455,3798
33456,3774
33458,3733
33458,3674
33459,3599
33458,3507
33458,3412
33456,3307
33455,3219
33454,3145
33452,3083
33449,3033
33445,2992
33440,2958
33434,2929
33426,2905
33416,2883
33405,2861
33393,2841
33363,2791
34201,2791
34441,2791
34441,2786
34440,2706
34439,2635
34438,2575
34437,2523
34436,2479
34434,2443
34432,2414
34430,2390
34427,2372
34424,2358
34421,2348
34417,2341
34413,2336
34409,2332
34404,2329
34399,2327
34394,2324
34390,2322
34383,2320
34374,2318
34360,2317
34341,2315
34317,2314
34286,2313
34247,2312
34200,2312
34144,2311
34077,2311
34000,2310
33911,2310
33809,2309
33693,2309
33563,2309
33418,2309
33257,2309
33090,2309
31808,2309
31808,2386
" /> 
<polyline style="fill-rule:evenodd;"
points="24551,6171
24527,6188
24505,6210
24505,6455
24505,6527
24505,6584
24506,6628
24507,6660
24509,6683
24511,6699
24515,6710
24519,6718
24523,6723
24547,6742
24575,6745
24601,6733
24609,6726
24615,6716
24618,6701
24620,6677
24621,6640
24621,6612
24621,6505
25014,6505
25014,6602
25014,6647
25016,6677
25019,6698
25025,6713
25032,6723
25057,6742
25084,6745
25111,6731
25118,6724
25123,6714
25126,6699
25128,6676
25129,6641
25130,6593
25130,6581
25130,6489
25130,6413
25130,6352
25130,6304
25129,6266
25128,6239
25126,6219
25123,6205
25120,6195
25116,6189
25112,6184
25087,6168
25060,6171
25035,6188
25025,6199
25019,6212
25015,6230
25014,6257
25014,6298
25014,6300
25014,6389
24621,6389
24621,6296
24620,6252
24619,6223
24615,6204
24609,6192
24603,6184
24578,6168
24551,6171
" /> 
<polyline style="fill-rule:evenodd;"
points="25552,6166
25490,6167
25442,6167
25406,6168
25379,6170
25361,6172
25349,6175
25341,6179
25337,6182
25316,6208
25314,6234
25327,6259
25335,6268
25344,6275
25356,6279
25376,6281
25407,6282
25452,6282
25461,6282
25576,6282
25576,6497
25576,6564
25576,6616
25577,6655
25579,6682
25581,6701
25584,6714
25588,6722
25594,6729
25620,6744
25647,6743
25672,6725
25674,6723
25680,6715
25684,6705
25687,6691
25690,6671
25691,6643
25692,6604
25692,6551
25692,6491
25692,6282
25802,6282
25850,6282
25882,6281
25904,6278
25917,6274
25926,6267
25927,6266
25940,6240
25939,6210
25924,6184
25919,6179
25911,6175
25900,6172
25883,6170
25859,6168
25825,6167
25780,6167
25721,6166
25646,6166
25631,6166
25552,6166
" /> 
<polyline style="fill-rule:evenodd;"
points="26165,6172
26146,6183
26125,6200
26125,6455
26125,6529
26126,6588
26126,6633
26127,6666
26129,6690
26131,6706
26135,6717
26139,6724
26142,6728
26167,6744
26195,6743
26220,6729
26241,6712
26241,6200
26220,6183
26200,6171
26183,6166
26165,6172
" /> 
<polyline style="fill-rule:evenodd;"
points="26516,6168
26501,6173
26500,6174
26479,6190
26467,6206
26465,6214
26465,6224
26468,6239
26475,6260
26487,6289
26503,6327
26526,6378
26555,6441
26571,6476
26600,6539
26627,6596
26651,6646
26672,6687
26688,6717
26697,6733
26699,6735
26724,6745
26751,6744
26774,6732
26775,6731
26783,6718
26798,6691
26817,6656
26839,6615
26846,6599
26904,6483
26967,6609
26990,6653
27011,6691
27028,6720
27041,6737
27045,6741
27078,6746
27105,6735
27113,6724
27127,6699
27146,6663
27168,6617
27192,6565
27218,6510
27244,6453
27270,6397
27293,6344
27313,6297
27328,6259
27339,6232
27342,6218
27342,6217
27333,6200
27316,6182
27315,6181
27293,6169
27274,6169
27266,6171
27257,6176
27247,6186
27236,6202
27222,6228
27204,6264
27180,6313
27159,6358
27135,6411
27113,6458
27095,6497
27082,6527
27074,6543
27073,6546
27068,6541
27057,6524
27041,6495
27022,6458
27014,6443
26988,6392
26968,6354
26952,6328
26939,6312
26927,6304
26914,6300
26906,6300
26891,6301
26878,6307
26865,6318
26851,6339
26833,6369
26810,6413
26798,6438
26777,6478
26759,6511
26746,6534
26738,6545
26737,6546
26732,6537
26720,6514
26704,6480
26683,6437
26659,6387
26648,6362
26618,6298
26593,6249
26574,6213
26558,6188
26543,6174
26530,6167
26516,6168
" /> 
<polyline style="fill-rule:evenodd;"
points="28672,6166
28570,6170
28484,6180
28411,6198
28350,6225
28301,6260
28260,6305
28228,6360
28228,6361
28209,6410
28202,6454
28207,6497
28225,6547
28229,6555
28252,6600
28278,6634
28311,6663
28357,6692
28360,6694
28399,6713
28444,6727
28497,6737
28562,6743
28639,6746
28667,6746
28798,6747
28816,6723
28822,6715
28826,6706
28829,6694
28832,6676
28833,6650
28834,6630
28710,6630
28636,6630
28592,6629
28548,6626
28511,6621
28509,6621
28444,6603
28393,6577
28356,6541
28330,6494
28325,6481
28321,6461
28323,6442
28332,6416
28338,6404
28356,6370
28379,6347
28403,6330
28452,6309
28515,6293
28588,6285
28641,6283
28710,6282
28710,6630
28834,6630
28834,6614
28835,6566
28835,6503
28835,6455
28835,6210
28813,6188
28803,6179
28793,6173
28778,6169
28756,6167
28723,6166
28675,6166
28672,6166
" /> 
<polyline style="fill-rule:evenodd;"
points="29296,6166
29235,6167
29189,6169
29155,6172
29131,6177
29116,6184
29108,6193
29104,6206
29103,6221
29103,6223
29104,6241
29107,6255
29116,6265
29132,6273
29157,6278
29193,6281
29242,6283
29307,6284
29327,6284
29518,6287
29521,6338
29523,6389
29390,6389
29338,6390
29301,6390
29276,6392
29260,6395
29249,6400
29242,6407
29242,6407
29228,6434
29228,6462
29243,6487
29246,6489
29256,6496
29270,6500
29291,6503
29322,6505
29366,6505
29394,6505
29522,6505
29522,6630
29327,6630
29263,6631
29214,6631
29178,6632
29153,6634
29137,6636
29126,6640
29119,6645
29118,6647
29105,6672
29104,6700
29114,6725
29123,6733
29131,6737
29145,6740
29165,6743
29194,6745
29234,6746
29288,6746
29357,6747
29372,6747
29442,6747
29497,6746
29538,6746
29567,6744
29588,6743
29601,6740
29610,6736
29617,6731
29620,6727
29626,6720
29630,6712
29633,6701
29635,6683
29637,6658
29638,6622
29638,6574
29639,6512
29639,6460
29639,6387
29638,6330
29638,6286
29636,6254
29635,6231
29632,6215
29629,6203
29624,6195
29620,6190
29602,6166
29372,6166
29296,6166
" /> 
<polyline style="fill-rule:evenodd;"
points="30506,6170
30487,6181
30463,6198
30432,6224
30392,6258
30343,6302
30283,6356
30214,6419
30072,6548
30067,6374
30066,6314
30064,6270
30062,6238
30060,6216
30056,6202
30051,6193
30045,6186
30042,6183
30014,6168
29988,6170
29968,6183
29947,6200
29944,6449
29943,6523
29943,6580
29943,6624
29944,6657
29945,6680
29948,6696
29951,6707
29955,6716
29960,6723
29971,6735
29982,6743
29994,6746
30009,6744
30028,6734
30053,6717
30086,6690
30127,6655
30178,6609
30237,6556
30447,6366
30451,6539
30453,6599
30454,6643
30456,6675
30459,6697
30462,6711
30467,6720
30473,6727
30477,6729
30506,6745
30533,6742
30558,6723
30563,6715
30567,6706
30571,6694
30573,6675
30574,6649
30575,6613
30576,6565
30576,6503
30576,6456
30576,6384
30576,6327
30575,6284
30574,6252
30572,6229
30569,6214
30566,6203
30561,6194
30558,6190
30549,6179
30540,6170
30531,6165
30520,6165
30506,6170
" /> 
<polyline style="fill-rule:evenodd;"
points="31020,6171
30966,6180
30924,6194
30897,6212
30890,6223
30882,6248
30887,6270
30903,6291
30928,6301
30964,6300
30992,6295
31054,6285
31117,6284
31187,6292
31207,6296
31273,6314
31324,6342
31361,6378
31382,6422
31386,6445
31383,6491
31365,6532
31332,6567
31288,6595
31233,6615
31169,6627
31098,6629
31021,6621
31017,6621
30986,6615
30969,6609
30962,6601
30960,6588
30960,6580
30960,6550
31014,6550
31062,6547
31095,6536
31114,6518
31120,6490
31121,6487
31117,6463
31103,6446
31077,6435
31037,6429
30999,6426
30943,6425
30902,6427
30875,6435
30858,6450
30848,6476
30845,6513
30844,6562
30845,6617
30848,6655
30854,6675
30855,6676
30886,6701
30931,6721
30988,6735
31053,6743
31124,6745
31198,6740
31241,6733
31309,6714
31373,6682
31426,6641
31434,6633
31460,6599
31484,6556
31502,6511
31512,6471
31514,6455
31508,6423
31494,6382
31474,6340
31451,6301
31430,6275
31382,6236
31320,6205
31246,6183
31162,6170
31085,6167
31020,6171
" /> 
<polyline style="fill-rule:evenodd;"
points="31790,6184
31785,6190
31781,6198
31778,6209
31776,6227
31774,6252
31773,6287
31773,6335
31773,6397
31772,6456
31773,6531
31773,6589
31773,6634
31774,6667
31776,6690
31779,6706
31782,6717
31786,6724
31790,6729
31816,6744
31844,6743
31869,6726
31875,6719
31879,6712
31883,6701
31885,6684
31887,6661
31888,6628
31888,6583
31889,6524
31889,6458
31889,6210
31867,6188
31840,6170
31813,6169
31790,6184
" /> 
<polyline style="fill-rule:evenodd;"
points="32398,6167
32339,6171
32283,6178
32236,6186
32199,6197
32175,6209
32172,6212
32159,6240
32163,6268
32182,6292
32183,6292
32195,6300
32207,6304
32223,6304
32249,6301
32287,6295
32290,6295
32348,6288
32410,6284
32472,6284
32530,6287
32580,6294
32616,6303
32619,6304
32646,6319
32655,6334
32648,6349
32624,6363
32585,6376
32532,6388
32496,6393
32421,6404
32362,6414
32315,6424
32279,6434
32250,6446
32227,6461
32206,6478
32189,6496
32169,6520
32160,6541
32157,6567
32156,6577
32159,6608
32168,6631
32184,6652
32216,6684
32252,6708
32295,6725
32346,6737
32410,6743
32487,6745
32500,6745
32552,6744
32603,6742
32649,6738
32683,6734
32685,6734
32719,6726
32747,6716
32763,6706
32778,6682
32779,6654
32767,6629
32764,6626
32752,6618
32737,6614
32714,6615
32686,6618
32654,6621
32610,6623
32559,6625
32505,6626
32491,6626
32438,6626
32398,6625
32370,6622
32349,6619
32332,6613
32322,6608
32300,6595
32286,6583
32284,6580
32288,6566
32309,6552
32345,6540
32394,6529
32408,6527
32484,6515
32545,6505
32592,6496
32629,6488
32658,6479
32680,6470
32699,6459
32717,6446
32736,6429
32742,6423
32764,6402
32776,6384
32781,6365
32781,6340
32773,6292
32749,6250
32708,6217
32652,6191
32612,6179
32568,6171
32516,6167
32458,6166
32398,6167
" /> 
<polyline style="fill-rule:evenodd;"
points="33205,6166
33150,6167
33109,6167
33079,6168
33058,6170
33043,6173
33034,6177
33027,6182
33024,6184
33009,6209
33006,6237
33016,6262
33021,6267
33028,6272
33041,6276
33060,6279
33089,6281
33129,6282
33183,6284
33233,6284
33429,6287
33431,6338
33434,6389
33301,6389
33243,6390
33201,6392
33172,6397
33153,6404
33143,6417
33139,6434
33139,6450
33141,6470
33148,6484
33163,6494
33188,6500
33225,6504
33277,6505
33306,6505
33433,6505
33433,6630
33237,6630
33172,6631
33123,6631
33088,6632
33062,6634
33045,6636
33034,6640
33026,6645
33022,6648
33009,6670
33005,6689
33011,6712
33022,6729
33029,6734
33037,6738
33049,6741
33067,6744
33093,6745
33130,6746
33179,6746
33244,6747
33277,6747
33348,6746
33404,6746
33446,6746
33477,6744
33498,6742
33513,6740
33522,6736
33529,6731
33531,6729
33537,6723
33541,6715
33544,6703
33546,6686
33548,6660
33549,6625
33549,6577
33549,6515
33549,6458
33549,6384
33549,6326
33549,6282
33548,6249
33546,6226
33544,6210
33540,6200
33536,6193
33530,6187
33529,6186
33522,6180
33514,6175
33503,6172
33486,6169
33461,6168
33427,6167
33380,6166
33319,6166
33276,6166
33205,6166
" /> 
<polyline style="fill-rule:evenodd;"
points="34319,6166
34288,6167
34197,6169
34120,6175
34056,6187
34001,6204
33953,6228
33910,6259
33894,6273
33869,6304
33846,6347
33828,6394
33818,6440
33817,6456
33823,6503
33840,6554
33865,6602
33894,6640
33899,6645
33939,6677
33983,6703
34033,6722
34092,6735
34163,6743
34248,6746
34286,6747
34335,6746
34370,6745
34393,6743
34408,6739
34419,6734
34424,6729
34429,6723
34434,6715
34437,6703
34439,6686
34440,6661
34441,6625
34442,6578
34442,6516
34442,6456
34442,6377
34442,6313
34442,6282
34326,6282
34326,6630
34252,6630
34208,6629
34162,6626
34123,6621
34122,6621
34059,6606
34011,6582
33974,6549
33950,6513
33936,6472
33937,6434
33954,6394
33986,6352
34032,6321
34091,6300
34131,6293
34175,6288
34223,6284
34263,6282
34266,6282
34326,6282
34442,6282
34441,6263
34438,6226
34431,6200
34421,6183
34405,6172
34384,6167
34355,6166
34319,6166
" /> 
</g>
<g style="fill:#000000; fill-opacity:1.0; 
stroke:#000000; stroke-width:3.93701; stroke-opacity:1; 
stroke-linecap:round; stroke-linejoin:round;">
</g>
<g style="fill:#C2C200; fill-opacity:1.0; 
stroke:#C2C200; stroke-width:3.93701; stroke-opacity:1; 
stroke-linecap:round; stroke-linejoin:round;">
</g>
<g style="fill:#C2C200; fill-opacity:1.0; 
stroke:#C2C200; stroke-width:59.0551; stroke-opacity:1; 
stroke-linecap:round; stroke-linejoin:round;">
</g>
<g style="fill:#C2C200; fill-opacity:0.0; 
stroke:#C2C200; stroke-width:59.0551; stroke-opacity:1; 
stroke-linecap:round; stroke-linejoin:round;">
<path d="M39320 35080
L108 35080
" />
<path d="M39242 41
L39320 35080
" />
<path d="M29 41
L39242 41
" />
<path d="M29 35080
L29 41
" />
<path d="M108 35080
L29 35080
" />
</g> 
</svg>
