G04 #@! TF.GenerationSoftware,KiCad,Pcbnew,(5.0.0)*
G04 #@! TF.CreationDate,2019-03-04T17:15:25-05:00*
G04 #@! TF.ProjectId,nivel y temperatura,6E6976656C20792074656D7065726174,V 1.0*
G04 #@! TF.SameCoordinates,Original*
G04 #@! TF.FileFunction,Legend,Top*
G04 #@! TF.FilePolarity,Positive*
%FSLAX46Y46*%
G04 Gerber Fmt 4.6, Leading zero omitted, Abs format (unit mm)*
G04 Created by KiCad (PCBNEW (5.0.0)) date 03/04/19 17:15:25*
%MOMM*%
%LPD*%
G01*
G04 APERTURE LIST*
%ADD10C,0.150000*%
%ADD11C,0.300000*%
%ADD12C,0.304800*%
%ADD13C,0.050000*%
%ADD14C,0.120000*%
%ADD15C,0.010000*%
G04 APERTURE END LIST*
D10*
X113359047Y-130591428D02*
X114120952Y-130591428D01*
X106889047Y-130641428D02*
X107650952Y-130641428D01*
X107270000Y-131022380D02*
X107270000Y-130260476D01*
X92202000Y-45974000D02*
X92202000Y-134974000D01*
X191770000Y-45974000D02*
X92202000Y-45974000D01*
X191900000Y-135000000D02*
X191770000Y-45970000D01*
X92202000Y-135000000D02*
X191900000Y-135000000D01*
X108234361Y-123829771D02*
X107901028Y-123829771D01*
X107901028Y-124353580D02*
X107901028Y-123353580D01*
X108377219Y-123353580D01*
X108758171Y-124353580D02*
X108758171Y-123353580D01*
X109805790Y-124353580D02*
X109472457Y-123877390D01*
X109234361Y-124353580D02*
X109234361Y-123353580D01*
X109615314Y-123353580D01*
X109710552Y-123401200D01*
X109758171Y-123448819D01*
X109805790Y-123544057D01*
X109805790Y-123686914D01*
X109758171Y-123782152D01*
X109710552Y-123829771D01*
X109615314Y-123877390D01*
X109234361Y-123877390D01*
X110234361Y-123353580D02*
X110234361Y-124163104D01*
X110281980Y-124258342D01*
X110329600Y-124305961D01*
X110424838Y-124353580D01*
X110615314Y-124353580D01*
X110710552Y-124305961D01*
X110758171Y-124258342D01*
X110805790Y-124163104D01*
X110805790Y-123353580D01*
X111186742Y-123353580D02*
X111853409Y-124353580D01*
X111853409Y-123353580D02*
X111186742Y-124353580D01*
X188171200Y-129184304D02*
X188123580Y-129279542D01*
X188123580Y-129422400D01*
X188171200Y-129565257D01*
X188266438Y-129660495D01*
X188361676Y-129708114D01*
X188552152Y-129755733D01*
X188695009Y-129755733D01*
X188885485Y-129708114D01*
X188980723Y-129660495D01*
X189075961Y-129565257D01*
X189123580Y-129422400D01*
X189123580Y-129327161D01*
X189075961Y-129184304D01*
X189028342Y-129136685D01*
X188695009Y-129136685D01*
X188695009Y-129327161D01*
X189123580Y-128708114D02*
X188123580Y-128708114D01*
X189123580Y-128136685D01*
X188123580Y-128136685D01*
X189123580Y-127660495D02*
X188123580Y-127660495D01*
X188123580Y-127422400D01*
X188171200Y-127279542D01*
X188266438Y-127184304D01*
X188361676Y-127136685D01*
X188552152Y-127089066D01*
X188695009Y-127089066D01*
X188885485Y-127136685D01*
X188980723Y-127184304D01*
X189075961Y-127279542D01*
X189123580Y-127422400D01*
X189123580Y-127660495D01*
X185634380Y-129806533D02*
X186634380Y-129473200D01*
X185634380Y-129139866D01*
X186539142Y-128235104D02*
X186586761Y-128282723D01*
X186634380Y-128425580D01*
X186634380Y-128520819D01*
X186586761Y-128663676D01*
X186491523Y-128758914D01*
X186396285Y-128806533D01*
X186205809Y-128854152D01*
X186062952Y-128854152D01*
X185872476Y-128806533D01*
X185777238Y-128758914D01*
X185682000Y-128663676D01*
X185634380Y-128520819D01*
X185634380Y-128425580D01*
X185682000Y-128282723D01*
X185729619Y-128235104D01*
X186539142Y-127235104D02*
X186586761Y-127282723D01*
X186634380Y-127425580D01*
X186634380Y-127520819D01*
X186586761Y-127663676D01*
X186491523Y-127758914D01*
X186396285Y-127806533D01*
X186205809Y-127854152D01*
X186062952Y-127854152D01*
X185872476Y-127806533D01*
X185777238Y-127758914D01*
X185682000Y-127663676D01*
X185634380Y-127520819D01*
X185634380Y-127425580D01*
X185682000Y-127282723D01*
X185729619Y-127235104D01*
X183992780Y-129790628D02*
X182992780Y-129790628D01*
X183707066Y-129457295D01*
X182992780Y-129123961D01*
X183992780Y-129123961D01*
X183992780Y-128647771D02*
X182992780Y-128647771D01*
X183945161Y-128219200D02*
X183992780Y-128076342D01*
X183992780Y-127838247D01*
X183945161Y-127743009D01*
X183897542Y-127695390D01*
X183802304Y-127647771D01*
X183707066Y-127647771D01*
X183611828Y-127695390D01*
X183564209Y-127743009D01*
X183516590Y-127838247D01*
X183468971Y-128028723D01*
X183421352Y-128123961D01*
X183373733Y-128171580D01*
X183278495Y-128219200D01*
X183183257Y-128219200D01*
X183088019Y-128171580D01*
X183040400Y-128123961D01*
X182992780Y-128028723D01*
X182992780Y-127790628D01*
X183040400Y-127647771D01*
X182992780Y-127028723D02*
X182992780Y-126838247D01*
X183040400Y-126743009D01*
X183135638Y-126647771D01*
X183326114Y-126600152D01*
X183659447Y-126600152D01*
X183849923Y-126647771D01*
X183945161Y-126743009D01*
X183992780Y-126838247D01*
X183992780Y-127028723D01*
X183945161Y-127123961D01*
X183849923Y-127219200D01*
X183659447Y-127266819D01*
X183326114Y-127266819D01*
X183135638Y-127219200D01*
X183040400Y-127123961D01*
X182992780Y-127028723D01*
X181605180Y-129739828D02*
X180605180Y-129739828D01*
X181319466Y-129406495D01*
X180605180Y-129073161D01*
X181605180Y-129073161D01*
X180605180Y-128406495D02*
X180605180Y-128216019D01*
X180652800Y-128120780D01*
X180748038Y-128025542D01*
X180938514Y-127977923D01*
X181271847Y-127977923D01*
X181462323Y-128025542D01*
X181557561Y-128120780D01*
X181605180Y-128216019D01*
X181605180Y-128406495D01*
X181557561Y-128501733D01*
X181462323Y-128596971D01*
X181271847Y-128644590D01*
X180938514Y-128644590D01*
X180748038Y-128596971D01*
X180652800Y-128501733D01*
X180605180Y-128406495D01*
X181557561Y-127596971D02*
X181605180Y-127454114D01*
X181605180Y-127216019D01*
X181557561Y-127120780D01*
X181509942Y-127073161D01*
X181414704Y-127025542D01*
X181319466Y-127025542D01*
X181224228Y-127073161D01*
X181176609Y-127120780D01*
X181128990Y-127216019D01*
X181081371Y-127406495D01*
X181033752Y-127501733D01*
X180986133Y-127549352D01*
X180890895Y-127596971D01*
X180795657Y-127596971D01*
X180700419Y-127549352D01*
X180652800Y-127501733D01*
X180605180Y-127406495D01*
X180605180Y-127168400D01*
X180652800Y-127025542D01*
X181605180Y-126596971D02*
X180605180Y-126596971D01*
X179017561Y-129606514D02*
X179065180Y-129463657D01*
X179065180Y-129225561D01*
X179017561Y-129130323D01*
X178969942Y-129082704D01*
X178874704Y-129035085D01*
X178779466Y-129035085D01*
X178684228Y-129082704D01*
X178636609Y-129130323D01*
X178588990Y-129225561D01*
X178541371Y-129416038D01*
X178493752Y-129511276D01*
X178446133Y-129558895D01*
X178350895Y-129606514D01*
X178255657Y-129606514D01*
X178160419Y-129558895D01*
X178112800Y-129511276D01*
X178065180Y-129416038D01*
X178065180Y-129177942D01*
X178112800Y-129035085D01*
X178969942Y-128035085D02*
X179017561Y-128082704D01*
X179065180Y-128225561D01*
X179065180Y-128320800D01*
X179017561Y-128463657D01*
X178922323Y-128558895D01*
X178827085Y-128606514D01*
X178636609Y-128654133D01*
X178493752Y-128654133D01*
X178303276Y-128606514D01*
X178208038Y-128558895D01*
X178112800Y-128463657D01*
X178065180Y-128320800D01*
X178065180Y-128225561D01*
X178112800Y-128082704D01*
X178160419Y-128035085D01*
X179065180Y-127606514D02*
X178065180Y-127606514D01*
X179065180Y-127035085D02*
X178493752Y-127463657D01*
X178065180Y-127035085D02*
X178636609Y-127606514D01*
X176379142Y-128944666D02*
X176426761Y-128992285D01*
X176474380Y-129135142D01*
X176474380Y-129230380D01*
X176426761Y-129373238D01*
X176331523Y-129468476D01*
X176236285Y-129516095D01*
X176045809Y-129563714D01*
X175902952Y-129563714D01*
X175712476Y-129516095D01*
X175617238Y-129468476D01*
X175522000Y-129373238D01*
X175474380Y-129230380D01*
X175474380Y-129135142D01*
X175522000Y-128992285D01*
X175569619Y-128944666D01*
X176426761Y-128563714D02*
X176474380Y-128420857D01*
X176474380Y-128182761D01*
X176426761Y-128087523D01*
X176379142Y-128039904D01*
X176283904Y-127992285D01*
X176188666Y-127992285D01*
X176093428Y-128039904D01*
X176045809Y-128087523D01*
X175998190Y-128182761D01*
X175950571Y-128373238D01*
X175902952Y-128468476D01*
X175855333Y-128516095D01*
X175760095Y-128563714D01*
X175664857Y-128563714D01*
X175569619Y-128516095D01*
X175522000Y-128468476D01*
X175474380Y-128373238D01*
X175474380Y-128135142D01*
X175522000Y-127992285D01*
X166632000Y-129082704D02*
X166584380Y-129177942D01*
X166584380Y-129320800D01*
X166632000Y-129463657D01*
X166727238Y-129558895D01*
X166822476Y-129606514D01*
X167012952Y-129654133D01*
X167155809Y-129654133D01*
X167346285Y-129606514D01*
X167441523Y-129558895D01*
X167536761Y-129463657D01*
X167584380Y-129320800D01*
X167584380Y-129225561D01*
X167536761Y-129082704D01*
X167489142Y-129035085D01*
X167155809Y-129035085D01*
X167155809Y-129225561D01*
X167584380Y-128606514D02*
X166584380Y-128606514D01*
X167584380Y-128035085D01*
X166584380Y-128035085D01*
X167584380Y-127558895D02*
X166584380Y-127558895D01*
X166584380Y-127320800D01*
X166632000Y-127177942D01*
X166727238Y-127082704D01*
X166822476Y-127035085D01*
X167012952Y-126987466D01*
X167155809Y-126987466D01*
X167346285Y-127035085D01*
X167441523Y-127082704D01*
X167536761Y-127177942D01*
X167584380Y-127320800D01*
X167584380Y-127558895D01*
X164247580Y-129654133D02*
X165247580Y-129320800D01*
X164247580Y-128987466D01*
X165152342Y-128082704D02*
X165199961Y-128130323D01*
X165247580Y-128273180D01*
X165247580Y-128368419D01*
X165199961Y-128511276D01*
X165104723Y-128606514D01*
X165009485Y-128654133D01*
X164819009Y-128701752D01*
X164676152Y-128701752D01*
X164485676Y-128654133D01*
X164390438Y-128606514D01*
X164295200Y-128511276D01*
X164247580Y-128368419D01*
X164247580Y-128273180D01*
X164295200Y-128130323D01*
X164342819Y-128082704D01*
X165152342Y-127082704D02*
X165199961Y-127130323D01*
X165247580Y-127273180D01*
X165247580Y-127368419D01*
X165199961Y-127511276D01*
X165104723Y-127606514D01*
X165009485Y-127654133D01*
X164819009Y-127701752D01*
X164676152Y-127701752D01*
X164485676Y-127654133D01*
X164390438Y-127606514D01*
X164295200Y-127511276D01*
X164247580Y-127368419D01*
X164247580Y-127273180D01*
X164295200Y-127130323D01*
X164342819Y-127082704D01*
X162456761Y-129636685D02*
X162504380Y-129493828D01*
X162504380Y-129255733D01*
X162456761Y-129160495D01*
X162409142Y-129112876D01*
X162313904Y-129065257D01*
X162218666Y-129065257D01*
X162123428Y-129112876D01*
X162075809Y-129160495D01*
X162028190Y-129255733D01*
X161980571Y-129446209D01*
X161932952Y-129541447D01*
X161885333Y-129589066D01*
X161790095Y-129636685D01*
X161694857Y-129636685D01*
X161599619Y-129589066D01*
X161552000Y-129541447D01*
X161504380Y-129446209D01*
X161504380Y-129208114D01*
X161552000Y-129065257D01*
X162504380Y-128636685D02*
X161504380Y-128636685D01*
X161504380Y-128398590D01*
X161552000Y-128255733D01*
X161647238Y-128160495D01*
X161742476Y-128112876D01*
X161932952Y-128065257D01*
X162075809Y-128065257D01*
X162266285Y-128112876D01*
X162361523Y-128160495D01*
X162456761Y-128255733D01*
X162504380Y-128398590D01*
X162504380Y-128636685D01*
X162218666Y-127684304D02*
X162218666Y-127208114D01*
X162504380Y-127779542D02*
X161504380Y-127446209D01*
X162504380Y-127112876D01*
X159967561Y-129562076D02*
X160015180Y-129419219D01*
X160015180Y-129181123D01*
X159967561Y-129085885D01*
X159919942Y-129038266D01*
X159824704Y-128990647D01*
X159729466Y-128990647D01*
X159634228Y-129038266D01*
X159586609Y-129085885D01*
X159538990Y-129181123D01*
X159491371Y-129371600D01*
X159443752Y-129466838D01*
X159396133Y-129514457D01*
X159300895Y-129562076D01*
X159205657Y-129562076D01*
X159110419Y-129514457D01*
X159062800Y-129466838D01*
X159015180Y-129371600D01*
X159015180Y-129133504D01*
X159062800Y-128990647D01*
X159919942Y-127990647D02*
X159967561Y-128038266D01*
X160015180Y-128181123D01*
X160015180Y-128276361D01*
X159967561Y-128419219D01*
X159872323Y-128514457D01*
X159777085Y-128562076D01*
X159586609Y-128609695D01*
X159443752Y-128609695D01*
X159253276Y-128562076D01*
X159158038Y-128514457D01*
X159062800Y-128419219D01*
X159015180Y-128276361D01*
X159015180Y-128181123D01*
X159062800Y-128038266D01*
X159110419Y-127990647D01*
X160015180Y-127085885D02*
X160015180Y-127562076D01*
X159015180Y-127562076D01*
D11*
G04 #@! TO.C,U1*
X92464801Y-107657901D02*
X92464801Y-47657901D01*
X191651801Y-107657901D02*
X92464801Y-107632501D01*
X191651801Y-47657901D02*
X191651801Y-107657901D01*
X92464801Y-47637701D02*
X191626401Y-47637701D01*
D12*
X180046541Y-65636141D02*
X104044661Y-65636141D01*
X180046541Y-89634061D02*
X180046541Y-65636141D01*
X104044661Y-89634061D02*
X180046541Y-89634061D01*
X104044661Y-65636141D02*
X104044661Y-89634061D01*
X94044681Y-97635061D02*
X94044681Y-57635141D01*
X190046521Y-97635061D02*
X94044681Y-97635061D01*
X190046521Y-57635141D02*
X190046521Y-97635061D01*
X94044681Y-57635141D02*
X190046521Y-57635141D01*
D13*
G04 #@! TO.C,S-DTH1*
X128349600Y-121948800D02*
X128349600Y-133148800D01*
X128349600Y-133148800D02*
X131949600Y-133148800D01*
X131949600Y-133148800D02*
X131949600Y-121948800D01*
X131949600Y-121948800D02*
X128349600Y-121948800D01*
D10*
X147447000Y-121183400D02*
X147447000Y-133883400D01*
X147421600Y-133883400D02*
X132130800Y-133883400D01*
X132130800Y-133883400D02*
X132130800Y-121183400D01*
X132130800Y-121183400D02*
X147447000Y-121183400D01*
D14*
G04 #@! TO.C,A1*
X148256800Y-108175600D02*
X148256800Y-126215600D01*
X191696800Y-108175600D02*
X148256800Y-108175600D01*
X191696800Y-126215600D02*
X191696800Y-108175600D01*
X189026800Y-123545600D02*
X189026800Y-126215600D01*
X153466800Y-123545600D02*
X189026800Y-123545600D01*
X153466800Y-123545600D02*
X153466800Y-126215600D01*
X189026800Y-110845600D02*
X189026800Y-108175600D01*
X150926800Y-110845600D02*
X189026800Y-110845600D01*
X150926800Y-110845600D02*
X150926800Y-108175600D01*
X148256800Y-126215600D02*
X150926800Y-126215600D01*
X153466800Y-126215600D02*
X191696800Y-126215600D01*
X150926800Y-123545600D02*
X150926800Y-126215600D01*
X153466800Y-123545600D02*
X150926800Y-123545600D01*
G04 #@! TO.C,D1*
X111642400Y-126699600D02*
X108757400Y-126699600D01*
X108757400Y-126699600D02*
X108757400Y-128519600D01*
X108757400Y-128519600D02*
X111642400Y-128519600D01*
G04 #@! TO.C,R1*
X106672748Y-119076400D02*
X107195252Y-119076400D01*
X106672748Y-120496400D02*
X107195252Y-120496400D01*
G04 #@! TO.C,R2*
X110431948Y-120496400D02*
X110954452Y-120496400D01*
X110431948Y-119076400D02*
X110954452Y-119076400D01*
G04 #@! TO.C,RTC1*
X168462000Y-133105200D02*
X168462000Y-130445200D01*
X160782000Y-133105200D02*
X168462000Y-133105200D01*
X160782000Y-130445200D02*
X168462000Y-130445200D01*
X160782000Y-133105200D02*
X160782000Y-130445200D01*
X159512000Y-133105200D02*
X158182000Y-133105200D01*
X158182000Y-133105200D02*
X158182000Y-131775200D01*
G04 #@! TO.C,SD1*
X190001200Y-133156000D02*
X190001200Y-130496000D01*
X177241200Y-133156000D02*
X190001200Y-133156000D01*
X177241200Y-130496000D02*
X190001200Y-130496000D01*
X177241200Y-133156000D02*
X177241200Y-130496000D01*
X175971200Y-133156000D02*
X174641200Y-133156000D01*
X174641200Y-133156000D02*
X174641200Y-131826000D01*
G04 #@! TO.C,Sensor1*
X114635600Y-127638800D02*
X114635600Y-133608800D01*
X114635600Y-133608800D02*
X127255600Y-133608800D01*
X127255600Y-133608800D02*
X127255600Y-127638800D01*
X127255600Y-127638800D02*
X114635600Y-127638800D01*
X117945600Y-127648800D02*
X117945600Y-128398800D01*
X117945600Y-128398800D02*
X123945600Y-128398800D01*
X123945600Y-128398800D02*
X123945600Y-127648800D01*
X123945600Y-127648800D02*
X117945600Y-127648800D01*
X114645600Y-127648800D02*
X114645600Y-128398800D01*
X114645600Y-128398800D02*
X116445600Y-128398800D01*
X116445600Y-128398800D02*
X116445600Y-127648800D01*
X116445600Y-127648800D02*
X114645600Y-127648800D01*
X125445600Y-127648800D02*
X125445600Y-128398800D01*
X125445600Y-128398800D02*
X127245600Y-128398800D01*
X127245600Y-128398800D02*
X127245600Y-127648800D01*
X127245600Y-127648800D02*
X125445600Y-127648800D01*
X114645600Y-129898800D02*
X115395600Y-129898800D01*
X115395600Y-129898800D02*
X115395600Y-132848800D01*
X115395600Y-132848800D02*
X120945600Y-132848800D01*
X127245600Y-129898800D02*
X126495600Y-129898800D01*
X126495600Y-129898800D02*
X126495600Y-132848800D01*
X126495600Y-132848800D02*
X120945600Y-132848800D01*
X115595600Y-127348800D02*
X114345600Y-127348800D01*
X114345600Y-127348800D02*
X114345600Y-128598800D01*
G04 #@! TO.C,C1*
X135917600Y-120271200D02*
X135917600Y-116521200D01*
X135917600Y-109751200D02*
X135917600Y-113501200D01*
X126462037Y-109751200D02*
X135917600Y-109751200D01*
X126462037Y-120271200D02*
X135917600Y-120271200D01*
X125397600Y-119206763D02*
X125397600Y-116521200D01*
X125397600Y-110815637D02*
X125397600Y-113501200D01*
X125397600Y-110815637D02*
X126462037Y-109751200D01*
X125397600Y-119206763D02*
X126462037Y-120271200D01*
X123907600Y-112251200D02*
X125157600Y-112251200D01*
X124532600Y-111626200D02*
X124532600Y-112876200D01*
G04 #@! TO.C,C2*
X122928800Y-116832800D02*
X122928800Y-114082800D01*
X122928800Y-108312800D02*
X122928800Y-111062800D01*
X115473237Y-108312800D02*
X122928800Y-108312800D01*
X115473237Y-116832800D02*
X122928800Y-116832800D01*
X114408800Y-115768363D02*
X114408800Y-114082800D01*
X114408800Y-109377237D02*
X114408800Y-111062800D01*
X114408800Y-109377237D02*
X115473237Y-108312800D01*
X114408800Y-115768363D02*
X115473237Y-116832800D01*
X113168800Y-110062800D02*
X114168800Y-110062800D01*
X113668800Y-109562800D02*
X113668800Y-110562800D01*
G04 #@! TO.C,D2*
X118316800Y-121438400D02*
X118316800Y-124738400D01*
X118316800Y-124738400D02*
X123716800Y-124738400D01*
X118316800Y-121438400D02*
X123716800Y-121438400D01*
D12*
G04 #@! TO.C, *
X92557600Y-134010400D02*
X104749600Y-134010400D01*
X104749600Y-132994400D02*
X92557600Y-132994400D01*
X92557600Y-125120400D02*
X104749600Y-125120400D01*
X92557600Y-125120400D02*
X92557600Y-134010400D01*
X104749600Y-134010400D02*
X104749600Y-125120400D01*
X98653600Y-126390400D02*
G75*
G03X93573600Y-126390400I-2540000J-2540000D01*
G01*
X103733600Y-126390400D02*
G75*
G03X98653600Y-126390400I-2540000J-2540000D01*
G01*
X103733600Y-126390400D02*
X103733600Y-132994400D01*
X93573600Y-126390400D02*
X93573600Y-132994400D01*
D14*
G04 #@! TO.C,L1*
X112005600Y-113312400D02*
X112005600Y-115612400D01*
X112005600Y-115612400D02*
X104605600Y-115612400D01*
X104605600Y-115612400D02*
X104605600Y-113312400D01*
X104605600Y-110512400D02*
X104605600Y-108212400D01*
X104605600Y-108212400D02*
X112005600Y-108212400D01*
X112005600Y-108212400D02*
X112005600Y-110512400D01*
G04 #@! TO.C,R3*
X114191148Y-120496400D02*
X114713652Y-120496400D01*
X114191148Y-119076400D02*
X114713652Y-119076400D01*
G04 #@! TO.C,R4*
X117950348Y-119076400D02*
X118472852Y-119076400D01*
X117950348Y-120496400D02*
X118472852Y-120496400D01*
D10*
G04 #@! TO.C,TP1*
X108890000Y-129610000D02*
X112490000Y-129610000D01*
X112490000Y-129610000D02*
X112990000Y-130110000D01*
X112990000Y-130110000D02*
X112990000Y-130910000D01*
X112990000Y-130910000D02*
X112490000Y-131410000D01*
X112490000Y-131410000D02*
X108890000Y-131410000D01*
X108890000Y-131410000D02*
X108390000Y-130910000D01*
X108390000Y-130910000D02*
X108390000Y-130110000D01*
X108390000Y-130110000D02*
X108890000Y-129610000D01*
D14*
G04 #@! TO.C,U2*
X92844000Y-117883600D02*
X92844000Y-119383600D01*
X92844000Y-119383600D02*
X93794000Y-119383600D01*
X93794000Y-119383600D02*
X93794000Y-124508600D01*
X103244000Y-117883600D02*
X103244000Y-119383600D01*
X103244000Y-119383600D02*
X102294000Y-119383600D01*
X102294000Y-119383600D02*
X102294000Y-120483600D01*
G04 #@! TO.C,R5*
X121709548Y-119076400D02*
X122232052Y-119076400D01*
X121709548Y-120496400D02*
X122232052Y-120496400D01*
D10*
G04 #@! TO.C,RV1*
X147269200Y-110337600D02*
X137617200Y-110337600D01*
X147269200Y-119938800D02*
X147269200Y-110337600D01*
X137617200Y-119938800D02*
X147218400Y-119938800D01*
X137617200Y-110337600D02*
X137617200Y-119938800D01*
D15*
G04 #@! TO.C,*
G36*
X106827320Y-122649656D02*
X106824703Y-122652024D01*
X106818530Y-122657414D01*
X106809065Y-122665601D01*
X106796572Y-122676362D01*
X106781315Y-122689470D01*
X106763556Y-122704701D01*
X106743560Y-122721830D01*
X106721591Y-122740632D01*
X106697912Y-122760883D01*
X106672786Y-122782358D01*
X106646478Y-122804831D01*
X106619251Y-122828078D01*
X106591368Y-122851874D01*
X106563095Y-122875995D01*
X106534693Y-122900214D01*
X106506427Y-122924309D01*
X106478561Y-122948052D01*
X106451358Y-122971221D01*
X106425081Y-122993590D01*
X106399995Y-123014933D01*
X106376364Y-123035027D01*
X106354450Y-123053647D01*
X106334518Y-123070567D01*
X106316831Y-123085562D01*
X106301654Y-123098409D01*
X106289248Y-123108881D01*
X106279879Y-123116755D01*
X106273810Y-123121805D01*
X106271305Y-123123807D01*
X106271255Y-123123831D01*
X106269178Y-123122205D01*
X106263445Y-123117481D01*
X106254277Y-123109845D01*
X106241894Y-123099481D01*
X106226516Y-123086577D01*
X106208364Y-123071317D01*
X106187659Y-123053888D01*
X106164619Y-123034474D01*
X106139467Y-123013261D01*
X106112423Y-122990435D01*
X106083706Y-122966182D01*
X106053537Y-122940687D01*
X106022137Y-122914136D01*
X105997291Y-122893116D01*
X105965051Y-122865830D01*
X105933852Y-122839417D01*
X105903919Y-122814067D01*
X105875473Y-122789968D01*
X105848736Y-122767309D01*
X105823931Y-122746278D01*
X105801280Y-122727064D01*
X105781006Y-122709856D01*
X105763332Y-122694842D01*
X105748478Y-122682212D01*
X105736669Y-122672153D01*
X105728126Y-122664855D01*
X105723071Y-122660506D01*
X105721701Y-122659292D01*
X105721086Y-122658682D01*
X105720550Y-122658143D01*
X105720322Y-122657789D01*
X105720630Y-122657735D01*
X105721703Y-122658095D01*
X105723768Y-122658983D01*
X105727053Y-122660513D01*
X105731786Y-122662800D01*
X105738196Y-122665957D01*
X105746509Y-122670100D01*
X105756955Y-122675342D01*
X105769762Y-122681798D01*
X105785156Y-122689581D01*
X105803367Y-122698807D01*
X105824622Y-122709589D01*
X105849150Y-122722042D01*
X105877178Y-122736280D01*
X105908934Y-122752417D01*
X105944647Y-122770567D01*
X105984544Y-122790846D01*
X106006679Y-122802096D01*
X106040653Y-122819350D01*
X106073384Y-122835948D01*
X106104585Y-122851745D01*
X106133968Y-122866596D01*
X106161247Y-122880359D01*
X106186136Y-122892888D01*
X106208346Y-122904039D01*
X106227591Y-122913668D01*
X106243584Y-122921632D01*
X106256039Y-122927785D01*
X106264667Y-122931984D01*
X106269183Y-122934084D01*
X106269793Y-122934306D01*
X106272324Y-122933166D01*
X106279053Y-122929853D01*
X106289668Y-122924529D01*
X106303854Y-122917353D01*
X106321298Y-122908488D01*
X106341687Y-122898095D01*
X106364707Y-122886334D01*
X106390045Y-122873366D01*
X106417387Y-122859353D01*
X106446420Y-122844456D01*
X106476830Y-122828836D01*
X106508304Y-122812653D01*
X106540529Y-122796069D01*
X106573190Y-122779246D01*
X106605974Y-122762343D01*
X106638568Y-122745522D01*
X106670659Y-122728945D01*
X106701932Y-122712771D01*
X106732075Y-122697163D01*
X106760774Y-122682281D01*
X106787715Y-122668287D01*
X106799380Y-122662218D01*
X106810341Y-122656641D01*
X106819135Y-122652416D01*
X106825087Y-122649848D01*
X106827523Y-122649238D01*
X106827320Y-122649656D01*
X106827320Y-122649656D01*
G37*
X106827320Y-122649656D02*
X106824703Y-122652024D01*
X106818530Y-122657414D01*
X106809065Y-122665601D01*
X106796572Y-122676362D01*
X106781315Y-122689470D01*
X106763556Y-122704701D01*
X106743560Y-122721830D01*
X106721591Y-122740632D01*
X106697912Y-122760883D01*
X106672786Y-122782358D01*
X106646478Y-122804831D01*
X106619251Y-122828078D01*
X106591368Y-122851874D01*
X106563095Y-122875995D01*
X106534693Y-122900214D01*
X106506427Y-122924309D01*
X106478561Y-122948052D01*
X106451358Y-122971221D01*
X106425081Y-122993590D01*
X106399995Y-123014933D01*
X106376364Y-123035027D01*
X106354450Y-123053647D01*
X106334518Y-123070567D01*
X106316831Y-123085562D01*
X106301654Y-123098409D01*
X106289248Y-123108881D01*
X106279879Y-123116755D01*
X106273810Y-123121805D01*
X106271305Y-123123807D01*
X106271255Y-123123831D01*
X106269178Y-123122205D01*
X106263445Y-123117481D01*
X106254277Y-123109845D01*
X106241894Y-123099481D01*
X106226516Y-123086577D01*
X106208364Y-123071317D01*
X106187659Y-123053888D01*
X106164619Y-123034474D01*
X106139467Y-123013261D01*
X106112423Y-122990435D01*
X106083706Y-122966182D01*
X106053537Y-122940687D01*
X106022137Y-122914136D01*
X105997291Y-122893116D01*
X105965051Y-122865830D01*
X105933852Y-122839417D01*
X105903919Y-122814067D01*
X105875473Y-122789968D01*
X105848736Y-122767309D01*
X105823931Y-122746278D01*
X105801280Y-122727064D01*
X105781006Y-122709856D01*
X105763332Y-122694842D01*
X105748478Y-122682212D01*
X105736669Y-122672153D01*
X105728126Y-122664855D01*
X105723071Y-122660506D01*
X105721701Y-122659292D01*
X105721086Y-122658682D01*
X105720550Y-122658143D01*
X105720322Y-122657789D01*
X105720630Y-122657735D01*
X105721703Y-122658095D01*
X105723768Y-122658983D01*
X105727053Y-122660513D01*
X105731786Y-122662800D01*
X105738196Y-122665957D01*
X105746509Y-122670100D01*
X105756955Y-122675342D01*
X105769762Y-122681798D01*
X105785156Y-122689581D01*
X105803367Y-122698807D01*
X105824622Y-122709589D01*
X105849150Y-122722042D01*
X105877178Y-122736280D01*
X105908934Y-122752417D01*
X105944647Y-122770567D01*
X105984544Y-122790846D01*
X106006679Y-122802096D01*
X106040653Y-122819350D01*
X106073384Y-122835948D01*
X106104585Y-122851745D01*
X106133968Y-122866596D01*
X106161247Y-122880359D01*
X106186136Y-122892888D01*
X106208346Y-122904039D01*
X106227591Y-122913668D01*
X106243584Y-122921632D01*
X106256039Y-122927785D01*
X106264667Y-122931984D01*
X106269183Y-122934084D01*
X106269793Y-122934306D01*
X106272324Y-122933166D01*
X106279053Y-122929853D01*
X106289668Y-122924529D01*
X106303854Y-122917353D01*
X106321298Y-122908488D01*
X106341687Y-122898095D01*
X106364707Y-122886334D01*
X106390045Y-122873366D01*
X106417387Y-122859353D01*
X106446420Y-122844456D01*
X106476830Y-122828836D01*
X106508304Y-122812653D01*
X106540529Y-122796069D01*
X106573190Y-122779246D01*
X106605974Y-122762343D01*
X106638568Y-122745522D01*
X106670659Y-122728945D01*
X106701932Y-122712771D01*
X106732075Y-122697163D01*
X106760774Y-122682281D01*
X106787715Y-122668287D01*
X106799380Y-122662218D01*
X106810341Y-122656641D01*
X106819135Y-122652416D01*
X106825087Y-122649848D01*
X106827523Y-122649238D01*
X106827320Y-122649656D01*
G36*
X107008838Y-122994673D02*
X107061470Y-122994706D01*
X107112794Y-122994755D01*
X107162577Y-122994820D01*
X107210583Y-122994900D01*
X107256579Y-122994993D01*
X107300329Y-122995099D01*
X107341600Y-122995217D01*
X107380158Y-122995346D01*
X107415767Y-122995485D01*
X107448193Y-122995632D01*
X107477203Y-122995789D01*
X107502561Y-122995952D01*
X107524033Y-122996122D01*
X107541386Y-122996297D01*
X107554384Y-122996476D01*
X107562792Y-122996659D01*
X107566378Y-122996845D01*
X107566460Y-122996863D01*
X107568948Y-122997699D01*
X107570217Y-122998499D01*
X107569801Y-122999394D01*
X107567234Y-123000516D01*
X107562051Y-123001998D01*
X107553788Y-123003970D01*
X107541978Y-123006565D01*
X107526157Y-123009915D01*
X107505859Y-123014150D01*
X107504230Y-123014490D01*
X107484452Y-123018605D01*
X107463716Y-123022921D01*
X107443389Y-123027153D01*
X107424837Y-123031015D01*
X107409429Y-123034223D01*
X107405170Y-123035111D01*
X107388694Y-123038538D01*
X107370943Y-123042226D01*
X107353906Y-123045760D01*
X107339569Y-123048728D01*
X107337860Y-123049082D01*
X107328462Y-123051029D01*
X107314891Y-123053848D01*
X107297947Y-123057372D01*
X107278427Y-123061436D01*
X107257133Y-123065872D01*
X107234862Y-123070515D01*
X107215940Y-123074462D01*
X107192021Y-123079453D01*
X107167144Y-123084642D01*
X107142362Y-123089811D01*
X107118730Y-123094738D01*
X107097302Y-123099206D01*
X107079133Y-123102993D01*
X107069890Y-123104919D01*
X107051795Y-123108690D01*
X107030227Y-123113190D01*
X107006681Y-123118105D01*
X106982656Y-123123124D01*
X106959649Y-123127932D01*
X106947970Y-123130374D01*
X106930227Y-123134084D01*
X106913280Y-123137626D01*
X106896631Y-123141101D01*
X106879783Y-123144615D01*
X106862237Y-123148270D01*
X106843499Y-123152170D01*
X106823069Y-123156418D01*
X106800451Y-123161117D01*
X106775149Y-123166371D01*
X106746663Y-123172284D01*
X106714498Y-123178958D01*
X106678156Y-123186498D01*
X106653975Y-123191514D01*
X106532700Y-123216670D01*
X106532680Y-123405900D01*
X106899363Y-123405899D01*
X106946839Y-123405916D01*
X106992111Y-123405964D01*
X107034946Y-123406042D01*
X107075109Y-123406149D01*
X107112367Y-123406283D01*
X107146486Y-123406443D01*
X107177231Y-123406628D01*
X107204368Y-123406835D01*
X107227665Y-123407064D01*
X107246886Y-123407313D01*
X107261797Y-123407581D01*
X107272166Y-123407866D01*
X107277757Y-123408166D01*
X107278458Y-123408257D01*
X107287617Y-123410320D01*
X107296016Y-123412727D01*
X107298490Y-123413608D01*
X107300919Y-123414738D01*
X107301671Y-123415848D01*
X107300204Y-123417163D01*
X107295980Y-123418905D01*
X107288459Y-123421298D01*
X107277102Y-123424564D01*
X107261660Y-123428847D01*
X107247031Y-123432872D01*
X107227960Y-123438109D01*
X107204907Y-123444433D01*
X107178328Y-123451720D01*
X107148683Y-123459843D01*
X107116431Y-123468676D01*
X107082030Y-123478095D01*
X107045939Y-123487974D01*
X107008616Y-123498188D01*
X106970519Y-123508610D01*
X106932109Y-123519116D01*
X106893842Y-123529580D01*
X106856179Y-123539877D01*
X106819576Y-123549881D01*
X106784494Y-123559467D01*
X106751390Y-123568508D01*
X106720724Y-123576881D01*
X106692953Y-123584458D01*
X106674920Y-123589376D01*
X106649115Y-123596414D01*
X106624813Y-123603051D01*
X106602448Y-123609167D01*
X106582456Y-123614643D01*
X106565272Y-123619359D01*
X106551332Y-123623195D01*
X106541071Y-123626032D01*
X106534925Y-123627751D01*
X106533262Y-123628241D01*
X106532772Y-123630776D01*
X106531794Y-123637612D01*
X106530425Y-123648004D01*
X106528761Y-123661210D01*
X106526901Y-123676483D01*
X106526273Y-123681754D01*
X106524307Y-123698309D01*
X106522472Y-123713765D01*
X106520879Y-123727187D01*
X106519638Y-123737638D01*
X106518861Y-123744182D01*
X106518765Y-123744990D01*
X106517986Y-123751496D01*
X106516764Y-123761642D01*
X106515266Y-123774027D01*
X106513706Y-123786900D01*
X106512760Y-123794759D01*
X106511276Y-123807168D01*
X106509315Y-123823629D01*
X106506935Y-123843646D01*
X106504194Y-123866724D01*
X106501152Y-123892365D01*
X106497867Y-123920074D01*
X106494399Y-123949354D01*
X106490806Y-123979709D01*
X106488375Y-124000260D01*
X106481122Y-124061598D01*
X106474441Y-124118091D01*
X106468310Y-124169939D01*
X106462704Y-124217340D01*
X106457600Y-124260495D01*
X106452974Y-124299602D01*
X106448803Y-124334863D01*
X106445063Y-124366475D01*
X106441731Y-124394639D01*
X106438782Y-124419555D01*
X106436194Y-124441421D01*
X106433942Y-124460438D01*
X106432002Y-124476804D01*
X106430353Y-124490721D01*
X106428968Y-124502386D01*
X106427826Y-124512000D01*
X106426903Y-124519763D01*
X106426174Y-124525873D01*
X106425616Y-124530531D01*
X106425206Y-124533936D01*
X106424919Y-124536287D01*
X106424773Y-124537470D01*
X106424111Y-124542890D01*
X106422911Y-124552873D01*
X106421218Y-124567041D01*
X106419076Y-124585019D01*
X106416529Y-124606429D01*
X106413622Y-124630895D01*
X106410399Y-124658041D01*
X106406906Y-124687490D01*
X106403187Y-124718865D01*
X106399285Y-124751791D01*
X106395247Y-124785889D01*
X106391115Y-124820785D01*
X106386936Y-124856102D01*
X106382753Y-124891462D01*
X106378611Y-124926490D01*
X106374554Y-124960809D01*
X106370627Y-124994042D01*
X106366875Y-125025813D01*
X106363342Y-125055745D01*
X106360073Y-125083463D01*
X106357112Y-125108589D01*
X106354504Y-125130746D01*
X106352292Y-125149559D01*
X106350523Y-125164651D01*
X106349240Y-125175645D01*
X106348488Y-125182165D01*
X106348323Y-125183655D01*
X106347151Y-125193287D01*
X106345855Y-125201713D01*
X106344926Y-125206221D01*
X106343744Y-125209841D01*
X106342560Y-125209796D01*
X106340669Y-125205618D01*
X106339546Y-125202656D01*
X106339235Y-125201347D01*
X106338941Y-125199036D01*
X106338664Y-125195581D01*
X106338402Y-125190844D01*
X106338155Y-125184683D01*
X106337923Y-125176959D01*
X106337706Y-125167531D01*
X106337502Y-125156260D01*
X106337310Y-125143005D01*
X106337132Y-125127627D01*
X106336965Y-125109985D01*
X106336809Y-125089940D01*
X106336664Y-125067350D01*
X106336529Y-125042077D01*
X106336404Y-125013979D01*
X106336288Y-124982918D01*
X106336181Y-124948753D01*
X106336081Y-124911343D01*
X106335989Y-124870549D01*
X106335903Y-124826230D01*
X106335824Y-124778248D01*
X106335750Y-124726460D01*
X106335681Y-124670729D01*
X106335617Y-124610912D01*
X106335557Y-124546871D01*
X106335500Y-124478465D01*
X106335446Y-124405554D01*
X106335394Y-124327998D01*
X106335344Y-124245657D01*
X106335295Y-124158392D01*
X106335289Y-124148850D01*
X106334727Y-123104910D01*
X106367981Y-123074430D01*
X106381578Y-123062035D01*
X106396551Y-123048499D01*
X106411410Y-123035161D01*
X106424661Y-123023366D01*
X106429401Y-123019185D01*
X106457567Y-122994420D01*
X107008838Y-122994673D01*
X107008838Y-122994673D01*
G37*
X107008838Y-122994673D02*
X107061470Y-122994706D01*
X107112794Y-122994755D01*
X107162577Y-122994820D01*
X107210583Y-122994900D01*
X107256579Y-122994993D01*
X107300329Y-122995099D01*
X107341600Y-122995217D01*
X107380158Y-122995346D01*
X107415767Y-122995485D01*
X107448193Y-122995632D01*
X107477203Y-122995789D01*
X107502561Y-122995952D01*
X107524033Y-122996122D01*
X107541386Y-122996297D01*
X107554384Y-122996476D01*
X107562792Y-122996659D01*
X107566378Y-122996845D01*
X107566460Y-122996863D01*
X107568948Y-122997699D01*
X107570217Y-122998499D01*
X107569801Y-122999394D01*
X107567234Y-123000516D01*
X107562051Y-123001998D01*
X107553788Y-123003970D01*
X107541978Y-123006565D01*
X107526157Y-123009915D01*
X107505859Y-123014150D01*
X107504230Y-123014490D01*
X107484452Y-123018605D01*
X107463716Y-123022921D01*
X107443389Y-123027153D01*
X107424837Y-123031015D01*
X107409429Y-123034223D01*
X107405170Y-123035111D01*
X107388694Y-123038538D01*
X107370943Y-123042226D01*
X107353906Y-123045760D01*
X107339569Y-123048728D01*
X107337860Y-123049082D01*
X107328462Y-123051029D01*
X107314891Y-123053848D01*
X107297947Y-123057372D01*
X107278427Y-123061436D01*
X107257133Y-123065872D01*
X107234862Y-123070515D01*
X107215940Y-123074462D01*
X107192021Y-123079453D01*
X107167144Y-123084642D01*
X107142362Y-123089811D01*
X107118730Y-123094738D01*
X107097302Y-123099206D01*
X107079133Y-123102993D01*
X107069890Y-123104919D01*
X107051795Y-123108690D01*
X107030227Y-123113190D01*
X107006681Y-123118105D01*
X106982656Y-123123124D01*
X106959649Y-123127932D01*
X106947970Y-123130374D01*
X106930227Y-123134084D01*
X106913280Y-123137626D01*
X106896631Y-123141101D01*
X106879783Y-123144615D01*
X106862237Y-123148270D01*
X106843499Y-123152170D01*
X106823069Y-123156418D01*
X106800451Y-123161117D01*
X106775149Y-123166371D01*
X106746663Y-123172284D01*
X106714498Y-123178958D01*
X106678156Y-123186498D01*
X106653975Y-123191514D01*
X106532700Y-123216670D01*
X106532680Y-123405900D01*
X106899363Y-123405899D01*
X106946839Y-123405916D01*
X106992111Y-123405964D01*
X107034946Y-123406042D01*
X107075109Y-123406149D01*
X107112367Y-123406283D01*
X107146486Y-123406443D01*
X107177231Y-123406628D01*
X107204368Y-123406835D01*
X107227665Y-123407064D01*
X107246886Y-123407313D01*
X107261797Y-123407581D01*
X107272166Y-123407866D01*
X107277757Y-123408166D01*
X107278458Y-123408257D01*
X107287617Y-123410320D01*
X107296016Y-123412727D01*
X107298490Y-123413608D01*
X107300919Y-123414738D01*
X107301671Y-123415848D01*
X107300204Y-123417163D01*
X107295980Y-123418905D01*
X107288459Y-123421298D01*
X107277102Y-123424564D01*
X107261660Y-123428847D01*
X107247031Y-123432872D01*
X107227960Y-123438109D01*
X107204907Y-123444433D01*
X107178328Y-123451720D01*
X107148683Y-123459843D01*
X107116431Y-123468676D01*
X107082030Y-123478095D01*
X107045939Y-123487974D01*
X107008616Y-123498188D01*
X106970519Y-123508610D01*
X106932109Y-123519116D01*
X106893842Y-123529580D01*
X106856179Y-123539877D01*
X106819576Y-123549881D01*
X106784494Y-123559467D01*
X106751390Y-123568508D01*
X106720724Y-123576881D01*
X106692953Y-123584458D01*
X106674920Y-123589376D01*
X106649115Y-123596414D01*
X106624813Y-123603051D01*
X106602448Y-123609167D01*
X106582456Y-123614643D01*
X106565272Y-123619359D01*
X106551332Y-123623195D01*
X106541071Y-123626032D01*
X106534925Y-123627751D01*
X106533262Y-123628241D01*
X106532772Y-123630776D01*
X106531794Y-123637612D01*
X106530425Y-123648004D01*
X106528761Y-123661210D01*
X106526901Y-123676483D01*
X106526273Y-123681754D01*
X106524307Y-123698309D01*
X106522472Y-123713765D01*
X106520879Y-123727187D01*
X106519638Y-123737638D01*
X106518861Y-123744182D01*
X106518765Y-123744990D01*
X106517986Y-123751496D01*
X106516764Y-123761642D01*
X106515266Y-123774027D01*
X106513706Y-123786900D01*
X106512760Y-123794759D01*
X106511276Y-123807168D01*
X106509315Y-123823629D01*
X106506935Y-123843646D01*
X106504194Y-123866724D01*
X106501152Y-123892365D01*
X106497867Y-123920074D01*
X106494399Y-123949354D01*
X106490806Y-123979709D01*
X106488375Y-124000260D01*
X106481122Y-124061598D01*
X106474441Y-124118091D01*
X106468310Y-124169939D01*
X106462704Y-124217340D01*
X106457600Y-124260495D01*
X106452974Y-124299602D01*
X106448803Y-124334863D01*
X106445063Y-124366475D01*
X106441731Y-124394639D01*
X106438782Y-124419555D01*
X106436194Y-124441421D01*
X106433942Y-124460438D01*
X106432002Y-124476804D01*
X106430353Y-124490721D01*
X106428968Y-124502386D01*
X106427826Y-124512000D01*
X106426903Y-124519763D01*
X106426174Y-124525873D01*
X106425616Y-124530531D01*
X106425206Y-124533936D01*
X106424919Y-124536287D01*
X106424773Y-124537470D01*
X106424111Y-124542890D01*
X106422911Y-124552873D01*
X106421218Y-124567041D01*
X106419076Y-124585019D01*
X106416529Y-124606429D01*
X106413622Y-124630895D01*
X106410399Y-124658041D01*
X106406906Y-124687490D01*
X106403187Y-124718865D01*
X106399285Y-124751791D01*
X106395247Y-124785889D01*
X106391115Y-124820785D01*
X106386936Y-124856102D01*
X106382753Y-124891462D01*
X106378611Y-124926490D01*
X106374554Y-124960809D01*
X106370627Y-124994042D01*
X106366875Y-125025813D01*
X106363342Y-125055745D01*
X106360073Y-125083463D01*
X106357112Y-125108589D01*
X106354504Y-125130746D01*
X106352292Y-125149559D01*
X106350523Y-125164651D01*
X106349240Y-125175645D01*
X106348488Y-125182165D01*
X106348323Y-125183655D01*
X106347151Y-125193287D01*
X106345855Y-125201713D01*
X106344926Y-125206221D01*
X106343744Y-125209841D01*
X106342560Y-125209796D01*
X106340669Y-125205618D01*
X106339546Y-125202656D01*
X106339235Y-125201347D01*
X106338941Y-125199036D01*
X106338664Y-125195581D01*
X106338402Y-125190844D01*
X106338155Y-125184683D01*
X106337923Y-125176959D01*
X106337706Y-125167531D01*
X106337502Y-125156260D01*
X106337310Y-125143005D01*
X106337132Y-125127627D01*
X106336965Y-125109985D01*
X106336809Y-125089940D01*
X106336664Y-125067350D01*
X106336529Y-125042077D01*
X106336404Y-125013979D01*
X106336288Y-124982918D01*
X106336181Y-124948753D01*
X106336081Y-124911343D01*
X106335989Y-124870549D01*
X106335903Y-124826230D01*
X106335824Y-124778248D01*
X106335750Y-124726460D01*
X106335681Y-124670729D01*
X106335617Y-124610912D01*
X106335557Y-124546871D01*
X106335500Y-124478465D01*
X106335446Y-124405554D01*
X106335394Y-124327998D01*
X106335344Y-124245657D01*
X106335295Y-124158392D01*
X106335289Y-124148850D01*
X106334727Y-123104910D01*
X106367981Y-123074430D01*
X106381578Y-123062035D01*
X106396551Y-123048499D01*
X106411410Y-123035161D01*
X106424661Y-123023366D01*
X106429401Y-123019185D01*
X106457567Y-122994420D01*
X107008838Y-122994673D01*
G36*
X106107569Y-123012800D02*
X106115810Y-123019628D01*
X106126804Y-123029023D01*
X106139556Y-123040121D01*
X106153073Y-123052056D01*
X106166164Y-123063786D01*
X106205020Y-123098894D01*
X106204980Y-124135682D01*
X106204941Y-125172470D01*
X106198811Y-125194060D01*
X106196128Y-125202937D01*
X106193999Y-125208898D01*
X106192724Y-125211156D01*
X106192496Y-125210570D01*
X106192203Y-125207549D01*
X106191397Y-125199929D01*
X106190129Y-125188158D01*
X106188448Y-125172685D01*
X106186403Y-125153958D01*
X106184045Y-125132427D01*
X106181422Y-125108540D01*
X106178585Y-125082746D01*
X106175582Y-125055495D01*
X106172464Y-125027235D01*
X106169280Y-124998415D01*
X106166080Y-124969483D01*
X106162912Y-124940890D01*
X106159828Y-124913082D01*
X106156875Y-124886511D01*
X106154105Y-124861623D01*
X106151566Y-124838869D01*
X106149308Y-124818697D01*
X106147380Y-124801556D01*
X106145833Y-124787895D01*
X106145371Y-124783850D01*
X106144732Y-124778185D01*
X106143618Y-124768206D01*
X106142108Y-124754646D01*
X106140286Y-124738240D01*
X106138233Y-124719721D01*
X106136030Y-124699823D01*
X106135070Y-124691140D01*
X106132841Y-124671030D01*
X106130736Y-124652122D01*
X106128833Y-124635122D01*
X106127212Y-124620735D01*
X106125953Y-124609669D01*
X106125135Y-124602630D01*
X106124932Y-124600970D01*
X106124510Y-124597326D01*
X106123558Y-124588915D01*
X106122109Y-124576019D01*
X106120194Y-124558920D01*
X106117845Y-124537900D01*
X106115093Y-124513241D01*
X106111969Y-124485225D01*
X106108506Y-124454133D01*
X106104733Y-124420249D01*
X106100683Y-124383853D01*
X106096387Y-124345228D01*
X106091877Y-124304656D01*
X106087184Y-124262419D01*
X106082339Y-124218798D01*
X106080495Y-124202190D01*
X106075602Y-124158124D01*
X106070850Y-124115337D01*
X106066269Y-124074109D01*
X106061892Y-124034723D01*
X106057750Y-123997461D01*
X106053874Y-123962605D01*
X106050295Y-123930436D01*
X106047045Y-123901237D01*
X106044156Y-123875289D01*
X106041658Y-123852875D01*
X106039583Y-123834277D01*
X106037962Y-123819777D01*
X106036828Y-123809656D01*
X106036210Y-123804196D01*
X106036119Y-123803410D01*
X106035591Y-123798836D01*
X106034568Y-123789769D01*
X106033111Y-123776765D01*
X106031283Y-123760380D01*
X106029145Y-123741170D01*
X106026760Y-123719692D01*
X106024189Y-123696501D01*
X106021967Y-123676424D01*
X106019330Y-123652664D01*
X106016856Y-123630511D01*
X106014601Y-123610463D01*
X106012622Y-123593020D01*
X106010975Y-123578681D01*
X106009718Y-123567944D01*
X106008908Y-123561309D01*
X106008607Y-123559256D01*
X106006170Y-123558493D01*
X105999145Y-123556342D01*
X105987808Y-123552886D01*
X105972434Y-123548209D01*
X105953298Y-123542394D01*
X105930675Y-123535525D01*
X105904840Y-123527684D01*
X105876068Y-123518956D01*
X105844634Y-123509425D01*
X105810813Y-123499172D01*
X105774880Y-123488283D01*
X105737111Y-123476840D01*
X105697779Y-123464926D01*
X105666540Y-123455466D01*
X105626155Y-123443228D01*
X105587100Y-123431376D01*
X105549652Y-123419993D01*
X105514088Y-123409166D01*
X105480683Y-123398979D01*
X105449716Y-123389517D01*
X105421463Y-123380864D01*
X105396200Y-123373106D01*
X105374205Y-123366327D01*
X105355755Y-123360613D01*
X105341126Y-123356048D01*
X105330595Y-123352716D01*
X105324439Y-123350704D01*
X105322856Y-123350108D01*
X105323601Y-123347965D01*
X105327882Y-123344797D01*
X105330476Y-123343394D01*
X105332016Y-123342703D01*
X105333884Y-123342079D01*
X105336342Y-123341519D01*
X105339655Y-123341017D01*
X105344086Y-123340568D01*
X105349896Y-123340169D01*
X105357349Y-123339814D01*
X105366708Y-123339499D01*
X105378237Y-123339219D01*
X105392197Y-123338970D01*
X105408852Y-123338747D01*
X105428465Y-123338544D01*
X105451299Y-123338359D01*
X105477617Y-123338185D01*
X105507682Y-123338019D01*
X105541757Y-123337855D01*
X105580104Y-123337689D01*
X105622988Y-123337517D01*
X105670670Y-123337333D01*
X105674160Y-123337320D01*
X106008170Y-123336050D01*
X106008852Y-123278375D01*
X106009534Y-123220701D01*
X105999962Y-123218151D01*
X105995403Y-123217013D01*
X105986495Y-123214858D01*
X105973836Y-123211828D01*
X105958024Y-123208066D01*
X105939655Y-123203713D01*
X105919327Y-123198912D01*
X105897638Y-123193804D01*
X105892600Y-123192619D01*
X105816394Y-123174707D01*
X105744990Y-123157916D01*
X105678241Y-123142213D01*
X105616002Y-123127562D01*
X105558127Y-123113928D01*
X105504470Y-123101276D01*
X105454885Y-123089571D01*
X105409228Y-123078779D01*
X105367352Y-123068865D01*
X105329111Y-123059793D01*
X105294361Y-123051529D01*
X105262955Y-123044037D01*
X105234748Y-123037283D01*
X105209594Y-123031233D01*
X105187348Y-123025850D01*
X105167864Y-123021100D01*
X105150995Y-123016948D01*
X105136598Y-123013360D01*
X105124525Y-123010300D01*
X105114631Y-123007733D01*
X105106771Y-123005625D01*
X105100799Y-123003940D01*
X105096570Y-123002644D01*
X105093937Y-123001701D01*
X105092755Y-123001078D01*
X105092693Y-123000830D01*
X105095454Y-123000470D01*
X105103013Y-123000132D01*
X105115391Y-122999813D01*
X105132610Y-122999514D01*
X105154691Y-122999236D01*
X105181654Y-122998976D01*
X105213522Y-122998737D01*
X105250316Y-122998517D01*
X105292057Y-122998316D01*
X105338767Y-122998135D01*
X105390466Y-122997972D01*
X105447177Y-122997828D01*
X105508920Y-122997703D01*
X105575717Y-122997597D01*
X105591562Y-122997576D01*
X106087831Y-122996922D01*
X106107569Y-123012800D01*
X106107569Y-123012800D01*
G37*
X106107569Y-123012800D02*
X106115810Y-123019628D01*
X106126804Y-123029023D01*
X106139556Y-123040121D01*
X106153073Y-123052056D01*
X106166164Y-123063786D01*
X106205020Y-123098894D01*
X106204980Y-124135682D01*
X106204941Y-125172470D01*
X106198811Y-125194060D01*
X106196128Y-125202937D01*
X106193999Y-125208898D01*
X106192724Y-125211156D01*
X106192496Y-125210570D01*
X106192203Y-125207549D01*
X106191397Y-125199929D01*
X106190129Y-125188158D01*
X106188448Y-125172685D01*
X106186403Y-125153958D01*
X106184045Y-125132427D01*
X106181422Y-125108540D01*
X106178585Y-125082746D01*
X106175582Y-125055495D01*
X106172464Y-125027235D01*
X106169280Y-124998415D01*
X106166080Y-124969483D01*
X106162912Y-124940890D01*
X106159828Y-124913082D01*
X106156875Y-124886511D01*
X106154105Y-124861623D01*
X106151566Y-124838869D01*
X106149308Y-124818697D01*
X106147380Y-124801556D01*
X106145833Y-124787895D01*
X106145371Y-124783850D01*
X106144732Y-124778185D01*
X106143618Y-124768206D01*
X106142108Y-124754646D01*
X106140286Y-124738240D01*
X106138233Y-124719721D01*
X106136030Y-124699823D01*
X106135070Y-124691140D01*
X106132841Y-124671030D01*
X106130736Y-124652122D01*
X106128833Y-124635122D01*
X106127212Y-124620735D01*
X106125953Y-124609669D01*
X106125135Y-124602630D01*
X106124932Y-124600970D01*
X106124510Y-124597326D01*
X106123558Y-124588915D01*
X106122109Y-124576019D01*
X106120194Y-124558920D01*
X106117845Y-124537900D01*
X106115093Y-124513241D01*
X106111969Y-124485225D01*
X106108506Y-124454133D01*
X106104733Y-124420249D01*
X106100683Y-124383853D01*
X106096387Y-124345228D01*
X106091877Y-124304656D01*
X106087184Y-124262419D01*
X106082339Y-124218798D01*
X106080495Y-124202190D01*
X106075602Y-124158124D01*
X106070850Y-124115337D01*
X106066269Y-124074109D01*
X106061892Y-124034723D01*
X106057750Y-123997461D01*
X106053874Y-123962605D01*
X106050295Y-123930436D01*
X106047045Y-123901237D01*
X106044156Y-123875289D01*
X106041658Y-123852875D01*
X106039583Y-123834277D01*
X106037962Y-123819777D01*
X106036828Y-123809656D01*
X106036210Y-123804196D01*
X106036119Y-123803410D01*
X106035591Y-123798836D01*
X106034568Y-123789769D01*
X106033111Y-123776765D01*
X106031283Y-123760380D01*
X106029145Y-123741170D01*
X106026760Y-123719692D01*
X106024189Y-123696501D01*
X106021967Y-123676424D01*
X106019330Y-123652664D01*
X106016856Y-123630511D01*
X106014601Y-123610463D01*
X106012622Y-123593020D01*
X106010975Y-123578681D01*
X106009718Y-123567944D01*
X106008908Y-123561309D01*
X106008607Y-123559256D01*
X106006170Y-123558493D01*
X105999145Y-123556342D01*
X105987808Y-123552886D01*
X105972434Y-123548209D01*
X105953298Y-123542394D01*
X105930675Y-123535525D01*
X105904840Y-123527684D01*
X105876068Y-123518956D01*
X105844634Y-123509425D01*
X105810813Y-123499172D01*
X105774880Y-123488283D01*
X105737111Y-123476840D01*
X105697779Y-123464926D01*
X105666540Y-123455466D01*
X105626155Y-123443228D01*
X105587100Y-123431376D01*
X105549652Y-123419993D01*
X105514088Y-123409166D01*
X105480683Y-123398979D01*
X105449716Y-123389517D01*
X105421463Y-123380864D01*
X105396200Y-123373106D01*
X105374205Y-123366327D01*
X105355755Y-123360613D01*
X105341126Y-123356048D01*
X105330595Y-123352716D01*
X105324439Y-123350704D01*
X105322856Y-123350108D01*
X105323601Y-123347965D01*
X105327882Y-123344797D01*
X105330476Y-123343394D01*
X105332016Y-123342703D01*
X105333884Y-123342079D01*
X105336342Y-123341519D01*
X105339655Y-123341017D01*
X105344086Y-123340568D01*
X105349896Y-123340169D01*
X105357349Y-123339814D01*
X105366708Y-123339499D01*
X105378237Y-123339219D01*
X105392197Y-123338970D01*
X105408852Y-123338747D01*
X105428465Y-123338544D01*
X105451299Y-123338359D01*
X105477617Y-123338185D01*
X105507682Y-123338019D01*
X105541757Y-123337855D01*
X105580104Y-123337689D01*
X105622988Y-123337517D01*
X105670670Y-123337333D01*
X105674160Y-123337320D01*
X106008170Y-123336050D01*
X106008852Y-123278375D01*
X106009534Y-123220701D01*
X105999962Y-123218151D01*
X105995403Y-123217013D01*
X105986495Y-123214858D01*
X105973836Y-123211828D01*
X105958024Y-123208066D01*
X105939655Y-123203713D01*
X105919327Y-123198912D01*
X105897638Y-123193804D01*
X105892600Y-123192619D01*
X105816394Y-123174707D01*
X105744990Y-123157916D01*
X105678241Y-123142213D01*
X105616002Y-123127562D01*
X105558127Y-123113928D01*
X105504470Y-123101276D01*
X105454885Y-123089571D01*
X105409228Y-123078779D01*
X105367352Y-123068865D01*
X105329111Y-123059793D01*
X105294361Y-123051529D01*
X105262955Y-123044037D01*
X105234748Y-123037283D01*
X105209594Y-123031233D01*
X105187348Y-123025850D01*
X105167864Y-123021100D01*
X105150995Y-123016948D01*
X105136598Y-123013360D01*
X105124525Y-123010300D01*
X105114631Y-123007733D01*
X105106771Y-123005625D01*
X105100799Y-123003940D01*
X105096570Y-123002644D01*
X105093937Y-123001701D01*
X105092755Y-123001078D01*
X105092693Y-123000830D01*
X105095454Y-123000470D01*
X105103013Y-123000132D01*
X105115391Y-122999813D01*
X105132610Y-122999514D01*
X105154691Y-122999236D01*
X105181654Y-122998976D01*
X105213522Y-122998737D01*
X105250316Y-122998517D01*
X105292057Y-122998316D01*
X105338767Y-122998135D01*
X105390466Y-122997972D01*
X105447177Y-122997828D01*
X105508920Y-122997703D01*
X105575717Y-122997597D01*
X105591562Y-122997576D01*
X106087831Y-122996922D01*
X106107569Y-123012800D01*
G04 #@! TO.C,REF\002A\002A*
G36*
X152543230Y-127163648D02*
X152542611Y-127250731D01*
X152090886Y-127709691D01*
X151639161Y-128168652D01*
X151638832Y-128379271D01*
X151638503Y-128589889D01*
X151363410Y-128589889D01*
X151356322Y-128643330D01*
X151353638Y-128667688D01*
X151349113Y-128713559D01*
X151342991Y-128778205D01*
X151335512Y-128858891D01*
X151326919Y-128952881D01*
X151317454Y-129057437D01*
X151307358Y-129169825D01*
X151296874Y-129287307D01*
X151286244Y-129407148D01*
X151275709Y-129526611D01*
X151265513Y-129642959D01*
X151255895Y-129753457D01*
X151247100Y-129855369D01*
X151239368Y-129945958D01*
X151232942Y-130022487D01*
X151228063Y-130082221D01*
X151224975Y-130122424D01*
X151223917Y-130140359D01*
X151223918Y-130140444D01*
X151231627Y-130154835D01*
X151254781Y-130184548D01*
X151293695Y-130229931D01*
X151348684Y-130291329D01*
X151420064Y-130369088D01*
X151508149Y-130463554D01*
X151613254Y-130575072D01*
X151735695Y-130703988D01*
X151770110Y-130740087D01*
X152315937Y-131312216D01*
X152227681Y-131400236D01*
X152156285Y-131322558D01*
X152130166Y-131294486D01*
X152089366Y-131251074D01*
X152036577Y-131195166D01*
X151974491Y-131129608D01*
X151905800Y-131057241D01*
X151833196Y-130980912D01*
X151789760Y-130935324D01*
X151708216Y-130849919D01*
X151642304Y-130781510D01*
X151590344Y-130728853D01*
X151550655Y-130690705D01*
X151521557Y-130665820D01*
X151501369Y-130652956D01*
X151488410Y-130650868D01*
X151481000Y-130658313D01*
X151477458Y-130674046D01*
X151476103Y-130696823D01*
X151475921Y-130703039D01*
X151466503Y-130745861D01*
X151443297Y-130797619D01*
X151410936Y-130850128D01*
X151374052Y-130895203D01*
X151359293Y-130909128D01*
X151283567Y-130957847D01*
X151195108Y-130985106D01*
X151116900Y-130991573D01*
X151028268Y-130979376D01*
X150946412Y-130943613D01*
X150873964Y-130885522D01*
X150860597Y-130871062D01*
X150811718Y-130815533D01*
X149966126Y-130815533D01*
X149966126Y-130991573D01*
X149739790Y-130991573D01*
X149739790Y-130909331D01*
X149736950Y-130853186D01*
X149727407Y-130814216D01*
X149715809Y-130793019D01*
X149707523Y-130777852D01*
X149700427Y-130755862D01*
X149694052Y-130723787D01*
X149687928Y-130678369D01*
X149681584Y-130616348D01*
X149674550Y-130534462D01*
X149669734Y-130473546D01*
X149647639Y-130188143D01*
X149105235Y-130737605D01*
X149007163Y-130837028D01*
X148913016Y-130932615D01*
X148824515Y-131022610D01*
X148743380Y-131105257D01*
X148671331Y-131178801D01*
X148610088Y-131241484D01*
X148561373Y-131291552D01*
X148526904Y-131327248D01*
X148508421Y-131346795D01*
X148478057Y-131377744D01*
X148452729Y-131399330D01*
X148439105Y-131406523D01*
X148421705Y-131398097D01*
X148396340Y-131377045D01*
X148387742Y-131368471D01*
X148351286Y-131330420D01*
X148551998Y-131126458D01*
X148603204Y-131074499D01*
X148669231Y-131007620D01*
X148747182Y-130928750D01*
X148834162Y-130840814D01*
X148927274Y-130746741D01*
X149023621Y-130649458D01*
X149120308Y-130551893D01*
X149189666Y-130481945D01*
X149295097Y-130375350D01*
X149383671Y-130285107D01*
X149456519Y-130209992D01*
X149514777Y-130148786D01*
X149559575Y-130100266D01*
X149581779Y-130074929D01*
X149760076Y-130074929D01*
X149782399Y-130360355D01*
X149789131Y-130444019D01*
X149795643Y-130520527D01*
X149801566Y-130585881D01*
X149806532Y-130636081D01*
X149810171Y-130667129D01*
X149811342Y-130674073D01*
X149817962Y-130702365D01*
X150767436Y-130702365D01*
X150773774Y-130623406D01*
X150792910Y-130530115D01*
X150832954Y-130447591D01*
X150891382Y-130378838D01*
X150965671Y-130326863D01*
X151049052Y-130295663D01*
X151076102Y-130281028D01*
X151089644Y-130249619D01*
X151089928Y-130248234D01*
X151091553Y-130234974D01*
X151089544Y-130221395D01*
X151081942Y-130204981D01*
X151066784Y-130183211D01*
X151042112Y-130153567D01*
X151005964Y-130113532D01*
X150956380Y-130060585D01*
X150891399Y-129992209D01*
X150887201Y-129987805D01*
X150817307Y-129914411D01*
X150743000Y-129836237D01*
X150669386Y-129758664D01*
X150601571Y-129687075D01*
X150544660Y-129626851D01*
X150531968Y-129613387D01*
X150483313Y-129562620D01*
X150440091Y-129519175D01*
X150405405Y-129486041D01*
X150382356Y-129466205D01*
X150374618Y-129461846D01*
X150363078Y-129470970D01*
X150336090Y-129496000D01*
X150295779Y-129534852D01*
X150244271Y-129585443D01*
X150183691Y-129645688D01*
X150116164Y-129713504D01*
X150060974Y-129769365D01*
X149760076Y-130074929D01*
X149581779Y-130074929D01*
X149592049Y-130063211D01*
X149613329Y-130036399D01*
X149624549Y-130018608D01*
X149627046Y-130010370D01*
X149626100Y-129992390D01*
X149623227Y-129951692D01*
X149618613Y-129890619D01*
X149612442Y-129811513D01*
X149604902Y-129716714D01*
X149596179Y-129608567D01*
X149586457Y-129489412D01*
X149575924Y-129361591D01*
X149567435Y-129259435D01*
X149519404Y-128683474D01*
X149642995Y-128683474D01*
X149643527Y-128695904D01*
X149646031Y-128730910D01*
X149650304Y-128786015D01*
X149656147Y-128858743D01*
X149663357Y-128946614D01*
X149671734Y-129047151D01*
X149681077Y-129157877D01*
X149690042Y-129263005D01*
X149700198Y-129382283D01*
X149709658Y-129494880D01*
X149718204Y-129598105D01*
X149725621Y-129689273D01*
X149731692Y-129765695D01*
X149736199Y-129824683D01*
X149738927Y-129863549D01*
X149739684Y-129878644D01*
X149740865Y-129888038D01*
X149745544Y-129891766D01*
X149755524Y-129888271D01*
X149772610Y-129875999D01*
X149798604Y-129853394D01*
X149835310Y-129818900D01*
X149884533Y-129770962D01*
X149948074Y-129708024D01*
X150015495Y-129640768D01*
X150291199Y-129365277D01*
X150289267Y-129363206D01*
X150471510Y-129363206D01*
X150479816Y-129374580D01*
X150503067Y-129401363D01*
X150538935Y-129441092D01*
X150585087Y-129491307D01*
X150639194Y-129549546D01*
X150698926Y-129613347D01*
X150761952Y-129680249D01*
X150825942Y-129747790D01*
X150888564Y-129813510D01*
X150947490Y-129874946D01*
X151000388Y-129929637D01*
X151044928Y-129975122D01*
X151078780Y-130008938D01*
X151099612Y-130028626D01*
X151105294Y-130032637D01*
X151107166Y-130019691D01*
X151111054Y-129983934D01*
X151116743Y-129927604D01*
X151124019Y-129852940D01*
X151132669Y-129762180D01*
X151142478Y-129657562D01*
X151153234Y-129541326D01*
X151164721Y-129415708D01*
X151173893Y-129314418D01*
X151185626Y-129183079D01*
X151196465Y-129059352D01*
X151206230Y-128945481D01*
X151214737Y-128843711D01*
X151221805Y-128756287D01*
X151227251Y-128685453D01*
X151230892Y-128633453D01*
X151232547Y-128602532D01*
X151232358Y-128594503D01*
X151222466Y-128601654D01*
X151197276Y-128624641D01*
X151158990Y-128661239D01*
X151109811Y-128709222D01*
X151051939Y-128766366D01*
X150987578Y-128830447D01*
X150918929Y-128899238D01*
X150848195Y-128970516D01*
X150777578Y-129042055D01*
X150709280Y-129111630D01*
X150645504Y-129177017D01*
X150588450Y-129235991D01*
X150540322Y-129286327D01*
X150503322Y-129325799D01*
X150479652Y-129352183D01*
X150471510Y-129363206D01*
X150289267Y-129363206D01*
X150188391Y-129255095D01*
X150136032Y-129199177D01*
X150077265Y-129136748D01*
X150014415Y-129070243D01*
X149949805Y-129002098D01*
X149885758Y-128934748D01*
X149824597Y-128870628D01*
X149768647Y-128812172D01*
X149720230Y-128761818D01*
X149681670Y-128721998D01*
X149655291Y-128695150D01*
X149643416Y-128683708D01*
X149642995Y-128683474D01*
X149519404Y-128683474D01*
X149507399Y-128539526D01*
X148906862Y-127907958D01*
X148306325Y-127276389D01*
X148306766Y-127188115D01*
X148307208Y-127099840D01*
X148404217Y-127203466D01*
X148458509Y-127261263D01*
X148522608Y-127329168D01*
X148594784Y-127405372D01*
X148673308Y-127488069D01*
X148756451Y-127575453D01*
X148842481Y-127665715D01*
X148929670Y-127757050D01*
X149016287Y-127847649D01*
X149100603Y-127935707D01*
X149180888Y-128019415D01*
X149255413Y-128096967D01*
X149322446Y-128166557D01*
X149380259Y-128226376D01*
X149427121Y-128274618D01*
X149461304Y-128309476D01*
X149481076Y-128329143D01*
X149485410Y-128332916D01*
X149485708Y-128319792D01*
X149484069Y-128286189D01*
X149480777Y-128236680D01*
X149476118Y-128175837D01*
X149474118Y-128151532D01*
X149459223Y-127973751D01*
X149575845Y-127973751D01*
X149581866Y-128002043D01*
X149584937Y-128024418D01*
X149589252Y-128066517D01*
X149594312Y-128122978D01*
X149599619Y-128188435D01*
X149601456Y-128212662D01*
X149606873Y-128282221D01*
X149612341Y-128346818D01*
X149617312Y-128400348D01*
X149621239Y-128436710D01*
X149622125Y-128443309D01*
X149625466Y-128456856D01*
X149632699Y-128472714D01*
X149645360Y-128492661D01*
X149664989Y-128518473D01*
X149693122Y-128551929D01*
X149731298Y-128594807D01*
X149781054Y-128648883D01*
X149843929Y-128715936D01*
X149921459Y-128797743D01*
X150000549Y-128880750D01*
X150079236Y-128962894D01*
X150152688Y-129038969D01*
X150219076Y-129107125D01*
X150276573Y-129165512D01*
X150323349Y-129212281D01*
X150357576Y-129245582D01*
X150377427Y-129263567D01*
X150381660Y-129266242D01*
X150392797Y-129256541D01*
X150418829Y-129231241D01*
X150457230Y-129192882D01*
X150505472Y-129144000D01*
X150561030Y-129087134D01*
X150601208Y-129045706D01*
X150810969Y-128828800D01*
X150192463Y-128828800D01*
X150192463Y-128589889D01*
X150946919Y-128589889D01*
X150946919Y-128696342D01*
X151085235Y-128558454D01*
X151183353Y-128460640D01*
X151374443Y-128460640D01*
X151376271Y-128476070D01*
X151385523Y-128484667D01*
X151407850Y-128488413D01*
X151448905Y-128489289D01*
X151456176Y-128489295D01*
X151537909Y-128489295D01*
X151537909Y-128269972D01*
X151456176Y-128350979D01*
X151410070Y-128400228D01*
X151382494Y-128437959D01*
X151374443Y-128460640D01*
X151183353Y-128460640D01*
X151223552Y-128420566D01*
X151223552Y-128297752D01*
X151223937Y-128241250D01*
X151225700Y-128205305D01*
X151229750Y-128185330D01*
X151236999Y-128176737D01*
X151247930Y-128174939D01*
X151260088Y-128172298D01*
X151269073Y-128161712D01*
X151275974Y-128139181D01*
X151281876Y-128100709D01*
X151287865Y-128042298D01*
X151289787Y-128020904D01*
X151293948Y-127973751D01*
X149575845Y-127973751D01*
X149459223Y-127973751D01*
X149299691Y-127973751D01*
X149299691Y-127860582D01*
X149367486Y-127860582D01*
X149407138Y-127859496D01*
X149428684Y-127854254D01*
X149431320Y-127851134D01*
X149570184Y-127851134D01*
X149577492Y-127858262D01*
X149602807Y-127860462D01*
X149619892Y-127860582D01*
X149676919Y-127860582D01*
X149889579Y-127860582D01*
X151304102Y-127860582D01*
X151256258Y-127811586D01*
X151181950Y-127751124D01*
X151089984Y-127704491D01*
X150978802Y-127671049D01*
X150868329Y-127652553D01*
X150796027Y-127643922D01*
X150796027Y-127734840D01*
X150217612Y-127734840D01*
X150217612Y-127631693D01*
X150132735Y-127640296D01*
X150073432Y-127647556D01*
X150010249Y-127657179D01*
X149972414Y-127664052D01*
X149896968Y-127679207D01*
X149893274Y-127769895D01*
X149889579Y-127860582D01*
X149676919Y-127860582D01*
X149676919Y-127810285D01*
X149675256Y-127778776D01*
X149671103Y-127761263D01*
X149669429Y-127759988D01*
X149650813Y-127768054D01*
X149623617Y-127787620D01*
X149596352Y-127811744D01*
X149577533Y-127833482D01*
X149575857Y-127836308D01*
X149570184Y-127851134D01*
X149431320Y-127851134D01*
X149439138Y-127841881D01*
X149443358Y-127828404D01*
X149460581Y-127793427D01*
X149493662Y-127751379D01*
X149536907Y-127708156D01*
X149584626Y-127669654D01*
X149615970Y-127649601D01*
X149651677Y-127627651D01*
X149669981Y-127609211D01*
X149676412Y-127587468D01*
X149676906Y-127574518D01*
X149676906Y-127571375D01*
X150318206Y-127571375D01*
X150318206Y-127634246D01*
X150695433Y-127634246D01*
X150695433Y-127571375D01*
X150318206Y-127571375D01*
X149676906Y-127571375D01*
X149676919Y-127533652D01*
X149782752Y-127533652D01*
X149831445Y-127534829D01*
X149869395Y-127537965D01*
X149890492Y-127542471D01*
X149892777Y-127544295D01*
X149906159Y-127547095D01*
X149938726Y-127545948D01*
X149984884Y-127541193D01*
X150016424Y-127536803D01*
X150073612Y-127528178D01*
X150125914Y-127520391D01*
X150165218Y-127514647D01*
X150176745Y-127513015D01*
X150206863Y-127503688D01*
X150217612Y-127489072D01*
X150220880Y-127483120D01*
X150232570Y-127478578D01*
X150255512Y-127475270D01*
X150292535Y-127473015D01*
X150346468Y-127471634D01*
X150420140Y-127470950D01*
X150506820Y-127470780D01*
X150599329Y-127470877D01*
X150669706Y-127471330D01*
X150720964Y-127472390D01*
X150756120Y-127474303D01*
X150778189Y-127477319D01*
X150790185Y-127481685D01*
X150795124Y-127487649D01*
X150796027Y-127494584D01*
X150803721Y-127516595D01*
X150828921Y-127529121D01*
X150874809Y-127533588D01*
X150883064Y-127533652D01*
X150960773Y-127541668D01*
X151049033Y-127563736D01*
X151139885Y-127596884D01*
X151225370Y-127638139D01*
X151297526Y-127684531D01*
X151306872Y-127691882D01*
X151337333Y-127715798D01*
X151355372Y-127725376D01*
X151367969Y-127722280D01*
X151380900Y-127709504D01*
X151419093Y-127684478D01*
X151468798Y-127674871D01*
X151522324Y-127679867D01*
X151571978Y-127698651D01*
X151610067Y-127730406D01*
X151612825Y-127734097D01*
X151641326Y-127793375D01*
X151646628Y-127854734D01*
X151629318Y-127913227D01*
X151589980Y-127963904D01*
X151585170Y-127968089D01*
X151557240Y-127987967D01*
X151528902Y-127996721D01*
X151489063Y-127997353D01*
X151479111Y-127996792D01*
X151440132Y-127995362D01*
X151420054Y-127998639D01*
X151412785Y-128008528D01*
X151412040Y-128017761D01*
X151410516Y-128044544D01*
X151406735Y-128084825D01*
X151404018Y-128108924D01*
X151400077Y-128147201D01*
X151401716Y-128166796D01*
X151411221Y-128173958D01*
X151428151Y-128174939D01*
X151438192Y-128171701D01*
X151454390Y-128161220D01*
X151477945Y-128142348D01*
X151510057Y-128113935D01*
X151551928Y-128074835D01*
X151604757Y-128023897D01*
X151669745Y-127959973D01*
X151748091Y-127881914D01*
X151840997Y-127788572D01*
X151949663Y-127678798D01*
X152002031Y-127625752D01*
X152543849Y-127076567D01*
X152543230Y-127163648D01*
X152543230Y-127163648D01*
G37*
X152543230Y-127163648D02*
X152542611Y-127250731D01*
X152090886Y-127709691D01*
X151639161Y-128168652D01*
X151638832Y-128379271D01*
X151638503Y-128589889D01*
X151363410Y-128589889D01*
X151356322Y-128643330D01*
X151353638Y-128667688D01*
X151349113Y-128713559D01*
X151342991Y-128778205D01*
X151335512Y-128858891D01*
X151326919Y-128952881D01*
X151317454Y-129057437D01*
X151307358Y-129169825D01*
X151296874Y-129287307D01*
X151286244Y-129407148D01*
X151275709Y-129526611D01*
X151265513Y-129642959D01*
X151255895Y-129753457D01*
X151247100Y-129855369D01*
X151239368Y-129945958D01*
X151232942Y-130022487D01*
X151228063Y-130082221D01*
X151224975Y-130122424D01*
X151223917Y-130140359D01*
X151223918Y-130140444D01*
X151231627Y-130154835D01*
X151254781Y-130184548D01*
X151293695Y-130229931D01*
X151348684Y-130291329D01*
X151420064Y-130369088D01*
X151508149Y-130463554D01*
X151613254Y-130575072D01*
X151735695Y-130703988D01*
X151770110Y-130740087D01*
X152315937Y-131312216D01*
X152227681Y-131400236D01*
X152156285Y-131322558D01*
X152130166Y-131294486D01*
X152089366Y-131251074D01*
X152036577Y-131195166D01*
X151974491Y-131129608D01*
X151905800Y-131057241D01*
X151833196Y-130980912D01*
X151789760Y-130935324D01*
X151708216Y-130849919D01*
X151642304Y-130781510D01*
X151590344Y-130728853D01*
X151550655Y-130690705D01*
X151521557Y-130665820D01*
X151501369Y-130652956D01*
X151488410Y-130650868D01*
X151481000Y-130658313D01*
X151477458Y-130674046D01*
X151476103Y-130696823D01*
X151475921Y-130703039D01*
X151466503Y-130745861D01*
X151443297Y-130797619D01*
X151410936Y-130850128D01*
X151374052Y-130895203D01*
X151359293Y-130909128D01*
X151283567Y-130957847D01*
X151195108Y-130985106D01*
X151116900Y-130991573D01*
X151028268Y-130979376D01*
X150946412Y-130943613D01*
X150873964Y-130885522D01*
X150860597Y-130871062D01*
X150811718Y-130815533D01*
X149966126Y-130815533D01*
X149966126Y-130991573D01*
X149739790Y-130991573D01*
X149739790Y-130909331D01*
X149736950Y-130853186D01*
X149727407Y-130814216D01*
X149715809Y-130793019D01*
X149707523Y-130777852D01*
X149700427Y-130755862D01*
X149694052Y-130723787D01*
X149687928Y-130678369D01*
X149681584Y-130616348D01*
X149674550Y-130534462D01*
X149669734Y-130473546D01*
X149647639Y-130188143D01*
X149105235Y-130737605D01*
X149007163Y-130837028D01*
X148913016Y-130932615D01*
X148824515Y-131022610D01*
X148743380Y-131105257D01*
X148671331Y-131178801D01*
X148610088Y-131241484D01*
X148561373Y-131291552D01*
X148526904Y-131327248D01*
X148508421Y-131346795D01*
X148478057Y-131377744D01*
X148452729Y-131399330D01*
X148439105Y-131406523D01*
X148421705Y-131398097D01*
X148396340Y-131377045D01*
X148387742Y-131368471D01*
X148351286Y-131330420D01*
X148551998Y-131126458D01*
X148603204Y-131074499D01*
X148669231Y-131007620D01*
X148747182Y-130928750D01*
X148834162Y-130840814D01*
X148927274Y-130746741D01*
X149023621Y-130649458D01*
X149120308Y-130551893D01*
X149189666Y-130481945D01*
X149295097Y-130375350D01*
X149383671Y-130285107D01*
X149456519Y-130209992D01*
X149514777Y-130148786D01*
X149559575Y-130100266D01*
X149581779Y-130074929D01*
X149760076Y-130074929D01*
X149782399Y-130360355D01*
X149789131Y-130444019D01*
X149795643Y-130520527D01*
X149801566Y-130585881D01*
X149806532Y-130636081D01*
X149810171Y-130667129D01*
X149811342Y-130674073D01*
X149817962Y-130702365D01*
X150767436Y-130702365D01*
X150773774Y-130623406D01*
X150792910Y-130530115D01*
X150832954Y-130447591D01*
X150891382Y-130378838D01*
X150965671Y-130326863D01*
X151049052Y-130295663D01*
X151076102Y-130281028D01*
X151089644Y-130249619D01*
X151089928Y-130248234D01*
X151091553Y-130234974D01*
X151089544Y-130221395D01*
X151081942Y-130204981D01*
X151066784Y-130183211D01*
X151042112Y-130153567D01*
X151005964Y-130113532D01*
X150956380Y-130060585D01*
X150891399Y-129992209D01*
X150887201Y-129987805D01*
X150817307Y-129914411D01*
X150743000Y-129836237D01*
X150669386Y-129758664D01*
X150601571Y-129687075D01*
X150544660Y-129626851D01*
X150531968Y-129613387D01*
X150483313Y-129562620D01*
X150440091Y-129519175D01*
X150405405Y-129486041D01*
X150382356Y-129466205D01*
X150374618Y-129461846D01*
X150363078Y-129470970D01*
X150336090Y-129496000D01*
X150295779Y-129534852D01*
X150244271Y-129585443D01*
X150183691Y-129645688D01*
X150116164Y-129713504D01*
X150060974Y-129769365D01*
X149760076Y-130074929D01*
X149581779Y-130074929D01*
X149592049Y-130063211D01*
X149613329Y-130036399D01*
X149624549Y-130018608D01*
X149627046Y-130010370D01*
X149626100Y-129992390D01*
X149623227Y-129951692D01*
X149618613Y-129890619D01*
X149612442Y-129811513D01*
X149604902Y-129716714D01*
X149596179Y-129608567D01*
X149586457Y-129489412D01*
X149575924Y-129361591D01*
X149567435Y-129259435D01*
X149519404Y-128683474D01*
X149642995Y-128683474D01*
X149643527Y-128695904D01*
X149646031Y-128730910D01*
X149650304Y-128786015D01*
X149656147Y-128858743D01*
X149663357Y-128946614D01*
X149671734Y-129047151D01*
X149681077Y-129157877D01*
X149690042Y-129263005D01*
X149700198Y-129382283D01*
X149709658Y-129494880D01*
X149718204Y-129598105D01*
X149725621Y-129689273D01*
X149731692Y-129765695D01*
X149736199Y-129824683D01*
X149738927Y-129863549D01*
X149739684Y-129878644D01*
X149740865Y-129888038D01*
X149745544Y-129891766D01*
X149755524Y-129888271D01*
X149772610Y-129875999D01*
X149798604Y-129853394D01*
X149835310Y-129818900D01*
X149884533Y-129770962D01*
X149948074Y-129708024D01*
X150015495Y-129640768D01*
X150291199Y-129365277D01*
X150289267Y-129363206D01*
X150471510Y-129363206D01*
X150479816Y-129374580D01*
X150503067Y-129401363D01*
X150538935Y-129441092D01*
X150585087Y-129491307D01*
X150639194Y-129549546D01*
X150698926Y-129613347D01*
X150761952Y-129680249D01*
X150825942Y-129747790D01*
X150888564Y-129813510D01*
X150947490Y-129874946D01*
X151000388Y-129929637D01*
X151044928Y-129975122D01*
X151078780Y-130008938D01*
X151099612Y-130028626D01*
X151105294Y-130032637D01*
X151107166Y-130019691D01*
X151111054Y-129983934D01*
X151116743Y-129927604D01*
X151124019Y-129852940D01*
X151132669Y-129762180D01*
X151142478Y-129657562D01*
X151153234Y-129541326D01*
X151164721Y-129415708D01*
X151173893Y-129314418D01*
X151185626Y-129183079D01*
X151196465Y-129059352D01*
X151206230Y-128945481D01*
X151214737Y-128843711D01*
X151221805Y-128756287D01*
X151227251Y-128685453D01*
X151230892Y-128633453D01*
X151232547Y-128602532D01*
X151232358Y-128594503D01*
X151222466Y-128601654D01*
X151197276Y-128624641D01*
X151158990Y-128661239D01*
X151109811Y-128709222D01*
X151051939Y-128766366D01*
X150987578Y-128830447D01*
X150918929Y-128899238D01*
X150848195Y-128970516D01*
X150777578Y-129042055D01*
X150709280Y-129111630D01*
X150645504Y-129177017D01*
X150588450Y-129235991D01*
X150540322Y-129286327D01*
X150503322Y-129325799D01*
X150479652Y-129352183D01*
X150471510Y-129363206D01*
X150289267Y-129363206D01*
X150188391Y-129255095D01*
X150136032Y-129199177D01*
X150077265Y-129136748D01*
X150014415Y-129070243D01*
X149949805Y-129002098D01*
X149885758Y-128934748D01*
X149824597Y-128870628D01*
X149768647Y-128812172D01*
X149720230Y-128761818D01*
X149681670Y-128721998D01*
X149655291Y-128695150D01*
X149643416Y-128683708D01*
X149642995Y-128683474D01*
X149519404Y-128683474D01*
X149507399Y-128539526D01*
X148906862Y-127907958D01*
X148306325Y-127276389D01*
X148306766Y-127188115D01*
X148307208Y-127099840D01*
X148404217Y-127203466D01*
X148458509Y-127261263D01*
X148522608Y-127329168D01*
X148594784Y-127405372D01*
X148673308Y-127488069D01*
X148756451Y-127575453D01*
X148842481Y-127665715D01*
X148929670Y-127757050D01*
X149016287Y-127847649D01*
X149100603Y-127935707D01*
X149180888Y-128019415D01*
X149255413Y-128096967D01*
X149322446Y-128166557D01*
X149380259Y-128226376D01*
X149427121Y-128274618D01*
X149461304Y-128309476D01*
X149481076Y-128329143D01*
X149485410Y-128332916D01*
X149485708Y-128319792D01*
X149484069Y-128286189D01*
X149480777Y-128236680D01*
X149476118Y-128175837D01*
X149474118Y-128151532D01*
X149459223Y-127973751D01*
X149575845Y-127973751D01*
X149581866Y-128002043D01*
X149584937Y-128024418D01*
X149589252Y-128066517D01*
X149594312Y-128122978D01*
X149599619Y-128188435D01*
X149601456Y-128212662D01*
X149606873Y-128282221D01*
X149612341Y-128346818D01*
X149617312Y-128400348D01*
X149621239Y-128436710D01*
X149622125Y-128443309D01*
X149625466Y-128456856D01*
X149632699Y-128472714D01*
X149645360Y-128492661D01*
X149664989Y-128518473D01*
X149693122Y-128551929D01*
X149731298Y-128594807D01*
X149781054Y-128648883D01*
X149843929Y-128715936D01*
X149921459Y-128797743D01*
X150000549Y-128880750D01*
X150079236Y-128962894D01*
X150152688Y-129038969D01*
X150219076Y-129107125D01*
X150276573Y-129165512D01*
X150323349Y-129212281D01*
X150357576Y-129245582D01*
X150377427Y-129263567D01*
X150381660Y-129266242D01*
X150392797Y-129256541D01*
X150418829Y-129231241D01*
X150457230Y-129192882D01*
X150505472Y-129144000D01*
X150561030Y-129087134D01*
X150601208Y-129045706D01*
X150810969Y-128828800D01*
X150192463Y-128828800D01*
X150192463Y-128589889D01*
X150946919Y-128589889D01*
X150946919Y-128696342D01*
X151085235Y-128558454D01*
X151183353Y-128460640D01*
X151374443Y-128460640D01*
X151376271Y-128476070D01*
X151385523Y-128484667D01*
X151407850Y-128488413D01*
X151448905Y-128489289D01*
X151456176Y-128489295D01*
X151537909Y-128489295D01*
X151537909Y-128269972D01*
X151456176Y-128350979D01*
X151410070Y-128400228D01*
X151382494Y-128437959D01*
X151374443Y-128460640D01*
X151183353Y-128460640D01*
X151223552Y-128420566D01*
X151223552Y-128297752D01*
X151223937Y-128241250D01*
X151225700Y-128205305D01*
X151229750Y-128185330D01*
X151236999Y-128176737D01*
X151247930Y-128174939D01*
X151260088Y-128172298D01*
X151269073Y-128161712D01*
X151275974Y-128139181D01*
X151281876Y-128100709D01*
X151287865Y-128042298D01*
X151289787Y-128020904D01*
X151293948Y-127973751D01*
X149575845Y-127973751D01*
X149459223Y-127973751D01*
X149299691Y-127973751D01*
X149299691Y-127860582D01*
X149367486Y-127860582D01*
X149407138Y-127859496D01*
X149428684Y-127854254D01*
X149431320Y-127851134D01*
X149570184Y-127851134D01*
X149577492Y-127858262D01*
X149602807Y-127860462D01*
X149619892Y-127860582D01*
X149676919Y-127860582D01*
X149889579Y-127860582D01*
X151304102Y-127860582D01*
X151256258Y-127811586D01*
X151181950Y-127751124D01*
X151089984Y-127704491D01*
X150978802Y-127671049D01*
X150868329Y-127652553D01*
X150796027Y-127643922D01*
X150796027Y-127734840D01*
X150217612Y-127734840D01*
X150217612Y-127631693D01*
X150132735Y-127640296D01*
X150073432Y-127647556D01*
X150010249Y-127657179D01*
X149972414Y-127664052D01*
X149896968Y-127679207D01*
X149893274Y-127769895D01*
X149889579Y-127860582D01*
X149676919Y-127860582D01*
X149676919Y-127810285D01*
X149675256Y-127778776D01*
X149671103Y-127761263D01*
X149669429Y-127759988D01*
X149650813Y-127768054D01*
X149623617Y-127787620D01*
X149596352Y-127811744D01*
X149577533Y-127833482D01*
X149575857Y-127836308D01*
X149570184Y-127851134D01*
X149431320Y-127851134D01*
X149439138Y-127841881D01*
X149443358Y-127828404D01*
X149460581Y-127793427D01*
X149493662Y-127751379D01*
X149536907Y-127708156D01*
X149584626Y-127669654D01*
X149615970Y-127649601D01*
X149651677Y-127627651D01*
X149669981Y-127609211D01*
X149676412Y-127587468D01*
X149676906Y-127574518D01*
X149676906Y-127571375D01*
X150318206Y-127571375D01*
X150318206Y-127634246D01*
X150695433Y-127634246D01*
X150695433Y-127571375D01*
X150318206Y-127571375D01*
X149676906Y-127571375D01*
X149676919Y-127533652D01*
X149782752Y-127533652D01*
X149831445Y-127534829D01*
X149869395Y-127537965D01*
X149890492Y-127542471D01*
X149892777Y-127544295D01*
X149906159Y-127547095D01*
X149938726Y-127545948D01*
X149984884Y-127541193D01*
X150016424Y-127536803D01*
X150073612Y-127528178D01*
X150125914Y-127520391D01*
X150165218Y-127514647D01*
X150176745Y-127513015D01*
X150206863Y-127503688D01*
X150217612Y-127489072D01*
X150220880Y-127483120D01*
X150232570Y-127478578D01*
X150255512Y-127475270D01*
X150292535Y-127473015D01*
X150346468Y-127471634D01*
X150420140Y-127470950D01*
X150506820Y-127470780D01*
X150599329Y-127470877D01*
X150669706Y-127471330D01*
X150720964Y-127472390D01*
X150756120Y-127474303D01*
X150778189Y-127477319D01*
X150790185Y-127481685D01*
X150795124Y-127487649D01*
X150796027Y-127494584D01*
X150803721Y-127516595D01*
X150828921Y-127529121D01*
X150874809Y-127533588D01*
X150883064Y-127533652D01*
X150960773Y-127541668D01*
X151049033Y-127563736D01*
X151139885Y-127596884D01*
X151225370Y-127638139D01*
X151297526Y-127684531D01*
X151306872Y-127691882D01*
X151337333Y-127715798D01*
X151355372Y-127725376D01*
X151367969Y-127722280D01*
X151380900Y-127709504D01*
X151419093Y-127684478D01*
X151468798Y-127674871D01*
X151522324Y-127679867D01*
X151571978Y-127698651D01*
X151610067Y-127730406D01*
X151612825Y-127734097D01*
X151641326Y-127793375D01*
X151646628Y-127854734D01*
X151629318Y-127913227D01*
X151589980Y-127963904D01*
X151585170Y-127968089D01*
X151557240Y-127987967D01*
X151528902Y-127996721D01*
X151489063Y-127997353D01*
X151479111Y-127996792D01*
X151440132Y-127995362D01*
X151420054Y-127998639D01*
X151412785Y-128008528D01*
X151412040Y-128017761D01*
X151410516Y-128044544D01*
X151406735Y-128084825D01*
X151404018Y-128108924D01*
X151400077Y-128147201D01*
X151401716Y-128166796D01*
X151411221Y-128173958D01*
X151428151Y-128174939D01*
X151438192Y-128171701D01*
X151454390Y-128161220D01*
X151477945Y-128142348D01*
X151510057Y-128113935D01*
X151551928Y-128074835D01*
X151604757Y-128023897D01*
X151669745Y-127959973D01*
X151748091Y-127881914D01*
X151840997Y-127788572D01*
X151949663Y-127678798D01*
X152002031Y-127625752D01*
X152543849Y-127076567D01*
X152543230Y-127163648D01*
G36*
X152166622Y-133116622D02*
X148645829Y-133116622D01*
X148645829Y-132248998D01*
X152166622Y-132248998D01*
X152166622Y-133116622D01*
X152166622Y-133116622D01*
G37*
X152166622Y-133116622D02*
X148645829Y-133116622D01*
X148645829Y-132248998D01*
X152166622Y-132248998D01*
X152166622Y-133116622D01*
G04 #@! TD*
G04 #@! TO.C,U1*
D11*
X140902743Y-81814932D02*
X140902743Y-83029218D01*
X140974172Y-83172075D01*
X141045601Y-83243503D01*
X141188458Y-83314932D01*
X141474172Y-83314932D01*
X141617029Y-83243503D01*
X141688458Y-83172075D01*
X141759886Y-83029218D01*
X141759886Y-81814932D01*
X143259886Y-83314932D02*
X142402743Y-83314932D01*
X142831315Y-83314932D02*
X142831315Y-81814932D01*
X142688458Y-82029218D01*
X142545601Y-82172075D01*
X142402743Y-82243503D01*
X137688458Y-73312412D02*
X136974172Y-73312412D01*
X136974172Y-71812412D01*
X139045601Y-73169555D02*
X138974172Y-73240983D01*
X138759886Y-73312412D01*
X138617029Y-73312412D01*
X138402743Y-73240983D01*
X138259886Y-73098126D01*
X138188458Y-72955269D01*
X138117029Y-72669555D01*
X138117029Y-72455269D01*
X138188458Y-72169555D01*
X138259886Y-72026698D01*
X138402743Y-71883841D01*
X138617029Y-71812412D01*
X138759886Y-71812412D01*
X138974172Y-71883841D01*
X139045601Y-71955269D01*
X139688458Y-73312412D02*
X139688458Y-71812412D01*
X140045601Y-71812412D01*
X140259886Y-71883841D01*
X140402743Y-72026698D01*
X140474172Y-72169555D01*
X140545601Y-72455269D01*
X140545601Y-72669555D01*
X140474172Y-72955269D01*
X140402743Y-73098126D01*
X140259886Y-73240983D01*
X140045601Y-73312412D01*
X139688458Y-73312412D01*
X142259886Y-71955269D02*
X142331315Y-71883841D01*
X142474172Y-71812412D01*
X142831315Y-71812412D01*
X142974172Y-71883841D01*
X143045601Y-71955269D01*
X143117029Y-72098126D01*
X143117029Y-72240983D01*
X143045601Y-72455269D01*
X142188458Y-73312412D01*
X143117029Y-73312412D01*
X144045601Y-71812412D02*
X144188458Y-71812412D01*
X144331315Y-71883841D01*
X144402743Y-71955269D01*
X144474172Y-72098126D01*
X144545601Y-72383841D01*
X144545601Y-72740983D01*
X144474172Y-73026698D01*
X144402743Y-73169555D01*
X144331315Y-73240983D01*
X144188458Y-73312412D01*
X144045601Y-73312412D01*
X143902743Y-73240983D01*
X143831315Y-73169555D01*
X143759886Y-73026698D01*
X143688458Y-72740983D01*
X143688458Y-72383841D01*
X143759886Y-72098126D01*
X143831315Y-71955269D01*
X143902743Y-71883841D01*
X144045601Y-71812412D01*
X145045601Y-73312412D02*
X145831315Y-72312412D01*
X145045601Y-72312412D02*
X145831315Y-73312412D01*
X147045601Y-72312412D02*
X147045601Y-73312412D01*
X146688458Y-71740983D02*
X146331315Y-72812412D01*
X147259886Y-72812412D01*
G04 #@! TO.C,S-DTH1*
D10*
X135949085Y-127303161D02*
X136091942Y-127350780D01*
X136330038Y-127350780D01*
X136425276Y-127303161D01*
X136472895Y-127255542D01*
X136520514Y-127160304D01*
X136520514Y-127065066D01*
X136472895Y-126969828D01*
X136425276Y-126922209D01*
X136330038Y-126874590D01*
X136139561Y-126826971D01*
X136044323Y-126779352D01*
X135996704Y-126731733D01*
X135949085Y-126636495D01*
X135949085Y-126541257D01*
X135996704Y-126446019D01*
X136044323Y-126398400D01*
X136139561Y-126350780D01*
X136377657Y-126350780D01*
X136520514Y-126398400D01*
X136949085Y-126969828D02*
X137710990Y-126969828D01*
X138187180Y-127350780D02*
X138187180Y-126350780D01*
X138425276Y-126350780D01*
X138568133Y-126398400D01*
X138663371Y-126493638D01*
X138710990Y-126588876D01*
X138758609Y-126779352D01*
X138758609Y-126922209D01*
X138710990Y-127112685D01*
X138663371Y-127207923D01*
X138568133Y-127303161D01*
X138425276Y-127350780D01*
X138187180Y-127350780D01*
X139044323Y-126350780D02*
X139615752Y-126350780D01*
X139330038Y-127350780D02*
X139330038Y-126350780D01*
X139949085Y-127350780D02*
X139949085Y-126350780D01*
X139949085Y-126826971D02*
X140520514Y-126826971D01*
X140520514Y-127350780D02*
X140520514Y-126350780D01*
X141520514Y-127350780D02*
X140949085Y-127350780D01*
X141234800Y-127350780D02*
X141234800Y-126350780D01*
X141139561Y-126493638D01*
X141044323Y-126588876D01*
X140949085Y-126636495D01*
G04 #@! TO.C,A1*
X154547866Y-117960685D02*
X154547866Y-117484495D01*
X154833580Y-118055923D02*
X153833580Y-117722590D01*
X154833580Y-117389257D01*
X154833580Y-116532114D02*
X154833580Y-117103542D01*
X154833580Y-116817828D02*
X153833580Y-116817828D01*
X153976438Y-116913066D01*
X154071676Y-117008304D01*
X154119295Y-117103542D01*
G04 #@! TO.C,D1*
X109904304Y-126461980D02*
X109904304Y-125461980D01*
X110142400Y-125461980D01*
X110285257Y-125509600D01*
X110380495Y-125604838D01*
X110428114Y-125700076D01*
X110475733Y-125890552D01*
X110475733Y-126033409D01*
X110428114Y-126223885D01*
X110380495Y-126319123D01*
X110285257Y-126414361D01*
X110142400Y-126461980D01*
X109904304Y-126461980D01*
X111428114Y-126461980D02*
X110856685Y-126461980D01*
X111142400Y-126461980D02*
X111142400Y-125461980D01*
X111047161Y-125604838D01*
X110951923Y-125700076D01*
X110856685Y-125747695D01*
G04 #@! TO.C,R1*
X106767333Y-118588780D02*
X106434000Y-118112590D01*
X106195904Y-118588780D02*
X106195904Y-117588780D01*
X106576857Y-117588780D01*
X106672095Y-117636400D01*
X106719714Y-117684019D01*
X106767333Y-117779257D01*
X106767333Y-117922114D01*
X106719714Y-118017352D01*
X106672095Y-118064971D01*
X106576857Y-118112590D01*
X106195904Y-118112590D01*
X107719714Y-118588780D02*
X107148285Y-118588780D01*
X107434000Y-118588780D02*
X107434000Y-117588780D01*
X107338761Y-117731638D01*
X107243523Y-117826876D01*
X107148285Y-117874495D01*
G04 #@! TO.C,R2*
X110526533Y-118588780D02*
X110193200Y-118112590D01*
X109955104Y-118588780D02*
X109955104Y-117588780D01*
X110336057Y-117588780D01*
X110431295Y-117636400D01*
X110478914Y-117684019D01*
X110526533Y-117779257D01*
X110526533Y-117922114D01*
X110478914Y-118017352D01*
X110431295Y-118064971D01*
X110336057Y-118112590D01*
X109955104Y-118112590D01*
X110907485Y-117684019D02*
X110955104Y-117636400D01*
X111050342Y-117588780D01*
X111288438Y-117588780D01*
X111383676Y-117636400D01*
X111431295Y-117684019D01*
X111478914Y-117779257D01*
X111478914Y-117874495D01*
X111431295Y-118017352D01*
X110859866Y-118588780D01*
X111478914Y-118588780D01*
G04 #@! TO.C,RTC1*
X154857580Y-132532380D02*
X154524247Y-132056190D01*
X154286152Y-132532380D02*
X154286152Y-131532380D01*
X154667104Y-131532380D01*
X154762342Y-131580000D01*
X154809961Y-131627619D01*
X154857580Y-131722857D01*
X154857580Y-131865714D01*
X154809961Y-131960952D01*
X154762342Y-132008571D01*
X154667104Y-132056190D01*
X154286152Y-132056190D01*
X155143295Y-131532380D02*
X155714723Y-131532380D01*
X155429009Y-132532380D02*
X155429009Y-131532380D01*
X156619485Y-132437142D02*
X156571866Y-132484761D01*
X156429009Y-132532380D01*
X156333771Y-132532380D01*
X156190914Y-132484761D01*
X156095676Y-132389523D01*
X156048057Y-132294285D01*
X156000438Y-132103809D01*
X156000438Y-131960952D01*
X156048057Y-131770476D01*
X156095676Y-131675238D01*
X156190914Y-131580000D01*
X156333771Y-131532380D01*
X156429009Y-131532380D01*
X156571866Y-131580000D01*
X156619485Y-131627619D01*
X157571866Y-132532380D02*
X157000438Y-132532380D01*
X157286152Y-132532380D02*
X157286152Y-131532380D01*
X157190914Y-131675238D01*
X157095676Y-131770476D01*
X157000438Y-131818095D01*
G04 #@! TO.C,SD1*
X171559695Y-132433961D02*
X171702552Y-132481580D01*
X171940647Y-132481580D01*
X172035885Y-132433961D01*
X172083504Y-132386342D01*
X172131123Y-132291104D01*
X172131123Y-132195866D01*
X172083504Y-132100628D01*
X172035885Y-132053009D01*
X171940647Y-132005390D01*
X171750171Y-131957771D01*
X171654933Y-131910152D01*
X171607314Y-131862533D01*
X171559695Y-131767295D01*
X171559695Y-131672057D01*
X171607314Y-131576819D01*
X171654933Y-131529200D01*
X171750171Y-131481580D01*
X171988266Y-131481580D01*
X172131123Y-131529200D01*
X172559695Y-132481580D02*
X172559695Y-131481580D01*
X172797790Y-131481580D01*
X172940647Y-131529200D01*
X173035885Y-131624438D01*
X173083504Y-131719676D01*
X173131123Y-131910152D01*
X173131123Y-132053009D01*
X173083504Y-132243485D01*
X173035885Y-132338723D01*
X172940647Y-132433961D01*
X172797790Y-132481580D01*
X172559695Y-132481580D01*
X174083504Y-132481580D02*
X173512076Y-132481580D01*
X173797790Y-132481580D02*
X173797790Y-131481580D01*
X173702552Y-131624438D01*
X173607314Y-131719676D01*
X173512076Y-131767295D01*
G04 #@! TO.C,Sensor1*
X118136076Y-126953561D02*
X118278933Y-127001180D01*
X118517028Y-127001180D01*
X118612266Y-126953561D01*
X118659885Y-126905942D01*
X118707504Y-126810704D01*
X118707504Y-126715466D01*
X118659885Y-126620228D01*
X118612266Y-126572609D01*
X118517028Y-126524990D01*
X118326552Y-126477371D01*
X118231314Y-126429752D01*
X118183695Y-126382133D01*
X118136076Y-126286895D01*
X118136076Y-126191657D01*
X118183695Y-126096419D01*
X118231314Y-126048800D01*
X118326552Y-126001180D01*
X118564647Y-126001180D01*
X118707504Y-126048800D01*
X119517028Y-126953561D02*
X119421790Y-127001180D01*
X119231314Y-127001180D01*
X119136076Y-126953561D01*
X119088457Y-126858323D01*
X119088457Y-126477371D01*
X119136076Y-126382133D01*
X119231314Y-126334514D01*
X119421790Y-126334514D01*
X119517028Y-126382133D01*
X119564647Y-126477371D01*
X119564647Y-126572609D01*
X119088457Y-126667847D01*
X119993219Y-126334514D02*
X119993219Y-127001180D01*
X119993219Y-126429752D02*
X120040838Y-126382133D01*
X120136076Y-126334514D01*
X120278933Y-126334514D01*
X120374171Y-126382133D01*
X120421790Y-126477371D01*
X120421790Y-127001180D01*
X120850361Y-126953561D02*
X120945600Y-127001180D01*
X121136076Y-127001180D01*
X121231314Y-126953561D01*
X121278933Y-126858323D01*
X121278933Y-126810704D01*
X121231314Y-126715466D01*
X121136076Y-126667847D01*
X120993219Y-126667847D01*
X120897980Y-126620228D01*
X120850361Y-126524990D01*
X120850361Y-126477371D01*
X120897980Y-126382133D01*
X120993219Y-126334514D01*
X121136076Y-126334514D01*
X121231314Y-126382133D01*
X121850361Y-127001180D02*
X121755123Y-126953561D01*
X121707504Y-126905942D01*
X121659885Y-126810704D01*
X121659885Y-126524990D01*
X121707504Y-126429752D01*
X121755123Y-126382133D01*
X121850361Y-126334514D01*
X121993219Y-126334514D01*
X122088457Y-126382133D01*
X122136076Y-126429752D01*
X122183695Y-126524990D01*
X122183695Y-126810704D01*
X122136076Y-126905942D01*
X122088457Y-126953561D01*
X121993219Y-127001180D01*
X121850361Y-127001180D01*
X122612266Y-127001180D02*
X122612266Y-126334514D01*
X122612266Y-126524990D02*
X122659885Y-126429752D01*
X122707504Y-126382133D01*
X122802742Y-126334514D01*
X122897980Y-126334514D01*
X123755123Y-127001180D02*
X123183695Y-127001180D01*
X123469409Y-127001180D02*
X123469409Y-126001180D01*
X123374171Y-126144038D01*
X123278933Y-126239276D01*
X123183695Y-126286895D01*
G04 #@! TO.C,C1*
X130490933Y-109168342D02*
X130443314Y-109215961D01*
X130300457Y-109263580D01*
X130205219Y-109263580D01*
X130062361Y-109215961D01*
X129967123Y-109120723D01*
X129919504Y-109025485D01*
X129871885Y-108835009D01*
X129871885Y-108692152D01*
X129919504Y-108501676D01*
X129967123Y-108406438D01*
X130062361Y-108311200D01*
X130205219Y-108263580D01*
X130300457Y-108263580D01*
X130443314Y-108311200D01*
X130490933Y-108358819D01*
X131443314Y-109263580D02*
X130871885Y-109263580D01*
X131157600Y-109263580D02*
X131157600Y-108263580D01*
X131062361Y-108406438D01*
X130967123Y-108501676D01*
X130871885Y-108549295D01*
G04 #@! TO.C,C2*
X124090133Y-109272342D02*
X124042514Y-109319961D01*
X123899657Y-109367580D01*
X123804419Y-109367580D01*
X123661561Y-109319961D01*
X123566323Y-109224723D01*
X123518704Y-109129485D01*
X123471085Y-108939009D01*
X123471085Y-108796152D01*
X123518704Y-108605676D01*
X123566323Y-108510438D01*
X123661561Y-108415200D01*
X123804419Y-108367580D01*
X123899657Y-108367580D01*
X124042514Y-108415200D01*
X124090133Y-108462819D01*
X124471085Y-108462819D02*
X124518704Y-108415200D01*
X124613942Y-108367580D01*
X124852038Y-108367580D01*
X124947276Y-108415200D01*
X124994895Y-108462819D01*
X125042514Y-108558057D01*
X125042514Y-108653295D01*
X124994895Y-108796152D01*
X124423466Y-109367580D01*
X125042514Y-109367580D01*
G04 #@! TO.C,D2*
X116101904Y-123794780D02*
X116101904Y-122794780D01*
X116340000Y-122794780D01*
X116482857Y-122842400D01*
X116578095Y-122937638D01*
X116625714Y-123032876D01*
X116673333Y-123223352D01*
X116673333Y-123366209D01*
X116625714Y-123556685D01*
X116578095Y-123651923D01*
X116482857Y-123747161D01*
X116340000Y-123794780D01*
X116101904Y-123794780D01*
X117054285Y-122890019D02*
X117101904Y-122842400D01*
X117197142Y-122794780D01*
X117435238Y-122794780D01*
X117530476Y-122842400D01*
X117578095Y-122890019D01*
X117625714Y-122985257D01*
X117625714Y-123080495D01*
X117578095Y-123223352D01*
X117006666Y-123794780D01*
X117625714Y-123794780D01*
G04 #@! TO.C, *
D12*
X105983314Y-132363028D02*
X106491314Y-133887028D01*
X106999314Y-132363028D01*
X108668457Y-133887028D02*
X108668457Y-132871028D01*
X108668457Y-132363028D02*
X108595885Y-132435600D01*
X108668457Y-132508171D01*
X108741028Y-132435600D01*
X108668457Y-132363028D01*
X108668457Y-132508171D01*
X109394171Y-132871028D02*
X109394171Y-133887028D01*
X109394171Y-133016171D02*
X109466742Y-132943600D01*
X109611885Y-132871028D01*
X109829600Y-132871028D01*
X109974742Y-132943600D01*
X110047314Y-133088742D01*
X110047314Y-133887028D01*
X110555314Y-132871028D02*
X111135885Y-132871028D01*
X110773028Y-132363028D02*
X110773028Y-133669314D01*
X110845600Y-133814457D01*
X110990742Y-133887028D01*
X111135885Y-133887028D01*
G04 #@! TO.C,L1*
D10*
X113320533Y-109011980D02*
X112844342Y-109011980D01*
X112844342Y-108011980D01*
X114177676Y-109011980D02*
X113606247Y-109011980D01*
X113891961Y-109011980D02*
X113891961Y-108011980D01*
X113796723Y-108154838D01*
X113701485Y-108250076D01*
X113606247Y-108297695D01*
G04 #@! TO.C,R3*
X114285733Y-118588780D02*
X113952400Y-118112590D01*
X113714304Y-118588780D02*
X113714304Y-117588780D01*
X114095257Y-117588780D01*
X114190495Y-117636400D01*
X114238114Y-117684019D01*
X114285733Y-117779257D01*
X114285733Y-117922114D01*
X114238114Y-118017352D01*
X114190495Y-118064971D01*
X114095257Y-118112590D01*
X113714304Y-118112590D01*
X114619066Y-117588780D02*
X115238114Y-117588780D01*
X114904780Y-117969733D01*
X115047638Y-117969733D01*
X115142876Y-118017352D01*
X115190495Y-118064971D01*
X115238114Y-118160209D01*
X115238114Y-118398304D01*
X115190495Y-118493542D01*
X115142876Y-118541161D01*
X115047638Y-118588780D01*
X114761923Y-118588780D01*
X114666685Y-118541161D01*
X114619066Y-118493542D01*
G04 #@! TO.C,R4*
X118044933Y-118588780D02*
X117711600Y-118112590D01*
X117473504Y-118588780D02*
X117473504Y-117588780D01*
X117854457Y-117588780D01*
X117949695Y-117636400D01*
X117997314Y-117684019D01*
X118044933Y-117779257D01*
X118044933Y-117922114D01*
X117997314Y-118017352D01*
X117949695Y-118064971D01*
X117854457Y-118112590D01*
X117473504Y-118112590D01*
X118902076Y-117922114D02*
X118902076Y-118588780D01*
X118663980Y-117541161D02*
X118425885Y-118255447D01*
X119044933Y-118255447D01*
G04 #@! TO.C,TP1*
X105222495Y-128417180D02*
X105793923Y-128417180D01*
X105508209Y-129417180D02*
X105508209Y-128417180D01*
X106127257Y-129417180D02*
X106127257Y-128417180D01*
X106508209Y-128417180D01*
X106603447Y-128464800D01*
X106651066Y-128512419D01*
X106698685Y-128607657D01*
X106698685Y-128750514D01*
X106651066Y-128845752D01*
X106603447Y-128893371D01*
X106508209Y-128940990D01*
X106127257Y-128940990D01*
X107651066Y-129417180D02*
X107079638Y-129417180D01*
X107365352Y-129417180D02*
X107365352Y-128417180D01*
X107270114Y-128560038D01*
X107174876Y-128655276D01*
X107079638Y-128702895D01*
G04 #@! TO.C,U2*
X105348019Y-116535295D02*
X104538495Y-116535295D01*
X104443257Y-116582914D01*
X104395638Y-116630533D01*
X104348019Y-116725771D01*
X104348019Y-116916247D01*
X104395638Y-117011485D01*
X104443257Y-117059104D01*
X104538495Y-117106723D01*
X105348019Y-117106723D01*
X105252780Y-117535295D02*
X105300400Y-117582914D01*
X105348019Y-117678152D01*
X105348019Y-117916247D01*
X105300400Y-118011485D01*
X105252780Y-118059104D01*
X105157542Y-118106723D01*
X105062304Y-118106723D01*
X104919447Y-118059104D01*
X104348019Y-117487676D01*
X104348019Y-118106723D01*
G04 #@! TO.C,R5*
X121804133Y-118588780D02*
X121470800Y-118112590D01*
X121232704Y-118588780D02*
X121232704Y-117588780D01*
X121613657Y-117588780D01*
X121708895Y-117636400D01*
X121756514Y-117684019D01*
X121804133Y-117779257D01*
X121804133Y-117922114D01*
X121756514Y-118017352D01*
X121708895Y-118064971D01*
X121613657Y-118112590D01*
X121232704Y-118112590D01*
X122708895Y-117588780D02*
X122232704Y-117588780D01*
X122185085Y-118064971D01*
X122232704Y-118017352D01*
X122327942Y-117969733D01*
X122566038Y-117969733D01*
X122661276Y-118017352D01*
X122708895Y-118064971D01*
X122756514Y-118160209D01*
X122756514Y-118398304D01*
X122708895Y-118493542D01*
X122661276Y-118541161D01*
X122566038Y-118588780D01*
X122327942Y-118588780D01*
X122232704Y-118541161D01*
X122185085Y-118493542D01*
G04 #@! TO.C,RV1*
X142305161Y-109723180D02*
X141971828Y-109246990D01*
X141733733Y-109723180D02*
X141733733Y-108723180D01*
X142114685Y-108723180D01*
X142209923Y-108770800D01*
X142257542Y-108818419D01*
X142305161Y-108913657D01*
X142305161Y-109056514D01*
X142257542Y-109151752D01*
X142209923Y-109199371D01*
X142114685Y-109246990D01*
X141733733Y-109246990D01*
X142590876Y-108723180D02*
X142924209Y-109723180D01*
X143257542Y-108723180D01*
X144114685Y-109723180D02*
X143543257Y-109723180D01*
X143828971Y-109723180D02*
X143828971Y-108723180D01*
X143733733Y-108866038D01*
X143638495Y-108961276D01*
X143543257Y-109008895D01*
G04 #@! TD*
M02*
