G04 #@! TF.GenerationSoftware,KiCad,Pcbnew,(5.0.0)*
G04 #@! TF.CreationDate,2019-03-04T17:15:25-05:00*
G04 #@! TF.ProjectId,nivel y temperatura,6E6976656C20792074656D7065726174,V 1.0*
G04 #@! TF.SameCoordinates,Original*
G04 #@! TF.FileFunction,Paste,Top*
G04 #@! TF.FilePolarity,Positive*
%FSLAX46Y46*%
G04 Gerber Fmt 4.6, Leading zero omitted, Abs format (unit mm)*
G04 Created by KiCad (PCBNEW (5.0.0)) date 03/04/19 17:15:25*
%MOMM*%
%LPD*%
G01*
G04 APERTURE LIST*
%ADD10C,0.150000*%
%ADD11C,0.100000*%
%ADD12C,1.300000*%
%ADD13C,1.150000*%
%ADD14R,4.000000X2.500000*%
%ADD15R,3.500000X2.500000*%
%ADD16R,2.500000X1.800000*%
%ADD17R,1.500000X2.200000*%
%ADD18C,1.400000*%
%ADD19R,1.100000X4.600000*%
%ADD20R,5.250000X4.550000*%
G04 APERTURE END LIST*
D10*
X92202000Y-45974000D02*
X92202000Y-134974000D01*
X191770000Y-45974000D02*
X92202000Y-45974000D01*
X191900000Y-135000000D02*
X191770000Y-45970000D01*
X92202000Y-135000000D02*
X191900000Y-135000000D01*
D11*
G04 #@! TO.C,D1*
G36*
X110116904Y-126960804D02*
X110141173Y-126964404D01*
X110164971Y-126970365D01*
X110188071Y-126978630D01*
X110210249Y-126989120D01*
X110231293Y-127001733D01*
X110250998Y-127016347D01*
X110269177Y-127032823D01*
X110285653Y-127051002D01*
X110300267Y-127070707D01*
X110312880Y-127091751D01*
X110323370Y-127113929D01*
X110331635Y-127137029D01*
X110337596Y-127160827D01*
X110341196Y-127185096D01*
X110342400Y-127209600D01*
X110342400Y-128009600D01*
X110341196Y-128034104D01*
X110337596Y-128058373D01*
X110331635Y-128082171D01*
X110323370Y-128105271D01*
X110312880Y-128127449D01*
X110300267Y-128148493D01*
X110285653Y-128168198D01*
X110269177Y-128186377D01*
X110250998Y-128202853D01*
X110231293Y-128217467D01*
X110210249Y-128230080D01*
X110188071Y-128240570D01*
X110164971Y-128248835D01*
X110141173Y-128254796D01*
X110116904Y-128258396D01*
X110092400Y-128259600D01*
X109267400Y-128259600D01*
X109242896Y-128258396D01*
X109218627Y-128254796D01*
X109194829Y-128248835D01*
X109171729Y-128240570D01*
X109149551Y-128230080D01*
X109128507Y-128217467D01*
X109108802Y-128202853D01*
X109090623Y-128186377D01*
X109074147Y-128168198D01*
X109059533Y-128148493D01*
X109046920Y-128127449D01*
X109036430Y-128105271D01*
X109028165Y-128082171D01*
X109022204Y-128058373D01*
X109018604Y-128034104D01*
X109017400Y-128009600D01*
X109017400Y-127209600D01*
X109018604Y-127185096D01*
X109022204Y-127160827D01*
X109028165Y-127137029D01*
X109036430Y-127113929D01*
X109046920Y-127091751D01*
X109059533Y-127070707D01*
X109074147Y-127051002D01*
X109090623Y-127032823D01*
X109108802Y-127016347D01*
X109128507Y-127001733D01*
X109149551Y-126989120D01*
X109171729Y-126978630D01*
X109194829Y-126970365D01*
X109218627Y-126964404D01*
X109242896Y-126960804D01*
X109267400Y-126959600D01*
X110092400Y-126959600D01*
X110116904Y-126960804D01*
X110116904Y-126960804D01*
G37*
D12*
X109679900Y-127609600D03*
D11*
G36*
X112041904Y-126960804D02*
X112066173Y-126964404D01*
X112089971Y-126970365D01*
X112113071Y-126978630D01*
X112135249Y-126989120D01*
X112156293Y-127001733D01*
X112175998Y-127016347D01*
X112194177Y-127032823D01*
X112210653Y-127051002D01*
X112225267Y-127070707D01*
X112237880Y-127091751D01*
X112248370Y-127113929D01*
X112256635Y-127137029D01*
X112262596Y-127160827D01*
X112266196Y-127185096D01*
X112267400Y-127209600D01*
X112267400Y-128009600D01*
X112266196Y-128034104D01*
X112262596Y-128058373D01*
X112256635Y-128082171D01*
X112248370Y-128105271D01*
X112237880Y-128127449D01*
X112225267Y-128148493D01*
X112210653Y-128168198D01*
X112194177Y-128186377D01*
X112175998Y-128202853D01*
X112156293Y-128217467D01*
X112135249Y-128230080D01*
X112113071Y-128240570D01*
X112089971Y-128248835D01*
X112066173Y-128254796D01*
X112041904Y-128258396D01*
X112017400Y-128259600D01*
X111192400Y-128259600D01*
X111167896Y-128258396D01*
X111143627Y-128254796D01*
X111119829Y-128248835D01*
X111096729Y-128240570D01*
X111074551Y-128230080D01*
X111053507Y-128217467D01*
X111033802Y-128202853D01*
X111015623Y-128186377D01*
X110999147Y-128168198D01*
X110984533Y-128148493D01*
X110971920Y-128127449D01*
X110961430Y-128105271D01*
X110953165Y-128082171D01*
X110947204Y-128058373D01*
X110943604Y-128034104D01*
X110942400Y-128009600D01*
X110942400Y-127209600D01*
X110943604Y-127185096D01*
X110947204Y-127160827D01*
X110953165Y-127137029D01*
X110961430Y-127113929D01*
X110971920Y-127091751D01*
X110984533Y-127070707D01*
X110999147Y-127051002D01*
X111015623Y-127032823D01*
X111033802Y-127016347D01*
X111053507Y-127001733D01*
X111074551Y-126989120D01*
X111096729Y-126978630D01*
X111119829Y-126970365D01*
X111143627Y-126964404D01*
X111167896Y-126960804D01*
X111192400Y-126959600D01*
X112017400Y-126959600D01*
X112041904Y-126960804D01*
X112041904Y-126960804D01*
G37*
D12*
X111604900Y-127609600D03*
G04 #@! TD*
D11*
G04 #@! TO.C,R1*
G36*
X106258505Y-119087604D02*
X106282773Y-119091204D01*
X106306572Y-119097165D01*
X106329671Y-119105430D01*
X106351850Y-119115920D01*
X106372893Y-119128532D01*
X106392599Y-119143147D01*
X106410777Y-119159623D01*
X106427253Y-119177801D01*
X106441868Y-119197507D01*
X106454480Y-119218550D01*
X106464970Y-119240729D01*
X106473235Y-119263828D01*
X106479196Y-119287627D01*
X106482796Y-119311895D01*
X106484000Y-119336399D01*
X106484000Y-120236401D01*
X106482796Y-120260905D01*
X106479196Y-120285173D01*
X106473235Y-120308972D01*
X106464970Y-120332071D01*
X106454480Y-120354250D01*
X106441868Y-120375293D01*
X106427253Y-120394999D01*
X106410777Y-120413177D01*
X106392599Y-120429653D01*
X106372893Y-120444268D01*
X106351850Y-120456880D01*
X106329671Y-120467370D01*
X106306572Y-120475635D01*
X106282773Y-120481596D01*
X106258505Y-120485196D01*
X106234001Y-120486400D01*
X105583999Y-120486400D01*
X105559495Y-120485196D01*
X105535227Y-120481596D01*
X105511428Y-120475635D01*
X105488329Y-120467370D01*
X105466150Y-120456880D01*
X105445107Y-120444268D01*
X105425401Y-120429653D01*
X105407223Y-120413177D01*
X105390747Y-120394999D01*
X105376132Y-120375293D01*
X105363520Y-120354250D01*
X105353030Y-120332071D01*
X105344765Y-120308972D01*
X105338804Y-120285173D01*
X105335204Y-120260905D01*
X105334000Y-120236401D01*
X105334000Y-119336399D01*
X105335204Y-119311895D01*
X105338804Y-119287627D01*
X105344765Y-119263828D01*
X105353030Y-119240729D01*
X105363520Y-119218550D01*
X105376132Y-119197507D01*
X105390747Y-119177801D01*
X105407223Y-119159623D01*
X105425401Y-119143147D01*
X105445107Y-119128532D01*
X105466150Y-119115920D01*
X105488329Y-119105430D01*
X105511428Y-119097165D01*
X105535227Y-119091204D01*
X105559495Y-119087604D01*
X105583999Y-119086400D01*
X106234001Y-119086400D01*
X106258505Y-119087604D01*
X106258505Y-119087604D01*
G37*
D13*
X105909000Y-119786400D03*
D11*
G36*
X108308505Y-119087604D02*
X108332773Y-119091204D01*
X108356572Y-119097165D01*
X108379671Y-119105430D01*
X108401850Y-119115920D01*
X108422893Y-119128532D01*
X108442599Y-119143147D01*
X108460777Y-119159623D01*
X108477253Y-119177801D01*
X108491868Y-119197507D01*
X108504480Y-119218550D01*
X108514970Y-119240729D01*
X108523235Y-119263828D01*
X108529196Y-119287627D01*
X108532796Y-119311895D01*
X108534000Y-119336399D01*
X108534000Y-120236401D01*
X108532796Y-120260905D01*
X108529196Y-120285173D01*
X108523235Y-120308972D01*
X108514970Y-120332071D01*
X108504480Y-120354250D01*
X108491868Y-120375293D01*
X108477253Y-120394999D01*
X108460777Y-120413177D01*
X108442599Y-120429653D01*
X108422893Y-120444268D01*
X108401850Y-120456880D01*
X108379671Y-120467370D01*
X108356572Y-120475635D01*
X108332773Y-120481596D01*
X108308505Y-120485196D01*
X108284001Y-120486400D01*
X107633999Y-120486400D01*
X107609495Y-120485196D01*
X107585227Y-120481596D01*
X107561428Y-120475635D01*
X107538329Y-120467370D01*
X107516150Y-120456880D01*
X107495107Y-120444268D01*
X107475401Y-120429653D01*
X107457223Y-120413177D01*
X107440747Y-120394999D01*
X107426132Y-120375293D01*
X107413520Y-120354250D01*
X107403030Y-120332071D01*
X107394765Y-120308972D01*
X107388804Y-120285173D01*
X107385204Y-120260905D01*
X107384000Y-120236401D01*
X107384000Y-119336399D01*
X107385204Y-119311895D01*
X107388804Y-119287627D01*
X107394765Y-119263828D01*
X107403030Y-119240729D01*
X107413520Y-119218550D01*
X107426132Y-119197507D01*
X107440747Y-119177801D01*
X107457223Y-119159623D01*
X107475401Y-119143147D01*
X107495107Y-119128532D01*
X107516150Y-119115920D01*
X107538329Y-119105430D01*
X107561428Y-119097165D01*
X107585227Y-119091204D01*
X107609495Y-119087604D01*
X107633999Y-119086400D01*
X108284001Y-119086400D01*
X108308505Y-119087604D01*
X108308505Y-119087604D01*
G37*
D13*
X107959000Y-119786400D03*
G04 #@! TD*
D11*
G04 #@! TO.C,R2*
G36*
X112067705Y-119087604D02*
X112091973Y-119091204D01*
X112115772Y-119097165D01*
X112138871Y-119105430D01*
X112161050Y-119115920D01*
X112182093Y-119128532D01*
X112201799Y-119143147D01*
X112219977Y-119159623D01*
X112236453Y-119177801D01*
X112251068Y-119197507D01*
X112263680Y-119218550D01*
X112274170Y-119240729D01*
X112282435Y-119263828D01*
X112288396Y-119287627D01*
X112291996Y-119311895D01*
X112293200Y-119336399D01*
X112293200Y-120236401D01*
X112291996Y-120260905D01*
X112288396Y-120285173D01*
X112282435Y-120308972D01*
X112274170Y-120332071D01*
X112263680Y-120354250D01*
X112251068Y-120375293D01*
X112236453Y-120394999D01*
X112219977Y-120413177D01*
X112201799Y-120429653D01*
X112182093Y-120444268D01*
X112161050Y-120456880D01*
X112138871Y-120467370D01*
X112115772Y-120475635D01*
X112091973Y-120481596D01*
X112067705Y-120485196D01*
X112043201Y-120486400D01*
X111393199Y-120486400D01*
X111368695Y-120485196D01*
X111344427Y-120481596D01*
X111320628Y-120475635D01*
X111297529Y-120467370D01*
X111275350Y-120456880D01*
X111254307Y-120444268D01*
X111234601Y-120429653D01*
X111216423Y-120413177D01*
X111199947Y-120394999D01*
X111185332Y-120375293D01*
X111172720Y-120354250D01*
X111162230Y-120332071D01*
X111153965Y-120308972D01*
X111148004Y-120285173D01*
X111144404Y-120260905D01*
X111143200Y-120236401D01*
X111143200Y-119336399D01*
X111144404Y-119311895D01*
X111148004Y-119287627D01*
X111153965Y-119263828D01*
X111162230Y-119240729D01*
X111172720Y-119218550D01*
X111185332Y-119197507D01*
X111199947Y-119177801D01*
X111216423Y-119159623D01*
X111234601Y-119143147D01*
X111254307Y-119128532D01*
X111275350Y-119115920D01*
X111297529Y-119105430D01*
X111320628Y-119097165D01*
X111344427Y-119091204D01*
X111368695Y-119087604D01*
X111393199Y-119086400D01*
X112043201Y-119086400D01*
X112067705Y-119087604D01*
X112067705Y-119087604D01*
G37*
D13*
X111718200Y-119786400D03*
D11*
G36*
X110017705Y-119087604D02*
X110041973Y-119091204D01*
X110065772Y-119097165D01*
X110088871Y-119105430D01*
X110111050Y-119115920D01*
X110132093Y-119128532D01*
X110151799Y-119143147D01*
X110169977Y-119159623D01*
X110186453Y-119177801D01*
X110201068Y-119197507D01*
X110213680Y-119218550D01*
X110224170Y-119240729D01*
X110232435Y-119263828D01*
X110238396Y-119287627D01*
X110241996Y-119311895D01*
X110243200Y-119336399D01*
X110243200Y-120236401D01*
X110241996Y-120260905D01*
X110238396Y-120285173D01*
X110232435Y-120308972D01*
X110224170Y-120332071D01*
X110213680Y-120354250D01*
X110201068Y-120375293D01*
X110186453Y-120394999D01*
X110169977Y-120413177D01*
X110151799Y-120429653D01*
X110132093Y-120444268D01*
X110111050Y-120456880D01*
X110088871Y-120467370D01*
X110065772Y-120475635D01*
X110041973Y-120481596D01*
X110017705Y-120485196D01*
X109993201Y-120486400D01*
X109343199Y-120486400D01*
X109318695Y-120485196D01*
X109294427Y-120481596D01*
X109270628Y-120475635D01*
X109247529Y-120467370D01*
X109225350Y-120456880D01*
X109204307Y-120444268D01*
X109184601Y-120429653D01*
X109166423Y-120413177D01*
X109149947Y-120394999D01*
X109135332Y-120375293D01*
X109122720Y-120354250D01*
X109112230Y-120332071D01*
X109103965Y-120308972D01*
X109098004Y-120285173D01*
X109094404Y-120260905D01*
X109093200Y-120236401D01*
X109093200Y-119336399D01*
X109094404Y-119311895D01*
X109098004Y-119287627D01*
X109103965Y-119263828D01*
X109112230Y-119240729D01*
X109122720Y-119218550D01*
X109135332Y-119197507D01*
X109149947Y-119177801D01*
X109166423Y-119159623D01*
X109184601Y-119143147D01*
X109204307Y-119128532D01*
X109225350Y-119115920D01*
X109247529Y-119105430D01*
X109270628Y-119097165D01*
X109294427Y-119091204D01*
X109318695Y-119087604D01*
X109343199Y-119086400D01*
X109993201Y-119086400D01*
X110017705Y-119087604D01*
X110017705Y-119087604D01*
G37*
D13*
X109668200Y-119786400D03*
G04 #@! TD*
D14*
G04 #@! TO.C,C1*
X126657600Y-115011200D03*
X134657600Y-115011200D03*
G04 #@! TD*
D15*
G04 #@! TO.C,C2*
X115418800Y-112572800D03*
X121918800Y-112572800D03*
G04 #@! TD*
D16*
G04 #@! TO.C,D2*
X119716800Y-123088400D03*
X123716800Y-123088400D03*
G04 #@! TD*
D17*
G04 #@! TO.C,L1*
X105105600Y-111912400D03*
X111505600Y-111912400D03*
G04 #@! TD*
D11*
G04 #@! TO.C,R3*
G36*
X115826905Y-119087604D02*
X115851173Y-119091204D01*
X115874972Y-119097165D01*
X115898071Y-119105430D01*
X115920250Y-119115920D01*
X115941293Y-119128532D01*
X115960999Y-119143147D01*
X115979177Y-119159623D01*
X115995653Y-119177801D01*
X116010268Y-119197507D01*
X116022880Y-119218550D01*
X116033370Y-119240729D01*
X116041635Y-119263828D01*
X116047596Y-119287627D01*
X116051196Y-119311895D01*
X116052400Y-119336399D01*
X116052400Y-120236401D01*
X116051196Y-120260905D01*
X116047596Y-120285173D01*
X116041635Y-120308972D01*
X116033370Y-120332071D01*
X116022880Y-120354250D01*
X116010268Y-120375293D01*
X115995653Y-120394999D01*
X115979177Y-120413177D01*
X115960999Y-120429653D01*
X115941293Y-120444268D01*
X115920250Y-120456880D01*
X115898071Y-120467370D01*
X115874972Y-120475635D01*
X115851173Y-120481596D01*
X115826905Y-120485196D01*
X115802401Y-120486400D01*
X115152399Y-120486400D01*
X115127895Y-120485196D01*
X115103627Y-120481596D01*
X115079828Y-120475635D01*
X115056729Y-120467370D01*
X115034550Y-120456880D01*
X115013507Y-120444268D01*
X114993801Y-120429653D01*
X114975623Y-120413177D01*
X114959147Y-120394999D01*
X114944532Y-120375293D01*
X114931920Y-120354250D01*
X114921430Y-120332071D01*
X114913165Y-120308972D01*
X114907204Y-120285173D01*
X114903604Y-120260905D01*
X114902400Y-120236401D01*
X114902400Y-119336399D01*
X114903604Y-119311895D01*
X114907204Y-119287627D01*
X114913165Y-119263828D01*
X114921430Y-119240729D01*
X114931920Y-119218550D01*
X114944532Y-119197507D01*
X114959147Y-119177801D01*
X114975623Y-119159623D01*
X114993801Y-119143147D01*
X115013507Y-119128532D01*
X115034550Y-119115920D01*
X115056729Y-119105430D01*
X115079828Y-119097165D01*
X115103627Y-119091204D01*
X115127895Y-119087604D01*
X115152399Y-119086400D01*
X115802401Y-119086400D01*
X115826905Y-119087604D01*
X115826905Y-119087604D01*
G37*
D13*
X115477400Y-119786400D03*
D11*
G36*
X113776905Y-119087604D02*
X113801173Y-119091204D01*
X113824972Y-119097165D01*
X113848071Y-119105430D01*
X113870250Y-119115920D01*
X113891293Y-119128532D01*
X113910999Y-119143147D01*
X113929177Y-119159623D01*
X113945653Y-119177801D01*
X113960268Y-119197507D01*
X113972880Y-119218550D01*
X113983370Y-119240729D01*
X113991635Y-119263828D01*
X113997596Y-119287627D01*
X114001196Y-119311895D01*
X114002400Y-119336399D01*
X114002400Y-120236401D01*
X114001196Y-120260905D01*
X113997596Y-120285173D01*
X113991635Y-120308972D01*
X113983370Y-120332071D01*
X113972880Y-120354250D01*
X113960268Y-120375293D01*
X113945653Y-120394999D01*
X113929177Y-120413177D01*
X113910999Y-120429653D01*
X113891293Y-120444268D01*
X113870250Y-120456880D01*
X113848071Y-120467370D01*
X113824972Y-120475635D01*
X113801173Y-120481596D01*
X113776905Y-120485196D01*
X113752401Y-120486400D01*
X113102399Y-120486400D01*
X113077895Y-120485196D01*
X113053627Y-120481596D01*
X113029828Y-120475635D01*
X113006729Y-120467370D01*
X112984550Y-120456880D01*
X112963507Y-120444268D01*
X112943801Y-120429653D01*
X112925623Y-120413177D01*
X112909147Y-120394999D01*
X112894532Y-120375293D01*
X112881920Y-120354250D01*
X112871430Y-120332071D01*
X112863165Y-120308972D01*
X112857204Y-120285173D01*
X112853604Y-120260905D01*
X112852400Y-120236401D01*
X112852400Y-119336399D01*
X112853604Y-119311895D01*
X112857204Y-119287627D01*
X112863165Y-119263828D01*
X112871430Y-119240729D01*
X112881920Y-119218550D01*
X112894532Y-119197507D01*
X112909147Y-119177801D01*
X112925623Y-119159623D01*
X112943801Y-119143147D01*
X112963507Y-119128532D01*
X112984550Y-119115920D01*
X113006729Y-119105430D01*
X113029828Y-119097165D01*
X113053627Y-119091204D01*
X113077895Y-119087604D01*
X113102399Y-119086400D01*
X113752401Y-119086400D01*
X113776905Y-119087604D01*
X113776905Y-119087604D01*
G37*
D13*
X113427400Y-119786400D03*
G04 #@! TD*
D11*
G04 #@! TO.C,R4*
G36*
X117536105Y-119087604D02*
X117560373Y-119091204D01*
X117584172Y-119097165D01*
X117607271Y-119105430D01*
X117629450Y-119115920D01*
X117650493Y-119128532D01*
X117670199Y-119143147D01*
X117688377Y-119159623D01*
X117704853Y-119177801D01*
X117719468Y-119197507D01*
X117732080Y-119218550D01*
X117742570Y-119240729D01*
X117750835Y-119263828D01*
X117756796Y-119287627D01*
X117760396Y-119311895D01*
X117761600Y-119336399D01*
X117761600Y-120236401D01*
X117760396Y-120260905D01*
X117756796Y-120285173D01*
X117750835Y-120308972D01*
X117742570Y-120332071D01*
X117732080Y-120354250D01*
X117719468Y-120375293D01*
X117704853Y-120394999D01*
X117688377Y-120413177D01*
X117670199Y-120429653D01*
X117650493Y-120444268D01*
X117629450Y-120456880D01*
X117607271Y-120467370D01*
X117584172Y-120475635D01*
X117560373Y-120481596D01*
X117536105Y-120485196D01*
X117511601Y-120486400D01*
X116861599Y-120486400D01*
X116837095Y-120485196D01*
X116812827Y-120481596D01*
X116789028Y-120475635D01*
X116765929Y-120467370D01*
X116743750Y-120456880D01*
X116722707Y-120444268D01*
X116703001Y-120429653D01*
X116684823Y-120413177D01*
X116668347Y-120394999D01*
X116653732Y-120375293D01*
X116641120Y-120354250D01*
X116630630Y-120332071D01*
X116622365Y-120308972D01*
X116616404Y-120285173D01*
X116612804Y-120260905D01*
X116611600Y-120236401D01*
X116611600Y-119336399D01*
X116612804Y-119311895D01*
X116616404Y-119287627D01*
X116622365Y-119263828D01*
X116630630Y-119240729D01*
X116641120Y-119218550D01*
X116653732Y-119197507D01*
X116668347Y-119177801D01*
X116684823Y-119159623D01*
X116703001Y-119143147D01*
X116722707Y-119128532D01*
X116743750Y-119115920D01*
X116765929Y-119105430D01*
X116789028Y-119097165D01*
X116812827Y-119091204D01*
X116837095Y-119087604D01*
X116861599Y-119086400D01*
X117511601Y-119086400D01*
X117536105Y-119087604D01*
X117536105Y-119087604D01*
G37*
D13*
X117186600Y-119786400D03*
D11*
G36*
X119586105Y-119087604D02*
X119610373Y-119091204D01*
X119634172Y-119097165D01*
X119657271Y-119105430D01*
X119679450Y-119115920D01*
X119700493Y-119128532D01*
X119720199Y-119143147D01*
X119738377Y-119159623D01*
X119754853Y-119177801D01*
X119769468Y-119197507D01*
X119782080Y-119218550D01*
X119792570Y-119240729D01*
X119800835Y-119263828D01*
X119806796Y-119287627D01*
X119810396Y-119311895D01*
X119811600Y-119336399D01*
X119811600Y-120236401D01*
X119810396Y-120260905D01*
X119806796Y-120285173D01*
X119800835Y-120308972D01*
X119792570Y-120332071D01*
X119782080Y-120354250D01*
X119769468Y-120375293D01*
X119754853Y-120394999D01*
X119738377Y-120413177D01*
X119720199Y-120429653D01*
X119700493Y-120444268D01*
X119679450Y-120456880D01*
X119657271Y-120467370D01*
X119634172Y-120475635D01*
X119610373Y-120481596D01*
X119586105Y-120485196D01*
X119561601Y-120486400D01*
X118911599Y-120486400D01*
X118887095Y-120485196D01*
X118862827Y-120481596D01*
X118839028Y-120475635D01*
X118815929Y-120467370D01*
X118793750Y-120456880D01*
X118772707Y-120444268D01*
X118753001Y-120429653D01*
X118734823Y-120413177D01*
X118718347Y-120394999D01*
X118703732Y-120375293D01*
X118691120Y-120354250D01*
X118680630Y-120332071D01*
X118672365Y-120308972D01*
X118666404Y-120285173D01*
X118662804Y-120260905D01*
X118661600Y-120236401D01*
X118661600Y-119336399D01*
X118662804Y-119311895D01*
X118666404Y-119287627D01*
X118672365Y-119263828D01*
X118680630Y-119240729D01*
X118691120Y-119218550D01*
X118703732Y-119197507D01*
X118718347Y-119177801D01*
X118734823Y-119159623D01*
X118753001Y-119143147D01*
X118772707Y-119128532D01*
X118793750Y-119115920D01*
X118815929Y-119105430D01*
X118839028Y-119097165D01*
X118862827Y-119091204D01*
X118887095Y-119087604D01*
X118911599Y-119086400D01*
X119561601Y-119086400D01*
X119586105Y-119087604D01*
X119586105Y-119087604D01*
G37*
D13*
X119236600Y-119786400D03*
G04 #@! TD*
D18*
G04 #@! TO.C,TP1*
X109420000Y-130510000D03*
X111960000Y-130510000D03*
G04 #@! TD*
D19*
G04 #@! TO.C,U2*
X94644000Y-122208600D03*
X96344000Y-122208600D03*
X98044000Y-122208600D03*
X99744000Y-122208600D03*
X101444000Y-122208600D03*
D20*
X100819000Y-110633600D03*
X95269000Y-115483600D03*
X95269000Y-110633600D03*
X100819000Y-115483600D03*
G04 #@! TD*
D11*
G04 #@! TO.C,R5*
G36*
X121295305Y-119087604D02*
X121319573Y-119091204D01*
X121343372Y-119097165D01*
X121366471Y-119105430D01*
X121388650Y-119115920D01*
X121409693Y-119128532D01*
X121429399Y-119143147D01*
X121447577Y-119159623D01*
X121464053Y-119177801D01*
X121478668Y-119197507D01*
X121491280Y-119218550D01*
X121501770Y-119240729D01*
X121510035Y-119263828D01*
X121515996Y-119287627D01*
X121519596Y-119311895D01*
X121520800Y-119336399D01*
X121520800Y-120236401D01*
X121519596Y-120260905D01*
X121515996Y-120285173D01*
X121510035Y-120308972D01*
X121501770Y-120332071D01*
X121491280Y-120354250D01*
X121478668Y-120375293D01*
X121464053Y-120394999D01*
X121447577Y-120413177D01*
X121429399Y-120429653D01*
X121409693Y-120444268D01*
X121388650Y-120456880D01*
X121366471Y-120467370D01*
X121343372Y-120475635D01*
X121319573Y-120481596D01*
X121295305Y-120485196D01*
X121270801Y-120486400D01*
X120620799Y-120486400D01*
X120596295Y-120485196D01*
X120572027Y-120481596D01*
X120548228Y-120475635D01*
X120525129Y-120467370D01*
X120502950Y-120456880D01*
X120481907Y-120444268D01*
X120462201Y-120429653D01*
X120444023Y-120413177D01*
X120427547Y-120394999D01*
X120412932Y-120375293D01*
X120400320Y-120354250D01*
X120389830Y-120332071D01*
X120381565Y-120308972D01*
X120375604Y-120285173D01*
X120372004Y-120260905D01*
X120370800Y-120236401D01*
X120370800Y-119336399D01*
X120372004Y-119311895D01*
X120375604Y-119287627D01*
X120381565Y-119263828D01*
X120389830Y-119240729D01*
X120400320Y-119218550D01*
X120412932Y-119197507D01*
X120427547Y-119177801D01*
X120444023Y-119159623D01*
X120462201Y-119143147D01*
X120481907Y-119128532D01*
X120502950Y-119115920D01*
X120525129Y-119105430D01*
X120548228Y-119097165D01*
X120572027Y-119091204D01*
X120596295Y-119087604D01*
X120620799Y-119086400D01*
X121270801Y-119086400D01*
X121295305Y-119087604D01*
X121295305Y-119087604D01*
G37*
D13*
X120945800Y-119786400D03*
D11*
G36*
X123345305Y-119087604D02*
X123369573Y-119091204D01*
X123393372Y-119097165D01*
X123416471Y-119105430D01*
X123438650Y-119115920D01*
X123459693Y-119128532D01*
X123479399Y-119143147D01*
X123497577Y-119159623D01*
X123514053Y-119177801D01*
X123528668Y-119197507D01*
X123541280Y-119218550D01*
X123551770Y-119240729D01*
X123560035Y-119263828D01*
X123565996Y-119287627D01*
X123569596Y-119311895D01*
X123570800Y-119336399D01*
X123570800Y-120236401D01*
X123569596Y-120260905D01*
X123565996Y-120285173D01*
X123560035Y-120308972D01*
X123551770Y-120332071D01*
X123541280Y-120354250D01*
X123528668Y-120375293D01*
X123514053Y-120394999D01*
X123497577Y-120413177D01*
X123479399Y-120429653D01*
X123459693Y-120444268D01*
X123438650Y-120456880D01*
X123416471Y-120467370D01*
X123393372Y-120475635D01*
X123369573Y-120481596D01*
X123345305Y-120485196D01*
X123320801Y-120486400D01*
X122670799Y-120486400D01*
X122646295Y-120485196D01*
X122622027Y-120481596D01*
X122598228Y-120475635D01*
X122575129Y-120467370D01*
X122552950Y-120456880D01*
X122531907Y-120444268D01*
X122512201Y-120429653D01*
X122494023Y-120413177D01*
X122477547Y-120394999D01*
X122462932Y-120375293D01*
X122450320Y-120354250D01*
X122439830Y-120332071D01*
X122431565Y-120308972D01*
X122425604Y-120285173D01*
X122422004Y-120260905D01*
X122420800Y-120236401D01*
X122420800Y-119336399D01*
X122422004Y-119311895D01*
X122425604Y-119287627D01*
X122431565Y-119263828D01*
X122439830Y-119240729D01*
X122450320Y-119218550D01*
X122462932Y-119197507D01*
X122477547Y-119177801D01*
X122494023Y-119159623D01*
X122512201Y-119143147D01*
X122531907Y-119128532D01*
X122552950Y-119115920D01*
X122575129Y-119105430D01*
X122598228Y-119097165D01*
X122622027Y-119091204D01*
X122646295Y-119087604D01*
X122670799Y-119086400D01*
X123320801Y-119086400D01*
X123345305Y-119087604D01*
X123345305Y-119087604D01*
G37*
D13*
X122995800Y-119786400D03*
G04 #@! TD*
M02*
