G04 #@! TF.GenerationSoftware,KiCad,Pcbnew,(5.0.0)*
G04 #@! TF.CreationDate,2019-03-04T17:15:25-05:00*
G04 #@! TF.ProjectId,nivel y temperatura,6E6976656C20792074656D7065726174,V 1.0*
G04 #@! TF.SameCoordinates,Original*
G04 #@! TF.FileFunction,Legend,Bot*
G04 #@! TF.FilePolarity,Positive*
%FSLAX46Y46*%
G04 Gerber Fmt 4.6, Leading zero omitted, Abs format (unit mm)*
G04 Created by KiCad (PCBNEW (5.0.0)) date 03/04/19 17:15:25*
%MOMM*%
%LPD*%
G01*
G04 APERTURE LIST*
%ADD10C,0.300000*%
%ADD11C,0.750000*%
%ADD12C,0.150000*%
%ADD13C,0.010000*%
G04 APERTURE END LIST*
D10*
X170392857Y-71353571D02*
X169892857Y-72853571D01*
X169392857Y-71353571D01*
X167750000Y-72853571D02*
X167750000Y-71853571D01*
X167750000Y-71353571D02*
X167821428Y-71425000D01*
X167750000Y-71496428D01*
X167678571Y-71425000D01*
X167750000Y-71353571D01*
X167750000Y-71496428D01*
X167035714Y-71853571D02*
X167035714Y-72853571D01*
X167035714Y-71996428D02*
X166964285Y-71925000D01*
X166821428Y-71853571D01*
X166607142Y-71853571D01*
X166464285Y-71925000D01*
X166392857Y-72067857D01*
X166392857Y-72853571D01*
X165678571Y-71853571D02*
X165678571Y-73353571D01*
X165678571Y-71925000D02*
X165535714Y-71853571D01*
X165250000Y-71853571D01*
X165107142Y-71925000D01*
X165035714Y-71996428D01*
X164964285Y-72139285D01*
X164964285Y-72567857D01*
X165035714Y-72710714D01*
X165107142Y-72782142D01*
X165250000Y-72853571D01*
X165535714Y-72853571D01*
X165678571Y-72782142D01*
X163678571Y-71853571D02*
X163678571Y-72853571D01*
X164321428Y-71853571D02*
X164321428Y-72639285D01*
X164250000Y-72782142D01*
X164107142Y-72853571D01*
X163892857Y-72853571D01*
X163750000Y-72782142D01*
X163678571Y-72710714D01*
X163178571Y-71853571D02*
X162607142Y-71853571D01*
X162964285Y-71353571D02*
X162964285Y-72639285D01*
X162892857Y-72782142D01*
X162750000Y-72853571D01*
X162607142Y-72853571D01*
X159821428Y-72710714D02*
X159750000Y-72782142D01*
X159821428Y-72853571D01*
X159892857Y-72782142D01*
X159821428Y-72710714D01*
X159821428Y-72853571D01*
X159821428Y-71925000D02*
X159750000Y-71996428D01*
X159821428Y-72067857D01*
X159892857Y-71996428D01*
X159821428Y-71925000D01*
X159821428Y-72067857D01*
X174357142Y-75403571D02*
X175214285Y-75403571D01*
X174785714Y-75403571D02*
X174785714Y-73903571D01*
X174928571Y-74117857D01*
X175071428Y-74260714D01*
X175214285Y-74332142D01*
X173428571Y-73903571D02*
X173285714Y-73903571D01*
X173142857Y-73975000D01*
X173071428Y-74046428D01*
X173000000Y-74189285D01*
X172928571Y-74475000D01*
X172928571Y-74832142D01*
X173000000Y-75117857D01*
X173071428Y-75260714D01*
X173142857Y-75332142D01*
X173285714Y-75403571D01*
X173428571Y-75403571D01*
X173571428Y-75332142D01*
X173642857Y-75260714D01*
X173714285Y-75117857D01*
X173785714Y-74832142D01*
X173785714Y-74475000D01*
X173714285Y-74189285D01*
X173642857Y-74046428D01*
X173571428Y-73975000D01*
X173428571Y-73903571D01*
X172214285Y-75332142D02*
X172214285Y-75403571D01*
X172285714Y-75546428D01*
X172357142Y-75617857D01*
X171357142Y-74546428D02*
X171500000Y-74475000D01*
X171571428Y-74403571D01*
X171642857Y-74260714D01*
X171642857Y-74189285D01*
X171571428Y-74046428D01*
X171500000Y-73975000D01*
X171357142Y-73903571D01*
X171071428Y-73903571D01*
X170928571Y-73975000D01*
X170857142Y-74046428D01*
X170785714Y-74189285D01*
X170785714Y-74260714D01*
X170857142Y-74403571D01*
X170928571Y-74475000D01*
X171071428Y-74546428D01*
X171357142Y-74546428D01*
X171500000Y-74617857D01*
X171571428Y-74689285D01*
X171642857Y-74832142D01*
X171642857Y-75117857D01*
X171571428Y-75260714D01*
X171500000Y-75332142D01*
X171357142Y-75403571D01*
X171071428Y-75403571D01*
X170928571Y-75332142D01*
X170857142Y-75260714D01*
X170785714Y-75117857D01*
X170785714Y-74832142D01*
X170857142Y-74689285D01*
X170928571Y-74617857D01*
X171071428Y-74546428D01*
X170357142Y-73903571D02*
X169857142Y-75403571D01*
X169357142Y-73903571D01*
X167714285Y-74832142D02*
X166571428Y-74832142D01*
X164071428Y-74403571D02*
X164071428Y-75403571D01*
X164428571Y-73832142D02*
X164785714Y-74903571D01*
X163857142Y-74903571D01*
X163000000Y-73903571D02*
X162857142Y-73903571D01*
X162714285Y-73975000D01*
X162642857Y-74046428D01*
X162571428Y-74189285D01*
X162500000Y-74475000D01*
X162500000Y-74832142D01*
X162571428Y-75117857D01*
X162642857Y-75260714D01*
X162714285Y-75332142D01*
X162857142Y-75403571D01*
X163000000Y-75403571D01*
X163142857Y-75332142D01*
X163214285Y-75260714D01*
X163285714Y-75117857D01*
X163357142Y-74832142D01*
X163357142Y-74475000D01*
X163285714Y-74189285D01*
X163214285Y-74046428D01*
X163142857Y-73975000D01*
X163000000Y-73903571D01*
X160928571Y-73903571D02*
X160428571Y-75403571D01*
X159928571Y-73903571D01*
X158285714Y-75403571D02*
X158285714Y-73903571D01*
X157928571Y-73903571D01*
X157714285Y-73975000D01*
X157571428Y-74117857D01*
X157500000Y-74260714D01*
X157428571Y-74546428D01*
X157428571Y-74760714D01*
X157500000Y-75046428D01*
X157571428Y-75189285D01*
X157714285Y-75332142D01*
X157928571Y-75403571D01*
X158285714Y-75403571D01*
X155928571Y-75260714D02*
X156000000Y-75332142D01*
X156214285Y-75403571D01*
X156357142Y-75403571D01*
X156571428Y-75332142D01*
X156714285Y-75189285D01*
X156785714Y-75046428D01*
X156857142Y-74760714D01*
X156857142Y-74546428D01*
X156785714Y-74260714D01*
X156714285Y-74117857D01*
X156571428Y-73975000D01*
X156357142Y-73903571D01*
X156214285Y-73903571D01*
X156000000Y-73975000D01*
X155928571Y-74046428D01*
X167892857Y-76453571D02*
X167392857Y-77953571D01*
X166892857Y-76453571D01*
X164607142Y-77882142D02*
X164750000Y-77953571D01*
X165035714Y-77953571D01*
X165178571Y-77882142D01*
X165250000Y-77810714D01*
X165321428Y-77667857D01*
X165321428Y-77239285D01*
X165250000Y-77096428D01*
X165178571Y-77025000D01*
X165035714Y-76953571D01*
X164750000Y-76953571D01*
X164607142Y-77025000D01*
X163964285Y-77953571D02*
X163964285Y-76953571D01*
X163964285Y-76453571D02*
X164035714Y-76525000D01*
X163964285Y-76596428D01*
X163892857Y-76525000D01*
X163964285Y-76453571D01*
X163964285Y-76596428D01*
X163250000Y-77953571D02*
X163250000Y-76953571D01*
X163250000Y-77239285D02*
X163178571Y-77096428D01*
X163107142Y-77025000D01*
X162964285Y-76953571D01*
X162821428Y-76953571D01*
X162321428Y-77810714D02*
X162250000Y-77882142D01*
X162321428Y-77953571D01*
X162392857Y-77882142D01*
X162321428Y-77810714D01*
X162321428Y-77953571D01*
X162321428Y-77025000D02*
X162250000Y-77096428D01*
X162321428Y-77167857D01*
X162392857Y-77096428D01*
X162321428Y-77025000D01*
X162321428Y-77167857D01*
X169071428Y-80503571D02*
X168785714Y-80503571D01*
X168642857Y-80432142D01*
X168571428Y-80360714D01*
X168428571Y-80146428D01*
X168357142Y-79860714D01*
X168357142Y-79289285D01*
X168428571Y-79146428D01*
X168500000Y-79075000D01*
X168642857Y-79003571D01*
X168928571Y-79003571D01*
X169071428Y-79075000D01*
X169142857Y-79146428D01*
X169214285Y-79289285D01*
X169214285Y-79646428D01*
X169142857Y-79789285D01*
X169071428Y-79860714D01*
X168928571Y-79932142D01*
X168642857Y-79932142D01*
X168500000Y-79860714D01*
X168428571Y-79789285D01*
X168357142Y-79646428D01*
X167642857Y-80432142D02*
X167642857Y-80503571D01*
X167714285Y-80646428D01*
X167785714Y-80717857D01*
X166357142Y-79003571D02*
X166642857Y-79003571D01*
X166785714Y-79075000D01*
X166857142Y-79146428D01*
X167000000Y-79360714D01*
X167071428Y-79646428D01*
X167071428Y-80217857D01*
X167000000Y-80360714D01*
X166928571Y-80432142D01*
X166785714Y-80503571D01*
X166500000Y-80503571D01*
X166357142Y-80432142D01*
X166285714Y-80360714D01*
X166214285Y-80217857D01*
X166214285Y-79860714D01*
X166285714Y-79717857D01*
X166357142Y-79646428D01*
X166500000Y-79575000D01*
X166785714Y-79575000D01*
X166928571Y-79646428D01*
X167000000Y-79717857D01*
X167071428Y-79860714D01*
X165785714Y-79003571D02*
X165285714Y-80503571D01*
X164785714Y-79003571D01*
X163142857Y-80503571D02*
X163142857Y-79003571D01*
X162785714Y-79003571D01*
X162571428Y-79075000D01*
X162428571Y-79217857D01*
X162357142Y-79360714D01*
X162285714Y-79646428D01*
X162285714Y-79860714D01*
X162357142Y-80146428D01*
X162428571Y-80289285D01*
X162571428Y-80432142D01*
X162785714Y-80503571D01*
X163142857Y-80503571D01*
X160785714Y-80360714D02*
X160857142Y-80432142D01*
X161071428Y-80503571D01*
X161214285Y-80503571D01*
X161428571Y-80432142D01*
X161571428Y-80289285D01*
X161642857Y-80146428D01*
X161714285Y-79860714D01*
X161714285Y-79646428D01*
X161642857Y-79360714D01*
X161571428Y-79217857D01*
X161428571Y-79075000D01*
X161214285Y-79003571D01*
X161071428Y-79003571D01*
X160857142Y-79075000D01*
X160785714Y-79146428D01*
D11*
X124418571Y-72145714D02*
X125418571Y-72145714D01*
X125418571Y-73717142D02*
X125418571Y-70717142D01*
X123990000Y-70717142D01*
X122847142Y-73717142D02*
X122847142Y-70717142D01*
X119704285Y-73717142D02*
X120704285Y-72288571D01*
X121418571Y-73717142D02*
X121418571Y-70717142D01*
X120275714Y-70717142D01*
X119990000Y-70860000D01*
X119847142Y-71002857D01*
X119704285Y-71288571D01*
X119704285Y-71717142D01*
X119847142Y-72002857D01*
X119990000Y-72145714D01*
X120275714Y-72288571D01*
X121418571Y-72288571D01*
X118418571Y-70717142D02*
X118418571Y-73145714D01*
X118275714Y-73431428D01*
X118132857Y-73574285D01*
X117847142Y-73717142D01*
X117275714Y-73717142D01*
X116990000Y-73574285D01*
X116847142Y-73431428D01*
X116704285Y-73145714D01*
X116704285Y-70717142D01*
X115561428Y-70717142D02*
X113561428Y-73717142D01*
X113561428Y-70717142D02*
X115561428Y-73717142D01*
D12*
X92202000Y-45974000D02*
X92202000Y-134974000D01*
X191770000Y-45974000D02*
X92202000Y-45974000D01*
X191900000Y-135000000D02*
X191770000Y-45970000D01*
X92202000Y-135000000D02*
X191900000Y-135000000D01*
D13*
G04 #@! TO.C,G\002A\002A\002A*
G36*
X107367506Y-66481756D02*
X107377159Y-66490863D01*
X107399928Y-66511594D01*
X107434840Y-66543084D01*
X107480922Y-66584470D01*
X107537202Y-66634885D01*
X107602708Y-66693466D01*
X107676466Y-66759348D01*
X107757504Y-66831665D01*
X107844850Y-66909553D01*
X107937530Y-66992147D01*
X108034572Y-67078583D01*
X108135004Y-67167995D01*
X108237853Y-67259518D01*
X108342146Y-67352289D01*
X108446910Y-67445442D01*
X108551174Y-67538112D01*
X108653964Y-67629434D01*
X108754308Y-67718544D01*
X108851232Y-67804578D01*
X108943766Y-67886669D01*
X109030935Y-67963953D01*
X109111767Y-68035566D01*
X109185290Y-68100643D01*
X109250531Y-68158319D01*
X109306517Y-68207728D01*
X109352276Y-68248007D01*
X109386836Y-68278291D01*
X109409222Y-68297714D01*
X109418463Y-68305412D01*
X109418647Y-68305507D01*
X109426308Y-68299252D01*
X109447455Y-68281082D01*
X109481273Y-68251712D01*
X109526950Y-68211853D01*
X109583674Y-68162221D01*
X109650631Y-68103530D01*
X109727008Y-68036493D01*
X109811992Y-67961824D01*
X109904770Y-67880236D01*
X110004529Y-67792445D01*
X110110457Y-67699163D01*
X110221740Y-67601105D01*
X110337565Y-67498984D01*
X110429210Y-67418141D01*
X110548136Y-67313194D01*
X110663216Y-67211607D01*
X110773632Y-67114106D01*
X110878561Y-67021417D01*
X110977184Y-66934265D01*
X111068681Y-66853377D01*
X111152232Y-66779478D01*
X111227015Y-66713293D01*
X111292212Y-66655548D01*
X111347001Y-66606970D01*
X111390562Y-66568283D01*
X111422075Y-66540214D01*
X111440720Y-66523487D01*
X111445773Y-66518815D01*
X111448045Y-66516469D01*
X111450021Y-66514397D01*
X111450861Y-66513037D01*
X111449723Y-66512829D01*
X111445766Y-66514212D01*
X111438150Y-66517627D01*
X111426033Y-66523512D01*
X111408573Y-66532308D01*
X111384931Y-66544452D01*
X111354264Y-66560386D01*
X111315732Y-66580548D01*
X111268494Y-66605377D01*
X111211708Y-66635314D01*
X111144534Y-66670798D01*
X111066131Y-66712268D01*
X110975657Y-66760164D01*
X110872271Y-66814925D01*
X110755132Y-66876990D01*
X110623400Y-66946800D01*
X110476232Y-67024793D01*
X110394584Y-67068063D01*
X110269264Y-67134426D01*
X110148530Y-67198263D01*
X110033441Y-67259020D01*
X109925055Y-67316142D01*
X109824430Y-67369074D01*
X109732625Y-67417262D01*
X109650699Y-67460152D01*
X109579710Y-67497188D01*
X109520716Y-67527816D01*
X109474776Y-67551483D01*
X109442948Y-67567632D01*
X109426291Y-67575710D01*
X109424039Y-67576564D01*
X109414705Y-67572179D01*
X109389883Y-67559437D01*
X109350730Y-67538957D01*
X109298402Y-67511360D01*
X109234056Y-67477264D01*
X109158847Y-67437289D01*
X109073933Y-67392054D01*
X108980470Y-67342179D01*
X108879613Y-67288284D01*
X108772520Y-67230987D01*
X108660347Y-67170909D01*
X108544250Y-67108668D01*
X108425385Y-67044884D01*
X108304909Y-66980177D01*
X108183978Y-66915167D01*
X108063748Y-66850471D01*
X107945377Y-66786711D01*
X107830019Y-66724506D01*
X107718832Y-66664474D01*
X107612972Y-66607236D01*
X107513596Y-66553411D01*
X107470568Y-66530071D01*
X107430133Y-66508620D01*
X107397695Y-66492372D01*
X107375740Y-66482493D01*
X107366754Y-66480148D01*
X107367506Y-66481756D01*
X107367506Y-66481756D01*
G37*
X107367506Y-66481756D02*
X107377159Y-66490863D01*
X107399928Y-66511594D01*
X107434840Y-66543084D01*
X107480922Y-66584470D01*
X107537202Y-66634885D01*
X107602708Y-66693466D01*
X107676466Y-66759348D01*
X107757504Y-66831665D01*
X107844850Y-66909553D01*
X107937530Y-66992147D01*
X108034572Y-67078583D01*
X108135004Y-67167995D01*
X108237853Y-67259518D01*
X108342146Y-67352289D01*
X108446910Y-67445442D01*
X108551174Y-67538112D01*
X108653964Y-67629434D01*
X108754308Y-67718544D01*
X108851232Y-67804578D01*
X108943766Y-67886669D01*
X109030935Y-67963953D01*
X109111767Y-68035566D01*
X109185290Y-68100643D01*
X109250531Y-68158319D01*
X109306517Y-68207728D01*
X109352276Y-68248007D01*
X109386836Y-68278291D01*
X109409222Y-68297714D01*
X109418463Y-68305412D01*
X109418647Y-68305507D01*
X109426308Y-68299252D01*
X109447455Y-68281082D01*
X109481273Y-68251712D01*
X109526950Y-68211853D01*
X109583674Y-68162221D01*
X109650631Y-68103530D01*
X109727008Y-68036493D01*
X109811992Y-67961824D01*
X109904770Y-67880236D01*
X110004529Y-67792445D01*
X110110457Y-67699163D01*
X110221740Y-67601105D01*
X110337565Y-67498984D01*
X110429210Y-67418141D01*
X110548136Y-67313194D01*
X110663216Y-67211607D01*
X110773632Y-67114106D01*
X110878561Y-67021417D01*
X110977184Y-66934265D01*
X111068681Y-66853377D01*
X111152232Y-66779478D01*
X111227015Y-66713293D01*
X111292212Y-66655548D01*
X111347001Y-66606970D01*
X111390562Y-66568283D01*
X111422075Y-66540214D01*
X111440720Y-66523487D01*
X111445773Y-66518815D01*
X111448045Y-66516469D01*
X111450021Y-66514397D01*
X111450861Y-66513037D01*
X111449723Y-66512829D01*
X111445766Y-66514212D01*
X111438150Y-66517627D01*
X111426033Y-66523512D01*
X111408573Y-66532308D01*
X111384931Y-66544452D01*
X111354264Y-66560386D01*
X111315732Y-66580548D01*
X111268494Y-66605377D01*
X111211708Y-66635314D01*
X111144534Y-66670798D01*
X111066131Y-66712268D01*
X110975657Y-66760164D01*
X110872271Y-66814925D01*
X110755132Y-66876990D01*
X110623400Y-66946800D01*
X110476232Y-67024793D01*
X110394584Y-67068063D01*
X110269264Y-67134426D01*
X110148530Y-67198263D01*
X110033441Y-67259020D01*
X109925055Y-67316142D01*
X109824430Y-67369074D01*
X109732625Y-67417262D01*
X109650699Y-67460152D01*
X109579710Y-67497188D01*
X109520716Y-67527816D01*
X109474776Y-67551483D01*
X109442948Y-67567632D01*
X109426291Y-67575710D01*
X109424039Y-67576564D01*
X109414705Y-67572179D01*
X109389883Y-67559437D01*
X109350730Y-67538957D01*
X109298402Y-67511360D01*
X109234056Y-67477264D01*
X109158847Y-67437289D01*
X109073933Y-67392054D01*
X108980470Y-67342179D01*
X108879613Y-67288284D01*
X108772520Y-67230987D01*
X108660347Y-67170909D01*
X108544250Y-67108668D01*
X108425385Y-67044884D01*
X108304909Y-66980177D01*
X108183978Y-66915167D01*
X108063748Y-66850471D01*
X107945377Y-66786711D01*
X107830019Y-66724506D01*
X107718832Y-66664474D01*
X107612972Y-66607236D01*
X107513596Y-66553411D01*
X107470568Y-66530071D01*
X107430133Y-66508620D01*
X107397695Y-66492372D01*
X107375740Y-66482493D01*
X107366754Y-66480148D01*
X107367506Y-66481756D01*
G36*
X106697943Y-67808743D02*
X106503801Y-67808870D01*
X106314482Y-67809060D01*
X106130850Y-67809310D01*
X105953771Y-67809616D01*
X105784108Y-67809974D01*
X105622726Y-67810382D01*
X105470490Y-67810836D01*
X105328265Y-67811331D01*
X105196915Y-67811865D01*
X105077304Y-67812434D01*
X104970297Y-67813035D01*
X104876759Y-67813663D01*
X104797554Y-67814316D01*
X104733547Y-67814989D01*
X104685602Y-67815680D01*
X104654585Y-67816384D01*
X104641359Y-67817099D01*
X104641058Y-67817167D01*
X104631878Y-67820383D01*
X104627197Y-67823458D01*
X104628733Y-67826902D01*
X104638202Y-67831219D01*
X104657318Y-67836917D01*
X104687800Y-67844503D01*
X104731362Y-67854484D01*
X104789721Y-67867367D01*
X104864593Y-67883657D01*
X104870604Y-67884962D01*
X104943556Y-67900792D01*
X105020045Y-67917392D01*
X105095026Y-67933666D01*
X105163457Y-67948521D01*
X105220292Y-67960861D01*
X105236005Y-67964273D01*
X105296777Y-67977457D01*
X105362254Y-67991640D01*
X105425100Y-68005233D01*
X105477984Y-68016649D01*
X105484289Y-68018008D01*
X105518953Y-68025497D01*
X105569011Y-68036339D01*
X105631515Y-68049895D01*
X105703516Y-68065525D01*
X105782065Y-68082588D01*
X105864215Y-68100445D01*
X105934013Y-68115627D01*
X106022240Y-68134820D01*
X106114004Y-68154779D01*
X106205416Y-68174658D01*
X106292588Y-68193611D01*
X106371629Y-68210793D01*
X106438649Y-68225358D01*
X106472744Y-68232765D01*
X106539487Y-68247271D01*
X106619047Y-68264578D01*
X106705899Y-68283484D01*
X106794521Y-68302785D01*
X106879386Y-68321279D01*
X106922467Y-68330672D01*
X106987912Y-68344942D01*
X107050425Y-68358561D01*
X107111838Y-68371930D01*
X107173987Y-68385444D01*
X107238705Y-68399501D01*
X107307826Y-68414500D01*
X107383184Y-68430838D01*
X107466613Y-68448913D01*
X107559948Y-68469122D01*
X107665021Y-68491863D01*
X107783667Y-68517533D01*
X107917720Y-68546531D01*
X108006919Y-68565824D01*
X108454262Y-68662577D01*
X108454300Y-69026481D01*
X108454337Y-69390384D01*
X107101762Y-69390384D01*
X106926638Y-69390447D01*
X106759643Y-69390632D01*
X106601639Y-69390933D01*
X106453489Y-69391344D01*
X106316057Y-69391860D01*
X106190205Y-69392476D01*
X106076797Y-69393186D01*
X105976695Y-69393984D01*
X105890762Y-69394864D01*
X105819862Y-69395822D01*
X105764858Y-69396851D01*
X105726612Y-69397946D01*
X105705988Y-69399101D01*
X105703403Y-69399451D01*
X105669617Y-69407384D01*
X105638638Y-69416644D01*
X105629513Y-69420032D01*
X105620549Y-69424377D01*
X105617778Y-69428648D01*
X105623188Y-69433705D01*
X105638769Y-69440406D01*
X105666512Y-69449608D01*
X105708405Y-69462171D01*
X105765367Y-69478645D01*
X105819327Y-69494124D01*
X105889672Y-69514267D01*
X105974710Y-69538592D01*
X106072749Y-69566616D01*
X106182099Y-69597858D01*
X106301067Y-69631833D01*
X106427962Y-69668060D01*
X106561091Y-69706057D01*
X106698764Y-69745339D01*
X106839288Y-69785426D01*
X106980972Y-69825834D01*
X107122125Y-69866080D01*
X107261054Y-69905683D01*
X107396068Y-69944159D01*
X107525476Y-69981027D01*
X107647585Y-70015802D01*
X107760704Y-70048004D01*
X107863141Y-70077148D01*
X107929660Y-70096062D01*
X108024844Y-70123133D01*
X108114488Y-70148660D01*
X108196985Y-70172184D01*
X108270730Y-70193244D01*
X108334115Y-70211381D01*
X108385536Y-70226136D01*
X108423385Y-70237048D01*
X108446056Y-70243660D01*
X108452189Y-70245546D01*
X108453996Y-70255293D01*
X108457604Y-70281585D01*
X108462655Y-70321557D01*
X108468790Y-70372346D01*
X108475651Y-70431089D01*
X108477971Y-70451363D01*
X108485221Y-70515035D01*
X108491990Y-70574482D01*
X108497867Y-70626105D01*
X108502443Y-70666301D01*
X108505309Y-70691471D01*
X108505662Y-70694577D01*
X108508535Y-70719601D01*
X108513046Y-70758626D01*
X108518569Y-70806258D01*
X108524326Y-70855769D01*
X108527816Y-70885999D01*
X108533287Y-70933724D01*
X108540521Y-70997036D01*
X108549302Y-71074026D01*
X108559412Y-71162785D01*
X108570633Y-71261405D01*
X108582749Y-71367978D01*
X108595542Y-71480594D01*
X108608794Y-71597346D01*
X108617761Y-71676384D01*
X108644516Y-71912301D01*
X108669159Y-72129583D01*
X108691776Y-72328996D01*
X108712455Y-72511309D01*
X108731282Y-72677288D01*
X108748344Y-72827703D01*
X108763730Y-72963319D01*
X108777525Y-73084905D01*
X108789818Y-73193229D01*
X108800695Y-73289058D01*
X108810243Y-73373159D01*
X108818550Y-73446300D01*
X108825702Y-73509249D01*
X108831788Y-73562773D01*
X108836894Y-73607641D01*
X108841107Y-73644618D01*
X108844514Y-73674474D01*
X108847203Y-73697976D01*
X108849260Y-73715890D01*
X108850774Y-73728986D01*
X108851830Y-73738030D01*
X108852371Y-73742577D01*
X108854811Y-73763426D01*
X108859236Y-73801821D01*
X108865483Y-73856315D01*
X108873385Y-73925459D01*
X108882780Y-74007806D01*
X108893503Y-74101907D01*
X108905389Y-74206314D01*
X108918274Y-74319578D01*
X108931994Y-74440253D01*
X108946385Y-74566889D01*
X108961282Y-74698038D01*
X108976521Y-74832253D01*
X108991938Y-74968085D01*
X109007368Y-75104086D01*
X109022647Y-75238809D01*
X109037611Y-75370804D01*
X109052095Y-75498624D01*
X109065935Y-75620820D01*
X109078967Y-75735945D01*
X109091027Y-75842551D01*
X109101949Y-75939188D01*
X109111571Y-76024410D01*
X109119727Y-76096768D01*
X109126253Y-76154814D01*
X109130985Y-76197099D01*
X109133759Y-76222177D01*
X109134369Y-76227905D01*
X109138691Y-76264953D01*
X109143472Y-76297359D01*
X109146898Y-76314698D01*
X109151259Y-76328621D01*
X109155627Y-76328447D01*
X109162600Y-76312378D01*
X109166743Y-76300985D01*
X109167890Y-76295953D01*
X109168975Y-76287063D01*
X109169999Y-76273776D01*
X109170965Y-76255555D01*
X109171874Y-76231859D01*
X109172729Y-76202150D01*
X109173532Y-76165891D01*
X109174286Y-76122540D01*
X109174991Y-76071561D01*
X109175650Y-76012414D01*
X109176266Y-75944561D01*
X109176840Y-75867462D01*
X109177374Y-75780580D01*
X109177871Y-75683374D01*
X109178333Y-75575307D01*
X109178761Y-75455840D01*
X109179158Y-75324434D01*
X109179526Y-75180551D01*
X109179867Y-75023651D01*
X109180182Y-74853196D01*
X109180475Y-74668646D01*
X109180747Y-74469465D01*
X109181001Y-74255111D01*
X109181238Y-74025048D01*
X109181460Y-73778736D01*
X109181670Y-73515636D01*
X109181869Y-73235209D01*
X109182060Y-72936918D01*
X109182245Y-72620222D01*
X109182426Y-72284584D01*
X109182445Y-72247884D01*
X109184519Y-68232731D01*
X109061857Y-68115500D01*
X109011703Y-68067830D01*
X108956470Y-68015765D01*
X108901660Y-67964469D01*
X108852782Y-67919103D01*
X108835300Y-67903019D01*
X108731404Y-67807769D01*
X106697943Y-67808743D01*
X106697943Y-67808743D01*
G37*
X106697943Y-67808743D02*
X106503801Y-67808870D01*
X106314482Y-67809060D01*
X106130850Y-67809310D01*
X105953771Y-67809616D01*
X105784108Y-67809974D01*
X105622726Y-67810382D01*
X105470490Y-67810836D01*
X105328265Y-67811331D01*
X105196915Y-67811865D01*
X105077304Y-67812434D01*
X104970297Y-67813035D01*
X104876759Y-67813663D01*
X104797554Y-67814316D01*
X104733547Y-67814989D01*
X104685602Y-67815680D01*
X104654585Y-67816384D01*
X104641359Y-67817099D01*
X104641058Y-67817167D01*
X104631878Y-67820383D01*
X104627197Y-67823458D01*
X104628733Y-67826902D01*
X104638202Y-67831219D01*
X104657318Y-67836917D01*
X104687800Y-67844503D01*
X104731362Y-67854484D01*
X104789721Y-67867367D01*
X104864593Y-67883657D01*
X104870604Y-67884962D01*
X104943556Y-67900792D01*
X105020045Y-67917392D01*
X105095026Y-67933666D01*
X105163457Y-67948521D01*
X105220292Y-67960861D01*
X105236005Y-67964273D01*
X105296777Y-67977457D01*
X105362254Y-67991640D01*
X105425100Y-68005233D01*
X105477984Y-68016649D01*
X105484289Y-68018008D01*
X105518953Y-68025497D01*
X105569011Y-68036339D01*
X105631515Y-68049895D01*
X105703516Y-68065525D01*
X105782065Y-68082588D01*
X105864215Y-68100445D01*
X105934013Y-68115627D01*
X106022240Y-68134820D01*
X106114004Y-68154779D01*
X106205416Y-68174658D01*
X106292588Y-68193611D01*
X106371629Y-68210793D01*
X106438649Y-68225358D01*
X106472744Y-68232765D01*
X106539487Y-68247271D01*
X106619047Y-68264578D01*
X106705899Y-68283484D01*
X106794521Y-68302785D01*
X106879386Y-68321279D01*
X106922467Y-68330672D01*
X106987912Y-68344942D01*
X107050425Y-68358561D01*
X107111838Y-68371930D01*
X107173987Y-68385444D01*
X107238705Y-68399501D01*
X107307826Y-68414500D01*
X107383184Y-68430838D01*
X107466613Y-68448913D01*
X107559948Y-68469122D01*
X107665021Y-68491863D01*
X107783667Y-68517533D01*
X107917720Y-68546531D01*
X108006919Y-68565824D01*
X108454262Y-68662577D01*
X108454300Y-69026481D01*
X108454337Y-69390384D01*
X107101762Y-69390384D01*
X106926638Y-69390447D01*
X106759643Y-69390632D01*
X106601639Y-69390933D01*
X106453489Y-69391344D01*
X106316057Y-69391860D01*
X106190205Y-69392476D01*
X106076797Y-69393186D01*
X105976695Y-69393984D01*
X105890762Y-69394864D01*
X105819862Y-69395822D01*
X105764858Y-69396851D01*
X105726612Y-69397946D01*
X105705988Y-69399101D01*
X105703403Y-69399451D01*
X105669617Y-69407384D01*
X105638638Y-69416644D01*
X105629513Y-69420032D01*
X105620549Y-69424377D01*
X105617778Y-69428648D01*
X105623188Y-69433705D01*
X105638769Y-69440406D01*
X105666512Y-69449608D01*
X105708405Y-69462171D01*
X105765367Y-69478645D01*
X105819327Y-69494124D01*
X105889672Y-69514267D01*
X105974710Y-69538592D01*
X106072749Y-69566616D01*
X106182099Y-69597858D01*
X106301067Y-69631833D01*
X106427962Y-69668060D01*
X106561091Y-69706057D01*
X106698764Y-69745339D01*
X106839288Y-69785426D01*
X106980972Y-69825834D01*
X107122125Y-69866080D01*
X107261054Y-69905683D01*
X107396068Y-69944159D01*
X107525476Y-69981027D01*
X107647585Y-70015802D01*
X107760704Y-70048004D01*
X107863141Y-70077148D01*
X107929660Y-70096062D01*
X108024844Y-70123133D01*
X108114488Y-70148660D01*
X108196985Y-70172184D01*
X108270730Y-70193244D01*
X108334115Y-70211381D01*
X108385536Y-70226136D01*
X108423385Y-70237048D01*
X108446056Y-70243660D01*
X108452189Y-70245546D01*
X108453996Y-70255293D01*
X108457604Y-70281585D01*
X108462655Y-70321557D01*
X108468790Y-70372346D01*
X108475651Y-70431089D01*
X108477971Y-70451363D01*
X108485221Y-70515035D01*
X108491990Y-70574482D01*
X108497867Y-70626105D01*
X108502443Y-70666301D01*
X108505309Y-70691471D01*
X108505662Y-70694577D01*
X108508535Y-70719601D01*
X108513046Y-70758626D01*
X108518569Y-70806258D01*
X108524326Y-70855769D01*
X108527816Y-70885999D01*
X108533287Y-70933724D01*
X108540521Y-70997036D01*
X108549302Y-71074026D01*
X108559412Y-71162785D01*
X108570633Y-71261405D01*
X108582749Y-71367978D01*
X108595542Y-71480594D01*
X108608794Y-71597346D01*
X108617761Y-71676384D01*
X108644516Y-71912301D01*
X108669159Y-72129583D01*
X108691776Y-72328996D01*
X108712455Y-72511309D01*
X108731282Y-72677288D01*
X108748344Y-72827703D01*
X108763730Y-72963319D01*
X108777525Y-73084905D01*
X108789818Y-73193229D01*
X108800695Y-73289058D01*
X108810243Y-73373159D01*
X108818550Y-73446300D01*
X108825702Y-73509249D01*
X108831788Y-73562773D01*
X108836894Y-73607641D01*
X108841107Y-73644618D01*
X108844514Y-73674474D01*
X108847203Y-73697976D01*
X108849260Y-73715890D01*
X108850774Y-73728986D01*
X108851830Y-73738030D01*
X108852371Y-73742577D01*
X108854811Y-73763426D01*
X108859236Y-73801821D01*
X108865483Y-73856315D01*
X108873385Y-73925459D01*
X108882780Y-74007806D01*
X108893503Y-74101907D01*
X108905389Y-74206314D01*
X108918274Y-74319578D01*
X108931994Y-74440253D01*
X108946385Y-74566889D01*
X108961282Y-74698038D01*
X108976521Y-74832253D01*
X108991938Y-74968085D01*
X109007368Y-75104086D01*
X109022647Y-75238809D01*
X109037611Y-75370804D01*
X109052095Y-75498624D01*
X109065935Y-75620820D01*
X109078967Y-75735945D01*
X109091027Y-75842551D01*
X109101949Y-75939188D01*
X109111571Y-76024410D01*
X109119727Y-76096768D01*
X109126253Y-76154814D01*
X109130985Y-76197099D01*
X109133759Y-76222177D01*
X109134369Y-76227905D01*
X109138691Y-76264953D01*
X109143472Y-76297359D01*
X109146898Y-76314698D01*
X109151259Y-76328621D01*
X109155627Y-76328447D01*
X109162600Y-76312378D01*
X109166743Y-76300985D01*
X109167890Y-76295953D01*
X109168975Y-76287063D01*
X109169999Y-76273776D01*
X109170965Y-76255555D01*
X109171874Y-76231859D01*
X109172729Y-76202150D01*
X109173532Y-76165891D01*
X109174286Y-76122540D01*
X109174991Y-76071561D01*
X109175650Y-76012414D01*
X109176266Y-75944561D01*
X109176840Y-75867462D01*
X109177374Y-75780580D01*
X109177871Y-75683374D01*
X109178333Y-75575307D01*
X109178761Y-75455840D01*
X109179158Y-75324434D01*
X109179526Y-75180551D01*
X109179867Y-75023651D01*
X109180182Y-74853196D01*
X109180475Y-74668646D01*
X109180747Y-74469465D01*
X109181001Y-74255111D01*
X109181238Y-74025048D01*
X109181460Y-73778736D01*
X109181670Y-73515636D01*
X109181869Y-73235209D01*
X109182060Y-72936918D01*
X109182245Y-72620222D01*
X109182426Y-72284584D01*
X109182445Y-72247884D01*
X109184519Y-68232731D01*
X109061857Y-68115500D01*
X109011703Y-68067830D01*
X108956470Y-68015765D01*
X108901660Y-67964469D01*
X108852782Y-67919103D01*
X108835300Y-67903019D01*
X108731404Y-67807769D01*
X106697943Y-67808743D01*
G36*
X110022431Y-67878464D02*
X109992032Y-67904725D01*
X109951482Y-67940860D01*
X109904444Y-67983542D01*
X109854584Y-68029448D01*
X109806296Y-68074565D01*
X109662969Y-68209593D01*
X109663114Y-72197239D01*
X109663260Y-76184884D01*
X109685869Y-76267923D01*
X109695767Y-76302069D01*
X109703621Y-76324992D01*
X109708324Y-76333677D01*
X109709163Y-76331423D01*
X109710245Y-76319807D01*
X109713217Y-76290499D01*
X109717895Y-76245225D01*
X109724096Y-76185712D01*
X109731638Y-76113686D01*
X109740337Y-76030873D01*
X109750011Y-75939001D01*
X109760478Y-75839796D01*
X109771553Y-75734983D01*
X109783055Y-75626290D01*
X109794800Y-75515443D01*
X109806605Y-75404168D01*
X109818289Y-75294192D01*
X109829667Y-75187242D01*
X109840557Y-75085043D01*
X109850777Y-74989323D01*
X109860142Y-74901807D01*
X109868471Y-74824222D01*
X109875581Y-74758295D01*
X109881288Y-74705752D01*
X109882992Y-74690192D01*
X109885349Y-74668407D01*
X109889461Y-74630026D01*
X109895027Y-74577873D01*
X109901748Y-74514770D01*
X109909322Y-74443543D01*
X109917448Y-74367015D01*
X109920991Y-74333615D01*
X109929212Y-74256271D01*
X109936978Y-74183548D01*
X109943997Y-74118161D01*
X109949975Y-74062829D01*
X109954619Y-74020267D01*
X109957637Y-73993193D01*
X109958384Y-73986807D01*
X109959944Y-73972793D01*
X109963454Y-73940443D01*
X109968799Y-73890844D01*
X109975862Y-73825079D01*
X109984527Y-73744232D01*
X109994678Y-73649389D01*
X110006201Y-73541634D01*
X110018977Y-73422052D01*
X110032893Y-73291727D01*
X110047832Y-73151744D01*
X110063677Y-73003186D01*
X110080314Y-72847140D01*
X110097625Y-72684689D01*
X110115496Y-72516918D01*
X110122299Y-72453038D01*
X110140348Y-72283557D01*
X110157878Y-72118990D01*
X110174774Y-71960422D01*
X110190919Y-71808938D01*
X110206199Y-71665621D01*
X110220497Y-71531558D01*
X110233697Y-71407832D01*
X110245685Y-71295527D01*
X110256343Y-71195729D01*
X110265557Y-71109522D01*
X110273211Y-71037991D01*
X110279188Y-70982219D01*
X110283374Y-70943292D01*
X110285651Y-70922295D01*
X110285990Y-70919269D01*
X110287936Y-70901678D01*
X110291710Y-70866805D01*
X110297083Y-70816789D01*
X110303826Y-70753770D01*
X110311712Y-70679887D01*
X110320510Y-70597278D01*
X110329993Y-70508083D01*
X110338191Y-70430863D01*
X110347916Y-70339477D01*
X110357043Y-70254273D01*
X110365362Y-70177167D01*
X110372663Y-70110080D01*
X110378736Y-70054929D01*
X110383373Y-70013634D01*
X110386362Y-69988113D01*
X110387470Y-69980216D01*
X110396462Y-69977282D01*
X110422374Y-69969009D01*
X110464193Y-69955717D01*
X110520902Y-69937728D01*
X110591489Y-69915363D01*
X110674938Y-69888942D01*
X110770235Y-69858787D01*
X110876366Y-69825219D01*
X110992315Y-69788558D01*
X111117069Y-69749126D01*
X111249613Y-69707243D01*
X111388933Y-69663231D01*
X111534013Y-69617410D01*
X111649247Y-69581023D01*
X111798212Y-69533955D01*
X111942272Y-69488369D01*
X112080406Y-69444592D01*
X112211592Y-69402949D01*
X112334810Y-69363768D01*
X112449039Y-69327374D01*
X112553256Y-69294095D01*
X112646441Y-69264256D01*
X112727573Y-69238184D01*
X112795631Y-69216205D01*
X112849593Y-69198647D01*
X112888438Y-69185834D01*
X112911145Y-69178094D01*
X112916983Y-69175803D01*
X112914236Y-69167558D01*
X112898444Y-69155376D01*
X112888875Y-69149980D01*
X112883196Y-69147321D01*
X112876307Y-69144922D01*
X112867237Y-69142766D01*
X112855016Y-69140835D01*
X112838675Y-69139110D01*
X112817243Y-69137574D01*
X112789750Y-69136210D01*
X112755227Y-69134998D01*
X112712703Y-69133922D01*
X112661208Y-69132963D01*
X112599772Y-69132104D01*
X112527425Y-69131326D01*
X112443198Y-69130612D01*
X112346119Y-69129944D01*
X112235220Y-69129304D01*
X112109529Y-69128674D01*
X111968078Y-69128036D01*
X111809895Y-69127373D01*
X111634011Y-69126666D01*
X111621139Y-69126615D01*
X110389085Y-69121731D01*
X110386568Y-68899906D01*
X110384050Y-68678082D01*
X110419360Y-68668275D01*
X110436177Y-68663898D01*
X110469034Y-68655610D01*
X110515729Y-68643957D01*
X110574056Y-68629487D01*
X110641813Y-68612744D01*
X110716795Y-68594277D01*
X110796798Y-68574631D01*
X110815385Y-68570074D01*
X111096481Y-68501181D01*
X111359867Y-68436603D01*
X111606082Y-68376205D01*
X111835663Y-68319855D01*
X112049147Y-68267416D01*
X112247070Y-68218755D01*
X112429971Y-68173738D01*
X112598387Y-68132230D01*
X112752854Y-68094098D01*
X112893910Y-68059205D01*
X113022092Y-68027420D01*
X113137938Y-67998606D01*
X113241985Y-67972630D01*
X113334769Y-67949358D01*
X113416829Y-67928655D01*
X113488701Y-67910386D01*
X113550923Y-67894418D01*
X113604031Y-67880617D01*
X113648564Y-67868847D01*
X113685058Y-67858975D01*
X113714050Y-67850866D01*
X113736079Y-67844386D01*
X113751680Y-67839401D01*
X113761392Y-67835776D01*
X113765751Y-67833377D01*
X113765979Y-67832423D01*
X113755795Y-67831042D01*
X113727912Y-67829739D01*
X113682254Y-67828513D01*
X113618740Y-67827364D01*
X113537292Y-67826292D01*
X113437832Y-67825296D01*
X113320281Y-67824375D01*
X113184560Y-67823528D01*
X113030590Y-67822756D01*
X112858293Y-67822058D01*
X112667591Y-67821432D01*
X112458404Y-67820880D01*
X112230654Y-67820399D01*
X111984262Y-67819990D01*
X111925814Y-67819908D01*
X110095239Y-67817393D01*
X110022431Y-67878464D01*
X110022431Y-67878464D01*
G37*
X110022431Y-67878464D02*
X109992032Y-67904725D01*
X109951482Y-67940860D01*
X109904444Y-67983542D01*
X109854584Y-68029448D01*
X109806296Y-68074565D01*
X109662969Y-68209593D01*
X109663114Y-72197239D01*
X109663260Y-76184884D01*
X109685869Y-76267923D01*
X109695767Y-76302069D01*
X109703621Y-76324992D01*
X109708324Y-76333677D01*
X109709163Y-76331423D01*
X109710245Y-76319807D01*
X109713217Y-76290499D01*
X109717895Y-76245225D01*
X109724096Y-76185712D01*
X109731638Y-76113686D01*
X109740337Y-76030873D01*
X109750011Y-75939001D01*
X109760478Y-75839796D01*
X109771553Y-75734983D01*
X109783055Y-75626290D01*
X109794800Y-75515443D01*
X109806605Y-75404168D01*
X109818289Y-75294192D01*
X109829667Y-75187242D01*
X109840557Y-75085043D01*
X109850777Y-74989323D01*
X109860142Y-74901807D01*
X109868471Y-74824222D01*
X109875581Y-74758295D01*
X109881288Y-74705752D01*
X109882992Y-74690192D01*
X109885349Y-74668407D01*
X109889461Y-74630026D01*
X109895027Y-74577873D01*
X109901748Y-74514770D01*
X109909322Y-74443543D01*
X109917448Y-74367015D01*
X109920991Y-74333615D01*
X109929212Y-74256271D01*
X109936978Y-74183548D01*
X109943997Y-74118161D01*
X109949975Y-74062829D01*
X109954619Y-74020267D01*
X109957637Y-73993193D01*
X109958384Y-73986807D01*
X109959944Y-73972793D01*
X109963454Y-73940443D01*
X109968799Y-73890844D01*
X109975862Y-73825079D01*
X109984527Y-73744232D01*
X109994678Y-73649389D01*
X110006201Y-73541634D01*
X110018977Y-73422052D01*
X110032893Y-73291727D01*
X110047832Y-73151744D01*
X110063677Y-73003186D01*
X110080314Y-72847140D01*
X110097625Y-72684689D01*
X110115496Y-72516918D01*
X110122299Y-72453038D01*
X110140348Y-72283557D01*
X110157878Y-72118990D01*
X110174774Y-71960422D01*
X110190919Y-71808938D01*
X110206199Y-71665621D01*
X110220497Y-71531558D01*
X110233697Y-71407832D01*
X110245685Y-71295527D01*
X110256343Y-71195729D01*
X110265557Y-71109522D01*
X110273211Y-71037991D01*
X110279188Y-70982219D01*
X110283374Y-70943292D01*
X110285651Y-70922295D01*
X110285990Y-70919269D01*
X110287936Y-70901678D01*
X110291710Y-70866805D01*
X110297083Y-70816789D01*
X110303826Y-70753770D01*
X110311712Y-70679887D01*
X110320510Y-70597278D01*
X110329993Y-70508083D01*
X110338191Y-70430863D01*
X110347916Y-70339477D01*
X110357043Y-70254273D01*
X110365362Y-70177167D01*
X110372663Y-70110080D01*
X110378736Y-70054929D01*
X110383373Y-70013634D01*
X110386362Y-69988113D01*
X110387470Y-69980216D01*
X110396462Y-69977282D01*
X110422374Y-69969009D01*
X110464193Y-69955717D01*
X110520902Y-69937728D01*
X110591489Y-69915363D01*
X110674938Y-69888942D01*
X110770235Y-69858787D01*
X110876366Y-69825219D01*
X110992315Y-69788558D01*
X111117069Y-69749126D01*
X111249613Y-69707243D01*
X111388933Y-69663231D01*
X111534013Y-69617410D01*
X111649247Y-69581023D01*
X111798212Y-69533955D01*
X111942272Y-69488369D01*
X112080406Y-69444592D01*
X112211592Y-69402949D01*
X112334810Y-69363768D01*
X112449039Y-69327374D01*
X112553256Y-69294095D01*
X112646441Y-69264256D01*
X112727573Y-69238184D01*
X112795631Y-69216205D01*
X112849593Y-69198647D01*
X112888438Y-69185834D01*
X112911145Y-69178094D01*
X112916983Y-69175803D01*
X112914236Y-69167558D01*
X112898444Y-69155376D01*
X112888875Y-69149980D01*
X112883196Y-69147321D01*
X112876307Y-69144922D01*
X112867237Y-69142766D01*
X112855016Y-69140835D01*
X112838675Y-69139110D01*
X112817243Y-69137574D01*
X112789750Y-69136210D01*
X112755227Y-69134998D01*
X112712703Y-69133922D01*
X112661208Y-69132963D01*
X112599772Y-69132104D01*
X112527425Y-69131326D01*
X112443198Y-69130612D01*
X112346119Y-69129944D01*
X112235220Y-69129304D01*
X112109529Y-69128674D01*
X111968078Y-69128036D01*
X111809895Y-69127373D01*
X111634011Y-69126666D01*
X111621139Y-69126615D01*
X110389085Y-69121731D01*
X110386568Y-68899906D01*
X110384050Y-68678082D01*
X110419360Y-68668275D01*
X110436177Y-68663898D01*
X110469034Y-68655610D01*
X110515729Y-68643957D01*
X110574056Y-68629487D01*
X110641813Y-68612744D01*
X110716795Y-68594277D01*
X110796798Y-68574631D01*
X110815385Y-68570074D01*
X111096481Y-68501181D01*
X111359867Y-68436603D01*
X111606082Y-68376205D01*
X111835663Y-68319855D01*
X112049147Y-68267416D01*
X112247070Y-68218755D01*
X112429971Y-68173738D01*
X112598387Y-68132230D01*
X112752854Y-68094098D01*
X112893910Y-68059205D01*
X113022092Y-68027420D01*
X113137938Y-67998606D01*
X113241985Y-67972630D01*
X113334769Y-67949358D01*
X113416829Y-67928655D01*
X113488701Y-67910386D01*
X113550923Y-67894418D01*
X113604031Y-67880617D01*
X113648564Y-67868847D01*
X113685058Y-67858975D01*
X113714050Y-67850866D01*
X113736079Y-67844386D01*
X113751680Y-67839401D01*
X113761392Y-67835776D01*
X113765751Y-67833377D01*
X113765979Y-67832423D01*
X113755795Y-67831042D01*
X113727912Y-67829739D01*
X113682254Y-67828513D01*
X113618740Y-67827364D01*
X113537292Y-67826292D01*
X113437832Y-67825296D01*
X113320281Y-67824375D01*
X113184560Y-67823528D01*
X113030590Y-67822756D01*
X112858293Y-67822058D01*
X112667591Y-67821432D01*
X112458404Y-67820880D01*
X112230654Y-67820399D01*
X111984262Y-67819990D01*
X111925814Y-67819908D01*
X110095239Y-67817393D01*
X110022431Y-67878464D01*
G04 #@! TO.C,REF\002A\002A*
G36*
X171566380Y-51026594D02*
X171372970Y-51075286D01*
X171199029Y-51161332D01*
X171048740Y-51281421D01*
X170926284Y-51432243D01*
X170835845Y-51610486D01*
X170783086Y-51803967D01*
X170771332Y-51999364D01*
X170801173Y-52187920D01*
X170868874Y-52364419D01*
X170970703Y-52523645D01*
X171102925Y-52660385D01*
X171261808Y-52769422D01*
X171443617Y-52845540D01*
X171546606Y-52870498D01*
X171635999Y-52885608D01*
X171704909Y-52891579D01*
X171771124Y-52887913D01*
X171852434Y-52874113D01*
X171918922Y-52860100D01*
X172106588Y-52796800D01*
X172274681Y-52694096D01*
X172419416Y-52555102D01*
X172537007Y-52382935D01*
X172565029Y-52328214D01*
X172598051Y-52255155D01*
X172618760Y-52193803D01*
X172629941Y-52129252D01*
X172634380Y-52046599D01*
X172634939Y-51954018D01*
X172626729Y-51784549D01*
X172599779Y-51645373D01*
X172549174Y-51523582D01*
X172470002Y-51406272D01*
X172392562Y-51317349D01*
X172248136Y-51185125D01*
X172097279Y-51093855D01*
X171931038Y-51039208D01*
X171775078Y-51018567D01*
X171566380Y-51026594D01*
X171566380Y-51026594D01*
G37*
X171566380Y-51026594D02*
X171372970Y-51075286D01*
X171199029Y-51161332D01*
X171048740Y-51281421D01*
X170926284Y-51432243D01*
X170835845Y-51610486D01*
X170783086Y-51803967D01*
X170771332Y-51999364D01*
X170801173Y-52187920D01*
X170868874Y-52364419D01*
X170970703Y-52523645D01*
X171102925Y-52660385D01*
X171261808Y-52769422D01*
X171443617Y-52845540D01*
X171546606Y-52870498D01*
X171635999Y-52885608D01*
X171704909Y-52891579D01*
X171771124Y-52887913D01*
X171852434Y-52874113D01*
X171918922Y-52860100D01*
X172106588Y-52796800D01*
X172274681Y-52694096D01*
X172419416Y-52555102D01*
X172537007Y-52382935D01*
X172565029Y-52328214D01*
X172598051Y-52255155D01*
X172618760Y-52193803D01*
X172629941Y-52129252D01*
X172634380Y-52046599D01*
X172634939Y-51954018D01*
X172626729Y-51784549D01*
X172599779Y-51645373D01*
X172549174Y-51523582D01*
X172470002Y-51406272D01*
X172392562Y-51317349D01*
X172248136Y-51185125D01*
X172097279Y-51093855D01*
X171931038Y-51039208D01*
X171775078Y-51018567D01*
X171566380Y-51026594D01*
G36*
X154571749Y-55939777D02*
X154571710Y-56410705D01*
X154571658Y-56838488D01*
X154571512Y-57225338D01*
X154571195Y-57573466D01*
X154570629Y-57885085D01*
X154569735Y-58162406D01*
X154568435Y-58407640D01*
X154566651Y-58623001D01*
X154564303Y-58810700D01*
X154561315Y-58972948D01*
X154557607Y-59111957D01*
X154553101Y-59229940D01*
X154547718Y-59329109D01*
X154541381Y-59411674D01*
X154534012Y-59479848D01*
X154525530Y-59535843D01*
X154515859Y-59581870D01*
X154504921Y-59620143D01*
X154492635Y-59652871D01*
X154478925Y-59682268D01*
X154463712Y-59710544D01*
X154446917Y-59739913D01*
X154436484Y-59758207D01*
X154367648Y-59880179D01*
X156091607Y-59880179D01*
X156091607Y-59687411D01*
X156093077Y-59600296D01*
X156096998Y-59533671D01*
X156102641Y-59497950D01*
X156105136Y-59494643D01*
X156128082Y-59508472D01*
X156173714Y-59544317D01*
X156219316Y-59583239D01*
X156328973Y-59665072D01*
X156468550Y-59747445D01*
X156623341Y-59822791D01*
X156778640Y-59883543D01*
X156840620Y-59902926D01*
X156978227Y-59932188D01*
X157144669Y-59952199D01*
X157324254Y-59962331D01*
X157501287Y-59961956D01*
X157660075Y-59950445D01*
X157735803Y-59938777D01*
X158013230Y-59862314D01*
X158268969Y-59746351D01*
X158501645Y-59591942D01*
X158709881Y-59400144D01*
X158892299Y-59172012D01*
X159026499Y-58949426D01*
X159136724Y-58714872D01*
X159221100Y-58475108D01*
X159281361Y-58221996D01*
X159319241Y-57947398D01*
X159336474Y-57643174D01*
X159337934Y-57487589D01*
X159333726Y-57373527D01*
X157668091Y-57373527D01*
X157667673Y-57560495D01*
X157661821Y-57736658D01*
X157650446Y-57891506D01*
X157633460Y-58014527D01*
X157628270Y-58039319D01*
X157564384Y-58254843D01*
X157480694Y-58429670D01*
X157376502Y-58564237D01*
X157251109Y-58658983D01*
X157103815Y-58714350D01*
X156933923Y-58730774D01*
X156740733Y-58708695D01*
X156613214Y-58677111D01*
X156514489Y-58640569D01*
X156405748Y-58588642D01*
X156324062Y-58541026D01*
X156182321Y-58447877D01*
X156182321Y-56137225D01*
X156317738Y-56049701D01*
X156475490Y-55967490D01*
X156644613Y-55913951D01*
X156815621Y-55889996D01*
X156979029Y-55896539D01*
X157125353Y-55934493D01*
X157189546Y-55965770D01*
X157305912Y-56052148D01*
X157404264Y-56166199D01*
X157486940Y-56312092D01*
X157556279Y-56493992D01*
X157614620Y-56716069D01*
X157617194Y-56727857D01*
X157637626Y-56852921D01*
X157652979Y-57009229D01*
X157663163Y-57186268D01*
X157668091Y-57373527D01*
X159333726Y-57373527D01*
X159322161Y-57060058D01*
X159278076Y-56666637D01*
X159205786Y-56307587D01*
X159105394Y-55983170D01*
X158977005Y-55693646D01*
X158820722Y-55439276D01*
X158636650Y-55220321D01*
X158424893Y-55037042D01*
X158334161Y-54974864D01*
X158131362Y-54862068D01*
X157923859Y-54782492D01*
X157702700Y-54733957D01*
X157458934Y-54714280D01*
X157273097Y-54716380D01*
X157012631Y-54738410D01*
X156786438Y-54782236D01*
X156587973Y-54849872D01*
X156410694Y-54943331D01*
X156312527Y-55012060D01*
X156253532Y-55056085D01*
X156209957Y-55086160D01*
X156193464Y-55095000D01*
X156190220Y-55073245D01*
X156187627Y-55011665D01*
X156185660Y-54915788D01*
X156184295Y-54791141D01*
X156183505Y-54643250D01*
X156183265Y-54477644D01*
X156183550Y-54299849D01*
X156184335Y-54115393D01*
X156185594Y-53929803D01*
X156187302Y-53748606D01*
X156189433Y-53577330D01*
X156191963Y-53421501D01*
X156194865Y-53286648D01*
X156198114Y-53178297D01*
X156201685Y-53101975D01*
X156202673Y-53087946D01*
X156217895Y-52946486D01*
X156241121Y-52835696D01*
X156276757Y-52741032D01*
X156329209Y-52647952D01*
X156341799Y-52628705D01*
X156390882Y-52555000D01*
X154572143Y-52555000D01*
X154571749Y-55939777D01*
X154571749Y-55939777D01*
G37*
X154571749Y-55939777D02*
X154571710Y-56410705D01*
X154571658Y-56838488D01*
X154571512Y-57225338D01*
X154571195Y-57573466D01*
X154570629Y-57885085D01*
X154569735Y-58162406D01*
X154568435Y-58407640D01*
X154566651Y-58623001D01*
X154564303Y-58810700D01*
X154561315Y-58972948D01*
X154557607Y-59111957D01*
X154553101Y-59229940D01*
X154547718Y-59329109D01*
X154541381Y-59411674D01*
X154534012Y-59479848D01*
X154525530Y-59535843D01*
X154515859Y-59581870D01*
X154504921Y-59620143D01*
X154492635Y-59652871D01*
X154478925Y-59682268D01*
X154463712Y-59710544D01*
X154446917Y-59739913D01*
X154436484Y-59758207D01*
X154367648Y-59880179D01*
X156091607Y-59880179D01*
X156091607Y-59687411D01*
X156093077Y-59600296D01*
X156096998Y-59533671D01*
X156102641Y-59497950D01*
X156105136Y-59494643D01*
X156128082Y-59508472D01*
X156173714Y-59544317D01*
X156219316Y-59583239D01*
X156328973Y-59665072D01*
X156468550Y-59747445D01*
X156623341Y-59822791D01*
X156778640Y-59883543D01*
X156840620Y-59902926D01*
X156978227Y-59932188D01*
X157144669Y-59952199D01*
X157324254Y-59962331D01*
X157501287Y-59961956D01*
X157660075Y-59950445D01*
X157735803Y-59938777D01*
X158013230Y-59862314D01*
X158268969Y-59746351D01*
X158501645Y-59591942D01*
X158709881Y-59400144D01*
X158892299Y-59172012D01*
X159026499Y-58949426D01*
X159136724Y-58714872D01*
X159221100Y-58475108D01*
X159281361Y-58221996D01*
X159319241Y-57947398D01*
X159336474Y-57643174D01*
X159337934Y-57487589D01*
X159333726Y-57373527D01*
X157668091Y-57373527D01*
X157667673Y-57560495D01*
X157661821Y-57736658D01*
X157650446Y-57891506D01*
X157633460Y-58014527D01*
X157628270Y-58039319D01*
X157564384Y-58254843D01*
X157480694Y-58429670D01*
X157376502Y-58564237D01*
X157251109Y-58658983D01*
X157103815Y-58714350D01*
X156933923Y-58730774D01*
X156740733Y-58708695D01*
X156613214Y-58677111D01*
X156514489Y-58640569D01*
X156405748Y-58588642D01*
X156324062Y-58541026D01*
X156182321Y-58447877D01*
X156182321Y-56137225D01*
X156317738Y-56049701D01*
X156475490Y-55967490D01*
X156644613Y-55913951D01*
X156815621Y-55889996D01*
X156979029Y-55896539D01*
X157125353Y-55934493D01*
X157189546Y-55965770D01*
X157305912Y-56052148D01*
X157404264Y-56166199D01*
X157486940Y-56312092D01*
X157556279Y-56493992D01*
X157614620Y-56716069D01*
X157617194Y-56727857D01*
X157637626Y-56852921D01*
X157652979Y-57009229D01*
X157663163Y-57186268D01*
X157668091Y-57373527D01*
X159333726Y-57373527D01*
X159322161Y-57060058D01*
X159278076Y-56666637D01*
X159205786Y-56307587D01*
X159105394Y-55983170D01*
X158977005Y-55693646D01*
X158820722Y-55439276D01*
X158636650Y-55220321D01*
X158424893Y-55037042D01*
X158334161Y-54974864D01*
X158131362Y-54862068D01*
X157923859Y-54782492D01*
X157702700Y-54733957D01*
X157458934Y-54714280D01*
X157273097Y-54716380D01*
X157012631Y-54738410D01*
X156786438Y-54782236D01*
X156587973Y-54849872D01*
X156410694Y-54943331D01*
X156312527Y-55012060D01*
X156253532Y-55056085D01*
X156209957Y-55086160D01*
X156193464Y-55095000D01*
X156190220Y-55073245D01*
X156187627Y-55011665D01*
X156185660Y-54915788D01*
X156184295Y-54791141D01*
X156183505Y-54643250D01*
X156183265Y-54477644D01*
X156183550Y-54299849D01*
X156184335Y-54115393D01*
X156185594Y-53929803D01*
X156187302Y-53748606D01*
X156189433Y-53577330D01*
X156191963Y-53421501D01*
X156194865Y-53286648D01*
X156198114Y-53178297D01*
X156201685Y-53101975D01*
X156202673Y-53087946D01*
X156217895Y-52946486D01*
X156241121Y-52835696D01*
X156276757Y-52741032D01*
X156329209Y-52647952D01*
X156341799Y-52628705D01*
X156390882Y-52555000D01*
X154572143Y-52555000D01*
X154571749Y-55939777D01*
G36*
X161628981Y-54722984D02*
X161323788Y-54763192D01*
X161052052Y-54830762D01*
X160812019Y-54926233D01*
X160601934Y-55050143D01*
X160446022Y-55177831D01*
X160307726Y-55326761D01*
X160199764Y-55487017D01*
X160113573Y-55672281D01*
X160082486Y-55758805D01*
X160056653Y-55837115D01*
X160034149Y-55909732D01*
X160014714Y-55980336D01*
X159998088Y-56052610D01*
X159984011Y-56130234D01*
X159972221Y-56216890D01*
X159962460Y-56316259D01*
X159954465Y-56432022D01*
X159947978Y-56567861D01*
X159942736Y-56727457D01*
X159938481Y-56914491D01*
X159934952Y-57132644D01*
X159931888Y-57385598D01*
X159929028Y-57677033D01*
X159926513Y-57963839D01*
X159923848Y-58277615D01*
X159921426Y-58549364D01*
X159918996Y-58782413D01*
X159916305Y-58980090D01*
X159913101Y-59145722D01*
X159909134Y-59282636D01*
X159904149Y-59394160D01*
X159897897Y-59483622D01*
X159890124Y-59554348D01*
X159880580Y-59609666D01*
X159869011Y-59652903D01*
X159855166Y-59687388D01*
X159838793Y-59716446D01*
X159819641Y-59743406D01*
X159797457Y-59771594D01*
X159788817Y-59782509D01*
X159757037Y-59828390D01*
X159742902Y-59859635D01*
X159742857Y-59860558D01*
X159764708Y-59864975D01*
X159826956Y-59869045D01*
X159924639Y-59872652D01*
X160052796Y-59875683D01*
X160206468Y-59878023D01*
X160380693Y-59879558D01*
X160570510Y-59880172D01*
X160592420Y-59880179D01*
X161441984Y-59880179D01*
X161448536Y-59687188D01*
X161455089Y-59494197D01*
X161579821Y-59596627D01*
X161775350Y-59732257D01*
X161996134Y-59842129D01*
X162169835Y-59902857D01*
X162308593Y-59932365D01*
X162476042Y-59952440D01*
X162656376Y-59962458D01*
X162833793Y-59961790D01*
X162992487Y-59949812D01*
X163065268Y-59938334D01*
X163346555Y-59862272D01*
X163600535Y-59752096D01*
X163825371Y-59609446D01*
X164019226Y-59435962D01*
X164180266Y-59233284D01*
X164306654Y-59003054D01*
X164395801Y-58749745D01*
X164420580Y-58636073D01*
X164435867Y-58511119D01*
X164443157Y-58360774D01*
X164444151Y-58292679D01*
X164444020Y-58286280D01*
X162917359Y-58286280D01*
X162898688Y-58437053D01*
X162842063Y-58565277D01*
X162744693Y-58677050D01*
X162734534Y-58685914D01*
X162637514Y-58755879D01*
X162533635Y-58801244D01*
X162411629Y-58825192D01*
X162260230Y-58830904D01*
X162223853Y-58830090D01*
X162115736Y-58824761D01*
X162035319Y-58813880D01*
X161964973Y-58793462D01*
X161887069Y-58759520D01*
X161865690Y-58749117D01*
X161743846Y-58677141D01*
X161649791Y-58591496D01*
X161624203Y-58560884D01*
X161534464Y-58447356D01*
X161534464Y-58053855D01*
X161535540Y-57895860D01*
X161538935Y-57779441D01*
X161544898Y-57700865D01*
X161553679Y-57656399D01*
X161561885Y-57643408D01*
X161593878Y-57637052D01*
X161661746Y-57631784D01*
X161756013Y-57628101D01*
X161867200Y-57626499D01*
X161885055Y-57626469D01*
X162127684Y-57637023D01*
X162333941Y-57669502D01*
X162507821Y-57725145D01*
X162653319Y-57805195D01*
X162763669Y-57899514D01*
X162853161Y-58015804D01*
X162902830Y-58142463D01*
X162917359Y-58286280D01*
X164444020Y-58286280D01*
X164440267Y-58104331D01*
X164423504Y-57945828D01*
X164390867Y-57802747D01*
X164339365Y-57660665D01*
X164291158Y-57555454D01*
X164173397Y-57364009D01*
X164016506Y-57187171D01*
X163825259Y-57028160D01*
X163604431Y-56890192D01*
X163358795Y-56776488D01*
X163093126Y-56690265D01*
X162963214Y-56660253D01*
X162689635Y-56615846D01*
X162391418Y-56586549D01*
X162087154Y-56573731D01*
X161832907Y-56577010D01*
X161507688Y-56590629D01*
X161522594Y-56472145D01*
X161561352Y-56272953D01*
X161623897Y-56110792D01*
X161711959Y-55984418D01*
X161827268Y-55892590D01*
X161971554Y-55834063D01*
X162146547Y-55807594D01*
X162353978Y-55811941D01*
X162430268Y-55819979D01*
X162713909Y-55870539D01*
X162988757Y-55952974D01*
X163178660Y-56029316D01*
X163269383Y-56068238D01*
X163346591Y-56099518D01*
X163399529Y-56118893D01*
X163414974Y-56123007D01*
X163434550Y-56104769D01*
X163468136Y-56046571D01*
X163516050Y-55947757D01*
X163578607Y-55807669D01*
X163656123Y-55625649D01*
X163669377Y-55593929D01*
X163729758Y-55448649D01*
X163783958Y-55317371D01*
X163829636Y-55205837D01*
X163864452Y-55119787D01*
X163886064Y-55064961D01*
X163892305Y-55047204D01*
X163872218Y-55037652D01*
X163819430Y-55027051D01*
X163762634Y-55019659D01*
X163702050Y-55010103D01*
X163606049Y-54991128D01*
X163483144Y-54964594D01*
X163341850Y-54932361D01*
X163190680Y-54896289D01*
X163133303Y-54882182D01*
X162922243Y-54830777D01*
X162746133Y-54790473D01*
X162596291Y-54759982D01*
X162464033Y-54738016D01*
X162340676Y-54723289D01*
X162217540Y-54714511D01*
X162085939Y-54710397D01*
X161969386Y-54709598D01*
X161628981Y-54722984D01*
X161628981Y-54722984D01*
G37*
X161628981Y-54722984D02*
X161323788Y-54763192D01*
X161052052Y-54830762D01*
X160812019Y-54926233D01*
X160601934Y-55050143D01*
X160446022Y-55177831D01*
X160307726Y-55326761D01*
X160199764Y-55487017D01*
X160113573Y-55672281D01*
X160082486Y-55758805D01*
X160056653Y-55837115D01*
X160034149Y-55909732D01*
X160014714Y-55980336D01*
X159998088Y-56052610D01*
X159984011Y-56130234D01*
X159972221Y-56216890D01*
X159962460Y-56316259D01*
X159954465Y-56432022D01*
X159947978Y-56567861D01*
X159942736Y-56727457D01*
X159938481Y-56914491D01*
X159934952Y-57132644D01*
X159931888Y-57385598D01*
X159929028Y-57677033D01*
X159926513Y-57963839D01*
X159923848Y-58277615D01*
X159921426Y-58549364D01*
X159918996Y-58782413D01*
X159916305Y-58980090D01*
X159913101Y-59145722D01*
X159909134Y-59282636D01*
X159904149Y-59394160D01*
X159897897Y-59483622D01*
X159890124Y-59554348D01*
X159880580Y-59609666D01*
X159869011Y-59652903D01*
X159855166Y-59687388D01*
X159838793Y-59716446D01*
X159819641Y-59743406D01*
X159797457Y-59771594D01*
X159788817Y-59782509D01*
X159757037Y-59828390D01*
X159742902Y-59859635D01*
X159742857Y-59860558D01*
X159764708Y-59864975D01*
X159826956Y-59869045D01*
X159924639Y-59872652D01*
X160052796Y-59875683D01*
X160206468Y-59878023D01*
X160380693Y-59879558D01*
X160570510Y-59880172D01*
X160592420Y-59880179D01*
X161441984Y-59880179D01*
X161448536Y-59687188D01*
X161455089Y-59494197D01*
X161579821Y-59596627D01*
X161775350Y-59732257D01*
X161996134Y-59842129D01*
X162169835Y-59902857D01*
X162308593Y-59932365D01*
X162476042Y-59952440D01*
X162656376Y-59962458D01*
X162833793Y-59961790D01*
X162992487Y-59949812D01*
X163065268Y-59938334D01*
X163346555Y-59862272D01*
X163600535Y-59752096D01*
X163825371Y-59609446D01*
X164019226Y-59435962D01*
X164180266Y-59233284D01*
X164306654Y-59003054D01*
X164395801Y-58749745D01*
X164420580Y-58636073D01*
X164435867Y-58511119D01*
X164443157Y-58360774D01*
X164444151Y-58292679D01*
X164444020Y-58286280D01*
X162917359Y-58286280D01*
X162898688Y-58437053D01*
X162842063Y-58565277D01*
X162744693Y-58677050D01*
X162734534Y-58685914D01*
X162637514Y-58755879D01*
X162533635Y-58801244D01*
X162411629Y-58825192D01*
X162260230Y-58830904D01*
X162223853Y-58830090D01*
X162115736Y-58824761D01*
X162035319Y-58813880D01*
X161964973Y-58793462D01*
X161887069Y-58759520D01*
X161865690Y-58749117D01*
X161743846Y-58677141D01*
X161649791Y-58591496D01*
X161624203Y-58560884D01*
X161534464Y-58447356D01*
X161534464Y-58053855D01*
X161535540Y-57895860D01*
X161538935Y-57779441D01*
X161544898Y-57700865D01*
X161553679Y-57656399D01*
X161561885Y-57643408D01*
X161593878Y-57637052D01*
X161661746Y-57631784D01*
X161756013Y-57628101D01*
X161867200Y-57626499D01*
X161885055Y-57626469D01*
X162127684Y-57637023D01*
X162333941Y-57669502D01*
X162507821Y-57725145D01*
X162653319Y-57805195D01*
X162763669Y-57899514D01*
X162853161Y-58015804D01*
X162902830Y-58142463D01*
X162917359Y-58286280D01*
X164444020Y-58286280D01*
X164440267Y-58104331D01*
X164423504Y-57945828D01*
X164390867Y-57802747D01*
X164339365Y-57660665D01*
X164291158Y-57555454D01*
X164173397Y-57364009D01*
X164016506Y-57187171D01*
X163825259Y-57028160D01*
X163604431Y-56890192D01*
X163358795Y-56776488D01*
X163093126Y-56690265D01*
X162963214Y-56660253D01*
X162689635Y-56615846D01*
X162391418Y-56586549D01*
X162087154Y-56573731D01*
X161832907Y-56577010D01*
X161507688Y-56590629D01*
X161522594Y-56472145D01*
X161561352Y-56272953D01*
X161623897Y-56110792D01*
X161711959Y-55984418D01*
X161827268Y-55892590D01*
X161971554Y-55834063D01*
X162146547Y-55807594D01*
X162353978Y-55811941D01*
X162430268Y-55819979D01*
X162713909Y-55870539D01*
X162988757Y-55952974D01*
X163178660Y-56029316D01*
X163269383Y-56068238D01*
X163346591Y-56099518D01*
X163399529Y-56118893D01*
X163414974Y-56123007D01*
X163434550Y-56104769D01*
X163468136Y-56046571D01*
X163516050Y-55947757D01*
X163578607Y-55807669D01*
X163656123Y-55625649D01*
X163669377Y-55593929D01*
X163729758Y-55448649D01*
X163783958Y-55317371D01*
X163829636Y-55205837D01*
X163864452Y-55119787D01*
X163886064Y-55064961D01*
X163892305Y-55047204D01*
X163872218Y-55037652D01*
X163819430Y-55027051D01*
X163762634Y-55019659D01*
X163702050Y-55010103D01*
X163606049Y-54991128D01*
X163483144Y-54964594D01*
X163341850Y-54932361D01*
X163190680Y-54896289D01*
X163133303Y-54882182D01*
X162922243Y-54830777D01*
X162746133Y-54790473D01*
X162596291Y-54759982D01*
X162464033Y-54738016D01*
X162340676Y-54723289D01*
X162217540Y-54714511D01*
X162085939Y-54710397D01*
X161969386Y-54709598D01*
X161628981Y-54722984D01*
G36*
X166340209Y-52879830D02*
X166018497Y-52922366D01*
X165689153Y-53003005D01*
X165348031Y-53122544D01*
X164990985Y-53281783D01*
X164968349Y-53292922D01*
X164852444Y-53349223D01*
X164748889Y-53397593D01*
X164665240Y-53434652D01*
X164609049Y-53457025D01*
X164589821Y-53462143D01*
X164551216Y-53472203D01*
X164541952Y-53480652D01*
X164552204Y-53501611D01*
X164584427Y-53554422D01*
X164634912Y-53633551D01*
X164699949Y-53733463D01*
X164775828Y-53848625D01*
X164858839Y-53973501D01*
X164945271Y-54102558D01*
X165031417Y-54230261D01*
X165113564Y-54351076D01*
X165188004Y-54459469D01*
X165251026Y-54549905D01*
X165298921Y-54616851D01*
X165327979Y-54654771D01*
X165331967Y-54659169D01*
X165352294Y-54649831D01*
X165397175Y-54615324D01*
X165458589Y-54562045D01*
X165490217Y-54532963D01*
X165684057Y-54381728D01*
X165898431Y-54270351D01*
X166130471Y-54199836D01*
X166377308Y-54171188D01*
X166516728Y-54173540D01*
X166760087Y-54208015D01*
X166979498Y-54280100D01*
X167175615Y-54390320D01*
X167349095Y-54539203D01*
X167500593Y-54727275D01*
X167630766Y-54955064D01*
X167705935Y-55129018D01*
X167794032Y-55401629D01*
X167858961Y-55697913D01*
X167900890Y-56010229D01*
X167919987Y-56330938D01*
X167916418Y-56652400D01*
X167890351Y-56966975D01*
X167841953Y-57267022D01*
X167771391Y-57544901D01*
X167678833Y-57792973D01*
X167646124Y-57861786D01*
X167509022Y-58090977D01*
X167347384Y-58284824D01*
X167163585Y-58441748D01*
X166959999Y-58560168D01*
X166738999Y-58638506D01*
X166502960Y-58675181D01*
X166419654Y-58677879D01*
X166175452Y-58655940D01*
X165933502Y-58590014D01*
X165696875Y-58481463D01*
X165468638Y-58331648D01*
X165285007Y-58174296D01*
X165191531Y-58084837D01*
X164827377Y-58682017D01*
X164736779Y-58831004D01*
X164653935Y-58968039D01*
X164581782Y-59088199D01*
X164523259Y-59186558D01*
X164481305Y-59258194D01*
X164458858Y-59298182D01*
X164455941Y-59304399D01*
X164472473Y-59323764D01*
X164523859Y-59358479D01*
X164603602Y-59405256D01*
X164705206Y-59460805D01*
X164822172Y-59521839D01*
X164948004Y-59585070D01*
X165076206Y-59647209D01*
X165200280Y-59704968D01*
X165313729Y-59755060D01*
X165410056Y-59794196D01*
X165457170Y-59811130D01*
X165725895Y-59887097D01*
X166002914Y-59937326D01*
X166299643Y-59963450D01*
X166554352Y-59968127D01*
X166690870Y-59965928D01*
X166822658Y-59961714D01*
X166938031Y-59956005D01*
X167025305Y-59949320D01*
X167053641Y-59945938D01*
X167332912Y-59888010D01*
X167617229Y-59797368D01*
X167893421Y-59679408D01*
X168148314Y-59539527D01*
X168304018Y-59433697D01*
X168559970Y-59216328D01*
X168797632Y-58962063D01*
X169012601Y-58677187D01*
X169200475Y-58367982D01*
X169356853Y-58040731D01*
X169444954Y-57805089D01*
X169545898Y-57436195D01*
X169613194Y-57045364D01*
X169646865Y-56641055D01*
X169646931Y-56231722D01*
X169613412Y-55825823D01*
X169546331Y-55431814D01*
X169445708Y-55058152D01*
X169438041Y-55034872D01*
X169311713Y-54709318D01*
X169157533Y-54412163D01*
X168970272Y-54134996D01*
X168744699Y-53869408D01*
X168656577Y-53778479D01*
X168383077Y-53529489D01*
X168101915Y-53323489D01*
X167808773Y-53158237D01*
X167499335Y-53031490D01*
X167169287Y-52941005D01*
X166977321Y-52905869D01*
X166658435Y-52874597D01*
X166340209Y-52879830D01*
X166340209Y-52879830D01*
G37*
X166340209Y-52879830D02*
X166018497Y-52922366D01*
X165689153Y-53003005D01*
X165348031Y-53122544D01*
X164990985Y-53281783D01*
X164968349Y-53292922D01*
X164852444Y-53349223D01*
X164748889Y-53397593D01*
X164665240Y-53434652D01*
X164609049Y-53457025D01*
X164589821Y-53462143D01*
X164551216Y-53472203D01*
X164541952Y-53480652D01*
X164552204Y-53501611D01*
X164584427Y-53554422D01*
X164634912Y-53633551D01*
X164699949Y-53733463D01*
X164775828Y-53848625D01*
X164858839Y-53973501D01*
X164945271Y-54102558D01*
X165031417Y-54230261D01*
X165113564Y-54351076D01*
X165188004Y-54459469D01*
X165251026Y-54549905D01*
X165298921Y-54616851D01*
X165327979Y-54654771D01*
X165331967Y-54659169D01*
X165352294Y-54649831D01*
X165397175Y-54615324D01*
X165458589Y-54562045D01*
X165490217Y-54532963D01*
X165684057Y-54381728D01*
X165898431Y-54270351D01*
X166130471Y-54199836D01*
X166377308Y-54171188D01*
X166516728Y-54173540D01*
X166760087Y-54208015D01*
X166979498Y-54280100D01*
X167175615Y-54390320D01*
X167349095Y-54539203D01*
X167500593Y-54727275D01*
X167630766Y-54955064D01*
X167705935Y-55129018D01*
X167794032Y-55401629D01*
X167858961Y-55697913D01*
X167900890Y-56010229D01*
X167919987Y-56330938D01*
X167916418Y-56652400D01*
X167890351Y-56966975D01*
X167841953Y-57267022D01*
X167771391Y-57544901D01*
X167678833Y-57792973D01*
X167646124Y-57861786D01*
X167509022Y-58090977D01*
X167347384Y-58284824D01*
X167163585Y-58441748D01*
X166959999Y-58560168D01*
X166738999Y-58638506D01*
X166502960Y-58675181D01*
X166419654Y-58677879D01*
X166175452Y-58655940D01*
X165933502Y-58590014D01*
X165696875Y-58481463D01*
X165468638Y-58331648D01*
X165285007Y-58174296D01*
X165191531Y-58084837D01*
X164827377Y-58682017D01*
X164736779Y-58831004D01*
X164653935Y-58968039D01*
X164581782Y-59088199D01*
X164523259Y-59186558D01*
X164481305Y-59258194D01*
X164458858Y-59298182D01*
X164455941Y-59304399D01*
X164472473Y-59323764D01*
X164523859Y-59358479D01*
X164603602Y-59405256D01*
X164705206Y-59460805D01*
X164822172Y-59521839D01*
X164948004Y-59585070D01*
X165076206Y-59647209D01*
X165200280Y-59704968D01*
X165313729Y-59755060D01*
X165410056Y-59794196D01*
X165457170Y-59811130D01*
X165725895Y-59887097D01*
X166002914Y-59937326D01*
X166299643Y-59963450D01*
X166554352Y-59968127D01*
X166690870Y-59965928D01*
X166822658Y-59961714D01*
X166938031Y-59956005D01*
X167025305Y-59949320D01*
X167053641Y-59945938D01*
X167332912Y-59888010D01*
X167617229Y-59797368D01*
X167893421Y-59679408D01*
X168148314Y-59539527D01*
X168304018Y-59433697D01*
X168559970Y-59216328D01*
X168797632Y-58962063D01*
X169012601Y-58677187D01*
X169200475Y-58367982D01*
X169356853Y-58040731D01*
X169444954Y-57805089D01*
X169545898Y-57436195D01*
X169613194Y-57045364D01*
X169646865Y-56641055D01*
X169646931Y-56231722D01*
X169613412Y-55825823D01*
X169546331Y-55431814D01*
X169445708Y-55058152D01*
X169438041Y-55034872D01*
X169311713Y-54709318D01*
X169157533Y-54412163D01*
X168970272Y-54134996D01*
X168744699Y-53869408D01*
X168656577Y-53778479D01*
X168383077Y-53529489D01*
X168101915Y-53323489D01*
X167808773Y-53158237D01*
X167499335Y-53031490D01*
X167169287Y-52941005D01*
X166977321Y-52905869D01*
X166658435Y-52874597D01*
X166340209Y-52879830D01*
G36*
X172919107Y-51955689D02*
X172897280Y-52184585D01*
X172833763Y-52400791D01*
X172731503Y-52599673D01*
X172593446Y-52776597D01*
X172422538Y-52926929D01*
X172227698Y-53043181D01*
X172014212Y-53122777D01*
X171799229Y-53160080D01*
X171586986Y-53157791D01*
X171381724Y-53118609D01*
X171187680Y-53045234D01*
X171009093Y-52940368D01*
X170850204Y-52806708D01*
X170715250Y-52646957D01*
X170608471Y-52463814D01*
X170534105Y-52259978D01*
X170496392Y-52038151D01*
X170492500Y-51937914D01*
X170492500Y-51761250D01*
X170388178Y-51761250D01*
X170315239Y-51766965D01*
X170261204Y-51790669D01*
X170206750Y-51838357D01*
X170129643Y-51915464D01*
X170129643Y-56318173D01*
X170129661Y-56844789D01*
X170129726Y-57327939D01*
X170129854Y-57769515D01*
X170130062Y-58171409D01*
X170130366Y-58535512D01*
X170130783Y-58863715D01*
X170131328Y-59157911D01*
X170132019Y-59419990D01*
X170132872Y-59651845D01*
X170133902Y-59855366D01*
X170135127Y-60032446D01*
X170136563Y-60184976D01*
X170138226Y-60314847D01*
X170140133Y-60423951D01*
X170142299Y-60514179D01*
X170144742Y-60587424D01*
X170147478Y-60645576D01*
X170150523Y-60690528D01*
X170153893Y-60724170D01*
X170157606Y-60748395D01*
X170161676Y-60765093D01*
X170166122Y-60776157D01*
X170168296Y-60779874D01*
X170176659Y-60793960D01*
X170183760Y-60806911D01*
X170191453Y-60818772D01*
X170201593Y-60829593D01*
X170216034Y-60839420D01*
X170236631Y-60848300D01*
X170265239Y-60856282D01*
X170303711Y-60863412D01*
X170353903Y-60869738D01*
X170417669Y-60875308D01*
X170496864Y-60880168D01*
X170593342Y-60884366D01*
X170708958Y-60887950D01*
X170845565Y-60890968D01*
X171005020Y-60893465D01*
X171189175Y-60895490D01*
X171399886Y-60897091D01*
X171639008Y-60898314D01*
X171908395Y-60899208D01*
X172209900Y-60899819D01*
X172545380Y-60900194D01*
X172916688Y-60900383D01*
X173325679Y-60900431D01*
X173774208Y-60900386D01*
X174264128Y-60900295D01*
X174797295Y-60900207D01*
X174874405Y-60900198D01*
X175410745Y-60900111D01*
X175903575Y-60899969D01*
X176354742Y-60899758D01*
X176766093Y-60899462D01*
X177139476Y-60899067D01*
X177476738Y-60898559D01*
X177779725Y-60897924D01*
X178050286Y-60897146D01*
X178290267Y-60896211D01*
X178501515Y-60895105D01*
X178685878Y-60893813D01*
X178845202Y-60892320D01*
X178981335Y-60890613D01*
X179096125Y-60888676D01*
X179191417Y-60886496D01*
X179269060Y-60884057D01*
X179330900Y-60881345D01*
X179378785Y-60878346D01*
X179414562Y-60875045D01*
X179440078Y-60871427D01*
X179457181Y-60867479D01*
X179465935Y-60864127D01*
X179482935Y-60856954D01*
X179498542Y-60851659D01*
X179512816Y-60846362D01*
X179525816Y-60839188D01*
X179537600Y-60828256D01*
X179548228Y-60811691D01*
X179557759Y-60787614D01*
X179566253Y-60754147D01*
X179573769Y-60709413D01*
X179580366Y-60651533D01*
X179586104Y-60578631D01*
X179591040Y-60488828D01*
X179595236Y-60380246D01*
X179598750Y-60251007D01*
X179601641Y-60099235D01*
X179603968Y-59923050D01*
X179605791Y-59720576D01*
X179607170Y-59489935D01*
X179608162Y-59229248D01*
X179608828Y-58936638D01*
X179609227Y-58610227D01*
X179609417Y-58248138D01*
X179609459Y-57848492D01*
X179609412Y-57409412D01*
X179609334Y-56929020D01*
X179609286Y-56405438D01*
X179609285Y-56320759D01*
X179609313Y-55792618D01*
X179609363Y-55307943D01*
X179609385Y-54864841D01*
X179609326Y-54461421D01*
X179609136Y-54095791D01*
X179608763Y-53766060D01*
X179608154Y-53470334D01*
X179607260Y-53206724D01*
X179606096Y-52985893D01*
X178997716Y-52985893D01*
X178917781Y-53102098D01*
X178895340Y-53133775D01*
X178875109Y-53161823D01*
X178856973Y-53188628D01*
X178840820Y-53216571D01*
X178826534Y-53248036D01*
X178814001Y-53285406D01*
X178803107Y-53331066D01*
X178793739Y-53387399D01*
X178785782Y-53456787D01*
X178779122Y-53541614D01*
X178773644Y-53644264D01*
X178769236Y-53767120D01*
X178765782Y-53912566D01*
X178763168Y-54082984D01*
X178761281Y-54280759D01*
X178760006Y-54508274D01*
X178759230Y-54767911D01*
X178758837Y-55062055D01*
X178758714Y-55393090D01*
X178758747Y-55763397D01*
X178758822Y-56175361D01*
X178758839Y-56421696D01*
X178758791Y-56857532D01*
X178758723Y-57250396D01*
X178758747Y-57602675D01*
X178758977Y-57916756D01*
X178759525Y-58195025D01*
X178760504Y-58439867D01*
X178762028Y-58653669D01*
X178764209Y-58838817D01*
X178767160Y-58997696D01*
X178770994Y-59132694D01*
X178775825Y-59246196D01*
X178781765Y-59340588D01*
X178788926Y-59418257D01*
X178797423Y-59481588D01*
X178807368Y-59532968D01*
X178818873Y-59574783D01*
X178832053Y-59609418D01*
X178847019Y-59639261D01*
X178863885Y-59666696D01*
X178882764Y-59694111D01*
X178903768Y-59723891D01*
X178916004Y-59741752D01*
X178993897Y-59857500D01*
X177926023Y-59857500D01*
X177678425Y-59857430D01*
X177472518Y-59857128D01*
X177304637Y-59856452D01*
X177171116Y-59855261D01*
X177068290Y-59853415D01*
X176992492Y-59850772D01*
X176940057Y-59847193D01*
X176907320Y-59842535D01*
X176890614Y-59836659D01*
X176886275Y-59829423D01*
X176890636Y-59820686D01*
X176893039Y-59817812D01*
X176943563Y-59743339D01*
X176995590Y-59637265D01*
X177043019Y-59512708D01*
X177059631Y-59459646D01*
X177068906Y-59423603D01*
X177076744Y-59381293D01*
X177083310Y-59328526D01*
X177088769Y-59261113D01*
X177093288Y-59174863D01*
X177097030Y-59065588D01*
X177100161Y-58929098D01*
X177102845Y-58761203D01*
X177105249Y-58557714D01*
X177107537Y-58314441D01*
X177108295Y-58224643D01*
X177110337Y-57973223D01*
X177111861Y-57763557D01*
X177112750Y-57592046D01*
X177112886Y-57455088D01*
X177112152Y-57349082D01*
X177110430Y-57270429D01*
X177107604Y-57215527D01*
X177103555Y-57180776D01*
X177098166Y-57162575D01*
X177091321Y-57157323D01*
X177082901Y-57161420D01*
X177073913Y-57170089D01*
X177053111Y-57196075D01*
X177008798Y-57254483D01*
X176944109Y-57341033D01*
X176862179Y-57451443D01*
X176766144Y-57581430D01*
X176659139Y-57726714D01*
X176544299Y-57883013D01*
X176424760Y-58046045D01*
X176303658Y-58211529D01*
X176184127Y-58375183D01*
X176069304Y-58532725D01*
X175962322Y-58679874D01*
X175866318Y-58812349D01*
X175784428Y-58925866D01*
X175719786Y-59016146D01*
X175675528Y-59078907D01*
X175666351Y-59092231D01*
X175620303Y-59166366D01*
X175566447Y-59262774D01*
X175515423Y-59362292D01*
X175508953Y-59375713D01*
X175465404Y-59472534D01*
X175440119Y-59547992D01*
X175428608Y-59619963D01*
X175426362Y-59704420D01*
X175427635Y-59857500D01*
X173108450Y-59857500D01*
X173291591Y-59669201D01*
X173385603Y-59568967D01*
X173486627Y-59455504D01*
X173579127Y-59346480D01*
X173620160Y-59295549D01*
X173681309Y-59216105D01*
X173761775Y-59109207D01*
X173859207Y-58978126D01*
X173971252Y-58826138D01*
X174095557Y-58656516D01*
X174229769Y-58472532D01*
X174371536Y-58277462D01*
X174518505Y-58074577D01*
X174668322Y-57867153D01*
X174818636Y-57658462D01*
X174967094Y-57451779D01*
X175111342Y-57250376D01*
X175249029Y-57057527D01*
X175377801Y-56876506D01*
X175495306Y-56710586D01*
X175599190Y-56563041D01*
X175687102Y-56437145D01*
X175756688Y-56336171D01*
X175805595Y-56263393D01*
X175831472Y-56222084D01*
X175835004Y-56213843D01*
X175819014Y-56191089D01*
X175777239Y-56136486D01*
X175712416Y-56053451D01*
X175627284Y-55945400D01*
X175524581Y-55815749D01*
X175407045Y-55667914D01*
X175277416Y-55505312D01*
X175138432Y-55331360D01*
X174992830Y-55149472D01*
X174843350Y-54963066D01*
X174723358Y-54813687D01*
X172692321Y-54813687D01*
X172680449Y-54839717D01*
X172651662Y-54884414D01*
X172649558Y-54887392D01*
X172611816Y-54947967D01*
X172572347Y-55021959D01*
X172564514Y-55038304D01*
X172557410Y-55055237D01*
X172551132Y-55075565D01*
X172545618Y-55102086D01*
X172540809Y-55137598D01*
X172536644Y-55184901D01*
X172533061Y-55246794D01*
X172530001Y-55326074D01*
X172527404Y-55425541D01*
X172525208Y-55547993D01*
X172523353Y-55696228D01*
X172521779Y-55873046D01*
X172520424Y-56081246D01*
X172519230Y-56323625D01*
X172518134Y-56602983D01*
X172517077Y-56922118D01*
X172516004Y-57281428D01*
X172514923Y-57653317D01*
X172514050Y-57982658D01*
X172513521Y-58272261D01*
X172513471Y-58524935D01*
X172514036Y-58743490D01*
X172515350Y-58930735D01*
X172517550Y-59089480D01*
X172520771Y-59222535D01*
X172525149Y-59332708D01*
X172530818Y-59422809D01*
X172537914Y-59495648D01*
X172546573Y-59554034D01*
X172556930Y-59600777D01*
X172569121Y-59638686D01*
X172583280Y-59670570D01*
X172599544Y-59699240D01*
X172618047Y-59727504D01*
X172635124Y-59752550D01*
X172669549Y-59805373D01*
X172689932Y-59840698D01*
X172692321Y-59847168D01*
X172670410Y-59849332D01*
X172607745Y-59851342D01*
X172508930Y-59853150D01*
X172378569Y-59854708D01*
X172221265Y-59855967D01*
X172041621Y-59856880D01*
X171844241Y-59857398D01*
X171705803Y-59857500D01*
X171494880Y-59857057D01*
X171300331Y-59855788D01*
X171126554Y-59853782D01*
X170977944Y-59851126D01*
X170858898Y-59847910D01*
X170773812Y-59844223D01*
X170727084Y-59840153D01*
X170719285Y-59837598D01*
X170734749Y-59807659D01*
X170750818Y-59791527D01*
X170777279Y-59757121D01*
X170811912Y-59696349D01*
X170835862Y-59647009D01*
X170889375Y-59528661D01*
X170895552Y-57164420D01*
X170901730Y-54800178D01*
X171797026Y-54800179D01*
X171993532Y-54800509D01*
X172175127Y-54801450D01*
X172336979Y-54802930D01*
X172474253Y-54804875D01*
X172582120Y-54807214D01*
X172655745Y-54809872D01*
X172690297Y-54812777D01*
X172692321Y-54813687D01*
X174723358Y-54813687D01*
X174692729Y-54775558D01*
X174543707Y-54590364D01*
X174399021Y-54410901D01*
X174261411Y-54240584D01*
X174133614Y-54082831D01*
X174018369Y-53941057D01*
X173918414Y-53818679D01*
X173836488Y-53719112D01*
X173802006Y-53677589D01*
X173628651Y-53475368D01*
X173474769Y-53308109D01*
X173336528Y-53171863D01*
X173210095Y-53062679D01*
X173191250Y-53047878D01*
X173111875Y-52986396D01*
X174248687Y-52986144D01*
X175385500Y-52985893D01*
X175374874Y-53082277D01*
X175381510Y-53197476D01*
X175424764Y-53334635D01*
X175505071Y-53494846D01*
X175596089Y-53640057D01*
X175628671Y-53685550D01*
X175685028Y-53760997D01*
X175761801Y-53862095D01*
X175855631Y-53984544D01*
X175963158Y-54124040D01*
X176081022Y-54276283D01*
X176205865Y-54436969D01*
X176334327Y-54601797D01*
X176463048Y-54766465D01*
X176588669Y-54926671D01*
X176707830Y-55078112D01*
X176817172Y-55216487D01*
X176913336Y-55337494D01*
X176992962Y-55436831D01*
X177052691Y-55510195D01*
X177089162Y-55553285D01*
X177095306Y-55559911D01*
X177101051Y-55543826D01*
X177105498Y-55482968D01*
X177108640Y-55377902D01*
X177110468Y-55229192D01*
X177110977Y-55037404D01*
X177110159Y-54803103D01*
X177108333Y-54562054D01*
X177105676Y-54296651D01*
X177102613Y-54072176D01*
X177098644Y-53884201D01*
X177093269Y-53728298D01*
X177085989Y-53600036D01*
X177076304Y-53494989D01*
X177063714Y-53408727D01*
X177047720Y-53336821D01*
X177027822Y-53274843D01*
X177003520Y-53218364D01*
X176974316Y-53162956D01*
X176944820Y-53112655D01*
X176868487Y-52985893D01*
X178997716Y-52985893D01*
X179606096Y-52985893D01*
X179606029Y-52973337D01*
X179604409Y-52768281D01*
X179602349Y-52589665D01*
X179599798Y-52435596D01*
X179596704Y-52304184D01*
X179593016Y-52193535D01*
X179588683Y-52101760D01*
X179583653Y-52026965D01*
X179577875Y-51967259D01*
X179571298Y-51920750D01*
X179563869Y-51885547D01*
X179555539Y-51859757D01*
X179546255Y-51841490D01*
X179535966Y-51828852D01*
X179524621Y-51819954D01*
X179512168Y-51812902D01*
X179498556Y-51805804D01*
X179486510Y-51798636D01*
X179475998Y-51793461D01*
X179459573Y-51788783D01*
X179435038Y-51784577D01*
X179400193Y-51780818D01*
X179352839Y-51777483D01*
X179290778Y-51774544D01*
X179211811Y-51771979D01*
X179113738Y-51769762D01*
X178994361Y-51767868D01*
X178851481Y-51766273D01*
X178682898Y-51764951D01*
X178486415Y-51763878D01*
X178259832Y-51763029D01*
X178000950Y-51762380D01*
X177707570Y-51761904D01*
X177377493Y-51761578D01*
X177008521Y-51761377D01*
X176598454Y-51761276D01*
X176174280Y-51761250D01*
X172919107Y-51761250D01*
X172919107Y-51955689D01*
X172919107Y-51955689D01*
G37*
X172919107Y-51955689D02*
X172897280Y-52184585D01*
X172833763Y-52400791D01*
X172731503Y-52599673D01*
X172593446Y-52776597D01*
X172422538Y-52926929D01*
X172227698Y-53043181D01*
X172014212Y-53122777D01*
X171799229Y-53160080D01*
X171586986Y-53157791D01*
X171381724Y-53118609D01*
X171187680Y-53045234D01*
X171009093Y-52940368D01*
X170850204Y-52806708D01*
X170715250Y-52646957D01*
X170608471Y-52463814D01*
X170534105Y-52259978D01*
X170496392Y-52038151D01*
X170492500Y-51937914D01*
X170492500Y-51761250D01*
X170388178Y-51761250D01*
X170315239Y-51766965D01*
X170261204Y-51790669D01*
X170206750Y-51838357D01*
X170129643Y-51915464D01*
X170129643Y-56318173D01*
X170129661Y-56844789D01*
X170129726Y-57327939D01*
X170129854Y-57769515D01*
X170130062Y-58171409D01*
X170130366Y-58535512D01*
X170130783Y-58863715D01*
X170131328Y-59157911D01*
X170132019Y-59419990D01*
X170132872Y-59651845D01*
X170133902Y-59855366D01*
X170135127Y-60032446D01*
X170136563Y-60184976D01*
X170138226Y-60314847D01*
X170140133Y-60423951D01*
X170142299Y-60514179D01*
X170144742Y-60587424D01*
X170147478Y-60645576D01*
X170150523Y-60690528D01*
X170153893Y-60724170D01*
X170157606Y-60748395D01*
X170161676Y-60765093D01*
X170166122Y-60776157D01*
X170168296Y-60779874D01*
X170176659Y-60793960D01*
X170183760Y-60806911D01*
X170191453Y-60818772D01*
X170201593Y-60829593D01*
X170216034Y-60839420D01*
X170236631Y-60848300D01*
X170265239Y-60856282D01*
X170303711Y-60863412D01*
X170353903Y-60869738D01*
X170417669Y-60875308D01*
X170496864Y-60880168D01*
X170593342Y-60884366D01*
X170708958Y-60887950D01*
X170845565Y-60890968D01*
X171005020Y-60893465D01*
X171189175Y-60895490D01*
X171399886Y-60897091D01*
X171639008Y-60898314D01*
X171908395Y-60899208D01*
X172209900Y-60899819D01*
X172545380Y-60900194D01*
X172916688Y-60900383D01*
X173325679Y-60900431D01*
X173774208Y-60900386D01*
X174264128Y-60900295D01*
X174797295Y-60900207D01*
X174874405Y-60900198D01*
X175410745Y-60900111D01*
X175903575Y-60899969D01*
X176354742Y-60899758D01*
X176766093Y-60899462D01*
X177139476Y-60899067D01*
X177476738Y-60898559D01*
X177779725Y-60897924D01*
X178050286Y-60897146D01*
X178290267Y-60896211D01*
X178501515Y-60895105D01*
X178685878Y-60893813D01*
X178845202Y-60892320D01*
X178981335Y-60890613D01*
X179096125Y-60888676D01*
X179191417Y-60886496D01*
X179269060Y-60884057D01*
X179330900Y-60881345D01*
X179378785Y-60878346D01*
X179414562Y-60875045D01*
X179440078Y-60871427D01*
X179457181Y-60867479D01*
X179465935Y-60864127D01*
X179482935Y-60856954D01*
X179498542Y-60851659D01*
X179512816Y-60846362D01*
X179525816Y-60839188D01*
X179537600Y-60828256D01*
X179548228Y-60811691D01*
X179557759Y-60787614D01*
X179566253Y-60754147D01*
X179573769Y-60709413D01*
X179580366Y-60651533D01*
X179586104Y-60578631D01*
X179591040Y-60488828D01*
X179595236Y-60380246D01*
X179598750Y-60251007D01*
X179601641Y-60099235D01*
X179603968Y-59923050D01*
X179605791Y-59720576D01*
X179607170Y-59489935D01*
X179608162Y-59229248D01*
X179608828Y-58936638D01*
X179609227Y-58610227D01*
X179609417Y-58248138D01*
X179609459Y-57848492D01*
X179609412Y-57409412D01*
X179609334Y-56929020D01*
X179609286Y-56405438D01*
X179609285Y-56320759D01*
X179609313Y-55792618D01*
X179609363Y-55307943D01*
X179609385Y-54864841D01*
X179609326Y-54461421D01*
X179609136Y-54095791D01*
X179608763Y-53766060D01*
X179608154Y-53470334D01*
X179607260Y-53206724D01*
X179606096Y-52985893D01*
X178997716Y-52985893D01*
X178917781Y-53102098D01*
X178895340Y-53133775D01*
X178875109Y-53161823D01*
X178856973Y-53188628D01*
X178840820Y-53216571D01*
X178826534Y-53248036D01*
X178814001Y-53285406D01*
X178803107Y-53331066D01*
X178793739Y-53387399D01*
X178785782Y-53456787D01*
X178779122Y-53541614D01*
X178773644Y-53644264D01*
X178769236Y-53767120D01*
X178765782Y-53912566D01*
X178763168Y-54082984D01*
X178761281Y-54280759D01*
X178760006Y-54508274D01*
X178759230Y-54767911D01*
X178758837Y-55062055D01*
X178758714Y-55393090D01*
X178758747Y-55763397D01*
X178758822Y-56175361D01*
X178758839Y-56421696D01*
X178758791Y-56857532D01*
X178758723Y-57250396D01*
X178758747Y-57602675D01*
X178758977Y-57916756D01*
X178759525Y-58195025D01*
X178760504Y-58439867D01*
X178762028Y-58653669D01*
X178764209Y-58838817D01*
X178767160Y-58997696D01*
X178770994Y-59132694D01*
X178775825Y-59246196D01*
X178781765Y-59340588D01*
X178788926Y-59418257D01*
X178797423Y-59481588D01*
X178807368Y-59532968D01*
X178818873Y-59574783D01*
X178832053Y-59609418D01*
X178847019Y-59639261D01*
X178863885Y-59666696D01*
X178882764Y-59694111D01*
X178903768Y-59723891D01*
X178916004Y-59741752D01*
X178993897Y-59857500D01*
X177926023Y-59857500D01*
X177678425Y-59857430D01*
X177472518Y-59857128D01*
X177304637Y-59856452D01*
X177171116Y-59855261D01*
X177068290Y-59853415D01*
X176992492Y-59850772D01*
X176940057Y-59847193D01*
X176907320Y-59842535D01*
X176890614Y-59836659D01*
X176886275Y-59829423D01*
X176890636Y-59820686D01*
X176893039Y-59817812D01*
X176943563Y-59743339D01*
X176995590Y-59637265D01*
X177043019Y-59512708D01*
X177059631Y-59459646D01*
X177068906Y-59423603D01*
X177076744Y-59381293D01*
X177083310Y-59328526D01*
X177088769Y-59261113D01*
X177093288Y-59174863D01*
X177097030Y-59065588D01*
X177100161Y-58929098D01*
X177102845Y-58761203D01*
X177105249Y-58557714D01*
X177107537Y-58314441D01*
X177108295Y-58224643D01*
X177110337Y-57973223D01*
X177111861Y-57763557D01*
X177112750Y-57592046D01*
X177112886Y-57455088D01*
X177112152Y-57349082D01*
X177110430Y-57270429D01*
X177107604Y-57215527D01*
X177103555Y-57180776D01*
X177098166Y-57162575D01*
X177091321Y-57157323D01*
X177082901Y-57161420D01*
X177073913Y-57170089D01*
X177053111Y-57196075D01*
X177008798Y-57254483D01*
X176944109Y-57341033D01*
X176862179Y-57451443D01*
X176766144Y-57581430D01*
X176659139Y-57726714D01*
X176544299Y-57883013D01*
X176424760Y-58046045D01*
X176303658Y-58211529D01*
X176184127Y-58375183D01*
X176069304Y-58532725D01*
X175962322Y-58679874D01*
X175866318Y-58812349D01*
X175784428Y-58925866D01*
X175719786Y-59016146D01*
X175675528Y-59078907D01*
X175666351Y-59092231D01*
X175620303Y-59166366D01*
X175566447Y-59262774D01*
X175515423Y-59362292D01*
X175508953Y-59375713D01*
X175465404Y-59472534D01*
X175440119Y-59547992D01*
X175428608Y-59619963D01*
X175426362Y-59704420D01*
X175427635Y-59857500D01*
X173108450Y-59857500D01*
X173291591Y-59669201D01*
X173385603Y-59568967D01*
X173486627Y-59455504D01*
X173579127Y-59346480D01*
X173620160Y-59295549D01*
X173681309Y-59216105D01*
X173761775Y-59109207D01*
X173859207Y-58978126D01*
X173971252Y-58826138D01*
X174095557Y-58656516D01*
X174229769Y-58472532D01*
X174371536Y-58277462D01*
X174518505Y-58074577D01*
X174668322Y-57867153D01*
X174818636Y-57658462D01*
X174967094Y-57451779D01*
X175111342Y-57250376D01*
X175249029Y-57057527D01*
X175377801Y-56876506D01*
X175495306Y-56710586D01*
X175599190Y-56563041D01*
X175687102Y-56437145D01*
X175756688Y-56336171D01*
X175805595Y-56263393D01*
X175831472Y-56222084D01*
X175835004Y-56213843D01*
X175819014Y-56191089D01*
X175777239Y-56136486D01*
X175712416Y-56053451D01*
X175627284Y-55945400D01*
X175524581Y-55815749D01*
X175407045Y-55667914D01*
X175277416Y-55505312D01*
X175138432Y-55331360D01*
X174992830Y-55149472D01*
X174843350Y-54963066D01*
X174723358Y-54813687D01*
X172692321Y-54813687D01*
X172680449Y-54839717D01*
X172651662Y-54884414D01*
X172649558Y-54887392D01*
X172611816Y-54947967D01*
X172572347Y-55021959D01*
X172564514Y-55038304D01*
X172557410Y-55055237D01*
X172551132Y-55075565D01*
X172545618Y-55102086D01*
X172540809Y-55137598D01*
X172536644Y-55184901D01*
X172533061Y-55246794D01*
X172530001Y-55326074D01*
X172527404Y-55425541D01*
X172525208Y-55547993D01*
X172523353Y-55696228D01*
X172521779Y-55873046D01*
X172520424Y-56081246D01*
X172519230Y-56323625D01*
X172518134Y-56602983D01*
X172517077Y-56922118D01*
X172516004Y-57281428D01*
X172514923Y-57653317D01*
X172514050Y-57982658D01*
X172513521Y-58272261D01*
X172513471Y-58524935D01*
X172514036Y-58743490D01*
X172515350Y-58930735D01*
X172517550Y-59089480D01*
X172520771Y-59222535D01*
X172525149Y-59332708D01*
X172530818Y-59422809D01*
X172537914Y-59495648D01*
X172546573Y-59554034D01*
X172556930Y-59600777D01*
X172569121Y-59638686D01*
X172583280Y-59670570D01*
X172599544Y-59699240D01*
X172618047Y-59727504D01*
X172635124Y-59752550D01*
X172669549Y-59805373D01*
X172689932Y-59840698D01*
X172692321Y-59847168D01*
X172670410Y-59849332D01*
X172607745Y-59851342D01*
X172508930Y-59853150D01*
X172378569Y-59854708D01*
X172221265Y-59855967D01*
X172041621Y-59856880D01*
X171844241Y-59857398D01*
X171705803Y-59857500D01*
X171494880Y-59857057D01*
X171300331Y-59855788D01*
X171126554Y-59853782D01*
X170977944Y-59851126D01*
X170858898Y-59847910D01*
X170773812Y-59844223D01*
X170727084Y-59840153D01*
X170719285Y-59837598D01*
X170734749Y-59807659D01*
X170750818Y-59791527D01*
X170777279Y-59757121D01*
X170811912Y-59696349D01*
X170835862Y-59647009D01*
X170889375Y-59528661D01*
X170895552Y-57164420D01*
X170901730Y-54800178D01*
X171797026Y-54800179D01*
X171993532Y-54800509D01*
X172175127Y-54801450D01*
X172336979Y-54802930D01*
X172474253Y-54804875D01*
X172582120Y-54807214D01*
X172655745Y-54809872D01*
X172690297Y-54812777D01*
X172692321Y-54813687D01*
X174723358Y-54813687D01*
X174692729Y-54775558D01*
X174543707Y-54590364D01*
X174399021Y-54410901D01*
X174261411Y-54240584D01*
X174133614Y-54082831D01*
X174018369Y-53941057D01*
X173918414Y-53818679D01*
X173836488Y-53719112D01*
X173802006Y-53677589D01*
X173628651Y-53475368D01*
X173474769Y-53308109D01*
X173336528Y-53171863D01*
X173210095Y-53062679D01*
X173191250Y-53047878D01*
X173111875Y-52986396D01*
X174248687Y-52986144D01*
X175385500Y-52985893D01*
X175374874Y-53082277D01*
X175381510Y-53197476D01*
X175424764Y-53334635D01*
X175505071Y-53494846D01*
X175596089Y-53640057D01*
X175628671Y-53685550D01*
X175685028Y-53760997D01*
X175761801Y-53862095D01*
X175855631Y-53984544D01*
X175963158Y-54124040D01*
X176081022Y-54276283D01*
X176205865Y-54436969D01*
X176334327Y-54601797D01*
X176463048Y-54766465D01*
X176588669Y-54926671D01*
X176707830Y-55078112D01*
X176817172Y-55216487D01*
X176913336Y-55337494D01*
X176992962Y-55436831D01*
X177052691Y-55510195D01*
X177089162Y-55553285D01*
X177095306Y-55559911D01*
X177101051Y-55543826D01*
X177105498Y-55482968D01*
X177108640Y-55377902D01*
X177110468Y-55229192D01*
X177110977Y-55037404D01*
X177110159Y-54803103D01*
X177108333Y-54562054D01*
X177105676Y-54296651D01*
X177102613Y-54072176D01*
X177098644Y-53884201D01*
X177093269Y-53728298D01*
X177085989Y-53600036D01*
X177076304Y-53494989D01*
X177063714Y-53408727D01*
X177047720Y-53336821D01*
X177027822Y-53274843D01*
X177003520Y-53218364D01*
X176974316Y-53162956D01*
X176944820Y-53112655D01*
X176868487Y-52985893D01*
X178997716Y-52985893D01*
X179606096Y-52985893D01*
X179606029Y-52973337D01*
X179604409Y-52768281D01*
X179602349Y-52589665D01*
X179599798Y-52435596D01*
X179596704Y-52304184D01*
X179593016Y-52193535D01*
X179588683Y-52101760D01*
X179583653Y-52026965D01*
X179577875Y-51967259D01*
X179571298Y-51920750D01*
X179563869Y-51885547D01*
X179555539Y-51859757D01*
X179546255Y-51841490D01*
X179535966Y-51828852D01*
X179524621Y-51819954D01*
X179512168Y-51812902D01*
X179498556Y-51805804D01*
X179486510Y-51798636D01*
X179475998Y-51793461D01*
X179459573Y-51788783D01*
X179435038Y-51784577D01*
X179400193Y-51780818D01*
X179352839Y-51777483D01*
X179290778Y-51774544D01*
X179211811Y-51771979D01*
X179113738Y-51769762D01*
X178994361Y-51767868D01*
X178851481Y-51766273D01*
X178682898Y-51764951D01*
X178486415Y-51763878D01*
X178259832Y-51763029D01*
X178000950Y-51762380D01*
X177707570Y-51761904D01*
X177377493Y-51761578D01*
X177008521Y-51761377D01*
X176598454Y-51761276D01*
X176174280Y-51761250D01*
X172919107Y-51761250D01*
X172919107Y-51955689D01*
G36*
X154486738Y-61569374D02*
X154423701Y-61614058D01*
X154368035Y-61669724D01*
X154368035Y-62291357D01*
X154368181Y-62475936D01*
X154368870Y-62620660D01*
X154370483Y-62731032D01*
X154373400Y-62812553D01*
X154377998Y-62870726D01*
X154384659Y-62911054D01*
X154393762Y-62939037D01*
X154405686Y-62960180D01*
X154415039Y-62972745D01*
X154476775Y-63022112D01*
X154547663Y-63027470D01*
X154612454Y-62997196D01*
X154633863Y-62979323D01*
X154648174Y-62955582D01*
X154656806Y-62917352D01*
X154661178Y-62856010D01*
X154662710Y-62762937D01*
X154662857Y-62691035D01*
X154662857Y-62420179D01*
X155660714Y-62420179D01*
X155660714Y-62666584D01*
X155661746Y-62779259D01*
X155665874Y-62856695D01*
X155674649Y-62908985D01*
X155689618Y-62946221D01*
X155707717Y-62972745D01*
X155769799Y-63021973D01*
X155840008Y-63027802D01*
X155907221Y-62992812D01*
X155925572Y-62974470D01*
X155938532Y-62950154D01*
X155947081Y-62912278D01*
X155952195Y-62853255D01*
X155954851Y-62765499D01*
X155956029Y-62641423D01*
X155956166Y-62612946D01*
X155957138Y-62379169D01*
X155957639Y-62186505D01*
X155957476Y-62030712D01*
X155956455Y-61907548D01*
X155954383Y-61812770D01*
X155951067Y-61742136D01*
X155946313Y-61691403D01*
X155939929Y-61656329D01*
X155931720Y-61632670D01*
X155921493Y-61616186D01*
X155910178Y-61603750D01*
X155846171Y-61563971D01*
X155779417Y-61569374D01*
X155716380Y-61614058D01*
X155690871Y-61642887D01*
X155674611Y-61674732D01*
X155665539Y-61720085D01*
X155661594Y-61789443D01*
X155660715Y-61893299D01*
X155660714Y-61897541D01*
X155660714Y-62125357D01*
X154662857Y-62125357D01*
X154662857Y-61887232D01*
X154661839Y-61777528D01*
X154657749Y-61703453D01*
X154649035Y-61655304D01*
X154634145Y-61623378D01*
X154617500Y-61603750D01*
X154553493Y-61563971D01*
X154486738Y-61569374D01*
X154486738Y-61569374D01*
G37*
X154486738Y-61569374D02*
X154423701Y-61614058D01*
X154368035Y-61669724D01*
X154368035Y-62291357D01*
X154368181Y-62475936D01*
X154368870Y-62620660D01*
X154370483Y-62731032D01*
X154373400Y-62812553D01*
X154377998Y-62870726D01*
X154384659Y-62911054D01*
X154393762Y-62939037D01*
X154405686Y-62960180D01*
X154415039Y-62972745D01*
X154476775Y-63022112D01*
X154547663Y-63027470D01*
X154612454Y-62997196D01*
X154633863Y-62979323D01*
X154648174Y-62955582D01*
X154656806Y-62917352D01*
X154661178Y-62856010D01*
X154662710Y-62762937D01*
X154662857Y-62691035D01*
X154662857Y-62420179D01*
X155660714Y-62420179D01*
X155660714Y-62666584D01*
X155661746Y-62779259D01*
X155665874Y-62856695D01*
X155674649Y-62908985D01*
X155689618Y-62946221D01*
X155707717Y-62972745D01*
X155769799Y-63021973D01*
X155840008Y-63027802D01*
X155907221Y-62992812D01*
X155925572Y-62974470D01*
X155938532Y-62950154D01*
X155947081Y-62912278D01*
X155952195Y-62853255D01*
X155954851Y-62765499D01*
X155956029Y-62641423D01*
X155956166Y-62612946D01*
X155957138Y-62379169D01*
X155957639Y-62186505D01*
X155957476Y-62030712D01*
X155956455Y-61907548D01*
X155954383Y-61812770D01*
X155951067Y-61742136D01*
X155946313Y-61691403D01*
X155939929Y-61656329D01*
X155931720Y-61632670D01*
X155921493Y-61616186D01*
X155910178Y-61603750D01*
X155846171Y-61563971D01*
X155779417Y-61569374D01*
X155716380Y-61614058D01*
X155690871Y-61642887D01*
X155674611Y-61674732D01*
X155665539Y-61720085D01*
X155661594Y-61789443D01*
X155660715Y-61893299D01*
X155660714Y-61897541D01*
X155660714Y-62125357D01*
X154662857Y-62125357D01*
X154662857Y-61887232D01*
X154661839Y-61777528D01*
X154657749Y-61703453D01*
X154649035Y-61655304D01*
X154634145Y-61623378D01*
X154617500Y-61603750D01*
X154553493Y-61563971D01*
X154486738Y-61569374D01*
G36*
X157029557Y-61558587D02*
X156871439Y-61559347D01*
X156748712Y-61560937D01*
X156656394Y-61563622D01*
X156589501Y-61567667D01*
X156543052Y-61573337D01*
X156512063Y-61580897D01*
X156491552Y-61590612D01*
X156481626Y-61598080D01*
X156430109Y-61663442D01*
X156423877Y-61731305D01*
X156455713Y-61792954D01*
X156476532Y-61817589D01*
X156498935Y-61834387D01*
X156531403Y-61844847D01*
X156582414Y-61850472D01*
X156660450Y-61852760D01*
X156773990Y-61853212D01*
X156796289Y-61853214D01*
X157089464Y-61853214D01*
X157089464Y-62397500D01*
X157089657Y-62569059D01*
X157090534Y-62701066D01*
X157092542Y-62799322D01*
X157096126Y-62869633D01*
X157101733Y-62917800D01*
X157109809Y-62949628D01*
X157120802Y-62970919D01*
X157134821Y-62987143D01*
X157200981Y-63027011D01*
X157270046Y-63023869D01*
X157332680Y-62978382D01*
X157337282Y-62972745D01*
X157352263Y-62951435D01*
X157363677Y-62926502D01*
X157372006Y-62891886D01*
X157377733Y-62841530D01*
X157381341Y-62769375D01*
X157383314Y-62669363D01*
X157384134Y-62535435D01*
X157384285Y-62383102D01*
X157384285Y-61853214D01*
X157664253Y-61853214D01*
X157784398Y-61852401D01*
X157867575Y-61849233D01*
X157922157Y-61842616D01*
X157956514Y-61831456D01*
X157979020Y-61814661D01*
X157981753Y-61811741D01*
X158014614Y-61744967D01*
X158011708Y-61669477D01*
X157973928Y-61603750D01*
X157959318Y-61591001D01*
X157940480Y-61580892D01*
X157912392Y-61573117D01*
X157870030Y-61567372D01*
X157808370Y-61563351D01*
X157722388Y-61560749D01*
X157607062Y-61559259D01*
X157457368Y-61558576D01*
X157268282Y-61558396D01*
X157228048Y-61558393D01*
X157029557Y-61558587D01*
X157029557Y-61558587D01*
G37*
X157029557Y-61558587D02*
X156871439Y-61559347D01*
X156748712Y-61560937D01*
X156656394Y-61563622D01*
X156589501Y-61567667D01*
X156543052Y-61573337D01*
X156512063Y-61580897D01*
X156491552Y-61590612D01*
X156481626Y-61598080D01*
X156430109Y-61663442D01*
X156423877Y-61731305D01*
X156455713Y-61792954D01*
X156476532Y-61817589D01*
X156498935Y-61834387D01*
X156531403Y-61844847D01*
X156582414Y-61850472D01*
X156660450Y-61852760D01*
X156773990Y-61853212D01*
X156796289Y-61853214D01*
X157089464Y-61853214D01*
X157089464Y-62397500D01*
X157089657Y-62569059D01*
X157090534Y-62701066D01*
X157092542Y-62799322D01*
X157096126Y-62869633D01*
X157101733Y-62917800D01*
X157109809Y-62949628D01*
X157120802Y-62970919D01*
X157134821Y-62987143D01*
X157200981Y-63027011D01*
X157270046Y-63023869D01*
X157332680Y-62978382D01*
X157337282Y-62972745D01*
X157352263Y-62951435D01*
X157363677Y-62926502D01*
X157372006Y-62891886D01*
X157377733Y-62841530D01*
X157381341Y-62769375D01*
X157383314Y-62669363D01*
X157384134Y-62535435D01*
X157384285Y-62383102D01*
X157384285Y-61853214D01*
X157664253Y-61853214D01*
X157784398Y-61852401D01*
X157867575Y-61849233D01*
X157922157Y-61842616D01*
X157956514Y-61831456D01*
X157979020Y-61814661D01*
X157981753Y-61811741D01*
X158014614Y-61744967D01*
X158011708Y-61669477D01*
X157973928Y-61603750D01*
X157959318Y-61591001D01*
X157940480Y-61580892D01*
X157912392Y-61573117D01*
X157870030Y-61567372D01*
X157808370Y-61563351D01*
X157722388Y-61560749D01*
X157607062Y-61559259D01*
X157457368Y-61558576D01*
X157268282Y-61558396D01*
X157228048Y-61558393D01*
X157029557Y-61558587D01*
G36*
X158585373Y-61572074D02*
X158537735Y-61601746D01*
X158484196Y-61645100D01*
X158484196Y-62291062D01*
X158484367Y-62480015D01*
X158485097Y-62628881D01*
X158486715Y-62742932D01*
X158489549Y-62827436D01*
X158493928Y-62887663D01*
X158500179Y-62928885D01*
X158508631Y-62956370D01*
X158519612Y-62975390D01*
X158527399Y-62984762D01*
X158590557Y-63025931D01*
X158662477Y-63024252D01*
X158725478Y-62989147D01*
X158779018Y-62945793D01*
X158779018Y-61645100D01*
X158725478Y-61601746D01*
X158673805Y-61570210D01*
X158631607Y-61558393D01*
X158585373Y-61572074D01*
X158585373Y-61572074D01*
G37*
X158585373Y-61572074D02*
X158537735Y-61601746D01*
X158484196Y-61645100D01*
X158484196Y-62291062D01*
X158484367Y-62480015D01*
X158485097Y-62628881D01*
X158486715Y-62742932D01*
X158489549Y-62827436D01*
X158493928Y-62887663D01*
X158500179Y-62928885D01*
X158508631Y-62956370D01*
X158519612Y-62975390D01*
X158527399Y-62984762D01*
X158590557Y-63025931D01*
X158662477Y-63024252D01*
X158725478Y-62989147D01*
X158779018Y-62945793D01*
X158779018Y-61645100D01*
X158725478Y-61601746D01*
X158673805Y-61570210D01*
X158631607Y-61558393D01*
X158585373Y-61572074D01*
G36*
X159477235Y-61562345D02*
X159437881Y-61576409D01*
X159436362Y-61577097D01*
X159382920Y-61617881D01*
X159353475Y-61659832D01*
X159347713Y-61679501D01*
X159347998Y-61705637D01*
X159356105Y-61742868D01*
X159373812Y-61795828D01*
X159402896Y-61869145D01*
X159445133Y-61967451D01*
X159502300Y-62095376D01*
X159576174Y-62257552D01*
X159616836Y-62346193D01*
X159690261Y-62504435D01*
X159759189Y-62649957D01*
X159820988Y-62777437D01*
X159873029Y-62881556D01*
X159912679Y-62956993D01*
X159937309Y-62998428D01*
X159942183Y-63004152D01*
X160004542Y-63029402D01*
X160074980Y-63026020D01*
X160131472Y-62995310D01*
X160133774Y-62992812D01*
X160156246Y-62958792D01*
X160193942Y-62892528D01*
X160242214Y-62802549D01*
X160296412Y-62697386D01*
X160315890Y-62658633D01*
X160462918Y-62364140D01*
X160623177Y-62684049D01*
X160680379Y-62794583D01*
X160733449Y-62890444D01*
X160778051Y-62964293D01*
X160809850Y-63008793D01*
X160820627Y-63018229D01*
X160904394Y-63031009D01*
X160973516Y-63004152D01*
X160993849Y-62975449D01*
X161029034Y-62911658D01*
X161076201Y-62819056D01*
X161132480Y-62703920D01*
X161195001Y-62572526D01*
X161260893Y-62431152D01*
X161327286Y-62286074D01*
X161391310Y-62143570D01*
X161450094Y-62009917D01*
X161500768Y-61891391D01*
X161540462Y-61794269D01*
X161566305Y-61724829D01*
X161575428Y-61689347D01*
X161575335Y-61688062D01*
X161553139Y-61643414D01*
X161508774Y-61597940D01*
X161506161Y-61595962D01*
X161451634Y-61565140D01*
X161401199Y-61565438D01*
X161382296Y-61571249D01*
X161359261Y-61583807D01*
X161334800Y-61608511D01*
X161305978Y-61650484D01*
X161269860Y-61714852D01*
X161223512Y-61806740D01*
X161164001Y-61931271D01*
X161110333Y-62046223D01*
X161048588Y-62179472D01*
X160993260Y-62299300D01*
X160947223Y-62399448D01*
X160913350Y-62473655D01*
X160894518Y-62515661D01*
X160891771Y-62522232D01*
X160879418Y-62511490D01*
X160851027Y-62466513D01*
X160810375Y-62393865D01*
X160761241Y-62300111D01*
X160741689Y-62261429D01*
X160675455Y-62130812D01*
X160624376Y-62035688D01*
X160584260Y-61970529D01*
X160550916Y-61929802D01*
X160520151Y-61907978D01*
X160487775Y-61899526D01*
X160466676Y-61898571D01*
X160429458Y-61901869D01*
X160396844Y-61915509D01*
X160364438Y-61945111D01*
X160327844Y-61996293D01*
X160282666Y-62074675D01*
X160224508Y-62185877D01*
X160192420Y-62249135D01*
X160140372Y-62349952D01*
X160094976Y-62433557D01*
X160060240Y-62492897D01*
X160040167Y-62520916D01*
X160037437Y-62522083D01*
X160024474Y-62500031D01*
X159995451Y-62442770D01*
X159953275Y-62356293D01*
X159900852Y-62246593D01*
X159841089Y-62119663D01*
X159811691Y-62056616D01*
X159735212Y-61893907D01*
X159673628Y-61768706D01*
X159623742Y-61676928D01*
X159582357Y-61614487D01*
X159546276Y-61577300D01*
X159512301Y-61561281D01*
X159477235Y-61562345D01*
X159477235Y-61562345D01*
G37*
X159477235Y-61562345D02*
X159437881Y-61576409D01*
X159436362Y-61577097D01*
X159382920Y-61617881D01*
X159353475Y-61659832D01*
X159347713Y-61679501D01*
X159347998Y-61705637D01*
X159356105Y-61742868D01*
X159373812Y-61795828D01*
X159402896Y-61869145D01*
X159445133Y-61967451D01*
X159502300Y-62095376D01*
X159576174Y-62257552D01*
X159616836Y-62346193D01*
X159690261Y-62504435D01*
X159759189Y-62649957D01*
X159820988Y-62777437D01*
X159873029Y-62881556D01*
X159912679Y-62956993D01*
X159937309Y-62998428D01*
X159942183Y-63004152D01*
X160004542Y-63029402D01*
X160074980Y-63026020D01*
X160131472Y-62995310D01*
X160133774Y-62992812D01*
X160156246Y-62958792D01*
X160193942Y-62892528D01*
X160242214Y-62802549D01*
X160296412Y-62697386D01*
X160315890Y-62658633D01*
X160462918Y-62364140D01*
X160623177Y-62684049D01*
X160680379Y-62794583D01*
X160733449Y-62890444D01*
X160778051Y-62964293D01*
X160809850Y-63008793D01*
X160820627Y-63018229D01*
X160904394Y-63031009D01*
X160973516Y-63004152D01*
X160993849Y-62975449D01*
X161029034Y-62911658D01*
X161076201Y-62819056D01*
X161132480Y-62703920D01*
X161195001Y-62572526D01*
X161260893Y-62431152D01*
X161327286Y-62286074D01*
X161391310Y-62143570D01*
X161450094Y-62009917D01*
X161500768Y-61891391D01*
X161540462Y-61794269D01*
X161566305Y-61724829D01*
X161575428Y-61689347D01*
X161575335Y-61688062D01*
X161553139Y-61643414D01*
X161508774Y-61597940D01*
X161506161Y-61595962D01*
X161451634Y-61565140D01*
X161401199Y-61565438D01*
X161382296Y-61571249D01*
X161359261Y-61583807D01*
X161334800Y-61608511D01*
X161305978Y-61650484D01*
X161269860Y-61714852D01*
X161223512Y-61806740D01*
X161164001Y-61931271D01*
X161110333Y-62046223D01*
X161048588Y-62179472D01*
X160993260Y-62299300D01*
X160947223Y-62399448D01*
X160913350Y-62473655D01*
X160894518Y-62515661D01*
X160891771Y-62522232D01*
X160879418Y-62511490D01*
X160851027Y-62466513D01*
X160810375Y-62393865D01*
X160761241Y-62300111D01*
X160741689Y-62261429D01*
X160675455Y-62130812D01*
X160624376Y-62035688D01*
X160584260Y-61970529D01*
X160550916Y-61929802D01*
X160520151Y-61907978D01*
X160487775Y-61899526D01*
X160466676Y-61898571D01*
X160429458Y-61901869D01*
X160396844Y-61915509D01*
X160364438Y-61945111D01*
X160327844Y-61996293D01*
X160282666Y-62074675D01*
X160224508Y-62185877D01*
X160192420Y-62249135D01*
X160140372Y-62349952D01*
X160094976Y-62433557D01*
X160060240Y-62492897D01*
X160040167Y-62520916D01*
X160037437Y-62522083D01*
X160024474Y-62500031D01*
X159995451Y-62442770D01*
X159953275Y-62356293D01*
X159900852Y-62246593D01*
X159841089Y-62119663D01*
X159811691Y-62056616D01*
X159735212Y-61893907D01*
X159673628Y-61768706D01*
X159623742Y-61676928D01*
X159582357Y-61614487D01*
X159546276Y-61577300D01*
X159512301Y-61561281D01*
X159477235Y-61562345D01*
G36*
X164954290Y-61558811D02*
X164695179Y-61567572D01*
X164474794Y-61594140D01*
X164289501Y-61640105D01*
X164135665Y-61707060D01*
X164009654Y-61796593D01*
X163907833Y-61910296D01*
X163826569Y-62049759D01*
X163824970Y-62053160D01*
X163776471Y-62177979D01*
X163759191Y-62288523D01*
X163773195Y-62399774D01*
X163818552Y-62526710D01*
X163827154Y-62546026D01*
X163885814Y-62659083D01*
X163951740Y-62746442D01*
X164036826Y-62820704D01*
X164152966Y-62894468D01*
X164159713Y-62898319D01*
X164260816Y-62946885D01*
X164375091Y-62983156D01*
X164509879Y-63008383D01*
X164672525Y-63023816D01*
X164870371Y-63030708D01*
X164940273Y-63031307D01*
X165273136Y-63032500D01*
X165320139Y-62972745D01*
X165334082Y-62953096D01*
X165344959Y-62930150D01*
X165353149Y-62898406D01*
X165359033Y-62852359D01*
X165362989Y-62786510D01*
X165364279Y-62737679D01*
X165049643Y-62737679D01*
X164861040Y-62737679D01*
X164750675Y-62734451D01*
X164637379Y-62725958D01*
X164544395Y-62713980D01*
X164538782Y-62712971D01*
X164373630Y-62668665D01*
X164245530Y-62602099D01*
X164150430Y-62510184D01*
X164084277Y-62389832D01*
X164072773Y-62357935D01*
X164061498Y-62308257D01*
X164066380Y-62259177D01*
X164090133Y-62193884D01*
X164104451Y-62161809D01*
X164151338Y-62076574D01*
X164207829Y-62016776D01*
X164269985Y-61975134D01*
X164394488Y-61920945D01*
X164553826Y-61881692D01*
X164739447Y-61859089D01*
X164873884Y-61854114D01*
X165049643Y-61853214D01*
X165049643Y-62737679D01*
X165364279Y-62737679D01*
X165365398Y-62695355D01*
X165366639Y-62573392D01*
X165367092Y-62415118D01*
X165367143Y-62291357D01*
X165367143Y-61669724D01*
X165311477Y-61614058D01*
X165286772Y-61591495D01*
X165260059Y-61576043D01*
X165222756Y-61566375D01*
X165166277Y-61561164D01*
X165082042Y-61559082D01*
X164961465Y-61558801D01*
X164954290Y-61558811D01*
X164954290Y-61558811D01*
G37*
X164954290Y-61558811D02*
X164695179Y-61567572D01*
X164474794Y-61594140D01*
X164289501Y-61640105D01*
X164135665Y-61707060D01*
X164009654Y-61796593D01*
X163907833Y-61910296D01*
X163826569Y-62049759D01*
X163824970Y-62053160D01*
X163776471Y-62177979D01*
X163759191Y-62288523D01*
X163773195Y-62399774D01*
X163818552Y-62526710D01*
X163827154Y-62546026D01*
X163885814Y-62659083D01*
X163951740Y-62746442D01*
X164036826Y-62820704D01*
X164152966Y-62894468D01*
X164159713Y-62898319D01*
X164260816Y-62946885D01*
X164375091Y-62983156D01*
X164509879Y-63008383D01*
X164672525Y-63023816D01*
X164870371Y-63030708D01*
X164940273Y-63031307D01*
X165273136Y-63032500D01*
X165320139Y-62972745D01*
X165334082Y-62953096D01*
X165344959Y-62930150D01*
X165353149Y-62898406D01*
X165359033Y-62852359D01*
X165362989Y-62786510D01*
X165364279Y-62737679D01*
X165049643Y-62737679D01*
X164861040Y-62737679D01*
X164750675Y-62734451D01*
X164637379Y-62725958D01*
X164544395Y-62713980D01*
X164538782Y-62712971D01*
X164373630Y-62668665D01*
X164245530Y-62602099D01*
X164150430Y-62510184D01*
X164084277Y-62389832D01*
X164072773Y-62357935D01*
X164061498Y-62308257D01*
X164066380Y-62259177D01*
X164090133Y-62193884D01*
X164104451Y-62161809D01*
X164151338Y-62076574D01*
X164207829Y-62016776D01*
X164269985Y-61975134D01*
X164394488Y-61920945D01*
X164553826Y-61881692D01*
X164739447Y-61859089D01*
X164873884Y-61854114D01*
X165049643Y-61853214D01*
X165049643Y-62737679D01*
X165364279Y-62737679D01*
X165365398Y-62695355D01*
X165366639Y-62573392D01*
X165367092Y-62415118D01*
X165367143Y-62291357D01*
X165367143Y-61669724D01*
X165311477Y-61614058D01*
X165286772Y-61591495D01*
X165260059Y-61576043D01*
X165222756Y-61566375D01*
X165166277Y-61561164D01*
X165082042Y-61559082D01*
X164961465Y-61558801D01*
X164954290Y-61558811D01*
G36*
X166537257Y-61558780D02*
X166383858Y-61560617D01*
X166266305Y-61564911D01*
X166179844Y-61572672D01*
X166119720Y-61584910D01*
X166081180Y-61602635D01*
X166059468Y-61626856D01*
X166049830Y-61658582D01*
X166047512Y-61698823D01*
X166047500Y-61703575D01*
X166049512Y-61749091D01*
X166059025Y-61784269D01*
X166081249Y-61810528D01*
X166121398Y-61829289D01*
X166184684Y-61841973D01*
X166276318Y-61849999D01*
X166401513Y-61854789D01*
X166565481Y-61857761D01*
X166615737Y-61858420D01*
X167102053Y-61864554D01*
X167108855Y-61994955D01*
X167115656Y-62125357D01*
X166777861Y-62125357D01*
X166645893Y-62125844D01*
X166551663Y-62127903D01*
X166487555Y-62132432D01*
X166445956Y-62140330D01*
X166419250Y-62152495D01*
X166399822Y-62169825D01*
X166399698Y-62169963D01*
X166364463Y-62237501D01*
X166365737Y-62310498D01*
X166402716Y-62372725D01*
X166410035Y-62379121D01*
X166436010Y-62395605D01*
X166471603Y-62407073D01*
X166524747Y-62414388D01*
X166603372Y-62418415D01*
X166715410Y-62420017D01*
X166787066Y-62420179D01*
X167113393Y-62420179D01*
X167113393Y-62737679D01*
X166617979Y-62737679D01*
X166454414Y-62737965D01*
X166330203Y-62739134D01*
X166239345Y-62741654D01*
X166175840Y-62745992D01*
X166133687Y-62752614D01*
X166106884Y-62761987D01*
X166089431Y-62774579D01*
X166085033Y-62779152D01*
X166052560Y-62842526D01*
X166050184Y-62914624D01*
X166076825Y-62977135D01*
X166097903Y-62997196D01*
X166119830Y-63008240D01*
X166153805Y-63016785D01*
X166205202Y-63023129D01*
X166279395Y-63027572D01*
X166381759Y-63030413D01*
X166517667Y-63031952D01*
X166692495Y-63032487D01*
X166732020Y-63032500D01*
X166909776Y-63032384D01*
X167047758Y-63031742D01*
X167151544Y-63030134D01*
X167226717Y-63027121D01*
X167278859Y-63022263D01*
X167313549Y-63015121D01*
X167336370Y-63005254D01*
X167352903Y-62992223D01*
X167361973Y-62982866D01*
X167375626Y-62966294D01*
X167386292Y-62945764D01*
X167394340Y-62915893D01*
X167400136Y-62871298D01*
X167404047Y-62806594D01*
X167406443Y-62716397D01*
X167407690Y-62595324D01*
X167408156Y-62437990D01*
X167408214Y-62305568D01*
X167408071Y-62120012D01*
X167407394Y-61974342D01*
X167405808Y-61863088D01*
X167402939Y-61780778D01*
X167398413Y-61721943D01*
X167391856Y-61681111D01*
X167382894Y-61652812D01*
X167371153Y-61631575D01*
X167361211Y-61618148D01*
X167314208Y-61558393D01*
X166731257Y-61558393D01*
X166537257Y-61558780D01*
X166537257Y-61558780D01*
G37*
X166537257Y-61558780D02*
X166383858Y-61560617D01*
X166266305Y-61564911D01*
X166179844Y-61572672D01*
X166119720Y-61584910D01*
X166081180Y-61602635D01*
X166059468Y-61626856D01*
X166049830Y-61658582D01*
X166047512Y-61698823D01*
X166047500Y-61703575D01*
X166049512Y-61749091D01*
X166059025Y-61784269D01*
X166081249Y-61810528D01*
X166121398Y-61829289D01*
X166184684Y-61841973D01*
X166276318Y-61849999D01*
X166401513Y-61854789D01*
X166565481Y-61857761D01*
X166615737Y-61858420D01*
X167102053Y-61864554D01*
X167108855Y-61994955D01*
X167115656Y-62125357D01*
X166777861Y-62125357D01*
X166645893Y-62125844D01*
X166551663Y-62127903D01*
X166487555Y-62132432D01*
X166445956Y-62140330D01*
X166419250Y-62152495D01*
X166399822Y-62169825D01*
X166399698Y-62169963D01*
X166364463Y-62237501D01*
X166365737Y-62310498D01*
X166402716Y-62372725D01*
X166410035Y-62379121D01*
X166436010Y-62395605D01*
X166471603Y-62407073D01*
X166524747Y-62414388D01*
X166603372Y-62418415D01*
X166715410Y-62420017D01*
X166787066Y-62420179D01*
X167113393Y-62420179D01*
X167113393Y-62737679D01*
X166617979Y-62737679D01*
X166454414Y-62737965D01*
X166330203Y-62739134D01*
X166239345Y-62741654D01*
X166175840Y-62745992D01*
X166133687Y-62752614D01*
X166106884Y-62761987D01*
X166089431Y-62774579D01*
X166085033Y-62779152D01*
X166052560Y-62842526D01*
X166050184Y-62914624D01*
X166076825Y-62977135D01*
X166097903Y-62997196D01*
X166119830Y-63008240D01*
X166153805Y-63016785D01*
X166205202Y-63023129D01*
X166279395Y-63027572D01*
X166381759Y-63030413D01*
X166517667Y-63031952D01*
X166692495Y-63032487D01*
X166732020Y-63032500D01*
X166909776Y-63032384D01*
X167047758Y-63031742D01*
X167151544Y-63030134D01*
X167226717Y-63027121D01*
X167278859Y-63022263D01*
X167313549Y-63015121D01*
X167336370Y-63005254D01*
X167352903Y-62992223D01*
X167361973Y-62982866D01*
X167375626Y-62966294D01*
X167386292Y-62945764D01*
X167394340Y-62915893D01*
X167400136Y-62871298D01*
X167404047Y-62806594D01*
X167406443Y-62716397D01*
X167407690Y-62595324D01*
X167408156Y-62437990D01*
X167408214Y-62305568D01*
X167408071Y-62120012D01*
X167407394Y-61974342D01*
X167405808Y-61863088D01*
X167402939Y-61780778D01*
X167398413Y-61721943D01*
X167391856Y-61681111D01*
X167382894Y-61652812D01*
X167371153Y-61631575D01*
X167361211Y-61618148D01*
X167314208Y-61558393D01*
X166731257Y-61558393D01*
X166537257Y-61558780D01*
G36*
X169611835Y-61567195D02*
X169564493Y-61594967D01*
X169502592Y-61640385D01*
X169422923Y-61705589D01*
X169322280Y-61792717D01*
X169197452Y-61903910D01*
X169045232Y-62041307D01*
X168870982Y-62199276D01*
X168508125Y-62528327D01*
X168496785Y-62086665D01*
X168492691Y-61934634D01*
X168488742Y-61821417D01*
X168484062Y-61740480D01*
X168477779Y-61685293D01*
X168469018Y-61649322D01*
X168456906Y-61626035D01*
X168440569Y-61608899D01*
X168431907Y-61601698D01*
X168362537Y-61563623D01*
X168296527Y-61569190D01*
X168244164Y-61601717D01*
X168190625Y-61645042D01*
X168183966Y-62277759D01*
X168182123Y-62463841D01*
X168181185Y-62610021D01*
X168181477Y-62721751D01*
X168183323Y-62804482D01*
X168187050Y-62863666D01*
X168192980Y-62904753D01*
X168201440Y-62933196D01*
X168212753Y-62954445D01*
X168225300Y-62971488D01*
X168252444Y-63003095D01*
X168279453Y-63024046D01*
X168310070Y-63032088D01*
X168348043Y-63024965D01*
X168397118Y-63000426D01*
X168461040Y-62956214D01*
X168543555Y-62890076D01*
X168648410Y-62799759D01*
X168779351Y-62683008D01*
X168927678Y-62548859D01*
X169460625Y-62065429D01*
X169471964Y-62505647D01*
X169476065Y-62657401D01*
X169480025Y-62770354D01*
X169484721Y-62851052D01*
X169491033Y-62906041D01*
X169499837Y-62941865D01*
X169512012Y-62965070D01*
X169528437Y-62982201D01*
X169536843Y-62989183D01*
X169611134Y-63027534D01*
X169681332Y-63021749D01*
X169742461Y-62972745D01*
X169756445Y-62953030D01*
X169767344Y-62930006D01*
X169775541Y-62898149D01*
X169781420Y-62851935D01*
X169785364Y-62785840D01*
X169787756Y-62694339D01*
X169788979Y-62571911D01*
X169789418Y-62413029D01*
X169789464Y-62295446D01*
X169789317Y-62111533D01*
X169788619Y-61967452D01*
X169786987Y-61857680D01*
X169784039Y-61776693D01*
X169779389Y-61718968D01*
X169772657Y-61678981D01*
X169763457Y-61651207D01*
X169751406Y-61630123D01*
X169742461Y-61618148D01*
X169719786Y-61589780D01*
X169698595Y-61568362D01*
X169675678Y-61556032D01*
X169647828Y-61554930D01*
X169611835Y-61567195D01*
X169611835Y-61567195D01*
G37*
X169611835Y-61567195D02*
X169564493Y-61594967D01*
X169502592Y-61640385D01*
X169422923Y-61705589D01*
X169322280Y-61792717D01*
X169197452Y-61903910D01*
X169045232Y-62041307D01*
X168870982Y-62199276D01*
X168508125Y-62528327D01*
X168496785Y-62086665D01*
X168492691Y-61934634D01*
X168488742Y-61821417D01*
X168484062Y-61740480D01*
X168477779Y-61685293D01*
X168469018Y-61649322D01*
X168456906Y-61626035D01*
X168440569Y-61608899D01*
X168431907Y-61601698D01*
X168362537Y-61563623D01*
X168296527Y-61569190D01*
X168244164Y-61601717D01*
X168190625Y-61645042D01*
X168183966Y-62277759D01*
X168182123Y-62463841D01*
X168181185Y-62610021D01*
X168181477Y-62721751D01*
X168183323Y-62804482D01*
X168187050Y-62863666D01*
X168192980Y-62904753D01*
X168201440Y-62933196D01*
X168212753Y-62954445D01*
X168225300Y-62971488D01*
X168252444Y-63003095D01*
X168279453Y-63024046D01*
X168310070Y-63032088D01*
X168348043Y-63024965D01*
X168397118Y-63000426D01*
X168461040Y-62956214D01*
X168543555Y-62890076D01*
X168648410Y-62799759D01*
X168779351Y-62683008D01*
X168927678Y-62548859D01*
X169460625Y-62065429D01*
X169471964Y-62505647D01*
X169476065Y-62657401D01*
X169480025Y-62770354D01*
X169484721Y-62851052D01*
X169491033Y-62906041D01*
X169499837Y-62941865D01*
X169512012Y-62965070D01*
X169528437Y-62982201D01*
X169536843Y-62989183D01*
X169611134Y-63027534D01*
X169681332Y-63021749D01*
X169742461Y-62972745D01*
X169756445Y-62953030D01*
X169767344Y-62930006D01*
X169775541Y-62898149D01*
X169781420Y-62851935D01*
X169785364Y-62785840D01*
X169787756Y-62694339D01*
X169788979Y-62571911D01*
X169789418Y-62413029D01*
X169789464Y-62295446D01*
X169789317Y-62111533D01*
X169788619Y-61967452D01*
X169786987Y-61857680D01*
X169784039Y-61776693D01*
X169779389Y-61718968D01*
X169772657Y-61678981D01*
X169763457Y-61651207D01*
X169751406Y-61630123D01*
X169742461Y-61618148D01*
X169719786Y-61589780D01*
X169698595Y-61568362D01*
X169675678Y-61556032D01*
X169647828Y-61554930D01*
X169611835Y-61567195D01*
G36*
X170917573Y-61569506D02*
X170779928Y-61592602D01*
X170674214Y-61628505D01*
X170605440Y-61675778D01*
X170586699Y-61702748D01*
X170567641Y-61765475D01*
X170580466Y-61822222D01*
X170620953Y-61876035D01*
X170683862Y-61901210D01*
X170775143Y-61899165D01*
X170845744Y-61885526D01*
X171002626Y-61859540D01*
X171162954Y-61857070D01*
X171342409Y-61878163D01*
X171391978Y-61887100D01*
X171558843Y-61934146D01*
X171689386Y-62004129D01*
X171782176Y-62095856D01*
X171835781Y-62208134D01*
X171846868Y-62266182D01*
X171839611Y-62383953D01*
X171792759Y-62488150D01*
X171710582Y-62576742D01*
X171597349Y-62647698D01*
X171457329Y-62698987D01*
X171294791Y-62728579D01*
X171114005Y-62734443D01*
X170919238Y-62714548D01*
X170908241Y-62712672D01*
X170830774Y-62698243D01*
X170787822Y-62684306D01*
X170769205Y-62663626D01*
X170764744Y-62628970D01*
X170764643Y-62610618D01*
X170764643Y-62533571D01*
X170902205Y-62533571D01*
X171023682Y-62525250D01*
X171106581Y-62498732D01*
X171154814Y-62451689D01*
X171172296Y-62381790D01*
X171172510Y-62372667D01*
X171162281Y-62312922D01*
X171127208Y-62270261D01*
X171061930Y-62242029D01*
X170961090Y-62225571D01*
X170863415Y-62219520D01*
X170721451Y-62216048D01*
X170618477Y-62221346D01*
X170548247Y-62240893D01*
X170504514Y-62280173D01*
X170481030Y-62344666D01*
X170471549Y-62439854D01*
X170469821Y-62564875D01*
X170472652Y-62704423D01*
X170481167Y-62799347D01*
X170495406Y-62850024D01*
X170498169Y-62853993D01*
X170576350Y-62917316D01*
X170690975Y-62967462D01*
X170834780Y-63003362D01*
X171000496Y-63023944D01*
X171180858Y-63028137D01*
X171368598Y-63014869D01*
X171479018Y-62998572D01*
X171652208Y-62949551D01*
X171813174Y-62869410D01*
X171947944Y-62765398D01*
X171968428Y-62744609D01*
X172034981Y-62657213D01*
X172095031Y-62548898D01*
X172141564Y-62435340D01*
X172167563Y-62332217D01*
X172170696Y-62292611D01*
X172157356Y-62209994D01*
X172121900Y-62107203D01*
X172071131Y-61999006D01*
X172011852Y-61900169D01*
X171959479Y-61834152D01*
X171837026Y-61735952D01*
X171678732Y-61657792D01*
X171490269Y-61601439D01*
X171277310Y-61568663D01*
X171082143Y-61560654D01*
X170917573Y-61569506D01*
X170917573Y-61569506D01*
G37*
X170917573Y-61569506D02*
X170779928Y-61592602D01*
X170674214Y-61628505D01*
X170605440Y-61675778D01*
X170586699Y-61702748D01*
X170567641Y-61765475D01*
X170580466Y-61822222D01*
X170620953Y-61876035D01*
X170683862Y-61901210D01*
X170775143Y-61899165D01*
X170845744Y-61885526D01*
X171002626Y-61859540D01*
X171162954Y-61857070D01*
X171342409Y-61878163D01*
X171391978Y-61887100D01*
X171558843Y-61934146D01*
X171689386Y-62004129D01*
X171782176Y-62095856D01*
X171835781Y-62208134D01*
X171846868Y-62266182D01*
X171839611Y-62383953D01*
X171792759Y-62488150D01*
X171710582Y-62576742D01*
X171597349Y-62647698D01*
X171457329Y-62698987D01*
X171294791Y-62728579D01*
X171114005Y-62734443D01*
X170919238Y-62714548D01*
X170908241Y-62712672D01*
X170830774Y-62698243D01*
X170787822Y-62684306D01*
X170769205Y-62663626D01*
X170764744Y-62628970D01*
X170764643Y-62610618D01*
X170764643Y-62533571D01*
X170902205Y-62533571D01*
X171023682Y-62525250D01*
X171106581Y-62498732D01*
X171154814Y-62451689D01*
X171172296Y-62381790D01*
X171172510Y-62372667D01*
X171162281Y-62312922D01*
X171127208Y-62270261D01*
X171061930Y-62242029D01*
X170961090Y-62225571D01*
X170863415Y-62219520D01*
X170721451Y-62216048D01*
X170618477Y-62221346D01*
X170548247Y-62240893D01*
X170504514Y-62280173D01*
X170481030Y-62344666D01*
X170471549Y-62439854D01*
X170469821Y-62564875D01*
X170472652Y-62704423D01*
X170481167Y-62799347D01*
X170495406Y-62850024D01*
X170498169Y-62853993D01*
X170576350Y-62917316D01*
X170690975Y-62967462D01*
X170834780Y-63003362D01*
X171000496Y-63023944D01*
X171180858Y-63028137D01*
X171368598Y-63014869D01*
X171479018Y-62998572D01*
X171652208Y-62949551D01*
X171813174Y-62869410D01*
X171947944Y-62765398D01*
X171968428Y-62744609D01*
X172034981Y-62657213D01*
X172095031Y-62548898D01*
X172141564Y-62435340D01*
X172167563Y-62332217D01*
X172170696Y-62292611D01*
X172157356Y-62209994D01*
X172121900Y-62107203D01*
X172071131Y-61999006D01*
X172011852Y-61900169D01*
X171959479Y-61834152D01*
X171837026Y-61735952D01*
X171678732Y-61657792D01*
X171490269Y-61601439D01*
X171277310Y-61568663D01*
X171082143Y-61560654D01*
X170917573Y-61569506D01*
G36*
X172873750Y-61603750D02*
X172860529Y-61618964D01*
X172850159Y-61638591D01*
X172842293Y-61667888D01*
X172836587Y-61712113D01*
X172832697Y-61776524D01*
X172830278Y-61866378D01*
X172828984Y-61986934D01*
X172828472Y-62143448D01*
X172828393Y-62295446D01*
X172828533Y-62483978D01*
X172829182Y-62632410D01*
X172830686Y-62746001D01*
X172833389Y-62830009D01*
X172837636Y-62889690D01*
X172843772Y-62930302D01*
X172852141Y-62957104D01*
X172863089Y-62975353D01*
X172873750Y-62987143D01*
X172940051Y-63026680D01*
X173010696Y-63023131D01*
X173073904Y-62980011D01*
X173088427Y-62963177D01*
X173099777Y-62943644D01*
X173108345Y-62916015D01*
X173114522Y-62874889D01*
X173118698Y-62814868D01*
X173121265Y-62730551D01*
X173122612Y-62616540D01*
X173123132Y-62467434D01*
X173123214Y-62298623D01*
X173123214Y-61669724D01*
X173067548Y-61614058D01*
X172998934Y-61567225D01*
X172932377Y-61565538D01*
X172873750Y-61603750D01*
X172873750Y-61603750D01*
G37*
X172873750Y-61603750D02*
X172860529Y-61618964D01*
X172850159Y-61638591D01*
X172842293Y-61667888D01*
X172836587Y-61712113D01*
X172832697Y-61776524D01*
X172830278Y-61866378D01*
X172828984Y-61986934D01*
X172828472Y-62143448D01*
X172828393Y-62295446D01*
X172828533Y-62483978D01*
X172829182Y-62632410D01*
X172830686Y-62746001D01*
X172833389Y-62830009D01*
X172837636Y-62889690D01*
X172843772Y-62930302D01*
X172852141Y-62957104D01*
X172863089Y-62975353D01*
X172873750Y-62987143D01*
X172940051Y-63026680D01*
X173010696Y-63023131D01*
X173073904Y-62980011D01*
X173088427Y-62963177D01*
X173099777Y-62943644D01*
X173108345Y-62916015D01*
X173114522Y-62874889D01*
X173118698Y-62814868D01*
X173121265Y-62730551D01*
X173122612Y-62616540D01*
X173123132Y-62467434D01*
X173123214Y-62298623D01*
X173123214Y-61669724D01*
X173067548Y-61614058D01*
X172998934Y-61567225D01*
X172932377Y-61565538D01*
X172873750Y-61603750D01*
G36*
X174416366Y-61560973D02*
X174266068Y-61571480D01*
X174126283Y-61587891D01*
X174005137Y-61609587D01*
X173910754Y-61635950D01*
X173851261Y-61666364D01*
X173842129Y-61675317D01*
X173810375Y-61744788D01*
X173820004Y-61816108D01*
X173869257Y-61877127D01*
X173871607Y-61878875D01*
X173900577Y-61897676D01*
X173930819Y-61907562D01*
X173973001Y-61908763D01*
X174037792Y-61901507D01*
X174135861Y-61886024D01*
X174143750Y-61884721D01*
X174289877Y-61866769D01*
X174447534Y-61857913D01*
X174605656Y-61857827D01*
X174753180Y-61866185D01*
X174879040Y-61882659D01*
X174972172Y-61906923D01*
X174978291Y-61909362D01*
X175045855Y-61947217D01*
X175069593Y-61985527D01*
X175051010Y-62023204D01*
X174991611Y-62059160D01*
X174892901Y-62092306D01*
X174756385Y-62121554D01*
X174665357Y-62135636D01*
X174476138Y-62162723D01*
X174325645Y-62187484D01*
X174207466Y-62212063D01*
X174115191Y-62238605D01*
X174042410Y-62269253D01*
X173982710Y-62306152D01*
X173929682Y-62351445D01*
X173887069Y-62395923D01*
X173836514Y-62457895D01*
X173811635Y-62511184D01*
X173803854Y-62576839D01*
X173803571Y-62600883D01*
X173809415Y-62680671D01*
X173832771Y-62740030D01*
X173873193Y-62792716D01*
X173955344Y-62873254D01*
X174046952Y-62934674D01*
X174154824Y-62978979D01*
X174285765Y-63008172D01*
X174446584Y-63024256D01*
X174644086Y-63029233D01*
X174676696Y-63029149D01*
X174808401Y-63026419D01*
X174939015Y-63020216D01*
X175054301Y-63011430D01*
X175140020Y-63000950D01*
X175146953Y-62999747D01*
X175232179Y-62979558D01*
X175304467Y-62954055D01*
X175345390Y-62930739D01*
X175383474Y-62869229D01*
X175386125Y-62797602D01*
X175353295Y-62733771D01*
X175345950Y-62726553D01*
X175315588Y-62705107D01*
X175277618Y-62695867D01*
X175218852Y-62697440D01*
X175147512Y-62705613D01*
X175067797Y-62712914D01*
X174956049Y-62719074D01*
X174825592Y-62723544D01*
X174689746Y-62725776D01*
X174654018Y-62725923D01*
X174517666Y-62725373D01*
X174417876Y-62722726D01*
X174345868Y-62717063D01*
X174292860Y-62707466D01*
X174250073Y-62693017D01*
X174224360Y-62680982D01*
X174167857Y-62647565D01*
X174131833Y-62617301D01*
X174126568Y-62608722D01*
X174137675Y-62573296D01*
X174190477Y-62539001D01*
X174281316Y-62507394D01*
X174406532Y-62480031D01*
X174443424Y-62473936D01*
X174636118Y-62443670D01*
X174789904Y-62418373D01*
X174910717Y-62396206D01*
X175004495Y-62375330D01*
X175077171Y-62353907D01*
X175134683Y-62330099D01*
X175182965Y-62302068D01*
X175227953Y-62267975D01*
X175275583Y-62225982D01*
X175291611Y-62211259D01*
X175347806Y-62156314D01*
X175377552Y-62112781D01*
X175389189Y-62062965D01*
X175391071Y-62000189D01*
X175370351Y-61877085D01*
X175308429Y-61772491D01*
X175205659Y-61686745D01*
X175062398Y-61620184D01*
X174960178Y-61590329D01*
X174849083Y-61571047D01*
X174715999Y-61560139D01*
X174569052Y-61556987D01*
X174416366Y-61560973D01*
X174416366Y-61560973D01*
G37*
X174416366Y-61560973D02*
X174266068Y-61571480D01*
X174126283Y-61587891D01*
X174005137Y-61609587D01*
X173910754Y-61635950D01*
X173851261Y-61666364D01*
X173842129Y-61675317D01*
X173810375Y-61744788D01*
X173820004Y-61816108D01*
X173869257Y-61877127D01*
X173871607Y-61878875D01*
X173900577Y-61897676D01*
X173930819Y-61907562D01*
X173973001Y-61908763D01*
X174037792Y-61901507D01*
X174135861Y-61886024D01*
X174143750Y-61884721D01*
X174289877Y-61866769D01*
X174447534Y-61857913D01*
X174605656Y-61857827D01*
X174753180Y-61866185D01*
X174879040Y-61882659D01*
X174972172Y-61906923D01*
X174978291Y-61909362D01*
X175045855Y-61947217D01*
X175069593Y-61985527D01*
X175051010Y-62023204D01*
X174991611Y-62059160D01*
X174892901Y-62092306D01*
X174756385Y-62121554D01*
X174665357Y-62135636D01*
X174476138Y-62162723D01*
X174325645Y-62187484D01*
X174207466Y-62212063D01*
X174115191Y-62238605D01*
X174042410Y-62269253D01*
X173982710Y-62306152D01*
X173929682Y-62351445D01*
X173887069Y-62395923D01*
X173836514Y-62457895D01*
X173811635Y-62511184D01*
X173803854Y-62576839D01*
X173803571Y-62600883D01*
X173809415Y-62680671D01*
X173832771Y-62740030D01*
X173873193Y-62792716D01*
X173955344Y-62873254D01*
X174046952Y-62934674D01*
X174154824Y-62978979D01*
X174285765Y-63008172D01*
X174446584Y-63024256D01*
X174644086Y-63029233D01*
X174676696Y-63029149D01*
X174808401Y-63026419D01*
X174939015Y-63020216D01*
X175054301Y-63011430D01*
X175140020Y-63000950D01*
X175146953Y-62999747D01*
X175232179Y-62979558D01*
X175304467Y-62954055D01*
X175345390Y-62930739D01*
X175383474Y-62869229D01*
X175386125Y-62797602D01*
X175353295Y-62733771D01*
X175345950Y-62726553D01*
X175315588Y-62705107D01*
X175277618Y-62695867D01*
X175218852Y-62697440D01*
X175147512Y-62705613D01*
X175067797Y-62712914D01*
X174956049Y-62719074D01*
X174825592Y-62723544D01*
X174689746Y-62725776D01*
X174654018Y-62725923D01*
X174517666Y-62725373D01*
X174417876Y-62722726D01*
X174345868Y-62717063D01*
X174292860Y-62707466D01*
X174250073Y-62693017D01*
X174224360Y-62680982D01*
X174167857Y-62647565D01*
X174131833Y-62617301D01*
X174126568Y-62608722D01*
X174137675Y-62573296D01*
X174190477Y-62539001D01*
X174281316Y-62507394D01*
X174406532Y-62480031D01*
X174443424Y-62473936D01*
X174636118Y-62443670D01*
X174789904Y-62418373D01*
X174910717Y-62396206D01*
X175004495Y-62375330D01*
X175077171Y-62353907D01*
X175134683Y-62330099D01*
X175182965Y-62302068D01*
X175227953Y-62267975D01*
X175275583Y-62225982D01*
X175291611Y-62211259D01*
X175347806Y-62156314D01*
X175377552Y-62112781D01*
X175389189Y-62062965D01*
X175391071Y-62000189D01*
X175370351Y-61877085D01*
X175308429Y-61772491D01*
X175205659Y-61686745D01*
X175062398Y-61620184D01*
X174960178Y-61590329D01*
X174849083Y-61571047D01*
X174715999Y-61560139D01*
X174569052Y-61556987D01*
X174416366Y-61560973D01*
G36*
X176467666Y-61558552D02*
X176328230Y-61559300D01*
X176222983Y-61561040D01*
X176146344Y-61564177D01*
X176092730Y-61569113D01*
X176056557Y-61576253D01*
X176032241Y-61586001D01*
X176014201Y-61598761D01*
X176007669Y-61604633D01*
X175967942Y-61667027D01*
X175960789Y-61738718D01*
X175986923Y-61802364D01*
X175999007Y-61815227D01*
X176018552Y-61827698D01*
X176050023Y-61837320D01*
X176099256Y-61844559D01*
X176172086Y-61849883D01*
X176274349Y-61853762D01*
X176411882Y-61856664D01*
X176537623Y-61858429D01*
X177035268Y-61864554D01*
X177042069Y-61994955D01*
X177048870Y-62125357D01*
X176711075Y-62125357D01*
X176564426Y-62126622D01*
X176457064Y-62131914D01*
X176382957Y-62143478D01*
X176336069Y-62163558D01*
X176310367Y-62194398D01*
X176299816Y-62238244D01*
X176298214Y-62278937D01*
X176303193Y-62328868D01*
X176321984Y-62365660D01*
X176360367Y-62391235D01*
X176424120Y-62407516D01*
X176519024Y-62416426D01*
X176650858Y-62419887D01*
X176722814Y-62420179D01*
X177046607Y-62420179D01*
X177046607Y-62737679D01*
X176547678Y-62737679D01*
X176384133Y-62737906D01*
X176259837Y-62738929D01*
X176168686Y-62741256D01*
X176104572Y-62745395D01*
X176061390Y-62751857D01*
X176033033Y-62761148D01*
X176013395Y-62773779D01*
X176003393Y-62783036D01*
X175969082Y-62837063D01*
X175958035Y-62885089D01*
X175973809Y-62943751D01*
X176003393Y-62987143D01*
X176019176Y-63000803D01*
X176039551Y-63011410D01*
X176069998Y-63019348D01*
X176115997Y-63025003D01*
X176183030Y-63028759D01*
X176276578Y-63031000D01*
X176402120Y-63032111D01*
X176565138Y-63032476D01*
X176649732Y-63032500D01*
X176830888Y-63032340D01*
X176972168Y-63031602D01*
X177079052Y-63029904D01*
X177157022Y-63026859D01*
X177211559Y-63022083D01*
X177248142Y-63015192D01*
X177272253Y-63005801D01*
X177289373Y-62993525D01*
X177296071Y-62987143D01*
X177309328Y-62971882D01*
X177319719Y-62952193D01*
X177327591Y-62922801D01*
X177333293Y-62878430D01*
X177337172Y-62813803D01*
X177339577Y-62723644D01*
X177340856Y-62602678D01*
X177341355Y-62445628D01*
X177341428Y-62299400D01*
X177341361Y-62112134D01*
X177340890Y-61964928D01*
X177339613Y-61852482D01*
X177337129Y-61769499D01*
X177333036Y-61710680D01*
X177326931Y-61670727D01*
X177318412Y-61644341D01*
X177307078Y-61626225D01*
X177292525Y-61611080D01*
X177288940Y-61607703D01*
X177271541Y-61592755D01*
X177251325Y-61581180D01*
X177222684Y-61572545D01*
X177180009Y-61566422D01*
X177117695Y-61562379D01*
X177030132Y-61559986D01*
X176911713Y-61558811D01*
X176756831Y-61558425D01*
X176646877Y-61558393D01*
X176467666Y-61558552D01*
X176467666Y-61558552D01*
G37*
X176467666Y-61558552D02*
X176328230Y-61559300D01*
X176222983Y-61561040D01*
X176146344Y-61564177D01*
X176092730Y-61569113D01*
X176056557Y-61576253D01*
X176032241Y-61586001D01*
X176014201Y-61598761D01*
X176007669Y-61604633D01*
X175967942Y-61667027D01*
X175960789Y-61738718D01*
X175986923Y-61802364D01*
X175999007Y-61815227D01*
X176018552Y-61827698D01*
X176050023Y-61837320D01*
X176099256Y-61844559D01*
X176172086Y-61849883D01*
X176274349Y-61853762D01*
X176411882Y-61856664D01*
X176537623Y-61858429D01*
X177035268Y-61864554D01*
X177042069Y-61994955D01*
X177048870Y-62125357D01*
X176711075Y-62125357D01*
X176564426Y-62126622D01*
X176457064Y-62131914D01*
X176382957Y-62143478D01*
X176336069Y-62163558D01*
X176310367Y-62194398D01*
X176299816Y-62238244D01*
X176298214Y-62278937D01*
X176303193Y-62328868D01*
X176321984Y-62365660D01*
X176360367Y-62391235D01*
X176424120Y-62407516D01*
X176519024Y-62416426D01*
X176650858Y-62419887D01*
X176722814Y-62420179D01*
X177046607Y-62420179D01*
X177046607Y-62737679D01*
X176547678Y-62737679D01*
X176384133Y-62737906D01*
X176259837Y-62738929D01*
X176168686Y-62741256D01*
X176104572Y-62745395D01*
X176061390Y-62751857D01*
X176033033Y-62761148D01*
X176013395Y-62773779D01*
X176003393Y-62783036D01*
X175969082Y-62837063D01*
X175958035Y-62885089D01*
X175973809Y-62943751D01*
X176003393Y-62987143D01*
X176019176Y-63000803D01*
X176039551Y-63011410D01*
X176069998Y-63019348D01*
X176115997Y-63025003D01*
X176183030Y-63028759D01*
X176276578Y-63031000D01*
X176402120Y-63032111D01*
X176565138Y-63032476D01*
X176649732Y-63032500D01*
X176830888Y-63032340D01*
X176972168Y-63031602D01*
X177079052Y-63029904D01*
X177157022Y-63026859D01*
X177211559Y-63022083D01*
X177248142Y-63015192D01*
X177272253Y-63005801D01*
X177289373Y-62993525D01*
X177296071Y-62987143D01*
X177309328Y-62971882D01*
X177319719Y-62952193D01*
X177327591Y-62922801D01*
X177333293Y-62878430D01*
X177337172Y-62813803D01*
X177339577Y-62723644D01*
X177340856Y-62602678D01*
X177341355Y-62445628D01*
X177341428Y-62299400D01*
X177341361Y-62112134D01*
X177340890Y-61964928D01*
X177339613Y-61852482D01*
X177337129Y-61769499D01*
X177333036Y-61710680D01*
X177326931Y-61670727D01*
X177318412Y-61644341D01*
X177307078Y-61626225D01*
X177292525Y-61611080D01*
X177288940Y-61607703D01*
X177271541Y-61592755D01*
X177251325Y-61581180D01*
X177222684Y-61572545D01*
X177180009Y-61566422D01*
X177117695Y-61562379D01*
X177030132Y-61559986D01*
X176911713Y-61558811D01*
X176756831Y-61558425D01*
X176646877Y-61558393D01*
X176467666Y-61558552D01*
G36*
X179297397Y-61558391D02*
X179218080Y-61559197D01*
X178985669Y-61564805D01*
X178791026Y-61581462D01*
X178627516Y-61610957D01*
X178488506Y-61655074D01*
X178367361Y-61715602D01*
X178257449Y-61794327D01*
X178218191Y-61828525D01*
X178153069Y-61908542D01*
X178094348Y-62017123D01*
X178049089Y-62137480D01*
X178024355Y-62252824D01*
X178021785Y-62295446D01*
X178037890Y-62413599D01*
X178081047Y-62542659D01*
X178143524Y-62664819D01*
X178217587Y-62762269D01*
X178229617Y-62774027D01*
X178331519Y-62856671D01*
X178443108Y-62921186D01*
X178570818Y-62969260D01*
X178721082Y-63002584D01*
X178900334Y-63022849D01*
X179115007Y-63031746D01*
X179213337Y-63032500D01*
X179338360Y-63031898D01*
X179426282Y-63029381D01*
X179485353Y-63023881D01*
X179523820Y-63014332D01*
X179549932Y-62999666D01*
X179563928Y-62987143D01*
X179577149Y-62971929D01*
X179587520Y-62952302D01*
X179595385Y-62923005D01*
X179601091Y-62878780D01*
X179604981Y-62814369D01*
X179607400Y-62724514D01*
X179608694Y-62603959D01*
X179609206Y-62447444D01*
X179609285Y-62295446D01*
X179609785Y-62092717D01*
X179609677Y-61930768D01*
X179607748Y-61853214D01*
X179314464Y-61853214D01*
X179314464Y-62737679D01*
X179127366Y-62737507D01*
X179014784Y-62734278D01*
X178896872Y-62725960D01*
X178798493Y-62714325D01*
X178795500Y-62713846D01*
X178636500Y-62675404D01*
X178513174Y-62615533D01*
X178419363Y-62530335D01*
X178359757Y-62438091D01*
X178323030Y-62335766D01*
X178325878Y-62239686D01*
X178368502Y-62136696D01*
X178451874Y-62030153D01*
X178567406Y-61951204D01*
X178717577Y-61898433D01*
X178817939Y-61879758D01*
X178931863Y-61866643D01*
X179052605Y-61857150D01*
X179155301Y-61853204D01*
X179161384Y-61853185D01*
X179314464Y-61853214D01*
X179607748Y-61853214D01*
X179606549Y-61805059D01*
X179597986Y-61711048D01*
X179581578Y-61644197D01*
X179554910Y-61599963D01*
X179515571Y-61573806D01*
X179461148Y-61561186D01*
X179389227Y-61557561D01*
X179297397Y-61558391D01*
X179297397Y-61558391D01*
G37*
X179297397Y-61558391D02*
X179218080Y-61559197D01*
X178985669Y-61564805D01*
X178791026Y-61581462D01*
X178627516Y-61610957D01*
X178488506Y-61655074D01*
X178367361Y-61715602D01*
X178257449Y-61794327D01*
X178218191Y-61828525D01*
X178153069Y-61908542D01*
X178094348Y-62017123D01*
X178049089Y-62137480D01*
X178024355Y-62252824D01*
X178021785Y-62295446D01*
X178037890Y-62413599D01*
X178081047Y-62542659D01*
X178143524Y-62664819D01*
X178217587Y-62762269D01*
X178229617Y-62774027D01*
X178331519Y-62856671D01*
X178443108Y-62921186D01*
X178570818Y-62969260D01*
X178721082Y-63002584D01*
X178900334Y-63022849D01*
X179115007Y-63031746D01*
X179213337Y-63032500D01*
X179338360Y-63031898D01*
X179426282Y-63029381D01*
X179485353Y-63023881D01*
X179523820Y-63014332D01*
X179549932Y-62999666D01*
X179563928Y-62987143D01*
X179577149Y-62971929D01*
X179587520Y-62952302D01*
X179595385Y-62923005D01*
X179601091Y-62878780D01*
X179604981Y-62814369D01*
X179607400Y-62724514D01*
X179608694Y-62603959D01*
X179609206Y-62447444D01*
X179609285Y-62295446D01*
X179609785Y-62092717D01*
X179609677Y-61930768D01*
X179607748Y-61853214D01*
X179314464Y-61853214D01*
X179314464Y-62737679D01*
X179127366Y-62737507D01*
X179014784Y-62734278D01*
X178896872Y-62725960D01*
X178798493Y-62714325D01*
X178795500Y-62713846D01*
X178636500Y-62675404D01*
X178513174Y-62615533D01*
X178419363Y-62530335D01*
X178359757Y-62438091D01*
X178323030Y-62335766D01*
X178325878Y-62239686D01*
X178368502Y-62136696D01*
X178451874Y-62030153D01*
X178567406Y-61951204D01*
X178717577Y-61898433D01*
X178817939Y-61879758D01*
X178931863Y-61866643D01*
X179052605Y-61857150D01*
X179155301Y-61853204D01*
X179161384Y-61853185D01*
X179314464Y-61853214D01*
X179607748Y-61853214D01*
X179606549Y-61805059D01*
X179597986Y-61711048D01*
X179581578Y-61644197D01*
X179554910Y-61599963D01*
X179515571Y-61573806D01*
X179461148Y-61561186D01*
X179389227Y-61557561D01*
X179297397Y-61558391D01*
G04 #@! TD*
M02*
