G04 #@! TF.GenerationSoftware,KiCad,Pcbnew,(5.0.0)*
G04 #@! TF.CreationDate,2019-03-04T17:15:25-05:00*
G04 #@! TF.ProjectId,nivel y temperatura,6E6976656C20792074656D7065726174,V 1.0*
G04 #@! TF.SameCoordinates,Original*
G04 #@! TF.FileFunction,Copper,L1,Top,Signal*
G04 #@! TF.FilePolarity,Positive*
%FSLAX46Y46*%
G04 Gerber Fmt 4.6, Leading zero omitted, Abs format (unit mm)*
G04 Created by KiCad (PCBNEW (5.0.0)) date 03/04/19 17:15:25*
%MOMM*%
%LPD*%
G01*
G04 APERTURE LIST*
G04 #@! TA.AperFunction,NonConductor*
%ADD10C,0.150000*%
G04 #@! TD*
G04 #@! TA.AperFunction,ComponentPad*
%ADD11O,1.500000X2.200000*%
G04 #@! TD*
G04 #@! TA.AperFunction,ComponentPad*
%ADD12R,1.700000X1.700000*%
G04 #@! TD*
G04 #@! TA.AperFunction,ComponentPad*
%ADD13O,1.700000X1.700000*%
G04 #@! TD*
G04 #@! TA.AperFunction,ComponentPad*
%ADD14O,1.600000X1.600000*%
G04 #@! TD*
G04 #@! TA.AperFunction,Conductor*
%ADD15C,0.100000*%
G04 #@! TD*
G04 #@! TA.AperFunction,SMDPad,CuDef*
%ADD16C,1.300000*%
G04 #@! TD*
G04 #@! TA.AperFunction,SMDPad,CuDef*
%ADD17C,1.150000*%
G04 #@! TD*
G04 #@! TA.AperFunction,ComponentPad*
%ADD18R,1.700000X1.950000*%
G04 #@! TD*
G04 #@! TA.AperFunction,ComponentPad*
%ADD19O,1.700000X1.950000*%
G04 #@! TD*
G04 #@! TA.AperFunction,SMDPad,CuDef*
%ADD20R,4.000000X2.500000*%
G04 #@! TD*
G04 #@! TA.AperFunction,SMDPad,CuDef*
%ADD21R,3.500000X2.500000*%
G04 #@! TD*
G04 #@! TA.AperFunction,SMDPad,CuDef*
%ADD22R,2.500000X1.800000*%
G04 #@! TD*
G04 #@! TA.AperFunction,ComponentPad*
%ADD23R,2.999740X2.999740*%
G04 #@! TD*
G04 #@! TA.AperFunction,ComponentPad*
%ADD24C,2.999740*%
G04 #@! TD*
G04 #@! TA.AperFunction,SMDPad,CuDef*
%ADD25R,1.500000X2.200000*%
G04 #@! TD*
G04 #@! TA.AperFunction,BGAPad,CuDef*
%ADD26C,1.400000*%
G04 #@! TD*
G04 #@! TA.AperFunction,SMDPad,CuDef*
%ADD27R,1.100000X4.600000*%
G04 #@! TD*
G04 #@! TA.AperFunction,SMDPad,CuDef*
%ADD28R,10.800000X9.400000*%
G04 #@! TD*
G04 #@! TA.AperFunction,ComponentPad*
%ADD29C,1.800000*%
G04 #@! TD*
G04 #@! TA.AperFunction,ViaPad*
%ADD30C,1.700000*%
G04 #@! TD*
G04 #@! TA.AperFunction,Conductor*
%ADD31C,0.500000*%
G04 #@! TD*
G04 #@! TA.AperFunction,NonConductor*
%ADD32C,0.254000*%
G04 #@! TD*
G04 APERTURE END LIST*
D10*
X92202000Y-45974000D02*
X92202000Y-134974000D01*
X191770000Y-45974000D02*
X92202000Y-45974000D01*
X191900000Y-135000000D02*
X191770000Y-45970000D01*
X92202000Y-135000000D02*
X191900000Y-135000000D01*
D11*
G04 #@! TO.P,U1,16*
G04 #@! TO.N,GND*
X141145601Y-50135101D03*
G04 #@! TO.P,U1,15*
G04 #@! TO.N,+5V*
X138605601Y-50135101D03*
G04 #@! TO.P,U1,14*
G04 #@! TO.N,D2*
X136065601Y-50135101D03*
G04 #@! TO.P,U1,13*
G04 #@! TO.N,D3*
X133525601Y-50135101D03*
G04 #@! TO.P,U1,12*
G04 #@! TO.N,D4*
X130985601Y-50135101D03*
G04 #@! TO.P,U1,11*
G04 #@! TO.N,D5*
X128445601Y-50135101D03*
G04 #@! TO.P,U1,10*
G04 #@! TO.N,Net-(U1-Pad10)*
X125905601Y-50135101D03*
G04 #@! TO.P,U1,9*
G04 #@! TO.N,Net-(U1-Pad9)*
X123365601Y-50135101D03*
G04 #@! TO.P,U1,8*
G04 #@! TO.N,Net-(U1-Pad8)*
X120825601Y-50135101D03*
G04 #@! TO.P,U1,7*
G04 #@! TO.N,Net-(U1-Pad7)*
X118285601Y-50135101D03*
G04 #@! TO.P,U1,6*
G04 #@! TO.N,D6*
X115745601Y-50135101D03*
G04 #@! TO.P,U1,5*
G04 #@! TO.N,GND*
X113205601Y-50135101D03*
G04 #@! TO.P,U1,4*
G04 #@! TO.N,D7*
X110665601Y-50135101D03*
G04 #@! TO.P,U1,3*
G04 #@! TO.N,Net-(RV1-Pad1)*
X108125601Y-50135101D03*
G04 #@! TO.P,U1,2*
G04 #@! TO.N,+5V*
X105585601Y-50135101D03*
G04 #@! TO.P,U1,1*
G04 #@! TO.N,GND*
X103045601Y-50135101D03*
G04 #@! TD*
D12*
G04 #@! TO.P,S-DTH1,1*
G04 #@! TO.N,+5V*
X130149600Y-123748800D03*
D13*
G04 #@! TO.P,S-DTH1,2*
G04 #@! TO.N,A0*
X130149600Y-126288800D03*
G04 #@! TO.P,S-DTH1,3*
G04 #@! TO.N,Net-(S-DTH1-Pad3)*
X130149600Y-128828800D03*
G04 #@! TO.P,S-DTH1,4*
G04 #@! TO.N,GND*
X130149600Y-131368800D03*
G04 #@! TD*
D14*
G04 #@! TO.P,A1,16*
G04 #@! TO.N,D13*
X187756800Y-109575600D03*
G04 #@! TO.P,A1,15*
G04 #@! TO.N,D12*
X187756800Y-124815600D03*
G04 #@! TO.P,A1,30*
G04 #@! TO.N,Vout*
X152196800Y-109575600D03*
G04 #@! TO.P,A1,14*
G04 #@! TO.N,D11*
X185216800Y-124815600D03*
G04 #@! TO.P,A1,29*
G04 #@! TO.N,GND*
X154736800Y-109575600D03*
G04 #@! TO.P,A1,13*
G04 #@! TO.N,D10*
X182676800Y-124815600D03*
G04 #@! TO.P,A1,28*
G04 #@! TO.N,Net-(A1-Pad28)*
X157276800Y-109575600D03*
G04 #@! TO.P,A1,12*
G04 #@! TO.N,D9*
X180136800Y-124815600D03*
G04 #@! TO.P,A1,27*
G04 #@! TO.N,+5V*
X159816800Y-109575600D03*
G04 #@! TO.P,A1,11*
G04 #@! TO.N,D8*
X177596800Y-124815600D03*
G04 #@! TO.P,A1,26*
G04 #@! TO.N,Net-(A1-Pad26)*
X162356800Y-109575600D03*
G04 #@! TO.P,A1,10*
G04 #@! TO.N,D7*
X175056800Y-124815600D03*
G04 #@! TO.P,A1,25*
G04 #@! TO.N,Net-(A1-Pad25)*
X164896800Y-109575600D03*
G04 #@! TO.P,A1,9*
G04 #@! TO.N,D6*
X172516800Y-124815600D03*
G04 #@! TO.P,A1,24*
G04 #@! TO.N,A5*
X167436800Y-109575600D03*
G04 #@! TO.P,A1,8*
G04 #@! TO.N,D5*
X169976800Y-124815600D03*
G04 #@! TO.P,A1,23*
G04 #@! TO.N,A4*
X169976800Y-109575600D03*
G04 #@! TO.P,A1,7*
G04 #@! TO.N,D4*
X167436800Y-124815600D03*
G04 #@! TO.P,A1,22*
G04 #@! TO.N,Net-(A1-Pad22)*
X172516800Y-109575600D03*
G04 #@! TO.P,A1,6*
G04 #@! TO.N,D3*
X164896800Y-124815600D03*
G04 #@! TO.P,A1,21*
G04 #@! TO.N,Net-(A1-Pad21)*
X175056800Y-109575600D03*
G04 #@! TO.P,A1,5*
G04 #@! TO.N,D2*
X162356800Y-124815600D03*
G04 #@! TO.P,A1,20*
G04 #@! TO.N,Net-(A1-Pad20)*
X177596800Y-109575600D03*
G04 #@! TO.P,A1,4*
G04 #@! TO.N,GND*
X159816800Y-124815600D03*
G04 #@! TO.P,A1,19*
G04 #@! TO.N,A0*
X180136800Y-109575600D03*
G04 #@! TO.P,A1,3*
G04 #@! TO.N,Net-(A1-Pad3)*
X157276800Y-124815600D03*
G04 #@! TO.P,A1,18*
G04 #@! TO.N,Net-(A1-Pad18)*
X182676800Y-109575600D03*
D13*
G04 #@! TO.P,A1,2*
G04 #@! TO.N,Net-(A1-Pad2)*
X154736800Y-124815600D03*
D14*
G04 #@! TO.P,A1,17*
G04 #@! TO.N,Net-(A1-Pad17)*
X185216800Y-109575600D03*
D12*
G04 #@! TO.P,A1,1*
G04 #@! TO.N,Net-(A1-Pad1)*
X152196800Y-124815600D03*
G04 #@! TD*
D15*
G04 #@! TO.N,GND*
G04 #@! TO.C,D1*
G36*
X110116904Y-126960804D02*
X110141173Y-126964404D01*
X110164971Y-126970365D01*
X110188071Y-126978630D01*
X110210249Y-126989120D01*
X110231293Y-127001733D01*
X110250998Y-127016347D01*
X110269177Y-127032823D01*
X110285653Y-127051002D01*
X110300267Y-127070707D01*
X110312880Y-127091751D01*
X110323370Y-127113929D01*
X110331635Y-127137029D01*
X110337596Y-127160827D01*
X110341196Y-127185096D01*
X110342400Y-127209600D01*
X110342400Y-128009600D01*
X110341196Y-128034104D01*
X110337596Y-128058373D01*
X110331635Y-128082171D01*
X110323370Y-128105271D01*
X110312880Y-128127449D01*
X110300267Y-128148493D01*
X110285653Y-128168198D01*
X110269177Y-128186377D01*
X110250998Y-128202853D01*
X110231293Y-128217467D01*
X110210249Y-128230080D01*
X110188071Y-128240570D01*
X110164971Y-128248835D01*
X110141173Y-128254796D01*
X110116904Y-128258396D01*
X110092400Y-128259600D01*
X109267400Y-128259600D01*
X109242896Y-128258396D01*
X109218627Y-128254796D01*
X109194829Y-128248835D01*
X109171729Y-128240570D01*
X109149551Y-128230080D01*
X109128507Y-128217467D01*
X109108802Y-128202853D01*
X109090623Y-128186377D01*
X109074147Y-128168198D01*
X109059533Y-128148493D01*
X109046920Y-128127449D01*
X109036430Y-128105271D01*
X109028165Y-128082171D01*
X109022204Y-128058373D01*
X109018604Y-128034104D01*
X109017400Y-128009600D01*
X109017400Y-127209600D01*
X109018604Y-127185096D01*
X109022204Y-127160827D01*
X109028165Y-127137029D01*
X109036430Y-127113929D01*
X109046920Y-127091751D01*
X109059533Y-127070707D01*
X109074147Y-127051002D01*
X109090623Y-127032823D01*
X109108802Y-127016347D01*
X109128507Y-127001733D01*
X109149551Y-126989120D01*
X109171729Y-126978630D01*
X109194829Y-126970365D01*
X109218627Y-126964404D01*
X109242896Y-126960804D01*
X109267400Y-126959600D01*
X110092400Y-126959600D01*
X110116904Y-126960804D01*
X110116904Y-126960804D01*
G37*
D16*
G04 #@! TD*
G04 #@! TO.P,D1,1*
G04 #@! TO.N,GND*
X109679900Y-127609600D03*
D15*
G04 #@! TO.N,Net-(D1-Pad2)*
G04 #@! TO.C,D1*
G36*
X112041904Y-126960804D02*
X112066173Y-126964404D01*
X112089971Y-126970365D01*
X112113071Y-126978630D01*
X112135249Y-126989120D01*
X112156293Y-127001733D01*
X112175998Y-127016347D01*
X112194177Y-127032823D01*
X112210653Y-127051002D01*
X112225267Y-127070707D01*
X112237880Y-127091751D01*
X112248370Y-127113929D01*
X112256635Y-127137029D01*
X112262596Y-127160827D01*
X112266196Y-127185096D01*
X112267400Y-127209600D01*
X112267400Y-128009600D01*
X112266196Y-128034104D01*
X112262596Y-128058373D01*
X112256635Y-128082171D01*
X112248370Y-128105271D01*
X112237880Y-128127449D01*
X112225267Y-128148493D01*
X112210653Y-128168198D01*
X112194177Y-128186377D01*
X112175998Y-128202853D01*
X112156293Y-128217467D01*
X112135249Y-128230080D01*
X112113071Y-128240570D01*
X112089971Y-128248835D01*
X112066173Y-128254796D01*
X112041904Y-128258396D01*
X112017400Y-128259600D01*
X111192400Y-128259600D01*
X111167896Y-128258396D01*
X111143627Y-128254796D01*
X111119829Y-128248835D01*
X111096729Y-128240570D01*
X111074551Y-128230080D01*
X111053507Y-128217467D01*
X111033802Y-128202853D01*
X111015623Y-128186377D01*
X110999147Y-128168198D01*
X110984533Y-128148493D01*
X110971920Y-128127449D01*
X110961430Y-128105271D01*
X110953165Y-128082171D01*
X110947204Y-128058373D01*
X110943604Y-128034104D01*
X110942400Y-128009600D01*
X110942400Y-127209600D01*
X110943604Y-127185096D01*
X110947204Y-127160827D01*
X110953165Y-127137029D01*
X110961430Y-127113929D01*
X110971920Y-127091751D01*
X110984533Y-127070707D01*
X110999147Y-127051002D01*
X111015623Y-127032823D01*
X111033802Y-127016347D01*
X111053507Y-127001733D01*
X111074551Y-126989120D01*
X111096729Y-126978630D01*
X111119829Y-126970365D01*
X111143627Y-126964404D01*
X111167896Y-126960804D01*
X111192400Y-126959600D01*
X112017400Y-126959600D01*
X112041904Y-126960804D01*
X112041904Y-126960804D01*
G37*
D16*
G04 #@! TD*
G04 #@! TO.P,D1,2*
G04 #@! TO.N,Net-(D1-Pad2)*
X111604900Y-127609600D03*
D15*
G04 #@! TO.N,+5V*
G04 #@! TO.C,R1*
G36*
X106258505Y-119087604D02*
X106282773Y-119091204D01*
X106306572Y-119097165D01*
X106329671Y-119105430D01*
X106351850Y-119115920D01*
X106372893Y-119128532D01*
X106392599Y-119143147D01*
X106410777Y-119159623D01*
X106427253Y-119177801D01*
X106441868Y-119197507D01*
X106454480Y-119218550D01*
X106464970Y-119240729D01*
X106473235Y-119263828D01*
X106479196Y-119287627D01*
X106482796Y-119311895D01*
X106484000Y-119336399D01*
X106484000Y-120236401D01*
X106482796Y-120260905D01*
X106479196Y-120285173D01*
X106473235Y-120308972D01*
X106464970Y-120332071D01*
X106454480Y-120354250D01*
X106441868Y-120375293D01*
X106427253Y-120394999D01*
X106410777Y-120413177D01*
X106392599Y-120429653D01*
X106372893Y-120444268D01*
X106351850Y-120456880D01*
X106329671Y-120467370D01*
X106306572Y-120475635D01*
X106282773Y-120481596D01*
X106258505Y-120485196D01*
X106234001Y-120486400D01*
X105583999Y-120486400D01*
X105559495Y-120485196D01*
X105535227Y-120481596D01*
X105511428Y-120475635D01*
X105488329Y-120467370D01*
X105466150Y-120456880D01*
X105445107Y-120444268D01*
X105425401Y-120429653D01*
X105407223Y-120413177D01*
X105390747Y-120394999D01*
X105376132Y-120375293D01*
X105363520Y-120354250D01*
X105353030Y-120332071D01*
X105344765Y-120308972D01*
X105338804Y-120285173D01*
X105335204Y-120260905D01*
X105334000Y-120236401D01*
X105334000Y-119336399D01*
X105335204Y-119311895D01*
X105338804Y-119287627D01*
X105344765Y-119263828D01*
X105353030Y-119240729D01*
X105363520Y-119218550D01*
X105376132Y-119197507D01*
X105390747Y-119177801D01*
X105407223Y-119159623D01*
X105425401Y-119143147D01*
X105445107Y-119128532D01*
X105466150Y-119115920D01*
X105488329Y-119105430D01*
X105511428Y-119097165D01*
X105535227Y-119091204D01*
X105559495Y-119087604D01*
X105583999Y-119086400D01*
X106234001Y-119086400D01*
X106258505Y-119087604D01*
X106258505Y-119087604D01*
G37*
D17*
G04 #@! TD*
G04 #@! TO.P,R1,1*
G04 #@! TO.N,+5V*
X105909000Y-119786400D03*
D15*
G04 #@! TO.N,A0*
G04 #@! TO.C,R1*
G36*
X108308505Y-119087604D02*
X108332773Y-119091204D01*
X108356572Y-119097165D01*
X108379671Y-119105430D01*
X108401850Y-119115920D01*
X108422893Y-119128532D01*
X108442599Y-119143147D01*
X108460777Y-119159623D01*
X108477253Y-119177801D01*
X108491868Y-119197507D01*
X108504480Y-119218550D01*
X108514970Y-119240729D01*
X108523235Y-119263828D01*
X108529196Y-119287627D01*
X108532796Y-119311895D01*
X108534000Y-119336399D01*
X108534000Y-120236401D01*
X108532796Y-120260905D01*
X108529196Y-120285173D01*
X108523235Y-120308972D01*
X108514970Y-120332071D01*
X108504480Y-120354250D01*
X108491868Y-120375293D01*
X108477253Y-120394999D01*
X108460777Y-120413177D01*
X108442599Y-120429653D01*
X108422893Y-120444268D01*
X108401850Y-120456880D01*
X108379671Y-120467370D01*
X108356572Y-120475635D01*
X108332773Y-120481596D01*
X108308505Y-120485196D01*
X108284001Y-120486400D01*
X107633999Y-120486400D01*
X107609495Y-120485196D01*
X107585227Y-120481596D01*
X107561428Y-120475635D01*
X107538329Y-120467370D01*
X107516150Y-120456880D01*
X107495107Y-120444268D01*
X107475401Y-120429653D01*
X107457223Y-120413177D01*
X107440747Y-120394999D01*
X107426132Y-120375293D01*
X107413520Y-120354250D01*
X107403030Y-120332071D01*
X107394765Y-120308972D01*
X107388804Y-120285173D01*
X107385204Y-120260905D01*
X107384000Y-120236401D01*
X107384000Y-119336399D01*
X107385204Y-119311895D01*
X107388804Y-119287627D01*
X107394765Y-119263828D01*
X107403030Y-119240729D01*
X107413520Y-119218550D01*
X107426132Y-119197507D01*
X107440747Y-119177801D01*
X107457223Y-119159623D01*
X107475401Y-119143147D01*
X107495107Y-119128532D01*
X107516150Y-119115920D01*
X107538329Y-119105430D01*
X107561428Y-119097165D01*
X107585227Y-119091204D01*
X107609495Y-119087604D01*
X107633999Y-119086400D01*
X108284001Y-119086400D01*
X108308505Y-119087604D01*
X108308505Y-119087604D01*
G37*
D17*
G04 #@! TD*
G04 #@! TO.P,R1,2*
G04 #@! TO.N,A0*
X107959000Y-119786400D03*
D15*
G04 #@! TO.N,+5V*
G04 #@! TO.C,R2*
G36*
X112067705Y-119087604D02*
X112091973Y-119091204D01*
X112115772Y-119097165D01*
X112138871Y-119105430D01*
X112161050Y-119115920D01*
X112182093Y-119128532D01*
X112201799Y-119143147D01*
X112219977Y-119159623D01*
X112236453Y-119177801D01*
X112251068Y-119197507D01*
X112263680Y-119218550D01*
X112274170Y-119240729D01*
X112282435Y-119263828D01*
X112288396Y-119287627D01*
X112291996Y-119311895D01*
X112293200Y-119336399D01*
X112293200Y-120236401D01*
X112291996Y-120260905D01*
X112288396Y-120285173D01*
X112282435Y-120308972D01*
X112274170Y-120332071D01*
X112263680Y-120354250D01*
X112251068Y-120375293D01*
X112236453Y-120394999D01*
X112219977Y-120413177D01*
X112201799Y-120429653D01*
X112182093Y-120444268D01*
X112161050Y-120456880D01*
X112138871Y-120467370D01*
X112115772Y-120475635D01*
X112091973Y-120481596D01*
X112067705Y-120485196D01*
X112043201Y-120486400D01*
X111393199Y-120486400D01*
X111368695Y-120485196D01*
X111344427Y-120481596D01*
X111320628Y-120475635D01*
X111297529Y-120467370D01*
X111275350Y-120456880D01*
X111254307Y-120444268D01*
X111234601Y-120429653D01*
X111216423Y-120413177D01*
X111199947Y-120394999D01*
X111185332Y-120375293D01*
X111172720Y-120354250D01*
X111162230Y-120332071D01*
X111153965Y-120308972D01*
X111148004Y-120285173D01*
X111144404Y-120260905D01*
X111143200Y-120236401D01*
X111143200Y-119336399D01*
X111144404Y-119311895D01*
X111148004Y-119287627D01*
X111153965Y-119263828D01*
X111162230Y-119240729D01*
X111172720Y-119218550D01*
X111185332Y-119197507D01*
X111199947Y-119177801D01*
X111216423Y-119159623D01*
X111234601Y-119143147D01*
X111254307Y-119128532D01*
X111275350Y-119115920D01*
X111297529Y-119105430D01*
X111320628Y-119097165D01*
X111344427Y-119091204D01*
X111368695Y-119087604D01*
X111393199Y-119086400D01*
X112043201Y-119086400D01*
X112067705Y-119087604D01*
X112067705Y-119087604D01*
G37*
D17*
G04 #@! TD*
G04 #@! TO.P,R2,2*
G04 #@! TO.N,+5V*
X111718200Y-119786400D03*
D15*
G04 #@! TO.N,GND*
G04 #@! TO.C,R2*
G36*
X110017705Y-119087604D02*
X110041973Y-119091204D01*
X110065772Y-119097165D01*
X110088871Y-119105430D01*
X110111050Y-119115920D01*
X110132093Y-119128532D01*
X110151799Y-119143147D01*
X110169977Y-119159623D01*
X110186453Y-119177801D01*
X110201068Y-119197507D01*
X110213680Y-119218550D01*
X110224170Y-119240729D01*
X110232435Y-119263828D01*
X110238396Y-119287627D01*
X110241996Y-119311895D01*
X110243200Y-119336399D01*
X110243200Y-120236401D01*
X110241996Y-120260905D01*
X110238396Y-120285173D01*
X110232435Y-120308972D01*
X110224170Y-120332071D01*
X110213680Y-120354250D01*
X110201068Y-120375293D01*
X110186453Y-120394999D01*
X110169977Y-120413177D01*
X110151799Y-120429653D01*
X110132093Y-120444268D01*
X110111050Y-120456880D01*
X110088871Y-120467370D01*
X110065772Y-120475635D01*
X110041973Y-120481596D01*
X110017705Y-120485196D01*
X109993201Y-120486400D01*
X109343199Y-120486400D01*
X109318695Y-120485196D01*
X109294427Y-120481596D01*
X109270628Y-120475635D01*
X109247529Y-120467370D01*
X109225350Y-120456880D01*
X109204307Y-120444268D01*
X109184601Y-120429653D01*
X109166423Y-120413177D01*
X109149947Y-120394999D01*
X109135332Y-120375293D01*
X109122720Y-120354250D01*
X109112230Y-120332071D01*
X109103965Y-120308972D01*
X109098004Y-120285173D01*
X109094404Y-120260905D01*
X109093200Y-120236401D01*
X109093200Y-119336399D01*
X109094404Y-119311895D01*
X109098004Y-119287627D01*
X109103965Y-119263828D01*
X109112230Y-119240729D01*
X109122720Y-119218550D01*
X109135332Y-119197507D01*
X109149947Y-119177801D01*
X109166423Y-119159623D01*
X109184601Y-119143147D01*
X109204307Y-119128532D01*
X109225350Y-119115920D01*
X109247529Y-119105430D01*
X109270628Y-119097165D01*
X109294427Y-119091204D01*
X109318695Y-119087604D01*
X109343199Y-119086400D01*
X109993201Y-119086400D01*
X110017705Y-119087604D01*
X110017705Y-119087604D01*
G37*
D17*
G04 #@! TD*
G04 #@! TO.P,R2,1*
G04 #@! TO.N,GND*
X109668200Y-119786400D03*
D12*
G04 #@! TO.P,RTC1,1*
G04 #@! TO.N,A5*
X159512000Y-131775200D03*
D13*
G04 #@! TO.P,RTC1,2*
G04 #@! TO.N,A4*
X162052000Y-131775200D03*
G04 #@! TO.P,RTC1,3*
G04 #@! TO.N,+5V*
X164592000Y-131775200D03*
G04 #@! TO.P,RTC1,4*
G04 #@! TO.N,GND*
X167132000Y-131775200D03*
G04 #@! TD*
D12*
G04 #@! TO.P,SD1,1*
G04 #@! TO.N,D10*
X175971200Y-131826000D03*
D13*
G04 #@! TO.P,SD1,2*
G04 #@! TO.N,D13*
X178511200Y-131826000D03*
G04 #@! TO.P,SD1,3*
G04 #@! TO.N,D11*
X181051200Y-131826000D03*
G04 #@! TO.P,SD1,4*
G04 #@! TO.N,D12*
X183591200Y-131826000D03*
G04 #@! TO.P,SD1,5*
G04 #@! TO.N,+5V*
X186131200Y-131826000D03*
G04 #@! TO.P,SD1,6*
G04 #@! TO.N,GND*
X188671200Y-131826000D03*
G04 #@! TD*
D18*
G04 #@! TO.P,Sensor1,1*
G04 #@! TO.N,+5V*
X117195600Y-130098800D03*
D19*
G04 #@! TO.P,Sensor1,2*
G04 #@! TO.N,D9*
X119695600Y-130098800D03*
G04 #@! TO.P,Sensor1,3*
G04 #@! TO.N,D8*
X122195600Y-130098800D03*
G04 #@! TO.P,Sensor1,4*
G04 #@! TO.N,GND*
X124695600Y-130098800D03*
G04 #@! TD*
D20*
G04 #@! TO.P,C1,1*
G04 #@! TO.N,Net-(C1-Pad1)*
X126657600Y-115011200D03*
G04 #@! TO.P,C1,2*
G04 #@! TO.N,GND*
X134657600Y-115011200D03*
G04 #@! TD*
D21*
G04 #@! TO.P,C2,1*
G04 #@! TO.N,Vout*
X115418800Y-112572800D03*
G04 #@! TO.P,C2,2*
G04 #@! TO.N,GND*
X121918800Y-112572800D03*
G04 #@! TD*
D22*
G04 #@! TO.P,D2,1*
G04 #@! TO.N,Net-(D2-Pad1)*
X119716800Y-123088400D03*
G04 #@! TO.P,D2,2*
G04 #@! TO.N,GND*
X123716800Y-123088400D03*
G04 #@! TD*
D23*
G04 #@! TO.P, ,1*
G04 #@! TO.N,GND*
X96113600Y-128930400D03*
D24*
G04 #@! TO.P, ,2*
G04 #@! TO.N,Net-(C1-Pad1)*
X101193600Y-128930400D03*
G04 #@! TD*
D25*
G04 #@! TO.P,L1,1*
G04 #@! TO.N,Net-(D2-Pad1)*
X105105600Y-111912400D03*
G04 #@! TO.P,L1,2*
G04 #@! TO.N,Vout*
X111505600Y-111912400D03*
G04 #@! TD*
D15*
G04 #@! TO.N,Net-(R3-Pad2)*
G04 #@! TO.C,R3*
G36*
X115826905Y-119087604D02*
X115851173Y-119091204D01*
X115874972Y-119097165D01*
X115898071Y-119105430D01*
X115920250Y-119115920D01*
X115941293Y-119128532D01*
X115960999Y-119143147D01*
X115979177Y-119159623D01*
X115995653Y-119177801D01*
X116010268Y-119197507D01*
X116022880Y-119218550D01*
X116033370Y-119240729D01*
X116041635Y-119263828D01*
X116047596Y-119287627D01*
X116051196Y-119311895D01*
X116052400Y-119336399D01*
X116052400Y-120236401D01*
X116051196Y-120260905D01*
X116047596Y-120285173D01*
X116041635Y-120308972D01*
X116033370Y-120332071D01*
X116022880Y-120354250D01*
X116010268Y-120375293D01*
X115995653Y-120394999D01*
X115979177Y-120413177D01*
X115960999Y-120429653D01*
X115941293Y-120444268D01*
X115920250Y-120456880D01*
X115898071Y-120467370D01*
X115874972Y-120475635D01*
X115851173Y-120481596D01*
X115826905Y-120485196D01*
X115802401Y-120486400D01*
X115152399Y-120486400D01*
X115127895Y-120485196D01*
X115103627Y-120481596D01*
X115079828Y-120475635D01*
X115056729Y-120467370D01*
X115034550Y-120456880D01*
X115013507Y-120444268D01*
X114993801Y-120429653D01*
X114975623Y-120413177D01*
X114959147Y-120394999D01*
X114944532Y-120375293D01*
X114931920Y-120354250D01*
X114921430Y-120332071D01*
X114913165Y-120308972D01*
X114907204Y-120285173D01*
X114903604Y-120260905D01*
X114902400Y-120236401D01*
X114902400Y-119336399D01*
X114903604Y-119311895D01*
X114907204Y-119287627D01*
X114913165Y-119263828D01*
X114921430Y-119240729D01*
X114931920Y-119218550D01*
X114944532Y-119197507D01*
X114959147Y-119177801D01*
X114975623Y-119159623D01*
X114993801Y-119143147D01*
X115013507Y-119128532D01*
X115034550Y-119115920D01*
X115056729Y-119105430D01*
X115079828Y-119097165D01*
X115103627Y-119091204D01*
X115127895Y-119087604D01*
X115152399Y-119086400D01*
X115802401Y-119086400D01*
X115826905Y-119087604D01*
X115826905Y-119087604D01*
G37*
D17*
G04 #@! TD*
G04 #@! TO.P,R3,2*
G04 #@! TO.N,Net-(R3-Pad2)*
X115477400Y-119786400D03*
D15*
G04 #@! TO.N,Vout*
G04 #@! TO.C,R3*
G36*
X113776905Y-119087604D02*
X113801173Y-119091204D01*
X113824972Y-119097165D01*
X113848071Y-119105430D01*
X113870250Y-119115920D01*
X113891293Y-119128532D01*
X113910999Y-119143147D01*
X113929177Y-119159623D01*
X113945653Y-119177801D01*
X113960268Y-119197507D01*
X113972880Y-119218550D01*
X113983370Y-119240729D01*
X113991635Y-119263828D01*
X113997596Y-119287627D01*
X114001196Y-119311895D01*
X114002400Y-119336399D01*
X114002400Y-120236401D01*
X114001196Y-120260905D01*
X113997596Y-120285173D01*
X113991635Y-120308972D01*
X113983370Y-120332071D01*
X113972880Y-120354250D01*
X113960268Y-120375293D01*
X113945653Y-120394999D01*
X113929177Y-120413177D01*
X113910999Y-120429653D01*
X113891293Y-120444268D01*
X113870250Y-120456880D01*
X113848071Y-120467370D01*
X113824972Y-120475635D01*
X113801173Y-120481596D01*
X113776905Y-120485196D01*
X113752401Y-120486400D01*
X113102399Y-120486400D01*
X113077895Y-120485196D01*
X113053627Y-120481596D01*
X113029828Y-120475635D01*
X113006729Y-120467370D01*
X112984550Y-120456880D01*
X112963507Y-120444268D01*
X112943801Y-120429653D01*
X112925623Y-120413177D01*
X112909147Y-120394999D01*
X112894532Y-120375293D01*
X112881920Y-120354250D01*
X112871430Y-120332071D01*
X112863165Y-120308972D01*
X112857204Y-120285173D01*
X112853604Y-120260905D01*
X112852400Y-120236401D01*
X112852400Y-119336399D01*
X112853604Y-119311895D01*
X112857204Y-119287627D01*
X112863165Y-119263828D01*
X112871430Y-119240729D01*
X112881920Y-119218550D01*
X112894532Y-119197507D01*
X112909147Y-119177801D01*
X112925623Y-119159623D01*
X112943801Y-119143147D01*
X112963507Y-119128532D01*
X112984550Y-119115920D01*
X113006729Y-119105430D01*
X113029828Y-119097165D01*
X113053627Y-119091204D01*
X113077895Y-119087604D01*
X113102399Y-119086400D01*
X113752401Y-119086400D01*
X113776905Y-119087604D01*
X113776905Y-119087604D01*
G37*
D17*
G04 #@! TD*
G04 #@! TO.P,R3,1*
G04 #@! TO.N,Vout*
X113427400Y-119786400D03*
D15*
G04 #@! TO.N,Net-(R3-Pad2)*
G04 #@! TO.C,R4*
G36*
X117536105Y-119087604D02*
X117560373Y-119091204D01*
X117584172Y-119097165D01*
X117607271Y-119105430D01*
X117629450Y-119115920D01*
X117650493Y-119128532D01*
X117670199Y-119143147D01*
X117688377Y-119159623D01*
X117704853Y-119177801D01*
X117719468Y-119197507D01*
X117732080Y-119218550D01*
X117742570Y-119240729D01*
X117750835Y-119263828D01*
X117756796Y-119287627D01*
X117760396Y-119311895D01*
X117761600Y-119336399D01*
X117761600Y-120236401D01*
X117760396Y-120260905D01*
X117756796Y-120285173D01*
X117750835Y-120308972D01*
X117742570Y-120332071D01*
X117732080Y-120354250D01*
X117719468Y-120375293D01*
X117704853Y-120394999D01*
X117688377Y-120413177D01*
X117670199Y-120429653D01*
X117650493Y-120444268D01*
X117629450Y-120456880D01*
X117607271Y-120467370D01*
X117584172Y-120475635D01*
X117560373Y-120481596D01*
X117536105Y-120485196D01*
X117511601Y-120486400D01*
X116861599Y-120486400D01*
X116837095Y-120485196D01*
X116812827Y-120481596D01*
X116789028Y-120475635D01*
X116765929Y-120467370D01*
X116743750Y-120456880D01*
X116722707Y-120444268D01*
X116703001Y-120429653D01*
X116684823Y-120413177D01*
X116668347Y-120394999D01*
X116653732Y-120375293D01*
X116641120Y-120354250D01*
X116630630Y-120332071D01*
X116622365Y-120308972D01*
X116616404Y-120285173D01*
X116612804Y-120260905D01*
X116611600Y-120236401D01*
X116611600Y-119336399D01*
X116612804Y-119311895D01*
X116616404Y-119287627D01*
X116622365Y-119263828D01*
X116630630Y-119240729D01*
X116641120Y-119218550D01*
X116653732Y-119197507D01*
X116668347Y-119177801D01*
X116684823Y-119159623D01*
X116703001Y-119143147D01*
X116722707Y-119128532D01*
X116743750Y-119115920D01*
X116765929Y-119105430D01*
X116789028Y-119097165D01*
X116812827Y-119091204D01*
X116837095Y-119087604D01*
X116861599Y-119086400D01*
X117511601Y-119086400D01*
X117536105Y-119087604D01*
X117536105Y-119087604D01*
G37*
D17*
G04 #@! TD*
G04 #@! TO.P,R4,1*
G04 #@! TO.N,Net-(R3-Pad2)*
X117186600Y-119786400D03*
D15*
G04 #@! TO.N,GND*
G04 #@! TO.C,R4*
G36*
X119586105Y-119087604D02*
X119610373Y-119091204D01*
X119634172Y-119097165D01*
X119657271Y-119105430D01*
X119679450Y-119115920D01*
X119700493Y-119128532D01*
X119720199Y-119143147D01*
X119738377Y-119159623D01*
X119754853Y-119177801D01*
X119769468Y-119197507D01*
X119782080Y-119218550D01*
X119792570Y-119240729D01*
X119800835Y-119263828D01*
X119806796Y-119287627D01*
X119810396Y-119311895D01*
X119811600Y-119336399D01*
X119811600Y-120236401D01*
X119810396Y-120260905D01*
X119806796Y-120285173D01*
X119800835Y-120308972D01*
X119792570Y-120332071D01*
X119782080Y-120354250D01*
X119769468Y-120375293D01*
X119754853Y-120394999D01*
X119738377Y-120413177D01*
X119720199Y-120429653D01*
X119700493Y-120444268D01*
X119679450Y-120456880D01*
X119657271Y-120467370D01*
X119634172Y-120475635D01*
X119610373Y-120481596D01*
X119586105Y-120485196D01*
X119561601Y-120486400D01*
X118911599Y-120486400D01*
X118887095Y-120485196D01*
X118862827Y-120481596D01*
X118839028Y-120475635D01*
X118815929Y-120467370D01*
X118793750Y-120456880D01*
X118772707Y-120444268D01*
X118753001Y-120429653D01*
X118734823Y-120413177D01*
X118718347Y-120394999D01*
X118703732Y-120375293D01*
X118691120Y-120354250D01*
X118680630Y-120332071D01*
X118672365Y-120308972D01*
X118666404Y-120285173D01*
X118662804Y-120260905D01*
X118661600Y-120236401D01*
X118661600Y-119336399D01*
X118662804Y-119311895D01*
X118666404Y-119287627D01*
X118672365Y-119263828D01*
X118680630Y-119240729D01*
X118691120Y-119218550D01*
X118703732Y-119197507D01*
X118718347Y-119177801D01*
X118734823Y-119159623D01*
X118753001Y-119143147D01*
X118772707Y-119128532D01*
X118793750Y-119115920D01*
X118815929Y-119105430D01*
X118839028Y-119097165D01*
X118862827Y-119091204D01*
X118887095Y-119087604D01*
X118911599Y-119086400D01*
X119561601Y-119086400D01*
X119586105Y-119087604D01*
X119586105Y-119087604D01*
G37*
D17*
G04 #@! TD*
G04 #@! TO.P,R4,2*
G04 #@! TO.N,GND*
X119236600Y-119786400D03*
D26*
G04 #@! TO.P,TP1,1*
G04 #@! TO.N,Vout*
X109420000Y-130510000D03*
G04 #@! TO.P,TP1,2*
G04 #@! TO.N,GND*
X111960000Y-130510000D03*
G04 #@! TD*
D27*
G04 #@! TO.P,U2,1*
G04 #@! TO.N,Net-(C1-Pad1)*
X94644000Y-122208600D03*
G04 #@! TO.P,U2,2*
G04 #@! TO.N,Net-(D2-Pad1)*
X96344000Y-122208600D03*
G04 #@! TO.P,U2,3*
G04 #@! TO.N,GND*
X98044000Y-122208600D03*
G04 #@! TO.P,U2,4*
G04 #@! TO.N,Net-(R3-Pad2)*
X99744000Y-122208600D03*
G04 #@! TO.P,U2,5*
G04 #@! TO.N,GND*
X101444000Y-122208600D03*
D28*
G04 #@! TO.P,U2,3*
X98044000Y-113058600D03*
G04 #@! TD*
D15*
G04 #@! TO.N,Net-(D1-Pad2)*
G04 #@! TO.C,R5*
G36*
X121295305Y-119087604D02*
X121319573Y-119091204D01*
X121343372Y-119097165D01*
X121366471Y-119105430D01*
X121388650Y-119115920D01*
X121409693Y-119128532D01*
X121429399Y-119143147D01*
X121447577Y-119159623D01*
X121464053Y-119177801D01*
X121478668Y-119197507D01*
X121491280Y-119218550D01*
X121501770Y-119240729D01*
X121510035Y-119263828D01*
X121515996Y-119287627D01*
X121519596Y-119311895D01*
X121520800Y-119336399D01*
X121520800Y-120236401D01*
X121519596Y-120260905D01*
X121515996Y-120285173D01*
X121510035Y-120308972D01*
X121501770Y-120332071D01*
X121491280Y-120354250D01*
X121478668Y-120375293D01*
X121464053Y-120394999D01*
X121447577Y-120413177D01*
X121429399Y-120429653D01*
X121409693Y-120444268D01*
X121388650Y-120456880D01*
X121366471Y-120467370D01*
X121343372Y-120475635D01*
X121319573Y-120481596D01*
X121295305Y-120485196D01*
X121270801Y-120486400D01*
X120620799Y-120486400D01*
X120596295Y-120485196D01*
X120572027Y-120481596D01*
X120548228Y-120475635D01*
X120525129Y-120467370D01*
X120502950Y-120456880D01*
X120481907Y-120444268D01*
X120462201Y-120429653D01*
X120444023Y-120413177D01*
X120427547Y-120394999D01*
X120412932Y-120375293D01*
X120400320Y-120354250D01*
X120389830Y-120332071D01*
X120381565Y-120308972D01*
X120375604Y-120285173D01*
X120372004Y-120260905D01*
X120370800Y-120236401D01*
X120370800Y-119336399D01*
X120372004Y-119311895D01*
X120375604Y-119287627D01*
X120381565Y-119263828D01*
X120389830Y-119240729D01*
X120400320Y-119218550D01*
X120412932Y-119197507D01*
X120427547Y-119177801D01*
X120444023Y-119159623D01*
X120462201Y-119143147D01*
X120481907Y-119128532D01*
X120502950Y-119115920D01*
X120525129Y-119105430D01*
X120548228Y-119097165D01*
X120572027Y-119091204D01*
X120596295Y-119087604D01*
X120620799Y-119086400D01*
X121270801Y-119086400D01*
X121295305Y-119087604D01*
X121295305Y-119087604D01*
G37*
D17*
G04 #@! TD*
G04 #@! TO.P,R5,1*
G04 #@! TO.N,Net-(D1-Pad2)*
X120945800Y-119786400D03*
D15*
G04 #@! TO.N,Vout*
G04 #@! TO.C,R5*
G36*
X123345305Y-119087604D02*
X123369573Y-119091204D01*
X123393372Y-119097165D01*
X123416471Y-119105430D01*
X123438650Y-119115920D01*
X123459693Y-119128532D01*
X123479399Y-119143147D01*
X123497577Y-119159623D01*
X123514053Y-119177801D01*
X123528668Y-119197507D01*
X123541280Y-119218550D01*
X123551770Y-119240729D01*
X123560035Y-119263828D01*
X123565996Y-119287627D01*
X123569596Y-119311895D01*
X123570800Y-119336399D01*
X123570800Y-120236401D01*
X123569596Y-120260905D01*
X123565996Y-120285173D01*
X123560035Y-120308972D01*
X123551770Y-120332071D01*
X123541280Y-120354250D01*
X123528668Y-120375293D01*
X123514053Y-120394999D01*
X123497577Y-120413177D01*
X123479399Y-120429653D01*
X123459693Y-120444268D01*
X123438650Y-120456880D01*
X123416471Y-120467370D01*
X123393372Y-120475635D01*
X123369573Y-120481596D01*
X123345305Y-120485196D01*
X123320801Y-120486400D01*
X122670799Y-120486400D01*
X122646295Y-120485196D01*
X122622027Y-120481596D01*
X122598228Y-120475635D01*
X122575129Y-120467370D01*
X122552950Y-120456880D01*
X122531907Y-120444268D01*
X122512201Y-120429653D01*
X122494023Y-120413177D01*
X122477547Y-120394999D01*
X122462932Y-120375293D01*
X122450320Y-120354250D01*
X122439830Y-120332071D01*
X122431565Y-120308972D01*
X122425604Y-120285173D01*
X122422004Y-120260905D01*
X122420800Y-120236401D01*
X122420800Y-119336399D01*
X122422004Y-119311895D01*
X122425604Y-119287627D01*
X122431565Y-119263828D01*
X122439830Y-119240729D01*
X122450320Y-119218550D01*
X122462932Y-119197507D01*
X122477547Y-119177801D01*
X122494023Y-119159623D01*
X122512201Y-119143147D01*
X122531907Y-119128532D01*
X122552950Y-119115920D01*
X122575129Y-119105430D01*
X122598228Y-119097165D01*
X122622027Y-119091204D01*
X122646295Y-119087604D01*
X122670799Y-119086400D01*
X123320801Y-119086400D01*
X123345305Y-119087604D01*
X123345305Y-119087604D01*
G37*
D17*
G04 #@! TD*
G04 #@! TO.P,R5,2*
G04 #@! TO.N,Vout*
X122995800Y-119786400D03*
D29*
G04 #@! TO.P,RV1,3*
G04 #@! TO.N,GND*
X144830800Y-114681000D03*
G04 #@! TO.P,RV1,2*
G04 #@! TO.N,+5V*
X139852400Y-114681000D03*
G04 #@! TO.P,RV1,1*
G04 #@! TO.N,Net-(RV1-Pad1)*
X142595600Y-117983000D03*
G04 #@! TD*
D30*
G04 #@! TO.N,GND*
X134620000Y-118110000D03*
X126492000Y-123698000D03*
X156972000Y-130556000D03*
X149098000Y-115062000D03*
X110490000Y-117348000D03*
X170672084Y-131048084D03*
G04 #@! TO.N,+5V*
X177942683Y-127792010D03*
G04 #@! TO.N,A5*
X175632357Y-117069649D03*
G04 #@! TO.N,D4*
X155702000Y-113538000D03*
G04 #@! TO.N,D2*
X163576000Y-116840000D03*
G04 #@! TO.N,Net-(D1-Pad2)*
X113538000Y-127762000D03*
X125309741Y-126750167D03*
G04 #@! TO.N,Vout*
X116078000Y-109474000D03*
X117602000Y-115539990D03*
X121666000Y-115539990D03*
X147035413Y-103022707D03*
G04 #@! TO.N,Net-(C1-Pad1)*
X127254953Y-118648010D03*
G04 #@! TO.N,Net-(D2-Pad1)*
X103886000Y-122936000D03*
X96266000Y-118872000D03*
X100584000Y-118872000D03*
X113302284Y-122713979D03*
G04 #@! TO.N,Net-(R3-Pad2)*
X99568000Y-125730000D03*
X115570000Y-122682000D03*
G04 #@! TD*
D31*
G04 #@! TO.N,GND*
X98044000Y-125000130D02*
X98044000Y-122208600D01*
X96113600Y-126930530D02*
X98044000Y-125000130D01*
X96113600Y-128930400D02*
X96113600Y-126930530D01*
X109679900Y-128069500D02*
X112115600Y-130505200D01*
X109679900Y-127609600D02*
X109679900Y-128069500D01*
X109679900Y-119798100D02*
X109668200Y-119786400D01*
X109679900Y-127609600D02*
X109679900Y-119798100D01*
X119236600Y-114755000D02*
X121418800Y-112572800D01*
X119236600Y-119786400D02*
X119236600Y-114755000D01*
X129719200Y-112572800D02*
X121918800Y-112572800D01*
X132157600Y-115011200D02*
X129719200Y-112572800D01*
X134657600Y-115011200D02*
X132157600Y-115011200D01*
X123698000Y-129101200D02*
X124695600Y-130098800D01*
X123716800Y-123088400D02*
X123698000Y-123107200D01*
X123698000Y-123107200D02*
X123698000Y-129101200D01*
X121418800Y-112572800D02*
X121918800Y-112572800D01*
X141145601Y-49785101D02*
X141145601Y-50135101D01*
X139895601Y-48535101D02*
X141145601Y-49785101D01*
X114455601Y-48535101D02*
X139895601Y-48535101D01*
X113205601Y-49785101D02*
X114455601Y-48535101D01*
X113205601Y-49785101D02*
X113205601Y-50135101D01*
X98044000Y-122208600D02*
X98044000Y-113058600D01*
X98291604Y-128930400D02*
X96113600Y-128930400D01*
X101444000Y-125778004D02*
X98291604Y-128930400D01*
X101444000Y-122208600D02*
X101444000Y-125778004D01*
X105095000Y-127609600D02*
X109679900Y-127609600D01*
X101444000Y-123958600D02*
X105095000Y-127609600D01*
X101444000Y-122208600D02*
X101444000Y-123958600D01*
X134657600Y-115011200D02*
X134657600Y-118072400D01*
X134657600Y-118072400D02*
X134620000Y-118110000D01*
X125882400Y-123088400D02*
X126492000Y-123698000D01*
X123716800Y-123088400D02*
X125882400Y-123088400D01*
X157052801Y-130475199D02*
X156972000Y-130556000D01*
X167132000Y-131775200D02*
X165831999Y-130475199D01*
X165831999Y-130475199D02*
X157052801Y-130475199D01*
X150063200Y-115062000D02*
X149098000Y-115062000D01*
X159816800Y-124815600D02*
X150063200Y-115062000D01*
X109668200Y-119786400D02*
X109668200Y-118169800D01*
X109668200Y-118169800D02*
X110490000Y-117348000D01*
X104945622Y-47885080D02*
X111305580Y-47885080D01*
X103045601Y-50135101D02*
X103045601Y-49785101D01*
X103045601Y-49785101D02*
X104945622Y-47885080D01*
X111305580Y-47885080D02*
X113205601Y-49785101D01*
X119236600Y-120586400D02*
X120338600Y-121688400D01*
X123257835Y-123088400D02*
X123716800Y-123088400D01*
X119236600Y-119786400D02*
X119236600Y-120586400D01*
X120338600Y-121688400D02*
X121857835Y-121688400D01*
X121857835Y-121688400D02*
X123257835Y-123088400D01*
X167132000Y-131775200D02*
X169944968Y-131775200D01*
X169944968Y-131775200D02*
X170672084Y-131048084D01*
X103045601Y-50135101D02*
X112776000Y-59865500D01*
X112776000Y-59865500D02*
X112776000Y-103930000D01*
X112776000Y-103930000D02*
X121418800Y-112572800D01*
G04 #@! TO.N,A0*
X178575770Y-112268000D02*
X171704000Y-112268000D01*
X180136800Y-109575600D02*
X180136800Y-110706970D01*
X180136800Y-110706970D02*
X178575770Y-112268000D01*
X142494000Y-75494000D02*
X171226801Y-104226801D01*
X171704000Y-110652800D02*
X171704000Y-117094000D01*
X104394000Y-118872000D02*
X107000000Y-116266000D01*
X176306801Y-125415601D02*
X172498392Y-129224010D01*
X104394000Y-121158000D02*
X104394000Y-118872000D01*
X103948563Y-47185069D02*
X140242639Y-47185069D01*
X176306801Y-121696801D02*
X176306801Y-125415601D01*
X107188000Y-121158000D02*
X104394000Y-121158000D01*
X172498392Y-129224010D02*
X133084810Y-129224010D01*
X171704000Y-117094000D02*
X176306801Y-121696801D01*
X107959000Y-119786400D02*
X107959000Y-120387000D01*
X107959000Y-120387000D02*
X107188000Y-121158000D01*
X101845591Y-104912393D02*
X101845591Y-49288041D01*
X101845591Y-49288041D02*
X103948563Y-47185069D01*
X140242639Y-47185069D02*
X142494000Y-49436430D01*
X107000000Y-110066802D02*
X101845591Y-104912393D01*
X142494000Y-49436430D02*
X142494000Y-75494000D01*
X133084810Y-129224010D02*
X130149600Y-126288800D01*
X107000000Y-116266000D02*
X107000000Y-110066802D01*
X171226801Y-104226801D02*
X171226801Y-110175601D01*
X171226801Y-110175601D02*
X171704000Y-110652800D01*
G04 #@! TO.N,+5V*
X139852400Y-115396000D02*
X139852400Y-114681000D01*
X131499600Y-123748800D02*
X139852400Y-115396000D01*
X130149600Y-123748800D02*
X131499600Y-123748800D01*
X111114002Y-116047998D02*
X112341572Y-117275568D01*
X112341572Y-117275568D02*
X112341572Y-119163028D01*
X105909000Y-119786400D02*
X109647402Y-116047998D01*
X112341572Y-119163028D02*
X111718200Y-119786400D01*
X109647402Y-116047998D02*
X111114002Y-116047998D01*
X111718200Y-123148200D02*
X111718200Y-119786400D01*
X115845600Y-127275600D02*
X111718200Y-123148200D01*
X115845600Y-128623800D02*
X115845600Y-127275600D01*
X117195600Y-130098800D02*
X117195600Y-129973800D01*
X117195600Y-129973800D02*
X115845600Y-128623800D01*
X176448693Y-129286000D02*
X177942683Y-127792010D01*
X186131200Y-131826000D02*
X184607200Y-133350000D01*
X174985198Y-133350000D02*
X174244000Y-132608802D01*
X174244000Y-132608802D02*
X174244000Y-131043198D01*
X174244000Y-131043198D02*
X176001198Y-129286000D01*
X184607200Y-133350000D02*
X174985198Y-133350000D01*
X176001198Y-129286000D02*
X176448693Y-129286000D01*
X113476011Y-88304611D02*
X139852400Y-114681000D01*
X105585601Y-51685136D02*
X113476011Y-59575546D01*
X105585601Y-50135101D02*
X105585601Y-51685136D01*
X113476011Y-59575546D02*
X113476011Y-88304611D01*
X159016801Y-108775601D02*
X159816800Y-109575600D01*
X138605601Y-50135101D02*
X138605601Y-88364401D01*
X138605601Y-88364401D02*
X159016801Y-108775601D01*
G04 #@! TO.N,A5*
X177318682Y-126239978D02*
X178022424Y-126239978D01*
X170716660Y-132842000D02*
X177318682Y-126239978D01*
X170688000Y-132842000D02*
X170716660Y-132842000D01*
X170454799Y-133075201D02*
X170688000Y-132842000D01*
X159512000Y-131775200D02*
X160812001Y-133075201D01*
X160812001Y-133075201D02*
X170454799Y-133075201D01*
X178022424Y-126239978D02*
X178846801Y-125415601D01*
X178846801Y-125415601D02*
X178846801Y-120284093D01*
X178846801Y-120284093D02*
X175632357Y-117069649D01*
G04 #@! TO.N,D13*
X178511200Y-130623919D02*
X181627119Y-127508000D01*
X178511200Y-131826000D02*
X178511200Y-130623919D01*
X188556799Y-110375599D02*
X187756800Y-109575600D01*
X181627119Y-127508000D02*
X188468000Y-127508000D01*
X189992000Y-125984000D02*
X189992000Y-111810800D01*
X188468000Y-127508000D02*
X189992000Y-125984000D01*
X189992000Y-111810800D02*
X188556799Y-110375599D01*
G04 #@! TO.N,D7*
X107628541Y-48585091D02*
X106925591Y-49288041D01*
X141245599Y-105219462D02*
X141245599Y-120365529D01*
X114176022Y-78149885D02*
X141245599Y-105219462D01*
X114176022Y-59285592D02*
X114176022Y-78149885D01*
X171348400Y-128524000D02*
X174256801Y-125615599D01*
X110665601Y-50135101D02*
X109115591Y-48585091D01*
X106925591Y-49288041D02*
X106925591Y-52035161D01*
X149404070Y-128524000D02*
X171348400Y-128524000D01*
X141245599Y-120365529D02*
X149404070Y-128524000D01*
X174256801Y-125615599D02*
X175056800Y-124815600D01*
X106925591Y-52035161D02*
X114176022Y-59285592D01*
X109115591Y-48585091D02*
X107628541Y-48585091D01*
G04 #@! TO.N,D6*
X115745601Y-77739535D02*
X147097987Y-109091921D01*
X171716801Y-125615599D02*
X172516800Y-124815600D01*
X147097987Y-109091921D02*
X147097987Y-123216754D01*
X151581244Y-127700011D02*
X169632389Y-127700011D01*
X169632389Y-127700011D02*
X171716801Y-125615599D01*
X115745601Y-50135101D02*
X115745601Y-77739535D01*
X147097987Y-123216754D02*
X151581244Y-127700011D01*
G04 #@! TO.N,D5*
X147797998Y-108801967D02*
X147797998Y-122926800D01*
X168026788Y-126765612D02*
X169176801Y-125615599D01*
X128445601Y-50485101D02*
X116517967Y-62412735D01*
X151636810Y-126765612D02*
X168026788Y-126765612D01*
X128445601Y-50135101D02*
X128445601Y-50485101D01*
X169176801Y-125615599D02*
X169976800Y-124815600D01*
X116517967Y-77521936D02*
X147797998Y-108801967D01*
X116517967Y-62412735D02*
X116517967Y-77521936D01*
X147797998Y-122926800D02*
X151636810Y-126765612D01*
G04 #@! TO.N,D4*
X130985601Y-50135101D02*
X130985601Y-50485101D01*
X130985601Y-50485101D02*
X117217978Y-64252724D01*
X150246788Y-110260792D02*
X150246788Y-110465555D01*
X117217978Y-77231982D02*
X150246788Y-110260792D01*
X150246788Y-110465555D02*
X153319233Y-113538000D01*
X153319233Y-113538000D02*
X155702000Y-113538000D01*
X117217978Y-64252724D02*
X117217978Y-77231982D01*
G04 #@! TO.N,D3*
X164896800Y-120795657D02*
X164896800Y-124815600D01*
X117917989Y-75946789D02*
X150946799Y-108975599D01*
X150946799Y-108975599D02*
X150946799Y-110175601D01*
X150946799Y-110175601D02*
X152996821Y-112225623D01*
X156326766Y-112225623D02*
X164896800Y-120795657D01*
X117917989Y-66092713D02*
X117917989Y-75946789D01*
X133525601Y-50135101D02*
X133525601Y-50485101D01*
X152996821Y-112225623D02*
X156326766Y-112225623D01*
X133525601Y-50485101D02*
X117917989Y-66092713D01*
G04 #@! TO.N,D2*
X158261612Y-111525612D02*
X163576000Y-116840000D01*
X154836810Y-111525612D02*
X158261612Y-111525612D01*
X137160000Y-90424000D02*
X153486799Y-106750799D01*
X136065601Y-50135101D02*
X136065601Y-50485101D01*
X153486799Y-106750799D02*
X153486799Y-110175601D01*
X136065601Y-50485101D02*
X137160000Y-51579500D01*
X153486799Y-110175601D02*
X154836810Y-111525612D01*
X137160000Y-51579500D02*
X137160000Y-90424000D01*
G04 #@! TO.N,Net-(D1-Pad2)*
X111757300Y-127762000D02*
X111604900Y-127609600D01*
X113538000Y-127762000D02*
X111757300Y-127762000D01*
X127792002Y-124267906D02*
X125309741Y-126750167D01*
X125876004Y-121158000D02*
X127792002Y-123073998D01*
X122317400Y-121158000D02*
X125876004Y-121158000D01*
X127792002Y-123073998D02*
X127792002Y-124267906D01*
X120945800Y-119786400D02*
X122317400Y-121158000D01*
G04 #@! TO.N,Net-(RV1-Pad1)*
X142595600Y-117983000D02*
X142595600Y-105579499D01*
X114876033Y-57235533D02*
X108125601Y-50485101D01*
X142595600Y-105579499D02*
X114876033Y-77859932D01*
X114876033Y-77859932D02*
X114876033Y-57235533D01*
X108125601Y-50485101D02*
X108125601Y-50135101D01*
G04 #@! TO.N,Vout*
X115570000Y-112724000D02*
X115418800Y-112572800D01*
X113427400Y-119786400D02*
X115570000Y-117643800D01*
X115570000Y-117643800D02*
X115570000Y-112724000D01*
X114758400Y-111912400D02*
X115418800Y-112572800D01*
X111505600Y-111912400D02*
X114758400Y-111912400D01*
X122995800Y-119786400D02*
X125494369Y-119786400D01*
X111150401Y-132080001D02*
X109575600Y-130505200D01*
X128492013Y-128836025D02*
X125248037Y-132080001D01*
X128492013Y-122784044D02*
X128492013Y-128836025D01*
X125248037Y-132080001D02*
X111150401Y-132080001D01*
X125494369Y-119786400D02*
X128492013Y-122784044D01*
X116078000Y-111913600D02*
X115418800Y-112572800D01*
X116078000Y-109474000D02*
X116078000Y-111913600D01*
X117602000Y-115316000D02*
X117602000Y-115539990D01*
X115418800Y-112572800D02*
X115418800Y-113132800D01*
X115418800Y-113132800D02*
X117602000Y-115316000D01*
X121666000Y-116840000D02*
X121666000Y-115539990D01*
X122936000Y-118110000D02*
X121666000Y-116840000D01*
X122995800Y-119786400D02*
X122936000Y-119726600D01*
X122936000Y-119726600D02*
X122936000Y-118110000D01*
X152196800Y-108184094D02*
X147035413Y-103022707D01*
X152196800Y-109575600D02*
X152196800Y-108184094D01*
G04 #@! TO.N,Net-(C1-Pad1)*
X98552000Y-131572000D02*
X101193600Y-128930400D01*
X94945458Y-131572000D02*
X98552000Y-131572000D01*
X93726000Y-130352542D02*
X94945458Y-131572000D01*
X93726000Y-125926600D02*
X93726000Y-130352542D01*
X94644000Y-122208600D02*
X94644000Y-125008600D01*
X94644000Y-125008600D02*
X93726000Y-125926600D01*
X126657600Y-118050657D02*
X127254953Y-118648010D01*
X126657600Y-115011200D02*
X126657600Y-118050657D01*
G04 #@! TO.N,Net-(D2-Pad1)*
X105105600Y-111912400D02*
X105105600Y-116907002D01*
X105105600Y-116907002D02*
X103394602Y-118618000D01*
X103886000Y-121733919D02*
X103394602Y-121242521D01*
X103886000Y-122936000D02*
X103886000Y-121733919D01*
X96344000Y-122208600D02*
X96344000Y-118950000D01*
X96344000Y-118950000D02*
X96266000Y-118872000D01*
X100584000Y-118872000D02*
X103394602Y-118872000D01*
X103394602Y-121242521D02*
X103394602Y-118872000D01*
X103394602Y-118872000D02*
X103394602Y-118618000D01*
X117966800Y-124488400D02*
X115076705Y-124488400D01*
X119716800Y-123088400D02*
X119366800Y-123088400D01*
X115076705Y-124488400D02*
X113302284Y-122713979D01*
X119366800Y-123088400D02*
X117966800Y-124488400D01*
G04 #@! TO.N,Net-(R3-Pad2)*
X115477400Y-119786400D02*
X117186600Y-119786400D01*
X99744000Y-122208600D02*
X99744000Y-125554000D01*
X99744000Y-125554000D02*
X99568000Y-125730000D01*
X115570000Y-119879000D02*
X115477400Y-119786400D01*
X115570000Y-122682000D02*
X115570000Y-119879000D01*
G04 #@! TD*
D32*
G36*
X104407577Y-128173756D02*
X104456951Y-128247649D01*
X104530844Y-128297023D01*
X104530845Y-128297024D01*
X104634443Y-128366246D01*
X104749690Y-128443252D01*
X105007835Y-128494600D01*
X105007839Y-128494600D01*
X105095000Y-128511937D01*
X105182161Y-128494600D01*
X108532864Y-128494600D01*
X108632814Y-128644186D01*
X108923965Y-128838726D01*
X109265480Y-128906658D01*
X109533822Y-129175000D01*
X109154452Y-129175000D01*
X108663783Y-129378242D01*
X108288242Y-129753783D01*
X108085000Y-130244452D01*
X108085000Y-130775548D01*
X108288242Y-131266217D01*
X108663783Y-131641758D01*
X109154452Y-131845000D01*
X109663822Y-131845000D01*
X110462978Y-132644157D01*
X110512352Y-132718050D01*
X110586245Y-132767424D01*
X110586246Y-132767425D01*
X110613815Y-132785846D01*
X110805091Y-132913653D01*
X111063236Y-132965001D01*
X111063240Y-132965001D01*
X111150401Y-132982338D01*
X111237562Y-132965001D01*
X125160876Y-132965001D01*
X125248037Y-132982338D01*
X125335198Y-132965001D01*
X125335202Y-132965001D01*
X125593347Y-132913653D01*
X125886086Y-132718050D01*
X125935462Y-132644154D01*
X128919245Y-129660372D01*
X129078975Y-129899425D01*
X129377361Y-130098800D01*
X129078975Y-130298175D01*
X128750761Y-130789382D01*
X128635508Y-131368800D01*
X128750761Y-131948218D01*
X129078975Y-132439425D01*
X129570182Y-132767639D01*
X130003344Y-132853800D01*
X130295856Y-132853800D01*
X130729018Y-132767639D01*
X131220225Y-132439425D01*
X131548439Y-131948218D01*
X131663692Y-131368800D01*
X131548439Y-130789382D01*
X131220225Y-130298175D01*
X130921839Y-130098800D01*
X131220225Y-129899425D01*
X131548439Y-129408218D01*
X131626251Y-129017030D01*
X132397387Y-129788166D01*
X132446761Y-129862059D01*
X132520654Y-129911433D01*
X132520655Y-129911434D01*
X132613991Y-129973799D01*
X132739500Y-130057662D01*
X132997645Y-130109010D01*
X132997649Y-130109010D01*
X133084810Y-130126347D01*
X133171971Y-130109010D01*
X155549797Y-130109010D01*
X155487000Y-130260615D01*
X155487000Y-130851385D01*
X155713078Y-131397185D01*
X156130815Y-131814922D01*
X156676615Y-132041000D01*
X157267385Y-132041000D01*
X157813185Y-131814922D01*
X158014560Y-131613547D01*
X158014560Y-132625200D01*
X158063843Y-132872965D01*
X158204191Y-133083009D01*
X158414235Y-133223357D01*
X158662000Y-133272640D01*
X159757861Y-133272640D01*
X160124578Y-133639357D01*
X160173952Y-133713250D01*
X160247845Y-133762624D01*
X160247846Y-133762625D01*
X160303587Y-133799870D01*
X160466691Y-133908853D01*
X160724836Y-133960201D01*
X160724841Y-133960201D01*
X160812000Y-133977538D01*
X160899160Y-133960201D01*
X170367638Y-133960201D01*
X170441368Y-133974866D01*
X109935758Y-134290000D01*
X94012635Y-134290000D01*
X93127000Y-132961548D01*
X93127000Y-131016682D01*
X93161845Y-131039965D01*
X94258035Y-132136156D01*
X94307409Y-132210049D01*
X94381302Y-132259423D01*
X94381303Y-132259424D01*
X94387393Y-132263493D01*
X94600148Y-132405652D01*
X94858293Y-132457000D01*
X94858298Y-132457000D01*
X94945457Y-132474337D01*
X95032617Y-132457000D01*
X98464839Y-132457000D01*
X98552000Y-132474337D01*
X98639161Y-132457000D01*
X98639165Y-132457000D01*
X98897310Y-132405652D01*
X99190049Y-132210049D01*
X99239425Y-132136153D01*
X100444641Y-130930938D01*
X100768948Y-131065270D01*
X101618252Y-131065270D01*
X102402907Y-130740256D01*
X103003456Y-130139707D01*
X103328470Y-129355052D01*
X103328470Y-128505748D01*
X103003456Y-127721093D01*
X102402907Y-127120544D01*
X101660538Y-126813045D01*
X102008156Y-126465427D01*
X102082049Y-126416053D01*
X102140009Y-126329311D01*
X102216764Y-126214439D01*
X102277652Y-126123314D01*
X102290839Y-126057018D01*
X104407577Y-128173756D01*
X104407577Y-128173756D01*
G37*
X104407577Y-128173756D02*
X104456951Y-128247649D01*
X104530844Y-128297023D01*
X104530845Y-128297024D01*
X104634443Y-128366246D01*
X104749690Y-128443252D01*
X105007835Y-128494600D01*
X105007839Y-128494600D01*
X105095000Y-128511937D01*
X105182161Y-128494600D01*
X108532864Y-128494600D01*
X108632814Y-128644186D01*
X108923965Y-128838726D01*
X109265480Y-128906658D01*
X109533822Y-129175000D01*
X109154452Y-129175000D01*
X108663783Y-129378242D01*
X108288242Y-129753783D01*
X108085000Y-130244452D01*
X108085000Y-130775548D01*
X108288242Y-131266217D01*
X108663783Y-131641758D01*
X109154452Y-131845000D01*
X109663822Y-131845000D01*
X110462978Y-132644157D01*
X110512352Y-132718050D01*
X110586245Y-132767424D01*
X110586246Y-132767425D01*
X110613815Y-132785846D01*
X110805091Y-132913653D01*
X111063236Y-132965001D01*
X111063240Y-132965001D01*
X111150401Y-132982338D01*
X111237562Y-132965001D01*
X125160876Y-132965001D01*
X125248037Y-132982338D01*
X125335198Y-132965001D01*
X125335202Y-132965001D01*
X125593347Y-132913653D01*
X125886086Y-132718050D01*
X125935462Y-132644154D01*
X128919245Y-129660372D01*
X129078975Y-129899425D01*
X129377361Y-130098800D01*
X129078975Y-130298175D01*
X128750761Y-130789382D01*
X128635508Y-131368800D01*
X128750761Y-131948218D01*
X129078975Y-132439425D01*
X129570182Y-132767639D01*
X130003344Y-132853800D01*
X130295856Y-132853800D01*
X130729018Y-132767639D01*
X131220225Y-132439425D01*
X131548439Y-131948218D01*
X131663692Y-131368800D01*
X131548439Y-130789382D01*
X131220225Y-130298175D01*
X130921839Y-130098800D01*
X131220225Y-129899425D01*
X131548439Y-129408218D01*
X131626251Y-129017030D01*
X132397387Y-129788166D01*
X132446761Y-129862059D01*
X132520654Y-129911433D01*
X132520655Y-129911434D01*
X132613991Y-129973799D01*
X132739500Y-130057662D01*
X132997645Y-130109010D01*
X132997649Y-130109010D01*
X133084810Y-130126347D01*
X133171971Y-130109010D01*
X155549797Y-130109010D01*
X155487000Y-130260615D01*
X155487000Y-130851385D01*
X155713078Y-131397185D01*
X156130815Y-131814922D01*
X156676615Y-132041000D01*
X157267385Y-132041000D01*
X157813185Y-131814922D01*
X158014560Y-131613547D01*
X158014560Y-132625200D01*
X158063843Y-132872965D01*
X158204191Y-133083009D01*
X158414235Y-133223357D01*
X158662000Y-133272640D01*
X159757861Y-133272640D01*
X160124578Y-133639357D01*
X160173952Y-133713250D01*
X160247845Y-133762624D01*
X160247846Y-133762625D01*
X160303587Y-133799870D01*
X160466691Y-133908853D01*
X160724836Y-133960201D01*
X160724841Y-133960201D01*
X160812000Y-133977538D01*
X160899160Y-133960201D01*
X170367638Y-133960201D01*
X170441368Y-133974866D01*
X109935758Y-134290000D01*
X94012635Y-134290000D01*
X93127000Y-132961548D01*
X93127000Y-131016682D01*
X93161845Y-131039965D01*
X94258035Y-132136156D01*
X94307409Y-132210049D01*
X94381302Y-132259423D01*
X94381303Y-132259424D01*
X94387393Y-132263493D01*
X94600148Y-132405652D01*
X94858293Y-132457000D01*
X94858298Y-132457000D01*
X94945457Y-132474337D01*
X95032617Y-132457000D01*
X98464839Y-132457000D01*
X98552000Y-132474337D01*
X98639161Y-132457000D01*
X98639165Y-132457000D01*
X98897310Y-132405652D01*
X99190049Y-132210049D01*
X99239425Y-132136153D01*
X100444641Y-130930938D01*
X100768948Y-131065270D01*
X101618252Y-131065270D01*
X102402907Y-130740256D01*
X103003456Y-130139707D01*
X103328470Y-129355052D01*
X103328470Y-128505748D01*
X103003456Y-127721093D01*
X102402907Y-127120544D01*
X101660538Y-126813045D01*
X102008156Y-126465427D01*
X102082049Y-126416053D01*
X102140009Y-126329311D01*
X102216764Y-126214439D01*
X102277652Y-126123314D01*
X102290839Y-126057018D01*
X104407577Y-128173756D01*
G36*
X173359000Y-132521641D02*
X173341663Y-132608802D01*
X173359000Y-132695963D01*
X173359000Y-132695966D01*
X173410348Y-132954111D01*
X173605951Y-133246851D01*
X173679847Y-133296227D01*
X174297775Y-133914156D01*
X174324826Y-133954640D01*
X170468952Y-133974723D01*
X170541960Y-133960201D01*
X170541964Y-133960201D01*
X170800109Y-133908853D01*
X171092848Y-133713250D01*
X171142224Y-133639354D01*
X171194440Y-133587138D01*
X171354709Y-133480049D01*
X171404085Y-133406153D01*
X173359001Y-131451238D01*
X173359000Y-132521641D01*
X173359000Y-132521641D01*
G37*
X173359000Y-132521641D02*
X173341663Y-132608802D01*
X173359000Y-132695963D01*
X173359000Y-132695966D01*
X173410348Y-132954111D01*
X173605951Y-133246851D01*
X173679847Y-133296227D01*
X174297775Y-133914156D01*
X174324826Y-133954640D01*
X170468952Y-133974723D01*
X170541960Y-133960201D01*
X170541964Y-133960201D01*
X170800109Y-133908853D01*
X171092848Y-133713250D01*
X171142224Y-133639354D01*
X171194440Y-133587138D01*
X171354709Y-133480049D01*
X171404085Y-133406153D01*
X173359001Y-131451238D01*
X173359000Y-132521641D01*
G36*
X190873000Y-132947394D02*
X189947120Y-133873274D01*
X185311359Y-133897419D01*
X185912240Y-133296538D01*
X185984944Y-133311000D01*
X186277456Y-133311000D01*
X186710618Y-133224839D01*
X187201825Y-132896625D01*
X187401200Y-132598239D01*
X187600575Y-132896625D01*
X188091782Y-133224839D01*
X188524944Y-133311000D01*
X188817456Y-133311000D01*
X189250618Y-133224839D01*
X189741825Y-132896625D01*
X190070039Y-132405418D01*
X190185292Y-131826000D01*
X190070039Y-131246582D01*
X189741825Y-130755375D01*
X189250618Y-130427161D01*
X188817456Y-130341000D01*
X188524944Y-130341000D01*
X188091782Y-130427161D01*
X187600575Y-130755375D01*
X187401200Y-131053761D01*
X187201825Y-130755375D01*
X186710618Y-130427161D01*
X186277456Y-130341000D01*
X185984944Y-130341000D01*
X185551782Y-130427161D01*
X185060575Y-130755375D01*
X184861200Y-131053761D01*
X184661825Y-130755375D01*
X184170618Y-130427161D01*
X183737456Y-130341000D01*
X183444944Y-130341000D01*
X183011782Y-130427161D01*
X182520575Y-130755375D01*
X182321200Y-131053761D01*
X182121825Y-130755375D01*
X181630618Y-130427161D01*
X181197456Y-130341000D01*
X180904944Y-130341000D01*
X180471782Y-130427161D01*
X179980575Y-130755375D01*
X179781200Y-131053761D01*
X179601651Y-130785046D01*
X181993698Y-128393000D01*
X188380839Y-128393000D01*
X188468000Y-128410337D01*
X188555161Y-128393000D01*
X188555165Y-128393000D01*
X188813310Y-128341652D01*
X189106049Y-128146049D01*
X189155425Y-128072153D01*
X190556156Y-126671423D01*
X190630049Y-126622049D01*
X190699616Y-126517936D01*
X190800885Y-126366376D01*
X190825652Y-126329310D01*
X190873000Y-126091274D01*
X190873000Y-132947394D01*
X190873000Y-132947394D01*
G37*
X190873000Y-132947394D02*
X189947120Y-133873274D01*
X185311359Y-133897419D01*
X185912240Y-133296538D01*
X185984944Y-133311000D01*
X186277456Y-133311000D01*
X186710618Y-133224839D01*
X187201825Y-132896625D01*
X187401200Y-132598239D01*
X187600575Y-132896625D01*
X188091782Y-133224839D01*
X188524944Y-133311000D01*
X188817456Y-133311000D01*
X189250618Y-133224839D01*
X189741825Y-132896625D01*
X190070039Y-132405418D01*
X190185292Y-131826000D01*
X190070039Y-131246582D01*
X189741825Y-130755375D01*
X189250618Y-130427161D01*
X188817456Y-130341000D01*
X188524944Y-130341000D01*
X188091782Y-130427161D01*
X187600575Y-130755375D01*
X187401200Y-131053761D01*
X187201825Y-130755375D01*
X186710618Y-130427161D01*
X186277456Y-130341000D01*
X185984944Y-130341000D01*
X185551782Y-130427161D01*
X185060575Y-130755375D01*
X184861200Y-131053761D01*
X184661825Y-130755375D01*
X184170618Y-130427161D01*
X183737456Y-130341000D01*
X183444944Y-130341000D01*
X183011782Y-130427161D01*
X182520575Y-130755375D01*
X182321200Y-131053761D01*
X182121825Y-130755375D01*
X181630618Y-130427161D01*
X181197456Y-130341000D01*
X180904944Y-130341000D01*
X180471782Y-130427161D01*
X179980575Y-130755375D01*
X179781200Y-131053761D01*
X179601651Y-130785046D01*
X181993698Y-128393000D01*
X188380839Y-128393000D01*
X188468000Y-128410337D01*
X188555161Y-128393000D01*
X188555165Y-128393000D01*
X188813310Y-128341652D01*
X189106049Y-128146049D01*
X189155425Y-128072153D01*
X190556156Y-126671423D01*
X190630049Y-126622049D01*
X190699616Y-126517936D01*
X190800885Y-126366376D01*
X190825652Y-126329310D01*
X190873000Y-126091274D01*
X190873000Y-132947394D01*
G36*
X114960600Y-128536639D02*
X114943263Y-128623800D01*
X114960600Y-128710961D01*
X114960600Y-128710964D01*
X115011948Y-128969109D01*
X115207551Y-129261849D01*
X115281447Y-129311225D01*
X115698160Y-129727938D01*
X115698160Y-131073800D01*
X115722268Y-131195001D01*
X113121257Y-131195001D01*
X113295000Y-130775548D01*
X113295000Y-130244452D01*
X113091758Y-129753783D01*
X112716217Y-129378242D01*
X112225548Y-129175000D01*
X112036979Y-129175000D01*
X111769019Y-128907040D01*
X112017400Y-128907040D01*
X112360835Y-128838726D01*
X112453022Y-128777129D01*
X112696815Y-129020922D01*
X113242615Y-129247000D01*
X113833385Y-129247000D01*
X114379185Y-129020922D01*
X114796922Y-128603185D01*
X114960600Y-128208031D01*
X114960600Y-128536639D01*
X114960600Y-128536639D01*
G37*
X114960600Y-128536639D02*
X114943263Y-128623800D01*
X114960600Y-128710961D01*
X114960600Y-128710964D01*
X115011948Y-128969109D01*
X115207551Y-129261849D01*
X115281447Y-129311225D01*
X115698160Y-129727938D01*
X115698160Y-131073800D01*
X115722268Y-131195001D01*
X113121257Y-131195001D01*
X113295000Y-130775548D01*
X113295000Y-130244452D01*
X113091758Y-129753783D01*
X112716217Y-129378242D01*
X112225548Y-129175000D01*
X112036979Y-129175000D01*
X111769019Y-128907040D01*
X112017400Y-128907040D01*
X112360835Y-128838726D01*
X112453022Y-128777129D01*
X112696815Y-129020922D01*
X113242615Y-129247000D01*
X113833385Y-129247000D01*
X114379185Y-129020922D01*
X114796922Y-128603185D01*
X114960600Y-128208031D01*
X114960600Y-128536639D01*
G36*
X121058542Y-131195001D02*
X120832658Y-131195001D01*
X120945600Y-131025971D01*
X121058542Y-131195001D01*
X121058542Y-131195001D01*
G37*
X121058542Y-131195001D02*
X120832658Y-131195001D01*
X120945600Y-131025971D01*
X121058542Y-131195001D01*
G36*
X123558542Y-131195001D02*
X123332658Y-131195001D01*
X123445600Y-131025971D01*
X123558542Y-131195001D01*
X123558542Y-131195001D01*
G37*
X123558542Y-131195001D02*
X123332658Y-131195001D01*
X123445600Y-131025971D01*
X123558542Y-131195001D01*
G36*
X169413162Y-130206899D02*
X169187084Y-130752699D01*
X169187084Y-130890200D01*
X168326656Y-130890200D01*
X168202625Y-130704575D01*
X167711418Y-130376361D01*
X167278256Y-130290200D01*
X166985744Y-130290200D01*
X166913040Y-130304662D01*
X166717388Y-130109010D01*
X169511051Y-130109010D01*
X169413162Y-130206899D01*
X169413162Y-130206899D01*
G37*
X169413162Y-130206899D02*
X169187084Y-130752699D01*
X169187084Y-130890200D01*
X168326656Y-130890200D01*
X168202625Y-130704575D01*
X167711418Y-130376361D01*
X167278256Y-130290200D01*
X166985744Y-130290200D01*
X166913040Y-130304662D01*
X166717388Y-130109010D01*
X169511051Y-130109010D01*
X169413162Y-130206899D01*
G36*
X189107000Y-125617421D02*
X188101422Y-126623000D01*
X181714280Y-126623000D01*
X181627119Y-126605663D01*
X181539958Y-126623000D01*
X181539954Y-126623000D01*
X181281809Y-126674348D01*
X181062964Y-126820576D01*
X181062963Y-126820577D01*
X180989070Y-126869951D01*
X180939696Y-126943844D01*
X177947045Y-129936496D01*
X177873152Y-129985870D01*
X177823778Y-130059763D01*
X177823776Y-130059765D01*
X177677548Y-130278610D01*
X177608863Y-130623919D01*
X177612201Y-130640698D01*
X177440575Y-130755375D01*
X177428384Y-130773619D01*
X177419357Y-130728235D01*
X177279009Y-130518191D01*
X177068965Y-130377843D01*
X176821200Y-130328560D01*
X176210217Y-130328560D01*
X176366741Y-130172036D01*
X176448693Y-130188337D01*
X176535854Y-130171000D01*
X176535858Y-130171000D01*
X176794003Y-130119652D01*
X177086742Y-129924049D01*
X177136118Y-129850153D01*
X177709261Y-129277010D01*
X178238068Y-129277010D01*
X178783868Y-129050932D01*
X179201605Y-128633195D01*
X179427683Y-128087395D01*
X179427683Y-127496625D01*
X179201605Y-126950825D01*
X178882380Y-126631600D01*
X179410957Y-126103024D01*
X179445796Y-126079745D01*
X179576891Y-126167340D01*
X179995467Y-126250600D01*
X180278133Y-126250600D01*
X180696709Y-126167340D01*
X181171377Y-125850177D01*
X181406800Y-125497842D01*
X181642223Y-125850177D01*
X182116891Y-126167340D01*
X182535467Y-126250600D01*
X182818133Y-126250600D01*
X183236709Y-126167340D01*
X183711377Y-125850177D01*
X183946800Y-125497842D01*
X184182223Y-125850177D01*
X184656891Y-126167340D01*
X185075467Y-126250600D01*
X185358133Y-126250600D01*
X185776709Y-126167340D01*
X186251377Y-125850177D01*
X186486800Y-125497842D01*
X186722223Y-125850177D01*
X187196891Y-126167340D01*
X187615467Y-126250600D01*
X187898133Y-126250600D01*
X188316709Y-126167340D01*
X188791377Y-125850177D01*
X189107000Y-125377814D01*
X189107000Y-125617421D01*
X189107000Y-125617421D01*
G37*
X189107000Y-125617421D02*
X188101422Y-126623000D01*
X181714280Y-126623000D01*
X181627119Y-126605663D01*
X181539958Y-126623000D01*
X181539954Y-126623000D01*
X181281809Y-126674348D01*
X181062964Y-126820576D01*
X181062963Y-126820577D01*
X180989070Y-126869951D01*
X180939696Y-126943844D01*
X177947045Y-129936496D01*
X177873152Y-129985870D01*
X177823778Y-130059763D01*
X177823776Y-130059765D01*
X177677548Y-130278610D01*
X177608863Y-130623919D01*
X177612201Y-130640698D01*
X177440575Y-130755375D01*
X177428384Y-130773619D01*
X177419357Y-130728235D01*
X177279009Y-130518191D01*
X177068965Y-130377843D01*
X176821200Y-130328560D01*
X176210217Y-130328560D01*
X176366741Y-130172036D01*
X176448693Y-130188337D01*
X176535854Y-130171000D01*
X176535858Y-130171000D01*
X176794003Y-130119652D01*
X177086742Y-129924049D01*
X177136118Y-129850153D01*
X177709261Y-129277010D01*
X178238068Y-129277010D01*
X178783868Y-129050932D01*
X179201605Y-128633195D01*
X179427683Y-128087395D01*
X179427683Y-127496625D01*
X179201605Y-126950825D01*
X178882380Y-126631600D01*
X179410957Y-126103024D01*
X179445796Y-126079745D01*
X179576891Y-126167340D01*
X179995467Y-126250600D01*
X180278133Y-126250600D01*
X180696709Y-126167340D01*
X181171377Y-125850177D01*
X181406800Y-125497842D01*
X181642223Y-125850177D01*
X182116891Y-126167340D01*
X182535467Y-126250600D01*
X182818133Y-126250600D01*
X183236709Y-126167340D01*
X183711377Y-125850177D01*
X183946800Y-125497842D01*
X184182223Y-125850177D01*
X184656891Y-126167340D01*
X185075467Y-126250600D01*
X185358133Y-126250600D01*
X185776709Y-126167340D01*
X186251377Y-125850177D01*
X186486800Y-125497842D01*
X186722223Y-125850177D01*
X187196891Y-126167340D01*
X187615467Y-126250600D01*
X187898133Y-126250600D01*
X188316709Y-126167340D01*
X188791377Y-125850177D01*
X189107000Y-125377814D01*
X189107000Y-125617421D01*
G36*
X99193062Y-129679359D02*
X98215908Y-130656514D01*
X98260910Y-130430270D01*
X98260910Y-129826632D01*
X98291604Y-129832737D01*
X98378765Y-129815400D01*
X98378769Y-129815400D01*
X98636914Y-129764052D01*
X98929653Y-129568449D01*
X98979029Y-129494553D01*
X99076245Y-129397337D01*
X99193062Y-129679359D01*
X99193062Y-129679359D01*
G37*
X99193062Y-129679359D02*
X98215908Y-130656514D01*
X98260910Y-130430270D01*
X98260910Y-129826632D01*
X98291604Y-129832737D01*
X98378765Y-129815400D01*
X98378769Y-129815400D01*
X98636914Y-129764052D01*
X98929653Y-129568449D01*
X98979029Y-129494553D01*
X99076245Y-129397337D01*
X99193062Y-129679359D01*
G36*
X171980557Y-130326525D02*
X171931006Y-130206899D01*
X171833117Y-130109010D01*
X172198072Y-130109010D01*
X171980557Y-130326525D01*
X171980557Y-130326525D01*
G37*
X171980557Y-130326525D02*
X171931006Y-130206899D01*
X171833117Y-130109010D01*
X172198072Y-130109010D01*
X171980557Y-130326525D01*
G36*
X127607014Y-128469445D02*
X126180600Y-129895860D01*
X126180600Y-129827544D01*
X126094439Y-129394382D01*
X125766225Y-128903175D01*
X125275017Y-128574961D01*
X124695600Y-128459708D01*
X124583000Y-128482105D01*
X124583000Y-128056493D01*
X125014356Y-128235167D01*
X125605126Y-128235167D01*
X126150926Y-128009089D01*
X126568663Y-127591352D01*
X126794741Y-127045552D01*
X126794741Y-126516745D01*
X127607013Y-125704473D01*
X127607014Y-128469445D01*
X127607014Y-128469445D01*
G37*
X127607014Y-128469445D02*
X126180600Y-129895860D01*
X126180600Y-129827544D01*
X126094439Y-129394382D01*
X125766225Y-128903175D01*
X125275017Y-128574961D01*
X124695600Y-128459708D01*
X124583000Y-128482105D01*
X124583000Y-128056493D01*
X125014356Y-128235167D01*
X125605126Y-128235167D01*
X126150926Y-128009089D01*
X126568663Y-127591352D01*
X126794741Y-127045552D01*
X126794741Y-126516745D01*
X127607013Y-125704473D01*
X127607014Y-128469445D01*
G36*
X121819360Y-122901503D02*
X121819360Y-123988400D01*
X121868643Y-124236165D01*
X122008991Y-124446209D01*
X122219035Y-124586557D01*
X122466800Y-124635840D01*
X122813000Y-124635840D01*
X122813001Y-128600341D01*
X122775017Y-128574961D01*
X122195600Y-128459708D01*
X121616182Y-128574961D01*
X121124975Y-128903175D01*
X120945600Y-129171629D01*
X120766225Y-128903175D01*
X120275017Y-128574961D01*
X119695600Y-128459708D01*
X119116182Y-128574961D01*
X118646319Y-128888914D01*
X118643757Y-128876035D01*
X118503409Y-128665991D01*
X118293365Y-128525643D01*
X118045600Y-128476360D01*
X116949738Y-128476360D01*
X116730600Y-128257222D01*
X116730600Y-127362759D01*
X116747937Y-127275599D01*
X116730600Y-127188440D01*
X116730600Y-127188435D01*
X116679252Y-126930290D01*
X116483649Y-126637551D01*
X116409756Y-126588177D01*
X115194979Y-125373400D01*
X117879639Y-125373400D01*
X117966800Y-125390737D01*
X118053961Y-125373400D01*
X118053965Y-125373400D01*
X118312110Y-125322052D01*
X118604849Y-125126449D01*
X118654225Y-125052553D01*
X119070938Y-124635840D01*
X120966800Y-124635840D01*
X121214565Y-124586557D01*
X121424609Y-124446209D01*
X121564957Y-124236165D01*
X121614240Y-123988400D01*
X121614240Y-122696383D01*
X121819360Y-122901503D01*
X121819360Y-122901503D01*
G37*
X121819360Y-122901503D02*
X121819360Y-123988400D01*
X121868643Y-124236165D01*
X122008991Y-124446209D01*
X122219035Y-124586557D01*
X122466800Y-124635840D01*
X122813000Y-124635840D01*
X122813001Y-128600341D01*
X122775017Y-128574961D01*
X122195600Y-128459708D01*
X121616182Y-128574961D01*
X121124975Y-128903175D01*
X120945600Y-129171629D01*
X120766225Y-128903175D01*
X120275017Y-128574961D01*
X119695600Y-128459708D01*
X119116182Y-128574961D01*
X118646319Y-128888914D01*
X118643757Y-128876035D01*
X118503409Y-128665991D01*
X118293365Y-128525643D01*
X118045600Y-128476360D01*
X116949738Y-128476360D01*
X116730600Y-128257222D01*
X116730600Y-127362759D01*
X116747937Y-127275599D01*
X116730600Y-127188440D01*
X116730600Y-127188435D01*
X116679252Y-126930290D01*
X116483649Y-126637551D01*
X116409756Y-126588177D01*
X115194979Y-125373400D01*
X117879639Y-125373400D01*
X117966800Y-125390737D01*
X118053961Y-125373400D01*
X118053965Y-125373400D01*
X118312110Y-125322052D01*
X118604849Y-125126449D01*
X118654225Y-125052553D01*
X119070938Y-124635840D01*
X120966800Y-124635840D01*
X121214565Y-124586557D01*
X121424609Y-124446209D01*
X121564957Y-124236165D01*
X121614240Y-123988400D01*
X121614240Y-122696383D01*
X121819360Y-122901503D01*
G36*
X140360600Y-120278363D02*
X140343262Y-120365529D01*
X140411947Y-120710838D01*
X140558175Y-120929683D01*
X140558177Y-120929685D01*
X140607551Y-121003578D01*
X140681444Y-121052952D01*
X147967501Y-128339010D01*
X133451389Y-128339010D01*
X131620138Y-126507760D01*
X131663692Y-126288800D01*
X131548439Y-125709382D01*
X131220225Y-125218175D01*
X131201981Y-125205984D01*
X131247365Y-125196957D01*
X131457409Y-125056609D01*
X131597757Y-124846565D01*
X131642274Y-124622759D01*
X131844910Y-124582452D01*
X132137649Y-124386849D01*
X132187025Y-124312953D01*
X140360600Y-116139379D01*
X140360600Y-120278363D01*
X140360600Y-120278363D01*
G37*
X140360600Y-120278363D02*
X140343262Y-120365529D01*
X140411947Y-120710838D01*
X140558175Y-120929683D01*
X140558177Y-120929685D01*
X140607551Y-121003578D01*
X140681444Y-121052952D01*
X147967501Y-128339010D01*
X133451389Y-128339010D01*
X131620138Y-126507760D01*
X131663692Y-126288800D01*
X131548439Y-125709382D01*
X131220225Y-125218175D01*
X131201981Y-125205984D01*
X131247365Y-125196957D01*
X131457409Y-125056609D01*
X131597757Y-124846565D01*
X131642274Y-124622759D01*
X131844910Y-124582452D01*
X132137649Y-124386849D01*
X132187025Y-124312953D01*
X140360600Y-116139379D01*
X140360600Y-120278363D01*
G36*
X98309078Y-126571185D02*
X98726815Y-126988922D01*
X98906907Y-127063519D01*
X98260910Y-127709516D01*
X98260910Y-127430530D01*
X98211627Y-127182765D01*
X98071279Y-126972721D01*
X97861235Y-126832373D01*
X97613470Y-126783090D01*
X97512618Y-126783090D01*
X98137866Y-126157843D01*
X98309078Y-126571185D01*
X98309078Y-126571185D01*
G37*
X98309078Y-126571185D02*
X98726815Y-126988922D01*
X98906907Y-127063519D01*
X98260910Y-127709516D01*
X98260910Y-127430530D01*
X98211627Y-127182765D01*
X98071279Y-126972721D01*
X97861235Y-126832373D01*
X97613470Y-126783090D01*
X97512618Y-126783090D01*
X98137866Y-126157843D01*
X98309078Y-126571185D01*
G36*
X172371092Y-126249730D02*
X170981822Y-127639000D01*
X170944978Y-127639000D01*
X172340362Y-126243617D01*
X172371092Y-126249730D01*
X172371092Y-126249730D01*
G37*
X172371092Y-126249730D02*
X170981822Y-127639000D01*
X170944978Y-127639000D01*
X172340362Y-126243617D01*
X172371092Y-126249730D01*
G36*
X146212988Y-123129588D02*
X146195650Y-123216754D01*
X146264335Y-123562063D01*
X146410563Y-123780908D01*
X146410565Y-123780910D01*
X146459939Y-123854803D01*
X146533832Y-123904177D01*
X150268654Y-127639000D01*
X149770649Y-127639000D01*
X142130599Y-119998951D01*
X142130599Y-119451862D01*
X142290270Y-119518000D01*
X142900930Y-119518000D01*
X143465107Y-119284310D01*
X143896910Y-118852507D01*
X144130600Y-118288330D01*
X144130600Y-117677670D01*
X143896910Y-117113493D01*
X143480600Y-116697183D01*
X143480600Y-115432476D01*
X143529490Y-115550507D01*
X143961293Y-115982310D01*
X144525470Y-116216000D01*
X145136130Y-116216000D01*
X145700307Y-115982310D01*
X146132110Y-115550507D01*
X146212987Y-115355252D01*
X146212988Y-123129588D01*
X146212988Y-123129588D01*
G37*
X146212988Y-123129588D02*
X146195650Y-123216754D01*
X146264335Y-123562063D01*
X146410563Y-123780908D01*
X146410565Y-123780910D01*
X146459939Y-123854803D01*
X146533832Y-123904177D01*
X150268654Y-127639000D01*
X149770649Y-127639000D01*
X142130599Y-119998951D01*
X142130599Y-119451862D01*
X142290270Y-119518000D01*
X142900930Y-119518000D01*
X143465107Y-119284310D01*
X143896910Y-118852507D01*
X144130600Y-118288330D01*
X144130600Y-117677670D01*
X143896910Y-117113493D01*
X143480600Y-116697183D01*
X143480600Y-115432476D01*
X143529490Y-115550507D01*
X143961293Y-115982310D01*
X144525470Y-116216000D01*
X145136130Y-116216000D01*
X145700307Y-115982310D01*
X146132110Y-115550507D01*
X146212987Y-115355252D01*
X146212988Y-123129588D01*
G36*
X129377361Y-127558800D02*
X129377013Y-127559032D01*
X129377013Y-127558568D01*
X129377361Y-127558800D01*
X129377361Y-127558800D01*
G37*
X129377361Y-127558800D02*
X129377013Y-127559032D01*
X129377013Y-127558568D01*
X129377361Y-127558800D01*
G36*
X169831092Y-126249730D02*
X169265811Y-126815011D01*
X169228968Y-126815011D01*
X169800362Y-126243617D01*
X169831092Y-126249730D01*
X169831092Y-126249730D01*
G37*
X169831092Y-126249730D02*
X169265811Y-126815011D01*
X169228968Y-126815011D01*
X169800362Y-126243617D01*
X169831092Y-126249730D01*
G36*
X95546235Y-125106757D02*
X95794000Y-125156040D01*
X96636511Y-125156040D01*
X95549445Y-126243107D01*
X95475552Y-126292481D01*
X95426178Y-126366374D01*
X95426176Y-126366376D01*
X95279948Y-126585221D01*
X95240590Y-126783090D01*
X94613730Y-126783090D01*
X94611000Y-126783633D01*
X94611000Y-126293178D01*
X95208156Y-125696023D01*
X95282049Y-125646649D01*
X95343956Y-125554000D01*
X95385887Y-125491245D01*
X95477652Y-125353910D01*
X95529000Y-125095765D01*
X95529000Y-125095760D01*
X95529091Y-125095302D01*
X95546235Y-125106757D01*
X95546235Y-125106757D01*
G37*
X95546235Y-125106757D02*
X95794000Y-125156040D01*
X96636511Y-125156040D01*
X95549445Y-126243107D01*
X95475552Y-126292481D01*
X95426178Y-126366374D01*
X95426176Y-126366376D01*
X95279948Y-126585221D01*
X95240590Y-126783090D01*
X94613730Y-126783090D01*
X94611000Y-126783633D01*
X94611000Y-126293178D01*
X95208156Y-125696023D01*
X95282049Y-125646649D01*
X95343956Y-125554000D01*
X95385887Y-125491245D01*
X95477652Y-125353910D01*
X95529000Y-125095765D01*
X95529000Y-125095760D01*
X95529091Y-125095302D01*
X95546235Y-125106757D01*
G36*
X108794900Y-126466712D02*
X108632814Y-126575014D01*
X108532864Y-126724600D01*
X105461579Y-126724600D01*
X102641440Y-123904462D01*
X102641440Y-123791547D01*
X103044815Y-124194922D01*
X103590615Y-124421000D01*
X104181385Y-124421000D01*
X104727185Y-124194922D01*
X105144922Y-123777185D01*
X105371000Y-123231385D01*
X105371000Y-122640615D01*
X105144922Y-122094815D01*
X105093107Y-122043000D01*
X107100839Y-122043000D01*
X107188000Y-122060337D01*
X107275161Y-122043000D01*
X107275165Y-122043000D01*
X107533310Y-121991652D01*
X107826049Y-121796049D01*
X107875425Y-121722153D01*
X108508368Y-121089211D01*
X108627436Y-121065527D01*
X108794901Y-120953630D01*
X108794900Y-126466712D01*
X108794900Y-126466712D01*
G37*
X108794900Y-126466712D02*
X108632814Y-126575014D01*
X108532864Y-126724600D01*
X105461579Y-126724600D01*
X102641440Y-123904462D01*
X102641440Y-123791547D01*
X103044815Y-124194922D01*
X103590615Y-124421000D01*
X104181385Y-124421000D01*
X104727185Y-124194922D01*
X105144922Y-123777185D01*
X105371000Y-123231385D01*
X105371000Y-122640615D01*
X105144922Y-122094815D01*
X105093107Y-122043000D01*
X107100839Y-122043000D01*
X107188000Y-122060337D01*
X107275161Y-122043000D01*
X107275165Y-122043000D01*
X107533310Y-121991652D01*
X107826049Y-121796049D01*
X107875425Y-121722153D01*
X108508368Y-121089211D01*
X108627436Y-121065527D01*
X108794901Y-120953630D01*
X108794900Y-126466712D01*
G36*
X110758614Y-120870986D02*
X110833201Y-120920823D01*
X110833200Y-123061039D01*
X110815863Y-123148200D01*
X110833200Y-123235361D01*
X110833200Y-123235364D01*
X110884548Y-123493509D01*
X111080151Y-123786249D01*
X111154047Y-123835625D01*
X113595421Y-126277000D01*
X113242615Y-126277000D01*
X112696815Y-126503078D01*
X112635737Y-126564156D01*
X112360835Y-126380474D01*
X112017400Y-126312160D01*
X111192400Y-126312160D01*
X110848965Y-126380474D01*
X110642400Y-126518496D01*
X110564900Y-126466712D01*
X110564900Y-120913005D01*
X110627786Y-120870986D01*
X110693200Y-120773087D01*
X110758614Y-120870986D01*
X110758614Y-120870986D01*
G37*
X110758614Y-120870986D02*
X110833201Y-120920823D01*
X110833200Y-123061039D01*
X110815863Y-123148200D01*
X110833200Y-123235361D01*
X110833200Y-123235364D01*
X110884548Y-123493509D01*
X111080151Y-123786249D01*
X111154047Y-123835625D01*
X113595421Y-126277000D01*
X113242615Y-126277000D01*
X112696815Y-126503078D01*
X112635737Y-126564156D01*
X112360835Y-126380474D01*
X112017400Y-126312160D01*
X111192400Y-126312160D01*
X110848965Y-126380474D01*
X110642400Y-126518496D01*
X110564900Y-126466712D01*
X110564900Y-120913005D01*
X110627786Y-120870986D01*
X110693200Y-120773087D01*
X110758614Y-120870986D01*
G36*
X153662425Y-125880612D02*
X153651472Y-125880612D01*
X153653984Y-125867981D01*
X153662425Y-125880612D01*
X153662425Y-125880612D01*
G37*
X153662425Y-125880612D02*
X153651472Y-125880612D01*
X153653984Y-125867981D01*
X153662425Y-125880612D01*
G36*
X166402223Y-125850177D02*
X166447772Y-125880612D01*
X165885828Y-125880612D01*
X165931377Y-125850177D01*
X166166800Y-125497842D01*
X166402223Y-125850177D01*
X166402223Y-125850177D01*
G37*
X166402223Y-125850177D02*
X166447772Y-125880612D01*
X165885828Y-125880612D01*
X165931377Y-125850177D01*
X166166800Y-125497842D01*
X166402223Y-125850177D01*
G36*
X163862223Y-125850177D02*
X163907772Y-125880612D01*
X163345828Y-125880612D01*
X163391377Y-125850177D01*
X163626800Y-125497842D01*
X163862223Y-125850177D01*
X163862223Y-125850177D01*
G37*
X163862223Y-125850177D02*
X163907772Y-125880612D01*
X163345828Y-125880612D01*
X163391377Y-125850177D01*
X163626800Y-125497842D01*
X163862223Y-125850177D01*
G36*
X161322223Y-125850177D02*
X161367772Y-125880612D01*
X160805828Y-125880612D01*
X160851377Y-125850177D01*
X161086800Y-125497842D01*
X161322223Y-125850177D01*
X161322223Y-125850177D01*
G37*
X161322223Y-125850177D02*
X161367772Y-125880612D01*
X160805828Y-125880612D01*
X160851377Y-125850177D01*
X161086800Y-125497842D01*
X161322223Y-125850177D01*
G36*
X158782223Y-125850177D02*
X158827772Y-125880612D01*
X158265828Y-125880612D01*
X158311377Y-125850177D01*
X158546800Y-125497842D01*
X158782223Y-125850177D01*
X158782223Y-125850177D01*
G37*
X158782223Y-125850177D02*
X158827772Y-125880612D01*
X158265828Y-125880612D01*
X158311377Y-125850177D01*
X158546800Y-125497842D01*
X158782223Y-125850177D01*
G36*
X156242223Y-125850177D02*
X156287772Y-125880612D01*
X155811175Y-125880612D01*
X156036867Y-125542840D01*
X156242223Y-125850177D01*
X156242223Y-125850177D01*
G37*
X156242223Y-125850177D02*
X156287772Y-125880612D01*
X155811175Y-125880612D01*
X156036867Y-125542840D01*
X156242223Y-125850177D01*
G36*
X125650815Y-124956922D02*
X125792655Y-125015674D01*
X125543163Y-125265167D01*
X125014356Y-125265167D01*
X124583000Y-125443841D01*
X124583000Y-124635840D01*
X124966800Y-124635840D01*
X125214565Y-124586557D01*
X125254060Y-124560167D01*
X125650815Y-124956922D01*
X125650815Y-124956922D01*
G37*
X125650815Y-124956922D02*
X125792655Y-125015674D01*
X125543163Y-125265167D01*
X125014356Y-125265167D01*
X124583000Y-125443841D01*
X124583000Y-124635840D01*
X124966800Y-124635840D01*
X125214565Y-124586557D01*
X125254060Y-124560167D01*
X125650815Y-124956922D01*
G36*
X94781000Y-118576615D02*
X94781000Y-119167385D01*
X94819843Y-119261160D01*
X94094000Y-119261160D01*
X93846235Y-119310443D01*
X93636191Y-119450791D01*
X93495843Y-119660835D01*
X93446560Y-119908600D01*
X93446560Y-124508600D01*
X93495843Y-124756365D01*
X93555450Y-124845572D01*
X93161847Y-125239175D01*
X93127000Y-125262459D01*
X93127000Y-118406040D01*
X94851655Y-118406040D01*
X94781000Y-118576615D01*
X94781000Y-118576615D01*
G37*
X94781000Y-118576615D02*
X94781000Y-119167385D01*
X94819843Y-119261160D01*
X94094000Y-119261160D01*
X93846235Y-119310443D01*
X93636191Y-119450791D01*
X93495843Y-119660835D01*
X93446560Y-119908600D01*
X93446560Y-124508600D01*
X93495843Y-124756365D01*
X93555450Y-124845572D01*
X93161847Y-125239175D01*
X93127000Y-125262459D01*
X93127000Y-118406040D01*
X94851655Y-118406040D01*
X94781000Y-118576615D01*
G36*
X157131092Y-123381470D02*
X156716891Y-123463860D01*
X156242223Y-123781023D01*
X156036867Y-124088360D01*
X155807425Y-123744975D01*
X155316218Y-123416761D01*
X154883056Y-123330600D01*
X154590544Y-123330600D01*
X154157382Y-123416761D01*
X153666175Y-123744975D01*
X153653984Y-123763219D01*
X153644957Y-123717835D01*
X153504609Y-123507791D01*
X153294565Y-123367443D01*
X153046800Y-123318160D01*
X151346800Y-123318160D01*
X151099035Y-123367443D01*
X150888991Y-123507791D01*
X150748643Y-123717835D01*
X150699360Y-123965600D01*
X150699360Y-124576583D01*
X148682998Y-122560222D01*
X148682998Y-116497453D01*
X148802615Y-116547000D01*
X149393385Y-116547000D01*
X149939185Y-116320922D01*
X150004864Y-116255243D01*
X157131092Y-123381470D01*
X157131092Y-123381470D01*
G37*
X157131092Y-123381470D02*
X156716891Y-123463860D01*
X156242223Y-123781023D01*
X156036867Y-124088360D01*
X155807425Y-123744975D01*
X155316218Y-123416761D01*
X154883056Y-123330600D01*
X154590544Y-123330600D01*
X154157382Y-123416761D01*
X153666175Y-123744975D01*
X153653984Y-123763219D01*
X153644957Y-123717835D01*
X153504609Y-123507791D01*
X153294565Y-123367443D01*
X153046800Y-123318160D01*
X151346800Y-123318160D01*
X151099035Y-123367443D01*
X150888991Y-123507791D01*
X150748643Y-123717835D01*
X150699360Y-123965600D01*
X150699360Y-124576583D01*
X148682998Y-122560222D01*
X148682998Y-116497453D01*
X148802615Y-116547000D01*
X149393385Y-116547000D01*
X149939185Y-116320922D01*
X150004864Y-116255243D01*
X157131092Y-123381470D01*
G36*
X186722223Y-110610177D02*
X187196891Y-110927340D01*
X187615467Y-111010600D01*
X187898133Y-111010600D01*
X187933238Y-111003617D01*
X187992644Y-111063023D01*
X187992647Y-111063025D01*
X189107001Y-112177380D01*
X189107000Y-124253386D01*
X188791377Y-123781023D01*
X188316709Y-123463860D01*
X187898133Y-123380600D01*
X187615467Y-123380600D01*
X187196891Y-123463860D01*
X186722223Y-123781023D01*
X186486800Y-124133358D01*
X186251377Y-123781023D01*
X185776709Y-123463860D01*
X185358133Y-123380600D01*
X185075467Y-123380600D01*
X184656891Y-123463860D01*
X184182223Y-123781023D01*
X183946800Y-124133358D01*
X183711377Y-123781023D01*
X183236709Y-123463860D01*
X182818133Y-123380600D01*
X182535467Y-123380600D01*
X182116891Y-123463860D01*
X181642223Y-123781023D01*
X181406800Y-124133358D01*
X181171377Y-123781023D01*
X180696709Y-123463860D01*
X180278133Y-123380600D01*
X179995467Y-123380600D01*
X179731801Y-123433046D01*
X179731801Y-120371252D01*
X179749138Y-120284092D01*
X179731801Y-120196932D01*
X179731801Y-120196928D01*
X179680453Y-119938783D01*
X179588440Y-119801077D01*
X179534225Y-119719938D01*
X179534224Y-119719937D01*
X179484850Y-119646044D01*
X179410957Y-119596670D01*
X177117357Y-117303071D01*
X177117357Y-116774264D01*
X176891279Y-116228464D01*
X176473542Y-115810727D01*
X175927742Y-115584649D01*
X175336972Y-115584649D01*
X174791172Y-115810727D01*
X174373435Y-116228464D01*
X174147357Y-116774264D01*
X174147357Y-117365034D01*
X174373435Y-117910834D01*
X174791172Y-118328571D01*
X175336972Y-118554649D01*
X175865779Y-118554649D01*
X177961802Y-120650673D01*
X177961801Y-123425090D01*
X177738133Y-123380600D01*
X177455467Y-123380600D01*
X177191801Y-123433046D01*
X177191801Y-121783962D01*
X177209138Y-121696801D01*
X177191801Y-121609640D01*
X177191801Y-121609636D01*
X177140453Y-121351491D01*
X177110232Y-121306262D01*
X176994225Y-121132646D01*
X176994224Y-121132645D01*
X176944850Y-121058752D01*
X176870957Y-121009378D01*
X172589000Y-116727422D01*
X172589000Y-113153000D01*
X178488609Y-113153000D01*
X178575770Y-113170337D01*
X178662931Y-113153000D01*
X178662935Y-113153000D01*
X178921080Y-113101652D01*
X179213819Y-112906049D01*
X179263195Y-112832153D01*
X180700956Y-111394393D01*
X180774849Y-111345019D01*
X180865568Y-111209250D01*
X180970452Y-111052280D01*
X180978611Y-111011263D01*
X181021800Y-110794135D01*
X181021800Y-110794131D01*
X181039137Y-110706970D01*
X181037656Y-110699526D01*
X181171377Y-110610177D01*
X181406800Y-110257842D01*
X181642223Y-110610177D01*
X182116891Y-110927340D01*
X182535467Y-111010600D01*
X182818133Y-111010600D01*
X183236709Y-110927340D01*
X183711377Y-110610177D01*
X183946800Y-110257842D01*
X184182223Y-110610177D01*
X184656891Y-110927340D01*
X185075467Y-111010600D01*
X185358133Y-111010600D01*
X185776709Y-110927340D01*
X186251377Y-110610177D01*
X186486800Y-110257842D01*
X186722223Y-110610177D01*
X186722223Y-110610177D01*
G37*
X186722223Y-110610177D02*
X187196891Y-110927340D01*
X187615467Y-111010600D01*
X187898133Y-111010600D01*
X187933238Y-111003617D01*
X187992644Y-111063023D01*
X187992647Y-111063025D01*
X189107001Y-112177380D01*
X189107000Y-124253386D01*
X188791377Y-123781023D01*
X188316709Y-123463860D01*
X187898133Y-123380600D01*
X187615467Y-123380600D01*
X187196891Y-123463860D01*
X186722223Y-123781023D01*
X186486800Y-124133358D01*
X186251377Y-123781023D01*
X185776709Y-123463860D01*
X185358133Y-123380600D01*
X185075467Y-123380600D01*
X184656891Y-123463860D01*
X184182223Y-123781023D01*
X183946800Y-124133358D01*
X183711377Y-123781023D01*
X183236709Y-123463860D01*
X182818133Y-123380600D01*
X182535467Y-123380600D01*
X182116891Y-123463860D01*
X181642223Y-123781023D01*
X181406800Y-124133358D01*
X181171377Y-123781023D01*
X180696709Y-123463860D01*
X180278133Y-123380600D01*
X179995467Y-123380600D01*
X179731801Y-123433046D01*
X179731801Y-120371252D01*
X179749138Y-120284092D01*
X179731801Y-120196932D01*
X179731801Y-120196928D01*
X179680453Y-119938783D01*
X179588440Y-119801077D01*
X179534225Y-119719938D01*
X179534224Y-119719937D01*
X179484850Y-119646044D01*
X179410957Y-119596670D01*
X177117357Y-117303071D01*
X177117357Y-116774264D01*
X176891279Y-116228464D01*
X176473542Y-115810727D01*
X175927742Y-115584649D01*
X175336972Y-115584649D01*
X174791172Y-115810727D01*
X174373435Y-116228464D01*
X174147357Y-116774264D01*
X174147357Y-117365034D01*
X174373435Y-117910834D01*
X174791172Y-118328571D01*
X175336972Y-118554649D01*
X175865779Y-118554649D01*
X177961802Y-120650673D01*
X177961801Y-123425090D01*
X177738133Y-123380600D01*
X177455467Y-123380600D01*
X177191801Y-123433046D01*
X177191801Y-121783962D01*
X177209138Y-121696801D01*
X177191801Y-121609640D01*
X177191801Y-121609636D01*
X177140453Y-121351491D01*
X177110232Y-121306262D01*
X176994225Y-121132646D01*
X176994224Y-121132645D01*
X176944850Y-121058752D01*
X176870957Y-121009378D01*
X172589000Y-116727422D01*
X172589000Y-113153000D01*
X178488609Y-113153000D01*
X178575770Y-113170337D01*
X178662931Y-113153000D01*
X178662935Y-113153000D01*
X178921080Y-113101652D01*
X179213819Y-112906049D01*
X179263195Y-112832153D01*
X180700956Y-111394393D01*
X180774849Y-111345019D01*
X180865568Y-111209250D01*
X180970452Y-111052280D01*
X180978611Y-111011263D01*
X181021800Y-110794135D01*
X181021800Y-110794131D01*
X181039137Y-110706970D01*
X181037656Y-110699526D01*
X181171377Y-110610177D01*
X181406800Y-110257842D01*
X181642223Y-110610177D01*
X182116891Y-110927340D01*
X182535467Y-111010600D01*
X182818133Y-111010600D01*
X183236709Y-110927340D01*
X183711377Y-110610177D01*
X183946800Y-110257842D01*
X184182223Y-110610177D01*
X184656891Y-110927340D01*
X185075467Y-111010600D01*
X185358133Y-111010600D01*
X185776709Y-110927340D01*
X186251377Y-110610177D01*
X186486800Y-110257842D01*
X186722223Y-110610177D01*
G36*
X149380324Y-110645907D02*
X149413136Y-110810865D01*
X149608739Y-111103604D01*
X149682634Y-111152979D01*
X152631810Y-114102156D01*
X152681184Y-114176049D01*
X152755077Y-114225423D01*
X152755078Y-114225424D01*
X152837668Y-114280609D01*
X152973923Y-114371652D01*
X153232068Y-114423000D01*
X153232072Y-114423000D01*
X153319232Y-114440337D01*
X153406392Y-114423000D01*
X154486893Y-114423000D01*
X154860815Y-114796922D01*
X155406615Y-115023000D01*
X155997385Y-115023000D01*
X156543185Y-114796922D01*
X156960922Y-114379185D01*
X157039367Y-114189802D01*
X164011800Y-121162236D01*
X164011801Y-123681078D01*
X163862223Y-123781023D01*
X163626800Y-124133358D01*
X163391377Y-123781023D01*
X162916709Y-123463860D01*
X162498133Y-123380600D01*
X162215467Y-123380600D01*
X161796891Y-123463860D01*
X161322223Y-123781023D01*
X161086800Y-124133358D01*
X160851377Y-123781023D01*
X160376709Y-123463860D01*
X159958133Y-123380600D01*
X159675467Y-123380600D01*
X159640362Y-123387583D01*
X150750625Y-114497847D01*
X150701249Y-114423951D01*
X150408510Y-114228348D01*
X150353516Y-114217409D01*
X149939185Y-113803078D01*
X149393385Y-113577000D01*
X148802615Y-113577000D01*
X148682998Y-113626547D01*
X148682998Y-109948581D01*
X149380324Y-110645907D01*
X149380324Y-110645907D01*
G37*
X149380324Y-110645907D02*
X149413136Y-110810865D01*
X149608739Y-111103604D01*
X149682634Y-111152979D01*
X152631810Y-114102156D01*
X152681184Y-114176049D01*
X152755077Y-114225423D01*
X152755078Y-114225424D01*
X152837668Y-114280609D01*
X152973923Y-114371652D01*
X153232068Y-114423000D01*
X153232072Y-114423000D01*
X153319232Y-114440337D01*
X153406392Y-114423000D01*
X154486893Y-114423000D01*
X154860815Y-114796922D01*
X155406615Y-115023000D01*
X155997385Y-115023000D01*
X156543185Y-114796922D01*
X156960922Y-114379185D01*
X157039367Y-114189802D01*
X164011800Y-121162236D01*
X164011801Y-123681078D01*
X163862223Y-123781023D01*
X163626800Y-124133358D01*
X163391377Y-123781023D01*
X162916709Y-123463860D01*
X162498133Y-123380600D01*
X162215467Y-123380600D01*
X161796891Y-123463860D01*
X161322223Y-123781023D01*
X161086800Y-124133358D01*
X160851377Y-123781023D01*
X160376709Y-123463860D01*
X159958133Y-123380600D01*
X159675467Y-123380600D01*
X159640362Y-123387583D01*
X150750625Y-114497847D01*
X150701249Y-114423951D01*
X150408510Y-114228348D01*
X150353516Y-114217409D01*
X149939185Y-113803078D01*
X149393385Y-113577000D01*
X148802615Y-113577000D01*
X148682998Y-113626547D01*
X148682998Y-109948581D01*
X149380324Y-110645907D01*
G36*
X168942223Y-110610177D02*
X169416891Y-110927340D01*
X169835467Y-111010600D01*
X170118133Y-111010600D01*
X170536709Y-110927340D01*
X170647805Y-110853108D01*
X170662646Y-110863024D01*
X170819000Y-111019378D01*
X170819000Y-112180834D01*
X170801662Y-112268000D01*
X170819000Y-112355166D01*
X170819001Y-117006835D01*
X170801663Y-117094000D01*
X170870348Y-117439309D01*
X171016576Y-117658154D01*
X171016578Y-117658156D01*
X171065952Y-117732049D01*
X171139845Y-117781423D01*
X175421801Y-122063380D01*
X175421801Y-123425090D01*
X175198133Y-123380600D01*
X174915467Y-123380600D01*
X174496891Y-123463860D01*
X174022223Y-123781023D01*
X173786800Y-124133358D01*
X173551377Y-123781023D01*
X173076709Y-123463860D01*
X172658133Y-123380600D01*
X172375467Y-123380600D01*
X171956891Y-123463860D01*
X171482223Y-123781023D01*
X171246800Y-124133358D01*
X171011377Y-123781023D01*
X170536709Y-123463860D01*
X170118133Y-123380600D01*
X169835467Y-123380600D01*
X169416891Y-123463860D01*
X168942223Y-123781023D01*
X168706800Y-124133358D01*
X168471377Y-123781023D01*
X167996709Y-123463860D01*
X167578133Y-123380600D01*
X167295467Y-123380600D01*
X166876891Y-123463860D01*
X166402223Y-123781023D01*
X166166800Y-124133358D01*
X165931377Y-123781023D01*
X165781800Y-123681079D01*
X165781800Y-120882816D01*
X165799137Y-120795656D01*
X165781800Y-120708496D01*
X165781800Y-120708492D01*
X165730452Y-120450347D01*
X165623815Y-120290754D01*
X165584224Y-120231502D01*
X165584223Y-120231501D01*
X165534849Y-120157608D01*
X165460956Y-120108235D01*
X163677722Y-118325000D01*
X163871385Y-118325000D01*
X164417185Y-118098922D01*
X164834922Y-117681185D01*
X165061000Y-117135385D01*
X165061000Y-116544615D01*
X164834922Y-115998815D01*
X164417185Y-115581078D01*
X163871385Y-115355000D01*
X163342579Y-115355000D01*
X158949037Y-110961459D01*
X158899661Y-110887563D01*
X158606922Y-110691960D01*
X158348777Y-110640612D01*
X158348773Y-110640612D01*
X158284855Y-110627898D01*
X158311377Y-110610177D01*
X158546800Y-110257842D01*
X158782223Y-110610177D01*
X159256891Y-110927340D01*
X159675467Y-111010600D01*
X159958133Y-111010600D01*
X160376709Y-110927340D01*
X160851377Y-110610177D01*
X161086800Y-110257842D01*
X161322223Y-110610177D01*
X161796891Y-110927340D01*
X162215467Y-111010600D01*
X162498133Y-111010600D01*
X162916709Y-110927340D01*
X163391377Y-110610177D01*
X163626800Y-110257842D01*
X163862223Y-110610177D01*
X164336891Y-110927340D01*
X164755467Y-111010600D01*
X165038133Y-111010600D01*
X165456709Y-110927340D01*
X165931377Y-110610177D01*
X166166800Y-110257842D01*
X166402223Y-110610177D01*
X166876891Y-110927340D01*
X167295467Y-111010600D01*
X167578133Y-111010600D01*
X167996709Y-110927340D01*
X168471377Y-110610177D01*
X168706800Y-110257842D01*
X168942223Y-110610177D01*
X168942223Y-110610177D01*
G37*
X168942223Y-110610177D02*
X169416891Y-110927340D01*
X169835467Y-111010600D01*
X170118133Y-111010600D01*
X170536709Y-110927340D01*
X170647805Y-110853108D01*
X170662646Y-110863024D01*
X170819000Y-111019378D01*
X170819000Y-112180834D01*
X170801662Y-112268000D01*
X170819000Y-112355166D01*
X170819001Y-117006835D01*
X170801663Y-117094000D01*
X170870348Y-117439309D01*
X171016576Y-117658154D01*
X171016578Y-117658156D01*
X171065952Y-117732049D01*
X171139845Y-117781423D01*
X175421801Y-122063380D01*
X175421801Y-123425090D01*
X175198133Y-123380600D01*
X174915467Y-123380600D01*
X174496891Y-123463860D01*
X174022223Y-123781023D01*
X173786800Y-124133358D01*
X173551377Y-123781023D01*
X173076709Y-123463860D01*
X172658133Y-123380600D01*
X172375467Y-123380600D01*
X171956891Y-123463860D01*
X171482223Y-123781023D01*
X171246800Y-124133358D01*
X171011377Y-123781023D01*
X170536709Y-123463860D01*
X170118133Y-123380600D01*
X169835467Y-123380600D01*
X169416891Y-123463860D01*
X168942223Y-123781023D01*
X168706800Y-124133358D01*
X168471377Y-123781023D01*
X167996709Y-123463860D01*
X167578133Y-123380600D01*
X167295467Y-123380600D01*
X166876891Y-123463860D01*
X166402223Y-123781023D01*
X166166800Y-124133358D01*
X165931377Y-123781023D01*
X165781800Y-123681079D01*
X165781800Y-120882816D01*
X165799137Y-120795656D01*
X165781800Y-120708496D01*
X165781800Y-120708492D01*
X165730452Y-120450347D01*
X165623815Y-120290754D01*
X165584224Y-120231502D01*
X165584223Y-120231501D01*
X165534849Y-120157608D01*
X165460956Y-120108235D01*
X163677722Y-118325000D01*
X163871385Y-118325000D01*
X164417185Y-118098922D01*
X164834922Y-117681185D01*
X165061000Y-117135385D01*
X165061000Y-116544615D01*
X164834922Y-115998815D01*
X164417185Y-115581078D01*
X163871385Y-115355000D01*
X163342579Y-115355000D01*
X158949037Y-110961459D01*
X158899661Y-110887563D01*
X158606922Y-110691960D01*
X158348777Y-110640612D01*
X158348773Y-110640612D01*
X158284855Y-110627898D01*
X158311377Y-110610177D01*
X158546800Y-110257842D01*
X158782223Y-110610177D01*
X159256891Y-110927340D01*
X159675467Y-111010600D01*
X159958133Y-111010600D01*
X160376709Y-110927340D01*
X160851377Y-110610177D01*
X161086800Y-110257842D01*
X161322223Y-110610177D01*
X161796891Y-110927340D01*
X162215467Y-111010600D01*
X162498133Y-111010600D01*
X162916709Y-110927340D01*
X163391377Y-110610177D01*
X163626800Y-110257842D01*
X163862223Y-110610177D01*
X164336891Y-110927340D01*
X164755467Y-111010600D01*
X165038133Y-111010600D01*
X165456709Y-110927340D01*
X165931377Y-110610177D01*
X166166800Y-110257842D01*
X166402223Y-110610177D01*
X166876891Y-110927340D01*
X167295467Y-111010600D01*
X167578133Y-111010600D01*
X167996709Y-110927340D01*
X168471377Y-110610177D01*
X168706800Y-110257842D01*
X168942223Y-110610177D01*
G36*
X118277014Y-120870986D02*
X118431223Y-120974026D01*
X118549176Y-121150554D01*
X118549178Y-121150556D01*
X118598552Y-121224449D01*
X118672445Y-121273823D01*
X118939582Y-121540960D01*
X118466800Y-121540960D01*
X118219035Y-121590243D01*
X118008991Y-121730591D01*
X117868643Y-121940635D01*
X117819360Y-122188400D01*
X117819360Y-123384262D01*
X117600222Y-123603400D01*
X116748707Y-123603400D01*
X116828922Y-123523185D01*
X117055000Y-122977385D01*
X117055000Y-122386615D01*
X116828922Y-121840815D01*
X116455000Y-121466893D01*
X116455000Y-121023322D01*
X116518164Y-121065527D01*
X116861599Y-121133840D01*
X117511601Y-121133840D01*
X117855036Y-121065527D01*
X118146186Y-120870986D01*
X118211600Y-120773087D01*
X118277014Y-120870986D01*
X118277014Y-120870986D01*
G37*
X118277014Y-120870986D02*
X118431223Y-120974026D01*
X118549176Y-121150554D01*
X118549178Y-121150556D01*
X118598552Y-121224449D01*
X118672445Y-121273823D01*
X118939582Y-121540960D01*
X118466800Y-121540960D01*
X118219035Y-121590243D01*
X118008991Y-121730591D01*
X117868643Y-121940635D01*
X117819360Y-122188400D01*
X117819360Y-123384262D01*
X117600222Y-123603400D01*
X116748707Y-123603400D01*
X116828922Y-123523185D01*
X117055000Y-122977385D01*
X117055000Y-122386615D01*
X116828922Y-121840815D01*
X116455000Y-121466893D01*
X116455000Y-121023322D01*
X116518164Y-121065527D01*
X116861599Y-121133840D01*
X117511601Y-121133840D01*
X117855036Y-121065527D01*
X118146186Y-120870986D01*
X118211600Y-120773087D01*
X118277014Y-120870986D01*
G36*
X131470177Y-115575356D02*
X131519551Y-115649249D01*
X131593444Y-115698623D01*
X131593445Y-115698624D01*
X131599529Y-115702689D01*
X131812290Y-115844852D01*
X132010160Y-115884211D01*
X132010160Y-116261200D01*
X132059443Y-116508965D01*
X132199791Y-116719009D01*
X132409835Y-116859357D01*
X132657600Y-116908640D01*
X133721253Y-116908640D01*
X133361078Y-117268815D01*
X133135000Y-117814615D01*
X133135000Y-118405385D01*
X133361078Y-118951185D01*
X133778815Y-119368922D01*
X134324615Y-119595000D01*
X134401822Y-119595000D01*
X131496831Y-122499990D01*
X131457409Y-122440991D01*
X131247365Y-122300643D01*
X130999600Y-122251360D01*
X129299600Y-122251360D01*
X129212095Y-122268766D01*
X129179437Y-122219889D01*
X129179436Y-122219888D01*
X129130062Y-122145995D01*
X129056169Y-122096621D01*
X127092557Y-120133010D01*
X127550338Y-120133010D01*
X128096138Y-119906932D01*
X128513875Y-119489195D01*
X128739953Y-118943395D01*
X128739953Y-118352625D01*
X128513875Y-117806825D01*
X128096138Y-117389088D01*
X127550338Y-117163010D01*
X127542600Y-117163010D01*
X127542600Y-116908640D01*
X128657600Y-116908640D01*
X128905365Y-116859357D01*
X129115409Y-116719009D01*
X129255757Y-116508965D01*
X129305040Y-116261200D01*
X129305040Y-113761200D01*
X129255757Y-113513435D01*
X129218583Y-113457800D01*
X129352622Y-113457800D01*
X131470177Y-115575356D01*
X131470177Y-115575356D01*
G37*
X131470177Y-115575356D02*
X131519551Y-115649249D01*
X131593444Y-115698623D01*
X131593445Y-115698624D01*
X131599529Y-115702689D01*
X131812290Y-115844852D01*
X132010160Y-115884211D01*
X132010160Y-116261200D01*
X132059443Y-116508965D01*
X132199791Y-116719009D01*
X132409835Y-116859357D01*
X132657600Y-116908640D01*
X133721253Y-116908640D01*
X133361078Y-117268815D01*
X133135000Y-117814615D01*
X133135000Y-118405385D01*
X133361078Y-118951185D01*
X133778815Y-119368922D01*
X134324615Y-119595000D01*
X134401822Y-119595000D01*
X131496831Y-122499990D01*
X131457409Y-122440991D01*
X131247365Y-122300643D01*
X130999600Y-122251360D01*
X129299600Y-122251360D01*
X129212095Y-122268766D01*
X129179437Y-122219889D01*
X129179436Y-122219888D01*
X129130062Y-122145995D01*
X129056169Y-122096621D01*
X127092557Y-120133010D01*
X127550338Y-120133010D01*
X128096138Y-119906932D01*
X128513875Y-119489195D01*
X128739953Y-118943395D01*
X128739953Y-118352625D01*
X128513875Y-117806825D01*
X128096138Y-117389088D01*
X127550338Y-117163010D01*
X127542600Y-117163010D01*
X127542600Y-116908640D01*
X128657600Y-116908640D01*
X128905365Y-116859357D01*
X129115409Y-116719009D01*
X129255757Y-116508965D01*
X129305040Y-116261200D01*
X129305040Y-113761200D01*
X129255757Y-113513435D01*
X129218583Y-113457800D01*
X129352622Y-113457800D01*
X131470177Y-115575356D01*
G36*
X125669826Y-122203400D02*
X125614240Y-122203400D01*
X125614240Y-122188400D01*
X125604163Y-122137737D01*
X125669826Y-122203400D01*
X125669826Y-122203400D01*
G37*
X125669826Y-122203400D02*
X125614240Y-122203400D01*
X125614240Y-122188400D01*
X125604163Y-122137737D01*
X125669826Y-122203400D01*
G36*
X102756553Y-121880570D02*
X102807369Y-121914524D01*
X102641440Y-122080453D01*
X102641440Y-121708292D01*
X102756553Y-121880570D01*
X102756553Y-121880570D01*
G37*
X102756553Y-121880570D02*
X102807369Y-121914524D01*
X102641440Y-122080453D01*
X102641440Y-121708292D01*
X102756553Y-121880570D01*
G36*
X114517814Y-120870986D02*
X114685001Y-120982697D01*
X114685000Y-121466893D01*
X114420153Y-121731741D01*
X114143469Y-121455057D01*
X113597669Y-121228979D01*
X113006899Y-121228979D01*
X112603200Y-121396197D01*
X112603200Y-120961448D01*
X112758964Y-121065527D01*
X113102399Y-121133840D01*
X113752401Y-121133840D01*
X114095836Y-121065527D01*
X114386986Y-120870986D01*
X114452400Y-120773087D01*
X114517814Y-120870986D01*
X114517814Y-120870986D01*
G37*
X114517814Y-120870986D02*
X114685001Y-120982697D01*
X114685000Y-121466893D01*
X114420153Y-121731741D01*
X114143469Y-121455057D01*
X113597669Y-121228979D01*
X113006899Y-121228979D01*
X112603200Y-121396197D01*
X112603200Y-120961448D01*
X112758964Y-121065527D01*
X113102399Y-121133840D01*
X113752401Y-121133840D01*
X114095836Y-121065527D01*
X114386986Y-120870986D01*
X114452400Y-120773087D01*
X114517814Y-120870986D01*
G36*
X99099000Y-118576615D02*
X99099000Y-119167385D01*
X99142118Y-119271480D01*
X98946235Y-119310443D01*
X98929000Y-119321959D01*
X98929000Y-118406040D01*
X99169655Y-118406040D01*
X99099000Y-118576615D01*
X99099000Y-118576615D01*
G37*
X99099000Y-118576615D02*
X99099000Y-119167385D01*
X99142118Y-119271480D01*
X98946235Y-119310443D01*
X98929000Y-119321959D01*
X98929000Y-118406040D01*
X99169655Y-118406040D01*
X99099000Y-118576615D01*
G36*
X124010160Y-116261200D02*
X124059443Y-116508965D01*
X124199791Y-116719009D01*
X124409835Y-116859357D01*
X124657600Y-116908640D01*
X125772601Y-116908640D01*
X125772601Y-117963492D01*
X125755263Y-118050657D01*
X125800607Y-118278620D01*
X125769953Y-118352625D01*
X125769953Y-118938879D01*
X125581534Y-118901400D01*
X125581530Y-118901400D01*
X125494369Y-118884063D01*
X125407208Y-118901400D01*
X124088746Y-118901400D01*
X123955386Y-118701814D01*
X123821000Y-118612020D01*
X123821000Y-118197159D01*
X123838337Y-118109999D01*
X123821000Y-118022839D01*
X123821000Y-118022835D01*
X123769652Y-117764690D01*
X123663382Y-117605646D01*
X123623424Y-117545845D01*
X123623423Y-117545844D01*
X123574049Y-117471951D01*
X123500156Y-117422577D01*
X122691838Y-116614259D01*
X122924922Y-116381175D01*
X123151000Y-115835375D01*
X123151000Y-115244605D01*
X122924922Y-114698805D01*
X122696357Y-114470240D01*
X123668800Y-114470240D01*
X123916565Y-114420957D01*
X124010160Y-114358418D01*
X124010160Y-116261200D01*
X124010160Y-116261200D01*
G37*
X124010160Y-116261200D02*
X124059443Y-116508965D01*
X124199791Y-116719009D01*
X124409835Y-116859357D01*
X124657600Y-116908640D01*
X125772601Y-116908640D01*
X125772601Y-117963492D01*
X125755263Y-118050657D01*
X125800607Y-118278620D01*
X125769953Y-118352625D01*
X125769953Y-118938879D01*
X125581534Y-118901400D01*
X125581530Y-118901400D01*
X125494369Y-118884063D01*
X125407208Y-118901400D01*
X124088746Y-118901400D01*
X123955386Y-118701814D01*
X123821000Y-118612020D01*
X123821000Y-118197159D01*
X123838337Y-118109999D01*
X123821000Y-118022839D01*
X123821000Y-118022835D01*
X123769652Y-117764690D01*
X123663382Y-117605646D01*
X123623424Y-117545845D01*
X123623423Y-117545844D01*
X123574049Y-117471951D01*
X123500156Y-117422577D01*
X122691838Y-116614259D01*
X122924922Y-116381175D01*
X123151000Y-115835375D01*
X123151000Y-115244605D01*
X122924922Y-114698805D01*
X122696357Y-114470240D01*
X123668800Y-114470240D01*
X123916565Y-114420957D01*
X124010160Y-114358418D01*
X124010160Y-116261200D01*
G36*
X120181000Y-115244605D02*
X120181000Y-115835375D01*
X120407078Y-116381175D01*
X120780625Y-116754722D01*
X120763663Y-116840000D01*
X120781000Y-116927161D01*
X120781000Y-116927164D01*
X120832348Y-117185309D01*
X121027951Y-117478049D01*
X121101846Y-117527424D01*
X122051001Y-118476580D01*
X122051001Y-118691934D01*
X122036214Y-118701814D01*
X121970800Y-118799713D01*
X121905386Y-118701814D01*
X121614236Y-118507273D01*
X121270801Y-118438960D01*
X120620799Y-118438960D01*
X120277364Y-118507273D01*
X120121600Y-118611352D01*
X120121600Y-115121578D01*
X120309995Y-114933183D01*
X120181000Y-115244605D01*
X120181000Y-115244605D01*
G37*
X120181000Y-115244605D02*
X120181000Y-115835375D01*
X120407078Y-116381175D01*
X120780625Y-116754722D01*
X120763663Y-116840000D01*
X120781000Y-116927161D01*
X120781000Y-116927164D01*
X120832348Y-117185309D01*
X121027951Y-117478049D01*
X121101846Y-117527424D01*
X122051001Y-118476580D01*
X122051001Y-118691934D01*
X122036214Y-118701814D01*
X121970800Y-118799713D01*
X121905386Y-118701814D01*
X121614236Y-118507273D01*
X121270801Y-118438960D01*
X120620799Y-118438960D01*
X120277364Y-118507273D01*
X120121600Y-118611352D01*
X120121600Y-115121578D01*
X120309995Y-114933183D01*
X120181000Y-115244605D01*
G36*
X116760815Y-116798912D02*
X117306615Y-117024990D01*
X117897385Y-117024990D01*
X118351601Y-116836848D01*
X118351600Y-118651977D01*
X118277014Y-118701814D01*
X118211600Y-118799713D01*
X118146186Y-118701814D01*
X117855036Y-118507273D01*
X117511601Y-118438960D01*
X116861599Y-118438960D01*
X116518164Y-118507273D01*
X116332000Y-118631664D01*
X116145836Y-118507273D01*
X115989252Y-118476127D01*
X116134156Y-118331223D01*
X116208049Y-118281849D01*
X116269966Y-118189185D01*
X116403652Y-117989110D01*
X116419222Y-117910834D01*
X116455000Y-117730965D01*
X116455000Y-117730961D01*
X116472337Y-117643800D01*
X116455000Y-117556639D01*
X116455000Y-116493097D01*
X116760815Y-116798912D01*
X116760815Y-116798912D01*
G37*
X116760815Y-116798912D02*
X117306615Y-117024990D01*
X117897385Y-117024990D01*
X118351601Y-116836848D01*
X118351600Y-118651977D01*
X118277014Y-118701814D01*
X118211600Y-118799713D01*
X118146186Y-118701814D01*
X117855036Y-118507273D01*
X117511601Y-118438960D01*
X116861599Y-118438960D01*
X116518164Y-118507273D01*
X116332000Y-118631664D01*
X116145836Y-118507273D01*
X115989252Y-118476127D01*
X116134156Y-118331223D01*
X116208049Y-118281849D01*
X116269966Y-118189185D01*
X116403652Y-117989110D01*
X116419222Y-117910834D01*
X116455000Y-117730965D01*
X116455000Y-117730961D01*
X116472337Y-117643800D01*
X116455000Y-117556639D01*
X116455000Y-116493097D01*
X116760815Y-116798912D01*
G36*
X108783201Y-118256965D02*
X108783201Y-118611352D01*
X108627436Y-118507273D01*
X108470852Y-118476127D01*
X108767740Y-118179238D01*
X108783201Y-118256965D01*
X108783201Y-118256965D01*
G37*
X108783201Y-118256965D02*
X108783201Y-118611352D01*
X108627436Y-118507273D01*
X108470852Y-118476127D01*
X108767740Y-118179238D01*
X108783201Y-118256965D01*
G36*
X111891000Y-60232079D02*
X111891001Y-103842834D01*
X111873663Y-103930000D01*
X111942348Y-104275309D01*
X112088576Y-104494154D01*
X112088578Y-104494156D01*
X112137952Y-104568049D01*
X112211845Y-104617423D01*
X115641764Y-108047342D01*
X115236815Y-108215078D01*
X114819078Y-108632815D01*
X114593000Y-109178615D01*
X114593000Y-109769385D01*
X114819078Y-110315185D01*
X115179253Y-110675360D01*
X113668800Y-110675360D01*
X113421035Y-110724643D01*
X113210991Y-110864991D01*
X113102472Y-111027400D01*
X112903040Y-111027400D01*
X112903040Y-110812400D01*
X112853757Y-110564635D01*
X112713409Y-110354591D01*
X112503365Y-110214243D01*
X112255600Y-110164960D01*
X110755600Y-110164960D01*
X110507835Y-110214243D01*
X110297791Y-110354591D01*
X110157443Y-110564635D01*
X110108160Y-110812400D01*
X110108160Y-113012400D01*
X110157443Y-113260165D01*
X110297791Y-113470209D01*
X110507835Y-113610557D01*
X110755600Y-113659840D01*
X112255600Y-113659840D01*
X112503365Y-113610557D01*
X112713409Y-113470209D01*
X112853757Y-113260165D01*
X112903040Y-113012400D01*
X112903040Y-112797400D01*
X113021360Y-112797400D01*
X113021360Y-113822800D01*
X113070643Y-114070565D01*
X113210991Y-114280609D01*
X113421035Y-114420957D01*
X113668800Y-114470240D01*
X114685001Y-114470240D01*
X114685000Y-117277221D01*
X113523262Y-118438960D01*
X113226572Y-118438960D01*
X113226572Y-117362727D01*
X113243909Y-117275567D01*
X113226572Y-117188407D01*
X113226572Y-117188403D01*
X113175224Y-116930258D01*
X113049075Y-116741463D01*
X113028996Y-116711413D01*
X113028995Y-116711412D01*
X112979621Y-116637519D01*
X112905728Y-116588145D01*
X111801427Y-115483845D01*
X111752051Y-115409949D01*
X111459312Y-115214346D01*
X111201167Y-115162998D01*
X111201163Y-115162998D01*
X111114002Y-115145661D01*
X111026841Y-115162998D01*
X109734563Y-115162998D01*
X109647402Y-115145661D01*
X109560241Y-115162998D01*
X109560237Y-115162998D01*
X109302092Y-115214346D01*
X109083247Y-115360574D01*
X109083246Y-115360575D01*
X109009353Y-115409949D01*
X108959979Y-115483842D01*
X107833935Y-116609886D01*
X107885000Y-116353165D01*
X107885000Y-116353161D01*
X107902337Y-116266000D01*
X107885000Y-116178839D01*
X107885000Y-110153961D01*
X107902337Y-110066801D01*
X107885000Y-109979641D01*
X107885000Y-109979637D01*
X107833652Y-109721492D01*
X107638049Y-109428753D01*
X107564156Y-109379379D01*
X102730591Y-104545815D01*
X102730591Y-51834575D01*
X103045601Y-51897234D01*
X103471450Y-51812528D01*
X111891000Y-60232079D01*
X111891000Y-60232079D01*
G37*
X111891000Y-60232079D02*
X111891001Y-103842834D01*
X111873663Y-103930000D01*
X111942348Y-104275309D01*
X112088576Y-104494154D01*
X112088578Y-104494156D01*
X112137952Y-104568049D01*
X112211845Y-104617423D01*
X115641764Y-108047342D01*
X115236815Y-108215078D01*
X114819078Y-108632815D01*
X114593000Y-109178615D01*
X114593000Y-109769385D01*
X114819078Y-110315185D01*
X115179253Y-110675360D01*
X113668800Y-110675360D01*
X113421035Y-110724643D01*
X113210991Y-110864991D01*
X113102472Y-111027400D01*
X112903040Y-111027400D01*
X112903040Y-110812400D01*
X112853757Y-110564635D01*
X112713409Y-110354591D01*
X112503365Y-110214243D01*
X112255600Y-110164960D01*
X110755600Y-110164960D01*
X110507835Y-110214243D01*
X110297791Y-110354591D01*
X110157443Y-110564635D01*
X110108160Y-110812400D01*
X110108160Y-113012400D01*
X110157443Y-113260165D01*
X110297791Y-113470209D01*
X110507835Y-113610557D01*
X110755600Y-113659840D01*
X112255600Y-113659840D01*
X112503365Y-113610557D01*
X112713409Y-113470209D01*
X112853757Y-113260165D01*
X112903040Y-113012400D01*
X112903040Y-112797400D01*
X113021360Y-112797400D01*
X113021360Y-113822800D01*
X113070643Y-114070565D01*
X113210991Y-114280609D01*
X113421035Y-114420957D01*
X113668800Y-114470240D01*
X114685001Y-114470240D01*
X114685000Y-117277221D01*
X113523262Y-118438960D01*
X113226572Y-118438960D01*
X113226572Y-117362727D01*
X113243909Y-117275567D01*
X113226572Y-117188407D01*
X113226572Y-117188403D01*
X113175224Y-116930258D01*
X113049075Y-116741463D01*
X113028996Y-116711413D01*
X113028995Y-116711412D01*
X112979621Y-116637519D01*
X112905728Y-116588145D01*
X111801427Y-115483845D01*
X111752051Y-115409949D01*
X111459312Y-115214346D01*
X111201167Y-115162998D01*
X111201163Y-115162998D01*
X111114002Y-115145661D01*
X111026841Y-115162998D01*
X109734563Y-115162998D01*
X109647402Y-115145661D01*
X109560241Y-115162998D01*
X109560237Y-115162998D01*
X109302092Y-115214346D01*
X109083247Y-115360574D01*
X109083246Y-115360575D01*
X109009353Y-115409949D01*
X108959979Y-115483842D01*
X107833935Y-116609886D01*
X107885000Y-116353165D01*
X107885000Y-116353161D01*
X107902337Y-116266000D01*
X107885000Y-116178839D01*
X107885000Y-110153961D01*
X107902337Y-110066801D01*
X107885000Y-109979641D01*
X107885000Y-109979637D01*
X107833652Y-109721492D01*
X107638049Y-109428753D01*
X107564156Y-109379379D01*
X102730591Y-104545815D01*
X102730591Y-51834575D01*
X103045601Y-51897234D01*
X103471450Y-51812528D01*
X111891000Y-60232079D01*
G36*
X138317400Y-114397579D02*
X138317400Y-114986330D01*
X138520402Y-115476419D01*
X136105000Y-117891821D01*
X136105000Y-117814615D01*
X135878922Y-117268815D01*
X135542600Y-116932493D01*
X135542600Y-116908640D01*
X136657600Y-116908640D01*
X136905365Y-116859357D01*
X137115409Y-116719009D01*
X137255757Y-116508965D01*
X137305040Y-116261200D01*
X137305040Y-113761200D01*
X137255757Y-113513435D01*
X137115409Y-113303391D01*
X136905365Y-113163043D01*
X136657600Y-113113760D01*
X132657600Y-113113760D01*
X132409835Y-113163043D01*
X132199791Y-113303391D01*
X132059443Y-113513435D01*
X132034884Y-113636905D01*
X130406624Y-112008646D01*
X130357249Y-111934751D01*
X130064510Y-111739148D01*
X129806365Y-111687800D01*
X129806361Y-111687800D01*
X129719200Y-111670463D01*
X129632039Y-111687800D01*
X124316240Y-111687800D01*
X124316240Y-111322800D01*
X124266957Y-111075035D01*
X124126609Y-110864991D01*
X123916565Y-110724643D01*
X123668800Y-110675360D01*
X120772939Y-110675360D01*
X113661000Y-103563422D01*
X113661000Y-89741178D01*
X138317400Y-114397579D01*
X138317400Y-114397579D01*
G37*
X138317400Y-114397579D02*
X138317400Y-114986330D01*
X138520402Y-115476419D01*
X136105000Y-117891821D01*
X136105000Y-117814615D01*
X135878922Y-117268815D01*
X135542600Y-116932493D01*
X135542600Y-116908640D01*
X136657600Y-116908640D01*
X136905365Y-116859357D01*
X137115409Y-116719009D01*
X137255757Y-116508965D01*
X137305040Y-116261200D01*
X137305040Y-113761200D01*
X137255757Y-113513435D01*
X137115409Y-113303391D01*
X136905365Y-113163043D01*
X136657600Y-113113760D01*
X132657600Y-113113760D01*
X132409835Y-113163043D01*
X132199791Y-113303391D01*
X132059443Y-113513435D01*
X132034884Y-113636905D01*
X130406624Y-112008646D01*
X130357249Y-111934751D01*
X130064510Y-111739148D01*
X129806365Y-111687800D01*
X129806361Y-111687800D01*
X129719200Y-111670463D01*
X129632039Y-111687800D01*
X124316240Y-111687800D01*
X124316240Y-111322800D01*
X124266957Y-111075035D01*
X124126609Y-110864991D01*
X123916565Y-110724643D01*
X123668800Y-110675360D01*
X120772939Y-110675360D01*
X113661000Y-103563422D01*
X113661000Y-89741178D01*
X138317400Y-114397579D01*
G36*
X162091000Y-116606579D02*
X162091000Y-116738278D01*
X157763333Y-112410612D01*
X157895034Y-112410612D01*
X162091000Y-116606579D01*
X162091000Y-116606579D01*
G37*
X162091000Y-116606579D02*
X162091000Y-116738278D01*
X157763333Y-112410612D01*
X157895034Y-112410612D01*
X162091000Y-116606579D01*
G36*
X104107835Y-113610557D02*
X104220600Y-113632987D01*
X104220601Y-116540422D01*
X104091440Y-116669583D01*
X104091440Y-113599602D01*
X104107835Y-113610557D01*
X104107835Y-113610557D01*
G37*
X104107835Y-113610557D02*
X104220600Y-113632987D01*
X104220601Y-116540422D01*
X104091440Y-116669583D01*
X104091440Y-113599602D01*
X104107835Y-113610557D01*
G36*
X106115000Y-115899421D02*
X105990600Y-116023821D01*
X105990600Y-113632987D01*
X106103365Y-113610557D01*
X106115000Y-113602782D01*
X106115000Y-115899421D01*
X106115000Y-115899421D01*
G37*
X106115000Y-115899421D02*
X105990600Y-116023821D01*
X105990600Y-113632987D01*
X106103365Y-113610557D01*
X106115000Y-113602782D01*
X106115000Y-115899421D01*
G36*
X119521360Y-111926939D02*
X119521360Y-113218662D01*
X118672445Y-114067577D01*
X118598552Y-114116951D01*
X118549178Y-114190844D01*
X118549176Y-114190846D01*
X118470584Y-114308467D01*
X118443185Y-114281068D01*
X117897385Y-114054990D01*
X117770055Y-114054990D01*
X117816240Y-113822800D01*
X117816240Y-111322800D01*
X117766957Y-111075035D01*
X117626609Y-110864991D01*
X117416565Y-110724643D01*
X117168800Y-110675360D01*
X116976747Y-110675360D01*
X117336922Y-110315185D01*
X117504657Y-109910236D01*
X119521360Y-111926939D01*
X119521360Y-111926939D01*
G37*
X119521360Y-111926939D02*
X119521360Y-113218662D01*
X118672445Y-114067577D01*
X118598552Y-114116951D01*
X118549178Y-114190844D01*
X118549176Y-114190846D01*
X118470584Y-114308467D01*
X118443185Y-114281068D01*
X117897385Y-114054990D01*
X117770055Y-114054990D01*
X117816240Y-113822800D01*
X117816240Y-111322800D01*
X117766957Y-111075035D01*
X117626609Y-110864991D01*
X117416565Y-110724643D01*
X117168800Y-110675360D01*
X116976747Y-110675360D01*
X117336922Y-110315185D01*
X117504657Y-109910236D01*
X119521360Y-111926939D01*
G36*
X146212987Y-109458500D02*
X146212987Y-114006748D01*
X146132110Y-113811493D01*
X145700307Y-113379690D01*
X145136130Y-113146000D01*
X144525470Y-113146000D01*
X143961293Y-113379690D01*
X143529490Y-113811493D01*
X143480600Y-113929524D01*
X143480600Y-106726113D01*
X146212987Y-109458500D01*
X146212987Y-109458500D01*
G37*
X146212987Y-109458500D02*
X146212987Y-114006748D01*
X146132110Y-113811493D01*
X145700307Y-113379690D01*
X145136130Y-113146000D01*
X144525470Y-113146000D01*
X143961293Y-113379690D01*
X143529490Y-113811493D01*
X143480600Y-113929524D01*
X143480600Y-106726113D01*
X146212987Y-109458500D01*
G36*
X140360599Y-105586041D02*
X140360600Y-113230031D01*
X140157730Y-113146000D01*
X139568979Y-113146000D01*
X114361011Y-87938033D01*
X114361011Y-79586452D01*
X140360599Y-105586041D01*
X140360599Y-105586041D01*
G37*
X140360599Y-105586041D02*
X140360600Y-113230031D01*
X140157730Y-113146000D01*
X139568979Y-113146000D01*
X114361011Y-87938033D01*
X114361011Y-79586452D01*
X140360599Y-105586041D01*
G36*
X185359352Y-47038958D02*
X184376792Y-50969198D01*
X184374383Y-51018692D01*
X184391098Y-51065341D01*
X184410197Y-51089803D01*
X186910197Y-53589803D01*
X186955407Y-53618914D01*
X190873000Y-55088011D01*
X190873000Y-100447394D01*
X190447394Y-100873000D01*
X186000000Y-100873000D01*
X185951399Y-100882667D01*
X185910197Y-100910197D01*
X183910197Y-102910197D01*
X183882667Y-102951399D01*
X183873000Y-103000000D01*
X183873000Y-106000000D01*
X183882667Y-106048601D01*
X183910197Y-106089803D01*
X185410197Y-107589803D01*
X185451399Y-107617333D01*
X185500000Y-107627000D01*
X188464822Y-107627000D01*
X190873000Y-109071907D01*
X190873000Y-111703526D01*
X190825652Y-111465490D01*
X190679424Y-111246645D01*
X190679423Y-111246644D01*
X190630049Y-111172751D01*
X190556156Y-111123377D01*
X189244225Y-109811447D01*
X189244223Y-109811444D01*
X189184817Y-109752038D01*
X189219913Y-109575600D01*
X189108540Y-109015691D01*
X188791377Y-108541023D01*
X188316709Y-108223860D01*
X187898133Y-108140600D01*
X187615467Y-108140600D01*
X187196891Y-108223860D01*
X186722223Y-108541023D01*
X186486800Y-108893358D01*
X186251377Y-108541023D01*
X185776709Y-108223860D01*
X185358133Y-108140600D01*
X185075467Y-108140600D01*
X184656891Y-108223860D01*
X184182223Y-108541023D01*
X183946800Y-108893358D01*
X183711377Y-108541023D01*
X183236709Y-108223860D01*
X182818133Y-108140600D01*
X182535467Y-108140600D01*
X182116891Y-108223860D01*
X181642223Y-108541023D01*
X181406800Y-108893358D01*
X181171377Y-108541023D01*
X180696709Y-108223860D01*
X180278133Y-108140600D01*
X179995467Y-108140600D01*
X179576891Y-108223860D01*
X179102223Y-108541023D01*
X178866800Y-108893358D01*
X178631377Y-108541023D01*
X178156709Y-108223860D01*
X177738133Y-108140600D01*
X177455467Y-108140600D01*
X177036891Y-108223860D01*
X176562223Y-108541023D01*
X176326800Y-108893358D01*
X176091377Y-108541023D01*
X175616709Y-108223860D01*
X175198133Y-108140600D01*
X174915467Y-108140600D01*
X174496891Y-108223860D01*
X174022223Y-108541023D01*
X173786800Y-108893358D01*
X173551377Y-108541023D01*
X173076709Y-108223860D01*
X172658133Y-108140600D01*
X172375467Y-108140600D01*
X172111801Y-108193046D01*
X172111801Y-104313962D01*
X172129138Y-104226801D01*
X172111801Y-104139640D01*
X172111801Y-104139636D01*
X172060453Y-103881491D01*
X171864850Y-103588752D01*
X171790958Y-103539379D01*
X143379000Y-75127422D01*
X143379000Y-49523589D01*
X143396337Y-49436429D01*
X143379000Y-49349269D01*
X143379000Y-49349265D01*
X143327652Y-49091120D01*
X143220263Y-48930402D01*
X143181424Y-48872275D01*
X143181423Y-48872274D01*
X143132049Y-48798381D01*
X143058156Y-48749007D01*
X140993148Y-46684000D01*
X185004394Y-46684000D01*
X185359352Y-47038958D01*
X185359352Y-47038958D01*
G37*
X185359352Y-47038958D02*
X184376792Y-50969198D01*
X184374383Y-51018692D01*
X184391098Y-51065341D01*
X184410197Y-51089803D01*
X186910197Y-53589803D01*
X186955407Y-53618914D01*
X190873000Y-55088011D01*
X190873000Y-100447394D01*
X190447394Y-100873000D01*
X186000000Y-100873000D01*
X185951399Y-100882667D01*
X185910197Y-100910197D01*
X183910197Y-102910197D01*
X183882667Y-102951399D01*
X183873000Y-103000000D01*
X183873000Y-106000000D01*
X183882667Y-106048601D01*
X183910197Y-106089803D01*
X185410197Y-107589803D01*
X185451399Y-107617333D01*
X185500000Y-107627000D01*
X188464822Y-107627000D01*
X190873000Y-109071907D01*
X190873000Y-111703526D01*
X190825652Y-111465490D01*
X190679424Y-111246645D01*
X190679423Y-111246644D01*
X190630049Y-111172751D01*
X190556156Y-111123377D01*
X189244225Y-109811447D01*
X189244223Y-109811444D01*
X189184817Y-109752038D01*
X189219913Y-109575600D01*
X189108540Y-109015691D01*
X188791377Y-108541023D01*
X188316709Y-108223860D01*
X187898133Y-108140600D01*
X187615467Y-108140600D01*
X187196891Y-108223860D01*
X186722223Y-108541023D01*
X186486800Y-108893358D01*
X186251377Y-108541023D01*
X185776709Y-108223860D01*
X185358133Y-108140600D01*
X185075467Y-108140600D01*
X184656891Y-108223860D01*
X184182223Y-108541023D01*
X183946800Y-108893358D01*
X183711377Y-108541023D01*
X183236709Y-108223860D01*
X182818133Y-108140600D01*
X182535467Y-108140600D01*
X182116891Y-108223860D01*
X181642223Y-108541023D01*
X181406800Y-108893358D01*
X181171377Y-108541023D01*
X180696709Y-108223860D01*
X180278133Y-108140600D01*
X179995467Y-108140600D01*
X179576891Y-108223860D01*
X179102223Y-108541023D01*
X178866800Y-108893358D01*
X178631377Y-108541023D01*
X178156709Y-108223860D01*
X177738133Y-108140600D01*
X177455467Y-108140600D01*
X177036891Y-108223860D01*
X176562223Y-108541023D01*
X176326800Y-108893358D01*
X176091377Y-108541023D01*
X175616709Y-108223860D01*
X175198133Y-108140600D01*
X174915467Y-108140600D01*
X174496891Y-108223860D01*
X174022223Y-108541023D01*
X173786800Y-108893358D01*
X173551377Y-108541023D01*
X173076709Y-108223860D01*
X172658133Y-108140600D01*
X172375467Y-108140600D01*
X172111801Y-108193046D01*
X172111801Y-104313962D01*
X172129138Y-104226801D01*
X172111801Y-104139640D01*
X172111801Y-104139636D01*
X172060453Y-103881491D01*
X171864850Y-103588752D01*
X171790958Y-103539379D01*
X143379000Y-75127422D01*
X143379000Y-49523589D01*
X143396337Y-49436429D01*
X143379000Y-49349269D01*
X143379000Y-49349265D01*
X143327652Y-49091120D01*
X143220263Y-48930402D01*
X143181424Y-48872275D01*
X143181423Y-48872274D01*
X143132049Y-48798381D01*
X143058156Y-48749007D01*
X140993148Y-46684000D01*
X185004394Y-46684000D01*
X185359352Y-47038958D01*
G36*
X179054074Y-110538117D02*
X178209192Y-111383000D01*
X172589000Y-111383000D01*
X172589000Y-111010600D01*
X172658133Y-111010600D01*
X173076709Y-110927340D01*
X173551377Y-110610177D01*
X173786800Y-110257842D01*
X174022223Y-110610177D01*
X174496891Y-110927340D01*
X174915467Y-111010600D01*
X175198133Y-111010600D01*
X175616709Y-110927340D01*
X176091377Y-110610177D01*
X176326800Y-110257842D01*
X176562223Y-110610177D01*
X177036891Y-110927340D01*
X177455467Y-111010600D01*
X177738133Y-111010600D01*
X178156709Y-110927340D01*
X178631377Y-110610177D01*
X178866800Y-110257842D01*
X179054074Y-110538117D01*
X179054074Y-110538117D01*
G37*
X179054074Y-110538117D02*
X178209192Y-111383000D01*
X172589000Y-111383000D01*
X172589000Y-111010600D01*
X172658133Y-111010600D01*
X173076709Y-110927340D01*
X173551377Y-110610177D01*
X173786800Y-110257842D01*
X174022223Y-110610177D01*
X174496891Y-110927340D01*
X174915467Y-111010600D01*
X175198133Y-111010600D01*
X175616709Y-110927340D01*
X176091377Y-110610177D01*
X176326800Y-110257842D01*
X176562223Y-110610177D01*
X177036891Y-110927340D01*
X177455467Y-111010600D01*
X177738133Y-111010600D01*
X178156709Y-110927340D01*
X178631377Y-110610177D01*
X178866800Y-110257842D01*
X179054074Y-110538117D01*
G36*
X152922644Y-110863024D02*
X153400243Y-111340623D01*
X153363400Y-111340623D01*
X152872648Y-110849872D01*
X152887804Y-110839745D01*
X152922644Y-110863024D01*
X152922644Y-110863024D01*
G37*
X152922644Y-110863024D02*
X153400243Y-111340623D01*
X153363400Y-111340623D01*
X152872648Y-110849872D01*
X152887804Y-110839745D01*
X152922644Y-110863024D01*
G36*
X156242223Y-110610177D02*
X156287772Y-110640612D01*
X155725828Y-110640612D01*
X155771377Y-110610177D01*
X156006800Y-110257842D01*
X156242223Y-110610177D01*
X156242223Y-110610177D01*
G37*
X156242223Y-110610177D02*
X156287772Y-110640612D01*
X155725828Y-110640612D01*
X155771377Y-110610177D01*
X156006800Y-110257842D01*
X156242223Y-110610177D01*
G36*
X105846579Y-110164960D02*
X104355600Y-110164960D01*
X104107835Y-110214243D01*
X104091440Y-110225198D01*
X104091440Y-108409821D01*
X105846579Y-110164960D01*
X105846579Y-110164960D01*
G37*
X105846579Y-110164960D02*
X104355600Y-110164960D01*
X104107835Y-110214243D01*
X104091440Y-110225198D01*
X104091440Y-108409821D01*
X105846579Y-110164960D01*
G36*
X140147073Y-51483630D02*
X140605202Y-51789742D01*
X141145601Y-51897234D01*
X141609000Y-51805058D01*
X141609001Y-75406834D01*
X141591663Y-75494000D01*
X141660348Y-75839309D01*
X141806576Y-76058154D01*
X141806578Y-76058156D01*
X141855952Y-76132049D01*
X141929845Y-76181423D01*
X170341801Y-104593380D01*
X170341802Y-108185090D01*
X170118133Y-108140600D01*
X169835467Y-108140600D01*
X169416891Y-108223860D01*
X168942223Y-108541023D01*
X168706800Y-108893358D01*
X168471377Y-108541023D01*
X167996709Y-108223860D01*
X167578133Y-108140600D01*
X167295467Y-108140600D01*
X166876891Y-108223860D01*
X166402223Y-108541023D01*
X166166800Y-108893358D01*
X165931377Y-108541023D01*
X165456709Y-108223860D01*
X165038133Y-108140600D01*
X164755467Y-108140600D01*
X164336891Y-108223860D01*
X163862223Y-108541023D01*
X163626800Y-108893358D01*
X163391377Y-108541023D01*
X162916709Y-108223860D01*
X162498133Y-108140600D01*
X162215467Y-108140600D01*
X161796891Y-108223860D01*
X161322223Y-108541023D01*
X161086800Y-108893358D01*
X160851377Y-108541023D01*
X160376709Y-108223860D01*
X159958133Y-108140600D01*
X159675467Y-108140600D01*
X159640362Y-108147583D01*
X139490601Y-87997823D01*
X139490601Y-51559488D01*
X139604130Y-51483630D01*
X139875601Y-51077345D01*
X140147073Y-51483630D01*
X140147073Y-51483630D01*
G37*
X140147073Y-51483630D02*
X140605202Y-51789742D01*
X141145601Y-51897234D01*
X141609000Y-51805058D01*
X141609001Y-75406834D01*
X141591663Y-75494000D01*
X141660348Y-75839309D01*
X141806576Y-76058154D01*
X141806578Y-76058156D01*
X141855952Y-76132049D01*
X141929845Y-76181423D01*
X170341801Y-104593380D01*
X170341802Y-108185090D01*
X170118133Y-108140600D01*
X169835467Y-108140600D01*
X169416891Y-108223860D01*
X168942223Y-108541023D01*
X168706800Y-108893358D01*
X168471377Y-108541023D01*
X167996709Y-108223860D01*
X167578133Y-108140600D01*
X167295467Y-108140600D01*
X166876891Y-108223860D01*
X166402223Y-108541023D01*
X166166800Y-108893358D01*
X165931377Y-108541023D01*
X165456709Y-108223860D01*
X165038133Y-108140600D01*
X164755467Y-108140600D01*
X164336891Y-108223860D01*
X163862223Y-108541023D01*
X163626800Y-108893358D01*
X163391377Y-108541023D01*
X162916709Y-108223860D01*
X162498133Y-108140600D01*
X162215467Y-108140600D01*
X161796891Y-108223860D01*
X161322223Y-108541023D01*
X161086800Y-108893358D01*
X160851377Y-108541023D01*
X160376709Y-108223860D01*
X159958133Y-108140600D01*
X159675467Y-108140600D01*
X159640362Y-108147583D01*
X139490601Y-87997823D01*
X139490601Y-51559488D01*
X139604130Y-51483630D01*
X139875601Y-51077345D01*
X140147073Y-51483630D01*
G36*
X157131091Y-108141470D02*
X156716891Y-108223860D01*
X156242223Y-108541023D01*
X156006800Y-108893358D01*
X155771377Y-108541023D01*
X155296709Y-108223860D01*
X154878133Y-108140600D01*
X154595467Y-108140600D01*
X154371799Y-108185090D01*
X154371799Y-106837960D01*
X154389136Y-106750799D01*
X154371799Y-106663638D01*
X154371799Y-106663634D01*
X154320451Y-106405489D01*
X154124848Y-106112750D01*
X154050956Y-106063377D01*
X138045000Y-90057422D01*
X138045000Y-89055378D01*
X157131091Y-108141470D01*
X157131091Y-108141470D01*
G37*
X157131091Y-108141470D02*
X156716891Y-108223860D01*
X156242223Y-108541023D01*
X156006800Y-108893358D01*
X155771377Y-108541023D01*
X155296709Y-108223860D01*
X154878133Y-108140600D01*
X154595467Y-108140600D01*
X154371799Y-108185090D01*
X154371799Y-106837960D01*
X154389136Y-106750799D01*
X154371799Y-106663638D01*
X154371799Y-106663634D01*
X154320451Y-106405489D01*
X154124848Y-106112750D01*
X154050956Y-106063377D01*
X138045000Y-90057422D01*
X138045000Y-89055378D01*
X157131091Y-108141470D01*
G36*
X101281436Y-48600618D02*
X101207543Y-48649992D01*
X101158169Y-48723885D01*
X101158167Y-48723887D01*
X101011939Y-48942732D01*
X100943254Y-49288041D01*
X100960592Y-49375207D01*
X100960591Y-104825232D01*
X100943254Y-104912393D01*
X100960591Y-104999554D01*
X100960591Y-104999557D01*
X101011939Y-105257702D01*
X101207542Y-105550442D01*
X101281438Y-105599818D01*
X103392780Y-107711160D01*
X98763453Y-107711160D01*
X99576200Y-107101600D01*
X99609280Y-107064706D01*
X99627000Y-107000000D01*
X99627000Y-105000000D01*
X99617333Y-104951399D01*
X99596426Y-104917349D01*
X96596426Y-101417349D01*
X96534890Y-101377886D01*
X93127000Y-100404203D01*
X93127000Y-55529980D01*
X94082288Y-53619405D01*
X99012637Y-53126370D01*
X99060035Y-53111914D01*
X99098293Y-53080421D01*
X99121586Y-53036685D01*
X99127000Y-53000000D01*
X99127000Y-48542333D01*
X100520750Y-46684000D01*
X103198053Y-46684000D01*
X101281436Y-48600618D01*
X101281436Y-48600618D01*
G37*
X101281436Y-48600618D02*
X101207543Y-48649992D01*
X101158169Y-48723885D01*
X101158167Y-48723887D01*
X101011939Y-48942732D01*
X100943254Y-49288041D01*
X100960592Y-49375207D01*
X100960591Y-104825232D01*
X100943254Y-104912393D01*
X100960591Y-104999554D01*
X100960591Y-104999557D01*
X101011939Y-105257702D01*
X101207542Y-105550442D01*
X101281438Y-105599818D01*
X103392780Y-107711160D01*
X98763453Y-107711160D01*
X99576200Y-107101600D01*
X99609280Y-107064706D01*
X99627000Y-107000000D01*
X99627000Y-105000000D01*
X99617333Y-104951399D01*
X99596426Y-104917349D01*
X96596426Y-101417349D01*
X96534890Y-101377886D01*
X93127000Y-100404203D01*
X93127000Y-55529980D01*
X94082288Y-53619405D01*
X99012637Y-53126370D01*
X99060035Y-53111914D01*
X99098293Y-53080421D01*
X99121586Y-53036685D01*
X99127000Y-53000000D01*
X99127000Y-48542333D01*
X100520750Y-46684000D01*
X103198053Y-46684000D01*
X101281436Y-48600618D01*
G36*
X152601799Y-107117378D02*
X152601799Y-107337514D01*
X148520413Y-103256129D01*
X148520413Y-103035992D01*
X152601799Y-107117378D01*
X152601799Y-107117378D01*
G37*
X152601799Y-107117378D02*
X152601799Y-107337514D01*
X148520413Y-103256129D01*
X148520413Y-103035992D01*
X152601799Y-107117378D01*
G36*
X135067073Y-51483630D02*
X135525202Y-51789742D01*
X136065601Y-51897234D01*
X136199518Y-51870596D01*
X136275000Y-51946079D01*
X136275001Y-90336834D01*
X136257663Y-90424000D01*
X136326348Y-90769309D01*
X136472576Y-90988154D01*
X136472578Y-90988156D01*
X136521952Y-91062049D01*
X136595845Y-91111423D01*
X147022128Y-101537707D01*
X146740028Y-101537707D01*
X146194228Y-101763785D01*
X145776491Y-102181522D01*
X145667479Y-102444700D01*
X118802989Y-75580211D01*
X118802989Y-66459291D01*
X133391685Y-51870596D01*
X133525601Y-51897234D01*
X134066001Y-51789742D01*
X134524130Y-51483630D01*
X134795601Y-51077345D01*
X135067073Y-51483630D01*
X135067073Y-51483630D01*
G37*
X135067073Y-51483630D02*
X135525202Y-51789742D01*
X136065601Y-51897234D01*
X136199518Y-51870596D01*
X136275000Y-51946079D01*
X136275001Y-90336834D01*
X136257663Y-90424000D01*
X136326348Y-90769309D01*
X136472576Y-90988154D01*
X136472578Y-90988156D01*
X136521952Y-91062049D01*
X136595845Y-91111423D01*
X147022128Y-101537707D01*
X146740028Y-101537707D01*
X146194228Y-101763785D01*
X145776491Y-102181522D01*
X145667479Y-102444700D01*
X118802989Y-75580211D01*
X118802989Y-66459291D01*
X133391685Y-51870596D01*
X133525601Y-51897234D01*
X134066001Y-51789742D01*
X134524130Y-51483630D01*
X134795601Y-51077345D01*
X135067073Y-51483630D01*
G36*
X130882414Y-51876709D02*
X118102978Y-64656146D01*
X118102978Y-64619302D01*
X130851685Y-51870596D01*
X130882414Y-51876709D01*
X130882414Y-51876709D01*
G37*
X130882414Y-51876709D02*
X118102978Y-64656146D01*
X118102978Y-64619302D01*
X130851685Y-51870596D01*
X130882414Y-51876709D01*
G36*
X128342414Y-51876709D02*
X117402967Y-62816157D01*
X117402967Y-62779313D01*
X128311685Y-51870596D01*
X128342414Y-51876709D01*
X128342414Y-51876709D01*
G37*
X128342414Y-51876709D02*
X117402967Y-62816157D01*
X117402967Y-62779313D01*
X128311685Y-51870596D01*
X128342414Y-51876709D01*
G36*
X124907073Y-51483630D02*
X125365202Y-51789742D01*
X125802414Y-51876709D01*
X116630601Y-61048523D01*
X116630601Y-51559488D01*
X116744130Y-51483630D01*
X117015601Y-51077345D01*
X117287073Y-51483630D01*
X117745202Y-51789742D01*
X118285601Y-51897234D01*
X118826001Y-51789742D01*
X119284130Y-51483630D01*
X119555601Y-51077345D01*
X119827073Y-51483630D01*
X120285202Y-51789742D01*
X120825601Y-51897234D01*
X121366001Y-51789742D01*
X121824130Y-51483630D01*
X122095601Y-51077345D01*
X122367073Y-51483630D01*
X122825202Y-51789742D01*
X123365601Y-51897234D01*
X123906001Y-51789742D01*
X124364130Y-51483630D01*
X124635601Y-51077345D01*
X124907073Y-51483630D01*
X124907073Y-51483630D01*
G37*
X124907073Y-51483630D02*
X125365202Y-51789742D01*
X125802414Y-51876709D01*
X116630601Y-61048523D01*
X116630601Y-51559488D01*
X116744130Y-51483630D01*
X117015601Y-51077345D01*
X117287073Y-51483630D01*
X117745202Y-51789742D01*
X118285601Y-51897234D01*
X118826001Y-51789742D01*
X119284130Y-51483630D01*
X119555601Y-51077345D01*
X119827073Y-51483630D01*
X120285202Y-51789742D01*
X120825601Y-51897234D01*
X121366001Y-51789742D01*
X121824130Y-51483630D01*
X122095601Y-51077345D01*
X122367073Y-51483630D01*
X122825202Y-51789742D01*
X123365601Y-51897234D01*
X123906001Y-51789742D01*
X124364130Y-51483630D01*
X124635601Y-51077345D01*
X124907073Y-51483630D01*
G36*
X113991034Y-57602113D02*
X113991034Y-57849025D01*
X108017799Y-51875791D01*
X108125601Y-51897234D01*
X108259518Y-51870596D01*
X113991034Y-57602113D01*
X113991034Y-57602113D01*
G37*
X113991034Y-57602113D02*
X113991034Y-57849025D01*
X108017799Y-51875791D01*
X108125601Y-51897234D01*
X108259518Y-51870596D01*
X113991034Y-57602113D01*
G36*
X114747073Y-51483630D02*
X114860601Y-51559487D01*
X114860601Y-55968522D01*
X110768787Y-51876709D01*
X111206001Y-51789742D01*
X111664130Y-51483630D01*
X111935601Y-51077345D01*
X112207073Y-51483630D01*
X112665202Y-51789742D01*
X113205601Y-51897234D01*
X113746001Y-51789742D01*
X114204130Y-51483630D01*
X114475601Y-51077345D01*
X114747073Y-51483630D01*
X114747073Y-51483630D01*
G37*
X114747073Y-51483630D02*
X114860601Y-51559487D01*
X114860601Y-55968522D01*
X110768787Y-51876709D01*
X111206001Y-51789742D01*
X111664130Y-51483630D01*
X111935601Y-51077345D01*
X112207073Y-51483630D01*
X112665202Y-51789742D01*
X113205601Y-51897234D01*
X113746001Y-51789742D01*
X114204130Y-51483630D01*
X114475601Y-51077345D01*
X114747073Y-51483630D01*
G36*
X113339518Y-48399606D02*
X113205601Y-48372968D01*
X113071684Y-48399606D01*
X112742147Y-48070069D01*
X113669054Y-48070069D01*
X113339518Y-48399606D01*
X113339518Y-48399606D01*
G37*
X113339518Y-48399606D02*
X113205601Y-48372968D01*
X113071684Y-48399606D01*
X112742147Y-48070069D01*
X113669054Y-48070069D01*
X113339518Y-48399606D01*
M02*
