M48
;DRILL file {KiCad (5.0.0)} date 03/04/19 17:15:47
;FORMAT={-:-/ absolute / metric / decimal}
FMAT,2
METRIC,TZ
T1C0.800
T2C0.950
T3C1.000
T4C1.400
%
G90
G05
M71
T1
X96.266Y-118.872
X99.568Y-125.73
X100.584Y-118.872
X103.886Y-122.936
X110.49Y-117.348
X113.302Y-122.714
X113.538Y-127.762
X115.57Y-122.682
X116.078Y-109.474
X117.602Y-115.54
X121.666Y-115.54
X125.31Y-126.75
X126.492Y-123.698
X127.255Y-118.648
X134.62Y-118.11
X147.035Y-103.023
X149.098Y-115.062
X155.702Y-113.538
X156.972Y-130.556
X163.576Y-116.84
X170.672Y-131.048
X175.632Y-117.07
X177.943Y-127.792
X152.197Y-109.576
X152.197Y-124.816
X154.737Y-109.576
X154.737Y-124.816
X157.277Y-109.576
X157.277Y-124.816
X159.817Y-109.576
X159.817Y-124.816
X162.357Y-109.576
X162.357Y-124.816
X164.897Y-109.576
X164.897Y-124.816
X167.437Y-109.576
X167.437Y-124.816
X169.977Y-109.576
X169.977Y-124.816
X172.517Y-109.576
X172.517Y-124.816
X175.057Y-109.576
X175.057Y-124.816
X177.597Y-109.576
X177.597Y-124.816
X180.137Y-109.576
X180.137Y-124.816
X182.677Y-109.576
X182.677Y-124.816
X185.217Y-109.576
X185.217Y-124.816
X187.757Y-109.576
X187.757Y-124.816
X139.852Y-114.681
X142.596Y-117.983
X144.831Y-114.681
T2
X117.196Y-130.099
X119.696Y-130.099
X122.196Y-130.099
X124.696Y-130.099
T3
X175.971Y-131.826
X178.511Y-131.826
X181.051Y-131.826
X183.591Y-131.826
X186.131Y-131.826
X188.671Y-131.826
X130.15Y-123.749
X130.15Y-126.289
X130.15Y-128.829
X130.15Y-131.369
X103.046Y-50.135
X105.586Y-50.135
X108.126Y-50.135
X110.666Y-50.135
X113.206Y-50.135
X115.746Y-50.135
X118.286Y-50.135
X120.826Y-50.135
X123.366Y-50.135
X125.906Y-50.135
X128.446Y-50.135
X130.986Y-50.135
X133.526Y-50.135
X136.066Y-50.135
X138.606Y-50.135
X141.146Y-50.135
X159.512Y-131.775
X162.052Y-131.775
X164.592Y-131.775
X167.132Y-131.775
T4
X96.114Y-128.93
X101.194Y-128.93
T0
M30
