  0
SECTION
  2
HEADER
  9
$ANGBASE
  50
0.0
  9
$ANGDIR
  70
  1
  9
$MEASUREMENT
  70
0
  0
ENDSEC
  0
SECTION
  2
TABLES
  0
TABLE
  2
LTYPE
  70
4
  0
LTYPE
  5
40F
  2
CONTINUOUS
  70
0
  3
Solid line
  72
65
  73
0
  40
0.0
  0
LTYPE
  5
410
  2
DASHDOT
 70
0
  3
Dash Dot ____ _ ____ _
 72
65
 73
4
 40
2.0
 49
1.25
 49
-0.25
 49
0.25
 49
-0.25
  0
LTYPE
  5
411
  2
DASHED
 70
0
  3
Dashed __ __ __ __ __
 72
65
 73
2
 40
0.75
 49
0.5
 49
-0.25
  0
LTYPE
  5
43B
  2
DOTTED
 70
0
  3
Dotted .  .  .  .
 72
65
 73
2
 40
0.2
 49
0.0
 49
-0.2
  0
ENDTAB
  0
TABLE
  2
STYLE
  70
4
  0
STYLE
  2
KICAD
  70
0
  40
0
  41
1
  42
1
  50
0
  71
0
  3
isocp.shx
  0
STYLE
  2
KICADB
  70
0
  40
0
  41
1
  42
1
  50
0
  71
0
  3
isocp.shx
  0
STYLE
  2
KICADI
  70
0
  40
0
  41
1
  42
1
  50
15
  71
0
  3
isocp.shx
  0
STYLE
  2
KICADBI
  70
0
  40
0
  41
1
  42
1
  50
15
  71
0
  3
isocp.shx
  0
ENDTAB
  0
TABLE
  2
LAYER
  70
30
  0
LAYER
  2
BLACK
  70
0
  62
7
  6
CONTINUOUS
  0
LAYER
  2
GRAY1
  70
0
  62
251
  6
CONTINUOUS
  0
LAYER
  2
GRAY2
  70
0
  62
8
  6
CONTINUOUS
  0
LAYER
  2
GRAY3
  70
0
  62
9
  6
CONTINUOUS
  0
LAYER
  2
WHITE
  70
0
  62
7
  6
CONTINUOUS
  0
LAYER
  2
LYELLOW
  70
0
  62
51
  6
CONTINUOUS
  0
LAYER
  2
BLUE1
  70
0
  62
178
  6
CONTINUOUS
  0
LAYER
  2
GREEN1
  70
0
  62
98
  6
CONTINUOUS
  0
LAYER
  2
CYAN1
  70
0
  62
138
  6
CONTINUOUS
  0
LAYER
  2
RED1
  70
0
  62
18
  6
CONTINUOUS
  0
LAYER
  2
MAGENTA1
  70
0
  62
228
  6
CONTINUOUS
  0
LAYER
  2
BROWN1
  70
0
  62
58
  6
CONTINUOUS
  0
LAYER
  2
BLUE2
  70
0
  62
5
  6
CONTINUOUS
  0
LAYER
  2
GREEN2
  70
0
  62
3
  6
CONTINUOUS
  0
LAYER
  2
CYAN2
  70
0
  62
4
  6
CONTINUOUS
  0
LAYER
  2
RED2
  70
0
  62
1
  6
CONTINUOUS
  0
LAYER
  2
MAGENTA2
  70
0
  62
6
  6
CONTINUOUS
  0
LAYER
  2
BROWN2
  70
0
  62
54
  6
CONTINUOUS
  0
LAYER
  2
BLUE3
  70
0
  62
171
  6
CONTINUOUS
  0
LAYER
  2
GREEN3
  70
0
  62
91
  6
CONTINUOUS
  0
LAYER
  2
CYAN3
  70
0
  62
131
  6
CONTINUOUS
  0
LAYER
  2
RED3
  70
0
  62
11
  6
CONTINUOUS
  0
LAYER
  2
MAGENTA3
  70
0
  62
221
  6
CONTINUOUS
  0
LAYER
  2
YELLOW3
  70
0
  62
2
  6
CONTINUOUS
  0
LAYER
  2
BLUE4
  70
0
  62
5
  6
CONTINUOUS
  0
LAYER
  2
GREEN4
  70
0
  62
3
  6
CONTINUOUS
  0
LAYER
  2
CYAN4
  70
0
  62
4
  6
CONTINUOUS
  0
LAYER
  2
RED4
  70
0
  62
1
  6
CONTINUOUS
  0
LAYER
  2
MAGENTA4
  70
0
  62
6
  6
CONTINUOUS
  0
LAYER
  2
YELLOW4
  70
0
  62
2
  6
CONTINUOUS
  0
ENDTAB
  0
ENDSEC
  0
SECTION
  2
ENTITIES
0
LINE
8
BLACK
6
CONTINUOUS
10
92.1934
20
-135.075
11
92.1868
21
-135.075
0
LINE
8
BLACK
6
CONTINUOUS
10
92.1868
20
-135.075
11
92.1805
21
-135.073
0
LINE
8
BLACK
6
CONTINUOUS
10
92.1805
20
-135.073
11
92.174
21
-135.072
0
LINE
8
BLACK
6
CONTINUOUS
10
92.174
20
-135.072
11
92.1682
21
-135.068
0
LINE
8
BLACK
6
CONTINUOUS
10
92.1682
20
-135.068
11
92.1619
21
-135.066
0
LINE
8
BLACK
6
CONTINUOUS
10
92.1619
20
-135.066
11
92.1568
21
-135.062
0
LINE
8
BLACK
6
CONTINUOUS
10
92.1568
20
-135.062
11
92.151
21
-135.058
0
LINE
8
BLACK
6
CONTINUOUS
10
92.151
20
-135.058
11
92.1468
21
-135.053
0
LINE
8
BLACK
6
CONTINUOUS
10
92.1468
20
-135.053
11
92.1417
21
-135.049
0
LINE
8
BLACK
6
CONTINUOUS
10
92.1417
20
-135.049
11
92.1383
21
-135.043
0
LINE
8
BLACK
6
CONTINUOUS
10
92.1383
20
-135.043
11
92.134
21
-135.038
0
LINE
8
BLACK
6
CONTINUOUS
10
92.134
20
-135.038
11
92.1318
21
-135.032
0
LINE
8
BLACK
6
CONTINUOUS
10
92.1318
20
-135.032
11
92.1284
21
-135.026
0
LINE
8
BLACK
6
CONTINUOUS
10
92.1284
20
-135.026
11
92.1273
21
-135.019
0
LINE
8
BLACK
6
CONTINUOUS
10
92.1273
20
-135.019
11
92.125
21
-135.013
0
LINE
8
BLACK
6
CONTINUOUS
10
92.125
20
-135.013
11
92.125
21
-135.007
0
LINE
8
BLACK
6
CONTINUOUS
10
92.125
20
-135.007
11
92.125
21
-135.007
0
LINE
8
BLACK
6
CONTINUOUS
10
92.125
20
-135.007
11
92.125
21
-45.9934
0
LINE
8
BLACK
6
CONTINUOUS
10
92.125
20
-45.9934
11
92.125
21
-45.9868
0
LINE
8
BLACK
6
CONTINUOUS
10
92.125
20
-45.9868
11
92.1273
21
-45.9805
0
LINE
8
BLACK
6
CONTINUOUS
10
92.1273
20
-45.9805
11
92.1284
21
-45.974
0
LINE
8
BLACK
6
CONTINUOUS
10
92.1284
20
-45.974
11
92.1318
21
-45.9682
0
LINE
8
BLACK
6
CONTINUOUS
10
92.1318
20
-45.9682
11
92.134
21
-45.9619
0
LINE
8
BLACK
6
CONTINUOUS
10
92.134
20
-45.9619
11
92.1383
21
-45.9568
0
LINE
8
BLACK
6
CONTINUOUS
10
92.1383
20
-45.9568
11
92.1417
21
-45.951
0
LINE
8
BLACK
6
CONTINUOUS
10
92.1417
20
-45.951
11
92.1468
21
-45.9468
0
LINE
8
BLACK
6
CONTINUOUS
10
92.1468
20
-45.9468
11
92.151
21
-45.9417
0
LINE
8
BLACK
6
CONTINUOUS
10
92.151
20
-45.9417
11
92.1568
21
-45.9383
0
LINE
8
BLACK
6
CONTINUOUS
10
92.1568
20
-45.9383
11
92.1619
21
-45.934
0
LINE
8
BLACK
6
CONTINUOUS
10
92.1619
20
-45.934
11
92.1682
21
-45.9318
0
LINE
8
BLACK
6
CONTINUOUS
10
92.1682
20
-45.9318
11
92.174
21
-45.9284
0
LINE
8
BLACK
6
CONTINUOUS
10
92.174
20
-45.9284
11
92.1805
21
-45.9273
0
LINE
8
BLACK
6
CONTINUOUS
10
92.1805
20
-45.9273
11
92.1868
21
-45.925
0
LINE
8
BLACK
6
CONTINUOUS
10
92.1868
20
-45.925
11
92.1934
21
-45.925
0
LINE
8
BLACK
6
CONTINUOUS
10
92.1934
20
-45.925
11
92.1934
21
-45.925
0
LINE
8
BLACK
6
CONTINUOUS
10
92.1934
20
-45.925
11
191.801
21
-45.925
0
LINE
8
BLACK
6
CONTINUOUS
10
191.801
20
-45.925
11
191.813
21
-45.925
0
LINE
8
BLACK
6
CONTINUOUS
10
191.813
20
-45.925
11
191.819
21
-45.9273
0
LINE
8
BLACK
6
CONTINUOUS
10
191.819
20
-45.9273
11
191.826
21
-45.9284
0
LINE
8
BLACK
6
CONTINUOUS
10
191.826
20
-45.9284
11
191.832
21
-45.9317
0
LINE
8
BLACK
6
CONTINUOUS
10
191.832
20
-45.9317
11
191.838
21
-45.934
0
LINE
8
BLACK
6
CONTINUOUS
10
191.838
20
-45.934
11
191.843
21
-45.9383
0
LINE
8
BLACK
6
CONTINUOUS
10
191.843
20
-45.9383
11
191.849
21
-45.9417
0
LINE
8
BLACK
6
CONTINUOUS
10
191.849
20
-45.9417
11
191.853
21
-45.9467
0
LINE
8
BLACK
6
CONTINUOUS
10
191.853
20
-45.9467
11
191.858
21
-45.9509
0
LINE
8
BLACK
6
CONTINUOUS
10
191.858
20
-45.9509
11
191.862
21
-45.9567
0
LINE
8
BLACK
6
CONTINUOUS
10
191.862
20
-45.9567
11
191.866
21
-45.9619
0
LINE
8
BLACK
6
CONTINUOUS
10
191.866
20
-45.9619
11
191.868
21
-45.9681
0
LINE
8
BLACK
6
CONTINUOUS
10
191.868
20
-45.9681
11
191.872
21
-45.9738
0
LINE
8
BLACK
6
CONTINUOUS
10
191.872
20
-45.9738
11
191.873
21
-45.9804
0
LINE
8
BLACK
6
CONTINUOUS
10
191.873
20
-45.9804
11
191.875
21
-45.9868
0
LINE
8
BLACK
6
CONTINUOUS
10
191.875
20
-45.9868
11
191.875
21
-45.9995
0
LINE
8
BLACK
6
CONTINUOUS
10
191.875
20
-45.9995
11
192.075
21
-134.987
0
LINE
8
BLACK
6
CONTINUOUS
10
192.075
20
-134.987
11
192.075
21
-134.987
0
LINE
8
BLACK
6
CONTINUOUS
10
192.075
20
-134.987
11
192.075
21
-135
0
LINE
8
BLACK
6
CONTINUOUS
10
192.075
20
-135
11
192.075
21
-135.006
0
LINE
8
BLACK
6
CONTINUOUS
10
192.075
20
-135.006
11
192.075
21
-135.006
0
LINE
8
BLACK
6
CONTINUOUS
10
192.075
20
-135.006
11
192.075
21
-135.013
0
LINE
8
BLACK
6
CONTINUOUS
10
192.075
20
-135.013
11
192.073
21
-135.019
0
LINE
8
BLACK
6
CONTINUOUS
10
192.073
20
-135.019
11
192.072
21
-135.026
0
LINE
8
BLACK
6
CONTINUOUS
10
192.072
20
-135.026
11
192.068
21
-135.032
0
LINE
8
BLACK
6
CONTINUOUS
10
192.068
20
-135.032
11
192.066
21
-135.038
0
LINE
8
BLACK
6
CONTINUOUS
10
192.066
20
-135.038
11
192.062
21
-135.043
0
LINE
8
BLACK
6
CONTINUOUS
10
192.062
20
-135.043
11
192.058
21
-135.049
0
LINE
8
BLACK
6
CONTINUOUS
10
192.058
20
-135.049
11
192.053
21
-135.053
0
LINE
8
BLACK
6
CONTINUOUS
10
192.053
20
-135.053
11
192.049
21
-135.058
0
LINE
8
BLACK
6
CONTINUOUS
10
192.049
20
-135.058
11
192.043
21
-135.062
0
LINE
8
BLACK
6
CONTINUOUS
10
192.043
20
-135.062
11
192.038
21
-135.066
0
LINE
8
BLACK
6
CONTINUOUS
10
192.038
20
-135.066
11
192.032
21
-135.068
0
LINE
8
BLACK
6
CONTINUOUS
10
192.032
20
-135.068
11
192.026
21
-135.072
0
LINE
8
BLACK
6
CONTINUOUS
10
192.026
20
-135.072
11
192.02
21
-135.073
0
LINE
8
BLACK
6
CONTINUOUS
10
192.02
20
-135.073
11
192.013
21
-135.075
0
LINE
8
BLACK
6
CONTINUOUS
10
192.013
20
-135.075
11
192.007
21
-135.075
0
LINE
8
BLACK
6
CONTINUOUS
10
192.007
20
-135.075
11
192.007
21
-135.075
0
LINE
8
BLACK
6
CONTINUOUS
10
192.007
20
-135.075
11
191.999
21
-135.075
0
LINE
8
BLACK
6
CONTINUOUS
10
191.999
20
-135.075
11
191.987
21
-135.075
0
LINE
8
BLACK
6
CONTINUOUS
10
191.987
20
-135.075
11
191.987
21
-135.075
0
LINE
8
BLACK
6
CONTINUOUS
10
191.987
20
-135.075
11
92.1934
21
-135.075
0
LINE
8
BLACK
6
CONTINUOUS
10
92.1934
20
-135.075
11
92.1934
21
-135.075
0
LINE
8
BLACK
6
CONTINUOUS
10
191.725
20
-46.075
11
92.275
21
-46.075
0
LINE
8
BLACK
6
CONTINUOUS
10
92.275
20
-46.075
11
92.275
21
-134.925
0
LINE
8
BLACK
6
CONTINUOUS
10
92.275
20
-134.925
11
191.925
21
-134.925
0
LINE
8
BLACK
6
CONTINUOUS
10
191.925
20
-134.925
11
191.725
21
-46.075
  0
ENDSEC
  0
EOF
