  0
SECTION
  2
HEADER
  9
$ANGBASE
  50
0.0
  9
$ANGDIR
  70
  1
  9
$MEASUREMENT
  70
0
  0
ENDSEC
  0
SECTION
  2
TABLES
  0
TABLE
  2
LTYPE
  70
4
  0
LTYPE
  5
40F
  2
CONTINUOUS
  70
0
  3
Solid line
  72
65
  73
0
  40
0.0
  0
LTYPE
  5
410
  2
DASHDOT
 70
0
  3
Dash Dot ____ _ ____ _
 72
65
 73
4
 40
2.0
 49
1.25
 49
-0.25
 49
0.25
 49
-0.25
  0
LTYPE
  5
411
  2
DASHED
 70
0
  3
Dashed __ __ __ __ __
 72
65
 73
2
 40
0.75
 49
0.5
 49
-0.25
  0
LTYPE
  5
43B
  2
DOTTED
 70
0
  3
Dotted .  .  .  .
 72
65
 73
2
 40
0.2
 49
0.0
 49
-0.2
  0
ENDTAB
  0
TABLE
  2
STYLE
  70
4
  0
STYLE
  2
KICAD
  70
0
  40
0
  41
1
  42
1
  50
0
  71
0
  3
isocp.shx
  0
STYLE
  2
KICADB
  70
0
  40
0
  41
1
  42
1
  50
0
  71
0
  3
isocp.shx
  0
STYLE
  2
KICADI
  70
0
  40
0
  41
1
  42
1
  50
15
  71
0
  3
isocp.shx
  0
STYLE
  2
KICADBI
  70
0
  40
0
  41
1
  42
1
  50
15
  71
0
  3
isocp.shx
  0
ENDTAB
  0
TABLE
  2
LAYER
  70
30
  0
LAYER
  2
BLACK
  70
0
  62
7
  6
CONTINUOUS
  0
LAYER
  2
GRAY1
  70
0
  62
251
  6
CONTINUOUS
  0
LAYER
  2
GRAY2
  70
0
  62
8
  6
CONTINUOUS
  0
LAYER
  2
GRAY3
  70
0
  62
9
  6
CONTINUOUS
  0
LAYER
  2
WHITE
  70
0
  62
7
  6
CONTINUOUS
  0
LAYER
  2
LYELLOW
  70
0
  62
51
  6
CONTINUOUS
  0
LAYER
  2
BLUE1
  70
0
  62
178
  6
CONTINUOUS
  0
LAYER
  2
GREEN1
  70
0
  62
98
  6
CONTINUOUS
  0
LAYER
  2
CYAN1
  70
0
  62
138
  6
CONTINUOUS
  0
LAYER
  2
RED1
  70
0
  62
18
  6
CONTINUOUS
  0
LAYER
  2
MAGENTA1
  70
0
  62
228
  6
CONTINUOUS
  0
LAYER
  2
BROWN1
  70
0
  62
58
  6
CONTINUOUS
  0
LAYER
  2
BLUE2
  70
0
  62
5
  6
CONTINUOUS
  0
LAYER
  2
GREEN2
  70
0
  62
3
  6
CONTINUOUS
  0
LAYER
  2
CYAN2
  70
0
  62
4
  6
CONTINUOUS
  0
LAYER
  2
RED2
  70
0
  62
1
  6
CONTINUOUS
  0
LAYER
  2
MAGENTA2
  70
0
  62
6
  6
CONTINUOUS
  0
LAYER
  2
BROWN2
  70
0
  62
54
  6
CONTINUOUS
  0
LAYER
  2
BLUE3
  70
0
  62
171
  6
CONTINUOUS
  0
LAYER
  2
GREEN3
  70
0
  62
91
  6
CONTINUOUS
  0
LAYER
  2
CYAN3
  70
0
  62
131
  6
CONTINUOUS
  0
LAYER
  2
RED3
  70
0
  62
11
  6
CONTINUOUS
  0
LAYER
  2
MAGENTA3
  70
0
  62
221
  6
CONTINUOUS
  0
LAYER
  2
YELLOW3
  70
0
  62
2
  6
CONTINUOUS
  0
LAYER
  2
BLUE4
  70
0
  62
5
  6
CONTINUOUS
  0
LAYER
  2
GREEN4
  70
0
  62
3
  6
CONTINUOUS
  0
LAYER
  2
CYAN4
  70
0
  62
4
  6
CONTINUOUS
  0
LAYER
  2
RED4
  70
0
  62
1
  6
CONTINUOUS
  0
LAYER
  2
MAGENTA4
  70
0
  62
6
  6
CONTINUOUS
  0
LAYER
  2
YELLOW4
  70
0
  62
2
  6
CONTINUOUS
  0
ENDTAB
  0
ENDSEC
  0
SECTION
  2
ENTITIES
0
LINE
8
BLACK
6
CONTINUOUS
10
177.021
20
-132.876
11
174.921
21
-132.876
0
LINE
8
BLACK
6
CONTINUOUS
10
174.921
20
-132.876
11
174.921
21
-130.776
0
LINE
8
BLACK
6
CONTINUOUS
10
174.921
20
-130.776
11
177.021
21
-130.776
0
LINE
8
BLACK
6
CONTINUOUS
10
177.021
20
-130.776
11
177.021
21
-132.876
0
LINE
8
BLACK
6
CONTINUOUS
10
178.876
20
-130.824
11
179.197
21
-131.009
0
LINE
8
BLACK
6
CONTINUOUS
10
179.197
20
-131.009
11
179.435
21
-131.293
0
LINE
8
BLACK
6
CONTINUOUS
10
179.435
20
-131.293
11
179.561
21
-131.641
0
LINE
8
BLACK
6
CONTINUOUS
10
179.561
20
-131.641
11
179.561
21
-132.011
0
LINE
8
BLACK
6
CONTINUOUS
10
179.561
20
-132.011
11
179.435
21
-132.359
0
LINE
8
BLACK
6
CONTINUOUS
10
179.435
20
-132.359
11
179.197
21
-132.643
0
LINE
8
BLACK
6
CONTINUOUS
10
179.197
20
-132.643
11
178.876
21
-132.828
0
LINE
8
BLACK
6
CONTINUOUS
10
178.876
20
-132.828
11
178.603
21
-132.876
0
LINE
8
BLACK
6
CONTINUOUS
10
178.603
20
-132.876
11
178.419
21
-132.876
0
LINE
8
BLACK
6
CONTINUOUS
10
178.419
20
-132.876
11
178.147
21
-132.828
0
LINE
8
BLACK
6
CONTINUOUS
10
178.147
20
-132.828
11
177.826
21
-132.643
0
LINE
8
BLACK
6
CONTINUOUS
10
177.826
20
-132.643
11
177.588
21
-132.359
0
LINE
8
BLACK
6
CONTINUOUS
10
177.588
20
-132.359
11
177.461
21
-132.011
0
LINE
8
BLACK
6
CONTINUOUS
10
177.461
20
-132.011
11
177.461
21
-131.641
0
LINE
8
BLACK
6
CONTINUOUS
10
177.461
20
-131.641
11
177.588
21
-131.293
0
LINE
8
BLACK
6
CONTINUOUS
10
177.588
20
-131.293
11
177.826
21
-131.009
0
LINE
8
BLACK
6
CONTINUOUS
10
177.826
20
-131.009
11
178.147
21
-130.824
0
LINE
8
BLACK
6
CONTINUOUS
10
178.147
20
-130.824
11
178.419
21
-130.776
0
LINE
8
BLACK
6
CONTINUOUS
10
178.419
20
-130.776
11
178.603
21
-130.776
0
LINE
8
BLACK
6
CONTINUOUS
10
178.603
20
-130.776
11
178.876
21
-130.824
0
LINE
8
BLACK
6
CONTINUOUS
10
181.416
20
-130.824
11
181.737
21
-131.009
0
LINE
8
BLACK
6
CONTINUOUS
10
181.737
20
-131.009
11
181.975
21
-131.293
0
LINE
8
BLACK
6
CONTINUOUS
10
181.975
20
-131.293
11
182.101
21
-131.641
0
LINE
8
BLACK
6
CONTINUOUS
10
182.101
20
-131.641
11
182.101
21
-132.011
0
LINE
8
BLACK
6
CONTINUOUS
10
182.101
20
-132.011
11
181.975
21
-132.359
0
LINE
8
BLACK
6
CONTINUOUS
10
181.975
20
-132.359
11
181.737
21
-132.643
0
LINE
8
BLACK
6
CONTINUOUS
10
181.737
20
-132.643
11
181.416
21
-132.828
0
LINE
8
BLACK
6
CONTINUOUS
10
181.416
20
-132.828
11
181.143
21
-132.876
0
LINE
8
BLACK
6
CONTINUOUS
10
181.143
20
-132.876
11
180.959
21
-132.876
0
LINE
8
BLACK
6
CONTINUOUS
10
180.959
20
-132.876
11
180.687
21
-132.828
0
LINE
8
BLACK
6
CONTINUOUS
10
180.687
20
-132.828
11
180.366
21
-132.643
0
LINE
8
BLACK
6
CONTINUOUS
10
180.366
20
-132.643
11
180.128
21
-132.359
0
LINE
8
BLACK
6
CONTINUOUS
10
180.128
20
-132.359
11
180.001
21
-132.011
0
LINE
8
BLACK
6
CONTINUOUS
10
180.001
20
-132.011
11
180.001
21
-131.641
0
LINE
8
BLACK
6
CONTINUOUS
10
180.001
20
-131.641
11
180.128
21
-131.293
0
LINE
8
BLACK
6
CONTINUOUS
10
180.128
20
-131.293
11
180.366
21
-131.009
0
LINE
8
BLACK
6
CONTINUOUS
10
180.366
20
-131.009
11
180.687
21
-130.824
0
LINE
8
BLACK
6
CONTINUOUS
10
180.687
20
-130.824
11
180.959
21
-130.776
0
LINE
8
BLACK
6
CONTINUOUS
10
180.959
20
-130.776
11
181.143
21
-130.776
0
LINE
8
BLACK
6
CONTINUOUS
10
181.143
20
-130.776
11
181.416
21
-130.824
0
LINE
8
BLACK
6
CONTINUOUS
10
183.956
20
-130.824
11
184.277
21
-131.009
0
LINE
8
BLACK
6
CONTINUOUS
10
184.277
20
-131.009
11
184.515
21
-131.293
0
LINE
8
BLACK
6
CONTINUOUS
10
184.515
20
-131.293
11
184.641
21
-131.641
0
LINE
8
BLACK
6
CONTINUOUS
10
184.641
20
-131.641
11
184.641
21
-132.011
0
LINE
8
BLACK
6
CONTINUOUS
10
184.641
20
-132.011
11
184.515
21
-132.359
0
LINE
8
BLACK
6
CONTINUOUS
10
184.515
20
-132.359
11
184.277
21
-132.643
0
LINE
8
BLACK
6
CONTINUOUS
10
184.277
20
-132.643
11
183.956
21
-132.828
0
LINE
8
BLACK
6
CONTINUOUS
10
183.956
20
-132.828
11
183.683
21
-132.876
0
LINE
8
BLACK
6
CONTINUOUS
10
183.683
20
-132.876
11
183.499
21
-132.876
0
LINE
8
BLACK
6
CONTINUOUS
10
183.499
20
-132.876
11
183.227
21
-132.828
0
LINE
8
BLACK
6
CONTINUOUS
10
183.227
20
-132.828
11
182.906
21
-132.643
0
LINE
8
BLACK
6
CONTINUOUS
10
182.906
20
-132.643
11
182.668
21
-132.359
0
LINE
8
BLACK
6
CONTINUOUS
10
182.668
20
-132.359
11
182.541
21
-132.011
0
LINE
8
BLACK
6
CONTINUOUS
10
182.541
20
-132.011
11
182.541
21
-131.641
0
LINE
8
BLACK
6
CONTINUOUS
10
182.541
20
-131.641
11
182.668
21
-131.293
0
LINE
8
BLACK
6
CONTINUOUS
10
182.668
20
-131.293
11
182.906
21
-131.009
0
LINE
8
BLACK
6
CONTINUOUS
10
182.906
20
-131.009
11
183.227
21
-130.824
0
LINE
8
BLACK
6
CONTINUOUS
10
183.227
20
-130.824
11
183.499
21
-130.776
0
LINE
8
BLACK
6
CONTINUOUS
10
183.499
20
-130.776
11
183.683
21
-130.776
0
LINE
8
BLACK
6
CONTINUOUS
10
183.683
20
-130.776
11
183.956
21
-130.824
0
LINE
8
BLACK
6
CONTINUOUS
10
186.496
20
-130.824
11
186.817
21
-131.009
0
LINE
8
BLACK
6
CONTINUOUS
10
186.817
20
-131.009
11
187.055
21
-131.293
0
LINE
8
BLACK
6
CONTINUOUS
10
187.055
20
-131.293
11
187.181
21
-131.641
0
LINE
8
BLACK
6
CONTINUOUS
10
187.181
20
-131.641
11
187.181
21
-132.011
0
LINE
8
BLACK
6
CONTINUOUS
10
187.181
20
-132.011
11
187.055
21
-132.359
0
LINE
8
BLACK
6
CONTINUOUS
10
187.055
20
-132.359
11
186.817
21
-132.643
0
LINE
8
BLACK
6
CONTINUOUS
10
186.817
20
-132.643
11
186.496
21
-132.828
0
LINE
8
BLACK
6
CONTINUOUS
10
186.496
20
-132.828
11
186.223
21
-132.876
0
LINE
8
BLACK
6
CONTINUOUS
10
186.223
20
-132.876
11
186.039
21
-132.876
0
LINE
8
BLACK
6
CONTINUOUS
10
186.039
20
-132.876
11
185.767
21
-132.828
0
LINE
8
BLACK
6
CONTINUOUS
10
185.767
20
-132.828
11
185.446
21
-132.643
0
LINE
8
BLACK
6
CONTINUOUS
10
185.446
20
-132.643
11
185.208
21
-132.359
0
LINE
8
BLACK
6
CONTINUOUS
10
185.208
20
-132.359
11
185.081
21
-132.011
0
LINE
8
BLACK
6
CONTINUOUS
10
185.081
20
-132.011
11
185.081
21
-131.641
0
LINE
8
BLACK
6
CONTINUOUS
10
185.081
20
-131.641
11
185.208
21
-131.293
0
LINE
8
BLACK
6
CONTINUOUS
10
185.208
20
-131.293
11
185.446
21
-131.009
0
LINE
8
BLACK
6
CONTINUOUS
10
185.446
20
-131.009
11
185.767
21
-130.824
0
LINE
8
BLACK
6
CONTINUOUS
10
185.767
20
-130.824
11
186.039
21
-130.776
0
LINE
8
BLACK
6
CONTINUOUS
10
186.039
20
-130.776
11
186.223
21
-130.776
0
LINE
8
BLACK
6
CONTINUOUS
10
186.223
20
-130.776
11
186.496
21
-130.824
0
LINE
8
BLACK
6
CONTINUOUS
10
189.036
20
-130.824
11
189.357
21
-131.009
0
LINE
8
BLACK
6
CONTINUOUS
10
189.357
20
-131.009
11
189.595
21
-131.293
0
LINE
8
BLACK
6
CONTINUOUS
10
189.595
20
-131.293
11
189.721
21
-131.641
0
LINE
8
BLACK
6
CONTINUOUS
10
189.721
20
-131.641
11
189.721
21
-132.011
0
LINE
8
BLACK
6
CONTINUOUS
10
189.721
20
-132.011
11
189.595
21
-132.359
0
LINE
8
BLACK
6
CONTINUOUS
10
189.595
20
-132.359
11
189.357
21
-132.643
0
LINE
8
BLACK
6
CONTINUOUS
10
189.357
20
-132.643
11
189.036
21
-132.828
0
LINE
8
BLACK
6
CONTINUOUS
10
189.036
20
-132.828
11
188.763
21
-132.876
0
LINE
8
BLACK
6
CONTINUOUS
10
188.763
20
-132.876
11
188.579
21
-132.876
0
LINE
8
BLACK
6
CONTINUOUS
10
188.579
20
-132.876
11
188.307
21
-132.828
0
LINE
8
BLACK
6
CONTINUOUS
10
188.307
20
-132.828
11
187.986
21
-132.643
0
LINE
8
BLACK
6
CONTINUOUS
10
187.986
20
-132.643
11
187.748
21
-132.359
0
LINE
8
BLACK
6
CONTINUOUS
10
187.748
20
-132.359
11
187.621
21
-132.011
0
LINE
8
BLACK
6
CONTINUOUS
10
187.621
20
-132.011
11
187.621
21
-131.641
0
LINE
8
BLACK
6
CONTINUOUS
10
187.621
20
-131.641
11
187.748
21
-131.293
0
LINE
8
BLACK
6
CONTINUOUS
10
187.748
20
-131.293
11
187.986
21
-131.009
0
LINE
8
BLACK
6
CONTINUOUS
10
187.986
20
-131.009
11
188.307
21
-130.824
0
LINE
8
BLACK
6
CONTINUOUS
10
188.307
20
-130.824
11
188.579
21
-130.776
0
LINE
8
BLACK
6
CONTINUOUS
10
188.579
20
-130.776
11
188.763
21
-130.776
0
LINE
8
BLACK
6
CONTINUOUS
10
188.763
20
-130.776
11
189.036
21
-130.824
0
LINE
8
BLACK
6
CONTINUOUS
10
164.957
20
-130.773
11
165.277
21
-130.958
0
LINE
8
BLACK
6
CONTINUOUS
10
165.277
20
-130.958
11
165.515
21
-131.242
0
LINE
8
BLACK
6
CONTINUOUS
10
165.515
20
-131.242
11
165.642
21
-131.59
0
LINE
8
BLACK
6
CONTINUOUS
10
165.642
20
-131.59
11
165.642
21
-131.96
0
LINE
8
BLACK
6
CONTINUOUS
10
165.642
20
-131.96
11
165.515
21
-132.308
0
LINE
8
BLACK
6
CONTINUOUS
10
165.515
20
-132.308
11
165.277
21
-132.592
0
LINE
8
BLACK
6
CONTINUOUS
10
165.277
20
-132.592
11
164.957
21
-132.777
0
LINE
8
BLACK
6
CONTINUOUS
10
164.957
20
-132.777
11
164.684
21
-132.825
0
LINE
8
BLACK
6
CONTINUOUS
10
164.684
20
-132.825
11
164.5
21
-132.825
0
LINE
8
BLACK
6
CONTINUOUS
10
164.5
20
-132.825
11
164.227
21
-132.777
0
LINE
8
BLACK
6
CONTINUOUS
10
164.227
20
-132.777
11
163.907
21
-132.592
0
LINE
8
BLACK
6
CONTINUOUS
10
163.907
20
-132.592
11
163.669
21
-132.308
0
LINE
8
BLACK
6
CONTINUOUS
10
163.669
20
-132.308
11
163.542
21
-131.96
0
LINE
8
BLACK
6
CONTINUOUS
10
163.542
20
-131.96
11
163.542
21
-131.59
0
LINE
8
BLACK
6
CONTINUOUS
10
163.542
20
-131.59
11
163.669
21
-131.242
0
LINE
8
BLACK
6
CONTINUOUS
10
163.669
20
-131.242
11
163.907
21
-130.958
0
LINE
8
BLACK
6
CONTINUOUS
10
163.907
20
-130.958
11
164.227
21
-130.773
0
LINE
8
BLACK
6
CONTINUOUS
10
164.227
20
-130.773
11
164.5
21
-130.725
0
LINE
8
BLACK
6
CONTINUOUS
10
164.5
20
-130.725
11
164.684
21
-130.725
0
LINE
8
BLACK
6
CONTINUOUS
10
164.684
20
-130.725
11
164.957
21
-130.773
0
LINE
8
BLACK
6
CONTINUOUS
10
160.562
20
-132.825
11
158.462
21
-132.825
0
LINE
8
BLACK
6
CONTINUOUS
10
158.462
20
-132.825
11
158.462
21
-130.725
0
LINE
8
BLACK
6
CONTINUOUS
10
158.462
20
-130.725
11
160.562
21
-130.725
0
LINE
8
BLACK
6
CONTINUOUS
10
160.562
20
-130.725
11
160.562
21
-132.825
0
LINE
8
BLACK
6
CONTINUOUS
10
162.417
20
-130.773
11
162.737
21
-130.958
0
LINE
8
BLACK
6
CONTINUOUS
10
162.737
20
-130.958
11
162.975
21
-131.242
0
LINE
8
BLACK
6
CONTINUOUS
10
162.975
20
-131.242
11
163.102
21
-131.59
0
LINE
8
BLACK
6
CONTINUOUS
10
163.102
20
-131.59
11
163.102
21
-131.96
0
LINE
8
BLACK
6
CONTINUOUS
10
163.102
20
-131.96
11
162.975
21
-132.308
0
LINE
8
BLACK
6
CONTINUOUS
10
162.975
20
-132.308
11
162.737
21
-132.592
0
LINE
8
BLACK
6
CONTINUOUS
10
162.737
20
-132.592
11
162.417
21
-132.777
0
LINE
8
BLACK
6
CONTINUOUS
10
162.417
20
-132.777
11
162.144
21
-132.825
0
LINE
8
BLACK
6
CONTINUOUS
10
162.144
20
-132.825
11
161.96
21
-132.825
0
LINE
8
BLACK
6
CONTINUOUS
10
161.96
20
-132.825
11
161.687
21
-132.777
0
LINE
8
BLACK
6
CONTINUOUS
10
161.687
20
-132.777
11
161.367
21
-132.592
0
LINE
8
BLACK
6
CONTINUOUS
10
161.367
20
-132.592
11
161.129
21
-132.308
0
LINE
8
BLACK
6
CONTINUOUS
10
161.129
20
-132.308
11
161.002
21
-131.96
0
LINE
8
BLACK
6
CONTINUOUS
10
161.002
20
-131.96
11
161.002
21
-131.59
0
LINE
8
BLACK
6
CONTINUOUS
10
161.002
20
-131.59
11
161.129
21
-131.242
0
LINE
8
BLACK
6
CONTINUOUS
10
161.129
20
-131.242
11
161.367
21
-130.958
0
LINE
8
BLACK
6
CONTINUOUS
10
161.367
20
-130.958
11
161.687
21
-130.773
0
LINE
8
BLACK
6
CONTINUOUS
10
161.687
20
-130.773
11
161.96
21
-130.725
0
LINE
8
BLACK
6
CONTINUOUS
10
161.96
20
-130.725
11
162.144
21
-130.725
0
LINE
8
BLACK
6
CONTINUOUS
10
162.144
20
-130.725
11
162.417
21
-130.773
0
LINE
8
BLACK
6
CONTINUOUS
10
167.497
20
-130.773
11
167.817
21
-130.958
0
LINE
8
BLACK
6
CONTINUOUS
10
167.817
20
-130.958
11
168.055
21
-131.242
0
LINE
8
BLACK
6
CONTINUOUS
10
168.055
20
-131.242
11
168.182
21
-131.59
0
LINE
8
BLACK
6
CONTINUOUS
10
168.182
20
-131.59
11
168.182
21
-131.96
0
LINE
8
BLACK
6
CONTINUOUS
10
168.182
20
-131.96
11
168.055
21
-132.308
0
LINE
8
BLACK
6
CONTINUOUS
10
168.055
20
-132.308
11
167.817
21
-132.592
0
LINE
8
BLACK
6
CONTINUOUS
10
167.817
20
-132.592
11
167.497
21
-132.777
0
LINE
8
BLACK
6
CONTINUOUS
10
167.497
20
-132.777
11
167.224
21
-132.825
0
LINE
8
BLACK
6
CONTINUOUS
10
167.224
20
-132.825
11
167.04
21
-132.825
0
LINE
8
BLACK
6
CONTINUOUS
10
167.04
20
-132.825
11
166.767
21
-132.777
0
LINE
8
BLACK
6
CONTINUOUS
10
166.767
20
-132.777
11
166.447
21
-132.592
0
LINE
8
BLACK
6
CONTINUOUS
10
166.447
20
-132.592
11
166.209
21
-132.308
0
LINE
8
BLACK
6
CONTINUOUS
10
166.209
20
-132.308
11
166.082
21
-131.96
0
LINE
8
BLACK
6
CONTINUOUS
10
166.082
20
-131.96
11
166.082
21
-131.59
0
LINE
8
BLACK
6
CONTINUOUS
10
166.082
20
-131.59
11
166.209
21
-131.242
0
LINE
8
BLACK
6
CONTINUOUS
10
166.209
20
-131.242
11
166.447
21
-130.958
0
LINE
8
BLACK
6
CONTINUOUS
10
166.447
20
-130.958
11
166.767
21
-130.773
0
LINE
8
BLACK
6
CONTINUOUS
10
166.767
20
-130.773
11
167.04
21
-130.725
0
LINE
8
BLACK
6
CONTINUOUS
10
167.04
20
-130.725
11
167.224
21
-130.725
0
LINE
8
BLACK
6
CONTINUOUS
10
167.224
20
-130.725
11
167.497
21
-130.773
0
LINE
8
BLACK
6
CONTINUOUS
10
130.514
20
-130.367
11
130.835
21
-130.552
0
LINE
8
BLACK
6
CONTINUOUS
10
130.835
20
-130.552
11
131.073
21
-130.836
0
LINE
8
BLACK
6
CONTINUOUS
10
131.073
20
-130.836
11
131.2
21
-131.184
0
LINE
8
BLACK
6
CONTINUOUS
10
131.2
20
-131.184
11
131.2
21
-131.554
0
LINE
8
BLACK
6
CONTINUOUS
10
131.2
20
-131.554
11
131.073
21
-131.902
0
LINE
8
BLACK
6
CONTINUOUS
10
131.073
20
-131.902
11
130.835
21
-132.186
0
LINE
8
BLACK
6
CONTINUOUS
10
130.835
20
-132.186
11
130.514
21
-132.371
0
LINE
8
BLACK
6
CONTINUOUS
10
130.514
20
-132.371
11
130.241
21
-132.419
0
LINE
8
BLACK
6
CONTINUOUS
10
130.241
20
-132.419
11
130.058
21
-132.419
0
LINE
8
BLACK
6
CONTINUOUS
10
130.058
20
-132.419
11
129.785
21
-132.371
0
LINE
8
BLACK
6
CONTINUOUS
10
129.785
20
-132.371
11
129.464
21
-132.186
0
LINE
8
BLACK
6
CONTINUOUS
10
129.464
20
-132.186
11
129.226
21
-131.902
0
LINE
8
BLACK
6
CONTINUOUS
10
129.226
20
-131.902
11
129.1
21
-131.554
0
LINE
8
BLACK
6
CONTINUOUS
10
129.1
20
-131.554
11
129.1
21
-131.184
0
LINE
8
BLACK
6
CONTINUOUS
10
129.1
20
-131.184
11
129.226
21
-130.836
0
LINE
8
BLACK
6
CONTINUOUS
10
129.226
20
-130.836
11
129.464
21
-130.552
0
LINE
8
BLACK
6
CONTINUOUS
10
129.464
20
-130.552
11
129.785
21
-130.367
0
LINE
8
BLACK
6
CONTINUOUS
10
129.785
20
-130.367
11
130.058
21
-130.319
0
LINE
8
BLACK
6
CONTINUOUS
10
130.058
20
-130.319
11
130.241
21
-130.319
0
LINE
8
BLACK
6
CONTINUOUS
10
130.241
20
-130.319
11
130.514
21
-130.367
0
LINE
8
BLACK
6
CONTINUOUS
10
118.246
20
-131.274
11
116.146
21
-131.274
0
LINE
8
BLACK
6
CONTINUOUS
10
116.146
20
-131.274
11
116.146
21
-128.924
0
LINE
8
BLACK
6
CONTINUOUS
10
116.146
20
-128.924
11
118.246
21
-128.924
0
LINE
8
BLACK
6
CONTINUOUS
10
118.246
20
-128.924
11
118.246
21
-131.274
0
LINE
8
BLACK
6
CONTINUOUS
10
120.229
20
-129.05
11
120.512
21
-129.288
0
LINE
8
BLACK
6
CONTINUOUS
10
120.512
20
-129.288
11
120.697
21
-129.609
0
LINE
8
BLACK
6
CONTINUOUS
10
120.697
20
-129.609
11
120.746
21
-129.882
0
LINE
8
BLACK
6
CONTINUOUS
10
120.746
20
-129.882
11
120.746
21
-130.316
0
LINE
8
BLACK
6
CONTINUOUS
10
120.746
20
-130.316
11
120.697
21
-130.588
0
LINE
8
BLACK
6
CONTINUOUS
10
120.697
20
-130.588
11
120.512
21
-130.909
0
LINE
8
BLACK
6
CONTINUOUS
10
120.512
20
-130.909
11
120.229
21
-131.147
0
LINE
8
BLACK
6
CONTINUOUS
10
120.229
20
-131.147
11
119.881
21
-131.274
0
LINE
8
BLACK
6
CONTINUOUS
10
119.881
20
-131.274
11
119.51
21
-131.274
0
LINE
8
BLACK
6
CONTINUOUS
10
119.51
20
-131.274
11
119.163
21
-131.147
0
LINE
8
BLACK
6
CONTINUOUS
10
119.163
20
-131.147
11
118.879
21
-130.909
0
LINE
8
BLACK
6
CONTINUOUS
10
118.879
20
-130.909
11
118.694
21
-130.588
0
LINE
8
BLACK
6
CONTINUOUS
10
118.694
20
-130.588
11
118.646
21
-130.316
0
LINE
8
BLACK
6
CONTINUOUS
10
118.646
20
-130.316
11
118.646
21
-129.882
0
LINE
8
BLACK
6
CONTINUOUS
10
118.646
20
-129.882
11
118.694
21
-129.609
0
LINE
8
BLACK
6
CONTINUOUS
10
118.694
20
-129.609
11
118.879
21
-129.288
0
LINE
8
BLACK
6
CONTINUOUS
10
118.879
20
-129.288
11
119.163
21
-129.05
0
LINE
8
BLACK
6
CONTINUOUS
10
119.163
20
-129.05
11
119.51
21
-128.924
0
LINE
8
BLACK
6
CONTINUOUS
10
119.51
20
-128.924
11
119.881
21
-128.924
0
LINE
8
BLACK
6
CONTINUOUS
10
119.881
20
-128.924
11
120.229
21
-129.05
0
LINE
8
BLACK
6
CONTINUOUS
10
122.729
20
-129.05
11
123.012
21
-129.288
0
LINE
8
BLACK
6
CONTINUOUS
10
123.012
20
-129.288
11
123.197
21
-129.609
0
LINE
8
BLACK
6
CONTINUOUS
10
123.197
20
-129.609
11
123.246
21
-129.882
0
LINE
8
BLACK
6
CONTINUOUS
10
123.246
20
-129.882
11
123.246
21
-130.316
0
LINE
8
BLACK
6
CONTINUOUS
10
123.246
20
-130.316
11
123.197
21
-130.588
0
LINE
8
BLACK
6
CONTINUOUS
10
123.197
20
-130.588
11
123.012
21
-130.909
0
LINE
8
BLACK
6
CONTINUOUS
10
123.012
20
-130.909
11
122.729
21
-131.147
0
LINE
8
BLACK
6
CONTINUOUS
10
122.729
20
-131.147
11
122.381
21
-131.274
0
LINE
8
BLACK
6
CONTINUOUS
10
122.381
20
-131.274
11
122.01
21
-131.274
0
LINE
8
BLACK
6
CONTINUOUS
10
122.01
20
-131.274
11
121.663
21
-131.147
0
LINE
8
BLACK
6
CONTINUOUS
10
121.663
20
-131.147
11
121.379
21
-130.909
0
LINE
8
BLACK
6
CONTINUOUS
10
121.379
20
-130.909
11
121.194
21
-130.588
0
LINE
8
BLACK
6
CONTINUOUS
10
121.194
20
-130.588
11
121.146
21
-130.316
0
LINE
8
BLACK
6
CONTINUOUS
10
121.146
20
-130.316
11
121.146
21
-129.882
0
LINE
8
BLACK
6
CONTINUOUS
10
121.146
20
-129.882
11
121.194
21
-129.609
0
LINE
8
BLACK
6
CONTINUOUS
10
121.194
20
-129.609
11
121.379
21
-129.288
0
LINE
8
BLACK
6
CONTINUOUS
10
121.379
20
-129.288
11
121.663
21
-129.05
0
LINE
8
BLACK
6
CONTINUOUS
10
121.663
20
-129.05
11
122.01
21
-128.924
0
LINE
8
BLACK
6
CONTINUOUS
10
122.01
20
-128.924
11
122.381
21
-128.924
0
LINE
8
BLACK
6
CONTINUOUS
10
122.381
20
-128.924
11
122.729
21
-129.05
0
LINE
8
BLACK
6
CONTINUOUS
10
125.229
20
-129.05
11
125.512
21
-129.288
0
LINE
8
BLACK
6
CONTINUOUS
10
125.512
20
-129.288
11
125.697
21
-129.609
0
LINE
8
BLACK
6
CONTINUOUS
10
125.697
20
-129.609
11
125.746
21
-129.882
0
LINE
8
BLACK
6
CONTINUOUS
10
125.746
20
-129.882
11
125.746
21
-130.316
0
LINE
8
BLACK
6
CONTINUOUS
10
125.746
20
-130.316
11
125.697
21
-130.588
0
LINE
8
BLACK
6
CONTINUOUS
10
125.697
20
-130.588
11
125.512
21
-130.909
0
LINE
8
BLACK
6
CONTINUOUS
10
125.512
20
-130.909
11
125.229
21
-131.147
0
LINE
8
BLACK
6
CONTINUOUS
10
125.229
20
-131.147
11
124.881
21
-131.274
0
LINE
8
BLACK
6
CONTINUOUS
10
124.881
20
-131.274
11
124.51
21
-131.274
0
LINE
8
BLACK
6
CONTINUOUS
10
124.51
20
-131.274
11
124.163
21
-131.147
0
LINE
8
BLACK
6
CONTINUOUS
10
124.163
20
-131.147
11
123.879
21
-130.909
0
LINE
8
BLACK
6
CONTINUOUS
10
123.879
20
-130.909
11
123.694
21
-130.588
0
LINE
8
BLACK
6
CONTINUOUS
10
123.694
20
-130.588
11
123.646
21
-130.316
0
LINE
8
BLACK
6
CONTINUOUS
10
123.646
20
-130.316
11
123.646
21
-129.882
0
LINE
8
BLACK
6
CONTINUOUS
10
123.646
20
-129.882
11
123.694
21
-129.609
0
LINE
8
BLACK
6
CONTINUOUS
10
123.694
20
-129.609
11
123.879
21
-129.288
0
LINE
8
BLACK
6
CONTINUOUS
10
123.879
20
-129.288
11
124.163
21
-129.05
0
LINE
8
BLACK
6
CONTINUOUS
10
124.163
20
-129.05
11
124.51
21
-128.924
0
LINE
8
BLACK
6
CONTINUOUS
10
124.51
20
-128.924
11
124.881
21
-128.924
0
LINE
8
BLACK
6
CONTINUOUS
10
124.881
20
-128.924
11
125.229
21
-129.05
0
LINE
8
BLACK
6
CONTINUOUS
10
101.784
20
-127.308
11
102.303
21
-127.608
0
LINE
8
BLACK
6
CONTINUOUS
10
102.303
20
-127.608
11
102.688
21
-128.067
0
LINE
8
BLACK
6
CONTINUOUS
10
102.688
20
-128.067
11
102.893
21
-128.631
0
LINE
8
BLACK
6
CONTINUOUS
10
102.893
20
-128.631
11
102.893
21
-129.23
0
LINE
8
BLACK
6
CONTINUOUS
10
102.893
20
-129.23
11
102.688
21
-129.793
0
LINE
8
BLACK
6
CONTINUOUS
10
102.688
20
-129.793
11
102.303
21
-130.253
0
LINE
8
BLACK
6
CONTINUOUS
10
102.303
20
-130.253
11
101.784
21
-130.552
0
LINE
8
BLACK
6
CONTINUOUS
10
101.784
20
-130.552
11
101.194
21
-130.656
0
LINE
8
BLACK
6
CONTINUOUS
10
101.194
20
-130.656
11
100.603
21
-130.552
0
LINE
8
BLACK
6
CONTINUOUS
10
100.603
20
-130.552
11
100.084
21
-130.253
0
LINE
8
BLACK
6
CONTINUOUS
10
100.084
20
-130.253
11
99.6988
21
-129.793
0
LINE
8
BLACK
6
CONTINUOUS
10
99.6988
20
-129.793
11
99.4937
21
-129.23
0
LINE
8
BLACK
6
CONTINUOUS
10
99.4937
20
-129.23
11
99.4937
21
-128.631
0
LINE
8
BLACK
6
CONTINUOUS
10
99.4937
20
-128.631
11
99.6988
21
-128.067
0
LINE
8
BLACK
6
CONTINUOUS
10
99.6988
20
-128.067
11
100.084
21
-127.608
0
LINE
8
BLACK
6
CONTINUOUS
10
100.084
20
-127.608
11
100.603
21
-127.308
0
LINE
8
BLACK
6
CONTINUOUS
10
100.603
20
-127.308
11
101.194
21
-127.204
0
LINE
8
BLACK
6
CONTINUOUS
10
101.194
20
-127.204
11
101.784
21
-127.308
0
LINE
8
BLACK
6
CONTINUOUS
10
97.8135
20
-130.63
11
94.4137
21
-130.63
0
LINE
8
BLACK
6
CONTINUOUS
10
94.4137
20
-130.63
11
94.4137
21
-127.231
0
LINE
8
BLACK
6
CONTINUOUS
10
94.4137
20
-127.231
11
97.8135
21
-127.231
0
LINE
8
BLACK
6
CONTINUOUS
10
97.8135
20
-127.231
11
97.8135
21
-130.63
0
LINE
8
BLACK
6
CONTINUOUS
10
130.514
20
-127.827
11
130.835
21
-128.012
0
LINE
8
BLACK
6
CONTINUOUS
10
130.835
20
-128.012
11
131.073
21
-128.296
0
LINE
8
BLACK
6
CONTINUOUS
10
131.073
20
-128.296
11
131.2
21
-128.644
0
LINE
8
BLACK
6
CONTINUOUS
10
131.2
20
-128.644
11
131.2
21
-129.014
0
LINE
8
BLACK
6
CONTINUOUS
10
131.2
20
-129.014
11
131.073
21
-129.362
0
LINE
8
BLACK
6
CONTINUOUS
10
131.073
20
-129.362
11
130.835
21
-129.646
0
LINE
8
BLACK
6
CONTINUOUS
10
130.835
20
-129.646
11
130.514
21
-129.831
0
LINE
8
BLACK
6
CONTINUOUS
10
130.514
20
-129.831
11
130.241
21
-129.879
0
LINE
8
BLACK
6
CONTINUOUS
10
130.241
20
-129.879
11
130.058
21
-129.879
0
LINE
8
BLACK
6
CONTINUOUS
10
130.058
20
-129.879
11
129.785
21
-129.831
0
LINE
8
BLACK
6
CONTINUOUS
10
129.785
20
-129.831
11
129.464
21
-129.646
0
LINE
8
BLACK
6
CONTINUOUS
10
129.464
20
-129.646
11
129.226
21
-129.362
0
LINE
8
BLACK
6
CONTINUOUS
10
129.226
20
-129.362
11
129.1
21
-129.014
0
LINE
8
BLACK
6
CONTINUOUS
10
129.1
20
-129.014
11
129.1
21
-128.644
0
LINE
8
BLACK
6
CONTINUOUS
10
129.1
20
-128.644
11
129.226
21
-128.296
0
LINE
8
BLACK
6
CONTINUOUS
10
129.226
20
-128.296
11
129.464
21
-128.012
0
LINE
8
BLACK
6
CONTINUOUS
10
129.464
20
-128.012
11
129.785
21
-127.827
0
LINE
8
BLACK
6
CONTINUOUS
10
129.785
20
-127.827
11
130.058
21
-127.779
0
LINE
8
BLACK
6
CONTINUOUS
10
130.058
20
-127.779
11
130.241
21
-127.779
0
LINE
8
BLACK
6
CONTINUOUS
10
130.241
20
-127.779
11
130.514
21
-127.827
0
LINE
8
BLACK
6
CONTINUOUS
10
130.514
20
-125.287
11
130.835
21
-125.472
0
LINE
8
BLACK
6
CONTINUOUS
10
130.835
20
-125.472
11
131.073
21
-125.756
0
LINE
8
BLACK
6
CONTINUOUS
10
131.073
20
-125.756
11
131.2
21
-126.104
0
LINE
8
BLACK
6
CONTINUOUS
10
131.2
20
-126.104
11
131.2
21
-126.474
0
LINE
8
BLACK
6
CONTINUOUS
10
131.2
20
-126.474
11
131.073
21
-126.822
0
LINE
8
BLACK
6
CONTINUOUS
10
131.073
20
-126.822
11
130.835
21
-127.106
0
LINE
8
BLACK
6
CONTINUOUS
10
130.835
20
-127.106
11
130.514
21
-127.291
0
LINE
8
BLACK
6
CONTINUOUS
10
130.514
20
-127.291
11
130.241
21
-127.339
0
LINE
8
BLACK
6
CONTINUOUS
10
130.241
20
-127.339
11
130.058
21
-127.339
0
LINE
8
BLACK
6
CONTINUOUS
10
130.058
20
-127.339
11
129.785
21
-127.291
0
LINE
8
BLACK
6
CONTINUOUS
10
129.785
20
-127.291
11
129.464
21
-127.106
0
LINE
8
BLACK
6
CONTINUOUS
10
129.464
20
-127.106
11
129.226
21
-126.822
0
LINE
8
BLACK
6
CONTINUOUS
10
129.226
20
-126.822
11
129.1
21
-126.474
0
LINE
8
BLACK
6
CONTINUOUS
10
129.1
20
-126.474
11
129.1
21
-126.104
0
LINE
8
BLACK
6
CONTINUOUS
10
129.1
20
-126.104
11
129.226
21
-125.756
0
LINE
8
BLACK
6
CONTINUOUS
10
129.226
20
-125.756
11
129.464
21
-125.472
0
LINE
8
BLACK
6
CONTINUOUS
10
129.464
20
-125.472
11
129.785
21
-125.287
0
LINE
8
BLACK
6
CONTINUOUS
10
129.785
20
-125.287
11
130.058
21
-125.239
0
LINE
8
BLACK
6
CONTINUOUS
10
130.058
20
-125.239
11
130.241
21
-125.239
0
LINE
8
BLACK
6
CONTINUOUS
10
130.241
20
-125.239
11
130.514
21
-125.287
0
LINE
8
BLACK
6
CONTINUOUS
10
155.101
20
-123.814
11
155.422
21
-123.999
0
LINE
8
BLACK
6
CONTINUOUS
10
155.422
20
-123.999
11
155.66
21
-124.283
0
LINE
8
BLACK
6
CONTINUOUS
10
155.66
20
-124.283
11
155.787
21
-124.63
0
LINE
8
BLACK
6
CONTINUOUS
10
155.787
20
-124.63
11
155.787
21
-125.001
0
LINE
8
BLACK
6
CONTINUOUS
10
155.787
20
-125.001
11
155.66
21
-125.349
0
LINE
8
BLACK
6
CONTINUOUS
10
155.66
20
-125.349
11
155.422
21
-125.632
0
LINE
8
BLACK
6
CONTINUOUS
10
155.422
20
-125.632
11
155.101
21
-125.817
0
LINE
8
BLACK
6
CONTINUOUS
10
155.101
20
-125.817
11
154.829
21
-125.866
0
LINE
8
BLACK
6
CONTINUOUS
10
154.829
20
-125.866
11
154.645
21
-125.866
0
LINE
8
BLACK
6
CONTINUOUS
10
154.645
20
-125.866
11
154.372
21
-125.817
0
LINE
8
BLACK
6
CONTINUOUS
10
154.372
20
-125.817
11
154.051
21
-125.632
0
LINE
8
BLACK
6
CONTINUOUS
10
154.051
20
-125.632
11
153.813
21
-125.349
0
LINE
8
BLACK
6
CONTINUOUS
10
153.813
20
-125.349
11
153.687
21
-125.001
0
LINE
8
BLACK
6
CONTINUOUS
10
153.687
20
-125.001
11
153.687
21
-124.63
0
LINE
8
BLACK
6
CONTINUOUS
10
153.687
20
-124.63
11
153.813
21
-124.283
0
LINE
8
BLACK
6
CONTINUOUS
10
153.813
20
-124.283
11
154.051
21
-123.999
0
LINE
8
BLACK
6
CONTINUOUS
10
154.051
20
-123.999
11
154.372
21
-123.814
0
LINE
8
BLACK
6
CONTINUOUS
10
154.372
20
-123.814
11
154.645
21
-123.766
0
LINE
8
BLACK
6
CONTINUOUS
10
154.645
20
-123.766
11
154.829
21
-123.766
0
LINE
8
BLACK
6
CONTINUOUS
10
154.829
20
-123.766
11
155.101
21
-123.814
0
LINE
8
BLACK
6
CONTINUOUS
10
153.247
20
-125.866
11
151.147
21
-125.866
0
LINE
8
BLACK
6
CONTINUOUS
10
151.147
20
-125.866
11
151.147
21
-123.766
0
LINE
8
BLACK
6
CONTINUOUS
10
151.147
20
-123.766
11
153.247
21
-123.766
0
LINE
8
BLACK
6
CONTINUOUS
10
153.247
20
-123.766
11
153.247
21
-125.866
0
LINE
8
BLACK
6
CONTINUOUS
10
180.484
20
-123.861
11
180.79
21
-124.038
0
LINE
8
BLACK
6
CONTINUOUS
10
180.79
20
-124.038
11
181.016
21
-124.308
0
LINE
8
BLACK
6
CONTINUOUS
10
181.016
20
-124.308
11
181.137
21
-124.639
0
LINE
8
BLACK
6
CONTINUOUS
10
181.137
20
-124.639
11
181.137
21
-124.992
0
LINE
8
BLACK
6
CONTINUOUS
10
181.137
20
-124.992
11
181.016
21
-125.323
0
LINE
8
BLACK
6
CONTINUOUS
10
181.016
20
-125.323
11
180.79
21
-125.593
0
LINE
8
BLACK
6
CONTINUOUS
10
180.79
20
-125.593
11
180.484
21
-125.77
0
LINE
8
BLACK
6
CONTINUOUS
10
180.484
20
-125.77
11
180.224
21
-125.816
0
LINE
8
BLACK
6
CONTINUOUS
10
180.224
20
-125.816
11
180.049
21
-125.816
0
LINE
8
BLACK
6
CONTINUOUS
10
180.049
20
-125.816
11
179.79
21
-125.77
0
LINE
8
BLACK
6
CONTINUOUS
10
179.79
20
-125.77
11
179.484
21
-125.593
0
LINE
8
BLACK
6
CONTINUOUS
10
179.484
20
-125.593
11
179.257
21
-125.323
0
LINE
8
BLACK
6
CONTINUOUS
10
179.257
20
-125.323
11
179.137
21
-124.992
0
LINE
8
BLACK
6
CONTINUOUS
10
179.137
20
-124.992
11
179.137
21
-124.639
0
LINE
8
BLACK
6
CONTINUOUS
10
179.137
20
-124.639
11
179.257
21
-124.308
0
LINE
8
BLACK
6
CONTINUOUS
10
179.257
20
-124.308
11
179.484
21
-124.038
0
LINE
8
BLACK
6
CONTINUOUS
10
179.484
20
-124.038
11
179.79
21
-123.861
0
LINE
8
BLACK
6
CONTINUOUS
10
179.79
20
-123.861
11
180.049
21
-123.816
0
LINE
8
BLACK
6
CONTINUOUS
10
180.049
20
-123.816
11
180.224
21
-123.816
0
LINE
8
BLACK
6
CONTINUOUS
10
180.224
20
-123.816
11
180.484
21
-123.861
0
LINE
8
BLACK
6
CONTINUOUS
10
175.404
20
-123.861
11
175.71
21
-124.038
0
LINE
8
BLACK
6
CONTINUOUS
10
175.71
20
-124.038
11
175.936
21
-124.308
0
LINE
8
BLACK
6
CONTINUOUS
10
175.936
20
-124.308
11
176.057
21
-124.639
0
LINE
8
BLACK
6
CONTINUOUS
10
176.057
20
-124.639
11
176.057
21
-124.992
0
LINE
8
BLACK
6
CONTINUOUS
10
176.057
20
-124.992
11
175.936
21
-125.323
0
LINE
8
BLACK
6
CONTINUOUS
10
175.936
20
-125.323
11
175.71
21
-125.593
0
LINE
8
BLACK
6
CONTINUOUS
10
175.71
20
-125.593
11
175.404
21
-125.77
0
LINE
8
BLACK
6
CONTINUOUS
10
175.404
20
-125.77
11
175.144
21
-125.816
0
LINE
8
BLACK
6
CONTINUOUS
10
175.144
20
-125.816
11
174.969
21
-125.816
0
LINE
8
BLACK
6
CONTINUOUS
10
174.969
20
-125.816
11
174.71
21
-125.77
0
LINE
8
BLACK
6
CONTINUOUS
10
174.71
20
-125.77
11
174.404
21
-125.593
0
LINE
8
BLACK
6
CONTINUOUS
10
174.404
20
-125.593
11
174.177
21
-125.323
0
LINE
8
BLACK
6
CONTINUOUS
10
174.177
20
-125.323
11
174.057
21
-124.992
0
LINE
8
BLACK
6
CONTINUOUS
10
174.057
20
-124.992
11
174.057
21
-124.639
0
LINE
8
BLACK
6
CONTINUOUS
10
174.057
20
-124.639
11
174.177
21
-124.308
0
LINE
8
BLACK
6
CONTINUOUS
10
174.177
20
-124.308
11
174.404
21
-124.038
0
LINE
8
BLACK
6
CONTINUOUS
10
174.404
20
-124.038
11
174.71
21
-123.861
0
LINE
8
BLACK
6
CONTINUOUS
10
174.71
20
-123.861
11
174.969
21
-123.816
0
LINE
8
BLACK
6
CONTINUOUS
10
174.969
20
-123.816
11
175.144
21
-123.816
0
LINE
8
BLACK
6
CONTINUOUS
10
175.144
20
-123.816
11
175.404
21
-123.861
0
LINE
8
BLACK
6
CONTINUOUS
10
177.944
20
-123.861
11
178.25
21
-124.038
0
LINE
8
BLACK
6
CONTINUOUS
10
178.25
20
-124.038
11
178.476
21
-124.308
0
LINE
8
BLACK
6
CONTINUOUS
10
178.476
20
-124.308
11
178.597
21
-124.639
0
LINE
8
BLACK
6
CONTINUOUS
10
178.597
20
-124.639
11
178.597
21
-124.992
0
LINE
8
BLACK
6
CONTINUOUS
10
178.597
20
-124.992
11
178.476
21
-125.323
0
LINE
8
BLACK
6
CONTINUOUS
10
178.476
20
-125.323
11
178.25
21
-125.593
0
LINE
8
BLACK
6
CONTINUOUS
10
178.25
20
-125.593
11
177.944
21
-125.77
0
LINE
8
BLACK
6
CONTINUOUS
10
177.944
20
-125.77
11
177.684
21
-125.816
0
LINE
8
BLACK
6
CONTINUOUS
10
177.684
20
-125.816
11
177.509
21
-125.816
0
LINE
8
BLACK
6
CONTINUOUS
10
177.509
20
-125.816
11
177.25
21
-125.77
0
LINE
8
BLACK
6
CONTINUOUS
10
177.25
20
-125.77
11
176.944
21
-125.593
0
LINE
8
BLACK
6
CONTINUOUS
10
176.944
20
-125.593
11
176.717
21
-125.323
0
LINE
8
BLACK
6
CONTINUOUS
10
176.717
20
-125.323
11
176.597
21
-124.992
0
LINE
8
BLACK
6
CONTINUOUS
10
176.597
20
-124.992
11
176.597
21
-124.639
0
LINE
8
BLACK
6
CONTINUOUS
10
176.597
20
-124.639
11
176.717
21
-124.308
0
LINE
8
BLACK
6
CONTINUOUS
10
176.717
20
-124.308
11
176.944
21
-124.038
0
LINE
8
BLACK
6
CONTINUOUS
10
176.944
20
-124.038
11
177.25
21
-123.861
0
LINE
8
BLACK
6
CONTINUOUS
10
177.25
20
-123.861
11
177.509
21
-123.816
0
LINE
8
BLACK
6
CONTINUOUS
10
177.509
20
-123.816
11
177.684
21
-123.816
0
LINE
8
BLACK
6
CONTINUOUS
10
177.684
20
-123.816
11
177.944
21
-123.861
0
LINE
8
BLACK
6
CONTINUOUS
10
157.624
20
-123.861
11
157.93
21
-124.038
0
LINE
8
BLACK
6
CONTINUOUS
10
157.93
20
-124.038
11
158.156
21
-124.308
0
LINE
8
BLACK
6
CONTINUOUS
10
158.156
20
-124.308
11
158.277
21
-124.639
0
LINE
8
BLACK
6
CONTINUOUS
10
158.277
20
-124.639
11
158.277
21
-124.992
0
LINE
8
BLACK
6
CONTINUOUS
10
158.277
20
-124.992
11
158.156
21
-125.323
0
LINE
8
BLACK
6
CONTINUOUS
10
158.156
20
-125.323
11
157.93
21
-125.593
0
LINE
8
BLACK
6
CONTINUOUS
10
157.93
20
-125.593
11
157.624
21
-125.77
0
LINE
8
BLACK
6
CONTINUOUS
10
157.624
20
-125.77
11
157.364
21
-125.816
0
LINE
8
BLACK
6
CONTINUOUS
10
157.364
20
-125.816
11
157.189
21
-125.816
0
LINE
8
BLACK
6
CONTINUOUS
10
157.189
20
-125.816
11
156.93
21
-125.77
0
LINE
8
BLACK
6
CONTINUOUS
10
156.93
20
-125.77
11
156.624
21
-125.593
0
LINE
8
BLACK
6
CONTINUOUS
10
156.624
20
-125.593
11
156.397
21
-125.323
0
LINE
8
BLACK
6
CONTINUOUS
10
156.397
20
-125.323
11
156.277
21
-124.992
0
LINE
8
BLACK
6
CONTINUOUS
10
156.277
20
-124.992
11
156.277
21
-124.639
0
LINE
8
BLACK
6
CONTINUOUS
10
156.277
20
-124.639
11
156.397
21
-124.308
0
LINE
8
BLACK
6
CONTINUOUS
10
156.397
20
-124.308
11
156.624
21
-124.038
0
LINE
8
BLACK
6
CONTINUOUS
10
156.624
20
-124.038
11
156.93
21
-123.861
0
LINE
8
BLACK
6
CONTINUOUS
10
156.93
20
-123.861
11
157.189
21
-123.816
0
LINE
8
BLACK
6
CONTINUOUS
10
157.189
20
-123.816
11
157.364
21
-123.816
0
LINE
8
BLACK
6
CONTINUOUS
10
157.364
20
-123.816
11
157.624
21
-123.861
0
LINE
8
BLACK
6
CONTINUOUS
10
165.244
20
-123.861
11
165.55
21
-124.038
0
LINE
8
BLACK
6
CONTINUOUS
10
165.55
20
-124.038
11
165.776
21
-124.308
0
LINE
8
BLACK
6
CONTINUOUS
10
165.776
20
-124.308
11
165.897
21
-124.639
0
LINE
8
BLACK
6
CONTINUOUS
10
165.897
20
-124.639
11
165.897
21
-124.992
0
LINE
8
BLACK
6
CONTINUOUS
10
165.897
20
-124.992
11
165.776
21
-125.323
0
LINE
8
BLACK
6
CONTINUOUS
10
165.776
20
-125.323
11
165.55
21
-125.593
0
LINE
8
BLACK
6
CONTINUOUS
10
165.55
20
-125.593
11
165.244
21
-125.77
0
LINE
8
BLACK
6
CONTINUOUS
10
165.244
20
-125.77
11
164.984
21
-125.816
0
LINE
8
BLACK
6
CONTINUOUS
10
164.984
20
-125.816
11
164.809
21
-125.816
0
LINE
8
BLACK
6
CONTINUOUS
10
164.809
20
-125.816
11
164.55
21
-125.77
0
LINE
8
BLACK
6
CONTINUOUS
10
164.55
20
-125.77
11
164.244
21
-125.593
0
LINE
8
BLACK
6
CONTINUOUS
10
164.244
20
-125.593
11
164.017
21
-125.323
0
LINE
8
BLACK
6
CONTINUOUS
10
164.017
20
-125.323
11
163.897
21
-124.992
0
LINE
8
BLACK
6
CONTINUOUS
10
163.897
20
-124.992
11
163.897
21
-124.639
0
LINE
8
BLACK
6
CONTINUOUS
10
163.897
20
-124.639
11
164.017
21
-124.308
0
LINE
8
BLACK
6
CONTINUOUS
10
164.017
20
-124.308
11
164.244
21
-124.038
0
LINE
8
BLACK
6
CONTINUOUS
10
164.244
20
-124.038
11
164.55
21
-123.861
0
LINE
8
BLACK
6
CONTINUOUS
10
164.55
20
-123.861
11
164.809
21
-123.816
0
LINE
8
BLACK
6
CONTINUOUS
10
164.809
20
-123.816
11
164.984
21
-123.816
0
LINE
8
BLACK
6
CONTINUOUS
10
164.984
20
-123.816
11
165.244
21
-123.861
0
LINE
8
BLACK
6
CONTINUOUS
10
160.164
20
-123.861
11
160.47
21
-124.038
0
LINE
8
BLACK
6
CONTINUOUS
10
160.47
20
-124.038
11
160.696
21
-124.308
0
LINE
8
BLACK
6
CONTINUOUS
10
160.696
20
-124.308
11
160.817
21
-124.639
0
LINE
8
BLACK
6
CONTINUOUS
10
160.817
20
-124.639
11
160.817
21
-124.992
0
LINE
8
BLACK
6
CONTINUOUS
10
160.817
20
-124.992
11
160.696
21
-125.323
0
LINE
8
BLACK
6
CONTINUOUS
10
160.696
20
-125.323
11
160.47
21
-125.593
0
LINE
8
BLACK
6
CONTINUOUS
10
160.47
20
-125.593
11
160.164
21
-125.77
0
LINE
8
BLACK
6
CONTINUOUS
10
160.164
20
-125.77
11
159.904
21
-125.816
0
LINE
8
BLACK
6
CONTINUOUS
10
159.904
20
-125.816
11
159.729
21
-125.816
0
LINE
8
BLACK
6
CONTINUOUS
10
159.729
20
-125.816
11
159.47
21
-125.77
0
LINE
8
BLACK
6
CONTINUOUS
10
159.47
20
-125.77
11
159.164
21
-125.593
0
LINE
8
BLACK
6
CONTINUOUS
10
159.164
20
-125.593
11
158.937
21
-125.323
0
LINE
8
BLACK
6
CONTINUOUS
10
158.937
20
-125.323
11
158.817
21
-124.992
0
LINE
8
BLACK
6
CONTINUOUS
10
158.817
20
-124.992
11
158.817
21
-124.639
0
LINE
8
BLACK
6
CONTINUOUS
10
158.817
20
-124.639
11
158.937
21
-124.308
0
LINE
8
BLACK
6
CONTINUOUS
10
158.937
20
-124.308
11
159.164
21
-124.038
0
LINE
8
BLACK
6
CONTINUOUS
10
159.164
20
-124.038
11
159.47
21
-123.861
0
LINE
8
BLACK
6
CONTINUOUS
10
159.47
20
-123.861
11
159.729
21
-123.816
0
LINE
8
BLACK
6
CONTINUOUS
10
159.729
20
-123.816
11
159.904
21
-123.816
0
LINE
8
BLACK
6
CONTINUOUS
10
159.904
20
-123.816
11
160.164
21
-123.861
0
LINE
8
BLACK
6
CONTINUOUS
10
172.864
20
-123.861
11
173.17
21
-124.038
0
LINE
8
BLACK
6
CONTINUOUS
10
173.17
20
-124.038
11
173.396
21
-124.308
0
LINE
8
BLACK
6
CONTINUOUS
10
173.396
20
-124.308
11
173.517
21
-124.639
0
LINE
8
BLACK
6
CONTINUOUS
10
173.517
20
-124.639
11
173.517
21
-124.992
0
LINE
8
BLACK
6
CONTINUOUS
10
173.517
20
-124.992
11
173.396
21
-125.323
0
LINE
8
BLACK
6
CONTINUOUS
10
173.396
20
-125.323
11
173.17
21
-125.593
0
LINE
8
BLACK
6
CONTINUOUS
10
173.17
20
-125.593
11
172.864
21
-125.77
0
LINE
8
BLACK
6
CONTINUOUS
10
172.864
20
-125.77
11
172.604
21
-125.816
0
LINE
8
BLACK
6
CONTINUOUS
10
172.604
20
-125.816
11
172.429
21
-125.816
0
LINE
8
BLACK
6
CONTINUOUS
10
172.429
20
-125.816
11
172.17
21
-125.77
0
LINE
8
BLACK
6
CONTINUOUS
10
172.17
20
-125.77
11
171.864
21
-125.593
0
LINE
8
BLACK
6
CONTINUOUS
10
171.864
20
-125.593
11
171.637
21
-125.323
0
LINE
8
BLACK
6
CONTINUOUS
10
171.637
20
-125.323
11
171.517
21
-124.992
0
LINE
8
BLACK
6
CONTINUOUS
10
171.517
20
-124.992
11
171.517
21
-124.639
0
LINE
8
BLACK
6
CONTINUOUS
10
171.517
20
-124.639
11
171.637
21
-124.308
0
LINE
8
BLACK
6
CONTINUOUS
10
171.637
20
-124.308
11
171.864
21
-124.038
0
LINE
8
BLACK
6
CONTINUOUS
10
171.864
20
-124.038
11
172.17
21
-123.861
0
LINE
8
BLACK
6
CONTINUOUS
10
172.17
20
-123.861
11
172.429
21
-123.816
0
LINE
8
BLACK
6
CONTINUOUS
10
172.429
20
-123.816
11
172.604
21
-123.816
0
LINE
8
BLACK
6
CONTINUOUS
10
172.604
20
-123.816
11
172.864
21
-123.861
0
LINE
8
BLACK
6
CONTINUOUS
10
170.324
20
-123.861
11
170.63
21
-124.038
0
LINE
8
BLACK
6
CONTINUOUS
10
170.63
20
-124.038
11
170.856
21
-124.308
0
LINE
8
BLACK
6
CONTINUOUS
10
170.856
20
-124.308
11
170.977
21
-124.639
0
LINE
8
BLACK
6
CONTINUOUS
10
170.977
20
-124.639
11
170.977
21
-124.992
0
LINE
8
BLACK
6
CONTINUOUS
10
170.977
20
-124.992
11
170.856
21
-125.323
0
LINE
8
BLACK
6
CONTINUOUS
10
170.856
20
-125.323
11
170.63
21
-125.593
0
LINE
8
BLACK
6
CONTINUOUS
10
170.63
20
-125.593
11
170.324
21
-125.77
0
LINE
8
BLACK
6
CONTINUOUS
10
170.324
20
-125.77
11
170.064
21
-125.816
0
LINE
8
BLACK
6
CONTINUOUS
10
170.064
20
-125.816
11
169.889
21
-125.816
0
LINE
8
BLACK
6
CONTINUOUS
10
169.889
20
-125.816
11
169.63
21
-125.77
0
LINE
8
BLACK
6
CONTINUOUS
10
169.63
20
-125.77
11
169.324
21
-125.593
0
LINE
8
BLACK
6
CONTINUOUS
10
169.324
20
-125.593
11
169.097
21
-125.323
0
LINE
8
BLACK
6
CONTINUOUS
10
169.097
20
-125.323
11
168.977
21
-124.992
0
LINE
8
BLACK
6
CONTINUOUS
10
168.977
20
-124.992
11
168.977
21
-124.639
0
LINE
8
BLACK
6
CONTINUOUS
10
168.977
20
-124.639
11
169.097
21
-124.308
0
LINE
8
BLACK
6
CONTINUOUS
10
169.097
20
-124.308
11
169.324
21
-124.038
0
LINE
8
BLACK
6
CONTINUOUS
10
169.324
20
-124.038
11
169.63
21
-123.861
0
LINE
8
BLACK
6
CONTINUOUS
10
169.63
20
-123.861
11
169.889
21
-123.816
0
LINE
8
BLACK
6
CONTINUOUS
10
169.889
20
-123.816
11
170.064
21
-123.816
0
LINE
8
BLACK
6
CONTINUOUS
10
170.064
20
-123.816
11
170.324
21
-123.861
0
LINE
8
BLACK
6
CONTINUOUS
10
162.704
20
-123.861
11
163.01
21
-124.038
0
LINE
8
BLACK
6
CONTINUOUS
10
163.01
20
-124.038
11
163.236
21
-124.308
0
LINE
8
BLACK
6
CONTINUOUS
10
163.236
20
-124.308
11
163.357
21
-124.639
0
LINE
8
BLACK
6
CONTINUOUS
10
163.357
20
-124.639
11
163.357
21
-124.992
0
LINE
8
BLACK
6
CONTINUOUS
10
163.357
20
-124.992
11
163.236
21
-125.323
0
LINE
8
BLACK
6
CONTINUOUS
10
163.236
20
-125.323
11
163.01
21
-125.593
0
LINE
8
BLACK
6
CONTINUOUS
10
163.01
20
-125.593
11
162.704
21
-125.77
0
LINE
8
BLACK
6
CONTINUOUS
10
162.704
20
-125.77
11
162.444
21
-125.816
0
LINE
8
BLACK
6
CONTINUOUS
10
162.444
20
-125.816
11
162.269
21
-125.816
0
LINE
8
BLACK
6
CONTINUOUS
10
162.269
20
-125.816
11
162.01
21
-125.77
0
LINE
8
BLACK
6
CONTINUOUS
10
162.01
20
-125.77
11
161.704
21
-125.593
0
LINE
8
BLACK
6
CONTINUOUS
10
161.704
20
-125.593
11
161.477
21
-125.323
0
LINE
8
BLACK
6
CONTINUOUS
10
161.477
20
-125.323
11
161.357
21
-124.992
0
LINE
8
BLACK
6
CONTINUOUS
10
161.357
20
-124.992
11
161.357
21
-124.639
0
LINE
8
BLACK
6
CONTINUOUS
10
161.357
20
-124.639
11
161.477
21
-124.308
0
LINE
8
BLACK
6
CONTINUOUS
10
161.477
20
-124.308
11
161.704
21
-124.038
0
LINE
8
BLACK
6
CONTINUOUS
10
161.704
20
-124.038
11
162.01
21
-123.861
0
LINE
8
BLACK
6
CONTINUOUS
10
162.01
20
-123.861
11
162.269
21
-123.816
0
LINE
8
BLACK
6
CONTINUOUS
10
162.269
20
-123.816
11
162.444
21
-123.816
0
LINE
8
BLACK
6
CONTINUOUS
10
162.444
20
-123.816
11
162.704
21
-123.861
0
LINE
8
BLACK
6
CONTINUOUS
10
167.784
20
-123.861
11
168.09
21
-124.038
0
LINE
8
BLACK
6
CONTINUOUS
10
168.09
20
-124.038
11
168.316
21
-124.308
0
LINE
8
BLACK
6
CONTINUOUS
10
168.316
20
-124.308
11
168.437
21
-124.639
0
LINE
8
BLACK
6
CONTINUOUS
10
168.437
20
-124.639
11
168.437
21
-124.992
0
LINE
8
BLACK
6
CONTINUOUS
10
168.437
20
-124.992
11
168.316
21
-125.323
0
LINE
8
BLACK
6
CONTINUOUS
10
168.316
20
-125.323
11
168.09
21
-125.593
0
LINE
8
BLACK
6
CONTINUOUS
10
168.09
20
-125.593
11
167.784
21
-125.77
0
LINE
8
BLACK
6
CONTINUOUS
10
167.784
20
-125.77
11
167.524
21
-125.816
0
LINE
8
BLACK
6
CONTINUOUS
10
167.524
20
-125.816
11
167.349
21
-125.816
0
LINE
8
BLACK
6
CONTINUOUS
10
167.349
20
-125.816
11
167.09
21
-125.77
0
LINE
8
BLACK
6
CONTINUOUS
10
167.09
20
-125.77
11
166.784
21
-125.593
0
LINE
8
BLACK
6
CONTINUOUS
10
166.784
20
-125.593
11
166.557
21
-125.323
0
LINE
8
BLACK
6
CONTINUOUS
10
166.557
20
-125.323
11
166.437
21
-124.992
0
LINE
8
BLACK
6
CONTINUOUS
10
166.437
20
-124.992
11
166.437
21
-124.639
0
LINE
8
BLACK
6
CONTINUOUS
10
166.437
20
-124.639
11
166.557
21
-124.308
0
LINE
8
BLACK
6
CONTINUOUS
10
166.557
20
-124.308
11
166.784
21
-124.038
0
LINE
8
BLACK
6
CONTINUOUS
10
166.784
20
-124.038
11
167.09
21
-123.861
0
LINE
8
BLACK
6
CONTINUOUS
10
167.09
20
-123.861
11
167.349
21
-123.816
0
LINE
8
BLACK
6
CONTINUOUS
10
167.349
20
-123.816
11
167.524
21
-123.816
0
LINE
8
BLACK
6
CONTINUOUS
10
167.524
20
-123.816
11
167.784
21
-123.861
0
LINE
8
BLACK
6
CONTINUOUS
10
183.024
20
-123.861
11
183.33
21
-124.038
0
LINE
8
BLACK
6
CONTINUOUS
10
183.33
20
-124.038
11
183.556
21
-124.308
0
LINE
8
BLACK
6
CONTINUOUS
10
183.556
20
-124.308
11
183.677
21
-124.639
0
LINE
8
BLACK
6
CONTINUOUS
10
183.677
20
-124.639
11
183.677
21
-124.992
0
LINE
8
BLACK
6
CONTINUOUS
10
183.677
20
-124.992
11
183.556
21
-125.323
0
LINE
8
BLACK
6
CONTINUOUS
10
183.556
20
-125.323
11
183.33
21
-125.593
0
LINE
8
BLACK
6
CONTINUOUS
10
183.33
20
-125.593
11
183.024
21
-125.77
0
LINE
8
BLACK
6
CONTINUOUS
10
183.024
20
-125.77
11
182.764
21
-125.816
0
LINE
8
BLACK
6
CONTINUOUS
10
182.764
20
-125.816
11
182.589
21
-125.816
0
LINE
8
BLACK
6
CONTINUOUS
10
182.589
20
-125.816
11
182.33
21
-125.77
0
LINE
8
BLACK
6
CONTINUOUS
10
182.33
20
-125.77
11
182.024
21
-125.593
0
LINE
8
BLACK
6
CONTINUOUS
10
182.024
20
-125.593
11
181.797
21
-125.323
0
LINE
8
BLACK
6
CONTINUOUS
10
181.797
20
-125.323
11
181.677
21
-124.992
0
LINE
8
BLACK
6
CONTINUOUS
10
181.677
20
-124.992
11
181.677
21
-124.639
0
LINE
8
BLACK
6
CONTINUOUS
10
181.677
20
-124.639
11
181.797
21
-124.308
0
LINE
8
BLACK
6
CONTINUOUS
10
181.797
20
-124.308
11
182.024
21
-124.038
0
LINE
8
BLACK
6
CONTINUOUS
10
182.024
20
-124.038
11
182.33
21
-123.861
0
LINE
8
BLACK
6
CONTINUOUS
10
182.33
20
-123.861
11
182.589
21
-123.816
0
LINE
8
BLACK
6
CONTINUOUS
10
182.589
20
-123.816
11
182.764
21
-123.816
0
LINE
8
BLACK
6
CONTINUOUS
10
182.764
20
-123.816
11
183.024
21
-123.861
0
LINE
8
BLACK
6
CONTINUOUS
10
185.564
20
-123.861
11
185.87
21
-124.038
0
LINE
8
BLACK
6
CONTINUOUS
10
185.87
20
-124.038
11
186.096
21
-124.308
0
LINE
8
BLACK
6
CONTINUOUS
10
186.096
20
-124.308
11
186.217
21
-124.639
0
LINE
8
BLACK
6
CONTINUOUS
10
186.217
20
-124.639
11
186.217
21
-124.992
0
LINE
8
BLACK
6
CONTINUOUS
10
186.217
20
-124.992
11
186.096
21
-125.323
0
LINE
8
BLACK
6
CONTINUOUS
10
186.096
20
-125.323
11
185.87
21
-125.593
0
LINE
8
BLACK
6
CONTINUOUS
10
185.87
20
-125.593
11
185.564
21
-125.77
0
LINE
8
BLACK
6
CONTINUOUS
10
185.564
20
-125.77
11
185.304
21
-125.816
0
LINE
8
BLACK
6
CONTINUOUS
10
185.304
20
-125.816
11
185.129
21
-125.816
0
LINE
8
BLACK
6
CONTINUOUS
10
185.129
20
-125.816
11
184.87
21
-125.77
0
LINE
8
BLACK
6
CONTINUOUS
10
184.87
20
-125.77
11
184.564
21
-125.593
0
LINE
8
BLACK
6
CONTINUOUS
10
184.564
20
-125.593
11
184.337
21
-125.323
0
LINE
8
BLACK
6
CONTINUOUS
10
184.337
20
-125.323
11
184.217
21
-124.992
0
LINE
8
BLACK
6
CONTINUOUS
10
184.217
20
-124.992
11
184.217
21
-124.639
0
LINE
8
BLACK
6
CONTINUOUS
10
184.217
20
-124.639
11
184.337
21
-124.308
0
LINE
8
BLACK
6
CONTINUOUS
10
184.337
20
-124.308
11
184.564
21
-124.038
0
LINE
8
BLACK
6
CONTINUOUS
10
184.564
20
-124.038
11
184.87
21
-123.861
0
LINE
8
BLACK
6
CONTINUOUS
10
184.87
20
-123.861
11
185.129
21
-123.816
0
LINE
8
BLACK
6
CONTINUOUS
10
185.129
20
-123.816
11
185.304
21
-123.816
0
LINE
8
BLACK
6
CONTINUOUS
10
185.304
20
-123.816
11
185.564
21
-123.861
0
LINE
8
BLACK
6
CONTINUOUS
10
188.104
20
-123.861
11
188.41
21
-124.038
0
LINE
8
BLACK
6
CONTINUOUS
10
188.41
20
-124.038
11
188.636
21
-124.308
0
LINE
8
BLACK
6
CONTINUOUS
10
188.636
20
-124.308
11
188.757
21
-124.639
0
LINE
8
BLACK
6
CONTINUOUS
10
188.757
20
-124.639
11
188.757
21
-124.992
0
LINE
8
BLACK
6
CONTINUOUS
10
188.757
20
-124.992
11
188.636
21
-125.323
0
LINE
8
BLACK
6
CONTINUOUS
10
188.636
20
-125.323
11
188.41
21
-125.593
0
LINE
8
BLACK
6
CONTINUOUS
10
188.41
20
-125.593
11
188.104
21
-125.77
0
LINE
8
BLACK
6
CONTINUOUS
10
188.104
20
-125.77
11
187.844
21
-125.816
0
LINE
8
BLACK
6
CONTINUOUS
10
187.844
20
-125.816
11
187.669
21
-125.816
0
LINE
8
BLACK
6
CONTINUOUS
10
187.669
20
-125.816
11
187.41
21
-125.77
0
LINE
8
BLACK
6
CONTINUOUS
10
187.41
20
-125.77
11
187.104
21
-125.593
0
LINE
8
BLACK
6
CONTINUOUS
10
187.104
20
-125.593
11
186.877
21
-125.323
0
LINE
8
BLACK
6
CONTINUOUS
10
186.877
20
-125.323
11
186.757
21
-124.992
0
LINE
8
BLACK
6
CONTINUOUS
10
186.757
20
-124.992
11
186.757
21
-124.639
0
LINE
8
BLACK
6
CONTINUOUS
10
186.757
20
-124.639
11
186.877
21
-124.308
0
LINE
8
BLACK
6
CONTINUOUS
10
186.877
20
-124.308
11
187.104
21
-124.038
0
LINE
8
BLACK
6
CONTINUOUS
10
187.104
20
-124.038
11
187.41
21
-123.861
0
LINE
8
BLACK
6
CONTINUOUS
10
187.41
20
-123.861
11
187.669
21
-123.816
0
LINE
8
BLACK
6
CONTINUOUS
10
187.669
20
-123.816
11
187.844
21
-123.816
0
LINE
8
BLACK
6
CONTINUOUS
10
187.844
20
-123.816
11
188.104
21
-123.861
0
LINE
8
BLACK
6
CONTINUOUS
10
131.2
20
-124.799
11
129.1
21
-124.799
0
LINE
8
BLACK
6
CONTINUOUS
10
129.1
20
-124.799
11
129.1
21
-122.699
0
LINE
8
BLACK
6
CONTINUOUS
10
129.1
20
-122.699
11
131.2
21
-122.699
0
LINE
8
BLACK
6
CONTINUOUS
10
131.2
20
-122.699
11
131.2
21
-124.799
0
LINE
8
BLACK
6
CONTINUOUS
10
142.978
20
-116.933
11
143.314
21
-117.127
0
LINE
8
BLACK
6
CONTINUOUS
10
143.314
20
-117.127
11
143.563
21
-117.425
0
LINE
8
BLACK
6
CONTINUOUS
10
143.563
20
-117.425
11
143.696
21
-117.789
0
LINE
8
BLACK
6
CONTINUOUS
10
143.696
20
-117.789
11
143.696
21
-118.177
0
LINE
8
BLACK
6
CONTINUOUS
10
143.696
20
-118.177
11
143.563
21
-118.541
0
LINE
8
BLACK
6
CONTINUOUS
10
143.563
20
-118.541
11
143.314
21
-118.839
0
LINE
8
BLACK
6
CONTINUOUS
10
143.314
20
-118.839
11
142.978
21
-119.033
0
LINE
8
BLACK
6
CONTINUOUS
10
142.978
20
-119.033
11
142.596
21
-119.1
0
LINE
8
BLACK
6
CONTINUOUS
10
142.596
20
-119.1
11
142.214
21
-119.033
0
LINE
8
BLACK
6
CONTINUOUS
10
142.214
20
-119.033
11
141.878
21
-118.839
0
LINE
8
BLACK
6
CONTINUOUS
10
141.878
20
-118.839
11
141.628
21
-118.541
0
LINE
8
BLACK
6
CONTINUOUS
10
141.628
20
-118.541
11
141.496
21
-118.177
0
LINE
8
BLACK
6
CONTINUOUS
10
141.496
20
-118.177
11
141.496
21
-117.789
0
LINE
8
BLACK
6
CONTINUOUS
10
141.496
20
-117.789
11
141.628
21
-117.425
0
LINE
8
BLACK
6
CONTINUOUS
10
141.628
20
-117.425
11
141.878
21
-117.127
0
LINE
8
BLACK
6
CONTINUOUS
10
141.878
20
-117.127
11
142.214
21
-116.933
0
LINE
8
BLACK
6
CONTINUOUS
10
142.214
20
-116.933
11
142.596
21
-116.866
0
LINE
8
BLACK
6
CONTINUOUS
10
142.596
20
-116.866
11
142.978
21
-116.933
0
LINE
8
BLACK
6
CONTINUOUS
10
145.213
20
-113.631
11
145.549
21
-113.825
0
LINE
8
BLACK
6
CONTINUOUS
10
145.549
20
-113.825
11
145.798
21
-114.123
0
LINE
8
BLACK
6
CONTINUOUS
10
145.798
20
-114.123
11
145.931
21
-114.487
0
LINE
8
BLACK
6
CONTINUOUS
10
145.931
20
-114.487
11
145.931
21
-114.875
0
LINE
8
BLACK
6
CONTINUOUS
10
145.931
20
-114.875
11
145.798
21
-115.239
0
LINE
8
BLACK
6
CONTINUOUS
10
145.798
20
-115.239
11
145.549
21
-115.537
0
LINE
8
BLACK
6
CONTINUOUS
10
145.549
20
-115.537
11
145.213
21
-115.731
0
LINE
8
BLACK
6
CONTINUOUS
10
145.213
20
-115.731
11
144.831
21
-115.798
0
LINE
8
BLACK
6
CONTINUOUS
10
144.831
20
-115.798
11
144.449
21
-115.731
0
LINE
8
BLACK
6
CONTINUOUS
10
144.449
20
-115.731
11
144.113
21
-115.537
0
LINE
8
BLACK
6
CONTINUOUS
10
144.113
20
-115.537
11
143.863
21
-115.239
0
LINE
8
BLACK
6
CONTINUOUS
10
143.863
20
-115.239
11
143.731
21
-114.875
0
LINE
8
BLACK
6
CONTINUOUS
10
143.731
20
-114.875
11
143.731
21
-114.487
0
LINE
8
BLACK
6
CONTINUOUS
10
143.731
20
-114.487
11
143.863
21
-114.123
0
LINE
8
BLACK
6
CONTINUOUS
10
143.863
20
-114.123
11
144.113
21
-113.825
0
LINE
8
BLACK
6
CONTINUOUS
10
144.113
20
-113.825
11
144.449
21
-113.631
0
LINE
8
BLACK
6
CONTINUOUS
10
144.449
20
-113.631
11
144.831
21
-113.564
0
LINE
8
BLACK
6
CONTINUOUS
10
144.831
20
-113.564
11
145.213
21
-113.631
0
LINE
8
BLACK
6
CONTINUOUS
10
140.234
20
-113.631
11
140.57
21
-113.825
0
LINE
8
BLACK
6
CONTINUOUS
10
140.57
20
-113.825
11
140.82
21
-114.123
0
LINE
8
BLACK
6
CONTINUOUS
10
140.82
20
-114.123
11
140.952
21
-114.487
0
LINE
8
BLACK
6
CONTINUOUS
10
140.952
20
-114.487
11
140.952
21
-114.875
0
LINE
8
BLACK
6
CONTINUOUS
10
140.952
20
-114.875
11
140.82
21
-115.239
0
LINE
8
BLACK
6
CONTINUOUS
10
140.82
20
-115.239
11
140.57
21
-115.537
0
LINE
8
BLACK
6
CONTINUOUS
10
140.57
20
-115.537
11
140.234
21
-115.731
0
LINE
8
BLACK
6
CONTINUOUS
10
140.234
20
-115.731
11
139.852
21
-115.798
0
LINE
8
BLACK
6
CONTINUOUS
10
139.852
20
-115.798
11
139.47
21
-115.731
0
LINE
8
BLACK
6
CONTINUOUS
10
139.47
20
-115.731
11
139.134
21
-115.537
0
LINE
8
BLACK
6
CONTINUOUS
10
139.134
20
-115.537
11
138.885
21
-115.239
0
LINE
8
BLACK
6
CONTINUOUS
10
138.885
20
-115.239
11
138.752
21
-114.875
0
LINE
8
BLACK
6
CONTINUOUS
10
138.752
20
-114.875
11
138.752
21
-114.487
0
LINE
8
BLACK
6
CONTINUOUS
10
138.752
20
-114.487
11
138.885
21
-114.123
0
LINE
8
BLACK
6
CONTINUOUS
10
138.885
20
-114.123
11
139.134
21
-113.825
0
LINE
8
BLACK
6
CONTINUOUS
10
139.134
20
-113.825
11
139.47
21
-113.631
0
LINE
8
BLACK
6
CONTINUOUS
10
139.47
20
-113.631
11
139.852
21
-113.564
0
LINE
8
BLACK
6
CONTINUOUS
10
139.852
20
-113.564
11
140.234
21
-113.631
0
LINE
8
BLACK
6
CONTINUOUS
10
183.024
20
-108.621
11
183.33
21
-108.798
0
LINE
8
BLACK
6
CONTINUOUS
10
183.33
20
-108.798
11
183.556
21
-109.068
0
LINE
8
BLACK
6
CONTINUOUS
10
183.556
20
-109.068
11
183.677
21
-109.399
0
LINE
8
BLACK
6
CONTINUOUS
10
183.677
20
-109.399
11
183.677
21
-109.752
0
LINE
8
BLACK
6
CONTINUOUS
10
183.677
20
-109.752
11
183.556
21
-110.083
0
LINE
8
BLACK
6
CONTINUOUS
10
183.556
20
-110.083
11
183.33
21
-110.353
0
LINE
8
BLACK
6
CONTINUOUS
10
183.33
20
-110.353
11
183.024
21
-110.53
0
LINE
8
BLACK
6
CONTINUOUS
10
183.024
20
-110.53
11
182.764
21
-110.576
0
LINE
8
BLACK
6
CONTINUOUS
10
182.764
20
-110.576
11
182.589
21
-110.576
0
LINE
8
BLACK
6
CONTINUOUS
10
182.589
20
-110.576
11
182.33
21
-110.53
0
LINE
8
BLACK
6
CONTINUOUS
10
182.33
20
-110.53
11
182.024
21
-110.353
0
LINE
8
BLACK
6
CONTINUOUS
10
182.024
20
-110.353
11
181.797
21
-110.083
0
LINE
8
BLACK
6
CONTINUOUS
10
181.797
20
-110.083
11
181.677
21
-109.752
0
LINE
8
BLACK
6
CONTINUOUS
10
181.677
20
-109.752
11
181.677
21
-109.399
0
LINE
8
BLACK
6
CONTINUOUS
10
181.677
20
-109.399
11
181.797
21
-109.068
0
LINE
8
BLACK
6
CONTINUOUS
10
181.797
20
-109.068
11
182.024
21
-108.798
0
LINE
8
BLACK
6
CONTINUOUS
10
182.024
20
-108.798
11
182.33
21
-108.621
0
LINE
8
BLACK
6
CONTINUOUS
10
182.33
20
-108.621
11
182.589
21
-108.576
0
LINE
8
BLACK
6
CONTINUOUS
10
182.589
20
-108.576
11
182.764
21
-108.576
0
LINE
8
BLACK
6
CONTINUOUS
10
182.764
20
-108.576
11
183.024
21
-108.621
0
LINE
8
BLACK
6
CONTINUOUS
10
180.484
20
-108.621
11
180.79
21
-108.798
0
LINE
8
BLACK
6
CONTINUOUS
10
180.79
20
-108.798
11
181.016
21
-109.068
0
LINE
8
BLACK
6
CONTINUOUS
10
181.016
20
-109.068
11
181.137
21
-109.399
0
LINE
8
BLACK
6
CONTINUOUS
10
181.137
20
-109.399
11
181.137
21
-109.752
0
LINE
8
BLACK
6
CONTINUOUS
10
181.137
20
-109.752
11
181.016
21
-110.083
0
LINE
8
BLACK
6
CONTINUOUS
10
181.016
20
-110.083
11
180.79
21
-110.353
0
LINE
8
BLACK
6
CONTINUOUS
10
180.79
20
-110.353
11
180.484
21
-110.53
0
LINE
8
BLACK
6
CONTINUOUS
10
180.484
20
-110.53
11
180.224
21
-110.576
0
LINE
8
BLACK
6
CONTINUOUS
10
180.224
20
-110.576
11
180.049
21
-110.576
0
LINE
8
BLACK
6
CONTINUOUS
10
180.049
20
-110.576
11
179.79
21
-110.53
0
LINE
8
BLACK
6
CONTINUOUS
10
179.79
20
-110.53
11
179.484
21
-110.353
0
LINE
8
BLACK
6
CONTINUOUS
10
179.484
20
-110.353
11
179.257
21
-110.083
0
LINE
8
BLACK
6
CONTINUOUS
10
179.257
20
-110.083
11
179.137
21
-109.752
0
LINE
8
BLACK
6
CONTINUOUS
10
179.137
20
-109.752
11
179.137
21
-109.399
0
LINE
8
BLACK
6
CONTINUOUS
10
179.137
20
-109.399
11
179.257
21
-109.068
0
LINE
8
BLACK
6
CONTINUOUS
10
179.257
20
-109.068
11
179.484
21
-108.798
0
LINE
8
BLACK
6
CONTINUOUS
10
179.484
20
-108.798
11
179.79
21
-108.621
0
LINE
8
BLACK
6
CONTINUOUS
10
179.79
20
-108.621
11
180.049
21
-108.576
0
LINE
8
BLACK
6
CONTINUOUS
10
180.049
20
-108.576
11
180.224
21
-108.576
0
LINE
8
BLACK
6
CONTINUOUS
10
180.224
20
-108.576
11
180.484
21
-108.621
0
LINE
8
BLACK
6
CONTINUOUS
10
185.564
20
-108.621
11
185.87
21
-108.798
0
LINE
8
BLACK
6
CONTINUOUS
10
185.87
20
-108.798
11
186.096
21
-109.068
0
LINE
8
BLACK
6
CONTINUOUS
10
186.096
20
-109.068
11
186.217
21
-109.399
0
LINE
8
BLACK
6
CONTINUOUS
10
186.217
20
-109.399
11
186.217
21
-109.752
0
LINE
8
BLACK
6
CONTINUOUS
10
186.217
20
-109.752
11
186.096
21
-110.083
0
LINE
8
BLACK
6
CONTINUOUS
10
186.096
20
-110.083
11
185.87
21
-110.353
0
LINE
8
BLACK
6
CONTINUOUS
10
185.87
20
-110.353
11
185.564
21
-110.53
0
LINE
8
BLACK
6
CONTINUOUS
10
185.564
20
-110.53
11
185.304
21
-110.576
0
LINE
8
BLACK
6
CONTINUOUS
10
185.304
20
-110.576
11
185.129
21
-110.576
0
LINE
8
BLACK
6
CONTINUOUS
10
185.129
20
-110.576
11
184.87
21
-110.53
0
LINE
8
BLACK
6
CONTINUOUS
10
184.87
20
-110.53
11
184.564
21
-110.353
0
LINE
8
BLACK
6
CONTINUOUS
10
184.564
20
-110.353
11
184.337
21
-110.083
0
LINE
8
BLACK
6
CONTINUOUS
10
184.337
20
-110.083
11
184.217
21
-109.752
0
LINE
8
BLACK
6
CONTINUOUS
10
184.217
20
-109.752
11
184.217
21
-109.399
0
LINE
8
BLACK
6
CONTINUOUS
10
184.217
20
-109.399
11
184.337
21
-109.068
0
LINE
8
BLACK
6
CONTINUOUS
10
184.337
20
-109.068
11
184.564
21
-108.798
0
LINE
8
BLACK
6
CONTINUOUS
10
184.564
20
-108.798
11
184.87
21
-108.621
0
LINE
8
BLACK
6
CONTINUOUS
10
184.87
20
-108.621
11
185.129
21
-108.576
0
LINE
8
BLACK
6
CONTINUOUS
10
185.129
20
-108.576
11
185.304
21
-108.576
0
LINE
8
BLACK
6
CONTINUOUS
10
185.304
20
-108.576
11
185.564
21
-108.621
0
LINE
8
BLACK
6
CONTINUOUS
10
177.944
20
-108.621
11
178.25
21
-108.798
0
LINE
8
BLACK
6
CONTINUOUS
10
178.25
20
-108.798
11
178.476
21
-109.068
0
LINE
8
BLACK
6
CONTINUOUS
10
178.476
20
-109.068
11
178.597
21
-109.399
0
LINE
8
BLACK
6
CONTINUOUS
10
178.597
20
-109.399
11
178.597
21
-109.752
0
LINE
8
BLACK
6
CONTINUOUS
10
178.597
20
-109.752
11
178.476
21
-110.083
0
LINE
8
BLACK
6
CONTINUOUS
10
178.476
20
-110.083
11
178.25
21
-110.353
0
LINE
8
BLACK
6
CONTINUOUS
10
178.25
20
-110.353
11
177.944
21
-110.53
0
LINE
8
BLACK
6
CONTINUOUS
10
177.944
20
-110.53
11
177.684
21
-110.576
0
LINE
8
BLACK
6
CONTINUOUS
10
177.684
20
-110.576
11
177.509
21
-110.576
0
LINE
8
BLACK
6
CONTINUOUS
10
177.509
20
-110.576
11
177.25
21
-110.53
0
LINE
8
BLACK
6
CONTINUOUS
10
177.25
20
-110.53
11
176.944
21
-110.353
0
LINE
8
BLACK
6
CONTINUOUS
10
176.944
20
-110.353
11
176.717
21
-110.083
0
LINE
8
BLACK
6
CONTINUOUS
10
176.717
20
-110.083
11
176.597
21
-109.752
0
LINE
8
BLACK
6
CONTINUOUS
10
176.597
20
-109.752
11
176.597
21
-109.399
0
LINE
8
BLACK
6
CONTINUOUS
10
176.597
20
-109.399
11
176.717
21
-109.068
0
LINE
8
BLACK
6
CONTINUOUS
10
176.717
20
-109.068
11
176.944
21
-108.798
0
LINE
8
BLACK
6
CONTINUOUS
10
176.944
20
-108.798
11
177.25
21
-108.621
0
LINE
8
BLACK
6
CONTINUOUS
10
177.25
20
-108.621
11
177.509
21
-108.576
0
LINE
8
BLACK
6
CONTINUOUS
10
177.509
20
-108.576
11
177.684
21
-108.576
0
LINE
8
BLACK
6
CONTINUOUS
10
177.684
20
-108.576
11
177.944
21
-108.621
0
LINE
8
BLACK
6
CONTINUOUS
10
175.404
20
-108.621
11
175.71
21
-108.798
0
LINE
8
BLACK
6
CONTINUOUS
10
175.71
20
-108.798
11
175.936
21
-109.068
0
LINE
8
BLACK
6
CONTINUOUS
10
175.936
20
-109.068
11
176.057
21
-109.399
0
LINE
8
BLACK
6
CONTINUOUS
10
176.057
20
-109.399
11
176.057
21
-109.752
0
LINE
8
BLACK
6
CONTINUOUS
10
176.057
20
-109.752
11
175.936
21
-110.083
0
LINE
8
BLACK
6
CONTINUOUS
10
175.936
20
-110.083
11
175.71
21
-110.353
0
LINE
8
BLACK
6
CONTINUOUS
10
175.71
20
-110.353
11
175.404
21
-110.53
0
LINE
8
BLACK
6
CONTINUOUS
10
175.404
20
-110.53
11
175.144
21
-110.576
0
LINE
8
BLACK
6
CONTINUOUS
10
175.144
20
-110.576
11
174.969
21
-110.576
0
LINE
8
BLACK
6
CONTINUOUS
10
174.969
20
-110.576
11
174.71
21
-110.53
0
LINE
8
BLACK
6
CONTINUOUS
10
174.71
20
-110.53
11
174.404
21
-110.353
0
LINE
8
BLACK
6
CONTINUOUS
10
174.404
20
-110.353
11
174.177
21
-110.083
0
LINE
8
BLACK
6
CONTINUOUS
10
174.177
20
-110.083
11
174.057
21
-109.752
0
LINE
8
BLACK
6
CONTINUOUS
10
174.057
20
-109.752
11
174.057
21
-109.399
0
LINE
8
BLACK
6
CONTINUOUS
10
174.057
20
-109.399
11
174.177
21
-109.068
0
LINE
8
BLACK
6
CONTINUOUS
10
174.177
20
-109.068
11
174.404
21
-108.798
0
LINE
8
BLACK
6
CONTINUOUS
10
174.404
20
-108.798
11
174.71
21
-108.621
0
LINE
8
BLACK
6
CONTINUOUS
10
174.71
20
-108.621
11
174.969
21
-108.576
0
LINE
8
BLACK
6
CONTINUOUS
10
174.969
20
-108.576
11
175.144
21
-108.576
0
LINE
8
BLACK
6
CONTINUOUS
10
175.144
20
-108.576
11
175.404
21
-108.621
0
LINE
8
BLACK
6
CONTINUOUS
10
165.244
20
-108.621
11
165.55
21
-108.798
0
LINE
8
BLACK
6
CONTINUOUS
10
165.55
20
-108.798
11
165.776
21
-109.068
0
LINE
8
BLACK
6
CONTINUOUS
10
165.776
20
-109.068
11
165.897
21
-109.399
0
LINE
8
BLACK
6
CONTINUOUS
10
165.897
20
-109.399
11
165.897
21
-109.752
0
LINE
8
BLACK
6
CONTINUOUS
10
165.897
20
-109.752
11
165.776
21
-110.083
0
LINE
8
BLACK
6
CONTINUOUS
10
165.776
20
-110.083
11
165.55
21
-110.353
0
LINE
8
BLACK
6
CONTINUOUS
10
165.55
20
-110.353
11
165.244
21
-110.53
0
LINE
8
BLACK
6
CONTINUOUS
10
165.244
20
-110.53
11
164.984
21
-110.576
0
LINE
8
BLACK
6
CONTINUOUS
10
164.984
20
-110.576
11
164.809
21
-110.576
0
LINE
8
BLACK
6
CONTINUOUS
10
164.809
20
-110.576
11
164.55
21
-110.53
0
LINE
8
BLACK
6
CONTINUOUS
10
164.55
20
-110.53
11
164.244
21
-110.353
0
LINE
8
BLACK
6
CONTINUOUS
10
164.244
20
-110.353
11
164.017
21
-110.083
0
LINE
8
BLACK
6
CONTINUOUS
10
164.017
20
-110.083
11
163.897
21
-109.752
0
LINE
8
BLACK
6
CONTINUOUS
10
163.897
20
-109.752
11
163.897
21
-109.399
0
LINE
8
BLACK
6
CONTINUOUS
10
163.897
20
-109.399
11
164.017
21
-109.068
0
LINE
8
BLACK
6
CONTINUOUS
10
164.017
20
-109.068
11
164.244
21
-108.798
0
LINE
8
BLACK
6
CONTINUOUS
10
164.244
20
-108.798
11
164.55
21
-108.621
0
LINE
8
BLACK
6
CONTINUOUS
10
164.55
20
-108.621
11
164.809
21
-108.576
0
LINE
8
BLACK
6
CONTINUOUS
10
164.809
20
-108.576
11
164.984
21
-108.576
0
LINE
8
BLACK
6
CONTINUOUS
10
164.984
20
-108.576
11
165.244
21
-108.621
0
LINE
8
BLACK
6
CONTINUOUS
10
170.324
20
-108.621
11
170.63
21
-108.798
0
LINE
8
BLACK
6
CONTINUOUS
10
170.63
20
-108.798
11
170.856
21
-109.068
0
LINE
8
BLACK
6
CONTINUOUS
10
170.856
20
-109.068
11
170.977
21
-109.399
0
LINE
8
BLACK
6
CONTINUOUS
10
170.977
20
-109.399
11
170.977
21
-109.752
0
LINE
8
BLACK
6
CONTINUOUS
10
170.977
20
-109.752
11
170.856
21
-110.083
0
LINE
8
BLACK
6
CONTINUOUS
10
170.856
20
-110.083
11
170.63
21
-110.353
0
LINE
8
BLACK
6
CONTINUOUS
10
170.63
20
-110.353
11
170.324
21
-110.53
0
LINE
8
BLACK
6
CONTINUOUS
10
170.324
20
-110.53
11
170.064
21
-110.576
0
LINE
8
BLACK
6
CONTINUOUS
10
170.064
20
-110.576
11
169.889
21
-110.576
0
LINE
8
BLACK
6
CONTINUOUS
10
169.889
20
-110.576
11
169.63
21
-110.53
0
LINE
8
BLACK
6
CONTINUOUS
10
169.63
20
-110.53
11
169.324
21
-110.353
0
LINE
8
BLACK
6
CONTINUOUS
10
169.324
20
-110.353
11
169.097
21
-110.083
0
LINE
8
BLACK
6
CONTINUOUS
10
169.097
20
-110.083
11
168.977
21
-109.752
0
LINE
8
BLACK
6
CONTINUOUS
10
168.977
20
-109.752
11
168.977
21
-109.399
0
LINE
8
BLACK
6
CONTINUOUS
10
168.977
20
-109.399
11
169.097
21
-109.068
0
LINE
8
BLACK
6
CONTINUOUS
10
169.097
20
-109.068
11
169.324
21
-108.798
0
LINE
8
BLACK
6
CONTINUOUS
10
169.324
20
-108.798
11
169.63
21
-108.621
0
LINE
8
BLACK
6
CONTINUOUS
10
169.63
20
-108.621
11
169.889
21
-108.576
0
LINE
8
BLACK
6
CONTINUOUS
10
169.889
20
-108.576
11
170.064
21
-108.576
0
LINE
8
BLACK
6
CONTINUOUS
10
170.064
20
-108.576
11
170.324
21
-108.621
0
LINE
8
BLACK
6
CONTINUOUS
10
167.784
20
-108.621
11
168.09
21
-108.798
0
LINE
8
BLACK
6
CONTINUOUS
10
168.09
20
-108.798
11
168.316
21
-109.068
0
LINE
8
BLACK
6
CONTINUOUS
10
168.316
20
-109.068
11
168.437
21
-109.399
0
LINE
8
BLACK
6
CONTINUOUS
10
168.437
20
-109.399
11
168.437
21
-109.752
0
LINE
8
BLACK
6
CONTINUOUS
10
168.437
20
-109.752
11
168.316
21
-110.083
0
LINE
8
BLACK
6
CONTINUOUS
10
168.316
20
-110.083
11
168.09
21
-110.353
0
LINE
8
BLACK
6
CONTINUOUS
10
168.09
20
-110.353
11
167.784
21
-110.53
0
LINE
8
BLACK
6
CONTINUOUS
10
167.784
20
-110.53
11
167.524
21
-110.576
0
LINE
8
BLACK
6
CONTINUOUS
10
167.524
20
-110.576
11
167.349
21
-110.576
0
LINE
8
BLACK
6
CONTINUOUS
10
167.349
20
-110.576
11
167.09
21
-110.53
0
LINE
8
BLACK
6
CONTINUOUS
10
167.09
20
-110.53
11
166.784
21
-110.353
0
LINE
8
BLACK
6
CONTINUOUS
10
166.784
20
-110.353
11
166.557
21
-110.083
0
LINE
8
BLACK
6
CONTINUOUS
10
166.557
20
-110.083
11
166.437
21
-109.752
0
LINE
8
BLACK
6
CONTINUOUS
10
166.437
20
-109.752
11
166.437
21
-109.399
0
LINE
8
BLACK
6
CONTINUOUS
10
166.437
20
-109.399
11
166.557
21
-109.068
0
LINE
8
BLACK
6
CONTINUOUS
10
166.557
20
-109.068
11
166.784
21
-108.798
0
LINE
8
BLACK
6
CONTINUOUS
10
166.784
20
-108.798
11
167.09
21
-108.621
0
LINE
8
BLACK
6
CONTINUOUS
10
167.09
20
-108.621
11
167.349
21
-108.576
0
LINE
8
BLACK
6
CONTINUOUS
10
167.349
20
-108.576
11
167.524
21
-108.576
0
LINE
8
BLACK
6
CONTINUOUS
10
167.524
20
-108.576
11
167.784
21
-108.621
0
LINE
8
BLACK
6
CONTINUOUS
10
172.864
20
-108.621
11
173.17
21
-108.798
0
LINE
8
BLACK
6
CONTINUOUS
10
173.17
20
-108.798
11
173.396
21
-109.068
0
LINE
8
BLACK
6
CONTINUOUS
10
173.396
20
-109.068
11
173.517
21
-109.399
0
LINE
8
BLACK
6
CONTINUOUS
10
173.517
20
-109.399
11
173.517
21
-109.752
0
LINE
8
BLACK
6
CONTINUOUS
10
173.517
20
-109.752
11
173.396
21
-110.083
0
LINE
8
BLACK
6
CONTINUOUS
10
173.396
20
-110.083
11
173.17
21
-110.353
0
LINE
8
BLACK
6
CONTINUOUS
10
173.17
20
-110.353
11
172.864
21
-110.53
0
LINE
8
BLACK
6
CONTINUOUS
10
172.864
20
-110.53
11
172.604
21
-110.576
0
LINE
8
BLACK
6
CONTINUOUS
10
172.604
20
-110.576
11
172.429
21
-110.576
0
LINE
8
BLACK
6
CONTINUOUS
10
172.429
20
-110.576
11
172.17
21
-110.53
0
LINE
8
BLACK
6
CONTINUOUS
10
172.17
20
-110.53
11
171.864
21
-110.353
0
LINE
8
BLACK
6
CONTINUOUS
10
171.864
20
-110.353
11
171.637
21
-110.083
0
LINE
8
BLACK
6
CONTINUOUS
10
171.637
20
-110.083
11
171.517
21
-109.752
0
LINE
8
BLACK
6
CONTINUOUS
10
171.517
20
-109.752
11
171.517
21
-109.399
0
LINE
8
BLACK
6
CONTINUOUS
10
171.517
20
-109.399
11
171.637
21
-109.068
0
LINE
8
BLACK
6
CONTINUOUS
10
171.637
20
-109.068
11
171.864
21
-108.798
0
LINE
8
BLACK
6
CONTINUOUS
10
171.864
20
-108.798
11
172.17
21
-108.621
0
LINE
8
BLACK
6
CONTINUOUS
10
172.17
20
-108.621
11
172.429
21
-108.576
0
LINE
8
BLACK
6
CONTINUOUS
10
172.429
20
-108.576
11
172.604
21
-108.576
0
LINE
8
BLACK
6
CONTINUOUS
10
172.604
20
-108.576
11
172.864
21
-108.621
0
LINE
8
BLACK
6
CONTINUOUS
10
162.704
20
-108.621
11
163.01
21
-108.798
0
LINE
8
BLACK
6
CONTINUOUS
10
163.01
20
-108.798
11
163.236
21
-109.068
0
LINE
8
BLACK
6
CONTINUOUS
10
163.236
20
-109.068
11
163.357
21
-109.399
0
LINE
8
BLACK
6
CONTINUOUS
10
163.357
20
-109.399
11
163.357
21
-109.752
0
LINE
8
BLACK
6
CONTINUOUS
10
163.357
20
-109.752
11
163.236
21
-110.083
0
LINE
8
BLACK
6
CONTINUOUS
10
163.236
20
-110.083
11
163.01
21
-110.353
0
LINE
8
BLACK
6
CONTINUOUS
10
163.01
20
-110.353
11
162.704
21
-110.53
0
LINE
8
BLACK
6
CONTINUOUS
10
162.704
20
-110.53
11
162.444
21
-110.576
0
LINE
8
BLACK
6
CONTINUOUS
10
162.444
20
-110.576
11
162.269
21
-110.576
0
LINE
8
BLACK
6
CONTINUOUS
10
162.269
20
-110.576
11
162.01
21
-110.53
0
LINE
8
BLACK
6
CONTINUOUS
10
162.01
20
-110.53
11
161.704
21
-110.353
0
LINE
8
BLACK
6
CONTINUOUS
10
161.704
20
-110.353
11
161.477
21
-110.083
0
LINE
8
BLACK
6
CONTINUOUS
10
161.477
20
-110.083
11
161.357
21
-109.752
0
LINE
8
BLACK
6
CONTINUOUS
10
161.357
20
-109.752
11
161.357
21
-109.399
0
LINE
8
BLACK
6
CONTINUOUS
10
161.357
20
-109.399
11
161.477
21
-109.068
0
LINE
8
BLACK
6
CONTINUOUS
10
161.477
20
-109.068
11
161.704
21
-108.798
0
LINE
8
BLACK
6
CONTINUOUS
10
161.704
20
-108.798
11
162.01
21
-108.621
0
LINE
8
BLACK
6
CONTINUOUS
10
162.01
20
-108.621
11
162.269
21
-108.576
0
LINE
8
BLACK
6
CONTINUOUS
10
162.269
20
-108.576
11
162.444
21
-108.576
0
LINE
8
BLACK
6
CONTINUOUS
10
162.444
20
-108.576
11
162.704
21
-108.621
0
LINE
8
BLACK
6
CONTINUOUS
10
160.164
20
-108.621
11
160.47
21
-108.798
0
LINE
8
BLACK
6
CONTINUOUS
10
160.47
20
-108.798
11
160.696
21
-109.068
0
LINE
8
BLACK
6
CONTINUOUS
10
160.696
20
-109.068
11
160.817
21
-109.399
0
LINE
8
BLACK
6
CONTINUOUS
10
160.817
20
-109.399
11
160.817
21
-109.752
0
LINE
8
BLACK
6
CONTINUOUS
10
160.817
20
-109.752
11
160.696
21
-110.083
0
LINE
8
BLACK
6
CONTINUOUS
10
160.696
20
-110.083
11
160.47
21
-110.353
0
LINE
8
BLACK
6
CONTINUOUS
10
160.47
20
-110.353
11
160.164
21
-110.53
0
LINE
8
BLACK
6
CONTINUOUS
10
160.164
20
-110.53
11
159.904
21
-110.576
0
LINE
8
BLACK
6
CONTINUOUS
10
159.904
20
-110.576
11
159.729
21
-110.576
0
LINE
8
BLACK
6
CONTINUOUS
10
159.729
20
-110.576
11
159.47
21
-110.53
0
LINE
8
BLACK
6
CONTINUOUS
10
159.47
20
-110.53
11
159.164
21
-110.353
0
LINE
8
BLACK
6
CONTINUOUS
10
159.164
20
-110.353
11
158.937
21
-110.083
0
LINE
8
BLACK
6
CONTINUOUS
10
158.937
20
-110.083
11
158.817
21
-109.752
0
LINE
8
BLACK
6
CONTINUOUS
10
158.817
20
-109.752
11
158.817
21
-109.399
0
LINE
8
BLACK
6
CONTINUOUS
10
158.817
20
-109.399
11
158.937
21
-109.068
0
LINE
8
BLACK
6
CONTINUOUS
10
158.937
20
-109.068
11
159.164
21
-108.798
0
LINE
8
BLACK
6
CONTINUOUS
10
159.164
20
-108.798
11
159.47
21
-108.621
0
LINE
8
BLACK
6
CONTINUOUS
10
159.47
20
-108.621
11
159.729
21
-108.576
0
LINE
8
BLACK
6
CONTINUOUS
10
159.729
20
-108.576
11
159.904
21
-108.576
0
LINE
8
BLACK
6
CONTINUOUS
10
159.904
20
-108.576
11
160.164
21
-108.621
0
LINE
8
BLACK
6
CONTINUOUS
10
157.624
20
-108.621
11
157.93
21
-108.798
0
LINE
8
BLACK
6
CONTINUOUS
10
157.93
20
-108.798
11
158.156
21
-109.068
0
LINE
8
BLACK
6
CONTINUOUS
10
158.156
20
-109.068
11
158.277
21
-109.399
0
LINE
8
BLACK
6
CONTINUOUS
10
158.277
20
-109.399
11
158.277
21
-109.752
0
LINE
8
BLACK
6
CONTINUOUS
10
158.277
20
-109.752
11
158.156
21
-110.083
0
LINE
8
BLACK
6
CONTINUOUS
10
158.156
20
-110.083
11
157.93
21
-110.353
0
LINE
8
BLACK
6
CONTINUOUS
10
157.93
20
-110.353
11
157.624
21
-110.53
0
LINE
8
BLACK
6
CONTINUOUS
10
157.624
20
-110.53
11
157.364
21
-110.576
0
LINE
8
BLACK
6
CONTINUOUS
10
157.364
20
-110.576
11
157.189
21
-110.576
0
LINE
8
BLACK
6
CONTINUOUS
10
157.189
20
-110.576
11
156.93
21
-110.53
0
LINE
8
BLACK
6
CONTINUOUS
10
156.93
20
-110.53
11
156.624
21
-110.353
0
LINE
8
BLACK
6
CONTINUOUS
10
156.624
20
-110.353
11
156.397
21
-110.083
0
LINE
8
BLACK
6
CONTINUOUS
10
156.397
20
-110.083
11
156.277
21
-109.752
0
LINE
8
BLACK
6
CONTINUOUS
10
156.277
20
-109.752
11
156.277
21
-109.399
0
LINE
8
BLACK
6
CONTINUOUS
10
156.277
20
-109.399
11
156.397
21
-109.068
0
LINE
8
BLACK
6
CONTINUOUS
10
156.397
20
-109.068
11
156.624
21
-108.798
0
LINE
8
BLACK
6
CONTINUOUS
10
156.624
20
-108.798
11
156.93
21
-108.621
0
LINE
8
BLACK
6
CONTINUOUS
10
156.93
20
-108.621
11
157.189
21
-108.576
0
LINE
8
BLACK
6
CONTINUOUS
10
157.189
20
-108.576
11
157.364
21
-108.576
0
LINE
8
BLACK
6
CONTINUOUS
10
157.364
20
-108.576
11
157.624
21
-108.621
0
LINE
8
BLACK
6
CONTINUOUS
10
155.084
20
-108.621
11
155.39
21
-108.798
0
LINE
8
BLACK
6
CONTINUOUS
10
155.39
20
-108.798
11
155.616
21
-109.068
0
LINE
8
BLACK
6
CONTINUOUS
10
155.616
20
-109.068
11
155.737
21
-109.399
0
LINE
8
BLACK
6
CONTINUOUS
10
155.737
20
-109.399
11
155.737
21
-109.752
0
LINE
8
BLACK
6
CONTINUOUS
10
155.737
20
-109.752
11
155.616
21
-110.083
0
LINE
8
BLACK
6
CONTINUOUS
10
155.616
20
-110.083
11
155.39
21
-110.353
0
LINE
8
BLACK
6
CONTINUOUS
10
155.39
20
-110.353
11
155.084
21
-110.53
0
LINE
8
BLACK
6
CONTINUOUS
10
155.084
20
-110.53
11
154.824
21
-110.576
0
LINE
8
BLACK
6
CONTINUOUS
10
154.824
20
-110.576
11
154.649
21
-110.576
0
LINE
8
BLACK
6
CONTINUOUS
10
154.649
20
-110.576
11
154.39
21
-110.53
0
LINE
8
BLACK
6
CONTINUOUS
10
154.39
20
-110.53
11
154.084
21
-110.353
0
LINE
8
BLACK
6
CONTINUOUS
10
154.084
20
-110.353
11
153.857
21
-110.083
0
LINE
8
BLACK
6
CONTINUOUS
10
153.857
20
-110.083
11
153.737
21
-109.752
0
LINE
8
BLACK
6
CONTINUOUS
10
153.737
20
-109.752
11
153.737
21
-109.399
0
LINE
8
BLACK
6
CONTINUOUS
10
153.737
20
-109.399
11
153.857
21
-109.068
0
LINE
8
BLACK
6
CONTINUOUS
10
153.857
20
-109.068
11
154.084
21
-108.798
0
LINE
8
BLACK
6
CONTINUOUS
10
154.084
20
-108.798
11
154.39
21
-108.621
0
LINE
8
BLACK
6
CONTINUOUS
10
154.39
20
-108.621
11
154.649
21
-108.576
0
LINE
8
BLACK
6
CONTINUOUS
10
154.649
20
-108.576
11
154.824
21
-108.576
0
LINE
8
BLACK
6
CONTINUOUS
10
154.824
20
-108.576
11
155.084
21
-108.621
0
LINE
8
BLACK
6
CONTINUOUS
10
152.544
20
-108.621
11
152.85
21
-108.798
0
LINE
8
BLACK
6
CONTINUOUS
10
152.85
20
-108.798
11
153.076
21
-109.068
0
LINE
8
BLACK
6
CONTINUOUS
10
153.076
20
-109.068
11
153.197
21
-109.399
0
LINE
8
BLACK
6
CONTINUOUS
10
153.197
20
-109.399
11
153.197
21
-109.752
0
LINE
8
BLACK
6
CONTINUOUS
10
153.197
20
-109.752
11
153.076
21
-110.083
0
LINE
8
BLACK
6
CONTINUOUS
10
153.076
20
-110.083
11
152.85
21
-110.353
0
LINE
8
BLACK
6
CONTINUOUS
10
152.85
20
-110.353
11
152.544
21
-110.53
0
LINE
8
BLACK
6
CONTINUOUS
10
152.544
20
-110.53
11
152.284
21
-110.576
0
LINE
8
BLACK
6
CONTINUOUS
10
152.284
20
-110.576
11
152.109
21
-110.576
0
LINE
8
BLACK
6
CONTINUOUS
10
152.109
20
-110.576
11
151.85
21
-110.53
0
LINE
8
BLACK
6
CONTINUOUS
10
151.85
20
-110.53
11
151.544
21
-110.353
0
LINE
8
BLACK
6
CONTINUOUS
10
151.544
20
-110.353
11
151.317
21
-110.083
0
LINE
8
BLACK
6
CONTINUOUS
10
151.317
20
-110.083
11
151.197
21
-109.752
0
LINE
8
BLACK
6
CONTINUOUS
10
151.197
20
-109.752
11
151.197
21
-109.399
0
LINE
8
BLACK
6
CONTINUOUS
10
151.197
20
-109.399
11
151.317
21
-109.068
0
LINE
8
BLACK
6
CONTINUOUS
10
151.317
20
-109.068
11
151.544
21
-108.798
0
LINE
8
BLACK
6
CONTINUOUS
10
151.544
20
-108.798
11
151.85
21
-108.621
0
LINE
8
BLACK
6
CONTINUOUS
10
151.85
20
-108.621
11
152.109
21
-108.576
0
LINE
8
BLACK
6
CONTINUOUS
10
152.109
20
-108.576
11
152.284
21
-108.576
0
LINE
8
BLACK
6
CONTINUOUS
10
152.284
20
-108.576
11
152.544
21
-108.621
0
LINE
8
BLACK
6
CONTINUOUS
10
188.104
20
-108.621
11
188.41
21
-108.798
0
LINE
8
BLACK
6
CONTINUOUS
10
188.41
20
-108.798
11
188.636
21
-109.068
0
LINE
8
BLACK
6
CONTINUOUS
10
188.636
20
-109.068
11
188.757
21
-109.399
0
LINE
8
BLACK
6
CONTINUOUS
10
188.757
20
-109.399
11
188.757
21
-109.752
0
LINE
8
BLACK
6
CONTINUOUS
10
188.757
20
-109.752
11
188.636
21
-110.083
0
LINE
8
BLACK
6
CONTINUOUS
10
188.636
20
-110.083
11
188.41
21
-110.353
0
LINE
8
BLACK
6
CONTINUOUS
10
188.41
20
-110.353
11
188.104
21
-110.53
0
LINE
8
BLACK
6
CONTINUOUS
10
188.104
20
-110.53
11
187.844
21
-110.576
0
LINE
8
BLACK
6
CONTINUOUS
10
187.844
20
-110.576
11
187.669
21
-110.576
0
LINE
8
BLACK
6
CONTINUOUS
10
187.669
20
-110.576
11
187.41
21
-110.53
0
LINE
8
BLACK
6
CONTINUOUS
10
187.41
20
-110.53
11
187.104
21
-110.353
0
LINE
8
BLACK
6
CONTINUOUS
10
187.104
20
-110.353
11
186.877
21
-110.083
0
LINE
8
BLACK
6
CONTINUOUS
10
186.877
20
-110.083
11
186.757
21
-109.752
0
LINE
8
BLACK
6
CONTINUOUS
10
186.757
20
-109.752
11
186.757
21
-109.399
0
LINE
8
BLACK
6
CONTINUOUS
10
186.757
20
-109.399
11
186.877
21
-109.068
0
LINE
8
BLACK
6
CONTINUOUS
10
186.877
20
-109.068
11
187.104
21
-108.798
0
LINE
8
BLACK
6
CONTINUOUS
10
187.104
20
-108.798
11
187.41
21
-108.621
0
LINE
8
BLACK
6
CONTINUOUS
10
187.41
20
-108.621
11
187.669
21
-108.576
0
LINE
8
BLACK
6
CONTINUOUS
10
187.669
20
-108.576
11
187.844
21
-108.576
0
LINE
8
BLACK
6
CONTINUOUS
10
187.844
20
-108.576
11
188.104
21
-108.621
0
LINE
8
BLACK
6
CONTINUOUS
10
189.223
20
-103.275
11
189.818
21
-103.619
0
LINE
8
BLACK
6
CONTINUOUS
10
189.818
20
-103.619
11
190.26
21
-104.146
0
LINE
8
BLACK
6
CONTINUOUS
10
190.26
20
-104.146
11
190.495
21
-104.792
0
LINE
8
BLACK
6
CONTINUOUS
10
190.495
20
-104.792
11
190.495
21
-105.48
0
LINE
8
BLACK
6
CONTINUOUS
10
190.495
20
-105.48
11
190.26
21
-106.126
0
LINE
8
BLACK
6
CONTINUOUS
10
190.26
20
-106.126
11
189.818
21
-106.653
0
LINE
8
BLACK
6
CONTINUOUS
10
189.818
20
-106.653
11
189.223
21
-106.996
0
LINE
8
BLACK
6
CONTINUOUS
10
189.223
20
-106.996
11
188.545
21
-107.116
0
LINE
8
BLACK
6
CONTINUOUS
10
188.545
20
-107.116
11
187.868
21
-106.996
0
LINE
8
BLACK
6
CONTINUOUS
10
187.868
20
-106.996
11
187.273
21
-106.653
0
LINE
8
BLACK
6
CONTINUOUS
10
187.273
20
-106.653
11
186.831
21
-106.126
0
LINE
8
BLACK
6
CONTINUOUS
10
186.831
20
-106.126
11
186.595
21
-105.48
0
LINE
8
BLACK
6
CONTINUOUS
10
186.595
20
-105.48
11
186.595
21
-104.792
0
LINE
8
BLACK
6
CONTINUOUS
10
186.595
20
-104.792
11
186.831
21
-104.146
0
LINE
8
BLACK
6
CONTINUOUS
10
186.831
20
-104.146
11
187.273
21
-103.619
0
LINE
8
BLACK
6
CONTINUOUS
10
187.273
20
-103.619
11
187.868
21
-103.275
0
LINE
8
BLACK
6
CONTINUOUS
10
187.868
20
-103.275
11
188.545
21
-103.156
0
LINE
8
BLACK
6
CONTINUOUS
10
188.545
20
-103.156
11
189.223
21
-103.275
0
LINE
8
BLACK
6
CONTINUOUS
10
96.2228
20
-103.274
11
96.8184
21
-103.618
0
LINE
8
BLACK
6
CONTINUOUS
10
96.8184
20
-103.618
11
97.2604
21
-104.145
0
LINE
8
BLACK
6
CONTINUOUS
10
97.2604
20
-104.145
11
97.4956
21
-104.791
0
LINE
8
BLACK
6
CONTINUOUS
10
97.4956
20
-104.791
11
97.4956
21
-105.479
0
LINE
8
BLACK
6
CONTINUOUS
10
97.4956
20
-105.479
11
97.2604
21
-106.125
0
LINE
8
BLACK
6
CONTINUOUS
10
97.2604
20
-106.125
11
96.8184
21
-106.652
0
LINE
8
BLACK
6
CONTINUOUS
10
96.8184
20
-106.652
11
96.2228
21
-106.996
0
LINE
8
BLACK
6
CONTINUOUS
10
96.2228
20
-106.996
11
95.5456
21
-107.115
0
LINE
8
BLACK
6
CONTINUOUS
10
95.5456
20
-107.115
11
94.8684
21
-106.996
0
LINE
8
BLACK
6
CONTINUOUS
10
94.8684
20
-106.996
11
94.2728
21
-106.652
0
LINE
8
BLACK
6
CONTINUOUS
10
94.2728
20
-106.652
11
93.8308
21
-106.125
0
LINE
8
BLACK
6
CONTINUOUS
10
93.8308
20
-106.125
11
93.5956
21
-105.479
0
LINE
8
BLACK
6
CONTINUOUS
10
93.5956
20
-105.479
11
93.5956
21
-104.791
0
LINE
8
BLACK
6
CONTINUOUS
10
93.5956
20
-104.791
11
93.8308
21
-104.145
0
LINE
8
BLACK
6
CONTINUOUS
10
93.8308
20
-104.145
11
94.2728
21
-103.618
0
LINE
8
BLACK
6
CONTINUOUS
10
94.2728
20
-103.618
11
94.8684
21
-103.274
0
LINE
8
BLACK
6
CONTINUOUS
10
94.8684
20
-103.274
11
95.5456
21
-103.155
0
LINE
8
BLACK
6
CONTINUOUS
10
95.5456
20
-103.155
11
96.2228
21
-103.274
0
LINE
8
BLACK
6
CONTINUOUS
10
96.223
20
-48.2739
11
96.8186
21
-48.6177
0
LINE
8
BLACK
6
CONTINUOUS
10
96.8186
20
-48.6177
11
97.2606
21
-49.1445
0
LINE
8
BLACK
6
CONTINUOUS
10
97.2606
20
-49.1445
11
97.4958
21
-49.7907
0
LINE
8
BLACK
6
CONTINUOUS
10
97.4958
20
-49.7907
11
97.4958
21
-50.4784
0
LINE
8
BLACK
6
CONTINUOUS
10
97.4958
20
-50.4784
11
97.2606
21
-51.1246
0
LINE
8
BLACK
6
CONTINUOUS
10
97.2606
20
-51.1246
11
96.8186
21
-51.6514
0
LINE
8
BLACK
6
CONTINUOUS
10
96.8186
20
-51.6514
11
96.223
21
-51.9952
0
LINE
8
BLACK
6
CONTINUOUS
10
96.223
20
-51.9952
11
95.5458
21
-52.1146
0
LINE
8
BLACK
6
CONTINUOUS
10
95.5458
20
-52.1146
11
94.8686
21
-51.9952
0
LINE
8
BLACK
6
CONTINUOUS
10
94.8686
20
-51.9952
11
94.273
21
-51.6514
0
LINE
8
BLACK
6
CONTINUOUS
10
94.273
20
-51.6514
11
93.831
21
-51.1246
0
LINE
8
BLACK
6
CONTINUOUS
10
93.831
20
-51.1246
11
93.5958
21
-50.4784
0
LINE
8
BLACK
6
CONTINUOUS
10
93.5958
20
-50.4784
11
93.5958
21
-49.7907
0
LINE
8
BLACK
6
CONTINUOUS
10
93.5958
20
-49.7907
11
93.831
21
-49.1445
0
LINE
8
BLACK
6
CONTINUOUS
10
93.831
20
-49.1445
11
94.273
21
-48.6177
0
LINE
8
BLACK
6
CONTINUOUS
10
94.273
20
-48.6177
11
94.8686
21
-48.2739
0
LINE
8
BLACK
6
CONTINUOUS
10
94.8686
20
-48.2739
11
95.5458
21
-48.1544
0
LINE
8
BLACK
6
CONTINUOUS
10
95.5458
20
-48.1544
11
96.223
21
-48.2739
0
LINE
8
BLACK
6
CONTINUOUS
10
189.223
20
-48.2739
11
189.818
21
-48.6177
0
LINE
8
BLACK
6
CONTINUOUS
10
189.818
20
-48.6177
11
190.26
21
-49.1445
0
LINE
8
BLACK
6
CONTINUOUS
10
190.26
20
-49.1445
11
190.495
21
-49.7907
0
LINE
8
BLACK
6
CONTINUOUS
10
190.495
20
-49.7907
11
190.495
21
-50.4784
0
LINE
8
BLACK
6
CONTINUOUS
10
190.495
20
-50.4784
11
190.26
21
-51.1246
0
LINE
8
BLACK
6
CONTINUOUS
10
190.26
20
-51.1246
11
189.818
21
-51.6514
0
LINE
8
BLACK
6
CONTINUOUS
10
189.818
20
-51.6514
11
189.223
21
-51.9952
0
LINE
8
BLACK
6
CONTINUOUS
10
189.223
20
-51.9952
11
188.545
21
-52.1146
0
LINE
8
BLACK
6
CONTINUOUS
10
188.545
20
-52.1146
11
187.868
21
-51.9952
0
LINE
8
BLACK
6
CONTINUOUS
10
187.868
20
-51.9952
11
187.273
21
-51.6514
0
LINE
8
BLACK
6
CONTINUOUS
10
187.273
20
-51.6514
11
186.831
21
-51.1246
0
LINE
8
BLACK
6
CONTINUOUS
10
186.831
20
-51.1246
11
186.595
21
-50.4784
0
LINE
8
BLACK
6
CONTINUOUS
10
186.595
20
-50.4784
11
186.595
21
-49.7907
0
LINE
8
BLACK
6
CONTINUOUS
10
186.595
20
-49.7907
11
186.831
21
-49.1445
0
LINE
8
BLACK
6
CONTINUOUS
10
186.831
20
-49.1445
11
187.273
21
-48.6177
0
LINE
8
BLACK
6
CONTINUOUS
10
187.273
20
-48.6177
11
187.868
21
-48.2739
0
LINE
8
BLACK
6
CONTINUOUS
10
187.868
20
-48.2739
11
188.545
21
-48.1544
0
LINE
8
BLACK
6
CONTINUOUS
10
188.545
20
-48.1544
11
189.223
21
-48.2739
0
LINE
8
BLACK
6
CONTINUOUS
10
139.088
20
-48.9497
11
139.345
21
-49.165
0
LINE
8
BLACK
6
CONTINUOUS
10
139.345
20
-49.165
11
139.512
21
-49.4552
0
LINE
8
BLACK
6
CONTINUOUS
10
139.512
20
-49.4552
11
139.556
21
-49.702
0
LINE
8
BLACK
6
CONTINUOUS
10
139.556
20
-49.702
11
139.556
21
-50.5682
0
LINE
8
BLACK
6
CONTINUOUS
10
139.556
20
-50.5682
11
139.512
21
-50.815
0
LINE
8
BLACK
6
CONTINUOUS
10
139.512
20
-50.815
11
139.345
21
-51.1052
0
LINE
8
BLACK
6
CONTINUOUS
10
139.345
20
-51.1052
11
139.088
21
-51.3205
0
LINE
8
BLACK
6
CONTINUOUS
10
139.088
20
-51.3205
11
138.773
21
-51.4351
0
LINE
8
BLACK
6
CONTINUOUS
10
138.773
20
-51.4351
11
138.438
21
-51.4351
0
LINE
8
BLACK
6
CONTINUOUS
10
138.438
20
-51.4351
11
138.123
21
-51.3205
0
LINE
8
BLACK
6
CONTINUOUS
10
138.123
20
-51.3205
11
137.867
21
-51.1052
0
LINE
8
BLACK
6
CONTINUOUS
10
137.867
20
-51.1052
11
137.699
21
-50.815
0
LINE
8
BLACK
6
CONTINUOUS
10
137.699
20
-50.815
11
137.656
21
-50.5682
0
LINE
8
BLACK
6
CONTINUOUS
10
137.656
20
-50.5682
11
137.656
21
-49.702
0
LINE
8
BLACK
6
CONTINUOUS
10
137.656
20
-49.702
11
137.699
21
-49.4552
0
LINE
8
BLACK
6
CONTINUOUS
10
137.699
20
-49.4552
11
137.867
21
-49.165
0
LINE
8
BLACK
6
CONTINUOUS
10
137.867
20
-49.165
11
138.123
21
-48.9497
0
LINE
8
BLACK
6
CONTINUOUS
10
138.123
20
-48.9497
11
138.438
21
-48.8351
0
LINE
8
BLACK
6
CONTINUOUS
10
138.438
20
-48.8351
11
138.773
21
-48.8351
0
LINE
8
BLACK
6
CONTINUOUS
10
138.773
20
-48.8351
11
139.088
21
-48.9497
0
LINE
8
BLACK
6
CONTINUOUS
10
136.548
20
-48.9497
11
136.805
21
-49.165
0
LINE
8
BLACK
6
CONTINUOUS
10
136.805
20
-49.165
11
136.972
21
-49.4552
0
LINE
8
BLACK
6
CONTINUOUS
10
136.972
20
-49.4552
11
137.016
21
-49.702
0
LINE
8
BLACK
6
CONTINUOUS
10
137.016
20
-49.702
11
137.016
21
-50.5682
0
LINE
8
BLACK
6
CONTINUOUS
10
137.016
20
-50.5682
11
136.972
21
-50.815
0
LINE
8
BLACK
6
CONTINUOUS
10
136.972
20
-50.815
11
136.805
21
-51.1052
0
LINE
8
BLACK
6
CONTINUOUS
10
136.805
20
-51.1052
11
136.548
21
-51.3205
0
LINE
8
BLACK
6
CONTINUOUS
10
136.548
20
-51.3205
11
136.233
21
-51.4351
0
LINE
8
BLACK
6
CONTINUOUS
10
136.233
20
-51.4351
11
135.898
21
-51.4351
0
LINE
8
BLACK
6
CONTINUOUS
10
135.898
20
-51.4351
11
135.583
21
-51.3205
0
LINE
8
BLACK
6
CONTINUOUS
10
135.583
20
-51.3205
11
135.327
21
-51.1052
0
LINE
8
BLACK
6
CONTINUOUS
10
135.327
20
-51.1052
11
135.159
21
-50.815
0
LINE
8
BLACK
6
CONTINUOUS
10
135.159
20
-50.815
11
135.116
21
-50.5682
0
LINE
8
BLACK
6
CONTINUOUS
10
135.116
20
-50.5682
11
135.116
21
-49.702
0
LINE
8
BLACK
6
CONTINUOUS
10
135.116
20
-49.702
11
135.159
21
-49.4552
0
LINE
8
BLACK
6
CONTINUOUS
10
135.159
20
-49.4552
11
135.327
21
-49.165
0
LINE
8
BLACK
6
CONTINUOUS
10
135.327
20
-49.165
11
135.583
21
-48.9497
0
LINE
8
BLACK
6
CONTINUOUS
10
135.583
20
-48.9497
11
135.898
21
-48.8351
0
LINE
8
BLACK
6
CONTINUOUS
10
135.898
20
-48.8351
11
136.233
21
-48.8351
0
LINE
8
BLACK
6
CONTINUOUS
10
136.233
20
-48.8351
11
136.548
21
-48.9497
0
LINE
8
BLACK
6
CONTINUOUS
10
134.008
20
-48.9497
11
134.265
21
-49.165
0
LINE
8
BLACK
6
CONTINUOUS
10
134.265
20
-49.165
11
134.432
21
-49.4552
0
LINE
8
BLACK
6
CONTINUOUS
10
134.432
20
-49.4552
11
134.476
21
-49.702
0
LINE
8
BLACK
6
CONTINUOUS
10
134.476
20
-49.702
11
134.476
21
-50.5682
0
LINE
8
BLACK
6
CONTINUOUS
10
134.476
20
-50.5682
11
134.432
21
-50.815
0
LINE
8
BLACK
6
CONTINUOUS
10
134.432
20
-50.815
11
134.265
21
-51.1052
0
LINE
8
BLACK
6
CONTINUOUS
10
134.265
20
-51.1052
11
134.008
21
-51.3205
0
LINE
8
BLACK
6
CONTINUOUS
10
134.008
20
-51.3205
11
133.693
21
-51.4351
0
LINE
8
BLACK
6
CONTINUOUS
10
133.693
20
-51.4351
11
133.358
21
-51.4351
0
LINE
8
BLACK
6
CONTINUOUS
10
133.358
20
-51.4351
11
133.043
21
-51.3205
0
LINE
8
BLACK
6
CONTINUOUS
10
133.043
20
-51.3205
11
132.787
21
-51.1052
0
LINE
8
BLACK
6
CONTINUOUS
10
132.787
20
-51.1052
11
132.619
21
-50.815
0
LINE
8
BLACK
6
CONTINUOUS
10
132.619
20
-50.815
11
132.576
21
-50.5682
0
LINE
8
BLACK
6
CONTINUOUS
10
132.576
20
-50.5682
11
132.576
21
-49.702
0
LINE
8
BLACK
6
CONTINUOUS
10
132.576
20
-49.702
11
132.619
21
-49.4552
0
LINE
8
BLACK
6
CONTINUOUS
10
132.619
20
-49.4552
11
132.787
21
-49.165
0
LINE
8
BLACK
6
CONTINUOUS
10
132.787
20
-49.165
11
133.043
21
-48.9497
0
LINE
8
BLACK
6
CONTINUOUS
10
133.043
20
-48.9497
11
133.358
21
-48.8351
0
LINE
8
BLACK
6
CONTINUOUS
10
133.358
20
-48.8351
11
133.693
21
-48.8351
0
LINE
8
BLACK
6
CONTINUOUS
10
133.693
20
-48.8351
11
134.008
21
-48.9497
0
LINE
8
BLACK
6
CONTINUOUS
10
131.468
20
-48.9497
11
131.725
21
-49.165
0
LINE
8
BLACK
6
CONTINUOUS
10
131.725
20
-49.165
11
131.892
21
-49.4552
0
LINE
8
BLACK
6
CONTINUOUS
10
131.892
20
-49.4552
11
131.936
21
-49.702
0
LINE
8
BLACK
6
CONTINUOUS
10
131.936
20
-49.702
11
131.936
21
-50.5682
0
LINE
8
BLACK
6
CONTINUOUS
10
131.936
20
-50.5682
11
131.892
21
-50.815
0
LINE
8
BLACK
6
CONTINUOUS
10
131.892
20
-50.815
11
131.725
21
-51.1052
0
LINE
8
BLACK
6
CONTINUOUS
10
131.725
20
-51.1052
11
131.468
21
-51.3205
0
LINE
8
BLACK
6
CONTINUOUS
10
131.468
20
-51.3205
11
131.153
21
-51.4351
0
LINE
8
BLACK
6
CONTINUOUS
10
131.153
20
-51.4351
11
130.818
21
-51.4351
0
LINE
8
BLACK
6
CONTINUOUS
10
130.818
20
-51.4351
11
130.503
21
-51.3205
0
LINE
8
BLACK
6
CONTINUOUS
10
130.503
20
-51.3205
11
130.247
21
-51.1052
0
LINE
8
BLACK
6
CONTINUOUS
10
130.247
20
-51.1052
11
130.079
21
-50.815
0
LINE
8
BLACK
6
CONTINUOUS
10
130.079
20
-50.815
11
130.036
21
-50.5682
0
LINE
8
BLACK
6
CONTINUOUS
10
130.036
20
-50.5682
11
130.036
21
-49.702
0
LINE
8
BLACK
6
CONTINUOUS
10
130.036
20
-49.702
11
130.079
21
-49.4552
0
LINE
8
BLACK
6
CONTINUOUS
10
130.079
20
-49.4552
11
130.247
21
-49.165
0
LINE
8
BLACK
6
CONTINUOUS
10
130.247
20
-49.165
11
130.503
21
-48.9497
0
LINE
8
BLACK
6
CONTINUOUS
10
130.503
20
-48.9497
11
130.818
21
-48.8351
0
LINE
8
BLACK
6
CONTINUOUS
10
130.818
20
-48.8351
11
131.153
21
-48.8351
0
LINE
8
BLACK
6
CONTINUOUS
10
131.153
20
-48.8351
11
131.468
21
-48.9497
0
LINE
8
BLACK
6
CONTINUOUS
10
128.928
20
-48.9497
11
129.185
21
-49.165
0
LINE
8
BLACK
6
CONTINUOUS
10
129.185
20
-49.165
11
129.352
21
-49.4552
0
LINE
8
BLACK
6
CONTINUOUS
10
129.352
20
-49.4552
11
129.396
21
-49.702
0
LINE
8
BLACK
6
CONTINUOUS
10
129.396
20
-49.702
11
129.396
21
-50.5682
0
LINE
8
BLACK
6
CONTINUOUS
10
129.396
20
-50.5682
11
129.352
21
-50.815
0
LINE
8
BLACK
6
CONTINUOUS
10
129.352
20
-50.815
11
129.185
21
-51.1052
0
LINE
8
BLACK
6
CONTINUOUS
10
129.185
20
-51.1052
11
128.928
21
-51.3205
0
LINE
8
BLACK
6
CONTINUOUS
10
128.928
20
-51.3205
11
128.613
21
-51.4351
0
LINE
8
BLACK
6
CONTINUOUS
10
128.613
20
-51.4351
11
128.278
21
-51.4351
0
LINE
8
BLACK
6
CONTINUOUS
10
128.278
20
-51.4351
11
127.963
21
-51.3205
0
LINE
8
BLACK
6
CONTINUOUS
10
127.963
20
-51.3205
11
127.707
21
-51.1052
0
LINE
8
BLACK
6
CONTINUOUS
10
127.707
20
-51.1052
11
127.539
21
-50.815
0
LINE
8
BLACK
6
CONTINUOUS
10
127.539
20
-50.815
11
127.496
21
-50.5682
0
LINE
8
BLACK
6
CONTINUOUS
10
127.496
20
-50.5682
11
127.496
21
-49.702
0
LINE
8
BLACK
6
CONTINUOUS
10
127.496
20
-49.702
11
127.539
21
-49.4552
0
LINE
8
BLACK
6
CONTINUOUS
10
127.539
20
-49.4552
11
127.707
21
-49.165
0
LINE
8
BLACK
6
CONTINUOUS
10
127.707
20
-49.165
11
127.963
21
-48.9497
0
LINE
8
BLACK
6
CONTINUOUS
10
127.963
20
-48.9497
11
128.278
21
-48.8351
0
LINE
8
BLACK
6
CONTINUOUS
10
128.278
20
-48.8351
11
128.613
21
-48.8351
0
LINE
8
BLACK
6
CONTINUOUS
10
128.613
20
-48.8351
11
128.928
21
-48.9497
0
LINE
8
BLACK
6
CONTINUOUS
10
126.388
20
-48.9497
11
126.645
21
-49.165
0
LINE
8
BLACK
6
CONTINUOUS
10
126.645
20
-49.165
11
126.812
21
-49.4552
0
LINE
8
BLACK
6
CONTINUOUS
10
126.812
20
-49.4552
11
126.856
21
-49.702
0
LINE
8
BLACK
6
CONTINUOUS
10
126.856
20
-49.702
11
126.856
21
-50.5682
0
LINE
8
BLACK
6
CONTINUOUS
10
126.856
20
-50.5682
11
126.812
21
-50.815
0
LINE
8
BLACK
6
CONTINUOUS
10
126.812
20
-50.815
11
126.645
21
-51.1052
0
LINE
8
BLACK
6
CONTINUOUS
10
126.645
20
-51.1052
11
126.388
21
-51.3205
0
LINE
8
BLACK
6
CONTINUOUS
10
126.388
20
-51.3205
11
126.073
21
-51.4351
0
LINE
8
BLACK
6
CONTINUOUS
10
126.073
20
-51.4351
11
125.738
21
-51.4351
0
LINE
8
BLACK
6
CONTINUOUS
10
125.738
20
-51.4351
11
125.423
21
-51.3205
0
LINE
8
BLACK
6
CONTINUOUS
10
125.423
20
-51.3205
11
125.167
21
-51.1052
0
LINE
8
BLACK
6
CONTINUOUS
10
125.167
20
-51.1052
11
124.999
21
-50.815
0
LINE
8
BLACK
6
CONTINUOUS
10
124.999
20
-50.815
11
124.956
21
-50.5682
0
LINE
8
BLACK
6
CONTINUOUS
10
124.956
20
-50.5682
11
124.956
21
-49.702
0
LINE
8
BLACK
6
CONTINUOUS
10
124.956
20
-49.702
11
124.999
21
-49.4552
0
LINE
8
BLACK
6
CONTINUOUS
10
124.999
20
-49.4552
11
125.167
21
-49.165
0
LINE
8
BLACK
6
CONTINUOUS
10
125.167
20
-49.165
11
125.423
21
-48.9497
0
LINE
8
BLACK
6
CONTINUOUS
10
125.423
20
-48.9497
11
125.738
21
-48.8351
0
LINE
8
BLACK
6
CONTINUOUS
10
125.738
20
-48.8351
11
126.073
21
-48.8351
0
LINE
8
BLACK
6
CONTINUOUS
10
126.073
20
-48.8351
11
126.388
21
-48.9497
0
LINE
8
BLACK
6
CONTINUOUS
10
123.848
20
-48.9497
11
124.105
21
-49.165
0
LINE
8
BLACK
6
CONTINUOUS
10
124.105
20
-49.165
11
124.272
21
-49.4552
0
LINE
8
BLACK
6
CONTINUOUS
10
124.272
20
-49.4552
11
124.316
21
-49.702
0
LINE
8
BLACK
6
CONTINUOUS
10
124.316
20
-49.702
11
124.316
21
-50.5682
0
LINE
8
BLACK
6
CONTINUOUS
10
124.316
20
-50.5682
11
124.272
21
-50.815
0
LINE
8
BLACK
6
CONTINUOUS
10
124.272
20
-50.815
11
124.105
21
-51.1052
0
LINE
8
BLACK
6
CONTINUOUS
10
124.105
20
-51.1052
11
123.848
21
-51.3205
0
LINE
8
BLACK
6
CONTINUOUS
10
123.848
20
-51.3205
11
123.533
21
-51.4351
0
LINE
8
BLACK
6
CONTINUOUS
10
123.533
20
-51.4351
11
123.198
21
-51.4351
0
LINE
8
BLACK
6
CONTINUOUS
10
123.198
20
-51.4351
11
122.883
21
-51.3205
0
LINE
8
BLACK
6
CONTINUOUS
10
122.883
20
-51.3205
11
122.627
21
-51.1052
0
LINE
8
BLACK
6
CONTINUOUS
10
122.627
20
-51.1052
11
122.459
21
-50.815
0
LINE
8
BLACK
6
CONTINUOUS
10
122.459
20
-50.815
11
122.416
21
-50.5682
0
LINE
8
BLACK
6
CONTINUOUS
10
122.416
20
-50.5682
11
122.416
21
-49.702
0
LINE
8
BLACK
6
CONTINUOUS
10
122.416
20
-49.702
11
122.459
21
-49.4552
0
LINE
8
BLACK
6
CONTINUOUS
10
122.459
20
-49.4552
11
122.627
21
-49.165
0
LINE
8
BLACK
6
CONTINUOUS
10
122.627
20
-49.165
11
122.883
21
-48.9497
0
LINE
8
BLACK
6
CONTINUOUS
10
122.883
20
-48.9497
11
123.198
21
-48.8351
0
LINE
8
BLACK
6
CONTINUOUS
10
123.198
20
-48.8351
11
123.533
21
-48.8351
0
LINE
8
BLACK
6
CONTINUOUS
10
123.533
20
-48.8351
11
123.848
21
-48.9497
0
LINE
8
BLACK
6
CONTINUOUS
10
121.308
20
-48.9497
11
121.565
21
-49.165
0
LINE
8
BLACK
6
CONTINUOUS
10
121.565
20
-49.165
11
121.732
21
-49.4552
0
LINE
8
BLACK
6
CONTINUOUS
10
121.732
20
-49.4552
11
121.776
21
-49.702
0
LINE
8
BLACK
6
CONTINUOUS
10
121.776
20
-49.702
11
121.776
21
-50.5682
0
LINE
8
BLACK
6
CONTINUOUS
10
121.776
20
-50.5682
11
121.732
21
-50.815
0
LINE
8
BLACK
6
CONTINUOUS
10
121.732
20
-50.815
11
121.565
21
-51.1052
0
LINE
8
BLACK
6
CONTINUOUS
10
121.565
20
-51.1052
11
121.308
21
-51.3205
0
LINE
8
BLACK
6
CONTINUOUS
10
121.308
20
-51.3205
11
120.993
21
-51.4351
0
LINE
8
BLACK
6
CONTINUOUS
10
120.993
20
-51.4351
11
120.658
21
-51.4351
0
LINE
8
BLACK
6
CONTINUOUS
10
120.658
20
-51.4351
11
120.343
21
-51.3205
0
LINE
8
BLACK
6
CONTINUOUS
10
120.343
20
-51.3205
11
120.087
21
-51.1052
0
LINE
8
BLACK
6
CONTINUOUS
10
120.087
20
-51.1052
11
119.919
21
-50.815
0
LINE
8
BLACK
6
CONTINUOUS
10
119.919
20
-50.815
11
119.876
21
-50.5682
0
LINE
8
BLACK
6
CONTINUOUS
10
119.876
20
-50.5682
11
119.876
21
-49.702
0
LINE
8
BLACK
6
CONTINUOUS
10
119.876
20
-49.702
11
119.919
21
-49.4552
0
LINE
8
BLACK
6
CONTINUOUS
10
119.919
20
-49.4552
11
120.087
21
-49.165
0
LINE
8
BLACK
6
CONTINUOUS
10
120.087
20
-49.165
11
120.343
21
-48.9497
0
LINE
8
BLACK
6
CONTINUOUS
10
120.343
20
-48.9497
11
120.658
21
-48.8351
0
LINE
8
BLACK
6
CONTINUOUS
10
120.658
20
-48.8351
11
120.993
21
-48.8351
0
LINE
8
BLACK
6
CONTINUOUS
10
120.993
20
-48.8351
11
121.308
21
-48.9497
0
LINE
8
BLACK
6
CONTINUOUS
10
118.768
20
-48.9497
11
119.025
21
-49.165
0
LINE
8
BLACK
6
CONTINUOUS
10
119.025
20
-49.165
11
119.192
21
-49.4552
0
LINE
8
BLACK
6
CONTINUOUS
10
119.192
20
-49.4552
11
119.236
21
-49.702
0
LINE
8
BLACK
6
CONTINUOUS
10
119.236
20
-49.702
11
119.236
21
-50.5682
0
LINE
8
BLACK
6
CONTINUOUS
10
119.236
20
-50.5682
11
119.192
21
-50.815
0
LINE
8
BLACK
6
CONTINUOUS
10
119.192
20
-50.815
11
119.025
21
-51.1052
0
LINE
8
BLACK
6
CONTINUOUS
10
119.025
20
-51.1052
11
118.768
21
-51.3205
0
LINE
8
BLACK
6
CONTINUOUS
10
118.768
20
-51.3205
11
118.453
21
-51.4351
0
LINE
8
BLACK
6
CONTINUOUS
10
118.453
20
-51.4351
11
118.118
21
-51.4351
0
LINE
8
BLACK
6
CONTINUOUS
10
118.118
20
-51.4351
11
117.803
21
-51.3205
0
LINE
8
BLACK
6
CONTINUOUS
10
117.803
20
-51.3205
11
117.547
21
-51.1052
0
LINE
8
BLACK
6
CONTINUOUS
10
117.547
20
-51.1052
11
117.379
21
-50.815
0
LINE
8
BLACK
6
CONTINUOUS
10
117.379
20
-50.815
11
117.336
21
-50.5682
0
LINE
8
BLACK
6
CONTINUOUS
10
117.336
20
-50.5682
11
117.336
21
-49.702
0
LINE
8
BLACK
6
CONTINUOUS
10
117.336
20
-49.702
11
117.379
21
-49.4552
0
LINE
8
BLACK
6
CONTINUOUS
10
117.379
20
-49.4552
11
117.547
21
-49.165
0
LINE
8
BLACK
6
CONTINUOUS
10
117.547
20
-49.165
11
117.803
21
-48.9497
0
LINE
8
BLACK
6
CONTINUOUS
10
117.803
20
-48.9497
11
118.118
21
-48.8351
0
LINE
8
BLACK
6
CONTINUOUS
10
118.118
20
-48.8351
11
118.453
21
-48.8351
0
LINE
8
BLACK
6
CONTINUOUS
10
118.453
20
-48.8351
11
118.768
21
-48.9497
0
LINE
8
BLACK
6
CONTINUOUS
10
116.228
20
-48.9497
11
116.485
21
-49.165
0
LINE
8
BLACK
6
CONTINUOUS
10
116.485
20
-49.165
11
116.652
21
-49.4552
0
LINE
8
BLACK
6
CONTINUOUS
10
116.652
20
-49.4552
11
116.696
21
-49.702
0
LINE
8
BLACK
6
CONTINUOUS
10
116.696
20
-49.702
11
116.696
21
-50.5682
0
LINE
8
BLACK
6
CONTINUOUS
10
116.696
20
-50.5682
11
116.652
21
-50.815
0
LINE
8
BLACK
6
CONTINUOUS
10
116.652
20
-50.815
11
116.485
21
-51.1052
0
LINE
8
BLACK
6
CONTINUOUS
10
116.485
20
-51.1052
11
116.228
21
-51.3205
0
LINE
8
BLACK
6
CONTINUOUS
10
116.228
20
-51.3205
11
115.913
21
-51.4351
0
LINE
8
BLACK
6
CONTINUOUS
10
115.913
20
-51.4351
11
115.578
21
-51.4351
0
LINE
8
BLACK
6
CONTINUOUS
10
115.578
20
-51.4351
11
115.263
21
-51.3205
0
LINE
8
BLACK
6
CONTINUOUS
10
115.263
20
-51.3205
11
115.007
21
-51.1052
0
LINE
8
BLACK
6
CONTINUOUS
10
115.007
20
-51.1052
11
114.839
21
-50.815
0
LINE
8
BLACK
6
CONTINUOUS
10
114.839
20
-50.815
11
114.796
21
-50.5682
0
LINE
8
BLACK
6
CONTINUOUS
10
114.796
20
-50.5682
11
114.796
21
-49.702
0
LINE
8
BLACK
6
CONTINUOUS
10
114.796
20
-49.702
11
114.839
21
-49.4552
0
LINE
8
BLACK
6
CONTINUOUS
10
114.839
20
-49.4552
11
115.007
21
-49.165
0
LINE
8
BLACK
6
CONTINUOUS
10
115.007
20
-49.165
11
115.263
21
-48.9497
0
LINE
8
BLACK
6
CONTINUOUS
10
115.263
20
-48.9497
11
115.578
21
-48.8351
0
LINE
8
BLACK
6
CONTINUOUS
10
115.578
20
-48.8351
11
115.913
21
-48.8351
0
LINE
8
BLACK
6
CONTINUOUS
10
115.913
20
-48.8351
11
116.228
21
-48.9497
0
LINE
8
BLACK
6
CONTINUOUS
10
113.688
20
-48.9497
11
113.945
21
-49.165
0
LINE
8
BLACK
6
CONTINUOUS
10
113.945
20
-49.165
11
114.112
21
-49.4552
0
LINE
8
BLACK
6
CONTINUOUS
10
114.112
20
-49.4552
11
114.156
21
-49.702
0
LINE
8
BLACK
6
CONTINUOUS
10
114.156
20
-49.702
11
114.156
21
-50.5682
0
LINE
8
BLACK
6
CONTINUOUS
10
114.156
20
-50.5682
11
114.112
21
-50.815
0
LINE
8
BLACK
6
CONTINUOUS
10
114.112
20
-50.815
11
113.945
21
-51.1052
0
LINE
8
BLACK
6
CONTINUOUS
10
113.945
20
-51.1052
11
113.688
21
-51.3205
0
LINE
8
BLACK
6
CONTINUOUS
10
113.688
20
-51.3205
11
113.373
21
-51.4351
0
LINE
8
BLACK
6
CONTINUOUS
10
113.373
20
-51.4351
11
113.038
21
-51.4351
0
LINE
8
BLACK
6
CONTINUOUS
10
113.038
20
-51.4351
11
112.723
21
-51.3205
0
LINE
8
BLACK
6
CONTINUOUS
10
112.723
20
-51.3205
11
112.467
21
-51.1052
0
LINE
8
BLACK
6
CONTINUOUS
10
112.467
20
-51.1052
11
112.299
21
-50.815
0
LINE
8
BLACK
6
CONTINUOUS
10
112.299
20
-50.815
11
112.256
21
-50.5682
0
LINE
8
BLACK
6
CONTINUOUS
10
112.256
20
-50.5682
11
112.256
21
-49.702
0
LINE
8
BLACK
6
CONTINUOUS
10
112.256
20
-49.702
11
112.299
21
-49.4552
0
LINE
8
BLACK
6
CONTINUOUS
10
112.299
20
-49.4552
11
112.467
21
-49.165
0
LINE
8
BLACK
6
CONTINUOUS
10
112.467
20
-49.165
11
112.723
21
-48.9497
0
LINE
8
BLACK
6
CONTINUOUS
10
112.723
20
-48.9497
11
113.038
21
-48.8351
0
LINE
8
BLACK
6
CONTINUOUS
10
113.038
20
-48.8351
11
113.373
21
-48.8351
0
LINE
8
BLACK
6
CONTINUOUS
10
113.373
20
-48.8351
11
113.688
21
-48.9497
0
LINE
8
BLACK
6
CONTINUOUS
10
111.148
20
-48.9497
11
111.405
21
-49.165
0
LINE
8
BLACK
6
CONTINUOUS
10
111.405
20
-49.165
11
111.572
21
-49.4552
0
LINE
8
BLACK
6
CONTINUOUS
10
111.572
20
-49.4552
11
111.616
21
-49.702
0
LINE
8
BLACK
6
CONTINUOUS
10
111.616
20
-49.702
11
111.616
21
-50.5682
0
LINE
8
BLACK
6
CONTINUOUS
10
111.616
20
-50.5682
11
111.572
21
-50.815
0
LINE
8
BLACK
6
CONTINUOUS
10
111.572
20
-50.815
11
111.405
21
-51.1052
0
LINE
8
BLACK
6
CONTINUOUS
10
111.405
20
-51.1052
11
111.148
21
-51.3205
0
LINE
8
BLACK
6
CONTINUOUS
10
111.148
20
-51.3205
11
110.833
21
-51.4351
0
LINE
8
BLACK
6
CONTINUOUS
10
110.833
20
-51.4351
11
110.498
21
-51.4351
0
LINE
8
BLACK
6
CONTINUOUS
10
110.498
20
-51.4351
11
110.183
21
-51.3205
0
LINE
8
BLACK
6
CONTINUOUS
10
110.183
20
-51.3205
11
109.927
21
-51.1052
0
LINE
8
BLACK
6
CONTINUOUS
10
109.927
20
-51.1052
11
109.759
21
-50.815
0
LINE
8
BLACK
6
CONTINUOUS
10
109.759
20
-50.815
11
109.716
21
-50.5682
0
LINE
8
BLACK
6
CONTINUOUS
10
109.716
20
-50.5682
11
109.716
21
-49.702
0
LINE
8
BLACK
6
CONTINUOUS
10
109.716
20
-49.702
11
109.759
21
-49.4552
0
LINE
8
BLACK
6
CONTINUOUS
10
109.759
20
-49.4552
11
109.927
21
-49.165
0
LINE
8
BLACK
6
CONTINUOUS
10
109.927
20
-49.165
11
110.183
21
-48.9497
0
LINE
8
BLACK
6
CONTINUOUS
10
110.183
20
-48.9497
11
110.498
21
-48.8351
0
LINE
8
BLACK
6
CONTINUOUS
10
110.498
20
-48.8351
11
110.833
21
-48.8351
0
LINE
8
BLACK
6
CONTINUOUS
10
110.833
20
-48.8351
11
111.148
21
-48.9497
0
LINE
8
BLACK
6
CONTINUOUS
10
108.608
20
-48.9497
11
108.865
21
-49.165
0
LINE
8
BLACK
6
CONTINUOUS
10
108.865
20
-49.165
11
109.032
21
-49.4552
0
LINE
8
BLACK
6
CONTINUOUS
10
109.032
20
-49.4552
11
109.076
21
-49.702
0
LINE
8
BLACK
6
CONTINUOUS
10
109.076
20
-49.702
11
109.076
21
-50.5682
0
LINE
8
BLACK
6
CONTINUOUS
10
109.076
20
-50.5682
11
109.032
21
-50.815
0
LINE
8
BLACK
6
CONTINUOUS
10
109.032
20
-50.815
11
108.865
21
-51.1052
0
LINE
8
BLACK
6
CONTINUOUS
10
108.865
20
-51.1052
11
108.608
21
-51.3205
0
LINE
8
BLACK
6
CONTINUOUS
10
108.608
20
-51.3205
11
108.293
21
-51.4351
0
LINE
8
BLACK
6
CONTINUOUS
10
108.293
20
-51.4351
11
107.958
21
-51.4351
0
LINE
8
BLACK
6
CONTINUOUS
10
107.958
20
-51.4351
11
107.643
21
-51.3205
0
LINE
8
BLACK
6
CONTINUOUS
10
107.643
20
-51.3205
11
107.387
21
-51.1052
0
LINE
8
BLACK
6
CONTINUOUS
10
107.387
20
-51.1052
11
107.219
21
-50.815
0
LINE
8
BLACK
6
CONTINUOUS
10
107.219
20
-50.815
11
107.176
21
-50.5682
0
LINE
8
BLACK
6
CONTINUOUS
10
107.176
20
-50.5682
11
107.176
21
-49.702
0
LINE
8
BLACK
6
CONTINUOUS
10
107.176
20
-49.702
11
107.219
21
-49.4552
0
LINE
8
BLACK
6
CONTINUOUS
10
107.219
20
-49.4552
11
107.387
21
-49.165
0
LINE
8
BLACK
6
CONTINUOUS
10
107.387
20
-49.165
11
107.643
21
-48.9497
0
LINE
8
BLACK
6
CONTINUOUS
10
107.643
20
-48.9497
11
107.958
21
-48.8351
0
LINE
8
BLACK
6
CONTINUOUS
10
107.958
20
-48.8351
11
108.293
21
-48.8351
0
LINE
8
BLACK
6
CONTINUOUS
10
108.293
20
-48.8351
11
108.608
21
-48.9497
0
LINE
8
BLACK
6
CONTINUOUS
10
106.068
20
-48.9497
11
106.325
21
-49.165
0
LINE
8
BLACK
6
CONTINUOUS
10
106.325
20
-49.165
11
106.492
21
-49.4552
0
LINE
8
BLACK
6
CONTINUOUS
10
106.492
20
-49.4552
11
106.536
21
-49.702
0
LINE
8
BLACK
6
CONTINUOUS
10
106.536
20
-49.702
11
106.536
21
-50.5682
0
LINE
8
BLACK
6
CONTINUOUS
10
106.536
20
-50.5682
11
106.492
21
-50.815
0
LINE
8
BLACK
6
CONTINUOUS
10
106.492
20
-50.815
11
106.325
21
-51.1052
0
LINE
8
BLACK
6
CONTINUOUS
10
106.325
20
-51.1052
11
106.068
21
-51.3205
0
LINE
8
BLACK
6
CONTINUOUS
10
106.068
20
-51.3205
11
105.753
21
-51.4351
0
LINE
8
BLACK
6
CONTINUOUS
10
105.753
20
-51.4351
11
105.418
21
-51.4351
0
LINE
8
BLACK
6
CONTINUOUS
10
105.418
20
-51.4351
11
105.103
21
-51.3205
0
LINE
8
BLACK
6
CONTINUOUS
10
105.103
20
-51.3205
11
104.847
21
-51.1052
0
LINE
8
BLACK
6
CONTINUOUS
10
104.847
20
-51.1052
11
104.679
21
-50.815
0
LINE
8
BLACK
6
CONTINUOUS
10
104.679
20
-50.815
11
104.636
21
-50.5682
0
LINE
8
BLACK
6
CONTINUOUS
10
104.636
20
-50.5682
11
104.636
21
-49.702
0
LINE
8
BLACK
6
CONTINUOUS
10
104.636
20
-49.702
11
104.679
21
-49.4552
0
LINE
8
BLACK
6
CONTINUOUS
10
104.679
20
-49.4552
11
104.847
21
-49.165
0
LINE
8
BLACK
6
CONTINUOUS
10
104.847
20
-49.165
11
105.103
21
-48.9497
0
LINE
8
BLACK
6
CONTINUOUS
10
105.103
20
-48.9497
11
105.418
21
-48.8351
0
LINE
8
BLACK
6
CONTINUOUS
10
105.418
20
-48.8351
11
105.753
21
-48.8351
0
LINE
8
BLACK
6
CONTINUOUS
10
105.753
20
-48.8351
11
106.068
21
-48.9497
0
LINE
8
BLACK
6
CONTINUOUS
10
103.528
20
-48.9497
11
103.785
21
-49.165
0
LINE
8
BLACK
6
CONTINUOUS
10
103.785
20
-49.165
11
103.952
21
-49.4552
0
LINE
8
BLACK
6
CONTINUOUS
10
103.952
20
-49.4552
11
103.996
21
-49.702
0
LINE
8
BLACK
6
CONTINUOUS
10
103.996
20
-49.702
11
103.996
21
-50.5682
0
LINE
8
BLACK
6
CONTINUOUS
10
103.996
20
-50.5682
11
103.952
21
-50.815
0
LINE
8
BLACK
6
CONTINUOUS
10
103.952
20
-50.815
11
103.785
21
-51.1052
0
LINE
8
BLACK
6
CONTINUOUS
10
103.785
20
-51.1052
11
103.528
21
-51.3205
0
LINE
8
BLACK
6
CONTINUOUS
10
103.528
20
-51.3205
11
103.213
21
-51.4351
0
LINE
8
BLACK
6
CONTINUOUS
10
103.213
20
-51.4351
11
102.878
21
-51.4351
0
LINE
8
BLACK
6
CONTINUOUS
10
102.878
20
-51.4351
11
102.563
21
-51.3205
0
LINE
8
BLACK
6
CONTINUOUS
10
102.563
20
-51.3205
11
102.307
21
-51.1052
0
LINE
8
BLACK
6
CONTINUOUS
10
102.307
20
-51.1052
11
102.139
21
-50.815
0
LINE
8
BLACK
6
CONTINUOUS
10
102.139
20
-50.815
11
102.096
21
-50.5682
0
LINE
8
BLACK
6
CONTINUOUS
10
102.096
20
-50.5682
11
102.096
21
-49.702
0
LINE
8
BLACK
6
CONTINUOUS
10
102.096
20
-49.702
11
102.139
21
-49.4552
0
LINE
8
BLACK
6
CONTINUOUS
10
102.139
20
-49.4552
11
102.307
21
-49.165
0
LINE
8
BLACK
6
CONTINUOUS
10
102.307
20
-49.165
11
102.563
21
-48.9497
0
LINE
8
BLACK
6
CONTINUOUS
10
102.563
20
-48.9497
11
102.878
21
-48.8351
0
LINE
8
BLACK
6
CONTINUOUS
10
102.878
20
-48.8351
11
103.213
21
-48.8351
0
LINE
8
BLACK
6
CONTINUOUS
10
103.213
20
-48.8351
11
103.528
21
-48.9497
0
LINE
8
BLACK
6
CONTINUOUS
10
141.628
20
-48.9497
11
141.885
21
-49.165
0
LINE
8
BLACK
6
CONTINUOUS
10
141.885
20
-49.165
11
142.052
21
-49.4552
0
LINE
8
BLACK
6
CONTINUOUS
10
142.052
20
-49.4552
11
142.096
21
-49.702
0
LINE
8
BLACK
6
CONTINUOUS
10
142.096
20
-49.702
11
142.096
21
-50.5682
0
LINE
8
BLACK
6
CONTINUOUS
10
142.096
20
-50.5682
11
142.052
21
-50.815
0
LINE
8
BLACK
6
CONTINUOUS
10
142.052
20
-50.815
11
141.885
21
-51.1052
0
LINE
8
BLACK
6
CONTINUOUS
10
141.885
20
-51.1052
11
141.628
21
-51.3205
0
LINE
8
BLACK
6
CONTINUOUS
10
141.628
20
-51.3205
11
141.313
21
-51.4351
0
LINE
8
BLACK
6
CONTINUOUS
10
141.313
20
-51.4351
11
140.978
21
-51.4351
0
LINE
8
BLACK
6
CONTINUOUS
10
140.978
20
-51.4351
11
140.663
21
-51.3205
0
LINE
8
BLACK
6
CONTINUOUS
10
140.663
20
-51.3205
11
140.407
21
-51.1052
0
LINE
8
BLACK
6
CONTINUOUS
10
140.407
20
-51.1052
11
140.239
21
-50.815
0
LINE
8
BLACK
6
CONTINUOUS
10
140.239
20
-50.815
11
140.196
21
-50.5682
0
LINE
8
BLACK
6
CONTINUOUS
10
140.196
20
-50.5682
11
140.196
21
-49.702
0
LINE
8
BLACK
6
CONTINUOUS
10
140.196
20
-49.702
11
140.239
21
-49.4552
0
LINE
8
BLACK
6
CONTINUOUS
10
140.239
20
-49.4552
11
140.407
21
-49.165
0
LINE
8
BLACK
6
CONTINUOUS
10
140.407
20
-49.165
11
140.663
21
-48.9497
0
LINE
8
BLACK
6
CONTINUOUS
10
140.663
20
-48.9497
11
140.978
21
-48.8351
0
LINE
8
BLACK
6
CONTINUOUS
10
140.978
20
-48.8351
11
141.313
21
-48.8351
0
LINE
8
BLACK
6
CONTINUOUS
10
141.313
20
-48.8351
11
141.628
21
-48.9497
0
LINE
8
BLACK
6
CONTINUOUS
10
92.1934
20
-135.075
11
92.1868
21
-135.075
0
LINE
8
BLACK
6
CONTINUOUS
10
92.1868
20
-135.075
11
92.1805
21
-135.073
0
LINE
8
BLACK
6
CONTINUOUS
10
92.1805
20
-135.073
11
92.174
21
-135.072
0
LINE
8
BLACK
6
CONTINUOUS
10
92.174
20
-135.072
11
92.1682
21
-135.068
0
LINE
8
BLACK
6
CONTINUOUS
10
92.1682
20
-135.068
11
92.1619
21
-135.066
0
LINE
8
BLACK
6
CONTINUOUS
10
92.1619
20
-135.066
11
92.1568
21
-135.062
0
LINE
8
BLACK
6
CONTINUOUS
10
92.1568
20
-135.062
11
92.151
21
-135.058
0
LINE
8
BLACK
6
CONTINUOUS
10
92.151
20
-135.058
11
92.1468
21
-135.053
0
LINE
8
BLACK
6
CONTINUOUS
10
92.1468
20
-135.053
11
92.1417
21
-135.049
0
LINE
8
BLACK
6
CONTINUOUS
10
92.1417
20
-135.049
11
92.1383
21
-135.043
0
LINE
8
BLACK
6
CONTINUOUS
10
92.1383
20
-135.043
11
92.134
21
-135.038
0
LINE
8
BLACK
6
CONTINUOUS
10
92.134
20
-135.038
11
92.1318
21
-135.032
0
LINE
8
BLACK
6
CONTINUOUS
10
92.1318
20
-135.032
11
92.1284
21
-135.026
0
LINE
8
BLACK
6
CONTINUOUS
10
92.1284
20
-135.026
11
92.1273
21
-135.019
0
LINE
8
BLACK
6
CONTINUOUS
10
92.1273
20
-135.019
11
92.125
21
-135.013
0
LINE
8
BLACK
6
CONTINUOUS
10
92.125
20
-135.013
11
92.125
21
-135.007
0
LINE
8
BLACK
6
CONTINUOUS
10
92.125
20
-135.007
11
92.125
21
-135.007
0
LINE
8
BLACK
6
CONTINUOUS
10
92.125
20
-135.007
11
92.125
21
-45.9934
0
LINE
8
BLACK
6
CONTINUOUS
10
92.125
20
-45.9934
11
92.125
21
-45.9868
0
LINE
8
BLACK
6
CONTINUOUS
10
92.125
20
-45.9868
11
92.1273
21
-45.9805
0
LINE
8
BLACK
6
CONTINUOUS
10
92.1273
20
-45.9805
11
92.1284
21
-45.974
0
LINE
8
BLACK
6
CONTINUOUS
10
92.1284
20
-45.974
11
92.1318
21
-45.9682
0
LINE
8
BLACK
6
CONTINUOUS
10
92.1318
20
-45.9682
11
92.134
21
-45.9619
0
LINE
8
BLACK
6
CONTINUOUS
10
92.134
20
-45.9619
11
92.1383
21
-45.9568
0
LINE
8
BLACK
6
CONTINUOUS
10
92.1383
20
-45.9568
11
92.1417
21
-45.951
0
LINE
8
BLACK
6
CONTINUOUS
10
92.1417
20
-45.951
11
92.1468
21
-45.9468
0
LINE
8
BLACK
6
CONTINUOUS
10
92.1468
20
-45.9468
11
92.151
21
-45.9417
0
LINE
8
BLACK
6
CONTINUOUS
10
92.151
20
-45.9417
11
92.1568
21
-45.9383
0
LINE
8
BLACK
6
CONTINUOUS
10
92.1568
20
-45.9383
11
92.1619
21
-45.934
0
LINE
8
BLACK
6
CONTINUOUS
10
92.1619
20
-45.934
11
92.1682
21
-45.9318
0
LINE
8
BLACK
6
CONTINUOUS
10
92.1682
20
-45.9318
11
92.174
21
-45.9284
0
LINE
8
BLACK
6
CONTINUOUS
10
92.174
20
-45.9284
11
92.1805
21
-45.9273
0
LINE
8
BLACK
6
CONTINUOUS
10
92.1805
20
-45.9273
11
92.1868
21
-45.925
0
LINE
8
BLACK
6
CONTINUOUS
10
92.1868
20
-45.925
11
92.1934
21
-45.925
0
LINE
8
BLACK
6
CONTINUOUS
10
92.1934
20
-45.925
11
92.1934
21
-45.925
0
LINE
8
BLACK
6
CONTINUOUS
10
92.1934
20
-45.925
11
191.801
21
-45.925
0
LINE
8
BLACK
6
CONTINUOUS
10
191.801
20
-45.925
11
191.813
21
-45.925
0
LINE
8
BLACK
6
CONTINUOUS
10
191.813
20
-45.925
11
191.819
21
-45.9273
0
LINE
8
BLACK
6
CONTINUOUS
10
191.819
20
-45.9273
11
191.826
21
-45.9284
0
LINE
8
BLACK
6
CONTINUOUS
10
191.826
20
-45.9284
11
191.832
21
-45.9317
0
LINE
8
BLACK
6
CONTINUOUS
10
191.832
20
-45.9317
11
191.838
21
-45.934
0
LINE
8
BLACK
6
CONTINUOUS
10
191.838
20
-45.934
11
191.843
21
-45.9383
0
LINE
8
BLACK
6
CONTINUOUS
10
191.843
20
-45.9383
11
191.849
21
-45.9417
0
LINE
8
BLACK
6
CONTINUOUS
10
191.849
20
-45.9417
11
191.853
21
-45.9467
0
LINE
8
BLACK
6
CONTINUOUS
10
191.853
20
-45.9467
11
191.858
21
-45.9509
0
LINE
8
BLACK
6
CONTINUOUS
10
191.858
20
-45.9509
11
191.862
21
-45.9567
0
LINE
8
BLACK
6
CONTINUOUS
10
191.862
20
-45.9567
11
191.866
21
-45.9619
0
LINE
8
BLACK
6
CONTINUOUS
10
191.866
20
-45.9619
11
191.868
21
-45.9681
0
LINE
8
BLACK
6
CONTINUOUS
10
191.868
20
-45.9681
11
191.872
21
-45.9738
0
LINE
8
BLACK
6
CONTINUOUS
10
191.872
20
-45.9738
11
191.873
21
-45.9804
0
LINE
8
BLACK
6
CONTINUOUS
10
191.873
20
-45.9804
11
191.875
21
-45.9868
0
LINE
8
BLACK
6
CONTINUOUS
10
191.875
20
-45.9868
11
191.875
21
-45.9995
0
LINE
8
BLACK
6
CONTINUOUS
10
191.875
20
-45.9995
11
192.075
21
-134.987
0
LINE
8
BLACK
6
CONTINUOUS
10
192.075
20
-134.987
11
192.075
21
-134.987
0
LINE
8
BLACK
6
CONTINUOUS
10
192.075
20
-134.987
11
192.075
21
-135
0
LINE
8
BLACK
6
CONTINUOUS
10
192.075
20
-135
11
192.075
21
-135.006
0
LINE
8
BLACK
6
CONTINUOUS
10
192.075
20
-135.006
11
192.075
21
-135.006
0
LINE
8
BLACK
6
CONTINUOUS
10
192.075
20
-135.006
11
192.075
21
-135.013
0
LINE
8
BLACK
6
CONTINUOUS
10
192.075
20
-135.013
11
192.073
21
-135.019
0
LINE
8
BLACK
6
CONTINUOUS
10
192.073
20
-135.019
11
192.072
21
-135.026
0
LINE
8
BLACK
6
CONTINUOUS
10
192.072
20
-135.026
11
192.068
21
-135.032
0
LINE
8
BLACK
6
CONTINUOUS
10
192.068
20
-135.032
11
192.066
21
-135.038
0
LINE
8
BLACK
6
CONTINUOUS
10
192.066
20
-135.038
11
192.062
21
-135.043
0
LINE
8
BLACK
6
CONTINUOUS
10
192.062
20
-135.043
11
192.058
21
-135.049
0
LINE
8
BLACK
6
CONTINUOUS
10
192.058
20
-135.049
11
192.053
21
-135.053
0
LINE
8
BLACK
6
CONTINUOUS
10
192.053
20
-135.053
11
192.049
21
-135.058
0
LINE
8
BLACK
6
CONTINUOUS
10
192.049
20
-135.058
11
192.043
21
-135.062
0
LINE
8
BLACK
6
CONTINUOUS
10
192.043
20
-135.062
11
192.038
21
-135.066
0
LINE
8
BLACK
6
CONTINUOUS
10
192.038
20
-135.066
11
192.032
21
-135.068
0
LINE
8
BLACK
6
CONTINUOUS
10
192.032
20
-135.068
11
192.026
21
-135.072
0
LINE
8
BLACK
6
CONTINUOUS
10
192.026
20
-135.072
11
192.02
21
-135.073
0
LINE
8
BLACK
6
CONTINUOUS
10
192.02
20
-135.073
11
192.013
21
-135.075
0
LINE
8
BLACK
6
CONTINUOUS
10
192.013
20
-135.075
11
192.007
21
-135.075
0
LINE
8
BLACK
6
CONTINUOUS
10
192.007
20
-135.075
11
192.007
21
-135.075
0
LINE
8
BLACK
6
CONTINUOUS
10
192.007
20
-135.075
11
191.999
21
-135.075
0
LINE
8
BLACK
6
CONTINUOUS
10
191.999
20
-135.075
11
191.987
21
-135.075
0
LINE
8
BLACK
6
CONTINUOUS
10
191.987
20
-135.075
11
191.987
21
-135.075
0
LINE
8
BLACK
6
CONTINUOUS
10
191.987
20
-135.075
11
92.1934
21
-135.075
0
LINE
8
BLACK
6
CONTINUOUS
10
92.1934
20
-135.075
11
92.1934
21
-135.075
0
LINE
8
BLACK
6
CONTINUOUS
10
191.725
20
-46.075
11
92.275
21
-46.075
0
LINE
8
BLACK
6
CONTINUOUS
10
92.275
20
-46.075
11
92.275
21
-134.925
0
LINE
8
BLACK
6
CONTINUOUS
10
92.275
20
-134.925
11
191.925
21
-134.925
0
LINE
8
BLACK
6
CONTINUOUS
10
191.925
20
-134.925
11
191.725
21
-46.075
  0
ENDSEC
  0
EOF
