<?xml version="1.0" standalone="no"?>
 <!DOCTYPE svg PUBLIC "-//W3C//DTD SVG 1.1//EN" 
 "http://www.w3.org/Graphics/SVG/1.1/DTD/svg11.dtd"> 
<svg xmlns="http://www.w3.org/2000/svg" version="1.1" 
    width="10.2235cm" height="8.91794cm" viewBox="0 0 40250 35110 ">
<title>SVG Picture created as nivel y temperatura-F.Cu.svg date 2019/06/17 11:50:30 </title>
  <desc>Picture generated by PCBNEW </desc>
<g style="fill:#000000; fill-opacity:1;stroke:#000000; stroke-opacity:1;
stroke-linecap:round; stroke-linejoin:round; "
 transform="translate(0 0) scale(1 1)">
</g>
<g style="fill:#000000; fill-opacity:0.0; 
stroke:#000000; stroke-width:-0.000393701; stroke-opacity:1; 
stroke-linecap:round; stroke-linejoin:round;">
</g>
<g style="fill:#848400; fill-opacity:0.0; 
stroke:#848400; stroke-width:-0.000393701; stroke-opacity:1; 
stroke-linecap:round; stroke-linejoin:round;">
</g>
<g style="fill:#848400; fill-opacity:0.0; 
stroke:#848400; stroke-width:590.551; stroke-opacity:1; 
stroke-linecap:round; stroke-linejoin:round;">
<path d="M19299 1531
L19299 1807
" />
<path d="M18299 1531
L18299 1807
" />
<path d="M17299 1531
L17299 1807
" />
<path d="M16299 1531
L16299 1807
" />
<path d="M15299 1531
L15299 1807
" />
<path d="M14299 1531
L14299 1807
" />
<path d="M13299 1531
L13299 1807
" />
<path d="M12299 1531
L12299 1807
" />
<path d="M11299 1531
L11299 1807
" />
<path d="M10299 1531
L10299 1807
" />
<path d="M9299 1531
L9299 1807
" />
<path d="M8299 1531
L8299 1807
" />
<path d="M7299 1531
L7299 1807
" />
<path d="M6299 1531
L6299 1807
" />
<path d="M5299 1531
L5299 1807
" />
<path d="M4299 1531
L4299 1807
" />
</g>
<g style="fill:#848400; fill-opacity:0.0; 
stroke:#848400; stroke-width:0; stroke-opacity:1; 
stroke-linecap:round; stroke-linejoin:round;">
</g>
<g style="fill:#848400; fill-opacity:1.0; 
stroke:#848400; stroke-width:0; stroke-opacity:1; 
stroke-linecap:round; stroke-linejoin:round;">
<polyline style="fill-rule:evenodd;"
points="14635,30985
14635,30316
15304,30316
15304,30985
14635,30985
" /> 
</g>
<g style="fill:#848400; fill-opacity:1.0; 
stroke:#848400; stroke-width:669.291; stroke-opacity:1; 
stroke-linecap:round; stroke-linejoin:round;">
</g>
<g style="fill:#848400; fill-opacity:0.0; 
stroke:#848400; stroke-width:669.291; stroke-opacity:1; 
stroke-linecap:round; stroke-linejoin:round;">
<path d="M14970 31651
L14970 31651
" />
<path d="M14970 32651
L14970 32651
" />
<path d="M14970 33651
L14970 33651
" />
</g>
<g style="fill:#848400; fill-opacity:0.0; 
stroke:#848400; stroke-width:629.921; stroke-opacity:1; 
stroke-linecap:round; stroke-linejoin:round;">
<path d="M37650 25071
L37650 25071
" />
<path d="M37650 31071
L37650 31071
" />
<path d="M23650 25071
L23650 25071
" />
<path d="M36650 31071
L36650 31071
" />
<path d="M24650 25071
L24650 25071
" />
<path d="M35650 31071
L35650 31071
" />
<path d="M25650 25071
L25650 25071
" />
<path d="M34650 31071
L34650 31071
" />
<path d="M26650 25071
L26650 25071
" />
<path d="M33650 31071
L33650 31071
" />
<path d="M27650 25071
L27650 25071
" />
<path d="M32650 31071
L32650 31071
" />
<path d="M28650 25071
L28650 25071
" />
<path d="M31650 31071
L31650 31071
" />
<path d="M29650 25071
L29650 25071
" />
<path d="M30650 31071
L30650 31071
" />
<path d="M30650 25071
L30650 25071
" />
<path d="M29650 31071
L29650 31071
" />
<path d="M31650 25071
L31650 25071
" />
<path d="M28650 31071
L28650 31071
" />
<path d="M32650 25071
L32650 25071
" />
<path d="M27650 31071
L27650 31071
" />
<path d="M33650 25071
L33650 25071
" />
<path d="M26650 31071
L26650 31071
" />
<path d="M34650 25071
L34650 25071
" />
<path d="M25650 31071
L25650 31071
" />
<path d="M35650 25071
L35650 25071
" />
</g>
<g style="fill:#848400; fill-opacity:0.0; 
stroke:#848400; stroke-width:669.291; stroke-opacity:1; 
stroke-linecap:round; stroke-linejoin:round;">
<path d="M24650 31071
L24650 31071
" />
</g>
<g style="fill:#848400; fill-opacity:0.0; 
stroke:#848400; stroke-width:629.921; stroke-opacity:1; 
stroke-linecap:round; stroke-linejoin:round;">
<path d="M36650 25071
L36650 25071
" />
</g>
<g style="fill:#848400; fill-opacity:0.0; 
stroke:#848400; stroke-width:0; stroke-opacity:1; 
stroke-linecap:round; stroke-linejoin:round;">
</g>
<g style="fill:#848400; fill-opacity:1.0; 
stroke:#848400; stroke-width:0; stroke-opacity:1; 
stroke-linecap:round; stroke-linejoin:round;">
<polyline style="fill-rule:evenodd;"
points="23984,31405
23315,31405
23315,30736
23984,30736
23984,31405
" /> 
</g>
<g style="fill:#840000; fill-opacity:1.0; 
stroke:#840000; stroke-width:0; stroke-opacity:1; 
stroke-linecap:round; stroke-linejoin:round;">
<polyline style="fill-rule:evenodd;"
points="7083,31915
7092,31917
7102,31919
7111,31922
7120,31926
7128,31931
7136,31937
7143,31944
7149,31951
7155,31958
7160,31967
7164,31975
7167,31985
7170,31994
7171,32003
7172,32013
7172,32328
7171,32338
7170,32347
7167,32357
7164,32366
7160,32374
7155,32383
7149,32391
7143,32398
7136,32404
7128,32410
7120,32415
7111,32419
7102,32422
7092,32425
7083,32426
7073,32427
6748,32427
6739,32426
6729,32425
6720,32422
6711,32419
6702,32415
6694,32410
6686,32404
6679,32398
6672,32391
6667,32383
6662,32374
6658,32366
6654,32357
6652,32347
6651,32338
6650,32328
6650,32013
6651,32003
6652,31994
6654,31985
6658,31975
6662,31967
6667,31958
6672,31951
6679,31944
6686,31937
6694,31931
6702,31926
6711,31922
6720,31919
6729,31917
6739,31915
6748,31915
7073,31915
7083,31915
" /> 
<polyline style="fill-rule:evenodd;"
points="7841,31915
7850,31917
7860,31919
7869,31922
7878,31926
7886,31931
7894,31937
7901,31944
7907,31951
7913,31958
7918,31967
7922,31975
7925,31985
7928,31994
7929,32003
7930,32013
7930,32328
7929,32338
7928,32347
7925,32357
7922,32366
7918,32374
7913,32383
7907,32391
7901,32398
7894,32404
7886,32410
7878,32415
7869,32419
7860,32422
7850,32425
7841,32426
7831,32427
7506,32427
7497,32426
7487,32425
7478,32422
7469,32419
7460,32415
7452,32410
7444,32404
7437,32398
7430,32391
7425,32383
7420,32374
7415,32366
7412,32357
7410,32347
7408,32338
7408,32328
7408,32013
7408,32003
7410,31994
7412,31985
7415,31975
7420,31967
7425,31958
7430,31951
7437,31944
7444,31937
7452,31931
7460,31926
7469,31922
7478,31919
7487,31917
7497,31915
7506,31915
7831,31915
7841,31915
" /> 
<polyline style="fill-rule:evenodd;"
points="5564,28815
5573,28817
5583,28819
5592,28823
5601,28827
5609,28832
5617,28837
5624,28844
5630,28851
5636,28859
5641,28867
5645,28876
5648,28885
5651,28894
5652,28904
5653,28913
5653,29268
5652,29277
5651,29287
5648,29296
5645,29305
5641,29314
5636,29322
5630,29330
5624,29337
5617,29344
5609,29350
5601,29355
5592,29359
5583,29362
5573,29364
5564,29366
5554,29366
5298,29366
5289,29366
5279,29364
5270,29362
5261,29359
5252,29355
5244,29350
5236,29344
5229,29337
5222,29330
5216,29322
5212,29314
5207,29305
5204,29296
5202,29287
5200,29277
5200,29268
5200,28913
5200,28904
5202,28894
5204,28885
5207,28876
5212,28867
5216,28859
5222,28851
5229,28844
5236,28837
5244,28832
5252,28827
5261,28823
5270,28819
5279,28817
5289,28815
5298,28815
5554,28815
5564,28815
" /> 
<polyline style="fill-rule:evenodd;"
points="6371,28815
6381,28817
6390,28819
6399,28823
6408,28827
6416,28832
6424,28837
6431,28844
6437,28851
6443,28859
6448,28867
6452,28876
6455,28885
6458,28894
6459,28904
6460,28913
6460,29268
6459,29277
6458,29287
6455,29296
6452,29305
6448,29314
6443,29322
6437,29330
6431,29337
6424,29344
6416,29350
6408,29355
6399,29359
6390,29362
6381,29364
6371,29366
6361,29366
6105,29366
6096,29366
6086,29364
6077,29362
6068,29359
6059,29355
6051,29350
6043,29344
6036,29337
6029,29330
6024,29322
6019,29314
6014,29305
6011,29296
6009,29287
6007,29277
6007,29268
6007,28913
6007,28904
6009,28894
6011,28885
6014,28876
6019,28867
6024,28859
6029,28851
6036,28844
6043,28837
6051,28832
6059,28827
6068,28823
6077,28819
6086,28817
6096,28815
6105,28815
6361,28815
6371,28815
" /> 
<polyline style="fill-rule:evenodd;"
points="7851,28815
7861,28817
7870,28819
7879,28823
7888,28827
7896,28832
7904,28837
7911,28844
7917,28851
7923,28859
7928,28867
7932,28876
7935,28885
7938,28894
7939,28904
7940,28913
7940,29268
7939,29277
7938,29287
7935,29296
7932,29305
7928,29314
7923,29322
7917,29330
7911,29337
7904,29344
7896,29350
7888,29355
7879,29359
7870,29362
7861,29364
7851,29366
7841,29366
7585,29366
7576,29366
7566,29364
7557,29362
7548,29359
7539,29355
7531,29350
7523,29344
7516,29337
7509,29330
7504,29322
7499,29314
7494,29305
7491,29296
7489,29287
7487,29277
7487,29268
7487,28913
7487,28904
7489,28894
7491,28885
7494,28876
7499,28867
7504,28859
7509,28851
7516,28844
7523,28837
7531,28832
7539,28827
7548,28823
7557,28819
7566,28817
7576,28815
7585,28815
7841,28815
7851,28815
" /> 
<polyline style="fill-rule:evenodd;"
points="7044,28815
7053,28817
7063,28819
7072,28823
7081,28827
7089,28832
7097,28837
7104,28844
7110,28851
7116,28859
7121,28867
7125,28876
7128,28885
7131,28894
7132,28904
7133,28913
7133,29268
7132,29277
7131,29287
7128,29296
7125,29305
7121,29314
7116,29322
7110,29330
7104,29337
7097,29344
7089,29350
7081,29355
7072,29359
7063,29362
7053,29364
7044,29366
7034,29366
6778,29366
6769,29366
6759,29364
6750,29362
6741,29359
6732,29355
6724,29350
6716,29344
6709,29337
6702,29330
6696,29322
6692,29314
6687,29305
6684,29296
6682,29287
6680,29277
6680,29268
6680,28913
6680,28904
6682,28894
6684,28885
6687,28876
6692,28867
6696,28859
6702,28851
6709,28844
6716,28837
6724,28832
6732,28827
6741,28823
6750,28819
6759,28817
6769,28815
6778,28815
7034,28815
7044,28815
" /> 
</g>
<g style="fill:#848400; fill-opacity:1.0; 
stroke:#848400; stroke-width:0; stroke-opacity:1; 
stroke-linecap:round; stroke-linejoin:round;">
<polyline style="fill-rule:evenodd;"
points="26864,34145
26195,34145
26195,33476
26864,33476
26864,34145
" /> 
</g>
<g style="fill:#848400; fill-opacity:1.0; 
stroke:#848400; stroke-width:669.291; stroke-opacity:1; 
stroke-linecap:round; stroke-linejoin:round;">
</g>
<g style="fill:#848400; fill-opacity:0.0; 
stroke:#848400; stroke-width:669.291; stroke-opacity:1; 
stroke-linecap:round; stroke-linejoin:round;">
<path d="M27530 33811
L27530 33811
" />
<path d="M28530 33811
L28530 33811
" />
<path d="M29530 33811
L29530 33811
" />
</g>
<g style="fill:#848400; fill-opacity:0.0; 
stroke:#848400; stroke-width:0; stroke-opacity:1; 
stroke-linecap:round; stroke-linejoin:round;">
</g>
<g style="fill:#848400; fill-opacity:1.0; 
stroke:#848400; stroke-width:0; stroke-opacity:1; 
stroke-linecap:round; stroke-linejoin:round;">
<polyline style="fill-rule:evenodd;"
points="33344,34165
32675,34165
32675,33496
33344,33496
33344,34165
" /> 
</g>
<g style="fill:#848400; fill-opacity:1.0; 
stroke:#848400; stroke-width:669.291; stroke-opacity:1; 
stroke-linecap:round; stroke-linejoin:round;">
</g>
<g style="fill:#848400; fill-opacity:0.0; 
stroke:#848400; stroke-width:669.291; stroke-opacity:1; 
stroke-linecap:round; stroke-linejoin:round;">
<path d="M34010 33831
L34010 33831
" />
<path d="M35010 33831
L35010 33831
" />
<path d="M36010 33831
L36010 33831
" />
<path d="M37010 33831
L37010 33831
" />
<path d="M38010 33831
L38010 33831
" />
</g>
<g style="fill:#848400; fill-opacity:0.0; 
stroke:#848400; stroke-width:0; stroke-opacity:1; 
stroke-linecap:round; stroke-linejoin:round;">
</g>
<g style="fill:#848400; fill-opacity:1.0; 
stroke:#848400; stroke-width:0; stroke-opacity:1; 
stroke-linecap:round; stroke-linejoin:round;">
<polyline style="fill-rule:evenodd;"
points="9535,33534
9535,32767
10204,32767
10204,33534
9535,33534
" /> 
</g>
<g style="fill:#848400; fill-opacity:1.0; 
stroke:#848400; stroke-width:669.291; stroke-opacity:1; 
stroke-linecap:round; stroke-linejoin:round;">
</g>
<g style="fill:#848400; fill-opacity:0.0; 
stroke:#848400; stroke-width:669.291; stroke-opacity:1; 
stroke-linecap:round; stroke-linejoin:round;">
<path d="M10854 33101
L10854 33200
" />
<path d="M11838 33101
L11838 33200
" />
<path d="M12823 33101
L12823 33200
" />
</g>
<g style="fill:#840000; fill-opacity:0.0; 
stroke:#840000; stroke-width:669.291; stroke-opacity:1; 
stroke-linecap:round; stroke-linejoin:round;">
</g>
<g style="fill:#840000; fill-opacity:0.0; 
stroke:#840000; stroke-width:0; stroke-opacity:1; 
stroke-linecap:round; stroke-linejoin:round;">
</g>
<g style="fill:#840000; fill-opacity:1.0; 
stroke:#840000; stroke-width:0; stroke-opacity:1; 
stroke-linecap:round; stroke-linejoin:round;">
<polyline style="fill-rule:evenodd;"
points="12808,27703
12808,26718
14382,26718
14382,27703
12808,27703
" /> 
<polyline style="fill-rule:evenodd;"
points="15957,27703
15957,26718
17532,26718
17532,27703
15957,27703
" /> 
<polyline style="fill-rule:evenodd;"
points="8481,26743
8481,25758
9859,25758
9859,26743
8481,26743
" /> 
<polyline style="fill-rule:evenodd;"
points="11040,26743
11040,25758
12418,25758
12418,26743
11040,26743
" /> 
<polyline style="fill-rule:evenodd;"
points="10370,30745
10370,30036
11355,30036
11355,30745
10370,30745
" /> 
<polyline style="fill-rule:evenodd;"
points="11945,30745
11945,30036
12929,30036
12929,30745
11945,30745
" /> 
</g>
<g style="fill:#848400; fill-opacity:1.0; 
stroke:#848400; stroke-width:0; stroke-opacity:1; 
stroke-linecap:round; stroke-linejoin:round;">
<polyline style="fill-rule:evenodd;"
points="979,33281
979,32100
2160,32100
2160,33281
979,33281
" /> 
<circle cx="3570.32" cy="32691.1" r="590.5" /> 
</g>
<g style="fill:#848400; fill-opacity:1.0; 
stroke:#848400; stroke-width:39.3701; stroke-opacity:1; 
stroke-linecap:round; stroke-linejoin:round;">
</g>
<g style="fill:#840000; fill-opacity:1.0; 
stroke:#840000; stroke-width:39.3701; stroke-opacity:1; 
stroke-linecap:round; stroke-linejoin:round;">
</g>
<g style="fill:#840000; fill-opacity:1.0; 
stroke:#840000; stroke-width:0; stroke-opacity:1; 
stroke-linecap:round; stroke-linejoin:round;">
<polyline style="fill-rule:evenodd;"
points="4815,26424
4815,25558
5405,25558
5405,26424
4815,26424
" /> 
<polyline style="fill-rule:evenodd;"
points="7334,26424
7334,25558
7925,25558
7925,26424
7334,26424
" /> 
<polyline style="fill-rule:evenodd;"
points="9331,28815
9341,28817
9350,28819
9359,28823
9368,28827
9376,28832
9384,28837
9391,28844
9397,28851
9403,28859
9408,28867
9412,28876
9415,28885
9418,28894
9419,28904
9420,28913
9420,29268
9419,29277
9418,29287
9415,29296
9412,29305
9408,29314
9403,29322
9397,29330
9391,29337
9384,29344
9376,29350
9368,29355
9359,29359
9350,29362
9341,29364
9331,29366
9321,29366
9065,29366
9056,29366
9046,29364
9037,29362
9028,29359
9019,29355
9011,29350
9003,29344
8996,29337
8989,29330
8984,29322
8979,29314
8974,29305
8971,29296
8969,29287
8967,29277
8967,29268
8967,28913
8967,28904
8969,28894
8971,28885
8974,28876
8979,28867
8984,28859
8989,28851
8996,28844
9003,28837
9011,28832
9019,28827
9028,28823
9037,28819
9046,28817
9056,28815
9065,28815
9321,28815
9331,28815
" /> 
<polyline style="fill-rule:evenodd;"
points="8524,28815
8533,28817
8543,28819
8552,28823
8561,28827
8569,28832
8577,28837
8584,28844
8590,28851
8596,28859
8601,28867
8605,28876
8608,28885
8611,28894
8612,28904
8613,28913
8613,29268
8612,29277
8611,29287
8608,29296
8605,29305
8601,29314
8596,29322
8590,29330
8584,29337
8577,29344
8569,29350
8561,29355
8552,29359
8543,29362
8533,29364
8524,29366
8514,29366
8258,29366
8249,29366
8239,29364
8230,29362
8221,29359
8212,29355
8204,29350
8196,29344
8189,29337
8182,29330
8176,29322
8172,29314
8167,29305
8164,29296
8162,29287
8160,29277
8160,29268
8160,28913
8160,28904
8162,28894
8164,28885
8167,28876
8172,28867
8176,28859
8182,28851
8189,28844
8196,28837
8204,28832
8212,28827
8221,28823
8230,28819
8239,28817
8249,28815
8258,28815
8514,28815
8524,28815
" /> 
<polyline style="fill-rule:evenodd;"
points="10004,28815
10013,28817
10023,28819
10032,28823
10041,28827
10049,28832
10057,28837
10064,28844
10070,28851
10076,28859
10081,28867
10085,28876
10088,28885
10091,28894
10092,28904
10093,28913
10093,29268
10092,29277
10091,29287
10088,29296
10085,29305
10081,29314
10076,29322
10070,29330
10064,29337
10057,29344
10049,29350
10041,29355
10032,29359
10023,29362
10013,29364
10004,29366
9994,29366
9738,29366
9729,29366
9719,29364
9710,29362
9701,29359
9692,29355
9684,29350
9676,29344
9669,29337
9662,29330
9656,29322
9652,29314
9647,29305
9644,29296
9642,29287
9640,29277
9640,29268
9640,28913
9640,28904
9642,28894
9644,28885
9647,28876
9652,28867
9656,28859
9662,28851
9669,28844
9676,28837
9684,28832
9692,28827
9701,28823
9710,28819
9719,28817
9729,28815
9738,28815
9994,28815
10004,28815
" /> 
<polyline style="fill-rule:evenodd;"
points="10811,28815
10821,28817
10830,28819
10839,28823
10848,28827
10856,28832
10864,28837
10871,28844
10877,28851
10883,28859
10888,28867
10892,28876
10895,28885
10898,28894
10899,28904
10900,28913
10900,29268
10899,29277
10898,29287
10895,29296
10892,29305
10888,29314
10883,29322
10877,29330
10871,29337
10864,29344
10856,29350
10848,29355
10839,29359
10830,29362
10821,29364
10811,29366
10801,29366
10545,29366
10536,29366
10526,29364
10517,29362
10508,29359
10499,29355
10491,29350
10483,29344
10476,29337
10469,29330
10464,29322
10459,29314
10454,29305
10451,29296
10449,29287
10447,29277
10447,29268
10447,28913
10447,28904
10449,28894
10451,28885
10454,28876
10459,28867
10464,28859
10469,28851
10476,28844
10483,28837
10491,28832
10499,28827
10508,28823
10517,28819
10526,28817
10536,28815
10545,28815
10801,28815
10811,28815
" /> 
<circle cx="6809.06" cy="33313" r="275.591" /> 
</g>
<g style="fill:#840000; fill-opacity:1.0; 
stroke:#840000; stroke-width:39.3701; stroke-opacity:1; 
stroke-linecap:round; stroke-linejoin:round;">
</g>
<g style="fill:#840000; fill-opacity:1.0; 
stroke:#840000; stroke-width:0; stroke-opacity:1; 
stroke-linecap:round; stroke-linejoin:round;">
<circle cx="7809.06" cy="33313" r="275.591" /> 
</g>
<g style="fill:#840000; fill-opacity:1.0; 
stroke:#840000; stroke-width:39.3701; stroke-opacity:1; 
stroke-linecap:round; stroke-linejoin:round;">
</g>
<g style="fill:#840000; fill-opacity:1.0; 
stroke:#840000; stroke-width:0; stroke-opacity:1; 
stroke-linecap:round; stroke-linejoin:round;">
<polyline style="fill-rule:evenodd;"
points="1208,30950
775,30950
775,29139
1208,29139
1208,30950
" /> 
<polyline style="fill-rule:evenodd;"
points="1877,30950
1444,30950
1444,29139
1877,29139
1877,30950
" /> 
<polyline style="fill-rule:evenodd;"
points="2546,30950
2113,30950
2113,29139
2546,29139
2546,30950
" /> 
<polyline style="fill-rule:evenodd;"
points="3216,30950
2783,30950
2783,29139
3216,29139
3216,30950
" /> 
<polyline style="fill-rule:evenodd;"
points="3885,30950
3452,30950
3452,29139
3885,29139
3885,30950
" /> 
<polyline style="fill-rule:evenodd;"
points="4456,28292
204,28292
204,24591
4456,24591
4456,28292
" /> 
<polyline style="fill-rule:evenodd;"
points="11484,28815
11493,28817
11503,28819
11512,28823
11521,28827
11529,28832
11537,28837
11544,28844
11550,28851
11556,28859
11561,28867
11565,28876
11568,28885
11571,28894
11572,28904
11573,28913
11573,29268
11572,29277
11571,29287
11568,29296
11565,29305
11561,29314
11556,29322
11550,29330
11544,29337
11537,29344
11529,29350
11521,29355
11512,29359
11503,29362
11493,29364
11484,29366
11474,29366
11218,29366
11209,29366
11199,29364
11190,29362
11181,29359
11172,29355
11164,29350
11156,29344
11149,29337
11142,29330
11136,29322
11132,29314
11127,29305
11124,29296
11122,29287
11120,29277
11120,29268
11120,28913
11120,28904
11122,28894
11124,28885
11127,28876
11132,28867
11136,28859
11142,28851
11149,28844
11156,28837
11164,28832
11172,28827
11181,28823
11190,28819
11199,28817
11209,28815
11218,28815
11474,28815
11484,28815
" /> 
<polyline style="fill-rule:evenodd;"
points="12291,28815
12301,28817
12310,28819
12319,28823
12328,28827
12336,28832
12344,28837
12351,28844
12357,28851
12363,28859
12368,28867
12372,28876
12375,28885
12378,28894
12379,28904
12380,28913
12380,29268
12379,29277
12378,29287
12375,29296
12372,29305
12368,29314
12363,29322
12357,29330
12351,29337
12344,29344
12336,29350
12328,29355
12319,29359
12310,29362
12301,29364
12291,29366
12281,29366
12025,29366
12016,29366
12006,29364
11997,29362
11988,29359
11979,29355
11971,29350
11963,29344
11956,29337
11949,29330
11944,29322
11939,29314
11934,29305
11931,29296
11929,29287
11927,29277
11927,29268
11927,28913
11927,28904
11929,28894
11931,28885
11934,28876
11939,28867
11944,28859
11949,28851
11956,28844
11963,28837
11971,28832
11979,28827
11988,28823
11997,28819
12006,28817
12016,28815
12025,28815
12281,28815
12291,28815
" /> 
</g>
<g style="fill:#848400; fill-opacity:1.0; 
stroke:#848400; stroke-width:0; stroke-opacity:1; 
stroke-linecap:round; stroke-linejoin:round;">
<circle cx="20750.3" cy="27081.1" r="354.331" /> 
</g>
<g style="fill:#848400; fill-opacity:1.0; 
stroke:#848400; stroke-width:39.3701; stroke-opacity:1; 
stroke-linecap:round; stroke-linejoin:round;">
</g>
<g style="fill:#848400; fill-opacity:1.0; 
stroke:#848400; stroke-width:0; stroke-opacity:1; 
stroke-linecap:round; stroke-linejoin:round;">
<circle cx="18790.3" cy="27081.1" r="354.331" /> 
</g>
<g style="fill:#848400; fill-opacity:1.0; 
stroke:#848400; stroke-width:39.3701; stroke-opacity:1; 
stroke-linecap:round; stroke-linejoin:round;">
</g>
<g style="fill:#848400; fill-opacity:1.0; 
stroke:#848400; stroke-width:0; stroke-opacity:1; 
stroke-linecap:round; stroke-linejoin:round;">
<circle cx="19870.3" cy="28381.1" r="354.331" /> 
</g>
<g style="fill:#848400; fill-opacity:1.0; 
stroke:#848400; stroke-width:39.3701; stroke-opacity:1; 
stroke-linecap:round; stroke-linejoin:round;">
</g>
<g style="fill:#C2C2C2; fill-opacity:1.0; 
stroke:#C2C2C2; stroke-width:39.3701; stroke-opacity:1; 
stroke-linecap:round; stroke-linejoin:round;">
</g>
<g style="fill:#C2C2C2; fill-opacity:1.0; 
stroke:#C2C2C2; stroke-width:0; stroke-opacity:1; 
stroke-linecap:round; stroke-linejoin:round;">
<circle cx="16730.3" cy="28431.1" r="334.646" /> 
</g>
<g style="fill:#C2C2C2; fill-opacity:1.0; 
stroke:#C2C2C2; stroke-width:39.3701; stroke-opacity:1; 
stroke-linecap:round; stroke-linejoin:round;">
</g>
<g style="fill:#C2C2C2; fill-opacity:1.0; 
stroke:#C2C2C2; stroke-width:0; stroke-opacity:1; 
stroke-linecap:round; stroke-linejoin:round;">
<circle cx="13530.3" cy="30631.1" r="334.646" /> 
</g>
<g style="fill:#C2C2C2; fill-opacity:1.0; 
stroke:#C2C2C2; stroke-width:39.3701; stroke-opacity:1; 
stroke-linecap:round; stroke-linejoin:round;">
</g>
<g style="fill:#C2C2C2; fill-opacity:1.0; 
stroke:#C2C2C2; stroke-width:0; stroke-opacity:1; 
stroke-linecap:round; stroke-linejoin:round;">
<circle cx="25530.3" cy="33331.1" r="334.646" /> 
</g>
<g style="fill:#C2C2C2; fill-opacity:1.0; 
stroke:#C2C2C2; stroke-width:39.3701; stroke-opacity:1; 
stroke-linecap:round; stroke-linejoin:round;">
</g>
<g style="fill:#C2C2C2; fill-opacity:1.0; 
stroke:#C2C2C2; stroke-width:0; stroke-opacity:1; 
stroke-linecap:round; stroke-linejoin:round;">
<circle cx="22430.3" cy="27231.1" r="334.646" /> 
</g>
<g style="fill:#C2C2C2; fill-opacity:1.0; 
stroke:#C2C2C2; stroke-width:39.3701; stroke-opacity:1; 
stroke-linecap:round; stroke-linejoin:round;">
</g>
<g style="fill:#C2C2C2; fill-opacity:1.0; 
stroke:#C2C2C2; stroke-width:0; stroke-opacity:1; 
stroke-linecap:round; stroke-linejoin:round;">
<circle cx="7230.32" cy="28131.1" r="334.646" /> 
</g>
<g style="fill:#C2C2C2; fill-opacity:1.0; 
stroke:#C2C2C2; stroke-width:39.3701; stroke-opacity:1; 
stroke-linecap:round; stroke-linejoin:round;">
</g>
<g style="fill:#C2C2C2; fill-opacity:1.0; 
stroke:#C2C2C2; stroke-width:0; stroke-opacity:1; 
stroke-linecap:round; stroke-linejoin:round;">
<circle cx="30924" cy="33524.8" r="334.646" /> 
</g>
<g style="fill:#C2C2C2; fill-opacity:1.0; 
stroke:#C2C2C2; stroke-width:39.3701; stroke-opacity:1; 
stroke-linecap:round; stroke-linejoin:round;">
</g>
<g style="fill:#C2C2C2; fill-opacity:1.0; 
stroke:#C2C2C2; stroke-width:0; stroke-opacity:1; 
stroke-linecap:round; stroke-linejoin:round;">
<circle cx="33786.5" cy="32242.9" r="334.646" /> 
</g>
<g style="fill:#C2C2C2; fill-opacity:1.0; 
stroke:#C2C2C2; stroke-width:39.3701; stroke-opacity:1; 
stroke-linecap:round; stroke-linejoin:round;">
</g>
<g style="fill:#C2C2C2; fill-opacity:1.0; 
stroke:#C2C2C2; stroke-width:0; stroke-opacity:1; 
stroke-linecap:round; stroke-linejoin:round;">
<circle cx="32876.9" cy="28021.5" r="334.646" /> 
</g>
<g style="fill:#C2C2C2; fill-opacity:1.0; 
stroke:#C2C2C2; stroke-width:39.3701; stroke-opacity:1; 
stroke-linecap:round; stroke-linejoin:round;">
</g>
<g style="fill:#C2C2C2; fill-opacity:1.0; 
stroke:#C2C2C2; stroke-width:0; stroke-opacity:1; 
stroke-linecap:round; stroke-linejoin:round;">
<circle cx="25030.3" cy="26631.1" r="334.646" /> 
</g>
<g style="fill:#C2C2C2; fill-opacity:1.0; 
stroke:#C2C2C2; stroke-width:39.3701; stroke-opacity:1; 
stroke-linecap:round; stroke-linejoin:round;">
</g>
<g style="fill:#C2C2C2; fill-opacity:1.0; 
stroke:#C2C2C2; stroke-width:0; stroke-opacity:1; 
stroke-linecap:round; stroke-linejoin:round;">
<circle cx="28130.3" cy="27931.1" r="334.646" /> 
</g>
<g style="fill:#C2C2C2; fill-opacity:1.0; 
stroke:#C2C2C2; stroke-width:39.3701; stroke-opacity:1; 
stroke-linecap:round; stroke-linejoin:round;">
</g>
<g style="fill:#C2C2C2; fill-opacity:1.0; 
stroke:#C2C2C2; stroke-width:0; stroke-opacity:1; 
stroke-linecap:round; stroke-linejoin:round;">
<circle cx="8430.32" cy="32231.1" r="334.646" /> 
</g>
<g style="fill:#C2C2C2; fill-opacity:1.0; 
stroke:#C2C2C2; stroke-width:39.3701; stroke-opacity:1; 
stroke-linecap:round; stroke-linejoin:round;">
</g>
<g style="fill:#C2C2C2; fill-opacity:1.0; 
stroke:#C2C2C2; stroke-width:0; stroke-opacity:1; 
stroke-linecap:round; stroke-linejoin:round;">
<circle cx="13064.9" cy="31832.7" r="334.646" /> 
</g>
<g style="fill:#C2C2C2; fill-opacity:1.0; 
stroke:#C2C2C2; stroke-width:39.3701; stroke-opacity:1; 
stroke-linecap:round; stroke-linejoin:round;">
</g>
<g style="fill:#C2C2C2; fill-opacity:1.0; 
stroke:#C2C2C2; stroke-width:0; stroke-opacity:1; 
stroke-linecap:round; stroke-linejoin:round;">
<circle cx="9430.32" cy="25031.1" r="334.646" /> 
</g>
<g style="fill:#C2C2C2; fill-opacity:1.0; 
stroke:#C2C2C2; stroke-width:39.3701; stroke-opacity:1; 
stroke-linecap:round; stroke-linejoin:round;">
</g>
<g style="fill:#C2C2C2; fill-opacity:1.0; 
stroke:#C2C2C2; stroke-width:0; stroke-opacity:1; 
stroke-linecap:round; stroke-linejoin:round;">
<circle cx="10030.3" cy="27419.3" r="334.646" /> 
</g>
<g style="fill:#C2C2C2; fill-opacity:1.0; 
stroke:#C2C2C2; stroke-width:39.3701; stroke-opacity:1; 
stroke-linecap:round; stroke-linejoin:round;">
</g>
<g style="fill:#C2C2C2; fill-opacity:1.0; 
stroke:#C2C2C2; stroke-width:0; stroke-opacity:1; 
stroke-linecap:round; stroke-linejoin:round;">
<circle cx="11630.3" cy="27419.3" r="334.646" /> 
</g>
<g style="fill:#C2C2C2; fill-opacity:1.0; 
stroke:#C2C2C2; stroke-width:39.3701; stroke-opacity:1; 
stroke-linecap:round; stroke-linejoin:round;">
</g>
<g style="fill:#C2C2C2; fill-opacity:1.0; 
stroke:#C2C2C2; stroke-width:0; stroke-opacity:1; 
stroke-linecap:round; stroke-linejoin:round;">
<circle cx="21618.3" cy="22491.2" r="334.646" /> 
</g>
<g style="fill:#C2C2C2; fill-opacity:1.0; 
stroke:#C2C2C2; stroke-width:39.3701; stroke-opacity:1; 
stroke-linecap:round; stroke-linejoin:round;">
</g>
<g style="fill:#C2C2C2; fill-opacity:1.0; 
stroke:#C2C2C2; stroke-width:0; stroke-opacity:1; 
stroke-linecap:round; stroke-linejoin:round;">
<circle cx="13830.7" cy="28642.9" r="334.646" /> 
</g>
<g style="fill:#C2C2C2; fill-opacity:1.0; 
stroke:#C2C2C2; stroke-width:39.3701; stroke-opacity:1; 
stroke-linecap:round; stroke-linejoin:round;">
</g>
<g style="fill:#C2C2C2; fill-opacity:1.0; 
stroke:#C2C2C2; stroke-width:0; stroke-opacity:1; 
stroke-linecap:round; stroke-linejoin:round;">
<circle cx="4630.32" cy="30331.1" r="334.646" /> 
</g>
<g style="fill:#C2C2C2; fill-opacity:1.0; 
stroke:#C2C2C2; stroke-width:39.3701; stroke-opacity:1; 
stroke-linecap:round; stroke-linejoin:round;">
</g>
<g style="fill:#C2C2C2; fill-opacity:1.0; 
stroke:#C2C2C2; stroke-width:0; stroke-opacity:1; 
stroke-linecap:round; stroke-linejoin:round;">
<circle cx="1630.32" cy="28731.1" r="334.646" /> 
</g>
<g style="fill:#C2C2C2; fill-opacity:1.0; 
stroke:#C2C2C2; stroke-width:39.3701; stroke-opacity:1; 
stroke-linecap:round; stroke-linejoin:round;">
</g>
<g style="fill:#C2C2C2; fill-opacity:1.0; 
stroke:#C2C2C2; stroke-width:0; stroke-opacity:1; 
stroke-linecap:round; stroke-linejoin:round;">
<circle cx="3330.32" cy="28731.1" r="334.646" /> 
</g>
<g style="fill:#C2C2C2; fill-opacity:1.0; 
stroke:#C2C2C2; stroke-width:39.3701; stroke-opacity:1; 
stroke-linecap:round; stroke-linejoin:round;">
</g>
<g style="fill:#C2C2C2; fill-opacity:1.0; 
stroke:#C2C2C2; stroke-width:0; stroke-opacity:1; 
stroke-linecap:round; stroke-linejoin:round;">
<circle cx="8337.51" cy="30243.7" r="334.646" /> 
</g>
<g style="fill:#C2C2C2; fill-opacity:1.0; 
stroke:#C2C2C2; stroke-width:39.3701; stroke-opacity:1; 
stroke-linecap:round; stroke-linejoin:round;">
</g>
<g style="fill:#C2C2C2; fill-opacity:1.0; 
stroke:#C2C2C2; stroke-width:0; stroke-opacity:1; 
stroke-linecap:round; stroke-linejoin:round;">
<circle cx="2930.32" cy="31431.1" r="334.646" /> 
</g>
<g style="fill:#C2C2C2; fill-opacity:1.0; 
stroke:#C2C2C2; stroke-width:39.3701; stroke-opacity:1; 
stroke-linecap:round; stroke-linejoin:round;">
</g>
<g style="fill:#C2C2C2; fill-opacity:1.0; 
stroke:#C2C2C2; stroke-width:0; stroke-opacity:1; 
stroke-linecap:round; stroke-linejoin:round;">
<circle cx="9230.32" cy="30231.1" r="334.646" /> 
</g>
<g style="fill:#C2C2C2; fill-opacity:1.0; 
stroke:#C2C2C2; stroke-width:39.3701; stroke-opacity:1; 
stroke-linecap:round; stroke-linejoin:round;">
</g>
<g style="fill:#840000; fill-opacity:1.0; 
stroke:#840000; stroke-width:39.3701; stroke-opacity:1; 
stroke-linecap:round; stroke-linejoin:round;">
</g>
<g style="fill:#840000; fill-opacity:1.0; 
stroke:#840000; stroke-width:196.85; stroke-opacity:1; 
stroke-linecap:round; stroke-linejoin:round;">
</g>
<g style="fill:#840000; fill-opacity:0.0; 
stroke:#840000; stroke-width:196.85; stroke-opacity:1; 
stroke-linecap:round; stroke-linejoin:round;">
<path d="M2330 31143
L2330 30044
" />
<path d="M1570 31903
L2330 31143
" />
<path d="M1570 32691
L1570 31903
" />
<path d="M6911 32352
L7870 33311
" />
<path d="M6911 32171
L6911 32352
" />
<path d="M6911 29095
L6906 29091
" />
<path d="M6911 32171
L6911 29095
" />
<path d="M10673 27110
L11532 26251
" />
<path d="M10673 29091
L10673 27110
" />
<path d="M14800 26251
L11729 26251
" />
<path d="M15760 27211
L14800 26251
" />
<path d="M16745 27211
L15760 27211
" />
<path d="M12430 32758
L12823 33151
" />
<path d="M12437 30391
L12430 30398
" />
<path d="M12430 30398
L12430 32758
" />
<path d="M11532 26251
L11729 26251
" />
<path d="M19299 1531
L19299 1669
" />
<path d="M18807 1039
L19299 1531
" />
<path d="M8791 1039
L18807 1039
" />
<path d="M8299 1531
L8791 1039
" />
<path d="M8299 1531
L8299 1669
" />
<path d="M2330 30044
L2330 26442
" />
<path d="M2427 32691
L1570 32691
" />
<path d="M3668 31450
L2427 32691
" />
<path d="M3668 30044
L3668 31450
" />
<path d="M5106 32171
L6911 32171
" />
<path d="M3668 30733
L5106 32171
" />
<path d="M3668 30044
L3668 30733
" />
<path d="M16745 27211
L16745 28416
" />
<path d="M16745 28416
L16730 28431
" />
<path d="M13290 30391
L13530 30631
" />
<path d="M12437 30391
L13290 30391
" />
<path d="M25562 33299
L25530 33331
" />
<path d="M29530 33811
L29018 33299
" />
<path d="M29018 33299
L25562 33299
" />
<path d="M22810 27231
L22430 27231
" />
<path d="M26650 31071
L22810 27231
" />
<path d="M6906 29091
L6906 28454
" />
<path d="M6906 28454
L7230 28131
" />
<path d="M5047 783
L7551 783
" />
<path d="M4299 1669
L4299 1531
" />
<path d="M4299 1531
L5047 783
" />
<path d="M7551 783
L8299 1531
" />
<path d="M10673 29406
L11107 29839
" />
<path d="M12257 30391
L12437 30391
" />
<path d="M10673 29091
L10673 29406
" />
<path d="M11107 29839
L11705 29839
" />
<path d="M11705 29839
L12257 30391
" />
<path d="M29530 33811
L30637 33811
" />
<path d="M30637 33811
L30924 33524
" />
<path d="M4299 1669
L8130 5500
" />
<path d="M8130 5500
L8130 22848
" />
<path d="M8130 22848
L11532 26251
" />
<path d="M34035 26131
L31330 26131
" />
<path d="M34650 25071
L34650 25516
" />
<path d="M34650 25516
L34035 26131
" />
<path d="M19830 11653
L31142 22965
" />
<path d="M31330 25495
L31330 28031
" />
<path d="M4830 28731
L5856 27705
" />
<path d="M33142 31307
L31643 32806
" />
<path d="M4830 29631
L4830 28731
" />
<path d="M4654 507
L18943 507
" />
<path d="M33142 29843
L33142 31307
" />
<path d="M5930 29631
L4830 29631
" />
<path d="M31643 32806
L16125 32806
" />
<path d="M31330 28031
L33142 29843
" />
<path d="M6233 29091
L6233 29327
" />
<path d="M6233 29327
L5930 29631
" />
<path d="M3827 23235
L3827 1335
" />
<path d="M3827 1335
L4654 507
" />
<path d="M18943 507
L19830 1394
" />
<path d="M5856 25264
L3827 23235
" />
<path d="M19830 1394
L19830 11653
" />
<path d="M16125 32806
L14970 31651
" />
<path d="M5856 27705
L5856 25264
" />
<path d="M31142 22965
L31142 25307
" />
<path d="M31142 25307
L31330 25495
" />
<path d="M18790 27362
L18790 27081
" />
<path d="M15501 30651
L18790 27362
" />
<path d="M14970 30651
L15501 30651
" />
<path d="M7475 27619
L7959 28102
" />
<path d="M7959 28102
L7959 28845
" />
<path d="M5426 29091
L6898 27619
" />
<path d="M7959 28845
L7713 29091
" />
<path d="M6898 27619
L7475 27619
" />
<path d="M7713 30414
L7713 29091
" />
<path d="M9338 32039
L7713 30414
" />
<path d="M9338 32570
L9338 32039
" />
<path d="M9870 33151
L9870 33101
" />
<path d="M9870 33101
L9338 32570
" />
<path d="M33198 32831
L33786 32242
" />
<path d="M37010 33831
L36410 34431
" />
<path d="M32622 34431
L32330 34139
" />
<path d="M32330 34139
L32330 33522
" />
<path d="M32330 33522
L33022 32831
" />
<path d="M36410 34431
L32622 34431
" />
<path d="M33022 32831
L33198 32831
" />
<path d="M8405 16696
L18790 27081
" />
<path d="M5299 2279
L8405 5386
" />
<path d="M5299 1669
L5299 2279
" />
<path d="M8405 5386
L8405 16696
" />
<path d="M26335 24756
L26650 25071
" />
<path d="M18299 1669
L18299 16720
" />
<path d="M18299 16720
L26335 24756
" />
<path d="M33540 31631
L33817 31631
" />
<path d="M30941 34231
L33540 31631
" />
<path d="M30930 34231
L30941 34231
" />
<path d="M30838 34322
L30930 34231
" />
<path d="M26530 33811
L27042 34322
" />
<path d="M27042 34322
L30838 34322
" />
<path d="M33817 31631
L34142 31307
" />
<path d="M34142 31307
L34142 29287
" />
<path d="M34142 29287
L32876 28021
" />
<path d="M34010 33357
L35237 32131
" />
<path d="M34010 33831
L34010 33357
" />
<path d="M37965 25386
L37650 25071
" />
<path d="M35237 32131
L37930 32131
" />
<path d="M38530 31531
L38530 25951
" />
<path d="M37930 32131
L38530 31531
" />
<path d="M38530 25951
L37965 25386
" />
<path d="M6103 1059
L5827 1335
" />
<path d="M19338 23356
L19338 29319
" />
<path d="M8681 12698
L19338 23356
" />
<path d="M8681 5271
L8681 12698
" />
<path d="M31190 32531
L32335 31386
" />
<path d="M7299 1669
L6689 1059
" />
<path d="M5827 1335
L5827 2417
" />
<path d="M22550 32531
L31190 32531
" />
<path d="M19338 29319
L22550 32531
" />
<path d="M32335 31386
L32650 31071
" />
<path d="M5827 2417
L8681 5271
" />
<path d="M6689 1059
L6103 1059
" />
<path d="M9299 12537
L21642 24880
" />
<path d="M31335 31386
L31650 31071
" />
<path d="M21642 24880
L21642 30441
" />
<path d="M23407 32206
L30514 32206
" />
<path d="M30514 32206
L31335 31386
" />
<path d="M9299 1669
L9299 12537
" />
<path d="M21642 30441
L23407 32206
" />
<path d="M21918 24766
L21918 30327
" />
<path d="M29882 31838
L30335 31386
" />
<path d="M14299 1807
L9603 6503
" />
<path d="M23429 31838
L29882 31838
" />
<path d="M14299 1669
L14299 1807
" />
<path d="M30335 31386
L30650 31071
" />
<path d="M9603 12451
L21918 24766
" />
<path d="M9603 6503
L9603 12451
" />
<path d="M21918 30327
L23429 31838
" />
<path d="M15299 1669
L15299 1807
" />
<path d="M15299 1807
L9879 7227
" />
<path d="M22882 25340
L22882 25421
" />
<path d="M9879 12337
L22882 25340
" />
<path d="M22882 25421
L24092 26631
" />
<path d="M24092 26631
L25030 26631
" />
<path d="M9879 7227
L9879 12337
" />
<path d="M28650 29488
L28650 31071
" />
<path d="M10154 11831
L23158 24834
" />
<path d="M23158 24834
L23158 25307
" />
<path d="M23158 25307
L23965 26114
" />
<path d="M25276 26114
L28650 29488
" />
<path d="M10154 7951
L10154 11831
" />
<path d="M16299 1669
L16299 1807
" />
<path d="M23965 26114
L25276 26114
" />
<path d="M16299 1807
L10154 7951
" />
<path d="M26038 25838
L28130 27931
" />
<path d="M24689 25838
L26038 25838
" />
<path d="M17730 17531
L24158 23958
" />
<path d="M17299 1669
L17299 1807
" />
<path d="M24158 23958
L24158 25307
" />
<path d="M17299 1807
L17730 2237
" />
<path d="M24158 25307
L24689 25838
" />
<path d="M17730 2237
L17730 17531
" />
<path d="M7729 32231
L7669 32171
" />
<path d="M8430 32231
L7729 32231
" />
<path d="M14042 30855
L13064 31832
" />
<path d="M13287 29631
L14042 30385
" />
<path d="M11886 29631
L13287 29631
" />
<path d="M14042 30385
L14042 30855
" />
<path d="M11346 29091
L11886 29631
" />
<path d="M19870 28381
L19870 23497
" />
<path d="M8957 4464
L6299 1807
" />
<path d="M19870 23497
L8957 12584
" />
<path d="M8957 12584
L8957 4464
" />
<path d="M6299 1807
L6299 1669
" />
<path d="M9230 26310
L9170 26251
" />
<path d="M8386 29091
L9230 28247
" />
<path d="M9230 28247
L9230 26310
" />
<path d="M8910 25991
L9170 26251
" />
<path d="M7630 25991
L8910 25991
" />
<path d="M12153 29091
L13137 29091
" />
<path d="M7490 33931
L6870 33311
" />
<path d="M14317 32653
L13040 33931
" />
<path d="M14317 30271
L14317 32653
" />
<path d="M13040 33931
L7490 33931
" />
<path d="M13137 29091
L14317 30271
" />
<path d="M9430 25991
L9170 26251
" />
<path d="M9430 25031
L9430 25991
" />
<path d="M10030 27331
L10030 27419
" />
<path d="M9170 26251
L9170 26471
" />
<path d="M9170 26471
L10030 27331
" />
<path d="M11630 27931
L11630 27419
" />
<path d="M12130 28431
L11630 27931
" />
<path d="M12153 29091
L12130 29067
" />
<path d="M12130 29067
L12130 28431
" />
<path d="M23650 24523
L21618 22491
" />
<path d="M23650 25071
L23650 24523
" />
<path d="M2530 33731
L3570 32691
" />
<path d="M1110 33731
L2530 33731
" />
<path d="M630 33251
L1110 33731
" />
<path d="M630 31508
L630 33251
" />
<path d="M991 30044
L991 31147
" />
<path d="M991 31147
L630 31508
" />
<path d="M13595 28407
L13830 28642
" />
<path d="M13595 27211
L13595 28407
" />
<path d="M5110 25991
L5110 27957
" />
<path d="M5110 27957
L4436 28631
" />
<path d="M4630 29857
L4436 29664
" />
<path d="M4630 30331
L4630 29857
" />
<path d="M1661 30044
L1661 28761
" />
<path d="M1661 28761
L1630 28731
" />
<path d="M3330 28731
L4436 28731
" />
<path d="M4436 29664
L4436 28731
" />
<path d="M4436 28731
L4436 28631
" />
<path d="M10173 30942
L9036 30942
" />
<path d="M10862 30391
L10725 30391
" />
<path d="M9036 30942
L8337 30243
" />
<path d="M10725 30391
L10173 30942
" />
<path d="M9193 29091
L9866 29091
" />
<path d="M2999 30044
L2999 31361
" />
<path d="M2999 31361
L2930 31431
" />
<path d="M9230 29127
L9193 29091
" />
<path d="M9230 30231
L9230 29127
" />
</g>
<g style="fill:#840000; fill-opacity:1.0; 
stroke:#840000; stroke-width:100; stroke-opacity:1; 
stroke-linecap:round; stroke-linejoin:round;">
<polyline style="fill-rule:evenodd;"
points="4835,32393
4855,32422
4884,32441
4884,32441
4924,32468
4970,32499
5071,32519
5071,32519
5106,32526
5140,32519
6459,32519
6499,32578
6613,32655
6748,32681
6853,32787
6704,32787
6511,32867
6363,33015
6283,33208
6283,33417
6363,33610
6511,33758
6704,33838
6905,33838
7219,34153
7239,34182
7268,34201
7268,34201
7279,34208
7354,34259
7455,34279
7456,34279
7490,34286
7524,34279
13006,34279
13040,34286
13074,34279
13074,34279
13176,34259
13291,34182
13311,34153
14485,32978
14548,33072
14666,33151
14548,33229
14419,33422
14374,33651
14419,33879
14548,34072
14742,34201
14912,34235
15027,34235
15198,34201
15391,34072
15521,33879
15566,33651
15521,33422
15391,33229
15274,33151
15391,33072
15521,32879
15551,32725
15855,33028
15874,33057
15903,33077
15903,33077
15940,33101
15989,33134
16091,33155
16091,33155
16125,33161
16160,33155
24970,33155
24945,33214
24945,33447
25034,33662
25199,33826
25414,33915
25646,33915
25861,33826
25940,33747
25940,34145
25960,34243
26015,34325
26098,34381
26195,34400
26627,34400
26771,34545
26790,34574
26820,34593
26820,34593
26841,34608
26906,34651
27007,34671
27007,34671
27042,34678
27076,34671
30804,34671
30833,34677
7012,34801
743,34801
394,34278
394,33512
408,33521
839,33953
859,33982
888,34001
888,34001
890,34003
974,34059
1076,34079
1076,34079
1110,34086
1144,34079
2496,34079
2530,34086
2564,34079
2564,34079
2666,34059
2781,33982
2800,33953
3275,33478
3403,33531
3737,33531
4046,33403
4282,33167
4410,32858
4410,32523
4282,32214
4046,31978
3754,31857
3891,31720
3920,31701
3942,31667
3973,31621
3997,31585
4002,31559
4835,32393
" /> 
<polyline style="fill-rule:evenodd;"
points="31981,34104
31975,34139
31981,34173
31981,34173
32002,34275
32079,34390
32108,34409
32351,34653
32362,34669
30844,34677
30872,34671
30872,34671
30974,34651
31089,34574
31109,34545
31129,34524
31192,34482
31212,34453
31981,33683
31981,34104
" /> 
<polyline style="fill-rule:evenodd;"
points="38877,34272
38512,34637
36687,34646
36924,34410
36952,34415
37067,34415
37238,34381
37431,34252
37510,34135
37588,34252
37782,34381
37952,34415
38067,34415
38238,34381
38431,34252
38561,34059
38606,33831
38561,33602
38431,33409
38238,33280
38067,33246
37952,33246
37782,33280
37588,33409
37510,33527
37431,33409
37238,33280
37067,33246
36952,33246
36782,33280
36588,33409
36510,33527
36431,33409
36238,33280
36067,33246
35952,33246
35782,33280
35588,33409
35510,33527
35431,33409
35238,33280
35067,33246
34952,33246
34782,33280
34588,33409
34510,33527
34439,33421
35381,32479
37896,32479
37930,32486
37964,32479
37964,32479
38066,32459
38181,32382
38200,32353
38752,31801
38781,31782
38808,31741
38848,31681
38858,31667
38877,31573
38877,34272
" /> 
<polyline style="fill-rule:evenodd;"
points="8990,32536
8983,32570
8990,32604
8990,32604
9010,32706
9087,32821
9116,32841
9280,33005
9280,33534
9290,33582
8266,33582
8334,33417
8334,33208
8254,33015
8106,32867
7913,32787
7839,32787
7733,32681
7831,32681
7966,32655
8003,32630
8099,32726
8314,32815
8546,32815
8761,32726
8925,32562
8990,32406
8990,32536
" /> 
<polyline style="fill-rule:evenodd;"
points="11391,33582
11302,33582
11346,33516
11391,33582
" /> 
<polyline style="fill-rule:evenodd;"
points="12375,33582
12286,33582
12330,33516
12375,33582
" /> 
<polyline style="fill-rule:evenodd;"
points="30428,33193
30339,33408
30339,33462
30000,33462
29951,33389
29758,33260
29587,33226
29472,33226
29444,33232
29367,33155
30466,33155
30428,33193
" /> 
<polyline style="fill-rule:evenodd;"
points="38181,31386
37785,31782
35271,31782
35237,31775
35202,31782
35202,31782
35101,31802
35014,31860
35014,31860
34985,31879
34966,31908
33788,33087
33759,33106
33739,33135
33739,33135
33682,33221
33655,33357
33656,33364
33588,33409
33584,33416
33580,33398
33525,33316
33442,33260
33344,33241
33104,33241
33166,33179
33198,33186
33232,33179
33232,33179
33334,33159
33449,33082
33468,33053
33694,32827
33902,32827
34117,32738
34282,32574
34371,32359
34371,32126
34282,31911
34156,31786
34364,31577
34378,31568
34429,31603
34594,31636
34705,31636
34870,31603
35057,31478
35150,31339
35243,31478
35429,31603
35594,31636
35705,31636
35870,31603
36057,31478
36150,31339
36243,31478
36429,31603
36594,31636
36705,31636
36870,31603
37057,31478
37150,31339
37243,31478
37429,31603
37594,31636
37705,31636
37870,31603
38057,31478
38181,31292
38181,31386
" /> 
<polyline style="fill-rule:evenodd;"
points="2782,32985
2397,33370
2415,33281
2415,33043
2427,33046
2462,33039
2462,33039
2563,33019
2678,32942
2698,32913
2736,32874
2782,32985
" /> 
<polyline style="fill-rule:evenodd;"
points="31439,33240
31419,33193
31381,33155
31524,33155
31439,33240
" /> 
<polyline style="fill-rule:evenodd;"
points="13969,32509
13407,33071
13407,33044
13373,32873
13244,32680
13051,32551
12823,32505
12778,32514
12778,32347
12948,32417
13181,32417
13396,32328
13560,32163
13649,31949
13649,31740
13969,31421
13969,32509
" /> 
<polyline style="fill-rule:evenodd;"
points="11690,30317
11690,30745
11710,30842
11765,30925
11848,30980
11945,31000
12081,31000
12081,32561
12066,32551
11838,32505
11610,32551
11417,32680
11346,32786
11276,32680
11082,32551
10854,32505
10626,32551
10441,32674
10440,32669
10385,32587
10302,32531
10204,32512
9773,32512
9687,32426
9687,32073
9694,32039
9687,32005
9687,32005
9667,31903
9590,31788
9560,31768
9082,31290
10139,31290
10173,31297
10208,31290
10208,31290
10309,31270
10425,31193
10444,31164
10608,31000
11355,31000
11452,30980
11535,30925
11590,30842
11609,30745
11609,30236
11690,30317
" /> 
<polyline style="fill-rule:evenodd;"
points="18990,29284
18983,29319
19010,29455
19068,29541
19068,29541
19087,29570
19116,29589
21985,32458
16270,32458
15549,31737
15566,31651
15521,31422
15391,31229
15384,31224
15402,31221
15485,31165
15540,31083
15557,30995
15637,30979
15753,30902
15772,30873
18990,27655
18990,29284
" /> 
<polyline style="fill-rule:evenodd;"
points="2434,31762
2599,31926
2670,31956
2415,32210
2415,32100
2396,32003
2341,31920
2258,31865
2160,31845
2121,31845
2367,31599
2434,31762
" /> 
<polyline style="fill-rule:evenodd;"
points="31592,31635
31045,32182
31031,32182
31580,31633
31592,31635
" /> 
<polyline style="fill-rule:evenodd;"
points="21294,30407
21287,30441
21314,30577
21372,30663
21372,30663
21391,30692
21420,30712
22891,32182
22695,32182
19687,29174
19687,28959
19750,28985
19990,28985
20212,28893
20382,28723
20474,28501
20474,28260
20382,28038
20218,27874
20218,27376
20237,27423
20407,27593
20630,27685
20870,27685
21092,27593
21262,27423
21294,27346
21294,30407
" /> 
<polyline style="fill-rule:evenodd;"
points="14666,32151
14666,32151
14666,32151
14666,32151
" /> 
<polyline style="fill-rule:evenodd;"
points="30592,31635
30370,31858
30355,31858
30580,31633
30592,31635
" /> 
<polyline style="fill-rule:evenodd;"
points="1346,31185
1444,31205
1776,31205
1348,31633
1319,31652
1299,31681
1299,31681
1242,31767
1226,31845
979,31845
978,31845
978,31652
1213,31417
1242,31398
1267,31361
1283,31337
1319,31283
1340,31181
1340,31181
1340,31181
1346,31185
" /> 
<polyline style="fill-rule:evenodd;"
points="6562,31721
6499,31763
6459,31822
5250,31822
4140,30712
4140,30667
4299,30826
4514,30915
4746,30915
4961,30826
5125,30662
5214,30447
5214,30214
5125,29999
5105,29979
5896,29979
5930,29986
5964,29979
5964,29979
6066,29959
6181,29882
6200,29853
6450,29604
6497,29594
6562,29550
6562,31721
" /> 
<polyline style="fill-rule:evenodd;"
points="7336,29518
7365,29537
7365,30380
7358,30414
7365,30448
7365,30448
7385,30550
7462,30665
7491,30685
8452,31646
8314,31646
8099,31735
8075,31759
7966,31687
7831,31660
7506,31660
7371,31687
7290,31741
7259,31721
7259,29534
7284,29518
7310,29479
7336,29518
" /> 
<polyline style="fill-rule:evenodd;"
points="24227,31490
24223,31490
24224,31485
24227,31490
" /> 
<polyline style="fill-rule:evenodd;"
points="29243,31478
29260,31490
29039,31490
29057,31478
29150,31339
29243,31478
" /> 
<polyline style="fill-rule:evenodd;"
points="28243,31478
28260,31490
28039,31490
28057,31478
28150,31339
28243,31478
" /> 
<polyline style="fill-rule:evenodd;"
points="27243,31478
27260,31490
27039,31490
27057,31478
27150,31339
27243,31478
" /> 
<polyline style="fill-rule:evenodd;"
points="26243,31478
26260,31490
26039,31490
26057,31478
26150,31339
26243,31478
" /> 
<polyline style="fill-rule:evenodd;"
points="25243,31478
25260,31490
25073,31490
25162,31357
25243,31478
" /> 
<polyline style="fill-rule:evenodd;"
points="13199,31126
13254,31149
13156,31248
12948,31248
12778,31318
12778,31000
12929,31000
13027,30980
13042,30970
13199,31126
" /> 
<polyline style="fill-rule:evenodd;"
points="1045,28614
1045,28847
1060,28884
775,28884
677,28903
594,28958
539,29041
520,29139
520,30950
539,31047
563,31082
408,31237
394,31247
394,28547
1073,28547
1045,28614
" /> 
<polyline style="fill-rule:evenodd;"
points="25592,30506
25429,30538
25243,30663
25162,30784
25071,30649
24878,30520
24707,30486
24592,30486
24422,30520
24228,30649
24224,30656
24220,30638
24165,30556
24082,30500
23984,30481
23315,30481
23218,30500
23135,30556
23080,30638
23060,30736
23060,30977
22266,30183
22266,27796
22314,27815
22546,27815
22761,27726
22787,27700
25592,30506
" /> 
<polyline style="fill-rule:evenodd;"
points="37243,25478
37429,25603
37594,25636
37705,25636
37719,25633
37743,25656
37743,25656
38181,26095
38181,30849
38057,30663
37870,30538
37705,30506
37594,30506
37429,30538
37243,30663
37150,30802
37057,30663
36870,30538
36705,30506
36594,30506
36429,30538
36243,30663
36150,30802
36057,30663
35870,30538
35705,30506
35594,30506
35429,30538
35243,30663
35150,30802
35057,30663
34870,30538
34705,30506
34594,30506
34490,30526
34490,29321
34497,29287
34490,29252
34490,29252
34470,29151
34434,29096
34413,29064
34413,29064
34393,29035
34364,29016
33461,28113
33461,27905
33372,27690
33208,27525
32993,27436
32760,27436
32545,27525
32381,27690
32292,27905
32292,28137
32381,28352
32545,28517
32760,28606
32968,28606
33794,29431
33794,30523
33705,30506
33594,30506
33490,30526
33490,29877
33497,29843
33490,29808
33490,29808
33470,29707
33458,29689
33413,29621
33413,29621
33393,29592
33364,29572
31678,27886
31678,26479
34001,26479
34035,26486
34070,26479
34070,26479
34171,26459
34286,26382
34306,26353
34872,25787
34901,25767
34937,25714
34978,25652
34981,25636
34998,25550
34998,25550
35005,25516
35004,25513
35057,25478
35150,25339
35243,25478
35429,25603
35594,25636
35705,25636
35870,25603
36057,25478
36150,25339
36243,25478
36429,25603
36594,25636
36705,25636
36870,25603
37057,25478
37150,25339
37243,25478
" /> 
<polyline style="fill-rule:evenodd;"
points="22541,25492
22554,25557
22631,25672
22660,25692
23821,26853
23841,26882
23870,26901
23870,26901
23902,26923
23956,26959
24057,26979
24057,26979
24092,26986
24126,26979
24551,26979
24699,27126
24914,27215
25146,27215
25361,27126
25525,26962
25556,26887
28301,29632
28301,30624
28243,30663
28150,30802
28057,30663
27870,30538
27705,30506
27594,30506
27429,30538
27243,30663
27150,30802
27057,30663
26870,30538
26705,30506
26594,30506
26580,30508
23080,27008
23061,26979
22946,26902
22924,26898
22761,26735
22546,26646
22314,26646
22266,26665
22266,25217
22541,25492
" /> 
<polyline style="fill-rule:evenodd;"
points="30243,25478
30429,25603
30594,25636
30705,25636
30870,25603
30914,25574
30920,25577
30981,25639
30981,26096
30975,26131
30981,26165
30981,27996
30975,28031
31002,28167
31059,28253
31059,28253
31079,28282
31108,28301
32794,29987
32794,30523
32705,30506
32594,30506
32429,30538
32243,30663
32150,30802
32057,30663
31870,30538
31705,30506
31594,30506
31429,30538
31243,30663
31150,30802
31057,30663
30870,30538
30705,30506
30594,30506
30429,30538
30243,30663
30150,30802
30057,30663
29870,30538
29705,30506
29594,30506
29429,30538
29243,30663
29150,30802
29057,30663
28998,30624
28998,29522
29005,29488
28998,29454
28998,29454
28978,29352
28936,29289
28920,29266
28920,29266
28901,29237
28872,29217
28170,28515
28246,28515
28461,28426
28625,28262
28714,28047
28714,27814
28625,27599
28461,27435
28246,27346
28038,27346
26308,25616
26289,25587
26173,25510
26072,25490
26072,25490
26047,25485
26057,25478
26150,25339
26243,25478
26429,25603
26594,25636
26705,25636
26870,25603
27057,25478
27150,25339
27243,25478
27429,25603
27594,25636
27705,25636
27870,25603
28057,25478
28150,25339
28243,25478
28429,25603
28594,25636
28705,25636
28870,25603
29057,25478
29150,25339
29243,25478
29429,25603
29594,25636
29705,25636
29870,25603
30057,25478
30150,25339
30243,25478
" /> 
<polyline style="fill-rule:evenodd;"
points="10296,29518
10356,29558
10403,29628
10403,29628
10422,29657
10451,29676
10556,29781
10370,29781
10273,29801
10190,29856
10135,29939
10115,30036
10115,30507
10029,30593
9694,30593
9725,30562
9814,30347
9814,30114
9725,29899
9578,29752
9578,29578
9603,29594
9738,29621
9994,29621
10129,29594
10244,29518
10270,29479
10296,29518
" /> 
<polyline style="fill-rule:evenodd;"
points="15490,27433
15509,27462
15538,27481
15538,27481
15541,27483
15624,27539
15702,27554
15702,27703
15722,27800
15777,27883
15860,27938
15957,27958
16376,27958
16234,28099
16145,28314
16145,28547
16234,28762
16399,28926
16614,29015
16644,29015
15500,30159
15485,30136
15402,30080
15304,30061
14635,30061
14601,30068
14588,30049
14588,30049
14568,30020
14539,30000
13766,29227
13946,29227
14161,29138
14326,28974
14415,28759
14415,28526
14326,28311
14161,28147
13946,28058
13943,28058
13943,27958
14382,27958
14480,27938
14563,27883
14618,27800
14637,27703
14637,26718
14618,26621
14603,26599
14656,26599
15490,27433
" /> 
<polyline style="fill-rule:evenodd;"
points="13206,30042
13184,30042
13184,30036
13180,30016
13206,30042
" /> 
<polyline style="fill-rule:evenodd;"
points="4185,29915
4205,29928
4140,29994
4140,29847
4185,29915
" /> 
<polyline style="fill-rule:evenodd;"
points="8816,29518
8881,29562
8881,29752
8777,29856
8668,29748
8453,29659
8221,29659
8062,29724
8062,29553
8123,29594
8258,29621
8514,29621
8649,29594
8764,29518
8790,29479
8816,29518
" /> 
<polyline style="fill-rule:evenodd;"
points="2745,28614
2745,28847
2762,28888
2685,28903
2678,28908
2678,28547
2773,28547
2745,28614
" /> 
<polyline style="fill-rule:evenodd;"
points="12553,27703
12572,27800
12627,27883
12710,27938
12808,27958
13247,27958
13247,28373
13240,28407
13258,28497
13246,28526
13246,28757
13171,28742
13171,28742
13137,28735
13103,28742
12584,28742
12531,28664
12478,28628
12478,28465
12485,28431
12478,28396
12478,28396
12458,28295
12416,28232
12400,28208
12400,28208
12381,28179
12352,28160
12034,27842
12125,27750
12214,27535
12214,27302
12125,27088
12035,26998
12418,26998
12516,26978
12553,26954
12553,27703
" /> 
<polyline style="fill-rule:evenodd;"
points="11045,27302
11045,27535
11134,27750
11281,27897
11275,27931
11281,27965
11281,27965
11302,28067
11379,28182
11408,28201
11781,28575
11781,28660
11776,28664
11750,28702
11724,28664
11609,28587
11474,28560
11218,28560
11083,28587
11022,28628
11022,27254
11096,27180
11045,27302
" /> 
<polyline style="fill-rule:evenodd;"
points="9699,27914
9914,28003
10146,28003
10325,27929
10325,28644
10296,28664
10270,28702
10244,28664
10129,28587
9994,28560
9738,28560
9603,28587
9530,28636
9457,28587
9395,28575
9452,28518
9481,28498
9505,28462
9558,28383
9564,28352
9578,28281
9578,28281
9585,28247
9578,28213
9578,27794
9699,27914
" /> 
<polyline style="fill-rule:evenodd;"
points="6558,28488
6558,28628
6497,28587
6435,28575
6552,28458
6558,28488
" /> 
<polyline style="fill-rule:evenodd;"
points="7781,5644
7781,22814
7775,22848
7802,22984
7859,23070
7859,23070
7879,23099
7908,23119
9258,24469
9099,24535
8934,24699
8845,24914
8845,25147
8934,25362
9076,25504
8481,25504
8384,25523
8301,25578
8258,25642
8180,25642
8180,25558
8160,25460
8105,25377
8022,25322
7925,25303
7334,25303
7237,25322
7154,25377
7099,25460
7079,25558
7079,26424
7099,26521
7154,26604
7237,26659
7334,26679
7925,26679
8022,26659
8105,26604
8160,26521
8180,26424
8180,26339
8226,26339
8226,26743
8246,26840
8301,26923
8384,26978
8481,26998
8881,26998
8881,28103
8424,28560
8307,28560
8307,28136
8314,28102
8307,28068
8307,28068
8287,27966
8237,27892
8229,27880
8229,27880
8210,27851
8181,27831
7746,27397
7727,27368
7611,27291
7510,27270
7510,27270
7475,27264
7441,27270
6932,27270
6898,27264
6864,27270
6864,27270
6762,27291
6676,27348
6676,27348
6647,27368
6627,27397
6184,27840
6204,27739
6204,27739
6211,27705
6204,27670
6204,25298
6211,25264
6204,25230
6204,25230
6184,25128
6107,25013
6078,24993
4175,23090
4175,2338
4299,2363
4467,2329
7781,5644
" /> 
<polyline style="fill-rule:evenodd;"
points="18185,26969
18185,27201
18265,27394
17314,28345
17314,28314
17225,28099
17093,27967
17093,27958
17532,27958
17630,27938
17712,27883
17768,27800
17787,27703
17787,26718
17768,26621
17712,26538
17630,26483
17532,26464
15957,26464
15860,26483
15777,26538
15722,26621
15712,26670
15071,26028
15052,25999
14936,25922
14835,25902
14835,25902
14800,25895
14766,25902
12673,25902
12673,25758
12654,25661
12599,25578
12516,25523
12418,25504
11278,25504
8478,22704
8478,17262
18185,26969
" /> 
<polyline style="fill-rule:evenodd;"
points="27545,27839
27545,27891
25841,26187
25893,26187
27545,27839
" /> 
<polyline style="fill-rule:evenodd;"
points="4717,26659
4762,26668
4762,27813
4711,27864
4711,26655
4717,26659
" /> 
<polyline style="fill-rule:evenodd;"
points="5507,27560
5458,27609
5458,26668
5503,26659
5507,26656
5507,27560
" /> 
<polyline style="fill-rule:evenodd;"
points="10785,25996
10785,26505
10451,26839
10422,26859
10403,26888
10403,26888
10372,26934
10361,26923
10146,26834
10096,26834
10114,26743
10114,25758
10095,25661
10040,25578
9957,25523
9859,25504
9784,25504
9925,25362
9991,25202
10785,25996
" /> 
<polyline style="fill-rule:evenodd;"
points="21294,25025
21294,26815
21262,26738
21092,26568
20870,26476
20630,26476
20407,26568
20237,26738
20218,26785
20218,23949
21294,25025
" /> 
<polyline style="fill-rule:evenodd;"
points="18990,23500
18990,26509
18910,26476
18678,26476
8754,16552
8754,13264
18990,23500
" /> 
<polyline style="fill-rule:evenodd;"
points="36706,450
36319,1997
36318,2017
36325,2035
36332,2045
37317,3029
37334,3040
38877,3619
38877,21477
38709,21644
36958,21644
36939,21648
36923,21659
36135,22446
36125,22463
36121,22482
36121,23663
36125,23682
36135,23698
36726,24289
36742,24300
36761,24303
37929,24303
38877,24872
38877,25908
38858,25815
38800,25728
38800,25728
38781,25699
38752,25680
38235,25163
38235,25163
38212,25140
38226,25071
38182,24850
38057,24663
37870,24538
37705,24506
37594,24506
37429,24538
37243,24663
37150,24802
37057,24663
36870,24538
36705,24506
36594,24506
36429,24538
36243,24663
36150,24802
36057,24663
35870,24538
35705,24506
35594,24506
35429,24538
35243,24663
35150,24802
35057,24663
34870,24538
34705,24506
34594,24506
34429,24538
34243,24663
34150,24802
34057,24663
33870,24538
33705,24506
33594,24506
33429,24538
33243,24663
33150,24802
33057,24663
32870,24538
32705,24506
32594,24506
32429,24538
32243,24663
32150,24802
32057,24663
31870,24538
31705,24506
31594,24506
31490,24526
31490,22999
31497,22965
31490,22930
31490,22930
31470,22829
31393,22714
31364,22694
20178,11508
20178,1428
20185,1394
20178,1359
20178,1359
20158,1258
20116,1195
20100,1172
20100,1172
20081,1143
20052,1123
19239,310
36566,310
36706,450
" /> 
<polyline style="fill-rule:evenodd;"
points="34224,25450
33891,25782
31678,25782
31678,25636
31705,25636
31870,25603
32057,25478
32150,25339
32243,25478
32429,25603
32594,25636
32705,25636
32870,25603
33057,25478
33150,25339
33243,25478
33429,25603
33594,25636
33705,25636
33870,25603
34057,25478
34150,25339
34224,25450
" /> 
<polyline style="fill-rule:evenodd;"
points="23936,25577
24124,25765
24109,25765
23916,25572
23922,25568
23936,25577
" /> 
<polyline style="fill-rule:evenodd;"
points="25243,25478
25260,25490
25039,25490
25057,25478
25150,25339
25243,25478
" /> 
<polyline style="fill-rule:evenodd;"
points="5402,25303
4815,25303
4717,25322
4711,25326
4711,24612
5402,25303
" /> 
<polyline style="fill-rule:evenodd;"
points="18906,2200
19086,2320
19299,2363
19481,2326
19481,11618
19475,11653
19502,11789
19559,11875
19559,11875
19579,11904
19608,11923
30794,23109
30794,24523
30705,24506
30594,24506
30429,24538
30243,24663
30150,24802
30057,24663
29870,24538
29705,24506
29594,24506
29429,24538
29243,24663
29150,24802
29057,24663
28870,24538
28705,24506
28594,24506
28429,24538
28243,24663
28150,24802
28057,24663
27870,24538
27705,24506
27594,24506
27429,24538
27243,24663
27150,24802
27057,24663
26870,24538
26705,24506
26594,24506
26580,24508
18647,16575
18647,2230
18692,2200
18799,2040
18906,2200
" /> 
<polyline style="fill-rule:evenodd;"
points="25592,24506
25429,24538
25243,24663
25150,24802
25057,24663
24870,24538
24705,24506
24594,24506
24506,24523
24506,23993
24513,23958
24506,23924
24506,23924
24486,23823
24409,23707
24380,23688
18078,17386
18078,16992
25592,24506
" /> 
<polyline style="fill-rule:evenodd;"
points="3604,1065
3575,1084
3556,1113
3556,1113
3498,1199
3471,1335
3478,1370
3478,23200
3471,23235
3478,23269
3478,23269
3498,23371
3575,23486
3604,23505
4436,24337
2613,24337
2933,24097
2946,24082
2953,24057
2953,23269
2949,23250
2941,23237
1760,21859
1736,21843
394,21460
394,3793
770,3041
2711,2846
2730,2841
2745,2828
2754,2811
2756,2797
2756,1042
3305,310
4359,310
3604,1065
" /> 
<polyline style="fill-rule:evenodd;"
points="23809,24103
23809,24189
22202,22583
22202,22496
23809,24103
" /> 
<polyline style="fill-rule:evenodd;"
points="16906,2200
17086,2320
17299,2363
17352,2352
17381,2382
17381,17496
17375,17531
17402,17667
17459,17753
17459,17753
17479,17782
17508,17801
21613,21906
21501,21906
21287,21995
21122,22160
21079,22263
10503,11687
10503,8096
16246,2352
16299,2363
16512,2320
16692,2200
16799,2040
16906,2200
" /> 
<polyline style="fill-rule:evenodd;"
points="15258,2355
10227,7386
10227,7371
15246,2352
15258,2355
" /> 
<polyline style="fill-rule:evenodd;"
points="14258,2355
9951,6661
9951,6647
14246,2352
14258,2355
" /> 
<polyline style="fill-rule:evenodd;"
points="12906,2200
13086,2320
13258,2355
9647,5965
9647,2230
9692,2200
9799,2040
9906,2200
10086,2320
10299,2363
10512,2320
10692,2200
10799,2040
10906,2200
11086,2320
11299,2363
11512,2320
11692,2200
11799,2040
11906,2200
12086,2320
12299,2363
12512,2320
12692,2200
12799,2040
12906,2200
" /> 
<polyline style="fill-rule:evenodd;"
points="8608,4609
8608,4706
6257,2354
6299,2363
6352,2352
8608,4609
" /> 
<polyline style="fill-rule:evenodd;"
points="8906,2200
8951,2230
8951,3965
7340,2355
7512,2320
7692,2200
7799,2040
7906,2200
8086,2320
8299,2363
8512,2320
8692,2200
8799,2040
8906,2200
" /> 
<polyline style="fill-rule:evenodd;"
points="8352,986
8299,975
8246,986
8116,856
8481,856
8352,986
" /> 
</g>
<g style="fill:#FFFFFF; fill-opacity:1.0; 
stroke:#FFFFFF; stroke-width:100; stroke-opacity:1; 
stroke-linecap:round; stroke-linejoin:round;">
</g>
<g style="fill:#FFFFFF; fill-opacity:1.0; 
stroke:#FFFFFF; stroke-width:0; stroke-opacity:1; 
stroke-linecap:round; stroke-linejoin:round;">
<circle cx="16730.3" cy="28431.1" r="157.48" /> 
</g>
<g style="fill:#FFFFFF; fill-opacity:1.0; 
stroke:#FFFFFF; stroke-width:39.3701; stroke-opacity:1; 
stroke-linecap:round; stroke-linejoin:round;">
</g>
<g style="fill:#FFFFFF; fill-opacity:1.0; 
stroke:#FFFFFF; stroke-width:0; stroke-opacity:1; 
stroke-linecap:round; stroke-linejoin:round;">
<circle cx="13530.3" cy="30631.1" r="157.48" /> 
</g>
<g style="fill:#FFFFFF; fill-opacity:1.0; 
stroke:#FFFFFF; stroke-width:39.3701; stroke-opacity:1; 
stroke-linecap:round; stroke-linejoin:round;">
</g>
<g style="fill:#FFFFFF; fill-opacity:1.0; 
stroke:#FFFFFF; stroke-width:0; stroke-opacity:1; 
stroke-linecap:round; stroke-linejoin:round;">
<circle cx="25530.3" cy="33331.1" r="157.48" /> 
</g>
<g style="fill:#FFFFFF; fill-opacity:1.0; 
stroke:#FFFFFF; stroke-width:39.3701; stroke-opacity:1; 
stroke-linecap:round; stroke-linejoin:round;">
</g>
<g style="fill:#FFFFFF; fill-opacity:1.0; 
stroke:#FFFFFF; stroke-width:0; stroke-opacity:1; 
stroke-linecap:round; stroke-linejoin:round;">
<circle cx="22430.3" cy="27231.1" r="157.48" /> 
</g>
<g style="fill:#FFFFFF; fill-opacity:1.0; 
stroke:#FFFFFF; stroke-width:39.3701; stroke-opacity:1; 
stroke-linecap:round; stroke-linejoin:round;">
</g>
<g style="fill:#FFFFFF; fill-opacity:1.0; 
stroke:#FFFFFF; stroke-width:0; stroke-opacity:1; 
stroke-linecap:round; stroke-linejoin:round;">
<circle cx="7230.32" cy="28131.1" r="157.48" /> 
</g>
<g style="fill:#FFFFFF; fill-opacity:1.0; 
stroke:#FFFFFF; stroke-width:39.3701; stroke-opacity:1; 
stroke-linecap:round; stroke-linejoin:round;">
</g>
<g style="fill:#FFFFFF; fill-opacity:1.0; 
stroke:#FFFFFF; stroke-width:0; stroke-opacity:1; 
stroke-linecap:round; stroke-linejoin:round;">
<circle cx="30924" cy="33524.8" r="157.48" /> 
</g>
<g style="fill:#FFFFFF; fill-opacity:1.0; 
stroke:#FFFFFF; stroke-width:39.3701; stroke-opacity:1; 
stroke-linecap:round; stroke-linejoin:round;">
</g>
<g style="fill:#FFFFFF; fill-opacity:1.0; 
stroke:#FFFFFF; stroke-width:0; stroke-opacity:1; 
stroke-linecap:round; stroke-linejoin:round;">
<circle cx="33786.5" cy="32242.9" r="157.48" /> 
</g>
<g style="fill:#FFFFFF; fill-opacity:1.0; 
stroke:#FFFFFF; stroke-width:39.3701; stroke-opacity:1; 
stroke-linecap:round; stroke-linejoin:round;">
</g>
<g style="fill:#FFFFFF; fill-opacity:1.0; 
stroke:#FFFFFF; stroke-width:0; stroke-opacity:1; 
stroke-linecap:round; stroke-linejoin:round;">
<circle cx="32876.9" cy="28021.5" r="157.48" /> 
</g>
<g style="fill:#FFFFFF; fill-opacity:1.0; 
stroke:#FFFFFF; stroke-width:39.3701; stroke-opacity:1; 
stroke-linecap:round; stroke-linejoin:round;">
</g>
<g style="fill:#FFFFFF; fill-opacity:1.0; 
stroke:#FFFFFF; stroke-width:0; stroke-opacity:1; 
stroke-linecap:round; stroke-linejoin:round;">
<circle cx="25030.3" cy="26631.1" r="157.48" /> 
</g>
<g style="fill:#FFFFFF; fill-opacity:1.0; 
stroke:#FFFFFF; stroke-width:39.3701; stroke-opacity:1; 
stroke-linecap:round; stroke-linejoin:round;">
</g>
<g style="fill:#FFFFFF; fill-opacity:1.0; 
stroke:#FFFFFF; stroke-width:0; stroke-opacity:1; 
stroke-linecap:round; stroke-linejoin:round;">
<circle cx="28130.3" cy="27931.1" r="157.48" /> 
</g>
<g style="fill:#FFFFFF; fill-opacity:1.0; 
stroke:#FFFFFF; stroke-width:39.3701; stroke-opacity:1; 
stroke-linecap:round; stroke-linejoin:round;">
</g>
<g style="fill:#FFFFFF; fill-opacity:1.0; 
stroke:#FFFFFF; stroke-width:0; stroke-opacity:1; 
stroke-linecap:round; stroke-linejoin:round;">
<circle cx="8430.32" cy="32231.1" r="157.48" /> 
</g>
<g style="fill:#FFFFFF; fill-opacity:1.0; 
stroke:#FFFFFF; stroke-width:39.3701; stroke-opacity:1; 
stroke-linecap:round; stroke-linejoin:round;">
</g>
<g style="fill:#FFFFFF; fill-opacity:1.0; 
stroke:#FFFFFF; stroke-width:0; stroke-opacity:1; 
stroke-linecap:round; stroke-linejoin:round;">
<circle cx="13064.9" cy="31832.7" r="157.48" /> 
</g>
<g style="fill:#FFFFFF; fill-opacity:1.0; 
stroke:#FFFFFF; stroke-width:39.3701; stroke-opacity:1; 
stroke-linecap:round; stroke-linejoin:round;">
</g>
<g style="fill:#FFFFFF; fill-opacity:1.0; 
stroke:#FFFFFF; stroke-width:0; stroke-opacity:1; 
stroke-linecap:round; stroke-linejoin:round;">
<circle cx="9430.32" cy="25031.1" r="157.48" /> 
</g>
<g style="fill:#FFFFFF; fill-opacity:1.0; 
stroke:#FFFFFF; stroke-width:39.3701; stroke-opacity:1; 
stroke-linecap:round; stroke-linejoin:round;">
</g>
<g style="fill:#FFFFFF; fill-opacity:1.0; 
stroke:#FFFFFF; stroke-width:0; stroke-opacity:1; 
stroke-linecap:round; stroke-linejoin:round;">
<circle cx="10030.3" cy="27419.3" r="157.48" /> 
</g>
<g style="fill:#FFFFFF; fill-opacity:1.0; 
stroke:#FFFFFF; stroke-width:39.3701; stroke-opacity:1; 
stroke-linecap:round; stroke-linejoin:round;">
</g>
<g style="fill:#FFFFFF; fill-opacity:1.0; 
stroke:#FFFFFF; stroke-width:0; stroke-opacity:1; 
stroke-linecap:round; stroke-linejoin:round;">
<circle cx="11630.3" cy="27419.3" r="157.48" /> 
</g>
<g style="fill:#FFFFFF; fill-opacity:1.0; 
stroke:#FFFFFF; stroke-width:39.3701; stroke-opacity:1; 
stroke-linecap:round; stroke-linejoin:round;">
</g>
<g style="fill:#FFFFFF; fill-opacity:1.0; 
stroke:#FFFFFF; stroke-width:0; stroke-opacity:1; 
stroke-linecap:round; stroke-linejoin:round;">
<circle cx="21618.3" cy="22491.2" r="157.48" /> 
</g>
<g style="fill:#FFFFFF; fill-opacity:1.0; 
stroke:#FFFFFF; stroke-width:39.3701; stroke-opacity:1; 
stroke-linecap:round; stroke-linejoin:round;">
</g>
<g style="fill:#FFFFFF; fill-opacity:1.0; 
stroke:#FFFFFF; stroke-width:0; stroke-opacity:1; 
stroke-linecap:round; stroke-linejoin:round;">
<circle cx="13830.7" cy="28642.9" r="157.48" /> 
</g>
<g style="fill:#FFFFFF; fill-opacity:1.0; 
stroke:#FFFFFF; stroke-width:39.3701; stroke-opacity:1; 
stroke-linecap:round; stroke-linejoin:round;">
</g>
<g style="fill:#FFFFFF; fill-opacity:1.0; 
stroke:#FFFFFF; stroke-width:0; stroke-opacity:1; 
stroke-linecap:round; stroke-linejoin:round;">
<circle cx="4630.32" cy="30331.1" r="157.48" /> 
</g>
<g style="fill:#FFFFFF; fill-opacity:1.0; 
stroke:#FFFFFF; stroke-width:39.3701; stroke-opacity:1; 
stroke-linecap:round; stroke-linejoin:round;">
</g>
<g style="fill:#FFFFFF; fill-opacity:1.0; 
stroke:#FFFFFF; stroke-width:0; stroke-opacity:1; 
stroke-linecap:round; stroke-linejoin:round;">
<circle cx="1630.32" cy="28731.1" r="157.48" /> 
</g>
<g style="fill:#FFFFFF; fill-opacity:1.0; 
stroke:#FFFFFF; stroke-width:39.3701; stroke-opacity:1; 
stroke-linecap:round; stroke-linejoin:round;">
</g>
<g style="fill:#FFFFFF; fill-opacity:1.0; 
stroke:#FFFFFF; stroke-width:0; stroke-opacity:1; 
stroke-linecap:round; stroke-linejoin:round;">
<circle cx="3330.32" cy="28731.1" r="157.48" /> 
</g>
<g style="fill:#FFFFFF; fill-opacity:1.0; 
stroke:#FFFFFF; stroke-width:39.3701; stroke-opacity:1; 
stroke-linecap:round; stroke-linejoin:round;">
</g>
<g style="fill:#FFFFFF; fill-opacity:1.0; 
stroke:#FFFFFF; stroke-width:0; stroke-opacity:1; 
stroke-linecap:round; stroke-linejoin:round;">
<circle cx="8337.51" cy="30243.7" r="157.48" /> 
</g>
<g style="fill:#FFFFFF; fill-opacity:1.0; 
stroke:#FFFFFF; stroke-width:39.3701; stroke-opacity:1; 
stroke-linecap:round; stroke-linejoin:round;">
</g>
<g style="fill:#FFFFFF; fill-opacity:1.0; 
stroke:#FFFFFF; stroke-width:0; stroke-opacity:1; 
stroke-linecap:round; stroke-linejoin:round;">
<circle cx="2930.32" cy="31431.1" r="157.48" /> 
</g>
<g style="fill:#FFFFFF; fill-opacity:1.0; 
stroke:#FFFFFF; stroke-width:39.3701; stroke-opacity:1; 
stroke-linecap:round; stroke-linejoin:round;">
</g>
<g style="fill:#FFFFFF; fill-opacity:1.0; 
stroke:#FFFFFF; stroke-width:0; stroke-opacity:1; 
stroke-linecap:round; stroke-linejoin:round;">
<circle cx="9230.32" cy="30231.1" r="157.48" /> 
</g>
<g style="fill:#FFFFFF; fill-opacity:1.0; 
stroke:#FFFFFF; stroke-width:39.3701; stroke-opacity:1; 
stroke-linecap:round; stroke-linejoin:round;">
</g>
<g style="fill:#FFFFFF; fill-opacity:1.0; 
stroke:#FFFFFF; stroke-width:0; stroke-opacity:1; 
stroke-linecap:round; stroke-linejoin:round;">
<circle cx="19299.4" cy="1669.33" r="196.85" /> 
</g>
<g style="fill:#FFFFFF; fill-opacity:1.0; 
stroke:#FFFFFF; stroke-width:39.3701; stroke-opacity:1; 
stroke-linecap:round; stroke-linejoin:round;">
</g>
<g style="fill:#FFFFFF; fill-opacity:1.0; 
stroke:#FFFFFF; stroke-width:0; stroke-opacity:1; 
stroke-linecap:round; stroke-linejoin:round;">
<circle cx="18299.4" cy="1669.33" r="196.85" /> 
</g>
<g style="fill:#FFFFFF; fill-opacity:1.0; 
stroke:#FFFFFF; stroke-width:39.3701; stroke-opacity:1; 
stroke-linecap:round; stroke-linejoin:round;">
</g>
<g style="fill:#FFFFFF; fill-opacity:1.0; 
stroke:#FFFFFF; stroke-width:0; stroke-opacity:1; 
stroke-linecap:round; stroke-linejoin:round;">
<circle cx="17299.4" cy="1669.33" r="196.85" /> 
</g>
<g style="fill:#FFFFFF; fill-opacity:1.0; 
stroke:#FFFFFF; stroke-width:39.3701; stroke-opacity:1; 
stroke-linecap:round; stroke-linejoin:round;">
</g>
<g style="fill:#FFFFFF; fill-opacity:1.0; 
stroke:#FFFFFF; stroke-width:0; stroke-opacity:1; 
stroke-linecap:round; stroke-linejoin:round;">
<circle cx="16299.4" cy="1669.33" r="196.85" /> 
</g>
<g style="fill:#FFFFFF; fill-opacity:1.0; 
stroke:#FFFFFF; stroke-width:39.3701; stroke-opacity:1; 
stroke-linecap:round; stroke-linejoin:round;">
</g>
<g style="fill:#FFFFFF; fill-opacity:1.0; 
stroke:#FFFFFF; stroke-width:0; stroke-opacity:1; 
stroke-linecap:round; stroke-linejoin:round;">
<circle cx="15299.4" cy="1669.33" r="196.85" /> 
</g>
<g style="fill:#FFFFFF; fill-opacity:1.0; 
stroke:#FFFFFF; stroke-width:39.3701; stroke-opacity:1; 
stroke-linecap:round; stroke-linejoin:round;">
</g>
<g style="fill:#FFFFFF; fill-opacity:1.0; 
stroke:#FFFFFF; stroke-width:0; stroke-opacity:1; 
stroke-linecap:round; stroke-linejoin:round;">
<circle cx="14299.4" cy="1669.33" r="196.85" /> 
</g>
<g style="fill:#FFFFFF; fill-opacity:1.0; 
stroke:#FFFFFF; stroke-width:39.3701; stroke-opacity:1; 
stroke-linecap:round; stroke-linejoin:round;">
</g>
<g style="fill:#FFFFFF; fill-opacity:1.0; 
stroke:#FFFFFF; stroke-width:0; stroke-opacity:1; 
stroke-linecap:round; stroke-linejoin:round;">
<circle cx="13299.4" cy="1669.33" r="196.85" /> 
</g>
<g style="fill:#FFFFFF; fill-opacity:1.0; 
stroke:#FFFFFF; stroke-width:39.3701; stroke-opacity:1; 
stroke-linecap:round; stroke-linejoin:round;">
</g>
<g style="fill:#FFFFFF; fill-opacity:1.0; 
stroke:#FFFFFF; stroke-width:0; stroke-opacity:1; 
stroke-linecap:round; stroke-linejoin:round;">
<circle cx="12299.4" cy="1669.33" r="196.85" /> 
</g>
<g style="fill:#FFFFFF; fill-opacity:1.0; 
stroke:#FFFFFF; stroke-width:39.3701; stroke-opacity:1; 
stroke-linecap:round; stroke-linejoin:round;">
</g>
<g style="fill:#FFFFFF; fill-opacity:1.0; 
stroke:#FFFFFF; stroke-width:0; stroke-opacity:1; 
stroke-linecap:round; stroke-linejoin:round;">
<circle cx="11299.4" cy="1669.33" r="196.85" /> 
</g>
<g style="fill:#FFFFFF; fill-opacity:1.0; 
stroke:#FFFFFF; stroke-width:39.3701; stroke-opacity:1; 
stroke-linecap:round; stroke-linejoin:round;">
</g>
<g style="fill:#FFFFFF; fill-opacity:1.0; 
stroke:#FFFFFF; stroke-width:0; stroke-opacity:1; 
stroke-linecap:round; stroke-linejoin:round;">
<circle cx="10299.4" cy="1669.33" r="196.85" /> 
</g>
<g style="fill:#FFFFFF; fill-opacity:1.0; 
stroke:#FFFFFF; stroke-width:39.3701; stroke-opacity:1; 
stroke-linecap:round; stroke-linejoin:round;">
</g>
<g style="fill:#FFFFFF; fill-opacity:1.0; 
stroke:#FFFFFF; stroke-width:0; stroke-opacity:1; 
stroke-linecap:round; stroke-linejoin:round;">
<circle cx="9299.45" cy="1669.33" r="196.85" /> 
</g>
<g style="fill:#FFFFFF; fill-opacity:1.0; 
stroke:#FFFFFF; stroke-width:39.3701; stroke-opacity:1; 
stroke-linecap:round; stroke-linejoin:round;">
</g>
<g style="fill:#FFFFFF; fill-opacity:1.0; 
stroke:#FFFFFF; stroke-width:0; stroke-opacity:1; 
stroke-linecap:round; stroke-linejoin:round;">
<circle cx="8299.45" cy="1669.33" r="196.85" /> 
</g>
<g style="fill:#FFFFFF; fill-opacity:1.0; 
stroke:#FFFFFF; stroke-width:39.3701; stroke-opacity:1; 
stroke-linecap:round; stroke-linejoin:round;">
</g>
<g style="fill:#FFFFFF; fill-opacity:1.0; 
stroke:#FFFFFF; stroke-width:0; stroke-opacity:1; 
stroke-linecap:round; stroke-linejoin:round;">
<circle cx="7299.45" cy="1669.33" r="196.85" /> 
</g>
<g style="fill:#FFFFFF; fill-opacity:1.0; 
stroke:#FFFFFF; stroke-width:39.3701; stroke-opacity:1; 
stroke-linecap:round; stroke-linejoin:round;">
</g>
<g style="fill:#FFFFFF; fill-opacity:1.0; 
stroke:#FFFFFF; stroke-width:0; stroke-opacity:1; 
stroke-linecap:round; stroke-linejoin:round;">
<circle cx="6299.45" cy="1669.33" r="196.85" /> 
</g>
<g style="fill:#FFFFFF; fill-opacity:1.0; 
stroke:#FFFFFF; stroke-width:39.3701; stroke-opacity:1; 
stroke-linecap:round; stroke-linejoin:round;">
</g>
<g style="fill:#FFFFFF; fill-opacity:1.0; 
stroke:#FFFFFF; stroke-width:0; stroke-opacity:1; 
stroke-linecap:round; stroke-linejoin:round;">
<circle cx="5299.45" cy="1669.33" r="196.85" /> 
</g>
<g style="fill:#FFFFFF; fill-opacity:1.0; 
stroke:#FFFFFF; stroke-width:39.3701; stroke-opacity:1; 
stroke-linecap:round; stroke-linejoin:round;">
</g>
<g style="fill:#FFFFFF; fill-opacity:1.0; 
stroke:#FFFFFF; stroke-width:0; stroke-opacity:1; 
stroke-linecap:round; stroke-linejoin:round;">
<circle cx="4299.45" cy="1669.33" r="196.85" /> 
</g>
<g style="fill:#FFFFFF; fill-opacity:1.0; 
stroke:#FFFFFF; stroke-width:39.3701; stroke-opacity:1; 
stroke-linecap:round; stroke-linejoin:round;">
</g>
<g style="fill:#FFFFFF; fill-opacity:1.0; 
stroke:#FFFFFF; stroke-width:0; stroke-opacity:1; 
stroke-linecap:round; stroke-linejoin:round;">
<circle cx="1346.69" cy="23322.9" r="688.976" /> 
</g>
<g style="fill:#FFFFFF; fill-opacity:1.0; 
stroke:#FFFFFF; stroke-width:39.3701; stroke-opacity:1; 
stroke-linecap:round; stroke-linejoin:round;">
</g>
<g style="fill:#FFFFFF; fill-opacity:1.0; 
stroke:#FFFFFF; stroke-width:0; stroke-opacity:1; 
stroke-linecap:round; stroke-linejoin:round;">
<circle cx="37960.8" cy="23323.1" r="688.976" /> 
</g>
<g style="fill:#FFFFFF; fill-opacity:1.0; 
stroke:#FFFFFF; stroke-width:39.3701; stroke-opacity:1; 
stroke-linecap:round; stroke-linejoin:round;">
</g>
<g style="fill:#FFFFFF; fill-opacity:1.0; 
stroke:#FFFFFF; stroke-width:0; stroke-opacity:1; 
stroke-linecap:round; stroke-linejoin:round;">
<circle cx="37960.8" cy="1669.1" r="688.976" /> 
</g>
<g style="fill:#FFFFFF; fill-opacity:1.0; 
stroke:#FFFFFF; stroke-width:39.3701; stroke-opacity:1; 
stroke-linecap:round; stroke-linejoin:round;">
</g>
<g style="fill:#FFFFFF; fill-opacity:1.0; 
stroke:#FFFFFF; stroke-width:0; stroke-opacity:1; 
stroke-linecap:round; stroke-linejoin:round;">
<circle cx="1346.78" cy="1669.1" r="688.976" /> 
</g>
<g style="fill:#FFFFFF; fill-opacity:1.0; 
stroke:#FFFFFF; stroke-width:39.3701; stroke-opacity:1; 
stroke-linecap:round; stroke-linejoin:round;">
</g>
<g style="fill:#FFFFFF; fill-opacity:1.0; 
stroke:#FFFFFF; stroke-width:0; stroke-opacity:1; 
stroke-linecap:round; stroke-linejoin:round;">
<circle cx="14970.3" cy="30651.1" r="196.85" /> 
</g>
<g style="fill:#FFFFFF; fill-opacity:1.0; 
stroke:#FFFFFF; stroke-width:39.3701; stroke-opacity:1; 
stroke-linecap:round; stroke-linejoin:round;">
</g>
<g style="fill:#FFFFFF; fill-opacity:1.0; 
stroke:#FFFFFF; stroke-width:0; stroke-opacity:1; 
stroke-linecap:round; stroke-linejoin:round;">
<circle cx="14970.3" cy="31651.1" r="196.85" /> 
</g>
<g style="fill:#FFFFFF; fill-opacity:1.0; 
stroke:#FFFFFF; stroke-width:39.3701; stroke-opacity:1; 
stroke-linecap:round; stroke-linejoin:round;">
</g>
<g style="fill:#FFFFFF; fill-opacity:1.0; 
stroke:#FFFFFF; stroke-width:0; stroke-opacity:1; 
stroke-linecap:round; stroke-linejoin:round;">
<circle cx="14970.3" cy="32651.1" r="196.85" /> 
</g>
<g style="fill:#FFFFFF; fill-opacity:1.0; 
stroke:#FFFFFF; stroke-width:39.3701; stroke-opacity:1; 
stroke-linecap:round; stroke-linejoin:round;">
</g>
<g style="fill:#FFFFFF; fill-opacity:1.0; 
stroke:#FFFFFF; stroke-width:0; stroke-opacity:1; 
stroke-linecap:round; stroke-linejoin:round;">
<circle cx="14970.3" cy="33651.1" r="196.85" /> 
</g>
<g style="fill:#FFFFFF; fill-opacity:1.0; 
stroke:#FFFFFF; stroke-width:39.3701; stroke-opacity:1; 
stroke-linecap:round; stroke-linejoin:round;">
</g>
<g style="fill:#FFFFFF; fill-opacity:1.0; 
stroke:#FFFFFF; stroke-width:0; stroke-opacity:1; 
stroke-linecap:round; stroke-linejoin:round;">
<circle cx="37650.3" cy="25071.1" r="157.48" /> 
</g>
<g style="fill:#FFFFFF; fill-opacity:1.0; 
stroke:#FFFFFF; stroke-width:39.3701; stroke-opacity:1; 
stroke-linecap:round; stroke-linejoin:round;">
</g>
<g style="fill:#FFFFFF; fill-opacity:1.0; 
stroke:#FFFFFF; stroke-width:0; stroke-opacity:1; 
stroke-linecap:round; stroke-linejoin:round;">
<circle cx="37650.3" cy="31071.1" r="157.48" /> 
</g>
<g style="fill:#FFFFFF; fill-opacity:1.0; 
stroke:#FFFFFF; stroke-width:39.3701; stroke-opacity:1; 
stroke-linecap:round; stroke-linejoin:round;">
</g>
<g style="fill:#FFFFFF; fill-opacity:1.0; 
stroke:#FFFFFF; stroke-width:0; stroke-opacity:1; 
stroke-linecap:round; stroke-linejoin:round;">
<circle cx="23650.3" cy="25071.1" r="157.48" /> 
</g>
<g style="fill:#FFFFFF; fill-opacity:1.0; 
stroke:#FFFFFF; stroke-width:39.3701; stroke-opacity:1; 
stroke-linecap:round; stroke-linejoin:round;">
</g>
<g style="fill:#FFFFFF; fill-opacity:1.0; 
stroke:#FFFFFF; stroke-width:0; stroke-opacity:1; 
stroke-linecap:round; stroke-linejoin:round;">
<circle cx="36650.3" cy="31071.1" r="157.48" /> 
</g>
<g style="fill:#FFFFFF; fill-opacity:1.0; 
stroke:#FFFFFF; stroke-width:39.3701; stroke-opacity:1; 
stroke-linecap:round; stroke-linejoin:round;">
</g>
<g style="fill:#FFFFFF; fill-opacity:1.0; 
stroke:#FFFFFF; stroke-width:0; stroke-opacity:1; 
stroke-linecap:round; stroke-linejoin:round;">
<circle cx="24650.3" cy="25071.1" r="157.48" /> 
</g>
<g style="fill:#FFFFFF; fill-opacity:1.0; 
stroke:#FFFFFF; stroke-width:39.3701; stroke-opacity:1; 
stroke-linecap:round; stroke-linejoin:round;">
</g>
<g style="fill:#FFFFFF; fill-opacity:1.0; 
stroke:#FFFFFF; stroke-width:0; stroke-opacity:1; 
stroke-linecap:round; stroke-linejoin:round;">
<circle cx="35650.3" cy="31071.1" r="157.48" /> 
</g>
<g style="fill:#FFFFFF; fill-opacity:1.0; 
stroke:#FFFFFF; stroke-width:39.3701; stroke-opacity:1; 
stroke-linecap:round; stroke-linejoin:round;">
</g>
<g style="fill:#FFFFFF; fill-opacity:1.0; 
stroke:#FFFFFF; stroke-width:0; stroke-opacity:1; 
stroke-linecap:round; stroke-linejoin:round;">
<circle cx="25650.3" cy="25071.1" r="157.48" /> 
</g>
<g style="fill:#FFFFFF; fill-opacity:1.0; 
stroke:#FFFFFF; stroke-width:39.3701; stroke-opacity:1; 
stroke-linecap:round; stroke-linejoin:round;">
</g>
<g style="fill:#FFFFFF; fill-opacity:1.0; 
stroke:#FFFFFF; stroke-width:0; stroke-opacity:1; 
stroke-linecap:round; stroke-linejoin:round;">
<circle cx="34650.3" cy="31071.1" r="157.48" /> 
</g>
<g style="fill:#FFFFFF; fill-opacity:1.0; 
stroke:#FFFFFF; stroke-width:39.3701; stroke-opacity:1; 
stroke-linecap:round; stroke-linejoin:round;">
</g>
<g style="fill:#FFFFFF; fill-opacity:1.0; 
stroke:#FFFFFF; stroke-width:0; stroke-opacity:1; 
stroke-linecap:round; stroke-linejoin:round;">
<circle cx="26650.3" cy="25071.1" r="157.48" /> 
</g>
<g style="fill:#FFFFFF; fill-opacity:1.0; 
stroke:#FFFFFF; stroke-width:39.3701; stroke-opacity:1; 
stroke-linecap:round; stroke-linejoin:round;">
</g>
<g style="fill:#FFFFFF; fill-opacity:1.0; 
stroke:#FFFFFF; stroke-width:0; stroke-opacity:1; 
stroke-linecap:round; stroke-linejoin:round;">
<circle cx="33650.3" cy="31071.1" r="157.48" /> 
</g>
<g style="fill:#FFFFFF; fill-opacity:1.0; 
stroke:#FFFFFF; stroke-width:39.3701; stroke-opacity:1; 
stroke-linecap:round; stroke-linejoin:round;">
</g>
<g style="fill:#FFFFFF; fill-opacity:1.0; 
stroke:#FFFFFF; stroke-width:0; stroke-opacity:1; 
stroke-linecap:round; stroke-linejoin:round;">
<circle cx="27650.3" cy="25071.1" r="157.48" /> 
</g>
<g style="fill:#FFFFFF; fill-opacity:1.0; 
stroke:#FFFFFF; stroke-width:39.3701; stroke-opacity:1; 
stroke-linecap:round; stroke-linejoin:round;">
</g>
<g style="fill:#FFFFFF; fill-opacity:1.0; 
stroke:#FFFFFF; stroke-width:0; stroke-opacity:1; 
stroke-linecap:round; stroke-linejoin:round;">
<circle cx="32650.3" cy="31071.1" r="157.48" /> 
</g>
<g style="fill:#FFFFFF; fill-opacity:1.0; 
stroke:#FFFFFF; stroke-width:39.3701; stroke-opacity:1; 
stroke-linecap:round; stroke-linejoin:round;">
</g>
<g style="fill:#FFFFFF; fill-opacity:1.0; 
stroke:#FFFFFF; stroke-width:0; stroke-opacity:1; 
stroke-linecap:round; stroke-linejoin:round;">
<circle cx="28650.3" cy="25071.1" r="157.48" /> 
</g>
<g style="fill:#FFFFFF; fill-opacity:1.0; 
stroke:#FFFFFF; stroke-width:39.3701; stroke-opacity:1; 
stroke-linecap:round; stroke-linejoin:round;">
</g>
<g style="fill:#FFFFFF; fill-opacity:1.0; 
stroke:#FFFFFF; stroke-width:0; stroke-opacity:1; 
stroke-linecap:round; stroke-linejoin:round;">
<circle cx="31650.3" cy="31071.1" r="157.48" /> 
</g>
<g style="fill:#FFFFFF; fill-opacity:1.0; 
stroke:#FFFFFF; stroke-width:39.3701; stroke-opacity:1; 
stroke-linecap:round; stroke-linejoin:round;">
</g>
<g style="fill:#FFFFFF; fill-opacity:1.0; 
stroke:#FFFFFF; stroke-width:0; stroke-opacity:1; 
stroke-linecap:round; stroke-linejoin:round;">
<circle cx="29650.3" cy="25071.1" r="157.48" /> 
</g>
<g style="fill:#FFFFFF; fill-opacity:1.0; 
stroke:#FFFFFF; stroke-width:39.3701; stroke-opacity:1; 
stroke-linecap:round; stroke-linejoin:round;">
</g>
<g style="fill:#FFFFFF; fill-opacity:1.0; 
stroke:#FFFFFF; stroke-width:0; stroke-opacity:1; 
stroke-linecap:round; stroke-linejoin:round;">
<circle cx="30650.3" cy="31071.1" r="157.48" /> 
</g>
<g style="fill:#FFFFFF; fill-opacity:1.0; 
stroke:#FFFFFF; stroke-width:39.3701; stroke-opacity:1; 
stroke-linecap:round; stroke-linejoin:round;">
</g>
<g style="fill:#FFFFFF; fill-opacity:1.0; 
stroke:#FFFFFF; stroke-width:0; stroke-opacity:1; 
stroke-linecap:round; stroke-linejoin:round;">
<circle cx="30650.3" cy="25071.1" r="157.48" /> 
</g>
<g style="fill:#FFFFFF; fill-opacity:1.0; 
stroke:#FFFFFF; stroke-width:39.3701; stroke-opacity:1; 
stroke-linecap:round; stroke-linejoin:round;">
</g>
<g style="fill:#FFFFFF; fill-opacity:1.0; 
stroke:#FFFFFF; stroke-width:0; stroke-opacity:1; 
stroke-linecap:round; stroke-linejoin:round;">
<circle cx="29650.3" cy="31071.1" r="157.48" /> 
</g>
<g style="fill:#FFFFFF; fill-opacity:1.0; 
stroke:#FFFFFF; stroke-width:39.3701; stroke-opacity:1; 
stroke-linecap:round; stroke-linejoin:round;">
</g>
<g style="fill:#FFFFFF; fill-opacity:1.0; 
stroke:#FFFFFF; stroke-width:0; stroke-opacity:1; 
stroke-linecap:round; stroke-linejoin:round;">
<circle cx="31650.3" cy="25071.1" r="157.48" /> 
</g>
<g style="fill:#FFFFFF; fill-opacity:1.0; 
stroke:#FFFFFF; stroke-width:39.3701; stroke-opacity:1; 
stroke-linecap:round; stroke-linejoin:round;">
</g>
<g style="fill:#FFFFFF; fill-opacity:1.0; 
stroke:#FFFFFF; stroke-width:0; stroke-opacity:1; 
stroke-linecap:round; stroke-linejoin:round;">
<circle cx="28650.3" cy="31071.1" r="157.48" /> 
</g>
<g style="fill:#FFFFFF; fill-opacity:1.0; 
stroke:#FFFFFF; stroke-width:39.3701; stroke-opacity:1; 
stroke-linecap:round; stroke-linejoin:round;">
</g>
<g style="fill:#FFFFFF; fill-opacity:1.0; 
stroke:#FFFFFF; stroke-width:0; stroke-opacity:1; 
stroke-linecap:round; stroke-linejoin:round;">
<circle cx="32650.3" cy="25071.1" r="157.48" /> 
</g>
<g style="fill:#FFFFFF; fill-opacity:1.0; 
stroke:#FFFFFF; stroke-width:39.3701; stroke-opacity:1; 
stroke-linecap:round; stroke-linejoin:round;">
</g>
<g style="fill:#FFFFFF; fill-opacity:1.0; 
stroke:#FFFFFF; stroke-width:0; stroke-opacity:1; 
stroke-linecap:round; stroke-linejoin:round;">
<circle cx="27650.3" cy="31071.1" r="157.48" /> 
</g>
<g style="fill:#FFFFFF; fill-opacity:1.0; 
stroke:#FFFFFF; stroke-width:39.3701; stroke-opacity:1; 
stroke-linecap:round; stroke-linejoin:round;">
</g>
<g style="fill:#FFFFFF; fill-opacity:1.0; 
stroke:#FFFFFF; stroke-width:0; stroke-opacity:1; 
stroke-linecap:round; stroke-linejoin:round;">
<circle cx="33650.3" cy="25071.1" r="157.48" /> 
</g>
<g style="fill:#FFFFFF; fill-opacity:1.0; 
stroke:#FFFFFF; stroke-width:39.3701; stroke-opacity:1; 
stroke-linecap:round; stroke-linejoin:round;">
</g>
<g style="fill:#FFFFFF; fill-opacity:1.0; 
stroke:#FFFFFF; stroke-width:0; stroke-opacity:1; 
stroke-linecap:round; stroke-linejoin:round;">
<circle cx="26650.3" cy="31071.1" r="157.48" /> 
</g>
<g style="fill:#FFFFFF; fill-opacity:1.0; 
stroke:#FFFFFF; stroke-width:39.3701; stroke-opacity:1; 
stroke-linecap:round; stroke-linejoin:round;">
</g>
<g style="fill:#FFFFFF; fill-opacity:1.0; 
stroke:#FFFFFF; stroke-width:0; stroke-opacity:1; 
stroke-linecap:round; stroke-linejoin:round;">
<circle cx="34650.3" cy="25071.1" r="157.48" /> 
</g>
<g style="fill:#FFFFFF; fill-opacity:1.0; 
stroke:#FFFFFF; stroke-width:39.3701; stroke-opacity:1; 
stroke-linecap:round; stroke-linejoin:round;">
</g>
<g style="fill:#FFFFFF; fill-opacity:1.0; 
stroke:#FFFFFF; stroke-width:0; stroke-opacity:1; 
stroke-linecap:round; stroke-linejoin:round;">
<circle cx="25650.3" cy="31071.1" r="157.48" /> 
</g>
<g style="fill:#FFFFFF; fill-opacity:1.0; 
stroke:#FFFFFF; stroke-width:39.3701; stroke-opacity:1; 
stroke-linecap:round; stroke-linejoin:round;">
</g>
<g style="fill:#FFFFFF; fill-opacity:1.0; 
stroke:#FFFFFF; stroke-width:0; stroke-opacity:1; 
stroke-linecap:round; stroke-linejoin:round;">
<circle cx="35650.3" cy="25071.1" r="157.48" /> 
</g>
<g style="fill:#FFFFFF; fill-opacity:1.0; 
stroke:#FFFFFF; stroke-width:39.3701; stroke-opacity:1; 
stroke-linecap:round; stroke-linejoin:round;">
</g>
<g style="fill:#FFFFFF; fill-opacity:1.0; 
stroke:#FFFFFF; stroke-width:0; stroke-opacity:1; 
stroke-linecap:round; stroke-linejoin:round;">
<circle cx="24650.3" cy="31071.1" r="157.48" /> 
</g>
<g style="fill:#FFFFFF; fill-opacity:1.0; 
stroke:#FFFFFF; stroke-width:39.3701; stroke-opacity:1; 
stroke-linecap:round; stroke-linejoin:round;">
</g>
<g style="fill:#FFFFFF; fill-opacity:1.0; 
stroke:#FFFFFF; stroke-width:0; stroke-opacity:1; 
stroke-linecap:round; stroke-linejoin:round;">
<circle cx="36650.3" cy="25071.1" r="157.48" /> 
</g>
<g style="fill:#FFFFFF; fill-opacity:1.0; 
stroke:#FFFFFF; stroke-width:39.3701; stroke-opacity:1; 
stroke-linecap:round; stroke-linejoin:round;">
</g>
<g style="fill:#FFFFFF; fill-opacity:1.0; 
stroke:#FFFFFF; stroke-width:0; stroke-opacity:1; 
stroke-linecap:round; stroke-linejoin:round;">
<circle cx="23650.3" cy="31071.1" r="157.48" /> 
</g>
<g style="fill:#FFFFFF; fill-opacity:1.0; 
stroke:#FFFFFF; stroke-width:39.3701; stroke-opacity:1; 
stroke-linecap:round; stroke-linejoin:round;">
</g>
<g style="fill:#FFFFFF; fill-opacity:1.0; 
stroke:#FFFFFF; stroke-width:0; stroke-opacity:1; 
stroke-linecap:round; stroke-linejoin:round;">
<circle cx="26530.3" cy="33811.1" r="196.85" /> 
</g>
<g style="fill:#FFFFFF; fill-opacity:1.0; 
stroke:#FFFFFF; stroke-width:39.3701; stroke-opacity:1; 
stroke-linecap:round; stroke-linejoin:round;">
</g>
<g style="fill:#FFFFFF; fill-opacity:1.0; 
stroke:#FFFFFF; stroke-width:0; stroke-opacity:1; 
stroke-linecap:round; stroke-linejoin:round;">
<circle cx="27530.3" cy="33811.1" r="196.85" /> 
</g>
<g style="fill:#FFFFFF; fill-opacity:1.0; 
stroke:#FFFFFF; stroke-width:39.3701; stroke-opacity:1; 
stroke-linecap:round; stroke-linejoin:round;">
</g>
<g style="fill:#FFFFFF; fill-opacity:1.0; 
stroke:#FFFFFF; stroke-width:0; stroke-opacity:1; 
stroke-linecap:round; stroke-linejoin:round;">
<circle cx="28530.3" cy="33811.1" r="196.85" /> 
</g>
<g style="fill:#FFFFFF; fill-opacity:1.0; 
stroke:#FFFFFF; stroke-width:39.3701; stroke-opacity:1; 
stroke-linecap:round; stroke-linejoin:round;">
</g>
<g style="fill:#FFFFFF; fill-opacity:1.0; 
stroke:#FFFFFF; stroke-width:0; stroke-opacity:1; 
stroke-linecap:round; stroke-linejoin:round;">
<circle cx="29530.3" cy="33811.1" r="196.85" /> 
</g>
<g style="fill:#FFFFFF; fill-opacity:1.0; 
stroke:#FFFFFF; stroke-width:39.3701; stroke-opacity:1; 
stroke-linecap:round; stroke-linejoin:round;">
</g>
<g style="fill:#FFFFFF; fill-opacity:1.0; 
stroke:#FFFFFF; stroke-width:0; stroke-opacity:1; 
stroke-linecap:round; stroke-linejoin:round;">
<circle cx="33010.3" cy="33831.1" r="196.85" /> 
</g>
<g style="fill:#FFFFFF; fill-opacity:1.0; 
stroke:#FFFFFF; stroke-width:39.3701; stroke-opacity:1; 
stroke-linecap:round; stroke-linejoin:round;">
</g>
<g style="fill:#FFFFFF; fill-opacity:1.0; 
stroke:#FFFFFF; stroke-width:0; stroke-opacity:1; 
stroke-linecap:round; stroke-linejoin:round;">
<circle cx="34010.3" cy="33831.1" r="196.85" /> 
</g>
<g style="fill:#FFFFFF; fill-opacity:1.0; 
stroke:#FFFFFF; stroke-width:39.3701; stroke-opacity:1; 
stroke-linecap:round; stroke-linejoin:round;">
</g>
<g style="fill:#FFFFFF; fill-opacity:1.0; 
stroke:#FFFFFF; stroke-width:0; stroke-opacity:1; 
stroke-linecap:round; stroke-linejoin:round;">
<circle cx="35010.3" cy="33831.1" r="196.85" /> 
</g>
<g style="fill:#FFFFFF; fill-opacity:1.0; 
stroke:#FFFFFF; stroke-width:39.3701; stroke-opacity:1; 
stroke-linecap:round; stroke-linejoin:round;">
</g>
<g style="fill:#FFFFFF; fill-opacity:1.0; 
stroke:#FFFFFF; stroke-width:0; stroke-opacity:1; 
stroke-linecap:round; stroke-linejoin:round;">
<circle cx="36010.3" cy="33831.1" r="196.85" /> 
</g>
<g style="fill:#FFFFFF; fill-opacity:1.0; 
stroke:#FFFFFF; stroke-width:39.3701; stroke-opacity:1; 
stroke-linecap:round; stroke-linejoin:round;">
</g>
<g style="fill:#FFFFFF; fill-opacity:1.0; 
stroke:#FFFFFF; stroke-width:0; stroke-opacity:1; 
stroke-linecap:round; stroke-linejoin:round;">
<circle cx="37010.3" cy="33831.1" r="196.85" /> 
</g>
<g style="fill:#FFFFFF; fill-opacity:1.0; 
stroke:#FFFFFF; stroke-width:39.3701; stroke-opacity:1; 
stroke-linecap:round; stroke-linejoin:round;">
</g>
<g style="fill:#FFFFFF; fill-opacity:1.0; 
stroke:#FFFFFF; stroke-width:0; stroke-opacity:1; 
stroke-linecap:round; stroke-linejoin:round;">
<circle cx="38010.3" cy="33831.1" r="196.85" /> 
</g>
<g style="fill:#FFFFFF; fill-opacity:1.0; 
stroke:#FFFFFF; stroke-width:39.3701; stroke-opacity:1; 
stroke-linecap:round; stroke-linejoin:round;">
</g>
<g style="fill:#FFFFFF; fill-opacity:1.0; 
stroke:#FFFFFF; stroke-width:0; stroke-opacity:1; 
stroke-linecap:round; stroke-linejoin:round;">
<circle cx="9870.32" cy="33151.1" r="187.008" /> 
</g>
<g style="fill:#FFFFFF; fill-opacity:1.0; 
stroke:#FFFFFF; stroke-width:39.3701; stroke-opacity:1; 
stroke-linecap:round; stroke-linejoin:round;">
</g>
<g style="fill:#FFFFFF; fill-opacity:1.0; 
stroke:#FFFFFF; stroke-width:0; stroke-opacity:1; 
stroke-linecap:round; stroke-linejoin:round;">
<circle cx="10854.6" cy="33151.1" r="187.008" /> 
</g>
<g style="fill:#FFFFFF; fill-opacity:1.0; 
stroke:#FFFFFF; stroke-width:39.3701; stroke-opacity:1; 
stroke-linecap:round; stroke-linejoin:round;">
</g>
<g style="fill:#FFFFFF; fill-opacity:1.0; 
stroke:#FFFFFF; stroke-width:0; stroke-opacity:1; 
stroke-linecap:round; stroke-linejoin:round;">
<circle cx="11838.8" cy="33151.1" r="187.008" /> 
</g>
<g style="fill:#FFFFFF; fill-opacity:1.0; 
stroke:#FFFFFF; stroke-width:39.3701; stroke-opacity:1; 
stroke-linecap:round; stroke-linejoin:round;">
</g>
<g style="fill:#FFFFFF; fill-opacity:1.0; 
stroke:#FFFFFF; stroke-width:0; stroke-opacity:1; 
stroke-linecap:round; stroke-linejoin:round;">
<circle cx="12823.1" cy="33151.1" r="187.008" /> 
</g>
<g style="fill:#FFFFFF; fill-opacity:1.0; 
stroke:#FFFFFF; stroke-width:39.3701; stroke-opacity:1; 
stroke-linecap:round; stroke-linejoin:round;">
</g>
<g style="fill:#FFFFFF; fill-opacity:1.0; 
stroke:#FFFFFF; stroke-width:0; stroke-opacity:1; 
stroke-linecap:round; stroke-linejoin:round;">
<circle cx="1570.32" cy="32691.1" r="275.5" /> 
</g>
<g style="fill:#FFFFFF; fill-opacity:1.0; 
stroke:#FFFFFF; stroke-width:39.3701; stroke-opacity:1; 
stroke-linecap:round; stroke-linejoin:round;">
</g>
<g style="fill:#FFFFFF; fill-opacity:1.0; 
stroke:#FFFFFF; stroke-width:0; stroke-opacity:1; 
stroke-linecap:round; stroke-linejoin:round;">
<circle cx="3570.32" cy="32691.1" r="275.5" /> 
</g>
<g style="fill:#FFFFFF; fill-opacity:1.0; 
stroke:#FFFFFF; stroke-width:39.3701; stroke-opacity:1; 
stroke-linecap:round; stroke-linejoin:round;">
</g>
<g style="fill:#FFFFFF; fill-opacity:1.0; 
stroke:#FFFFFF; stroke-width:0; stroke-opacity:1; 
stroke-linecap:round; stroke-linejoin:round;">
<circle cx="20750.3" cy="27081.1" r="157.48" /> 
</g>
<g style="fill:#FFFFFF; fill-opacity:1.0; 
stroke:#FFFFFF; stroke-width:39.3701; stroke-opacity:1; 
stroke-linecap:round; stroke-linejoin:round;">
</g>
<g style="fill:#FFFFFF; fill-opacity:1.0; 
stroke:#FFFFFF; stroke-width:0; stroke-opacity:1; 
stroke-linecap:round; stroke-linejoin:round;">
<circle cx="18790.3" cy="27081.1" r="157.48" /> 
</g>
<g style="fill:#FFFFFF; fill-opacity:1.0; 
stroke:#FFFFFF; stroke-width:39.3701; stroke-opacity:1; 
stroke-linecap:round; stroke-linejoin:round;">
</g>
<g style="fill:#FFFFFF; fill-opacity:1.0; 
stroke:#FFFFFF; stroke-width:0; stroke-opacity:1; 
stroke-linecap:round; stroke-linejoin:round;">
<circle cx="19870.3" cy="28381.1" r="157.48" /> 
</g>
<g style="fill:#FFFFFF; fill-opacity:1.0; 
stroke:#FFFFFF; stroke-width:39.3701; stroke-opacity:1; 
stroke-linecap:round; stroke-linejoin:round;">
</g>
<g style="fill:#000000; fill-opacity:1.0; 
stroke:#000000; stroke-width:39.3701; stroke-opacity:1; 
stroke-linecap:round; stroke-linejoin:round;">
</g>
<g style="fill:#C2C200; fill-opacity:1.0; 
stroke:#C2C200; stroke-width:39.3701; stroke-opacity:1; 
stroke-linecap:round; stroke-linejoin:round;">
</g>
<g style="fill:#C2C200; fill-opacity:1.0; 
stroke:#C2C200; stroke-width:59.0551; stroke-opacity:1; 
stroke-linecap:round; stroke-linejoin:round;">
</g>
<g style="fill:#C2C200; fill-opacity:0.0; 
stroke:#C2C200; stroke-width:59.0551; stroke-opacity:1; 
stroke-linecap:round; stroke-linejoin:round;">
<path d="M39320 35080
L108 35080
" />
<path d="M39242 41
L39320 35080
" />
<path d="M29 41
L39242 41
" />
<path d="M29 35080
L29 41
" />
<path d="M108 35080
L29 35080
" />
</g> 
</svg>
