<?xml version="1.0" standalone="no"?>
 <!DOCTYPE svg PUBLIC "-//W3C//DTD SVG 1.1//EN" 
 "http://www.w3.org/Graphics/SVG/1.1/DTD/svg11.dtd"> 
<svg xmlns="http://www.w3.org/2000/svg" version="1.1" 
    width="10.2235cm" height="8.91794cm" viewBox="0 0 40250 35110 ">
<title>SVG Picture created as nivel y temperatura-F.SilkS.svg date 2019/06/17 11:50:30 </title>
  <desc>Picture generated by PCBNEW </desc>
<g style="fill:#000000; fill-opacity:1;stroke:#000000; stroke-opacity:1;
stroke-linecap:round; stroke-linejoin:round; "
 transform="translate(0 0) scale(1 1)">
</g>
<g style="fill:#000000; fill-opacity:0.0; 
stroke:#000000; stroke-width:-0.000393701; stroke-opacity:1; 
stroke-linecap:round; stroke-linejoin:round;">
</g>
<g style="fill:#008484; fill-opacity:0.0; 
stroke:#008484; stroke-width:-0.000393701; stroke-opacity:1; 
stroke-linecap:round; stroke-linejoin:round;">
</g>
<g style="fill:#008484; fill-opacity:0.0; 
stroke:#008484; stroke-width:59.0551; stroke-opacity:1; 
stroke-linecap:round; stroke-linejoin:round;">
<path d="M8359 33345
L8659 33345
" />
<path d="M5812 33364
L6112 33364
" />
<path d="M5962 33514
L5962 33214
" />
<path d="M6342 30682
L6211 30682
" />
<path d="M6211 30889
L6211 30495
L6398 30495
" />
<path d="M6548 30889
L6548 30495
" />
<path d="M6960 30889
L6829 30701
" />
<path d="M6735 30889
L6735 30495
L6885 30495
L6923 30514
L6942 30533
L6960 30570
L6960 30626
L6942 30664
L6923 30682
L6885 30701
L6735 30701
" />
<path d="M7129 30495
L7129 30814
L7148 30851
L7167 30870
L7204 30889
L7279 30889
L7317 30870
L7335 30851
L7354 30814
L7354 30495
" />
<path d="M7504 30495
L7767 30889
" />
<path d="M7767 30495
L7504 30889
" />
<path d="M37813 32791
L37794 32828
L37794 32884
L37813 32941
L37850 32978
L37888 32997
L37963 33016
L38019 33016
L38094 32997
L38132 32978
L38169 32941
L38188 32884
L38188 32847
L38169 32791
L38150 32772
L38019 32772
L38019 32847
" />
<path d="M38188 32603
L37794 32603
L38188 32378
L37794 32378
" />
<path d="M38188 32191
L37794 32191
L37794 32097
L37813 32041
L37850 32003
L37888 31984
L37963 31966
L38019 31966
L38094 31984
L38132 32003
L38169 32041
L38188 32097
L38188 32191
" />
<path d="M36814 33036
L37208 32904
L36814 32773
" />
<path d="M37170 32417
L37189 32436
L37208 32492
L37208 32529
L37189 32586
L37152 32623
L37114 32642
L37039 32661
L36983 32661
L36908 32642
L36870 32623
L36833 32586
L36814 32529
L36814 32492
L36833 32436
L36852 32417
" />
<path d="M37170 32023
L37189 32042
L37208 32098
L37208 32136
L37189 32192
L37152 32229
L37114 32248
L37039 32267
L36983 32267
L36908 32248
L36870 32229
L36833 32192
L36814 32136
L36814 32098
L36833 32042
L36852 32023
" />
<path d="M36168 33029
L35774 33029
L36055 32898
L35774 32767
L36168 32767
" />
<path d="M36168 32579
L35774 32579
" />
<path d="M36149 32411
L36168 32354
L36168 32261
L36149 32223
L36130 32204
L36093 32186
L36055 32186
L36018 32204
L35999 32223
L35980 32261
L35962 32336
L35943 32373
L35924 32392
L35887 32411
L35849 32411
L35812 32392
L35793 32373
L35774 32336
L35774 32242
L35793 32186
" />
<path d="M35774 31942
L35774 31867
L35793 31829
L35830 31792
L35905 31773
L36037 31773
L36112 31792
L36149 31829
L36168 31867
L36168 31942
L36149 31979
L36112 32017
L36037 32036
L35905 32036
L35830 32017
L35793 31979
L35774 31942
" />
<path d="M35228 33009
L34834 33009
L35115 32878
L34834 32747
L35228 32747
" />
<path d="M34834 32484
L34834 32409
L34853 32372
L34890 32334
L34965 32316
L35097 32316
L35172 32334
L35209 32372
L35228 32409
L35228 32484
L35209 32522
L35172 32559
L35097 32578
L34965 32578
L34890 32559
L34853 32522
L34834 32484
" />
<path d="M35209 32166
L35228 32109
L35228 32016
L35209 31978
L35190 31959
L35153 31941
L35115 31941
L35078 31959
L35059 31978
L35040 32016
L35022 32091
L35003 32128
L34984 32147
L34947 32166
L34909 32166
L34872 32147
L34853 32128
L34834 32091
L34834 31997
L34853 31941
" />
<path d="M35228 31772
L34834 31772
" />
<path d="M34209 32957
L34228 32901
L34228 32807
L34209 32769
L34190 32751
L34153 32732
L34115 32732
L34078 32751
L34059 32769
L34040 32807
L34022 32882
L34003 32919
L33984 32938
L33947 32957
L33909 32957
L33872 32938
L33853 32919
L33834 32882
L33834 32788
L33853 32732
" />
<path d="M34190 32338
L34209 32357
L34228 32413
L34228 32451
L34209 32507
L34172 32544
L34134 32563
L34059 32582
L34003 32582
L33928 32563
L33890 32544
L33853 32507
L33834 32451
L33834 32413
L33853 32357
L33872 32338
" />
<path d="M34228 32169
L33834 32169
" />
<path d="M34228 31944
L34003 32113
" />
<path d="M33834 31944
L34059 32169
" />
<path d="M33170 32696
L33189 32715
L33208 32771
L33208 32809
L33189 32865
L33152 32902
L33114 32921
L33039 32940
L32983 32940
L32908 32921
L32870 32902
L32833 32865
L32814 32809
L32814 32771
L32833 32715
L32852 32696
" />
<path d="M33189 32546
L33208 32490
L33208 32396
L33189 32359
L33170 32340
L33133 32321
L33095 32321
L33058 32340
L33039 32359
L33020 32396
L33002 32471
L32983 32509
L32964 32527
L32927 32546
L32889 32546
L32852 32527
L32833 32509
L32814 32471
L32814 32378
L32833 32321
" />
<path d="M29333 32751
L29314 32788
L29314 32844
L29333 32901
L29370 32938
L29408 32957
L29483 32976
L29539 32976
L29614 32957
L29652 32938
L29689 32901
L29708 32844
L29708 32807
L29689 32751
L29670 32732
L29539 32732
L29539 32807
" />
<path d="M29708 32563
L29314 32563
L29708 32338
L29314 32338
" />
<path d="M29708 32151
L29314 32151
L29314 32057
L29333 32001
L29370 31963
L29408 31944
L29483 31926
L29539 31926
L29614 31944
L29652 31963
L29689 32001
L29708 32057
L29708 32151
" />
<path d="M28394 32976
L28788 32844
L28394 32713
" />
<path d="M28750 32357
L28769 32376
L28788 32432
L28788 32469
L28769 32526
L28732 32563
L28694 32582
L28619 32601
L28563 32601
L28488 32582
L28450 32563
L28413 32526
L28394 32469
L28394 32432
L28413 32376
L28432 32357
" />
<path d="M28750 31963
L28769 31982
L28788 32038
L28788 32076
L28769 32132
L28732 32169
L28694 32188
L28619 32207
L28563 32207
L28488 32188
L28450 32169
L28413 32132
L28394 32076
L28394 32038
L28413 31982
L28432 31963
" />
<path d="M27689 32969
L27708 32912
L27708 32819
L27689 32781
L27670 32762
L27633 32744
L27595 32744
L27558 32762
L27539 32781
L27520 32819
L27502 32894
L27483 32931
L27464 32950
L27427 32969
L27389 32969
L27352 32950
L27333 32931
L27314 32894
L27314 32800
L27333 32744
" />
<path d="M27708 32575
L27314 32575
L27314 32481
L27333 32425
L27370 32387
L27408 32369
L27483 32350
L27539 32350
L27614 32369
L27652 32387
L27689 32425
L27708 32481
L27708 32575
" />
<path d="M27595 32200
L27595 32013
" />
<path d="M27708 32238
L27314 32106
L27708 31975
" />
<path d="M26709 32939
L26728 32883
L26728 32789
L26709 32752
L26690 32733
L26653 32714
L26615 32714
L26578 32733
L26559 32752
L26540 32789
L26522 32864
L26503 32902
L26484 32921
L26447 32939
L26409 32939
L26372 32921
L26353 32902
L26334 32864
L26334 32771
L26353 32714
" />
<path d="M26690 32321
L26709 32339
L26728 32396
L26728 32433
L26709 32489
L26672 32527
L26634 32546
L26559 32564
L26503 32564
L26428 32546
L26390 32527
L26353 32489
L26334 32433
L26334 32396
L26353 32339
L26372 32321
" />
<path d="M26728 31964
L26728 32152
L26334 32152
" />
</g>
<g style="fill:#008484; fill-opacity:0.0; 
stroke:#008484; stroke-width:118.11; stroke-opacity:1; 
stroke-linecap:round; stroke-linejoin:round;">
<path d="M133 24316
L133 694
" />
<path d="M39183 24316
L133 24306
" />
<path d="M39183 694
L39183 24316
" />
<path d="M133 686
L39173 686
" />
</g>
<g style="fill:#008484; fill-opacity:0.0; 
stroke:#008484; stroke-width:120; stroke-opacity:1; 
stroke-linecap:round; stroke-linejoin:round;">
<path d="M34614 7772
L4692 7772
" />
<path d="M34614 17220
L34614 7772
" />
<path d="M4692 17220
L34614 17220
" />
<path d="M4692 7772
L4692 17220
" />
<path d="M755 20370
L755 4622
" />
<path d="M38551 20370
L755 20370
" />
<path d="M38551 4622
L38551 20370
" />
<path d="M755 4622
L38551 4622
" />
</g>
<g style="fill:#008484; fill-opacity:0.0; 
stroke:#008484; stroke-width:19.685; stroke-opacity:1; 
stroke-linecap:round; stroke-linejoin:round;">
<path d="M14261 29942
L14261 34351
" />
<path d="M14261 34351
L15678 34351
" />
<path d="M15678 34351
L15678 29942
" />
<path d="M15678 29942
L14261 29942
" />
</g>
<g style="fill:#008484; fill-opacity:0.0; 
stroke:#008484; stroke-width:59.0551; stroke-opacity:1; 
stroke-linecap:round; stroke-linejoin:round;">
<path d="M21780 29641
L21780 34641
" />
<path d="M21770 34641
L15750 34641
" />
<path d="M15750 34641
L15750 29641
" />
<path d="M15750 29641
L21780 29641
" />
</g>
<g style="fill:#008484; fill-opacity:0.0; 
stroke:#008484; stroke-width:47.2441; stroke-opacity:1; 
stroke-linecap:round; stroke-linejoin:round;">
<path d="M22099 24519
L22099 31622
" />
<path d="M39201 24519
L22099 24519
" />
<path d="M39201 31622
L39201 24519
" />
<path d="M38150 30571
L38150 31622
" />
<path d="M24150 30571
L38150 30571
" />
<path d="M24150 30571
L24150 31622
" />
<path d="M38150 25571
L38150 24519
" />
<path d="M23150 25571
L38150 25571
" />
<path d="M23150 25571
L23150 24519
" />
<path d="M22099 31622
L23150 31622
" />
<path d="M24150 31622
L39201 31622
" />
<path d="M23150 30571
L23150 31622
" />
<path d="M24150 30571
L23150 30571
" />
<path d="M7684 31812
L6548 31812
" />
<path d="M6548 31812
L6548 32529
" />
<path d="M6548 32529
L7684 32529
" />
<path d="M5727 28811
L5933 28811
" />
<path d="M5727 29370
L5933 29370
" />
<path d="M7207 29370
L7413 29370
" />
<path d="M7207 28811
L7413 28811
" />
<path d="M30053 34334
L30053 33287
" />
<path d="M27030 34334
L30053 34334
" />
<path d="M27030 33287
L30053 33287
" />
<path d="M27030 34334
L27030 33287
" />
<path d="M26530 34334
L26006 34334
" />
<path d="M26006 34334
L26006 33811
" />
<path d="M38533 34354
L38533 33307
" />
<path d="M33510 34354
L38533 34354
" />
<path d="M33510 33307
L38533 33307
" />
<path d="M33510 34354
L33510 33307
" />
<path d="M33010 34354
L32486 34354
" />
<path d="M32486 34354
L32486 33831
" />
<path d="M8862 32182
L8862 34532
" />
<path d="M8862 34532
L13830 34532
" />
<path d="M13830 34532
L13830 32182
" />
<path d="M13830 32182
L8862 32182
" />
<path d="M10165 32186
L10165 32481
" />
<path d="M10165 32481
L12527 32481
" />
<path d="M12527 32481
L12527 32186
" />
<path d="M12527 32186
L10165 32186
" />
<path d="M8866 32186
L8866 32481
" />
<path d="M8866 32481
L9575 32481
" />
<path d="M9575 32481
L9575 32186
" />
<path d="M9575 32186
L8866 32186
" />
<path d="M13118 32186
L13118 32481
" />
<path d="M13118 32481
L13827 32481
" />
<path d="M13827 32481
L13827 32186
" />
<path d="M13827 32186
L13118 32186
" />
<path d="M8866 33072
L9161 33072
" />
<path d="M9161 33072
L9161 34233
" />
<path d="M9161 34233
L11346 34233
" />
<path d="M13827 33072
L13531 33072
" />
<path d="M13531 33072
L13531 34233
" />
<path d="M13531 34233
L11346 34233
" />
<path d="M9240 32068
L8748 32068
" />
<path d="M8748 32068
L8748 32560
" />
<path d="M17241 29281
L17241 27805
" />
<path d="M17241 25140
L17241 26616
" />
<path d="M13518 25140
L17241 25140
" />
<path d="M13518 29281
L17241 29281
" />
<path d="M13099 28862
L13099 27805
" />
<path d="M13099 25559
L13099 26616
" />
<path d="M13099 25559
L13518 25140
" />
<path d="M13099 28862
L13518 29281
" />
<path d="M12512 26124
L13004 26124
" />
<path d="M12758 25878
L12758 26370
" />
<path d="M12127 27928
L12127 26845
" />
<path d="M12127 24573
L12127 25656
" />
<path d="M9192 24573
L12127 24573
" />
<path d="M9192 27928
L12127 27928
" />
<path d="M8773 27509
L8773 26845
" />
<path d="M8773 24993
L8773 25656
" />
<path d="M8773 24993
L9192 24573
" />
<path d="M8773 27509
L9192 27928
" />
<path d="M8284 25262
L8678 25262
" />
<path d="M8481 25066
L8481 25459
" />
<path d="M10311 29741
L10311 31040
" />
<path d="M10311 31040
L12437 31040
" />
<path d="M10311 29741
L12437 29741
" />
</g>
<g style="fill:#008484; fill-opacity:0.0; 
stroke:#008484; stroke-width:120; stroke-opacity:1; 
stroke-linecap:round; stroke-linejoin:round;">
<path d="M170 34691
L4970 34691
" />
<path d="M4970 34291
L170 34291
" />
<path d="M170 31191
L4970 31191
" />
<path d="M170 31191
L170 34691
" />
<path d="M4970 34691
L4970 31191
" />
<path d="M2570.32 31691.1 A1414.21 1414.21 0.0 0 0 570.315 31691.1 " />
<path d="M4570.32 31691.1 A1414.21 1414.21 0.0 0 0 2570.32 31691.1 " />
<path d="M4570 31691
L4570 34291
" />
<path d="M570 31691
L570 34291
" />
</g>
<g style="fill:#008484; fill-opacity:0.0; 
stroke:#008484; stroke-width:47.2441; stroke-opacity:1; 
stroke-linecap:round; stroke-linejoin:round;">
<path d="M7827 26542
L7827 27447
" />
<path d="M7827 27447
L4913 27447
" />
<path d="M4913 27447
L4913 26542
" />
<path d="M4913 25439
L4913 24534
" />
<path d="M4913 24534
L7827 24534
" />
<path d="M7827 24534
L7827 25439
" />
<path d="M8687 29370
L8893 29370
" />
<path d="M8687 28811
L8893 28811
" />
<path d="M10167 28811
L10373 28811
" />
<path d="M10167 29370
L10373 29370
" />
</g>
<g style="fill:#008484; fill-opacity:0.0; 
stroke:#008484; stroke-width:59.0551; stroke-opacity:1; 
stroke-linecap:round; stroke-linejoin:round;">
<path d="M6600 32958
L8017 32958
" />
<path d="M8017 32958
L8214 33155
" />
<path d="M8214 33155
L8214 33470
" />
<path d="M8214 33470
L8017 33667
" />
<path d="M8017 33667
L6600 33667
" />
<path d="M6600 33667
L6403 33470
" />
<path d="M6403 33470
L6403 33155
" />
<path d="M6403 33155
L6600 32958
" />
</g>
<g style="fill:#008484; fill-opacity:0.0; 
stroke:#008484; stroke-width:47.2441; stroke-opacity:1; 
stroke-linecap:round; stroke-linejoin:round;">
<path d="M283 28341
L283 28932
" />
<path d="M283 28932
L657 28932
" />
<path d="M657 28932
L657 30950
" />
<path d="M4377 28341
L4377 28932
" />
<path d="M4377 28932
L4003 28932
" />
<path d="M4003 28932
L4003 29365
" />
<path d="M11647 28811
L11853 28811
" />
<path d="M11647 29370
L11853 29370
" />
</g>
<g style="fill:#008484; fill-opacity:0.0; 
stroke:#008484; stroke-width:59.0551; stroke-opacity:1; 
stroke-linecap:round; stroke-linejoin:round;">
<path d="M21710 25371
L17910 25371
" />
<path d="M21710 29151
L21710 25371
" />
<path d="M17910 29151
L21690 29151
" />
<path d="M17910 25371
L17910 29151
" />
</g>
<g style="fill:#008484; fill-opacity:1.0; 
stroke:#008484; stroke-width:3.93701; stroke-opacity:1; 
stroke-linecap:round; stroke-linejoin:round;">
<polyline style="fill-rule:evenodd;"
points="5788,30218
5787,30219
5784,30221
5781,30224
5776,30228
5770,30234
5763,30240
5755,30246
5746,30254
5737,30262
5727,30270
5717,30279
5706,30288
5695,30297
5684,30307
5673,30317
5661,30326
5651,30335
5640,30344
5629,30353
5620,30362
5610,30370
5602,30377
5594,30384
5587,30389
5581,30395
5576,30399
5572,30402
5570,30404
5569,30405
5569,30405
5568,30404
5566,30402
5562,30399
5557,30395
5551,30390
5544,30384
5536,30377
5527,30369
5517,30361
5506,30352
5495,30342
5483,30332
5471,30322
5461,30314
5448,30303
5436,30293
5424,30283
5413,30273
5403,30264
5393,30256
5384,30248
5376,30242
5369,30236
5363,30231
5358,30227
5355,30224
5353,30222
5353,30222
5352,30221
5352,30221
5352,30221
5352,30221
5353,30221
5353,30222
5355,30222
5357,30223
5359,30224
5362,30226
5366,30228
5371,30231
5378,30234
5385,30237
5393,30241
5403,30246
5414,30252
5426,30258
5440,30265
5456,30273
5465,30278
5478,30285
5491,30291
5503,30297
5515,30303
5526,30309
5535,30314
5544,30318
5552,30322
5558,30325
5563,30327
5566,30329
5568,30330
5568,30330
5569,30329
5572,30328
5576,30326
5582,30323
5589,30320
5597,30316
5606,30311
5616,30306
5626,30300
5638,30295
5650,30288
5662,30282
5675,30276
5688,30269
5701,30262
5714,30256
5726,30249
5738,30243
5750,30237
5762,30231
5772,30225
5777,30223
5781,30221
5785,30219
5787,30218
5788,30218
5788,30218
" /> 
<polyline style="fill-rule:evenodd;"
points="5859,30354
5880,30354
5900,30354
5920,30354
5939,30354
5957,30354
5974,30354
5990,30354
6005,30354
6019,30354
6032,30354
6044,30354
6054,30354
6062,30354
6069,30354
6074,30354
6077,30354
6079,30355
6079,30355
6080,30355
6080,30355
6080,30356
6079,30356
6077,30357
6074,30357
6069,30358
6063,30360
6055,30361
6054,30362
6047,30363
6038,30365
6030,30366
6023,30368
6017,30369
6015,30370
6009,30371
6002,30372
5995,30374
5989,30375
5989,30375
5985,30376
5980,30377
5973,30378
5965,30380
5957,30382
5948,30384
5941,30385
5931,30387
5922,30389
5912,30391
5903,30393
5894,30395
5887,30396
5883,30397
5876,30399
5868,30400
5858,30402
5849,30404
5840,30406
5835,30407
5828,30409
5822,30410
5815,30411
5808,30413
5802,30414
5794,30416
5786,30417
5777,30419
5767,30421
5756,30424
5743,30426
5729,30429
5720,30431
5672,30441
5672,30516
5816,30516
5835,30516
5853,30516
5870,30516
5885,30516
5900,30516
5913,30516
5926,30516
5936,30516
5945,30516
5953,30516
5959,30516
5963,30516
5965,30516
5965,30517
5969,30517
5972,30518
5973,30519
5974,30519
5975,30520
5974,30520
5972,30521
5969,30522
5965,30523
5959,30525
5953,30526
5946,30528
5936,30531
5926,30534
5914,30537
5902,30540
5888,30544
5874,30548
5859,30552
5844,30556
5829,30560
5814,30564
5799,30568
5785,30572
5771,30576
5758,30580
5746,30583
5735,30586
5728,30588
5718,30591
5708,30593
5699,30596
5691,30598
5685,30600
5679,30601
5675,30602
5673,30603
5672,30603
5672,30604
5671,30607
5671,30611
5670,30616
5670,30622
5669,30624
5669,30631
5668,30637
5667,30642
5667,30646
5666,30649
5666,30649
5666,30652
5666,30656
5665,30661
5664,30666
5664,30669
5663,30674
5663,30680
5662,30688
5661,30697
5659,30707
5658,30718
5657,30730
5655,30742
5654,30750
5652,30774
5649,30796
5646,30816
5644,30835
5642,30852
5640,30867
5639,30881
5637,30894
5636,30905
5635,30915
5634,30923
5633,30931
5632,30937
5632,30943
5631,30947
5631,30951
5630,30954
5630,30957
5630,30958
5630,30960
5629,30961
5629,30961
5629,30963
5629,30967
5628,30973
5627,30980
5626,30988
5625,30998
5624,31009
5622,31020
5621,31033
5619,31045
5618,31059
5616,31073
5614,31087
5613,31100
5611,31114
5610,31128
5608,31141
5607,31153
5605,31165
5604,31176
5603,31186
5602,31195
5601,31202
5600,31208
5600,31212
5599,31215
5599,31216
5599,31219
5598,31223
5598,31224
5597,31226
5597,31226
5596,31224
5596,31223
5596,31222
5596,31222
5595,31220
5595,31218
5595,31216
5595,31213
5595,31209
5595,31205
5595,31200
5595,31193
5595,31187
5595,31179
5595,31170
5595,31160
5595,31149
5594,31136
5594,31123
5594,31108
5594,31092
5594,31075
5594,31056
5594,31036
5594,31014
5594,30990
5594,30965
5594,30938
5594,30909
5594,30879
5594,30846
5594,30812
5594,30808
5594,30397
5607,30385
5612,30380
5618,30375
5624,30370
5629,30365
5631,30363
5642,30354
5859,30354
" /> 
<polyline style="fill-rule:evenodd;"
points="5504,30361
5508,30364
5512,30367
5517,30372
5522,30376
5528,30381
5543,30395
5543,30803
5543,31211
5540,31220
5539,31223
5538,31225
5538,31226
5538,31226
5538,31225
5537,31222
5537,31217
5536,31211
5535,31204
5535,31195
5534,31186
5532,31176
5531,31165
5530,31154
5529,31143
5527,31131
5526,31120
5525,31109
5524,31099
5523,31089
5522,31080
5521,31072
5520,31065
5520,31060
5519,31058
5519,31056
5519,31052
5518,31047
5517,31040
5517,31033
5516,31025
5515,31022
5514,31014
5514,31006
5513,31000
5512,30994
5512,30990
5511,30987
5511,30986
5511,30985
5511,30981
5510,30976
5509,30970
5508,30961
5507,30952
5506,30941
5505,30928
5503,30915
5502,30901
5500,30885
5498,30869
5496,30853
5495,30836
5494,30829
5492,30812
5490,30795
5488,30779
5486,30763
5485,30749
5483,30735
5482,30722
5481,30711
5479,30700
5478,30692
5478,30684
5477,30679
5477,30675
5476,30672
5476,30672
5476,30670
5476,30667
5475,30662
5474,30655
5474,30648
5473,30639
5472,30630
5471,30622
5470,30613
5469,30604
5468,30596
5467,30589
5466,30584
5466,30579
5466,30577
5465,30576
5465,30576
5462,30575
5457,30573
5451,30572
5444,30569
5435,30567
5425,30564
5413,30560
5401,30556
5388,30552
5373,30548
5359,30544
5343,30539
5331,30535
5315,30530
5300,30526
5285,30521
5271,30517
5258,30513
5245,30509
5234,30506
5224,30503
5216,30500
5208,30498
5203,30496
5199,30495
5196,30494
5196,30494
5196,30493
5197,30492
5199,30491
5199,30491
5200,30490
5201,30490
5202,30490
5204,30490
5206,30490
5209,30490
5213,30489
5217,30489
5223,30489
5229,30489
5237,30489
5246,30489
5256,30489
5268,30489
5282,30489
5297,30489
5314,30489
5332,30489
5334,30489
5465,30488
5466,30465
5466,30443
5462,30442
5460,30441
5457,30440
5452,30439
5446,30438
5438,30436
5430,30434
5422,30432
5420,30432
5390,30425
5362,30418
5335,30412
5311,30406
5288,30401
5267,30396
5247,30391
5230,30387
5213,30383
5198,30379
5184,30376
5172,30373
5161,30370
5151,30368
5142,30366
5134,30364
5128,30362
5122,30361
5117,30360
5114,30359
5110,30358
5108,30357
5106,30357
5105,30356
5105,30356
5105,30356
5106,30356
5109,30356
5114,30356
5121,30356
5129,30355
5140,30355
5152,30355
5167,30355
5183,30355
5202,30355
5222,30355
5244,30355
5269,30355
5295,30355
5301,30355
5497,30355
5504,30361
" /> 
<polyline style="fill-rule:evenodd;"
points="23786,31995
23786,32029
23608,32210
23430,32391
23430,32474
23430,32557
23322,32557
23319,32578
23318,32587
23316,32605
23314,32631
23311,32662
23307,32699
23304,32741
23300,32785
23296,32831
23291,32878
23287,32925
23283,32971
23279,33015
23276,33055
23273,33090
23270,33121
23268,33144
23267,33160
23267,33167
23267,33167
23270,33173
23279,33184
23294,33202
23316,33226
23344,33257
23379,33294
23420,33338
23468,33389
23482,33403
23697,33628
23662,33663
23634,33632
23624,33621
23608,33604
23587,33582
23562,33556
23535,33528
23507,33498
23490,33480
23457,33446
23432,33419
23411,33399
23395,33384
23384,33374
23376,33369
23371,33368
23368,33371
23367,33377
23366,33386
23366,33388
23362,33405
23353,33426
23340,33446
23326,33464
23320,33470
23290,33489
23255,33500
23225,33502
23190,33497
23158,33483
23129,33460
23124,33455
23105,33433
22772,33433
22772,33502
22682,33502
22682,33470
22681,33448
22678,33432
22673,33424
22670,33418
22667,33409
22664,33397
22662,33379
22660,33354
22657,33322
22655,33298
22646,33186
22433,33402
22394,33441
22357,33479
22322,33514
22290,33547
22262,33576
22238,33600
22219,33620
22205,33634
22198,33642
22186,33654
22176,33663
22170,33665
22164,33662
22154,33654
22150,33650
22136,33635
22215,33555
22235,33535
22261,33508
22292,33477
22326,33443
22363,33406
22401,33367
22439,33329
22466,33301
22507,33259
22542,33224
22571,33194
22594,33170
22612,33151
22620,33141
22690,33141
22699,33254
22702,33287
22704,33317
22707,33342
22709,33362
22710,33374
22711,33377
22713,33388
23087,33388
23090,33357
23097,33320
23113,33288
23136,33261
23165,33240
23198,33228
23209,33222
23214,33210
23214,33209
23215,33204
23214,33199
23211,33192
23205,33184
23195,33172
23181,33156
23161,33136
23136,33109
23134,33107
23107,33078
23077,33047
23048,33017
23022,32989
22999,32965
22994,32959
22975,32940
22958,32922
22945,32909
22935,32902
22932,32900
22928,32903
22917,32913
22901,32929
22881,32948
22857,32972
22831,32999
22809,33021
22690,33141
22620,33141
22624,33137
22633,33126
22637,33119
22638,33116
22638,33109
22637,33093
22635,33069
22632,33037
22629,33000
22626,32958
22622,32911
22618,32860
22615,32820
22596,32593
22644,32593
22645,32598
22646,32612
22647,32634
22650,32662
22652,32697
22656,32737
22659,32780
22663,32822
22667,32869
22671,32913
22674,32953
22677,32989
22679,33019
22681,33043
22682,33058
22682,33064
22683,33068
22685,33069
22689,33068
22695,33063
22706,33054
22720,33040
22739,33022
22764,32997
22791,32970
22900,32862
22899,32861
22971,32861
22974,32865
22983,32876
22997,32892
23015,32911
23037,32934
23060,32959
23085,32986
23110,33012
23135,33038
23158,33062
23179,33084
23196,33102
23210,33115
23218,33123
23220,33125
23221,33119
23222,33105
23225,33083
23227,33054
23231,33018
23235,32977
23239,32931
23243,32882
23247,32842
23252,32790
23256,32741
23260,32697
23263,32656
23266,32622
23268,32594
23270,32574
23270,32562
23270,32558
23266,32561
23256,32570
23241,32585
23222,32604
23199,32626
23174,32651
23147,32678
23119,32706
23091,32735
23064,32762
23039,32788
23017,32811
22998,32831
22983,32846
22974,32857
22971,32861
22899,32861
22859,32818
22838,32796
22815,32772
22791,32746
22765,32719
22740,32692
22716,32667
22694,32644
22675,32624
22660,32609
22649,32598
22645,32593
22644,32593
22596,32593
22591,32537
22355,32288
22118,32039
22118,32005
22118,31970
22157,32011
22178,32033
22203,32060
22232,32090
22263,32123
22295,32157
22329,32193
22364,32229
22398,32264
22431,32299
22462,32332
22492,32362
22518,32390
22541,32413
22559,32432
22573,32446
22581,32454
22582,32455
22582,32450
22582,32437
22581,32417
22579,32394
22578,32384
22572,32314
22618,32314
22620,32325
22622,32334
22623,32350
22625,32373
22627,32398
22628,32408
22630,32435
22632,32461
22634,32482
22636,32496
22636,32499
22637,32504
22640,32510
22645,32518
22653,32528
22664,32542
22679,32558
22699,32580
22723,32606
22754,32638
22785,32671
22816,32703
22845,32733
22871,32760
22894,32783
22912,32802
22926,32815
22934,32822
22935,32823
22940,32819
22950,32809
22965,32794
22984,32775
23006,32752
23022,32736
23104,32651
22861,32651
22861,32557
23158,32557
23158,32598
23212,32544
23251,32506
23326,32506
23327,32512
23330,32515
23339,32517
23355,32517
23358,32517
23390,32517
23390,32431
23358,32462
23340,32482
23329,32497
23326,32506
23251,32506
23267,32490
23267,32442
23267,32419
23267,32405
23269,32397
23272,32394
23276,32393
23281,32392
23285,32388
23287,32379
23290,32364
23292,32341
23293,32333
23294,32314
22618,32314
22572,32314
22509,32314
22509,32269
22536,32269
22552,32269
22560,32267
22561,32266
22616,32266
22619,32269
22629,32269
22635,32269
22658,32269
22741,32269
23298,32269
23280,32250
23250,32226
23214,32208
23170,32195
23127,32188
23098,32184
23098,32220
22871,32220
22871,32179
22837,32183
22814,32186
22789,32189
22774,32192
22744,32198
22743,32234
22741,32269
22658,32269
22658,32250
22657,32237
22655,32230
22655,32230
22647,32233
22637,32241
22626,32250
22619,32259
22618,32260
22616,32266
22561,32266
22564,32262
22566,32257
22573,32243
22586,32226
22603,32209
22621,32194
22634,32186
22648,32178
22655,32170
22658,32162
22658,32157
22658,32156
22910,32156
22910,32180
23059,32180
23059,32156
22910,32156
22658,32156
22658,32141
22699,32141
22719,32141
22734,32142
22742,32144
22743,32145
22748,32146
22761,32146
22779,32144
22791,32142
22814,32139
22835,32135
22850,32133
22855,32133
22866,32129
22871,32123
22872,32121
22876,32119
22886,32118
22900,32117
22921,32116
22950,32116
22984,32116
23021,32116
23049,32116
23069,32117
23083,32117
23091,32119
23096,32120
23098,32123
23098,32125
23101,32134
23111,32139
23129,32141
23133,32141
23163,32144
23198,32153
23234,32166
23267,32182
23296,32200
23299,32203
23311,32212
23319,32216
23324,32215
23329,32210
23344,32200
23363,32196
23384,32198
23404,32206
23419,32218
23420,32220
23431,32243
23433,32267
23426,32290
23411,32310
23409,32312
23398,32320
23387,32323
23371,32323
23367,32323
23352,32322
23344,32324
23341,32328
23341,32331
23340,32342
23339,32358
23338,32367
23336,32382
23337,32390
23341,32393
23347,32393
23351,32392
23358,32388
23367,32380
23379,32369
23396,32354
23417,32334
23442,32309
23473,32278
23510,32241
23553,32198
23573,32177
23786,31961
23786,31995
" /> 
<polyline style="fill-rule:evenodd;"
points="23638,34339
22252,34339
22252,33997
23638,33997
23638,34339
" /> 
</g>
<g style="fill:#008484; fill-opacity:0.0; 
stroke:#008484; stroke-width:3.93701; stroke-opacity:1; 
stroke-linecap:round; stroke-linejoin:round;">
</g>
<g style="fill:#008484; fill-opacity:0.0; 
stroke:#008484; stroke-width:118.11; stroke-opacity:1; 
stroke-linecap:round; stroke-linejoin:round;">
<path d="M19203 14141
L19203 14619
L19231 14676
L19260 14704
L19316 14732
L19428 14732
L19485 14704
L19513 14676
L19541 14619
L19541 14141
" />
<path d="M20131 14732
L19794 14732
" />
<path d="M19963 14732
L19963 14141
L19906 14226
L19850 14282
L19794 14310
" />
<path d="M17938 10794
L17657 10794
L17657 10203
" />
<path d="M18472 10738
L18444 10766
L18360 10794
L18303 10794
L18219 10766
L18163 10709
L18135 10653
L18107 10541
L18107 10456
L18135 10344
L18163 10288
L18219 10231
L18303 10203
L18360 10203
L18444 10231
L18472 10259
" />
<path d="M18725 10794
L18725 10203
L18866 10203
L18950 10231
L19006 10288
L19035 10344
L19063 10456
L19063 10541
L19035 10653
L19006 10709
L18950 10766
L18866 10794
L18725 10794
" />
<path d="M19738 10259
L19766 10231
L19822 10203
L19963 10203
L20019 10231
L20047 10259
L20075 10316
L20075 10372
L20047 10456
L19710 10794
L20075 10794
" />
<path d="M20441 10203
L20497 10203
L20553 10231
L20581 10259
L20609 10316
L20638 10428
L20638 10569
L20609 10681
L20581 10738
L20553 10766
L20497 10794
L20441 10794
L20384 10766
L20356 10738
L20328 10681
L20300 10569
L20300 10428
L20328 10316
L20356 10259
L20384 10231
L20441 10203
" />
<path d="M20834 10794
L21144 10400
" />
<path d="M20834 10400
L21144 10794
" />
<path d="M21622 10400
L21622 10794
" />
<path d="M21481 10175
L21341 10597
L21706 10597
" />
</g>
<g style="fill:#008484; fill-opacity:0.0; 
stroke:#008484; stroke-width:59.0551; stroke-opacity:1; 
stroke-linecap:round; stroke-linejoin:round;">
<path d="M17253 32050
L17309 32069
L17403 32069
L17441 32050
L17459 32031
L17478 31994
L17478 31956
L17459 31919
L17441 31900
L17403 31881
L17328 31862
L17291 31844
L17272 31825
L17253 31787
L17253 31750
L17272 31713
L17291 31694
L17328 31675
L17422 31675
L17478 31694
" />
<path d="M17647 31919
L17947 31919
" />
<path d="M18134 32069
L18134 31675
L18228 31675
L18284 31694
L18322 31731
L18340 31769
L18359 31844
L18359 31900
L18340 31975
L18322 32012
L18284 32050
L18228 32069
L18134 32069
" />
<path d="M18472 31675
L18697 31675
" />
<path d="M18584 32069
L18584 31675
" />
<path d="M18828 32069
L18828 31675
" />
<path d="M18828 31862
L19053 31862
" />
<path d="M19053 32069
L19053 31675
" />
<path d="M19447 32069
L19222 32069
" />
<path d="M19334 32069
L19334 31675
L19297 31731
L19259 31769
L19222 31787
" />
<path d="M24575 28372
L24575 28184
" />
<path d="M24688 28409
L24294 28278
L24688 28147
" />
<path d="M24688 27809
L24688 28034
" />
<path d="M24688 27922
L24294 27922
L24350 27959
L24388 27997
L24407 28034
" />
<path d="M6999 31719
L6999 31325
L7093 31325
L7149 31344
L7187 31381
L7205 31419
L7224 31494
L7224 31550
L7205 31625
L7187 31663
L7149 31700
L7093 31719
L6999 31719
" />
<path d="M7599 31719
L7374 31719
" />
<path d="M7487 31719
L7487 31325
L7449 31381
L7412 31419
L7374 31438
" />
<path d="M5764 28619
L5633 28432
" />
<path d="M5539 28619
L5539 28225
L5689 28225
L5727 28244
L5745 28263
L5764 28300
L5764 28357
L5745 28394
L5727 28413
L5689 28432
L5539 28432
" />
<path d="M6139 28619
L5914 28619
" />
<path d="M6027 28619
L6027 28225
L5989 28282
L5952 28319
L5914 28338
" />
<path d="M7244 28619
L7113 28432
" />
<path d="M7019 28619
L7019 28225
L7169 28225
L7207 28244
L7225 28263
L7244 28300
L7244 28357
L7225 28394
L7207 28413
L7169 28432
L7019 28432
" />
<path d="M7394 28263
L7413 28244
L7450 28225
L7544 28225
L7582 28244
L7600 28263
L7619 28300
L7619 28338
L7600 28394
L7375 28619
L7619 28619
" />
<path d="M24697 34109
L24566 33921
" />
<path d="M24472 34109
L24472 33715
L24622 33715
L24660 33734
L24679 33753
L24697 33790
L24697 33846
L24679 33884
L24660 33902
L24622 33921
L24472 33921
" />
<path d="M24810 33715
L25035 33715
" />
<path d="M24922 34109
L24922 33715
" />
<path d="M25391 34071
L25372 34090
L25316 34109
L25279 34109
L25222 34090
L25185 34052
L25166 34015
L25147 33940
L25147 33884
L25166 33809
L25185 33771
L25222 33734
L25279 33715
L25316 33715
L25372 33734
L25391 33753
" />
<path d="M25766 34109
L25541 34109
" />
<path d="M25653 34109
L25653 33715
L25616 33771
L25579 33809
L25541 33827
" />
<path d="M31273 34070
L31329 34089
L31423 34089
L31460 34070
L31479 34051
L31498 34014
L31498 33976
L31479 33939
L31460 33920
L31423 33901
L31348 33882
L31310 33864
L31292 33845
L31273 33807
L31273 33770
L31292 33733
L31310 33714
L31348 33695
L31442 33695
L31498 33714
" />
<path d="M31667 34089
L31667 33695
L31760 33695
L31817 33714
L31854 33751
L31873 33789
L31892 33864
L31892 33920
L31873 33995
L31854 34032
L31817 34070
L31760 34089
L31667 34089
" />
<path d="M32267 34089
L32042 34089
" />
<path d="M32154 34089
L32154 33695
L32117 33751
L32079 33789
L32042 33807
" />
<path d="M10240 31912
L10296 31931
L10390 31931
L10428 31912
L10446 31894
L10465 31856
L10465 31819
L10446 31781
L10428 31762
L10390 31744
L10315 31725
L10278 31706
L10259 31687
L10240 31650
L10240 31612
L10259 31575
L10278 31556
L10315 31537
L10409 31537
L10465 31556
" />
<path d="M10784 31912
L10746 31931
L10671 31931
L10634 31912
L10615 31875
L10615 31725
L10634 31687
L10671 31669
L10746 31669
L10784 31687
L10803 31725
L10803 31762
L10615 31800
" />
<path d="M10971 31669
L10971 31931
" />
<path d="M10971 31706
L10990 31687
L11027 31669
L11084 31669
L11121 31687
L11140 31725
L11140 31931
" />
<path d="M11309 31912
L11346 31931
L11421 31931
L11459 31912
L11477 31875
L11477 31856
L11459 31819
L11421 31800
L11365 31800
L11327 31781
L11309 31744
L11309 31725
L11327 31687
L11365 31669
L11421 31669
L11459 31687
" />
<path d="M11702 31931
L11665 31912
L11646 31894
L11627 31856
L11627 31744
L11646 31706
L11665 31687
L11702 31669
L11759 31669
L11796 31687
L11815 31706
L11834 31744
L11834 31856
L11815 31894
L11796 31912
L11759 31931
L11702 31931
" />
<path d="M12002 31931
L12002 31669
" />
<path d="M12002 31744
L12021 31706
L12040 31687
L12077 31669
L12115 31669
" />
<path d="M12452 31931
L12227 31931
" />
<path d="M12340 31931
L12340 31537
L12302 31594
L12265 31631
L12227 31650
" />
<path d="M15104 24910
L15085 24929
L15029 24948
L14992 24948
L14935 24929
L14898 24892
L14879 24854
L14860 24779
L14860 24723
L14879 24648
L14898 24610
L14935 24573
L14992 24554
L15029 24554
L15085 24573
L15104 24592
" />
<path d="M15479 24948
L15254 24948
" />
<path d="M15367 24948
L15367 24554
L15329 24610
L15292 24648
L15254 24667
" />
<path d="M12584 24951
L12565 24970
L12509 24989
L12472 24989
L12415 24970
L12378 24932
L12359 24895
L12340 24820
L12340 24764
L12359 24689
L12378 24651
L12415 24614
L12472 24595
L12509 24595
L12565 24614
L12584 24633
" />
<path d="M12734 24633
L12753 24614
L12790 24595
L12884 24595
L12922 24614
L12940 24633
L12959 24670
L12959 24707
L12940 24764
L12715 24989
L12959 24989
" />
<path d="M9439 30669
L9439 30275
L9533 30275
L9589 30294
L9627 30331
L9645 30369
L9664 30444
L9664 30500
L9645 30575
L9627 30612
L9589 30650
L9533 30669
L9439 30669
" />
<path d="M9814 30313
L9833 30294
L9870 30275
L9964 30275
L10002 30294
L10020 30313
L10039 30350
L10039 30387
L10020 30444
L9795 30669
L10039 30669
" />
</g>
<g style="fill:#008484; fill-opacity:0.0; 
stroke:#008484; stroke-width:120; stroke-opacity:1; 
stroke-linecap:round; stroke-linejoin:round;">
<path d="M5456 34042
L5656 34642
L5856 34042
" />
<path d="M6513 34642
L6513 34242
" />
<path d="M6513 34042
L6484 34071
L6513 34099
L6541 34071
L6513 34042
L6513 34099
" />
<path d="M6798 34242
L6798 34642
" />
<path d="M6798 34299
L6827 34271
L6884 34242
L6970 34242
L7027 34271
L7056 34328
L7056 34642
" />
<path d="M7256 34242
L7484 34242
" />
<path d="M7341 34042
L7341 34556
L7370 34613
L7427 34642
L7484 34642
" />
</g>
<g style="fill:#008484; fill-opacity:0.0; 
stroke:#008484; stroke-width:59.0551; stroke-opacity:1; 
stroke-linecap:round; stroke-linejoin:round;">
<path d="M8344 24849
L8157 24849
L8157 24455
" />
<path d="M8682 24849
L8457 24849
" />
<path d="M8569 24849
L8569 24455
L8532 24511
L8494 24549
L8457 24567
" />
<path d="M8724 28619
L8593 28432
" />
<path d="M8499 28619
L8499 28225
L8649 28225
L8687 28244
L8705 28263
L8724 28300
L8724 28357
L8705 28394
L8687 28413
L8649 28432
L8499 28432
" />
<path d="M8855 28225
L9099 28225
L8968 28375
L9024 28375
L9062 28394
L9080 28413
L9099 28450
L9099 28544
L9080 28582
L9062 28600
L9024 28619
L8912 28619
L8874 28600
L8855 28582
" />
<path d="M10204 28619
L10073 28432
" />
<path d="M9979 28619
L9979 28225
L10129 28225
L10167 28244
L10185 28263
L10204 28300
L10204 28357
L10185 28394
L10167 28413
L10129 28432
L9979 28432
" />
<path d="M10542 28357
L10542 28619
" />
<path d="M10448 28207
L10354 28488
L10598 28488
" />
<path d="M5156 32489
L5381 32489
" />
<path d="M5268 32882
L5268 32489
" />
<path d="M5512 32882
L5512 32489
L5662 32489
L5700 32507
L5718 32526
L5737 32564
L5737 32620
L5718 32657
L5700 32676
L5662 32695
L5512 32695
" />
<path d="M6112 32882
L5887 32882
" />
<path d="M6000 32882
L6000 32489
L5962 32545
L5925 32582
L5887 32601
" />
<path d="M5205 27811
L4887 27811
L4849 27829
L4830 27848
L4812 27886
L4812 27961
L4830 27998
L4849 28017
L4887 28036
L5205 28036
" />
<path d="M5168 28204
L5187 28223
L5205 28261
L5205 28354
L5187 28392
L5168 28411
L5130 28429
L5093 28429
L5037 28411
L4812 28186
L4812 28429
" />
<path d="M11684 28619
L11553 28432
" />
<path d="M11459 28619
L11459 28225
L11609 28225
L11647 28244
L11665 28263
L11684 28300
L11684 28357
L11665 28394
L11647 28413
L11609 28432
L11459 28432
" />
<path d="M12040 28225
L11853 28225
L11834 28413
L11853 28394
L11890 28375
L11984 28375
L12022 28394
L12040 28413
L12059 28450
L12059 28544
L12040 28582
L12022 28600
L11984 28619
L11890 28619
L11853 28600
L11834 28582
" />
<path d="M19755 25129
L19624 24941
" />
<path d="M19530 25129
L19530 24735
L19680 24735
L19718 24754
L19737 24773
L19755 24810
L19755 24866
L19737 24904
L19718 24922
L19680 24941
L19530 24941
" />
<path d="M19868 24735
L19999 25129
L20130 24735
" />
<path d="M20468 25129
L20243 25129
" />
<path d="M20355 25129
L20355 24735
L20318 24791
L20280 24829
L20243 24847
" />
</g>
<g style="fill:#000000; fill-opacity:0.0; 
stroke:#000000; stroke-width:59.0551; stroke-opacity:1; 
stroke-linecap:round; stroke-linejoin:round;">
</g>
<g style="fill:#C2C200; fill-opacity:0.0; 
stroke:#C2C200; stroke-width:59.0551; stroke-opacity:1; 
stroke-linecap:round; stroke-linejoin:round;">
<path d="M39320 35080
L108 35080
" />
<path d="M39242 41
L39320 35080
" />
<path d="M29 41
L39242 41
" />
<path d="M29 35080
L29 41
" />
<path d="M108 35080
L29 35080
" />
</g> 
</svg>
