  0
SECTION
  2
HEADER
  9
$ANGBASE
  50
0.0
  9
$ANGDIR
  70
  1
  9
$MEASUREMENT
  70
0
  0
ENDSEC
  0
SECTION
  2
TABLES
  0
TABLE
  2
LTYPE
  70
4
  0
LTYPE
  5
40F
  2
CONTINUOUS
  70
0
  3
Solid line
  72
65
  73
0
  40
0.0
  0
LTYPE
  5
410
  2
DASHDOT
 70
0
  3
Dash Dot ____ _ ____ _
 72
65
 73
4
 40
2.0
 49
1.25
 49
-0.25
 49
0.25
 49
-0.25
  0
LTYPE
  5
411
  2
DASHED
 70
0
  3
Dashed __ __ __ __ __
 72
65
 73
2
 40
0.75
 49
0.5
 49
-0.25
  0
LTYPE
  5
43B
  2
DOTTED
 70
0
  3
Dotted .  .  .  .
 72
65
 73
2
 40
0.2
 49
0.0
 49
-0.2
  0
ENDTAB
  0
TABLE
  2
STYLE
  70
4
  0
STYLE
  2
KICAD
  70
0
  40
0
  41
1
  42
1
  50
0
  71
0
  3
isocp.shx
  0
STYLE
  2
KICADB
  70
0
  40
0
  41
1
  42
1
  50
0
  71
0
  3
isocp.shx
  0
STYLE
  2
KICADI
  70
0
  40
0
  41
1
  42
1
  50
15
  71
0
  3
isocp.shx
  0
STYLE
  2
KICADBI
  70
0
  40
0
  41
1
  42
1
  50
15
  71
0
  3
isocp.shx
  0
ENDTAB
  0
TABLE
  2
LAYER
  70
30
  0
LAYER
  2
BLACK
  70
0
  62
7
  6
CONTINUOUS
  0
LAYER
  2
GRAY1
  70
0
  62
251
  6
CONTINUOUS
  0
LAYER
  2
GRAY2
  70
0
  62
8
  6
CONTINUOUS
  0
LAYER
  2
GRAY3
  70
0
  62
9
  6
CONTINUOUS
  0
LAYER
  2
WHITE
  70
0
  62
7
  6
CONTINUOUS
  0
LAYER
  2
LYELLOW
  70
0
  62
51
  6
CONTINUOUS
  0
LAYER
  2
BLUE1
  70
0
  62
178
  6
CONTINUOUS
  0
LAYER
  2
GREEN1
  70
0
  62
98
  6
CONTINUOUS
  0
LAYER
  2
CYAN1
  70
0
  62
138
  6
CONTINUOUS
  0
LAYER
  2
RED1
  70
0
  62
18
  6
CONTINUOUS
  0
LAYER
  2
MAGENTA1
  70
0
  62
228
  6
CONTINUOUS
  0
LAYER
  2
BROWN1
  70
0
  62
58
  6
CONTINUOUS
  0
LAYER
  2
BLUE2
  70
0
  62
5
  6
CONTINUOUS
  0
LAYER
  2
GREEN2
  70
0
  62
3
  6
CONTINUOUS
  0
LAYER
  2
CYAN2
  70
0
  62
4
  6
CONTINUOUS
  0
LAYER
  2
RED2
  70
0
  62
1
  6
CONTINUOUS
  0
LAYER
  2
MAGENTA2
  70
0
  62
6
  6
CONTINUOUS
  0
LAYER
  2
BROWN2
  70
0
  62
54
  6
CONTINUOUS
  0
LAYER
  2
BLUE3
  70
0
  62
171
  6
CONTINUOUS
  0
LAYER
  2
GREEN3
  70
0
  62
91
  6
CONTINUOUS
  0
LAYER
  2
CYAN3
  70
0
  62
131
  6
CONTINUOUS
  0
LAYER
  2
RED3
  70
0
  62
11
  6
CONTINUOUS
  0
LAYER
  2
MAGENTA3
  70
0
  62
221
  6
CONTINUOUS
  0
LAYER
  2
YELLOW3
  70
0
  62
2
  6
CONTINUOUS
  0
LAYER
  2
BLUE4
  70
0
  62
5
  6
CONTINUOUS
  0
LAYER
  2
GREEN4
  70
0
  62
3
  6
CONTINUOUS
  0
LAYER
  2
CYAN4
  70
0
  62
4
  6
CONTINUOUS
  0
LAYER
  2
RED4
  70
0
  62
1
  6
CONTINUOUS
  0
LAYER
  2
MAGENTA4
  70
0
  62
6
  6
CONTINUOUS
  0
LAYER
  2
YELLOW4
  70
0
  62
2
  6
CONTINUOUS
  0
ENDTAB
  0
ENDSEC
  0
SECTION
  2
ENTITIES
0
LINE
8
BLACK
6
CONTINUOUS
10
112.203
20
-129.842
11
112.417
21
-129.965
0
LINE
8
BLACK
6
CONTINUOUS
10
112.417
20
-129.965
11
112.576
21
-130.155
0
LINE
8
BLACK
6
CONTINUOUS
10
112.576
20
-130.155
11
112.66
21
-130.387
0
LINE
8
BLACK
6
CONTINUOUS
10
112.66
20
-130.387
11
112.66
21
-130.633
0
LINE
8
BLACK
6
CONTINUOUS
10
112.66
20
-130.633
11
112.576
21
-130.865
0
LINE
8
BLACK
6
CONTINUOUS
10
112.576
20
-130.865
11
112.417
21
-131.055
0
LINE
8
BLACK
6
CONTINUOUS
10
112.417
20
-131.055
11
112.203
21
-131.178
0
LINE
8
BLACK
6
CONTINUOUS
10
112.203
20
-131.178
11
111.96
21
-131.221
0
LINE
8
BLACK
6
CONTINUOUS
10
111.96
20
-131.221
11
111.717
21
-131.178
0
LINE
8
BLACK
6
CONTINUOUS
10
111.717
20
-131.178
11
111.503
21
-131.055
0
LINE
8
BLACK
6
CONTINUOUS
10
111.503
20
-131.055
11
111.344
21
-130.865
0
LINE
8
BLACK
6
CONTINUOUS
10
111.344
20
-130.865
11
111.26
21
-130.633
0
LINE
8
BLACK
6
CONTINUOUS
10
111.26
20
-130.633
11
111.26
21
-130.387
0
LINE
8
BLACK
6
CONTINUOUS
10
111.26
20
-130.387
11
111.344
21
-130.155
0
LINE
8
BLACK
6
CONTINUOUS
10
111.344
20
-130.155
11
111.503
21
-129.965
0
LINE
8
BLACK
6
CONTINUOUS
10
111.503
20
-129.965
11
111.717
21
-129.842
0
LINE
8
BLACK
6
CONTINUOUS
10
111.717
20
-129.842
11
111.96
21
-129.799
0
LINE
8
BLACK
6
CONTINUOUS
10
111.96
20
-129.799
11
112.203
21
-129.842
0
LINE
8
BLACK
6
CONTINUOUS
10
109.663
20
-129.842
11
109.877
21
-129.965
0
LINE
8
BLACK
6
CONTINUOUS
10
109.877
20
-129.965
11
110.036
21
-130.155
0
LINE
8
BLACK
6
CONTINUOUS
10
110.036
20
-130.155
11
110.12
21
-130.387
0
LINE
8
BLACK
6
CONTINUOUS
10
110.12
20
-130.387
11
110.12
21
-130.633
0
LINE
8
BLACK
6
CONTINUOUS
10
110.12
20
-130.633
11
110.036
21
-130.865
0
LINE
8
BLACK
6
CONTINUOUS
10
110.036
20
-130.865
11
109.877
21
-131.055
0
LINE
8
BLACK
6
CONTINUOUS
10
109.877
20
-131.055
11
109.663
21
-131.178
0
LINE
8
BLACK
6
CONTINUOUS
10
109.663
20
-131.178
11
109.42
21
-131.221
0
LINE
8
BLACK
6
CONTINUOUS
10
109.42
20
-131.221
11
109.177
21
-131.178
0
LINE
8
BLACK
6
CONTINUOUS
10
109.177
20
-131.178
11
108.963
21
-131.055
0
LINE
8
BLACK
6
CONTINUOUS
10
108.963
20
-131.055
11
108.804
21
-130.865
0
LINE
8
BLACK
6
CONTINUOUS
10
108.804
20
-130.865
11
108.72
21
-130.633
0
LINE
8
BLACK
6
CONTINUOUS
10
108.72
20
-130.633
11
108.72
21
-130.387
0
LINE
8
BLACK
6
CONTINUOUS
10
108.72
20
-130.387
11
108.804
21
-130.155
0
LINE
8
BLACK
6
CONTINUOUS
10
108.804
20
-130.155
11
108.963
21
-129.965
0
LINE
8
BLACK
6
CONTINUOUS
10
108.963
20
-129.965
11
109.177
21
-129.842
0
LINE
8
BLACK
6
CONTINUOUS
10
109.177
20
-129.842
11
109.42
21
-129.799
0
LINE
8
BLACK
6
CONTINUOUS
10
109.42
20
-129.799
11
109.663
21
-129.842
0
LINE
8
BLACK
6
CONTINUOUS
10
112.103
20
-126.975
11
112.178
21
-127.018
0
LINE
8
BLACK
6
CONTINUOUS
10
112.178
20
-127.018
11
112.234
21
-127.085
0
LINE
8
BLACK
6
CONTINUOUS
10
112.234
20
-127.085
11
112.267
21
-127.21
0
LINE
8
BLACK
6
CONTINUOUS
10
112.267
20
-127.21
11
112.267
21
-128.01
0
LINE
8
BLACK
6
CONTINUOUS
10
112.267
20
-128.01
11
112.252
21
-128.095
0
LINE
8
BLACK
6
CONTINUOUS
10
112.252
20
-128.095
11
112.209
21
-128.17
0
LINE
8
BLACK
6
CONTINUOUS
10
112.209
20
-128.17
11
112.142
21
-128.226
0
LINE
8
BLACK
6
CONTINUOUS
10
112.142
20
-128.226
11
112.017
21
-128.26
0
LINE
8
BLACK
6
CONTINUOUS
10
112.017
20
-128.26
11
111.192
21
-128.26
0
LINE
8
BLACK
6
CONTINUOUS
10
111.192
20
-128.26
11
111.107
21
-128.245
0
LINE
8
BLACK
6
CONTINUOUS
10
111.107
20
-128.245
11
111.032
21
-128.201
0
LINE
8
BLACK
6
CONTINUOUS
10
111.032
20
-128.201
11
110.976
21
-128.135
0
LINE
8
BLACK
6
CONTINUOUS
10
110.976
20
-128.135
11
110.942
21
-128.01
0
LINE
8
BLACK
6
CONTINUOUS
10
110.942
20
-128.01
11
110.942
21
-127.21
0
LINE
8
BLACK
6
CONTINUOUS
10
110.942
20
-127.21
11
110.957
21
-127.124
0
LINE
8
BLACK
6
CONTINUOUS
10
110.957
20
-127.124
11
111.001
21
-127.049
0
LINE
8
BLACK
6
CONTINUOUS
10
111.001
20
-127.049
11
111.067
21
-126.993
0
LINE
8
BLACK
6
CONTINUOUS
10
111.067
20
-126.993
11
111.192
21
-126.96
0
LINE
8
BLACK
6
CONTINUOUS
10
111.192
20
-126.96
11
112.017
21
-126.96
0
LINE
8
BLACK
6
CONTINUOUS
10
112.017
20
-126.96
11
112.103
21
-126.975
0
LINE
8
BLACK
6
CONTINUOUS
10
110.178
20
-126.975
11
110.253
21
-127.018
0
LINE
8
BLACK
6
CONTINUOUS
10
110.253
20
-127.018
11
110.309
21
-127.085
0
LINE
8
BLACK
6
CONTINUOUS
10
110.309
20
-127.085
11
110.342
21
-127.21
0
LINE
8
BLACK
6
CONTINUOUS
10
110.342
20
-127.21
11
110.342
21
-128.01
0
LINE
8
BLACK
6
CONTINUOUS
10
110.342
20
-128.01
11
110.327
21
-128.095
0
LINE
8
BLACK
6
CONTINUOUS
10
110.327
20
-128.095
11
110.284
21
-128.17
0
LINE
8
BLACK
6
CONTINUOUS
10
110.284
20
-128.17
11
110.217
21
-128.226
0
LINE
8
BLACK
6
CONTINUOUS
10
110.217
20
-128.226
11
110.092
21
-128.26
0
LINE
8
BLACK
6
CONTINUOUS
10
110.092
20
-128.26
11
109.267
21
-128.26
0
LINE
8
BLACK
6
CONTINUOUS
10
109.267
20
-128.26
11
109.182
21
-128.245
0
LINE
8
BLACK
6
CONTINUOUS
10
109.182
20
-128.245
11
109.107
21
-128.201
0
LINE
8
BLACK
6
CONTINUOUS
10
109.107
20
-128.201
11
109.051
21
-128.135
0
LINE
8
BLACK
6
CONTINUOUS
10
109.051
20
-128.135
11
109.017
21
-128.01
0
LINE
8
BLACK
6
CONTINUOUS
10
109.017
20
-128.01
11
109.017
21
-127.21
0
LINE
8
BLACK
6
CONTINUOUS
10
109.017
20
-127.21
11
109.032
21
-127.124
0
LINE
8
BLACK
6
CONTINUOUS
10
109.032
20
-127.124
11
109.076
21
-127.049
0
LINE
8
BLACK
6
CONTINUOUS
10
109.076
20
-127.049
11
109.142
21
-126.993
0
LINE
8
BLACK
6
CONTINUOUS
10
109.142
20
-126.993
11
109.267
21
-126.96
0
LINE
8
BLACK
6
CONTINUOUS
10
109.267
20
-126.96
11
110.092
21
-126.96
0
LINE
8
BLACK
6
CONTINUOUS
10
110.092
20
-126.96
11
110.178
21
-126.975
0
LINE
8
BLACK
6
CONTINUOUS
10
101.994
20
-124.509
11
100.894
21
-124.509
0
LINE
8
BLACK
6
CONTINUOUS
10
100.894
20
-124.509
11
100.894
21
-119.909
0
LINE
8
BLACK
6
CONTINUOUS
10
100.894
20
-119.909
11
101.994
21
-119.909
0
LINE
8
BLACK
6
CONTINUOUS
10
101.994
20
-119.909
11
101.994
21
-124.509
0
LINE
8
BLACK
6
CONTINUOUS
10
100.294
20
-124.509
11
99.194
21
-124.509
0
LINE
8
BLACK
6
CONTINUOUS
10
99.194
20
-124.509
11
99.194
21
-119.909
0
LINE
8
BLACK
6
CONTINUOUS
10
99.194
20
-119.909
11
100.294
21
-119.909
0
LINE
8
BLACK
6
CONTINUOUS
10
100.294
20
-119.909
11
100.294
21
-124.509
0
LINE
8
BLACK
6
CONTINUOUS
10
98.594
20
-124.509
11
97.494
21
-124.509
0
LINE
8
BLACK
6
CONTINUOUS
10
97.494
20
-124.509
11
97.494
21
-119.909
0
LINE
8
BLACK
6
CONTINUOUS
10
97.494
20
-119.909
11
98.594
21
-119.909
0
LINE
8
BLACK
6
CONTINUOUS
10
98.594
20
-119.909
11
98.594
21
-124.509
0
LINE
8
BLACK
6
CONTINUOUS
10
96.894
20
-124.509
11
95.794
21
-124.509
0
LINE
8
BLACK
6
CONTINUOUS
10
95.794
20
-124.509
11
95.794
21
-119.909
0
LINE
8
BLACK
6
CONTINUOUS
10
95.794
20
-119.909
11
96.894
21
-119.909
0
LINE
8
BLACK
6
CONTINUOUS
10
96.894
20
-119.909
11
96.894
21
-124.509
0
LINE
8
BLACK
6
CONTINUOUS
10
95.194
20
-124.509
11
94.094
21
-124.509
0
LINE
8
BLACK
6
CONTINUOUS
10
94.094
20
-124.509
11
94.094
21
-119.909
0
LINE
8
BLACK
6
CONTINUOUS
10
94.094
20
-119.909
11
95.194
21
-119.909
0
LINE
8
BLACK
6
CONTINUOUS
10
95.194
20
-119.909
11
95.194
21
-124.509
0
LINE
8
BLACK
6
CONTINUOUS
10
120.967
20
-123.988
11
118.467
21
-123.988
0
LINE
8
BLACK
6
CONTINUOUS
10
118.467
20
-123.988
11
118.467
21
-122.188
0
LINE
8
BLACK
6
CONTINUOUS
10
118.467
20
-122.188
11
120.967
21
-122.188
0
LINE
8
BLACK
6
CONTINUOUS
10
120.967
20
-122.188
11
120.967
21
-123.988
0
LINE
8
BLACK
6
CONTINUOUS
10
124.967
20
-123.988
11
122.467
21
-123.988
0
LINE
8
BLACK
6
CONTINUOUS
10
122.467
20
-123.988
11
122.467
21
-122.188
0
LINE
8
BLACK
6
CONTINUOUS
10
122.467
20
-122.188
11
124.967
21
-122.188
0
LINE
8
BLACK
6
CONTINUOUS
10
124.967
20
-122.188
11
124.967
21
-123.988
0
LINE
8
BLACK
6
CONTINUOUS
10
123.406
20
-119.101
11
123.481
21
-119.145
0
LINE
8
BLACK
6
CONTINUOUS
10
123.481
20
-119.145
11
123.537
21
-119.211
0
LINE
8
BLACK
6
CONTINUOUS
10
123.537
20
-119.211
11
123.571
21
-119.336
0
LINE
8
BLACK
6
CONTINUOUS
10
123.571
20
-119.336
11
123.571
21
-120.236
0
LINE
8
BLACK
6
CONTINUOUS
10
123.571
20
-120.236
11
123.556
21
-120.322
0
LINE
8
BLACK
6
CONTINUOUS
10
123.556
20
-120.322
11
123.512
21
-120.397
0
LINE
8
BLACK
6
CONTINUOUS
10
123.512
20
-120.397
11
123.446
21
-120.453
0
LINE
8
BLACK
6
CONTINUOUS
10
123.446
20
-120.453
11
123.321
21
-120.486
0
LINE
8
BLACK
6
CONTINUOUS
10
123.321
20
-120.486
11
122.671
21
-120.486
0
LINE
8
BLACK
6
CONTINUOUS
10
122.671
20
-120.486
11
122.585
21
-120.471
0
LINE
8
BLACK
6
CONTINUOUS
10
122.585
20
-120.471
11
122.51
21
-120.428
0
LINE
8
BLACK
6
CONTINUOUS
10
122.51
20
-120.428
11
122.454
21
-120.361
0
LINE
8
BLACK
6
CONTINUOUS
10
122.454
20
-120.361
11
122.421
21
-120.236
0
LINE
8
BLACK
6
CONTINUOUS
10
122.421
20
-120.236
11
122.421
21
-119.336
0
LINE
8
BLACK
6
CONTINUOUS
10
122.421
20
-119.336
11
122.436
21
-119.251
0
LINE
8
BLACK
6
CONTINUOUS
10
122.436
20
-119.251
11
122.479
21
-119.176
0
LINE
8
BLACK
6
CONTINUOUS
10
122.479
20
-119.176
11
122.546
21
-119.12
0
LINE
8
BLACK
6
CONTINUOUS
10
122.546
20
-119.12
11
122.671
21
-119.086
0
LINE
8
BLACK
6
CONTINUOUS
10
122.671
20
-119.086
11
123.321
21
-119.086
0
LINE
8
BLACK
6
CONTINUOUS
10
123.321
20
-119.086
11
123.406
21
-119.101
0
LINE
8
BLACK
6
CONTINUOUS
10
121.356
20
-119.101
11
121.431
21
-119.145
0
LINE
8
BLACK
6
CONTINUOUS
10
121.431
20
-119.145
11
121.487
21
-119.211
0
LINE
8
BLACK
6
CONTINUOUS
10
121.487
20
-119.211
11
121.521
21
-119.336
0
LINE
8
BLACK
6
CONTINUOUS
10
121.521
20
-119.336
11
121.521
21
-120.236
0
LINE
8
BLACK
6
CONTINUOUS
10
121.521
20
-120.236
11
121.506
21
-120.322
0
LINE
8
BLACK
6
CONTINUOUS
10
121.506
20
-120.322
11
121.462
21
-120.397
0
LINE
8
BLACK
6
CONTINUOUS
10
121.462
20
-120.397
11
121.396
21
-120.453
0
LINE
8
BLACK
6
CONTINUOUS
10
121.396
20
-120.453
11
121.271
21
-120.486
0
LINE
8
BLACK
6
CONTINUOUS
10
121.271
20
-120.486
11
120.621
21
-120.486
0
LINE
8
BLACK
6
CONTINUOUS
10
120.621
20
-120.486
11
120.535
21
-120.471
0
LINE
8
BLACK
6
CONTINUOUS
10
120.535
20
-120.471
11
120.46
21
-120.428
0
LINE
8
BLACK
6
CONTINUOUS
10
120.46
20
-120.428
11
120.404
21
-120.361
0
LINE
8
BLACK
6
CONTINUOUS
10
120.404
20
-120.361
11
120.371
21
-120.236
0
LINE
8
BLACK
6
CONTINUOUS
10
120.371
20
-120.236
11
120.371
21
-119.336
0
LINE
8
BLACK
6
CONTINUOUS
10
120.371
20
-119.336
11
120.386
21
-119.251
0
LINE
8
BLACK
6
CONTINUOUS
10
120.386
20
-119.251
11
120.429
21
-119.176
0
LINE
8
BLACK
6
CONTINUOUS
10
120.429
20
-119.176
11
120.496
21
-119.12
0
LINE
8
BLACK
6
CONTINUOUS
10
120.496
20
-119.12
11
120.621
21
-119.086
0
LINE
8
BLACK
6
CONTINUOUS
10
120.621
20
-119.086
11
121.271
21
-119.086
0
LINE
8
BLACK
6
CONTINUOUS
10
121.271
20
-119.086
11
121.356
21
-119.101
0
LINE
8
BLACK
6
CONTINUOUS
10
119.647
20
-119.101
11
119.722
21
-119.145
0
LINE
8
BLACK
6
CONTINUOUS
10
119.722
20
-119.145
11
119.778
21
-119.211
0
LINE
8
BLACK
6
CONTINUOUS
10
119.778
20
-119.211
11
119.812
21
-119.336
0
LINE
8
BLACK
6
CONTINUOUS
10
119.812
20
-119.336
11
119.812
21
-120.236
0
LINE
8
BLACK
6
CONTINUOUS
10
119.812
20
-120.236
11
119.797
21
-120.322
0
LINE
8
BLACK
6
CONTINUOUS
10
119.797
20
-120.322
11
119.753
21
-120.397
0
LINE
8
BLACK
6
CONTINUOUS
10
119.753
20
-120.397
11
119.687
21
-120.453
0
LINE
8
BLACK
6
CONTINUOUS
10
119.687
20
-120.453
11
119.562
21
-120.486
0
LINE
8
BLACK
6
CONTINUOUS
10
119.562
20
-120.486
11
118.912
21
-120.486
0
LINE
8
BLACK
6
CONTINUOUS
10
118.912
20
-120.486
11
118.826
21
-120.471
0
LINE
8
BLACK
6
CONTINUOUS
10
118.826
20
-120.471
11
118.751
21
-120.428
0
LINE
8
BLACK
6
CONTINUOUS
10
118.751
20
-120.428
11
118.695
21
-120.361
0
LINE
8
BLACK
6
CONTINUOUS
10
118.695
20
-120.361
11
118.662
21
-120.236
0
LINE
8
BLACK
6
CONTINUOUS
10
118.662
20
-120.236
11
118.662
21
-119.336
0
LINE
8
BLACK
6
CONTINUOUS
10
118.662
20
-119.336
11
118.677
21
-119.251
0
LINE
8
BLACK
6
CONTINUOUS
10
118.677
20
-119.251
11
118.72
21
-119.176
0
LINE
8
BLACK
6
CONTINUOUS
10
118.72
20
-119.176
11
118.787
21
-119.12
0
LINE
8
BLACK
6
CONTINUOUS
10
118.787
20
-119.12
11
118.912
21
-119.086
0
LINE
8
BLACK
6
CONTINUOUS
10
118.912
20
-119.086
11
119.562
21
-119.086
0
LINE
8
BLACK
6
CONTINUOUS
10
119.562
20
-119.086
11
119.647
21
-119.101
0
LINE
8
BLACK
6
CONTINUOUS
10
117.597
20
-119.101
11
117.672
21
-119.145
0
LINE
8
BLACK
6
CONTINUOUS
10
117.672
20
-119.145
11
117.728
21
-119.211
0
LINE
8
BLACK
6
CONTINUOUS
10
117.728
20
-119.211
11
117.762
21
-119.336
0
LINE
8
BLACK
6
CONTINUOUS
10
117.762
20
-119.336
11
117.762
21
-120.236
0
LINE
8
BLACK
6
CONTINUOUS
10
117.762
20
-120.236
11
117.747
21
-120.322
0
LINE
8
BLACK
6
CONTINUOUS
10
117.747
20
-120.322
11
117.703
21
-120.397
0
LINE
8
BLACK
6
CONTINUOUS
10
117.703
20
-120.397
11
117.637
21
-120.453
0
LINE
8
BLACK
6
CONTINUOUS
10
117.637
20
-120.453
11
117.512
21
-120.486
0
LINE
8
BLACK
6
CONTINUOUS
10
117.512
20
-120.486
11
116.862
21
-120.486
0
LINE
8
BLACK
6
CONTINUOUS
10
116.862
20
-120.486
11
116.776
21
-120.471
0
LINE
8
BLACK
6
CONTINUOUS
10
116.776
20
-120.471
11
116.701
21
-120.428
0
LINE
8
BLACK
6
CONTINUOUS
10
116.701
20
-120.428
11
116.645
21
-120.361
0
LINE
8
BLACK
6
CONTINUOUS
10
116.645
20
-120.361
11
116.612
21
-120.236
0
LINE
8
BLACK
6
CONTINUOUS
10
116.612
20
-120.236
11
116.612
21
-119.336
0
LINE
8
BLACK
6
CONTINUOUS
10
116.612
20
-119.336
11
116.627
21
-119.251
0
LINE
8
BLACK
6
CONTINUOUS
10
116.627
20
-119.251
11
116.67
21
-119.176
0
LINE
8
BLACK
6
CONTINUOUS
10
116.67
20
-119.176
11
116.737
21
-119.12
0
LINE
8
BLACK
6
CONTINUOUS
10
116.737
20
-119.12
11
116.862
21
-119.086
0
LINE
8
BLACK
6
CONTINUOUS
10
116.862
20
-119.086
11
117.512
21
-119.086
0
LINE
8
BLACK
6
CONTINUOUS
10
117.512
20
-119.086
11
117.597
21
-119.101
0
LINE
8
BLACK
6
CONTINUOUS
10
113.838
20
-119.101
11
113.913
21
-119.145
0
LINE
8
BLACK
6
CONTINUOUS
10
113.913
20
-119.145
11
113.969
21
-119.211
0
LINE
8
BLACK
6
CONTINUOUS
10
113.969
20
-119.211
11
114.002
21
-119.336
0
LINE
8
BLACK
6
CONTINUOUS
10
114.002
20
-119.336
11
114.002
21
-120.236
0
LINE
8
BLACK
6
CONTINUOUS
10
114.002
20
-120.236
11
113.987
21
-120.322
0
LINE
8
BLACK
6
CONTINUOUS
10
113.987
20
-120.322
11
113.944
21
-120.397
0
LINE
8
BLACK
6
CONTINUOUS
10
113.944
20
-120.397
11
113.877
21
-120.453
0
LINE
8
BLACK
6
CONTINUOUS
10
113.877
20
-120.453
11
113.752
21
-120.486
0
LINE
8
BLACK
6
CONTINUOUS
10
113.752
20
-120.486
11
113.102
21
-120.486
0
LINE
8
BLACK
6
CONTINUOUS
10
113.102
20
-120.486
11
113.017
21
-120.471
0
LINE
8
BLACK
6
CONTINUOUS
10
113.017
20
-120.471
11
112.942
21
-120.428
0
LINE
8
BLACK
6
CONTINUOUS
10
112.942
20
-120.428
11
112.886
21
-120.361
0
LINE
8
BLACK
6
CONTINUOUS
10
112.886
20
-120.361
11
112.852
21
-120.236
0
LINE
8
BLACK
6
CONTINUOUS
10
112.852
20
-120.236
11
112.852
21
-119.336
0
LINE
8
BLACK
6
CONTINUOUS
10
112.852
20
-119.336
11
112.867
21
-119.251
0
LINE
8
BLACK
6
CONTINUOUS
10
112.867
20
-119.251
11
112.911
21
-119.176
0
LINE
8
BLACK
6
CONTINUOUS
10
112.911
20
-119.176
11
112.977
21
-119.12
0
LINE
8
BLACK
6
CONTINUOUS
10
112.977
20
-119.12
11
113.102
21
-119.086
0
LINE
8
BLACK
6
CONTINUOUS
10
113.102
20
-119.086
11
113.752
21
-119.086
0
LINE
8
BLACK
6
CONTINUOUS
10
113.752
20
-119.086
11
113.838
21
-119.101
0
LINE
8
BLACK
6
CONTINUOUS
10
115.888
20
-119.101
11
115.963
21
-119.145
0
LINE
8
BLACK
6
CONTINUOUS
10
115.963
20
-119.145
11
116.019
21
-119.211
0
LINE
8
BLACK
6
CONTINUOUS
10
116.019
20
-119.211
11
116.052
21
-119.336
0
LINE
8
BLACK
6
CONTINUOUS
10
116.052
20
-119.336
11
116.052
21
-120.236
0
LINE
8
BLACK
6
CONTINUOUS
10
116.052
20
-120.236
11
116.037
21
-120.322
0
LINE
8
BLACK
6
CONTINUOUS
10
116.037
20
-120.322
11
115.994
21
-120.397
0
LINE
8
BLACK
6
CONTINUOUS
10
115.994
20
-120.397
11
115.927
21
-120.453
0
LINE
8
BLACK
6
CONTINUOUS
10
115.927
20
-120.453
11
115.802
21
-120.486
0
LINE
8
BLACK
6
CONTINUOUS
10
115.802
20
-120.486
11
115.152
21
-120.486
0
LINE
8
BLACK
6
CONTINUOUS
10
115.152
20
-120.486
11
115.067
21
-120.471
0
LINE
8
BLACK
6
CONTINUOUS
10
115.067
20
-120.471
11
114.992
21
-120.428
0
LINE
8
BLACK
6
CONTINUOUS
10
114.992
20
-120.428
11
114.936
21
-120.361
0
LINE
8
BLACK
6
CONTINUOUS
10
114.936
20
-120.361
11
114.902
21
-120.236
0
LINE
8
BLACK
6
CONTINUOUS
10
114.902
20
-120.236
11
114.902
21
-119.336
0
LINE
8
BLACK
6
CONTINUOUS
10
114.902
20
-119.336
11
114.917
21
-119.251
0
LINE
8
BLACK
6
CONTINUOUS
10
114.917
20
-119.251
11
114.961
21
-119.176
0
LINE
8
BLACK
6
CONTINUOUS
10
114.961
20
-119.176
11
115.027
21
-119.12
0
LINE
8
BLACK
6
CONTINUOUS
10
115.027
20
-119.12
11
115.152
21
-119.086
0
LINE
8
BLACK
6
CONTINUOUS
10
115.152
20
-119.086
11
115.802
21
-119.086
0
LINE
8
BLACK
6
CONTINUOUS
10
115.802
20
-119.086
11
115.888
21
-119.101
0
LINE
8
BLACK
6
CONTINUOUS
10
110.079
20
-119.101
11
110.154
21
-119.145
0
LINE
8
BLACK
6
CONTINUOUS
10
110.154
20
-119.145
11
110.21
21
-119.211
0
LINE
8
BLACK
6
CONTINUOUS
10
110.21
20
-119.211
11
110.243
21
-119.336
0
LINE
8
BLACK
6
CONTINUOUS
10
110.243
20
-119.336
11
110.243
21
-120.236
0
LINE
8
BLACK
6
CONTINUOUS
10
110.243
20
-120.236
11
110.228
21
-120.322
0
LINE
8
BLACK
6
CONTINUOUS
10
110.228
20
-120.322
11
110.185
21
-120.397
0
LINE
8
BLACK
6
CONTINUOUS
10
110.185
20
-120.397
11
110.118
21
-120.453
0
LINE
8
BLACK
6
CONTINUOUS
10
110.118
20
-120.453
11
109.993
21
-120.486
0
LINE
8
BLACK
6
CONTINUOUS
10
109.993
20
-120.486
11
109.343
21
-120.486
0
LINE
8
BLACK
6
CONTINUOUS
10
109.343
20
-120.486
11
109.258
21
-120.471
0
LINE
8
BLACK
6
CONTINUOUS
10
109.258
20
-120.471
11
109.183
21
-120.428
0
LINE
8
BLACK
6
CONTINUOUS
10
109.183
20
-120.428
11
109.127
21
-120.361
0
LINE
8
BLACK
6
CONTINUOUS
10
109.127
20
-120.361
11
109.093
21
-120.236
0
LINE
8
BLACK
6
CONTINUOUS
10
109.093
20
-120.236
11
109.093
21
-119.336
0
LINE
8
BLACK
6
CONTINUOUS
10
109.093
20
-119.336
11
109.108
21
-119.251
0
LINE
8
BLACK
6
CONTINUOUS
10
109.108
20
-119.251
11
109.152
21
-119.176
0
LINE
8
BLACK
6
CONTINUOUS
10
109.152
20
-119.176
11
109.218
21
-119.12
0
LINE
8
BLACK
6
CONTINUOUS
10
109.218
20
-119.12
11
109.343
21
-119.086
0
LINE
8
BLACK
6
CONTINUOUS
10
109.343
20
-119.086
11
109.993
21
-119.086
0
LINE
8
BLACK
6
CONTINUOUS
10
109.993
20
-119.086
11
110.079
21
-119.101
0
LINE
8
BLACK
6
CONTINUOUS
10
112.129
20
-119.101
11
112.204
21
-119.145
0
LINE
8
BLACK
6
CONTINUOUS
10
112.204
20
-119.145
11
112.26
21
-119.211
0
LINE
8
BLACK
6
CONTINUOUS
10
112.26
20
-119.211
11
112.293
21
-119.336
0
LINE
8
BLACK
6
CONTINUOUS
10
112.293
20
-119.336
11
112.293
21
-120.236
0
LINE
8
BLACK
6
CONTINUOUS
10
112.293
20
-120.236
11
112.278
21
-120.322
0
LINE
8
BLACK
6
CONTINUOUS
10
112.278
20
-120.322
11
112.235
21
-120.397
0
LINE
8
BLACK
6
CONTINUOUS
10
112.235
20
-120.397
11
112.168
21
-120.453
0
LINE
8
BLACK
6
CONTINUOUS
10
112.168
20
-120.453
11
112.043
21
-120.486
0
LINE
8
BLACK
6
CONTINUOUS
10
112.043
20
-120.486
11
111.393
21
-120.486
0
LINE
8
BLACK
6
CONTINUOUS
10
111.393
20
-120.486
11
111.308
21
-120.471
0
LINE
8
BLACK
6
CONTINUOUS
10
111.308
20
-120.471
11
111.233
21
-120.428
0
LINE
8
BLACK
6
CONTINUOUS
10
111.233
20
-120.428
11
111.177
21
-120.361
0
LINE
8
BLACK
6
CONTINUOUS
10
111.177
20
-120.361
11
111.143
21
-120.236
0
LINE
8
BLACK
6
CONTINUOUS
10
111.143
20
-120.236
11
111.143
21
-119.336
0
LINE
8
BLACK
6
CONTINUOUS
10
111.143
20
-119.336
11
111.158
21
-119.251
0
LINE
8
BLACK
6
CONTINUOUS
10
111.158
20
-119.251
11
111.202
21
-119.176
0
LINE
8
BLACK
6
CONTINUOUS
10
111.202
20
-119.176
11
111.268
21
-119.12
0
LINE
8
BLACK
6
CONTINUOUS
10
111.268
20
-119.12
11
111.393
21
-119.086
0
LINE
8
BLACK
6
CONTINUOUS
10
111.393
20
-119.086
11
112.043
21
-119.086
0
LINE
8
BLACK
6
CONTINUOUS
10
112.043
20
-119.086
11
112.129
21
-119.101
0
LINE
8
BLACK
6
CONTINUOUS
10
108.37
20
-119.101
11
108.445
21
-119.145
0
LINE
8
BLACK
6
CONTINUOUS
10
108.445
20
-119.145
11
108.501
21
-119.211
0
LINE
8
BLACK
6
CONTINUOUS
10
108.501
20
-119.211
11
108.534
21
-119.336
0
LINE
8
BLACK
6
CONTINUOUS
10
108.534
20
-119.336
11
108.534
21
-120.236
0
LINE
8
BLACK
6
CONTINUOUS
10
108.534
20
-120.236
11
108.519
21
-120.322
0
LINE
8
BLACK
6
CONTINUOUS
10
108.519
20
-120.322
11
108.476
21
-120.397
0
LINE
8
BLACK
6
CONTINUOUS
10
108.476
20
-120.397
11
108.409
21
-120.453
0
LINE
8
BLACK
6
CONTINUOUS
10
108.409
20
-120.453
11
108.284
21
-120.486
0
LINE
8
BLACK
6
CONTINUOUS
10
108.284
20
-120.486
11
107.634
21
-120.486
0
LINE
8
BLACK
6
CONTINUOUS
10
107.634
20
-120.486
11
107.548
21
-120.471
0
LINE
8
BLACK
6
CONTINUOUS
10
107.548
20
-120.471
11
107.473
21
-120.428
0
LINE
8
BLACK
6
CONTINUOUS
10
107.473
20
-120.428
11
107.417
21
-120.361
0
LINE
8
BLACK
6
CONTINUOUS
10
107.417
20
-120.361
11
107.384
21
-120.236
0
LINE
8
BLACK
6
CONTINUOUS
10
107.384
20
-120.236
11
107.384
21
-119.336
0
LINE
8
BLACK
6
CONTINUOUS
10
107.384
20
-119.336
11
107.399
21
-119.251
0
LINE
8
BLACK
6
CONTINUOUS
10
107.399
20
-119.251
11
107.442
21
-119.176
0
LINE
8
BLACK
6
CONTINUOUS
10
107.442
20
-119.176
11
107.509
21
-119.12
0
LINE
8
BLACK
6
CONTINUOUS
10
107.509
20
-119.12
11
107.634
21
-119.086
0
LINE
8
BLACK
6
CONTINUOUS
10
107.634
20
-119.086
11
108.284
21
-119.086
0
LINE
8
BLACK
6
CONTINUOUS
10
108.284
20
-119.086
11
108.37
21
-119.101
0
LINE
8
BLACK
6
CONTINUOUS
10
106.32
20
-119.101
11
106.395
21
-119.145
0
LINE
8
BLACK
6
CONTINUOUS
10
106.395
20
-119.145
11
106.451
21
-119.211
0
LINE
8
BLACK
6
CONTINUOUS
10
106.451
20
-119.211
11
106.484
21
-119.336
0
LINE
8
BLACK
6
CONTINUOUS
10
106.484
20
-119.336
11
106.484
21
-120.236
0
LINE
8
BLACK
6
CONTINUOUS
10
106.484
20
-120.236
11
106.469
21
-120.322
0
LINE
8
BLACK
6
CONTINUOUS
10
106.469
20
-120.322
11
106.426
21
-120.397
0
LINE
8
BLACK
6
CONTINUOUS
10
106.426
20
-120.397
11
106.359
21
-120.453
0
LINE
8
BLACK
6
CONTINUOUS
10
106.359
20
-120.453
11
106.234
21
-120.486
0
LINE
8
BLACK
6
CONTINUOUS
10
106.234
20
-120.486
11
105.584
21
-120.486
0
LINE
8
BLACK
6
CONTINUOUS
10
105.584
20
-120.486
11
105.498
21
-120.471
0
LINE
8
BLACK
6
CONTINUOUS
10
105.498
20
-120.471
11
105.423
21
-120.428
0
LINE
8
BLACK
6
CONTINUOUS
10
105.423
20
-120.428
11
105.367
21
-120.361
0
LINE
8
BLACK
6
CONTINUOUS
10
105.367
20
-120.361
11
105.334
21
-120.236
0
LINE
8
BLACK
6
CONTINUOUS
10
105.334
20
-120.236
11
105.334
21
-119.336
0
LINE
8
BLACK
6
CONTINUOUS
10
105.334
20
-119.336
11
105.349
21
-119.251
0
LINE
8
BLACK
6
CONTINUOUS
10
105.349
20
-119.251
11
105.392
21
-119.176
0
LINE
8
BLACK
6
CONTINUOUS
10
105.392
20
-119.176
11
105.459
21
-119.12
0
LINE
8
BLACK
6
CONTINUOUS
10
105.459
20
-119.12
11
105.584
21
-119.086
0
LINE
8
BLACK
6
CONTINUOUS
10
105.584
20
-119.086
11
106.234
21
-119.086
0
LINE
8
BLACK
6
CONTINUOUS
10
106.234
20
-119.086
11
106.32
21
-119.101
0
LINE
8
BLACK
6
CONTINUOUS
10
97.894
20
-117.759
11
92.644
21
-117.759
0
LINE
8
BLACK
6
CONTINUOUS
10
92.644
20
-117.759
11
92.644
21
-113.209
0
LINE
8
BLACK
6
CONTINUOUS
10
92.644
20
-113.209
11
97.894
21
-113.209
0
LINE
8
BLACK
6
CONTINUOUS
10
97.894
20
-113.209
11
97.894
21
-117.759
0
LINE
8
BLACK
6
CONTINUOUS
10
103.444
20
-117.759
11
98.194
21
-117.759
0
LINE
8
BLACK
6
CONTINUOUS
10
98.194
20
-117.759
11
98.194
21
-113.209
0
LINE
8
BLACK
6
CONTINUOUS
10
98.194
20
-113.209
11
103.444
21
-113.209
0
LINE
8
BLACK
6
CONTINUOUS
10
103.444
20
-113.209
11
103.444
21
-117.759
0
LINE
8
BLACK
6
CONTINUOUS
10
136.658
20
-116.261
11
132.658
21
-116.261
0
LINE
8
BLACK
6
CONTINUOUS
10
132.658
20
-116.261
11
132.658
21
-113.761
0
LINE
8
BLACK
6
CONTINUOUS
10
132.658
20
-113.761
11
136.658
21
-113.761
0
LINE
8
BLACK
6
CONTINUOUS
10
136.658
20
-113.761
11
136.658
21
-116.261
0
LINE
8
BLACK
6
CONTINUOUS
10
128.658
20
-116.261
11
124.658
21
-116.261
0
LINE
8
BLACK
6
CONTINUOUS
10
124.658
20
-116.261
11
124.658
21
-113.761
0
LINE
8
BLACK
6
CONTINUOUS
10
124.658
20
-113.761
11
128.658
21
-113.761
0
LINE
8
BLACK
6
CONTINUOUS
10
128.658
20
-113.761
11
128.658
21
-116.261
0
LINE
8
BLACK
6
CONTINUOUS
10
123.669
20
-113.823
11
120.169
21
-113.823
0
LINE
8
BLACK
6
CONTINUOUS
10
120.169
20
-113.823
11
120.169
21
-111.323
0
LINE
8
BLACK
6
CONTINUOUS
10
120.169
20
-111.323
11
123.669
21
-111.323
0
LINE
8
BLACK
6
CONTINUOUS
10
123.669
20
-111.323
11
123.669
21
-113.823
0
LINE
8
BLACK
6
CONTINUOUS
10
117.169
20
-113.823
11
113.669
21
-113.823
0
LINE
8
BLACK
6
CONTINUOUS
10
113.669
20
-113.823
11
113.669
21
-111.323
0
LINE
8
BLACK
6
CONTINUOUS
10
113.669
20
-111.323
11
117.169
21
-111.323
0
LINE
8
BLACK
6
CONTINUOUS
10
117.169
20
-111.323
11
117.169
21
-113.823
0
LINE
8
BLACK
6
CONTINUOUS
10
112.256
20
-113.012
11
110.756
21
-113.012
0
LINE
8
BLACK
6
CONTINUOUS
10
110.756
20
-113.012
11
110.756
21
-110.812
0
LINE
8
BLACK
6
CONTINUOUS
10
110.756
20
-110.812
11
112.256
21
-110.812
0
LINE
8
BLACK
6
CONTINUOUS
10
112.256
20
-110.812
11
112.256
21
-113.012
0
LINE
8
BLACK
6
CONTINUOUS
10
105.856
20
-113.012
11
104.356
21
-113.012
0
LINE
8
BLACK
6
CONTINUOUS
10
104.356
20
-113.012
11
104.356
21
-110.812
0
LINE
8
BLACK
6
CONTINUOUS
10
104.356
20
-110.812
11
105.856
21
-110.812
0
LINE
8
BLACK
6
CONTINUOUS
10
105.856
20
-110.812
11
105.856
21
-113.012
0
LINE
8
BLACK
6
CONTINUOUS
10
103.444
20
-112.909
11
98.194
21
-112.909
0
LINE
8
BLACK
6
CONTINUOUS
10
98.194
20
-112.909
11
98.194
21
-108.359
0
LINE
8
BLACK
6
CONTINUOUS
10
98.194
20
-108.359
11
103.444
21
-108.359
0
LINE
8
BLACK
6
CONTINUOUS
10
103.444
20
-108.359
11
103.444
21
-112.909
0
LINE
8
BLACK
6
CONTINUOUS
10
97.894
20
-112.909
11
92.644
21
-112.909
0
LINE
8
BLACK
6
CONTINUOUS
10
92.644
20
-112.909
11
92.644
21
-108.359
0
LINE
8
BLACK
6
CONTINUOUS
10
92.644
20
-108.359
11
97.894
21
-108.359
0
LINE
8
BLACK
6
CONTINUOUS
10
97.894
20
-108.359
11
97.894
21
-112.909
0
LINE
8
BLACK
6
CONTINUOUS
10
92.1934
20
-135.075
11
92.1868
21
-135.075
0
LINE
8
BLACK
6
CONTINUOUS
10
92.1868
20
-135.075
11
92.1805
21
-135.073
0
LINE
8
BLACK
6
CONTINUOUS
10
92.1805
20
-135.073
11
92.174
21
-135.072
0
LINE
8
BLACK
6
CONTINUOUS
10
92.174
20
-135.072
11
92.1682
21
-135.068
0
LINE
8
BLACK
6
CONTINUOUS
10
92.1682
20
-135.068
11
92.1619
21
-135.066
0
LINE
8
BLACK
6
CONTINUOUS
10
92.1619
20
-135.066
11
92.1568
21
-135.062
0
LINE
8
BLACK
6
CONTINUOUS
10
92.1568
20
-135.062
11
92.151
21
-135.058
0
LINE
8
BLACK
6
CONTINUOUS
10
92.151
20
-135.058
11
92.1468
21
-135.053
0
LINE
8
BLACK
6
CONTINUOUS
10
92.1468
20
-135.053
11
92.1417
21
-135.049
0
LINE
8
BLACK
6
CONTINUOUS
10
92.1417
20
-135.049
11
92.1383
21
-135.043
0
LINE
8
BLACK
6
CONTINUOUS
10
92.1383
20
-135.043
11
92.134
21
-135.038
0
LINE
8
BLACK
6
CONTINUOUS
10
92.134
20
-135.038
11
92.1318
21
-135.032
0
LINE
8
BLACK
6
CONTINUOUS
10
92.1318
20
-135.032
11
92.1284
21
-135.026
0
LINE
8
BLACK
6
CONTINUOUS
10
92.1284
20
-135.026
11
92.1273
21
-135.019
0
LINE
8
BLACK
6
CONTINUOUS
10
92.1273
20
-135.019
11
92.125
21
-135.013
0
LINE
8
BLACK
6
CONTINUOUS
10
92.125
20
-135.013
11
92.125
21
-135.007
0
LINE
8
BLACK
6
CONTINUOUS
10
92.125
20
-135.007
11
92.125
21
-135.007
0
LINE
8
BLACK
6
CONTINUOUS
10
92.125
20
-135.007
11
92.125
21
-45.9934
0
LINE
8
BLACK
6
CONTINUOUS
10
92.125
20
-45.9934
11
92.125
21
-45.9868
0
LINE
8
BLACK
6
CONTINUOUS
10
92.125
20
-45.9868
11
92.1273
21
-45.9805
0
LINE
8
BLACK
6
CONTINUOUS
10
92.1273
20
-45.9805
11
92.1284
21
-45.974
0
LINE
8
BLACK
6
CONTINUOUS
10
92.1284
20
-45.974
11
92.1318
21
-45.9682
0
LINE
8
BLACK
6
CONTINUOUS
10
92.1318
20
-45.9682
11
92.134
21
-45.9619
0
LINE
8
BLACK
6
CONTINUOUS
10
92.134
20
-45.9619
11
92.1383
21
-45.9568
0
LINE
8
BLACK
6
CONTINUOUS
10
92.1383
20
-45.9568
11
92.1417
21
-45.951
0
LINE
8
BLACK
6
CONTINUOUS
10
92.1417
20
-45.951
11
92.1468
21
-45.9468
0
LINE
8
BLACK
6
CONTINUOUS
10
92.1468
20
-45.9468
11
92.151
21
-45.9417
0
LINE
8
BLACK
6
CONTINUOUS
10
92.151
20
-45.9417
11
92.1568
21
-45.9383
0
LINE
8
BLACK
6
CONTINUOUS
10
92.1568
20
-45.9383
11
92.1619
21
-45.934
0
LINE
8
BLACK
6
CONTINUOUS
10
92.1619
20
-45.934
11
92.1682
21
-45.9318
0
LINE
8
BLACK
6
CONTINUOUS
10
92.1682
20
-45.9318
11
92.174
21
-45.9284
0
LINE
8
BLACK
6
CONTINUOUS
10
92.174
20
-45.9284
11
92.1805
21
-45.9273
0
LINE
8
BLACK
6
CONTINUOUS
10
92.1805
20
-45.9273
11
92.1868
21
-45.925
0
LINE
8
BLACK
6
CONTINUOUS
10
92.1868
20
-45.925
11
92.1934
21
-45.925
0
LINE
8
BLACK
6
CONTINUOUS
10
92.1934
20
-45.925
11
92.1934
21
-45.925
0
LINE
8
BLACK
6
CONTINUOUS
10
92.1934
20
-45.925
11
191.801
21
-45.925
0
LINE
8
BLACK
6
CONTINUOUS
10
191.801
20
-45.925
11
191.813
21
-45.925
0
LINE
8
BLACK
6
CONTINUOUS
10
191.813
20
-45.925
11
191.819
21
-45.9273
0
LINE
8
BLACK
6
CONTINUOUS
10
191.819
20
-45.9273
11
191.826
21
-45.9284
0
LINE
8
BLACK
6
CONTINUOUS
10
191.826
20
-45.9284
11
191.832
21
-45.9317
0
LINE
8
BLACK
6
CONTINUOUS
10
191.832
20
-45.9317
11
191.838
21
-45.934
0
LINE
8
BLACK
6
CONTINUOUS
10
191.838
20
-45.934
11
191.843
21
-45.9383
0
LINE
8
BLACK
6
CONTINUOUS
10
191.843
20
-45.9383
11
191.849
21
-45.9417
0
LINE
8
BLACK
6
CONTINUOUS
10
191.849
20
-45.9417
11
191.853
21
-45.9467
0
LINE
8
BLACK
6
CONTINUOUS
10
191.853
20
-45.9467
11
191.858
21
-45.9509
0
LINE
8
BLACK
6
CONTINUOUS
10
191.858
20
-45.9509
11
191.862
21
-45.9567
0
LINE
8
BLACK
6
CONTINUOUS
10
191.862
20
-45.9567
11
191.866
21
-45.9619
0
LINE
8
BLACK
6
CONTINUOUS
10
191.866
20
-45.9619
11
191.868
21
-45.9681
0
LINE
8
BLACK
6
CONTINUOUS
10
191.868
20
-45.9681
11
191.872
21
-45.9738
0
LINE
8
BLACK
6
CONTINUOUS
10
191.872
20
-45.9738
11
191.873
21
-45.9804
0
LINE
8
BLACK
6
CONTINUOUS
10
191.873
20
-45.9804
11
191.875
21
-45.9868
0
LINE
8
BLACK
6
CONTINUOUS
10
191.875
20
-45.9868
11
191.875
21
-45.9995
0
LINE
8
BLACK
6
CONTINUOUS
10
191.875
20
-45.9995
11
192.075
21
-134.987
0
LINE
8
BLACK
6
CONTINUOUS
10
192.075
20
-134.987
11
192.075
21
-134.987
0
LINE
8
BLACK
6
CONTINUOUS
10
192.075
20
-134.987
11
192.075
21
-135
0
LINE
8
BLACK
6
CONTINUOUS
10
192.075
20
-135
11
192.075
21
-135.006
0
LINE
8
BLACK
6
CONTINUOUS
10
192.075
20
-135.006
11
192.075
21
-135.006
0
LINE
8
BLACK
6
CONTINUOUS
10
192.075
20
-135.006
11
192.075
21
-135.013
0
LINE
8
BLACK
6
CONTINUOUS
10
192.075
20
-135.013
11
192.073
21
-135.019
0
LINE
8
BLACK
6
CONTINUOUS
10
192.073
20
-135.019
11
192.072
21
-135.026
0
LINE
8
BLACK
6
CONTINUOUS
10
192.072
20
-135.026
11
192.068
21
-135.032
0
LINE
8
BLACK
6
CONTINUOUS
10
192.068
20
-135.032
11
192.066
21
-135.038
0
LINE
8
BLACK
6
CONTINUOUS
10
192.066
20
-135.038
11
192.062
21
-135.043
0
LINE
8
BLACK
6
CONTINUOUS
10
192.062
20
-135.043
11
192.058
21
-135.049
0
LINE
8
BLACK
6
CONTINUOUS
10
192.058
20
-135.049
11
192.053
21
-135.053
0
LINE
8
BLACK
6
CONTINUOUS
10
192.053
20
-135.053
11
192.049
21
-135.058
0
LINE
8
BLACK
6
CONTINUOUS
10
192.049
20
-135.058
11
192.043
21
-135.062
0
LINE
8
BLACK
6
CONTINUOUS
10
192.043
20
-135.062
11
192.038
21
-135.066
0
LINE
8
BLACK
6
CONTINUOUS
10
192.038
20
-135.066
11
192.032
21
-135.068
0
LINE
8
BLACK
6
CONTINUOUS
10
192.032
20
-135.068
11
192.026
21
-135.072
0
LINE
8
BLACK
6
CONTINUOUS
10
192.026
20
-135.072
11
192.02
21
-135.073
0
LINE
8
BLACK
6
CONTINUOUS
10
192.02
20
-135.073
11
192.013
21
-135.075
0
LINE
8
BLACK
6
CONTINUOUS
10
192.013
20
-135.075
11
192.007
21
-135.075
0
LINE
8
BLACK
6
CONTINUOUS
10
192.007
20
-135.075
11
192.007
21
-135.075
0
LINE
8
BLACK
6
CONTINUOUS
10
192.007
20
-135.075
11
191.999
21
-135.075
0
LINE
8
BLACK
6
CONTINUOUS
10
191.999
20
-135.075
11
191.987
21
-135.075
0
LINE
8
BLACK
6
CONTINUOUS
10
191.987
20
-135.075
11
191.987
21
-135.075
0
LINE
8
BLACK
6
CONTINUOUS
10
191.987
20
-135.075
11
92.1934
21
-135.075
0
LINE
8
BLACK
6
CONTINUOUS
10
92.1934
20
-135.075
11
92.1934
21
-135.075
0
LINE
8
BLACK
6
CONTINUOUS
10
191.725
20
-46.075
11
92.275
21
-46.075
0
LINE
8
BLACK
6
CONTINUOUS
10
92.275
20
-46.075
11
92.275
21
-134.925
0
LINE
8
BLACK
6
CONTINUOUS
10
92.275
20
-134.925
11
191.925
21
-134.925
0
LINE
8
BLACK
6
CONTINUOUS
10
191.925
20
-134.925
11
191.725
21
-46.075
  0
ENDSEC
  0
EOF
